<svg width="438" height="484" viewBox="0 0 438 484" fill="none" xmlns="http://www.w3.org/2000/svg">
  <g clip-path="url(#clip0)">
    <path d="M25.4579 255H29.6579L16.9379 227H12.9779L0.297891 255H4.41789L7.49789 248H22.3779L25.4579 255ZM8.89789 244.8L14.9379 231.08L20.9779 244.8H8.89789ZM33.2748 255H37.1148V225.32H33.2748V255ZM48.1266 237.36V233.8H44.4466V255H48.2866V244.44C48.2866 239.8 50.8466 237.28 54.9666 237.28C55.2466 237.28 55.5266 237.28 55.8466 237.32V233.6C52.1266 233.6 49.4866 234.88 48.1266 237.36ZM79.5441 244.52C79.5441 238 75.1841 233.6 69.0641 233.6C62.9441 233.6 58.4241 238.12 58.4241 244.4C58.4241 250.72 62.9841 255.24 69.8241 255.24C73.3441 255.24 76.2641 254.04 78.1841 251.8L76.0641 249.32C74.5041 251.04 72.4241 251.88 69.9441 251.88C65.7441 251.88 62.7441 249.4 62.2641 245.68H79.4641C79.5041 245.32 79.5441 244.84 79.5441 244.52ZM69.0641 236.84C72.7841 236.84 75.4641 239.36 75.8641 242.92H62.2641C62.6641 239.32 65.3841 236.84 69.0641 236.84ZM92.0104 233.6C88.6104 233.6 85.4504 234.56 83.2504 236.32L84.8504 239.2C86.4904 237.8 89.0504 236.92 91.5704 236.92C95.3704 236.92 97.2504 238.8 97.2504 242.04V242.8H91.1704C84.8504 242.8 82.6504 245.6 82.6504 249C82.6504 252.68 85.6904 255.24 90.4904 255.24C93.8104 255.24 96.1704 254.12 97.4504 252.2V255H101.09V242.2C101.09 236.4 97.8104 233.6 92.0104 233.6ZM91.1304 252.28C88.2104 252.28 86.4504 250.96 86.4504 248.84C86.4504 247.04 87.5304 245.56 91.3304 245.56H97.2504V248.52C96.2904 250.96 94.0104 252.28 91.1304 252.28ZM124.474 225.32V237C122.714 234.72 120.074 233.6 117.074 233.6C110.874 233.6 106.354 237.92 106.354 244.4C106.354 250.88 110.874 255.24 117.074 255.24C120.194 255.24 122.914 254.04 124.634 251.64V255H128.314V225.32H124.474ZM117.394 251.88C113.314 251.88 110.234 248.92 110.234 244.4C110.234 239.88 113.314 236.96 117.394 236.96C121.434 236.96 124.514 239.88 124.514 244.4C124.514 248.92 121.434 251.88 117.394 251.88ZM150.579 233.8L143.259 250.76L135.859 233.8H131.859L141.219 254.96L140.539 256.44C139.499 258.88 138.339 259.72 136.499 259.72C135.059 259.72 133.739 259.16 132.699 258.16L131.059 261.04C132.379 262.32 134.459 263 136.499 263C139.739 263 142.179 261.6 144.059 257.12L154.339 233.8H150.579Z" fill="#001A34"/>
    <path d="M170.965 255.495C169.499 255.495 168.765 254.597 168.765 252.8C168.765 252.03 168.875 251.132 169.095 250.105L171.35 238.665C171.46 238.115 171.515 237.638 171.515 237.235C171.515 236.135 171.167 235.585 170.47 235.585C170.067 235.585 169.554 235.805 168.93 236.245C168.307 236.648 167.629 237.235 166.895 238.005C166.859 238.042 166.804 238.06 166.73 238.06C166.62 238.06 166.51 238.005 166.4 237.895C166.327 237.748 166.345 237.638 166.455 237.565C168.875 234.705 171.02 233.275 172.89 233.275C173.624 233.275 174.155 233.495 174.485 233.935C174.852 234.338 175.035 234.98 175.035 235.86C175.035 236.703 174.944 237.547 174.76 238.39L172.505 250.105C172.395 250.655 172.34 251.132 172.34 251.535C172.34 252.598 172.67 253.13 173.33 253.13C174.174 253.13 175.329 252.36 176.795 250.82C176.832 250.783 176.887 250.765 176.96 250.765C177.107 250.765 177.217 250.838 177.29 250.985C177.364 251.095 177.345 251.187 177.235 251.26C176.025 252.69 174.907 253.753 173.88 254.45C172.89 255.147 171.919 255.495 170.965 255.495ZM174.485 227.005C173.679 227.005 173.037 226.785 172.56 226.345C172.12 225.868 171.9 225.227 171.9 224.42C171.9 223.65 172.12 223.045 172.56 222.605C173.037 222.165 173.679 221.945 174.485 221.945C175.292 221.945 175.915 222.165 176.355 222.605C176.832 223.045 177.07 223.65 177.07 224.42C177.07 225.227 176.85 225.868 176.41 226.345C175.97 226.785 175.329 227.005 174.485 227.005ZM202.979 250.765C203.053 250.692 203.108 250.655 203.144 250.655C203.254 250.655 203.346 250.728 203.419 250.875C203.493 250.985 203.493 251.095 203.419 251.205C202.173 252.672 201.054 253.753 200.064 254.45C199.074 255.147 198.103 255.495 197.149 255.495C196.416 255.495 195.884 255.293 195.554 254.89C195.224 254.45 195.059 253.753 195.059 252.8C195.059 252.177 195.151 251.278 195.334 250.105L196.929 241.36C197.149 240.26 197.259 239.307 197.259 238.5C197.259 236.52 196.544 235.53 195.114 235.53C193.941 235.53 192.731 236.282 191.484 237.785C190.238 239.288 189.064 241.47 187.964 244.33C186.864 247.19 185.966 250.582 185.269 254.505C185.196 254.798 184.976 255.018 184.609 255.165C184.243 255.348 183.748 255.44 183.124 255.44C182.134 255.44 181.639 255.312 181.639 255.055L181.859 253.955C182.189 252.378 182.391 251.37 182.464 250.93L184.719 238.665C184.829 238.115 184.884 237.657 184.884 237.29C184.884 236.153 184.536 235.585 183.839 235.585C182.959 235.585 181.749 236.392 180.209 238.005C180.173 238.042 180.118 238.06 180.044 238.06C179.934 238.06 179.843 238.005 179.769 237.895C179.696 237.748 179.696 237.638 179.769 237.565C181.016 236.098 182.171 235.017 183.234 234.32C184.298 233.623 185.324 233.275 186.314 233.275C187.048 233.275 187.579 233.495 187.909 233.935C188.239 234.338 188.404 234.998 188.404 235.915C188.404 236.465 188.313 237.29 188.129 238.39L187.029 244.44C188.349 240.847 189.889 238.06 191.649 236.08C193.409 234.063 195.261 233.055 197.204 233.055C198.414 233.055 199.313 233.403 199.899 234.1C200.523 234.797 200.834 235.86 200.834 237.29C200.834 238.133 200.724 239.142 200.504 240.315L198.689 250.105C198.579 250.655 198.524 251.113 198.524 251.48C198.524 252.58 198.873 253.13 199.569 253.13C199.936 253.13 200.394 252.928 200.944 252.525C201.494 252.122 202.173 251.535 202.979 250.765ZM232.907 233.385C234.704 233.385 236.061 233.88 236.977 234.87C237.931 235.823 238.407 237.235 238.407 239.105C238.407 239.692 238.352 240.352 238.242 241.085C237.912 243.542 237.069 245.852 235.712 248.015C234.392 250.142 232.797 251.847 230.927 253.13C229.057 254.413 227.151 255.055 225.207 255.055C224.071 255.055 223.117 255 222.347 254.89L220.587 264.79C220.477 265.413 220.422 265.927 220.422 266.33C220.422 266.953 220.569 267.393 220.862 267.65C221.156 267.943 221.614 268.09 222.237 268.09C222.457 268.09 222.897 268.053 223.557 267.98C223.704 267.943 223.796 268.017 223.832 268.2C223.906 268.42 223.869 268.548 223.722 268.585L213.932 270.125C213.786 270.162 213.694 270.07 213.657 269.85C213.621 269.63 213.676 269.502 213.822 269.465C214.629 269.318 215.216 269.117 215.582 268.86C215.949 268.64 216.224 268.273 216.407 267.76C216.591 267.247 216.792 266.385 217.012 265.175L221.687 238.995C221.467 239.142 220.624 239.765 219.157 240.865L219.047 240.92C218.901 240.92 218.791 240.847 218.717 240.7C218.644 240.517 218.662 240.388 218.772 240.315C219.762 239.435 220.807 238.61 221.907 237.84L222.622 233.77C222.622 233.697 222.934 233.44 223.557 233C224.181 232.523 224.731 232.01 225.207 231.46C225.721 230.91 226.051 230.305 226.197 229.645C226.234 229.498 226.344 229.443 226.527 229.48C226.747 229.517 226.839 229.608 226.802 229.755L225.812 235.42C228.342 234.063 230.707 233.385 232.907 233.385ZM234.557 242.9C234.631 242.02 234.667 241.378 234.667 240.975C234.667 237.382 233.146 235.585 230.102 235.585C228.672 235.585 227.169 235.952 225.592 236.685L222.732 252.58C224.089 253.167 225.482 253.46 226.912 253.46C229.076 253.46 230.781 252.507 232.027 250.6C233.311 248.693 234.154 246.127 234.557 242.9ZM255.636 233.275C256.406 233.275 257.14 233.55 257.836 234.1C258.533 234.65 258.881 235.292 258.881 236.025C258.881 236.575 258.68 237.07 258.276 237.51C257.91 237.913 257.433 238.115 256.846 238.115C256.443 238.115 256.113 238.042 255.856 237.895C255.6 237.712 255.325 237.455 255.031 237.125C254.848 236.942 254.646 236.777 254.426 236.63C254.243 236.447 254.023 236.355 253.766 236.355C253.033 236.355 252.135 237.4 251.071 239.49C250.045 241.543 249.055 244.018 248.101 246.915C247.185 249.775 246.506 252.305 246.066 254.505C245.993 254.798 245.773 255.018 245.406 255.165C245.04 255.348 244.545 255.44 243.921 255.44C242.968 255.44 242.491 255.312 242.491 255.055C242.528 254.835 242.638 254.267 242.821 253.35C243.041 252.433 243.206 251.627 243.316 250.93L245.296 240.095C245.443 239.252 245.516 238.482 245.516 237.785C245.516 236.318 245.113 235.585 244.306 235.585C243.536 235.585 242.455 236.282 241.061 237.675C241.025 237.712 240.97 237.73 240.896 237.73C240.786 237.73 240.695 237.675 240.621 237.565C240.548 237.418 240.548 237.308 240.621 237.235C241.795 235.878 242.876 234.888 243.866 234.265C244.856 233.605 245.828 233.275 246.781 233.275C247.551 233.275 248.12 233.513 248.486 233.99C248.853 234.467 249.036 235.273 249.036 236.41C249.036 237.29 248.926 238.427 248.706 239.82L247.551 246.255C248.725 242.478 250.008 239.38 251.401 236.96C252.831 234.503 254.243 233.275 255.636 233.275ZM266.094 255.77C263.821 255.77 262.061 255 260.814 253.46C259.604 251.883 258.999 249.848 258.999 247.355C258.999 246.548 259.091 245.558 259.274 244.385C259.678 242.222 260.448 240.278 261.584 238.555C262.758 236.832 264.169 235.493 265.819 234.54C267.469 233.55 269.211 233.055 271.044 233.055C273.391 233.055 275.188 233.825 276.434 235.365C277.718 236.868 278.359 238.867 278.359 241.36C278.359 242.313 278.249 243.322 278.029 244.385C277.553 246.695 276.691 248.712 275.444 250.435C274.234 252.158 272.804 253.478 271.154 254.395C269.504 255.312 267.818 255.77 266.094 255.77ZM268.019 254.395C269.449 254.395 270.714 253.717 271.814 252.36C272.951 251.003 273.739 249.152 274.179 246.805C274.399 245.632 274.509 244.477 274.509 243.34C274.509 240.847 274.051 238.738 273.134 237.015C272.254 235.255 270.989 234.375 269.339 234.375C267.946 234.375 266.681 235.053 265.544 236.41C264.408 237.767 263.619 239.637 263.179 242.02C262.923 243.413 262.794 244.642 262.794 245.705C262.794 248.162 263.253 250.233 264.169 251.92C265.123 253.57 266.406 254.395 268.019 254.395ZM298.675 250.105C298.565 250.655 298.51 251.132 298.51 251.535C298.51 252.598 298.84 253.13 299.5 253.13C299.866 253.13 300.325 252.928 300.875 252.525C301.425 252.122 302.103 251.535 302.91 250.765C302.983 250.692 303.056 250.655 303.13 250.655C303.24 250.655 303.331 250.728 303.405 250.875C303.478 250.985 303.46 251.095 303.35 251.205C302.066 252.672 300.948 253.753 299.995 254.45C299.041 255.147 298.088 255.495 297.135 255.495C296.401 255.495 295.851 255.293 295.485 254.89C295.155 254.45 294.99 253.772 294.99 252.855C294.99 252.122 295.1 251.205 295.32 250.105L296.255 245.21C294.641 248.473 292.918 251.04 291.085 252.91C289.251 254.78 287.381 255.715 285.475 255.715C284.155 255.715 283.055 255.293 282.175 254.45C281.295 253.57 280.855 252.213 280.855 250.38C280.855 249.573 280.928 248.803 281.075 248.07C281.551 245.467 282.56 243.01 284.1 240.7C285.64 238.39 287.473 236.538 289.6 235.145C291.726 233.752 293.816 233.055 295.87 233.055C296.86 233.055 297.703 233.257 298.4 233.66L300.655 221.45C300.728 221.12 300.765 220.698 300.765 220.185C300.765 219.158 300.38 218.645 299.61 218.645C299.06 218.645 298.198 218.92 297.025 219.47H296.97C296.823 219.47 296.713 219.378 296.64 219.195C296.603 218.975 296.658 218.847 296.805 218.81L304.395 215.125H304.505C304.651 215.125 304.78 215.18 304.89 215.29C305 215.4 305.036 215.492 305 215.565L298.675 250.105ZM287.565 252.69C289.141 252.69 290.681 251.847 292.185 250.16C293.688 248.437 294.916 246.457 295.87 244.22C296.823 241.947 297.3 240.168 297.3 238.885C297.3 237.712 296.97 236.813 296.31 236.19C295.65 235.567 294.77 235.255 293.67 235.255C291.433 235.255 289.508 236.153 287.895 237.95C286.281 239.71 285.2 242.258 284.65 245.595C284.503 246.438 284.43 247.282 284.43 248.125C284.43 249.628 284.705 250.765 285.255 251.535C285.805 252.305 286.575 252.69 287.565 252.69ZM328.335 250.765C328.372 250.728 328.427 250.71 328.5 250.71C328.61 250.71 328.702 250.783 328.775 250.93C328.849 251.04 328.849 251.132 328.775 251.205C327.492 252.708 326.337 253.808 325.31 254.505C324.284 255.165 323.275 255.495 322.285 255.495C321.552 255.495 321.02 255.293 320.69 254.89C320.36 254.487 320.195 253.827 320.195 252.91C320.195 252.323 320.287 251.48 320.47 250.38L321.57 244.11C320.25 247.777 318.692 250.637 316.895 252.69C315.135 254.707 313.284 255.715 311.34 255.715C308.884 255.715 307.655 254.322 307.655 251.535C307.655 250.838 307.784 249.812 308.04 248.455L310.02 238.665C310.13 238.115 310.185 237.657 310.185 237.29C310.185 236.19 309.837 235.64 309.14 235.64C308.774 235.64 308.315 235.842 307.765 236.245C307.252 236.648 306.592 237.235 305.785 238.005C305.712 238.078 305.639 238.115 305.565 238.115C305.455 238.115 305.364 238.06 305.29 237.95C305.217 237.803 305.235 237.675 305.345 237.565C306.629 236.098 307.747 235.017 308.7 234.32C309.654 233.623 310.607 233.275 311.56 233.275C312.99 233.275 313.705 234.173 313.705 235.97C313.705 236.667 313.595 237.565 313.375 238.665L311.615 247.41C311.395 248.51 311.285 249.445 311.285 250.215C311.285 252.232 312.019 253.24 313.485 253.24C314.659 253.24 315.869 252.488 317.115 250.985C318.362 249.482 319.517 247.3 320.58 244.44C321.68 241.58 322.579 238.188 323.275 234.265C323.349 233.972 323.569 233.752 323.935 233.605C324.302 233.422 324.815 233.33 325.475 233.33C326.429 233.33 326.905 233.458 326.905 233.715L326.685 234.815C326.355 236.392 326.154 237.4 326.08 237.84L323.825 250.105C323.752 250.435 323.715 250.893 323.715 251.48C323.715 252.617 324.045 253.185 324.705 253.185C325.145 253.185 325.677 252.983 326.3 252.58C326.924 252.14 327.602 251.535 328.335 250.765ZM338.608 255.715C336.188 255.715 334.373 254.89 333.163 253.24C331.99 251.59 331.403 249.537 331.403 247.08C331.403 245.98 331.513 244.917 331.733 243.89C332.136 241.727 332.961 239.82 334.208 238.17C335.491 236.52 336.976 235.255 338.663 234.375C340.35 233.495 342.018 233.055 343.668 233.055C344.988 233.055 346.125 233.348 347.078 233.935C348.068 234.485 348.563 235.237 348.563 236.19C348.563 236.813 348.38 237.345 348.013 237.785C347.646 238.225 347.115 238.445 346.418 238.445C345.281 238.445 344.548 237.785 344.218 236.465C343.815 235.072 342.935 234.375 341.578 234.375C340.038 234.375 338.773 235.09 337.783 236.52C336.793 237.913 336.096 239.783 335.693 242.13C335.436 243.597 335.308 244.807 335.308 245.76C335.308 248.107 335.803 249.995 336.793 251.425C337.783 252.855 339.268 253.57 341.248 253.57C343.045 253.57 344.878 252.818 346.748 251.315L346.858 251.26C346.968 251.26 347.06 251.333 347.133 251.48C347.243 251.627 347.261 251.737 347.188 251.81C344.365 254.413 341.505 255.715 338.608 255.715ZM365.157 233.88C365.303 233.88 365.413 233.935 365.487 234.045C365.56 234.155 365.578 234.283 365.542 234.43C365.432 234.797 365.193 235.2 364.827 235.64C364.46 236.08 364.093 236.3 363.727 236.3C363.543 236.3 362.847 236.208 361.637 236.025C360.463 235.842 359.253 235.732 358.007 235.695L355.587 249.17C355.477 249.72 355.422 250.215 355.422 250.655C355.422 251.572 355.642 252.25 356.082 252.69C356.522 253.093 357.218 253.295 358.172 253.295C359.052 253.295 359.877 253.112 360.647 252.745C361.453 252.342 362.333 251.755 363.287 250.985H363.342C363.452 250.985 363.562 251.04 363.672 251.15C363.782 251.26 363.8 251.352 363.727 251.425C362.077 252.928 360.61 254.01 359.327 254.67C358.08 255.33 356.87 255.66 355.697 255.66C354.523 255.66 353.57 255.385 352.837 254.835C352.103 254.248 351.737 253.277 351.737 251.92C351.737 251.7 351.773 251.26 351.847 250.6L354.157 238.17C354.303 237.547 354.377 236.978 354.377 236.465C354.377 235.952 354.23 235.622 353.937 235.475C353.643 235.292 353.093 235.2 352.287 235.2C352.177 235.2 352.122 235.108 352.122 234.925C352.122 234.815 352.14 234.705 352.177 234.595C352.25 234.485 352.305 234.43 352.342 234.43C353.698 234.43 354.872 234.027 355.862 233.22C356.888 232.377 357.622 231.313 358.062 230.03C358.062 229.92 358.19 229.865 358.447 229.865C358.593 229.865 358.722 229.902 358.832 229.975C358.978 230.012 359.033 230.048 358.997 230.085L358.227 234.32C359.107 234.283 359.95 234.247 360.757 234.21C361.563 234.137 362.297 234.082 362.957 234.045C364.02 233.935 364.753 233.88 365.157 233.88ZM371.2 255.495C369.733 255.495 369 254.597 369 252.8C369 252.03 369.11 251.132 369.33 250.105L371.585 238.665C371.695 238.115 371.75 237.638 371.75 237.235C371.75 236.135 371.401 235.585 370.705 235.585C370.301 235.585 369.788 235.805 369.165 236.245C368.541 236.648 367.863 237.235 367.13 238.005C367.093 238.042 367.038 238.06 366.965 238.06C366.855 238.06 366.745 238.005 366.635 237.895C366.561 237.748 366.58 237.638 366.69 237.565C369.11 234.705 371.255 233.275 373.125 233.275C373.858 233.275 374.39 233.495 374.72 233.935C375.086 234.338 375.27 234.98 375.27 235.86C375.27 236.703 375.178 237.547 374.995 238.39L372.74 250.105C372.63 250.655 372.575 251.132 372.575 251.535C372.575 252.598 372.905 253.13 373.565 253.13C374.408 253.13 375.563 252.36 377.03 250.82C377.066 250.783 377.121 250.765 377.195 250.765C377.341 250.765 377.451 250.838 377.525 250.985C377.598 251.095 377.58 251.187 377.47 251.26C376.26 252.69 375.141 253.753 374.115 254.45C373.125 255.147 372.153 255.495 371.2 255.495ZM374.72 227.005C373.913 227.005 373.271 226.785 372.795 226.345C372.355 225.868 372.135 225.227 372.135 224.42C372.135 223.65 372.355 223.045 372.795 222.605C373.271 222.165 373.913 221.945 374.72 221.945C375.526 221.945 376.15 222.165 376.59 222.605C377.066 223.045 377.305 223.65 377.305 224.42C377.305 225.227 377.085 225.868 376.645 226.345C376.205 226.785 375.563 227.005 374.72 227.005ZM387.374 255.77C385.1 255.77 383.34 255 382.094 253.46C380.884 251.883 380.279 249.848 380.279 247.355C380.279 246.548 380.37 245.558 380.554 244.385C380.957 242.222 381.727 240.278 382.864 238.555C384.037 236.832 385.449 235.493 387.099 234.54C388.749 233.55 390.49 233.055 392.324 233.055C394.67 233.055 396.467 233.825 397.714 235.365C398.997 236.868 399.639 238.867 399.639 241.36C399.639 242.313 399.529 243.322 399.309 244.385C398.832 246.695 397.97 248.712 396.724 250.435C395.514 252.158 394.084 253.478 392.434 254.395C390.784 255.312 389.097 255.77 387.374 255.77ZM389.299 254.395C390.729 254.395 391.994 253.717 393.094 252.36C394.23 251.003 395.019 249.152 395.459 246.805C395.679 245.632 395.789 244.477 395.789 243.34C395.789 240.847 395.33 238.738 394.414 237.015C393.534 235.255 392.269 234.375 390.619 234.375C389.225 234.375 387.96 235.053 386.824 236.41C385.687 237.767 384.899 239.637 384.459 242.02C384.202 243.413 384.074 244.642 384.074 245.705C384.074 248.162 384.532 250.233 385.449 251.92C386.402 253.57 387.685 254.395 389.299 254.395ZM425.289 250.765C425.362 250.692 425.417 250.655 425.454 250.655C425.564 250.655 425.655 250.728 425.729 250.875C425.802 250.985 425.802 251.095 425.729 251.205C424.482 252.672 423.364 253.753 422.374 254.45C421.384 255.147 420.412 255.495 419.459 255.495C418.725 255.495 418.194 255.293 417.864 254.89C417.534 254.45 417.369 253.753 417.369 252.8C417.369 252.177 417.46 251.278 417.644 250.105L419.239 241.36C419.459 240.26 419.569 239.307 419.569 238.5C419.569 236.52 418.854 235.53 417.424 235.53C416.25 235.53 415.04 236.282 413.794 237.785C412.547 239.288 411.374 241.47 410.274 244.33C409.174 247.19 408.275 250.582 407.579 254.505C407.505 254.798 407.285 255.018 406.919 255.165C406.552 255.348 406.057 255.44 405.434 255.44C404.444 255.44 403.949 255.312 403.949 255.055L404.169 253.955C404.499 252.378 404.7 251.37 404.774 250.93L407.029 238.665C407.139 238.115 407.194 237.657 407.194 237.29C407.194 236.153 406.845 235.585 406.149 235.585C405.269 235.585 404.059 236.392 402.519 238.005C402.482 238.042 402.427 238.06 402.354 238.06C402.244 238.06 402.152 238.005 402.079 237.895C402.005 237.748 402.005 237.638 402.079 237.565C403.325 236.098 404.48 235.017 405.544 234.32C406.607 233.623 407.634 233.275 408.624 233.275C409.357 233.275 409.889 233.495 410.219 233.935C410.549 234.338 410.714 234.998 410.714 235.915C410.714 236.465 410.622 237.29 410.439 238.39L409.339 244.44C410.659 240.847 412.199 238.06 413.959 236.08C415.719 234.063 417.57 233.055 419.514 233.055C420.724 233.055 421.622 233.403 422.209 234.1C422.832 234.797 423.144 235.86 423.144 237.29C423.144 238.133 423.034 239.142 422.814 240.315L420.999 250.105C420.889 250.655 420.834 251.113 420.834 251.48C420.834 252.58 421.182 253.13 421.879 253.13C422.245 253.13 422.704 252.928 423.254 252.525C423.804 252.122 424.482 251.535 425.289 250.765ZM430.556 255.55C429.75 255.55 429.108 255.312 428.631 254.835C428.191 254.358 427.971 253.717 427.971 252.91C427.971 252.177 428.191 251.59 428.631 251.15C429.108 250.71 429.75 250.49 430.556 250.49C431.363 250.49 431.986 250.71 432.426 251.15C432.866 251.553 433.086 252.14 433.086 252.91C433.086 253.753 432.866 254.413 432.426 254.89C431.986 255.33 431.363 255.55 430.556 255.55ZM432.591 240.095C431.785 240.095 431.143 239.857 430.666 239.38C430.226 238.903 430.006 238.262 430.006 237.455C430.006 236.722 430.226 236.135 430.666 235.695C431.143 235.255 431.785 235.035 432.591 235.035C433.398 235.035 434.021 235.255 434.461 235.695C434.901 236.098 435.121 236.685 435.121 237.455C435.121 238.298 434.901 238.958 434.461 239.435C434.021 239.875 433.398 240.095 432.591 240.095Z" fill="#FF0097"/>
    <path d="M142.794 99.592V93.872H150.758V92.486H142.794V87.008H151.726V85.6H141.166V101H152.056V99.592H142.794ZM166.822 85.6L160.882 98.976L154.986 85.6H153.226L160.046 101H161.652L168.472 85.6H166.822ZM185.359 85.6L178.737 97.018L172.049 85.6H170.707V101H172.269V88.746L178.319 99.042H179.089L185.139 88.68V101H186.701V85.6H185.359ZM250.925 99.592V93.872H258.889V92.486H250.925V87.008H259.857V85.6H249.297V101H260.187V99.592H250.925ZM274.953 85.6L269.013 98.976L263.117 85.6H261.357L268.177 101H269.783L276.603 85.6H274.953ZM293.49 85.6L286.868 97.018L280.18 85.6H278.838V101H280.4V88.746L286.45 99.042H287.22L293.27 88.68V101H294.832V85.6H293.49ZM116.787 132.592V126.872H124.751V125.486H116.787V120.008H125.719V118.6H115.159V134H126.049V132.592H116.787ZM140.815 118.6L134.875 131.976L128.979 118.6H127.219L134.039 134H135.645L142.465 118.6H140.815ZM159.352 118.6L152.73 130.018L146.042 118.6H144.7V134H146.262V121.746L152.312 132.042H153.082L159.132 121.68V134H160.694V118.6H159.352ZM228.856 122.34C226.854 122.34 225.292 123.154 224.456 124.562V122.428H222.96V134H224.522V127.928C224.522 125.288 226.084 123.748 228.57 123.748C230.77 123.748 232.046 125.002 232.046 127.444V134H233.608V127.29C233.608 123.968 231.672 122.34 228.856 122.34ZM242.622 134.11C246.01 134.11 248.496 131.646 248.496 128.214C248.496 124.782 246.01 122.34 242.622 122.34C239.234 122.34 236.726 124.782 236.726 128.214C236.726 131.646 239.234 134.11 242.622 134.11ZM242.622 132.724C240.158 132.724 238.31 130.92 238.31 128.214C238.31 125.508 240.158 123.704 242.622 123.704C245.086 123.704 246.912 125.508 246.912 128.214C246.912 130.92 245.086 132.724 242.622 132.724ZM257.581 122.34C255.579 122.34 254.017 123.154 253.181 124.562V122.428H251.685V134H253.247V127.928C253.247 125.288 254.809 123.748 257.295 123.748C259.495 123.748 260.771 125.002 260.771 127.444V134H262.333V127.29C262.333 123.968 260.397 122.34 257.581 122.34ZM265.716 128.72H271.48V127.356H265.716V128.72ZM276.932 132.592V126.872H284.896V125.486H276.932V120.008H285.864V118.6H275.304V134H286.194V132.592H276.932ZM300.96 118.6L295.02 131.976L289.124 118.6H287.364L294.184 134H295.79L302.61 118.6H300.96ZM319.497 118.6L312.875 130.018L306.187 118.6H304.845V134H306.407V121.746L312.457 132.042H313.227L319.277 121.68V134H320.839V118.6H319.497ZM91.8396 155.34C89.8376 155.34 88.2756 156.154 87.4396 157.562V155.428H85.9436V167H87.5056V160.928C87.5056 158.288 89.0676 156.748 91.5536 156.748C93.7536 156.748 95.0296 158.002 95.0296 160.444V167H96.5916V160.29C96.5916 156.968 94.6556 155.34 91.8396 155.34ZM105.605 167.11C108.993 167.11 111.479 164.646 111.479 161.214C111.479 157.782 108.993 155.34 105.605 155.34C102.217 155.34 99.7093 157.782 99.7093 161.214C99.7093 164.646 102.217 167.11 105.605 167.11ZM105.605 165.724C103.141 165.724 101.293 163.92 101.293 161.214C101.293 158.508 103.141 156.704 105.605 156.704C108.069 156.704 109.895 158.508 109.895 161.214C109.895 163.92 108.069 165.724 105.605 165.724ZM120.564 155.34C118.562 155.34 117 156.154 116.164 157.562V155.428H114.668V167H116.23V160.928C116.23 158.288 117.792 156.748 120.278 156.748C122.478 156.748 123.754 158.002 123.754 160.444V167H125.316V160.29C125.316 156.968 123.38 155.34 120.564 155.34ZM128.699 161.72H134.463V160.356H128.699V161.72ZM139.915 165.592V159.872H147.879V158.486H139.915V153.008H148.847V151.6H138.287V167H149.177V165.592H139.915ZM163.943 151.6L158.003 164.976L152.107 151.6H150.347L157.167 167H158.773L165.593 151.6H163.943ZM182.48 151.6L175.858 163.018L169.17 151.6H167.828V167H169.39V154.746L175.44 165.042H176.21L182.26 154.68V167H183.822V151.6H182.48ZM251.984 155.34C249.982 155.34 248.42 156.154 247.584 157.562V155.428H246.088V167H247.65V160.928C247.65 158.288 249.212 156.748 251.698 156.748C253.898 156.748 255.174 158.002 255.174 160.444V167H256.736V160.29C256.736 156.968 254.8 155.34 251.984 155.34ZM265.75 167.11C269.138 167.11 271.624 164.646 271.624 161.214C271.624 157.782 269.138 155.34 265.75 155.34C262.362 155.34 259.854 157.782 259.854 161.214C259.854 164.646 262.362 167.11 265.75 167.11ZM265.75 165.724C263.286 165.724 261.438 163.92 261.438 161.214C261.438 158.508 263.286 156.704 265.75 156.704C268.214 156.704 270.04 158.508 270.04 161.214C270.04 163.92 268.214 165.724 265.75 165.724ZM280.709 155.34C278.707 155.34 277.145 156.154 276.309 157.562V155.428H274.813V167H276.375V160.928C276.375 158.288 277.937 156.748 280.423 156.748C282.623 156.748 283.899 158.002 283.899 160.444V167H285.461V160.29C285.461 156.968 283.525 155.34 280.709 155.34ZM288.843 161.72H294.607V160.356H288.843V161.72ZM300.06 165.592V159.872H308.024V158.486H300.06V153.008H308.992V151.6H298.432V167H309.322V165.592H300.06ZM324.088 151.6L318.148 164.976L312.252 151.6H310.492L317.312 167H318.918L325.738 151.6H324.088ZM342.625 151.6L336.003 163.018L329.315 151.6H327.973V167H329.535V154.746L335.585 165.042H336.355L342.405 154.68V167H343.967V151.6H342.625Z" fill="#001A34"/>
    <path d="M240 93L235 90.1132V95.8868L240 93ZM198.333 93.5H235.5V92.5H198.333V93.5Z" fill="#73979C"/>
    <path d="M214.667 127.5L209.667 124.613V130.387L214.667 127.5ZM173 128H210.167V127H173V128Z" fill="#73979C"/>
    <path d="M237 160.5L232 157.613V163.387L237 160.5ZM195.333 161H232.5V160H195.333V161Z" fill="#73979C"/>
    <path d="M138.8 31.695C141.294 31.9517 143.237 32.795 144.63 34.225C146.06 35.6183 146.775 37.3783 146.775 39.505C146.775 40.0183 146.72 40.5867 146.61 41.21C146.244 43.0433 145.419 44.73 144.135 46.27C142.889 47.7733 141.33 48.9833 139.46 49.9C137.627 50.78 135.665 51.22 133.575 51.22C132.549 51.22 131.394 51.165 130.11 51.055C129.634 51.0183 129.065 50.9817 128.405 50.945C127.782 50.9083 127.104 50.89 126.37 50.89L122.85 50.945C122.264 50.9817 121.439 51 120.375 51C120.265 51 120.21 50.89 120.21 50.67C120.247 50.45 120.302 50.34 120.375 50.34C122.025 50.34 123.162 50.0833 123.785 49.57C124.445 49.0567 124.922 48.0117 125.215 46.435L129.725 20.97C129.835 20.31 129.89 19.7783 129.89 19.375C129.89 18.5317 129.634 17.9817 129.12 17.725C128.644 17.4317 127.727 17.285 126.37 17.285C126.26 17.285 126.205 17.175 126.205 16.955C126.242 16.735 126.297 16.625 126.37 16.625L128.955 16.68C130.349 16.7533 131.449 16.79 132.255 16.79C132.879 16.79 133.447 16.7717 133.96 16.735C134.51 16.6983 134.987 16.6617 135.39 16.625C136.454 16.515 137.425 16.46 138.305 16.46C141.092 16.46 143.2 16.9917 144.63 18.055C146.06 19.0817 146.775 20.5117 146.775 22.345C146.775 22.8583 146.72 23.39 146.61 23.94C146.207 25.7 145.345 27.24 144.025 28.56C142.705 29.88 140.964 30.925 138.8 31.695ZM131.76 31.64L133.85 31.695C136.307 31.695 138.287 30.98 139.79 29.55C141.294 28.0833 142.265 26.195 142.705 23.885C142.852 23.2983 142.925 22.675 142.925 22.015C142.925 20.5483 142.449 19.4117 141.495 18.605C140.579 17.7617 139.167 17.34 137.26 17.34C136.087 17.34 135.244 17.5967 134.73 18.11C134.217 18.6233 133.832 19.705 133.575 21.355L131.76 31.64ZM142.21 41.98C142.357 41.2467 142.43 40.495 142.43 39.725C142.43 37.5983 141.807 35.9483 140.56 34.775C139.314 33.6017 137.444 32.9967 134.95 32.96C134.034 32.9233 132.879 32.96 131.485 33.07L129.065 46.655C128.955 47.1317 128.9 47.5717 128.9 47.975C128.9 48.7817 129.175 49.35 129.725 49.68C130.312 50.01 131.357 50.175 132.86 50.175C135.537 50.175 137.645 49.46 139.185 48.03C140.725 46.5633 141.734 44.5467 142.21 41.98ZM169.335 29.22C170.105 29.22 170.692 29.5133 171.095 30.1C171.499 30.6867 171.7 31.4933 171.7 32.52C171.7 35.4167 170.252 39.6333 167.355 45.17C164.495 50.7067 161.195 55.6383 157.455 59.965C153.715 64.2917 150.617 66.455 148.16 66.455C147.39 66.455 146.767 66.2717 146.29 65.905C145.814 65.575 145.575 65.0433 145.575 64.31L145.63 63.815C145.924 62.605 146.767 62 148.16 62C148.527 62 149.114 62.0367 149.92 62.11C150.654 62.1833 151.204 62.22 151.57 62.22C152.78 62.22 153.789 61.9083 154.595 61.285C155.659 60.5883 157.052 59.0667 158.775 56.72L158.83 53.86C158.83 46.8933 158.28 41.5033 157.18 37.69C156.117 33.84 154.65 31.915 152.78 31.915C152.304 31.915 151.827 32.08 151.35 32.41C150.874 32.74 150.47 33.2167 150.14 33.84C150.104 33.95 149.994 34.005 149.81 34.005C149.554 34.005 149.444 33.895 149.48 33.675C150.14 32.2817 150.965 31.2 151.955 30.43C152.945 29.66 153.954 29.275 154.98 29.275C156.484 29.275 157.767 30.1367 158.83 31.86C159.93 33.5833 160.755 35.9483 161.305 38.955C161.892 41.925 162.185 45.2617 162.185 48.965C162.185 50.2483 162.167 51.22 162.13 51.88C163.634 49.5333 164.954 47.2233 166.09 44.95C167.264 42.6767 168.015 40.935 168.345 39.725C168.529 38.8083 168.62 38.075 168.62 37.525C168.62 36.755 168.529 36.0583 168.345 35.435C168.162 34.8117 167.905 34.1333 167.575 33.4C167.429 33.0333 167.282 32.685 167.135 32.355C167.025 31.9883 166.97 31.6583 166.97 31.365C166.97 30.7417 167.19 30.2283 167.63 29.825C168.07 29.4217 168.639 29.22 169.335 29.22ZM205.562 46.105C205.452 46.655 205.397 47.1317 205.397 47.535C205.397 48.5983 205.727 49.13 206.387 49.13C206.753 49.13 207.212 48.9283 207.762 48.525C208.312 48.1217 208.99 47.535 209.797 46.765C209.87 46.6917 209.943 46.655 210.017 46.655C210.127 46.655 210.218 46.7283 210.292 46.875C210.365 46.985 210.347 47.095 210.237 47.205C208.953 48.6717 207.835 49.7533 206.882 50.45C205.928 51.1467 204.975 51.495 204.022 51.495C203.288 51.495 202.738 51.2933 202.372 50.89C202.042 50.45 201.877 49.7717 201.877 48.855C201.877 48.1217 201.987 47.205 202.207 46.105L203.142 41.21C201.528 44.4733 199.805 47.04 197.972 48.91C196.138 50.78 194.268 51.715 192.362 51.715C191.042 51.715 189.942 51.2933 189.062 50.45C188.182 49.57 187.742 48.2133 187.742 46.38C187.742 45.5733 187.815 44.8033 187.962 44.07C188.438 41.4667 189.447 39.01 190.987 36.7C192.527 34.39 194.36 32.5383 196.487 31.145C198.613 29.7517 200.703 29.055 202.757 29.055C203.747 29.055 204.59 29.2567 205.287 29.66L207.542 17.45C207.615 17.12 207.652 16.6983 207.652 16.185C207.652 15.1583 207.267 14.645 206.497 14.645C205.947 14.645 205.085 14.92 203.912 15.47H203.857C203.71 15.47 203.6 15.3783 203.527 15.195C203.49 14.975 203.545 14.8467 203.692 14.81L211.282 11.125H211.392C211.538 11.125 211.667 11.18 211.777 11.29C211.887 11.4 211.923 11.4917 211.887 11.565L205.562 46.105ZM194.452 48.69C196.028 48.69 197.568 47.8467 199.072 46.16C200.575 44.4367 201.803 42.4567 202.757 40.22C203.71 37.9467 204.187 36.1683 204.187 34.885C204.187 33.7117 203.857 32.8133 203.197 32.19C202.537 31.5667 201.657 31.255 200.557 31.255C198.32 31.255 196.395 32.1533 194.782 33.95C193.168 35.71 192.087 38.2583 191.537 41.595C191.39 42.4383 191.317 43.2817 191.317 44.125C191.317 45.6283 191.592 46.765 192.142 47.535C192.692 48.305 193.462 48.69 194.452 48.69ZM225.543 29.055C226.826 29.055 227.816 29.2933 228.513 29.77C229.209 30.21 229.558 30.815 229.558 31.585C229.558 33.3083 228.293 34.885 225.763 36.315C223.269 37.7083 220.244 38.7167 216.688 39.34C216.541 40.22 216.468 41.1733 216.468 42.2C216.468 44.4367 216.944 46.2333 217.898 47.59C218.888 48.9467 220.318 49.625 222.188 49.625C224.204 49.625 225.983 49.02 227.523 47.81H227.578C227.688 47.81 227.779 47.865 227.853 47.975C227.963 48.085 227.981 48.195 227.908 48.305C225.304 50.5417 222.573 51.66 219.713 51.66C217.293 51.66 215.478 50.9083 214.268 49.405C213.058 47.9017 212.453 45.9583 212.453 43.575C212.453 42.7683 212.544 41.8517 212.728 40.825C213.094 38.9183 213.883 37.0667 215.093 35.27C216.339 33.4367 217.879 31.9517 219.713 30.815C221.546 29.6417 223.489 29.055 225.543 29.055ZM225.213 33.18C225.286 32.8133 225.323 32.575 225.323 32.465C225.323 31.8417 225.084 31.365 224.608 31.035C224.168 30.705 223.618 30.54 222.958 30.54C221.454 30.54 220.171 31.2917 219.108 32.795C218.044 34.2617 217.274 36.1867 216.798 38.57C221.858 37.6167 224.663 35.82 225.213 33.18ZM235.81 51.605C234.417 51.605 233.188 51.2933 232.125 50.67C231.098 50.01 230.585 49.24 230.585 48.36C230.585 47.7 230.768 47.1867 231.135 46.82C231.538 46.4533 232.015 46.27 232.565 46.27C232.968 46.27 233.298 46.3983 233.555 46.655C233.812 46.875 234.123 47.2783 234.49 47.865C234.893 48.5983 235.333 49.1667 235.81 49.57C236.287 49.9733 236.947 50.175 237.79 50.175C239.55 50.175 240.558 49.185 240.815 47.205C240.852 47.0583 240.87 46.82 240.87 46.49C240.87 45.4267 240.558 44.51 239.935 43.74C239.348 42.97 238.432 42.0717 237.185 41.045C235.975 40.055 235.058 39.175 234.435 38.405C233.812 37.635 233.5 36.7183 233.5 35.655C233.5 34.4817 233.848 33.4 234.545 32.41C235.278 31.42 236.232 30.65 237.405 30.1C238.615 29.5133 239.88 29.22 241.2 29.22C242.63 29.22 243.803 29.495 244.72 30.045C245.637 30.595 246.04 31.2917 245.93 32.135C245.82 32.685 245.582 33.125 245.215 33.455C244.848 33.7483 244.445 33.895 244.005 33.895C243.455 33.895 243.033 33.7667 242.74 33.51C242.447 33.2533 242.135 32.8683 241.805 32.355C241.438 31.7683 241.053 31.3283 240.65 31.035C240.283 30.705 239.752 30.54 239.055 30.54C238.358 30.54 237.772 30.7233 237.295 31.09C236.855 31.4567 236.598 31.9517 236.525 32.575C236.488 32.7217 236.47 32.96 236.47 33.29C236.47 34.28 236.763 35.16 237.35 35.93C237.973 36.7 238.872 37.58 240.045 38.57C241.328 39.67 242.282 40.6417 242.905 41.485C243.565 42.2917 243.895 43.245 243.895 44.345C243.895 45.445 243.528 46.5633 242.795 47.7C242.098 48.8367 241.127 49.7717 239.88 50.505C238.67 51.2383 237.313 51.605 235.81 51.605ZM252.897 51.495C251.43 51.495 250.697 50.5967 250.697 48.8C250.697 48.03 250.807 47.1317 251.027 46.105L253.282 34.665C253.392 34.115 253.447 33.6383 253.447 33.235C253.447 32.135 253.098 31.585 252.402 31.585C251.998 31.585 251.485 31.805 250.862 32.245C250.238 32.6483 249.56 33.235 248.827 34.005C248.79 34.0417 248.735 34.06 248.662 34.06C248.552 34.06 248.442 34.005 248.332 33.895C248.258 33.7483 248.277 33.6383 248.387 33.565C250.807 30.705 252.952 29.275 254.822 29.275C255.555 29.275 256.087 29.495 256.417 29.935C256.783 30.3383 256.967 30.98 256.967 31.86C256.967 32.7033 256.875 33.5467 256.692 34.39L254.437 46.105C254.327 46.655 254.272 47.1317 254.272 47.535C254.272 48.5983 254.602 49.13 255.262 49.13C256.105 49.13 257.26 48.36 258.727 46.82C258.763 46.7833 258.818 46.765 258.892 46.765C259.038 46.765 259.148 46.8383 259.222 46.985C259.295 47.095 259.277 47.1867 259.167 47.26C257.957 48.69 256.838 49.7533 255.812 50.45C254.822 51.1467 253.85 51.495 252.897 51.495ZM256.417 23.005C255.61 23.005 254.968 22.785 254.492 22.345C254.052 21.8683 253.832 21.2267 253.832 20.42C253.832 19.65 254.052 19.045 254.492 18.605C254.968 18.165 255.61 17.945 256.417 17.945C257.223 17.945 257.847 18.165 258.287 18.605C258.763 19.045 259.002 19.65 259.002 20.42C259.002 21.2267 258.782 21.8683 258.342 22.345C257.902 22.785 257.26 23.005 256.417 23.005ZM281.83 29.33C282.014 29.33 282.105 29.5683 282.105 30.045C282.105 30.5583 282.014 31.09 281.83 31.64C281.684 32.1533 281.537 32.3733 281.39 32.3C280.327 31.64 278.952 31.3467 277.265 31.42C278.035 32.52 278.42 33.84 278.42 35.38C278.42 36.15 278.347 36.8467 278.2 37.47C277.87 39.0833 277.229 40.5133 276.275 41.76C275.322 42.97 274.185 43.9233 272.865 44.62C271.582 45.28 270.262 45.61 268.905 45.61C268.575 45.61 268.154 45.5733 267.64 45.5C267.237 46.0867 267.035 46.71 267.035 47.37C267.035 48.2133 267.42 48.9467 268.19 49.57C268.96 50.1567 270.17 50.8717 271.82 51.715C273.874 52.705 275.45 53.6767 276.55 54.63C277.687 55.5833 278.255 56.8117 278.255 58.315C278.255 59.7817 277.705 61.1383 276.605 62.385C275.542 63.6317 274.112 64.6217 272.315 65.355C270.519 66.0883 268.575 66.455 266.485 66.455C263.882 66.455 261.829 65.9233 260.325 64.86C258.822 63.7967 258.07 62.495 258.07 60.955C258.07 59.3783 258.749 57.9483 260.105 56.665C261.425 55.3817 263.332 54.0617 265.825 52.705C264.505 51.7883 263.845 50.78 263.845 49.68C263.845 49.4233 263.864 49.24 263.9 49.13C264.047 48.5067 264.359 47.9017 264.835 47.315C265.312 46.6917 265.972 46.0133 266.815 45.28C265.642 44.8767 264.744 44.1617 264.12 43.135C263.497 42.1083 263.185 40.88 263.185 39.45C263.185 39.01 263.259 38.35 263.405 37.47C263.845 35.16 264.945 33.2533 266.705 31.75C268.502 30.21 270.519 29.44 272.755 29.44C274.259 29.44 275.505 29.8433 276.495 30.65C278.439 29.77 280.217 29.33 281.83 29.33ZM274.68 38.625C274.754 38.2217 274.79 37.5983 274.79 36.755C274.79 35.0317 274.515 33.565 273.965 32.355C273.415 31.1083 272.572 30.485 271.435 30.485C270.409 30.485 269.474 31.0533 268.63 32.19C267.787 33.3267 267.237 34.7383 266.98 36.425C266.87 37.1217 266.815 37.8183 266.815 38.515C266.815 40.2017 267.127 41.6317 267.75 42.805C268.374 43.9417 269.217 44.51 270.28 44.51C271.307 44.51 272.224 43.9783 273.03 42.915C273.874 41.8517 274.424 40.4217 274.68 38.625ZM275.01 60.46C275.01 59.14 274.497 58.0583 273.47 57.215C272.48 56.4083 270.995 55.4917 269.015 54.465C267.915 53.9517 267.054 53.4933 266.43 53.09C264.964 54.0067 263.809 54.9233 262.965 55.84C262.159 56.7933 261.755 57.9483 261.755 59.305C261.755 60.9183 262.434 62.2383 263.79 63.265C265.184 64.3283 266.98 64.86 269.18 64.86C271.05 64.86 272.48 64.4383 273.47 63.595C274.497 62.7517 275.01 61.7067 275.01 60.46ZM305.911 46.765C305.985 46.6917 306.04 46.655 306.076 46.655C306.186 46.655 306.278 46.7283 306.351 46.875C306.425 46.985 306.425 47.095 306.351 47.205C305.105 48.6717 303.986 49.7533 302.996 50.45C302.006 51.1467 301.035 51.495 300.081 51.495C299.348 51.495 298.816 51.2933 298.486 50.89C298.156 50.45 297.991 49.7533 297.991 48.8C297.991 48.1767 298.083 47.2783 298.266 46.105L299.861 37.36C300.081 36.26 300.191 35.3067 300.191 34.5C300.191 32.52 299.476 31.53 298.046 31.53C296.873 31.53 295.663 32.2817 294.416 33.785C293.17 35.2883 291.996 37.47 290.896 40.33C289.796 43.19 288.898 46.5817 288.201 50.505C288.128 50.7983 287.908 51.0183 287.541 51.165C287.175 51.3483 286.68 51.44 286.056 51.44C285.066 51.44 284.571 51.3117 284.571 51.055L284.791 49.955C285.121 48.3783 285.323 47.37 285.396 46.93L287.651 34.665C287.761 34.115 287.816 33.6567 287.816 33.29C287.816 32.1533 287.468 31.585 286.771 31.585C285.891 31.585 284.681 32.3917 283.141 34.005C283.105 34.0417 283.05 34.06 282.976 34.06C282.866 34.06 282.775 34.005 282.701 33.895C282.628 33.7483 282.628 33.6383 282.701 33.565C283.948 32.0983 285.103 31.0167 286.166 30.32C287.23 29.6233 288.256 29.275 289.246 29.275C289.98 29.275 290.511 29.495 290.841 29.935C291.171 30.3383 291.336 30.9983 291.336 31.915C291.336 32.465 291.245 33.29 291.061 34.39L289.961 40.44C291.281 36.8467 292.821 34.06 294.581 32.08C296.341 30.0633 298.193 29.055 300.136 29.055C301.346 29.055 302.245 29.4033 302.831 30.1C303.455 30.7967 303.766 31.86 303.766 33.29C303.766 34.1333 303.656 35.1417 303.436 36.315L301.621 46.105C301.511 46.655 301.456 47.1133 301.456 47.48C301.456 48.58 301.805 49.13 302.501 49.13C302.868 49.13 303.326 48.9283 303.876 48.525C304.426 48.1217 305.105 47.535 305.911 46.765ZM311.179 51.55C310.372 51.55 309.731 51.3117 309.254 50.835C308.814 50.3583 308.594 49.7167 308.594 48.91C308.594 48.1767 308.814 47.59 309.254 47.15C309.731 46.71 310.372 46.49 311.179 46.49C311.986 46.49 312.609 46.71 313.049 47.15C313.489 47.5533 313.709 48.14 313.709 48.91C313.709 49.7533 313.489 50.4133 313.049 50.89C312.609 51.33 311.986 51.55 311.179 51.55ZM313.214 36.095C312.407 36.095 311.766 35.8567 311.289 35.38C310.849 34.9033 310.629 34.2617 310.629 33.455C310.629 32.7217 310.849 32.135 311.289 31.695C311.766 31.255 312.407 31.035 313.214 31.035C314.021 31.035 314.644 31.255 315.084 31.695C315.524 32.0983 315.744 32.685 315.744 33.455C315.744 34.2983 315.524 34.9583 315.084 35.435C314.644 35.875 314.021 36.095 313.214 36.095Z" fill="#FF0097"/>
    <g filter="url(#filter0_d)">
      <path fill-rule="evenodd" clip-rule="evenodd" d="M58 338.851C58 327.805 66.9543 318.851 78 318.851H360.176C371.222 318.851 380.176 327.805 380.176 338.851V354.119C380.176 365.165 371.222 374.119 360.176 374.119H78C66.9543 374.119 58 365.165 58 354.119V338.851Z" fill="white"/>
      <path d="M58.5 338.851C58.5 328.081 67.2304 319.351 78 319.351H360.176C370.946 319.351 379.676 328.081 379.676 338.851V354.119C379.676 364.889 370.946 373.619 360.176 373.619H78C67.2305 373.619 58.5 364.889 58.5 354.119V338.851Z" stroke="#EAF1F3"/>
    </g>
    <path d="M236.808 347.159L231.808 344.272V350.046L236.808 347.159ZM204.793 347.659H232.308V346.659H204.793V347.659Z" fill="#73979C"/>
    <path fill-rule="evenodd" clip-rule="evenodd" d="M274.155 338.397C275.798 338.397 276.821 339.184 276.821 340.4V340.413C276.821 341.283 276.331 341.78 275.754 342.084C276.691 342.429 277.267 342.954 277.267 343.99V344.017C277.267 345.439 276.071 346.144 274.242 346.144H270.396V338.397H274.155ZM274.202 342.942H272.142V344.654H274.259C275.037 344.654 275.512 344.392 275.512 343.812V343.784C275.512 343.259 275.109 342.942 274.202 342.942ZM272.127 339.871H273.884C274.633 339.871 275.051 340.161 275.051 340.672V340.7C275.051 341.28 274.561 341.514 273.769 341.514H272.127V339.871Z" fill="#F0B90B"/>
    <path d="M281.012 346.144V338.397H279.138V346.144H281.012Z" fill="#F0B90B"/>
    <path d="M289.761 346.144V338.411H288.081V343.166L284.46 338.397H282.89V346.13H284.57V341.209L288.315 346.13H289.761V346.144Z" fill="#F0B90B"/>
    <path fill-rule="evenodd" clip-rule="evenodd" d="M299.132 346.144L295.848 338.397H294.295L291.011 346.144H292.728L293.423 344.416H296.652L297.347 346.144H299.132ZM294.049 342.92L295.071 340.425L296.08 342.92H294.049Z" fill="#F0B90B"/>
    <path d="M307.25 346.144V338.411H305.569V343.166L301.948 338.397H300.378V346.13H302.058V341.209L305.804 346.13H307.25V346.144Z" fill="#F0B90B"/>
    <path d="M315.999 345.345L314.95 344.204C314.367 344.781 313.85 345.157 312.987 345.157C311.714 345.157 310.825 344.001 310.825 342.615V342.586C310.825 341.199 311.727 340.058 312.987 340.058C313.73 340.058 314.314 340.405 314.898 340.968L315.945 339.654C315.256 338.917 314.42 338.397 313.014 338.397C310.732 338.397 309.127 340.29 309.127 342.586V342.615C309.127 344.94 310.759 346.789 312.948 346.789C314.38 346.803 315.229 346.24 315.999 345.345Z" fill="#F0B90B"/>
    <path d="M323.492 346.144V344.628H319.476V343.001H322.966V341.485H319.476V339.914H323.44V338.397H317.87V346.13H323.492V346.144Z" fill="#F0B90B"/>
    <path fill-rule="evenodd" clip-rule="evenodd" d="M272.23 355.264C272.666 355.264 273.038 355.193 273.346 355.053C273.654 354.913 273.89 354.718 274.053 354.467C274.216 354.217 274.298 353.927 274.298 353.597C274.298 353.353 274.254 353.14 274.165 352.958C274.076 352.777 273.956 352.622 273.804 352.494C273.652 352.365 273.481 352.259 273.29 352.175C273.1 352.09 272.901 352.023 272.695 351.974L272.184 351.842C272.073 351.814 271.962 351.78 271.852 351.74C271.741 351.7 271.641 351.649 271.551 351.59C271.46 351.53 271.389 351.457 271.336 351.371C271.284 351.285 271.258 351.183 271.258 351.066C271.26 350.925 271.3 350.799 271.378 350.689C271.456 350.579 271.569 350.492 271.716 350.428C271.863 350.364 272.04 350.331 272.246 350.331C272.538 350.331 272.777 350.398 272.96 350.532C273.144 350.666 273.248 350.853 273.273 351.093H274.223C274.218 350.776 274.132 350.495 273.965 350.25C273.798 350.005 273.569 349.814 273.277 349.675C272.985 349.537 272.646 349.468 272.259 349.468C271.877 349.468 271.536 349.537 271.234 349.675C270.932 349.814 270.694 350.008 270.519 350.257C270.344 350.507 270.257 350.797 270.257 351.129C270.257 351.533 270.387 351.856 270.647 352.099C270.907 352.342 271.261 352.523 271.71 352.642L272.331 352.807C272.526 352.859 272.697 352.917 272.843 352.982C272.99 353.047 273.104 353.128 273.185 353.224C273.267 353.32 273.309 353.442 273.31 353.588C273.309 353.75 273.262 353.891 273.169 354.011C273.077 354.131 272.95 354.224 272.787 354.291C272.625 354.358 272.436 354.392 272.222 354.392C272.016 354.392 271.83 354.36 271.664 354.295C271.498 354.231 271.364 354.134 271.261 354.004C271.158 353.874 271.099 353.71 271.085 353.514H270.113C270.127 353.888 270.222 354.205 270.397 354.466C270.572 354.726 270.815 354.924 271.126 355.06C271.438 355.196 271.805 355.264 272.23 355.264ZM276.311 355.182V351.304H276.362L277.868 355.166H278.576L280.083 351.312H280.134V355.182H281.081V349.549H279.873L278.254 353.631H278.191L276.572 349.549H275.363V355.182H276.311ZM283.496 353.794L283.045 355.182H281.991L283.91 349.549H285.13L287.052 355.182H285.998L285.546 353.794H283.496ZM285.275 352.97H283.758L284.495 350.7H284.537L285.275 352.97ZM288.937 353.119L288.937 355.182H287.95V349.549H289.994C290.413 349.549 290.765 349.624 291.05 349.774C291.334 349.925 291.55 350.135 291.697 350.406C291.843 350.676 291.916 350.991 291.916 351.351C291.916 351.712 291.842 352.025 291.694 352.29L291.626 352.4C291.482 352.612 291.287 352.78 291.04 352.903L290.936 352.951L292.116 355.182H291.014L289.942 353.119H288.937ZM288.937 350.398H289.843C290.089 350.398 290.291 350.435 290.447 350.51C290.603 350.584 290.719 350.692 290.795 350.834C290.872 350.976 290.91 351.147 290.91 351.347C290.91 351.547 290.872 351.715 290.797 351.852C290.721 351.988 290.606 352.092 290.449 352.163C290.293 352.233 290.093 352.269 289.848 352.269L288.937 352.269L288.937 350.398ZM295.439 350.404V355.182H294.46V350.404H292.775V349.549H297.124V350.404H295.439ZM302.548 355.256C302.873 355.256 303.168 355.206 303.434 355.106C303.7 355.006 303.933 354.866 304.132 354.687C304.33 354.509 304.492 354.302 304.615 354.067C304.738 353.833 304.819 353.581 304.856 353.314L303.86 353.308C303.83 353.473 303.775 353.62 303.696 353.748C303.618 353.877 303.521 353.985 303.406 354.073C303.292 354.161 303.163 354.227 303.02 354.272C302.877 354.317 302.724 354.34 302.561 354.34C302.267 354.34 302.005 354.265 301.777 354.115C301.549 353.966 301.37 353.744 301.239 353.45C301.109 353.155 301.044 352.793 301.044 352.362C301.044 351.938 301.109 351.579 301.238 351.285C301.368 350.991 301.547 350.767 301.776 350.614C302.005 350.461 302.267 350.384 302.564 350.384C302.731 350.384 302.886 350.407 303.031 350.454C303.176 350.501 303.305 350.57 303.418 350.662C303.532 350.753 303.627 350.865 303.703 350.996C303.779 351.127 303.832 351.277 303.86 351.446H304.856C304.815 351.132 304.729 350.853 304.596 350.608C304.464 350.363 304.296 350.156 304.092 349.986C303.888 349.817 303.655 349.688 303.394 349.6C303.133 349.512 302.851 349.468 302.548 349.468C302.072 349.468 301.646 349.583 301.27 349.812C300.894 350.041 300.597 350.372 300.378 350.803C300.16 351.235 300.051 351.755 300.051 352.362C300.051 352.967 300.159 353.486 300.376 353.919C300.592 354.351 300.888 354.682 301.265 354.912C301.641 355.141 302.069 355.256 302.548 355.256ZM306.936 352.789V355.182H305.949V349.549H306.936V351.934H309.463V349.549H310.453V355.182H309.463V352.789H306.936ZM312.415 355.182L312.866 353.794H314.915L315.367 355.182H316.421L314.499 349.549H313.28L311.361 355.182H312.415ZM313.129 352.97H314.646L313.909 350.7H313.866L313.129 352.97ZM318.31 355.182V349.549H317.322V355.182H318.31ZM320.554 351.345V355.182H319.567V349.549H320.45L323.016 353.389H323.065V349.549H324.047V355.182H323.168L320.599 351.345H320.554Z" fill="#F0B90B"/>
    <path d="M251.296 345.438L255.484 341.249L259.675 345.44L262.112 343.003L255.484 336.375L248.859 343.001L251.296 345.438L251.296 345.438ZM244.7 347.159L247.137 344.721L249.575 347.159L247.137 349.596L244.7 347.159ZM251.296 348.88L255.484 353.069L259.675 348.878L262.113 351.314L262.112 351.316L255.484 357.943L248.859 351.318L248.855 351.314L251.296 348.88L251.296 348.88ZM261.394 347.16L263.831 344.723L266.268 347.16L263.831 349.597L261.394 347.16Z" fill="#F3BA2F"/>
    <path d="M257.956 347.158H257.957L255.484 344.685L253.656 346.512L253.446 346.722L253.013 347.155L253.01 347.159L253.013 347.162L255.484 349.633L257.957 347.16L257.958 347.159L257.956 347.158" fill="#F3BA2F"/>
    <g clip-path="url(#clip1)">
      <path d="M124.427 347.109H128.422C128.984 347.109 129.439 347.571 129.439 348.135C129.439 348.704 128.984 349.161 128.422 349.161H123.603C123.526 349.161 123.453 349.19 123.4 349.239L121.947 350.499C121.724 350.693 121.86 351.058 122.151 351.058H128.18C128.18 351.058 128.185 351.058 128.185 351.053C128.185 351.048 128.19 351.048 128.19 351.048C128.267 351.053 128.34 351.058 128.417 351.058C130.016 351.058 131.314 349.75 131.314 348.135C131.314 346.603 130.146 345.343 128.655 345.222C128.655 345.222 128.65 345.222 128.65 345.217C128.65 345.212 128.65 345.212 128.645 345.212H124.344C123.783 345.212 123.327 344.75 123.327 344.186C123.327 343.617 123.783 343.16 124.344 343.16H129.154C129.231 343.16 129.309 343.13 129.367 343.077L130.718 341.817C130.931 341.618 130.791 341.263 130.505 341.263H124.427C124.403 341.263 124.374 341.263 124.349 341.263C122.751 341.263 121.453 342.571 121.453 344.186C121.453 345.8 122.751 347.109 124.349 347.109C124.374 347.109 124.398 347.109 124.427 347.109Z" fill="#001A34"/>
      <path d="M147.944 341.268C147.765 341.268 147.621 341.408 147.621 341.588V350.737C147.621 350.912 147.765 351.058 147.944 351.058H155.456C155.545 351.058 155.63 351.019 155.695 350.956L156.634 349.97C156.828 349.766 156.684 349.431 156.396 349.431H149.84C149.661 349.431 149.516 349.29 149.516 349.111V341.583C149.516 341.408 149.372 341.263 149.193 341.263H147.944V341.268Z" fill="#001A34"/>
      <path fill-rule="evenodd" clip-rule="evenodd" d="M136.111 341.288C136.111 341.293 136.111 341.293 136.111 341.288C135.162 341.332 134.401 342.086 134.356 343.025V349.19C134.356 349.215 134.356 349.244 134.356 349.268C134.356 350.246 135.133 351.044 136.111 351.083H142.842C143.815 351.04 144.596 350.241 144.596 349.268C144.596 349.244 144.596 349.215 144.596 349.19V343.03C144.557 342.091 143.795 341.332 142.847 341.293H136.111V341.288ZM137.361 343.042C137.356 343.042 137.356 343.042 137.361 343.042C136.767 343.066 136.29 343.543 136.265 344.137V348.015C136.265 348.03 136.265 348.049 136.265 348.064C136.265 348.677 136.752 349.183 137.361 349.207H141.582C142.191 349.183 142.678 348.677 142.678 348.064C142.678 348.049 142.678 348.03 142.678 348.015V344.137C142.653 343.543 142.176 343.071 141.582 343.042H137.361Z" fill="#001A34"/>
      <path fill-rule="evenodd" clip-rule="evenodd" d="M167.708 351.116C167.708 351.291 167.852 351.437 168.032 351.437H169.309C169.489 351.437 169.633 351.296 169.633 351.116V343.538C169.633 343.513 169.633 343.484 169.633 343.46C169.633 342.483 168.85 341.685 167.872 341.646H161.314C161.289 341.646 161.259 341.646 161.234 341.646C160.216 341.646 159.394 342.458 159.394 343.465C159.394 343.489 159.394 343.518 159.394 343.542V351.121C159.394 351.296 159.538 351.442 159.718 351.442H160.995C161.174 351.442 161.319 351.301 161.319 351.121V347.966C161.319 347.791 161.463 347.645 161.643 347.645H167.399C167.578 347.645 167.723 347.786 167.723 347.966V351.116H167.708ZM161.314 345.854V344.279C161.314 343.666 161.818 343.17 162.436 343.17H166.596C167.215 343.17 167.718 343.666 167.718 344.279V345.854C167.718 346.029 167.574 346.175 167.394 346.175H161.638C161.459 346.175 161.314 346.034 161.314 345.854Z" fill="#001A34"/>
      <path fill-rule="evenodd" clip-rule="evenodd" d="M194.187 351.442C194.009 351.442 193.866 351.301 193.866 351.121V347.966C193.866 347.791 193.723 347.645 193.545 347.645H187.786C187.608 347.645 187.465 347.786 187.465 347.966V351.121C187.465 351.296 187.323 351.442 187.145 351.442H185.871C185.694 351.442 185.551 351.301 185.551 351.121V343.542C185.551 343.518 185.551 343.489 185.551 343.465C185.551 342.463 186.375 341.646 187.392 341.646C187.416 341.646 187.445 341.646 187.471 341.646H194.029C195.006 341.69 195.791 342.487 195.791 343.46C195.791 343.484 195.791 343.513 195.791 343.538V351.116C195.791 351.291 195.647 351.437 195.47 351.437H194.187V351.442ZM187.466 344.286V345.861C187.466 346.036 187.609 346.182 187.786 346.182H193.545C193.723 346.182 193.866 346.041 193.866 345.861V344.286C193.866 343.673 193.363 343.177 192.746 343.177H188.586C187.964 343.177 187.466 343.673 187.466 344.286Z" fill="#001A34"/>
      <path d="M174.063 341.653C174.158 341.653 174.247 341.692 174.307 341.765L180.025 348.413C180.219 348.637 180.593 348.501 180.593 348.205V341.974C180.593 341.799 180.737 341.653 180.916 341.653H182.192C182.371 341.653 182.515 341.794 182.515 341.974V351.123C182.515 351.298 182.371 351.444 182.192 351.444H180.608C180.602 351.444 180.598 351.439 180.598 351.434C180.598 351.429 180.598 351.429 180.593 351.424L174.775 344.825C174.581 344.601 174.208 344.742 174.208 345.033V351.128C174.208 351.303 174.063 351.449 173.884 351.449H172.599C172.42 351.449 172.275 351.308 172.275 351.128V341.974C172.275 341.799 172.42 341.653 172.599 341.653H174.063Z" fill="#001A34"/>
      <path d="M95.8923 351.674C96.0504 351.52 96.2629 351.434 96.4853 351.434H117.067C117.442 351.434 117.63 351.876 117.363 352.131L113.296 356.09C113.138 356.244 112.926 356.331 112.703 356.331H92.122C91.7464 356.331 91.5586 355.888 91.8255 355.634L95.8923 351.674Z" fill="url(#paint0_linear)"/>
      <path d="M95.8923 336.616C96.0504 336.462 96.2629 336.375 96.4853 336.375H117.067C117.442 336.375 117.63 336.818 117.363 337.073L113.296 341.032C113.138 341.186 112.926 341.272 112.703 341.272H92.122C91.7464 341.272 91.5586 340.829 91.8255 340.574L95.8923 336.616Z" fill="url(#paint1_linear)"/>
      <path d="M113.296 344.282C113.138 344.128 112.926 344.041 112.703 344.041H92.122C91.7464 344.041 91.5586 344.484 91.8255 344.739L95.8923 348.698C96.0504 348.852 96.2629 348.938 96.4853 348.938H117.067C117.442 348.938 117.63 348.495 117.363 348.24L113.296 344.282Z" fill="url(#paint2_linear)"/>
    </g>
    <g filter="url(#filter1_d)">
      <path fill-rule="evenodd" clip-rule="evenodd" d="M58 448.731C58 437.686 66.9543 428.731 78 428.731H360.176C371.222 428.731 380.176 437.686 380.176 448.731V464C380.176 475.046 371.222 484 360.176 484H78C66.9543 484 58 475.046 58 464V448.731Z" fill="white"/>
      <path d="M58.5 448.731C58.5 437.962 67.2304 429.231 78 429.231H360.176C370.946 429.231 379.676 437.962 379.676 448.731V464C379.676 474.77 370.946 483.5 360.176 483.5H78C67.2305 483.5 58.5 474.77 58.5 464V448.731Z" stroke="#EAF1F3"/>
    </g>
    <path d="M237.482 455.018L232.482 452.131V457.904L237.482 455.018ZM205.467 455.518H232.982V454.518H205.467V455.518Z" fill="#73979C"/>
    <g clip-path="url(#clip2)">
      <path d="M124.427 455.642H128.422C128.984 455.642 129.439 456.104 129.439 456.668C129.439 457.237 128.984 457.694 128.422 457.694H123.603C123.526 457.694 123.453 457.724 123.4 457.772L121.947 459.032C121.724 459.226 121.86 459.591 122.151 459.591H128.18C128.18 459.591 128.185 459.591 128.185 459.586C128.185 459.581 128.19 459.581 128.19 459.581C128.267 459.586 128.34 459.591 128.417 459.591C130.016 459.591 131.314 458.283 131.314 456.668C131.314 455.136 130.146 453.876 128.655 453.755C128.655 453.755 128.65 453.755 128.65 453.75C128.65 453.745 128.65 453.745 128.645 453.745H124.344C123.783 453.745 123.327 453.283 123.327 452.719C123.327 452.15 123.783 451.693 124.344 451.693H129.154C129.231 451.693 129.309 451.664 129.367 451.61L130.718 450.35C130.931 450.151 130.791 449.796 130.505 449.796H124.427C124.403 449.796 124.374 449.796 124.349 449.796C122.751 449.796 121.453 451.104 121.453 452.719C121.453 454.334 122.751 455.642 124.349 455.642C124.374 455.642 124.398 455.642 124.427 455.642Z" fill="#001A34"/>
      <path d="M147.944 449.801C147.765 449.801 147.621 449.942 147.621 450.121V459.271C147.621 459.446 147.765 459.591 147.944 459.591H155.456C155.545 459.591 155.63 459.552 155.695 459.489L156.634 458.503C156.828 458.299 156.684 457.964 156.396 457.964H149.84C149.661 457.964 149.516 457.823 149.516 457.644V450.116C149.516 449.942 149.372 449.796 149.193 449.796H147.944V449.801Z" fill="#001A34"/>
      <path fill-rule="evenodd" clip-rule="evenodd" d="M136.111 449.821C136.111 449.826 136.111 449.826 136.111 449.821C135.162 449.865 134.401 450.619 134.356 451.558V457.724C134.356 457.748 134.356 457.777 134.356 457.802C134.356 458.78 135.133 459.578 136.111 459.617H142.842C143.815 459.573 144.596 458.775 144.596 457.802C144.596 457.777 144.596 457.748 144.596 457.724V451.563C144.557 450.624 143.795 449.865 142.847 449.826H136.111V449.821ZM137.361 451.575C137.356 451.575 137.356 451.575 137.361 451.575C136.767 451.6 136.29 452.076 136.265 452.67V456.548C136.265 456.563 136.265 456.582 136.265 456.597C136.265 457.21 136.752 457.716 137.361 457.74H141.582C142.191 457.716 142.678 457.21 142.678 456.597C142.678 456.582 142.678 456.563 142.678 456.548V452.67C142.653 452.076 142.176 451.604 141.582 451.575H137.361Z" fill="#001A34"/>
      <path fill-rule="evenodd" clip-rule="evenodd" d="M167.708 459.649C167.708 459.824 167.852 459.97 168.032 459.97H169.309C169.489 459.97 169.633 459.829 169.633 459.649V452.071C169.633 452.046 169.633 452.017 169.633 451.993C169.633 451.016 168.85 450.219 167.872 450.18H161.314C161.289 450.18 161.259 450.18 161.234 450.18C160.216 450.18 159.394 450.991 159.394 451.998C159.394 452.022 159.394 452.051 159.394 452.076V459.654C159.394 459.829 159.538 459.975 159.718 459.975H160.995C161.174 459.975 161.319 459.834 161.319 459.654V456.499C161.319 456.324 161.463 456.178 161.643 456.178H167.399C167.578 456.178 167.723 456.319 167.723 456.499V459.649H167.708ZM161.314 454.387V452.812C161.314 452.2 161.818 451.704 162.436 451.704H166.596C167.215 451.704 167.718 452.2 167.718 452.812V454.387C167.718 454.562 167.574 454.708 167.394 454.708H161.638C161.459 454.708 161.314 454.567 161.314 454.387Z" fill="#001A34"/>
      <path fill-rule="evenodd" clip-rule="evenodd" d="M194.187 459.975C194.009 459.975 193.866 459.834 193.866 459.654V456.499C193.866 456.324 193.723 456.178 193.545 456.178H187.786C187.608 456.178 187.465 456.319 187.465 456.499V459.654C187.465 459.829 187.323 459.975 187.145 459.975H185.871C185.694 459.975 185.551 459.834 185.551 459.654V452.076C185.551 452.051 185.551 452.022 185.551 451.998C185.551 450.996 186.375 450.18 187.392 450.18C187.416 450.18 187.445 450.18 187.471 450.18H194.029C195.006 450.223 195.791 451.021 195.791 451.993C195.791 452.017 195.791 452.046 195.791 452.071V459.649C195.791 459.824 195.647 459.97 195.47 459.97H194.187V459.975ZM187.466 452.819V454.394C187.466 454.569 187.609 454.715 187.786 454.715H193.545C193.723 454.715 193.866 454.574 193.866 454.394V452.819C193.866 452.206 193.363 451.711 192.746 451.711H188.586C187.964 451.711 187.466 452.206 187.466 452.819Z" fill="#001A34"/>
      <path d="M174.063 450.187C174.158 450.187 174.247 450.225 174.307 450.298L180.025 456.947C180.219 457.17 180.593 457.034 180.593 456.738V450.507C180.593 450.332 180.737 450.187 180.916 450.187H182.192C182.371 450.187 182.515 450.327 182.515 450.507V459.656C182.515 459.831 182.371 459.977 182.192 459.977H180.608C180.602 459.977 180.598 459.972 180.598 459.967C180.598 459.962 180.598 459.962 180.593 459.957L174.775 453.358C174.581 453.134 174.208 453.275 174.208 453.567V459.661C174.208 459.836 174.063 459.982 173.884 459.982H172.599C172.42 459.982 172.275 459.841 172.275 459.661V450.507C172.275 450.332 172.42 450.187 172.599 450.187H174.063Z" fill="#001A34"/>
      <path d="M95.8923 460.207C96.0504 460.054 96.2629 459.967 96.4853 459.967H117.067C117.442 459.967 117.63 460.41 117.363 460.664L113.296 464.624C113.138 464.778 112.926 464.864 112.703 464.864H92.122C91.7464 464.864 91.5586 464.422 91.8255 464.167L95.8923 460.207Z" fill="url(#paint3_linear)"/>
      <path d="M95.8923 445.149C96.0504 444.995 96.2629 444.908 96.4853 444.908H117.067C117.442 444.908 117.63 445.351 117.363 445.606L113.296 449.565C113.138 449.719 112.926 449.806 112.703 449.806H92.122C91.7464 449.806 91.5586 449.363 91.8255 449.107L95.8923 445.149Z" fill="url(#paint4_linear)"/>
      <path d="M113.296 452.815C113.138 452.661 112.926 452.574 112.703 452.574H92.122C91.7464 452.574 91.5586 453.017 91.8255 453.272L95.8923 457.231C96.0504 457.385 96.2629 457.472 96.4853 457.472H117.067C117.442 457.472 117.63 457.029 117.363 456.773L113.296 452.815Z" fill="url(#paint5_linear)"/>
    </g>
    <path d="M264.916 451.888C264.668 451.75 264.389 451.677 264.104 451.677C263.82 451.677 263.54 451.75 263.292 451.888L259.565 454.043L257.033 455.448L253.306 457.603C253.058 457.741 252.779 457.813 252.494 457.813C252.21 457.813 251.93 457.741 251.682 457.603L248.72 455.916C248.479 455.779 248.277 455.581 248.135 455.343C247.993 455.105 247.915 454.835 247.908 454.558V451.232C247.905 450.953 247.979 450.679 248.122 450.439C248.265 450.2 248.472 450.004 248.72 449.874L251.634 448.235C251.882 448.096 252.162 448.024 252.446 448.024C252.731 448.024 253.01 448.096 253.259 448.235L256.173 449.874C256.414 450.012 256.615 450.209 256.758 450.447C256.9 450.685 256.978 450.956 256.985 451.232V453.387L259.517 451.935V449.78C259.52 449.501 259.446 449.227 259.303 448.987C259.16 448.748 258.953 448.552 258.705 448.422L253.306 445.331C253.058 445.193 252.779 445.12 252.494 445.12C252.21 445.12 251.93 445.193 251.682 445.331L246.187 448.422C245.939 448.552 245.732 448.748 245.589 448.987C245.446 449.227 245.372 449.501 245.375 449.78V456.01C245.372 456.289 245.446 456.563 245.589 456.803C245.732 457.043 245.939 457.238 246.187 457.368L251.681 460.46C251.93 460.598 252.209 460.67 252.494 460.67C252.778 460.67 253.057 460.598 253.306 460.46L257.032 458.352L259.565 456.9L263.291 454.792C263.54 454.654 263.819 454.581 264.104 454.581C264.388 454.581 264.668 454.654 264.916 454.792L267.83 456.432C268.071 456.569 268.273 456.767 268.415 457.005C268.557 457.243 268.635 457.513 268.642 457.79V461.116C268.645 461.395 268.571 461.669 268.428 461.909C268.285 462.148 268.078 462.344 267.83 462.474L264.916 464.16C264.667 464.298 264.388 464.371 264.104 464.371C263.819 464.371 263.54 464.298 263.291 464.16L260.377 462.521C260.136 462.383 259.935 462.186 259.792 461.948C259.65 461.71 259.572 461.439 259.565 461.162V459.008L257.033 460.46V462.614C257.03 462.893 257.104 463.168 257.247 463.407C257.39 463.647 257.597 463.843 257.845 463.973L263.339 467.064C263.587 467.202 263.867 467.275 264.151 467.275C264.436 467.275 264.715 467.202 264.964 467.064L270.458 463.973C270.699 463.835 270.901 463.637 271.043 463.399C271.185 463.161 271.263 462.891 271.27 462.614V456.385C271.273 456.106 271.199 455.831 271.056 455.592C270.913 455.352 270.706 455.156 270.458 455.026L264.916 451.888Z" fill="#8247E5"/>
    <path d="M283.844 451.222C284.71 451.208 285.562 451.445 286.296 451.904C287.039 452.384 287.631 453.063 288.003 453.863C288.441 454.808 288.654 455.841 288.629 456.881C288.652 457.918 288.438 458.947 288.003 459.889C287.633 460.693 287.041 461.376 286.296 461.858C285.562 462.317 284.71 462.554 283.844 462.541C283.076 462.562 282.318 462.362 281.66 461.966C281.063 461.597 280.598 461.05 280.33 460.403V467.665H276.936V451.361H280.33V453.359C280.598 452.712 281.063 452.165 281.661 451.796C282.318 451.4 283.076 451.201 283.844 451.222ZM282.752 454.19C282.425 454.179 282.099 454.238 281.796 454.363C281.493 454.487 281.22 454.675 280.995 454.912C280.539 455.394 280.31 456.05 280.31 456.881C280.274 457.598 280.52 458.301 280.995 458.84C281.219 459.08 281.491 459.27 281.794 459.397C282.097 459.523 282.424 459.583 282.752 459.573C283.079 459.586 283.405 459.529 283.708 459.407C284.011 459.284 284.284 459.097 284.509 458.86C284.953 458.385 285.174 457.726 285.174 456.881C285.174 456.037 284.953 455.378 284.509 454.903C284.285 454.666 284.012 454.479 283.708 454.356C283.405 454.233 283.079 454.177 282.752 454.19ZM295.577 451.222C296.601 451.204 297.613 451.439 298.525 451.904C299.382 452.351 300.092 453.034 300.569 453.873C301.081 454.792 301.338 455.83 301.314 456.881C301.339 457.932 301.082 458.97 300.57 459.889C300.093 460.728 299.383 461.412 298.526 461.858C297.614 462.324 296.602 462.558 295.578 462.541C294.551 462.558 293.535 462.323 292.62 461.858C291.758 461.414 291.044 460.73 290.565 459.889C290.053 458.97 289.796 457.932 289.82 456.881C289.795 455.831 290.052 454.793 290.564 453.874C291.043 453.033 291.757 452.349 292.619 451.905C293.534 451.44 294.55 451.205 295.577 451.222ZM295.577 454.15C295.27 454.145 294.964 454.204 294.682 454.326C294.4 454.447 294.146 454.626 293.939 454.853C293.496 455.321 293.274 455.997 293.274 456.881C293.274 457.765 293.496 458.438 293.939 458.9C294.148 459.123 294.402 459.301 294.684 459.42C294.966 459.54 295.27 459.598 295.577 459.592C295.882 459.599 296.185 459.54 296.466 459.421C296.747 459.302 296.999 459.124 297.205 458.9C297.642 458.438 297.86 457.765 297.86 456.881C297.86 455.997 297.642 455.321 297.205 454.853C297 454.626 296.749 454.446 296.468 454.325C296.187 454.204 295.883 454.144 295.577 454.15ZM306.476 444.908V462.402H303.081V444.909L306.476 444.908ZM311.379 451.359L314.04 458.128L316.521 451.36H320.273L313.365 467.666H309.633L312.233 461.987L307.588 451.361L311.379 451.359ZM325.614 451.222C326.382 451.201 327.14 451.4 327.797 451.796C328.397 452.168 328.868 452.714 329.147 453.36V451.361H332.522V462.343C332.537 463.303 332.333 464.253 331.926 465.123C331.53 465.948 330.893 466.634 330.1 467.092C329.279 467.58 328.26 467.825 327.043 467.825C325.375 467.825 324.042 467.432 323.043 466.647C322.043 465.861 321.396 464.712 321.246 463.451H324.601C324.695 463.882 324.955 464.259 325.325 464.5C325.77 464.769 326.285 464.9 326.804 464.876C327.428 464.905 328.037 464.688 328.502 464.273C328.932 463.87 329.147 463.227 329.147 462.343V460.404C328.868 461.05 328.397 461.596 327.797 461.967C327.14 462.363 326.382 462.563 325.613 462.542C324.747 462.555 323.896 462.318 323.161 461.859C322.417 461.377 321.825 460.695 321.454 459.89C321.019 458.948 320.805 457.919 320.829 456.883C320.803 455.842 321.017 454.81 321.454 453.865C321.827 453.065 322.419 452.386 323.161 451.906C323.895 451.447 324.747 451.209 325.614 451.222ZM326.705 454.19C326.379 454.176 326.053 454.233 325.749 454.356C325.446 454.479 325.173 454.665 324.949 454.902C324.505 455.377 324.284 456.037 324.284 456.881C324.284 457.725 324.505 458.385 324.949 458.86C325.173 459.097 325.446 459.283 325.749 459.406C326.053 459.529 326.379 459.586 326.705 459.572C327.034 459.583 327.361 459.523 327.664 459.396C327.967 459.27 328.239 459.08 328.462 458.84C328.938 458.301 329.183 457.598 329.147 456.881C329.147 456.05 328.919 455.394 328.462 454.912C328.238 454.675 327.965 454.487 327.662 454.363C327.359 454.238 327.033 454.179 326.705 454.19ZM340.046 451.222C341.07 451.204 342.083 451.439 342.994 451.904C343.852 452.351 344.562 453.034 345.039 453.873C345.551 454.792 345.808 455.83 345.783 456.881C345.808 457.932 345.551 458.97 345.039 459.889C344.562 460.728 343.852 461.412 342.994 461.858C342.083 462.324 341.071 462.558 340.047 462.541C339.02 462.558 338.004 462.323 337.089 461.858C336.227 461.414 335.513 460.73 335.034 459.889C334.522 458.97 334.265 457.932 334.289 456.881C334.265 455.831 334.522 454.793 335.034 453.874C335.513 453.033 336.227 452.349 337.089 451.905C338.004 451.44 339.019 451.205 340.046 451.222ZM340.046 454.15C339.739 454.145 339.434 454.204 339.151 454.326C338.869 454.447 338.616 454.626 338.408 454.853C337.965 455.321 337.743 455.997 337.743 456.881C337.743 457.765 337.965 458.438 338.408 458.9C338.617 459.123 338.871 459.301 339.153 459.42C339.435 459.54 339.74 459.598 340.046 459.592C340.351 459.599 340.654 459.54 340.935 459.421C341.216 459.302 341.468 459.124 341.674 458.9C342.111 458.438 342.329 457.765 342.329 456.881C342.329 455.997 342.111 455.321 341.674 454.853C341.469 454.626 341.218 454.446 340.937 454.325C340.656 454.204 340.352 454.144 340.046 454.15ZM354.578 451.242C355.849 451.242 356.859 451.664 357.606 452.508C358.354 453.352 358.727 454.513 358.727 455.991V462.402H355.333V456.387C355.333 455.649 355.138 455.071 354.747 454.655C354.547 454.446 354.304 454.283 354.035 454.175C353.766 454.068 353.477 454.019 353.188 454.032C352.883 454.017 352.58 454.068 352.297 454.18C352.015 454.293 351.76 454.465 351.55 454.685C351.147 455.12 350.945 455.74 350.945 456.544V462.402H347.551V451.361H350.945V453.379C351.253 452.73 351.747 452.186 352.365 451.816C353.034 451.422 353.801 451.223 354.578 451.242Z" fill="#001A34"/>
    <g filter="url(#filter2_d)">
      <circle cx="201" cy="300" r="15" fill="white"/>
      <circle cx="201" cy="300" r="14.5" stroke="#EAF1F3"/>
    </g>
    <path d="M209.304 297.328V304.8L200.994 309.598L192.678 304.8V295.201L200.994 290.399L207.381 294.088L208.345 293.532L200.994 289.286L191.714 294.644V305.356L200.994 310.715L210.273 305.356V296.772L209.304 297.328Z" fill="url(#paint6_linear)"/>
    <path d="M198.667 304.805H197.276V300.142H201.912C202.35 300.137 202.769 299.96 203.078 299.648C203.387 299.337 203.561 298.916 203.562 298.478C203.564 298.261 203.522 298.046 203.439 297.846C203.355 297.646 203.231 297.465 203.075 297.314C202.924 297.159 202.743 297.036 202.543 296.952C202.343 296.868 202.128 296.826 201.912 296.828H197.276V295.409H201.916C202.729 295.414 203.506 295.739 204.081 296.313C204.655 296.888 204.98 297.665 204.985 298.478C204.99 299.099 204.8 299.707 204.442 300.216C204.113 300.703 203.649 301.083 203.107 301.31C202.571 301.48 202.011 301.564 201.448 301.56H198.667V304.805Z" fill="url(#paint7_linear)"/>
    <path d="M204.952 304.689H203.33L202.078 302.506C202.573 302.475 203.062 302.375 203.529 302.209L204.952 304.689Z" fill="url(#paint8_linear)"/>
    <path d="M208.336 295.775L209.295 296.308L210.255 295.775V294.649L209.295 294.093L208.336 294.649V295.775Z" fill="url(#paint9_linear)"/>
    <path d="M233.294 303.784C233.318 303.784 233.33 303.82 233.33 303.892C233.33 303.964 233.318 304 233.294 304H230.972C230.672 304 230.108 303.49 229.28 302.47C228.464 301.438 227.468 300.004 226.292 298.168C226.004 298.252 225.68 298.294 225.32 298.294C225.092 298.294 224.822 298.282 224.51 298.258V302.542C224.51 302.914 224.546 303.184 224.618 303.352C224.69 303.52 224.828 303.634 225.032 303.694C225.248 303.754 225.584 303.784 226.04 303.784C226.076 303.784 226.094 303.82 226.094 303.892C226.094 303.964 226.076 304 226.04 304C225.668 304 225.374 303.994 225.158 303.982L223.916 303.964L222.692 303.982C222.476 303.994 222.17 304 221.774 304C221.75 304 221.738 303.964 221.738 303.892C221.738 303.82 221.75 303.784 221.774 303.784C222.23 303.784 222.566 303.754 222.782 303.694C222.998 303.622 223.148 303.502 223.232 303.334C223.316 303.166 223.358 302.902 223.358 302.542V294.208C223.358 293.848 223.316 293.584 223.232 293.416C223.16 293.248 223.016 293.134 222.8 293.074C222.596 293.002 222.266 292.966 221.81 292.966C221.774 292.966 221.756 292.93 221.756 292.858C221.756 292.786 221.774 292.75 221.81 292.75L222.692 292.768C223.196 292.792 223.604 292.804 223.916 292.804C224.132 292.804 224.336 292.798 224.528 292.786C224.72 292.774 224.888 292.762 225.032 292.75C225.416 292.714 225.764 292.696 226.076 292.696C227.048 292.696 227.798 292.894 228.326 293.29C228.854 293.686 229.118 294.238 229.118 294.946C229.118 295.522 228.95 296.068 228.614 296.584C228.278 297.088 227.834 297.49 227.282 297.79C228.302 299.314 229.16 300.508 229.856 301.372C230.552 302.224 231.17 302.842 231.71 303.226C232.25 303.598 232.778 303.784 233.294 303.784ZM224.51 297.808C224.81 297.856 225.164 297.88 225.572 297.88C226.4 297.88 226.994 297.706 227.354 297.358C227.714 296.998 227.894 296.404 227.894 295.576C227.894 293.836 227.162 292.966 225.698 292.966C225.374 292.966 225.128 292.996 224.96 293.056C224.804 293.104 224.69 293.218 224.618 293.398C224.546 293.566 224.51 293.848 224.51 294.244V297.808ZM240.581 303.028C240.629 303.028 240.659 303.058 240.671 303.118C240.683 303.166 240.665 303.202 240.617 303.226L238.763 304.108C238.715 304.132 238.667 304.144 238.619 304.144C238.463 304.144 238.325 304.042 238.205 303.838C238.085 303.634 238.007 303.352 237.971 302.992L236.855 303.586C236.483 303.778 236.177 303.916 235.937 304C235.697 304.084 235.463 304.126 235.235 304.126C234.863 304.126 234.575 304.03 234.371 303.838C234.179 303.634 234.083 303.382 234.083 303.082C234.083 302.758 234.203 302.5 234.443 302.308C234.695 302.104 235.139 301.894 235.775 301.678L237.953 300.904V299.41C237.953 298.618 237.851 298.066 237.647 297.754C237.443 297.43 237.161 297.268 236.801 297.268C236.393 297.268 236.075 297.412 235.847 297.7C235.619 297.988 235.481 298.336 235.433 298.744C235.385 299.2 235.163 299.428 234.767 299.428C234.575 299.428 234.425 299.38 234.317 299.284C234.209 299.188 234.155 299.056 234.155 298.888C234.155 298.612 234.335 298.318 234.695 298.006C235.055 297.694 235.487 297.43 235.991 297.214C236.507 296.998 236.969 296.89 237.377 296.89C237.857 296.89 238.241 297.058 238.529 297.394C238.817 297.718 238.961 298.21 238.961 298.87V302.056C238.961 302.476 239.015 302.782 239.123 302.974C239.231 303.166 239.411 303.262 239.663 303.262C239.891 303.262 240.185 303.184 240.545 303.028H240.581ZM237.953 302.74V302.632V301.12L236.099 301.822C235.823 301.93 235.625 302.05 235.505 302.182C235.397 302.314 235.343 302.482 235.343 302.686C235.343 302.938 235.415 303.136 235.559 303.28C235.703 303.412 235.889 303.478 236.117 303.478C236.345 303.478 236.591 303.418 236.855 303.298L237.953 302.74ZM248.217 297.052C248.253 297.052 248.271 297.088 248.271 297.16C248.271 297.232 248.253 297.268 248.217 297.268C247.917 297.268 247.659 297.376 247.443 297.592C247.227 297.808 247.023 298.162 246.831 298.654L244.635 304.504C244.191 305.668 243.771 306.574 243.375 307.222C242.991 307.882 242.589 308.35 242.169 308.626C241.761 308.914 241.287 309.058 240.747 309.058C240.483 309.058 240.267 308.998 240.099 308.878C239.919 308.758 239.829 308.584 239.829 308.356C239.829 308.188 239.883 308.056 239.991 307.96C240.099 307.864 240.231 307.816 240.387 307.816C240.543 307.816 240.675 307.834 240.783 307.87C240.891 307.906 241.005 307.966 241.125 308.05C241.149 308.062 241.215 308.098 241.323 308.158C241.443 308.218 241.587 308.248 241.755 308.248C242.043 308.248 242.313 308.122 242.565 307.87C242.829 307.618 243.105 307.192 243.393 306.592C243.693 306.004 244.041 305.188 244.437 304.144L241.701 298.546C241.425 298.018 241.215 297.676 241.071 297.52C240.927 297.352 240.741 297.268 240.513 297.268C240.489 297.268 240.477 297.232 240.477 297.16C240.477 297.088 240.489 297.052 240.513 297.052L241.125 297.07C241.269 297.082 241.467 297.088 241.719 297.088L242.871 297.07C243.039 297.058 243.273 297.052 243.573 297.052C243.597 297.052 243.609 297.088 243.609 297.16C243.609 297.232 243.597 297.268 243.573 297.268C242.877 297.268 242.529 297.406 242.529 297.682C242.529 297.754 242.559 297.85 242.619 297.97L244.995 302.848L246.435 298.708C246.531 298.42 246.579 298.192 246.579 298.024C246.579 297.748 246.471 297.556 246.255 297.448C246.039 297.328 245.685 297.268 245.193 297.268C245.169 297.268 245.157 297.232 245.157 297.16C245.157 297.088 245.169 297.052 245.193 297.052C245.517 297.052 245.763 297.058 245.931 297.07L247.011 297.088L247.659 297.07C247.779 297.058 247.965 297.052 248.217 297.052Z" fill="#001A34"/>
    <g filter="url(#filter3_d)">
      <circle cx="199" cy="410" r="15" fill="white"/>
      <circle cx="199" cy="410" r="14.5" stroke="#EAF1F3"/>
    </g>
    <path d="M189.723 404.654L199.002 399.297L199.001 410.011L189.723 415.369L189.723 404.654Z" fill="#118AB2"/>
    <path d="M199.003 399.286L208.282 404.643L205.189 406.429L195.91 401.072L199.003 399.286Z" fill="#00F8B7"/>
    <path d="M205.182 406.426L205.182 409.997L195.903 404.64L195.903 401.068L205.182 406.426Z" fill="#09BD8E"/>
    <path d="M195.897 404.645L205.176 410.001L202.083 411.787L192.804 406.43L195.897 404.645Z" fill="#FFE3A3"/>
    <path d="M202.12 411.806L202.121 415.377L192.842 410.02L192.842 406.448L202.12 411.806Z" fill="#FFBB1D"/>
    <path d="M192.814 410.003L202.093 415.36L199 417.145L189.721 411.789L192.814 410.003Z" fill="#FF965E"/>
    <path d="M198.993 417.142L198.993 420.713L189.714 415.356L189.714 411.784L198.993 417.142Z" fill="#D94C00"/>
    <path d="M205.186 406.427L208.279 404.641L208.278 415.355L205.186 417.141L205.186 406.427Z" fill="#06D6A0"/>
    <path d="M202.086 411.785L205.179 409.999L205.179 417.142L202.086 418.928L202.086 411.785Z" fill="#FFD166"/>
    <path d="M198.987 417.143L202.08 415.357L202.08 418.929L198.987 420.715L198.987 417.143Z" fill="#F3722C"/>
    <path d="M221.61 404.856C221.61 405.324 221.724 405.732 221.952 406.08C222.18 406.428 222.456 406.722 222.78 406.962C223.104 407.19 223.56 407.484 224.148 407.844C224.772 408.216 225.258 408.528 225.606 408.78C225.954 409.032 226.248 409.356 226.488 409.752C226.74 410.136 226.866 410.598 226.866 411.138C226.866 411.714 226.722 412.236 226.434 412.704C226.146 413.172 225.72 413.544 225.156 413.82C224.604 414.084 223.938 414.216 223.158 414.216C222.234 414.216 221.388 414.006 220.62 413.586C220.56 413.55 220.518 413.508 220.494 413.46C220.482 413.412 220.47 413.34 220.458 413.244L220.224 410.796C220.212 410.748 220.236 410.718 220.296 410.706C220.368 410.694 220.41 410.712 220.422 410.76C220.614 411.624 220.968 412.368 221.484 412.992C222.012 413.616 222.708 413.928 223.572 413.928C224.172 413.928 224.676 413.766 225.084 413.442C225.504 413.106 225.714 412.578 225.714 411.858C225.714 411.318 225.594 410.85 225.354 410.454C225.114 410.058 224.82 409.734 224.472 409.482C224.136 409.218 223.674 408.912 223.086 408.564C222.51 408.216 222.054 407.916 221.718 407.664C221.394 407.412 221.118 407.094 220.89 406.71C220.662 406.326 220.548 405.876 220.548 405.36C220.548 404.76 220.704 404.25 221.016 403.83C221.34 403.398 221.754 403.08 222.258 402.876C222.774 402.66 223.32 402.552 223.896 402.552C224.604 402.552 225.306 402.696 226.002 402.984C226.182 403.044 226.272 403.146 226.272 403.29L226.398 405.36C226.398 405.408 226.368 405.432 226.308 405.432C226.248 405.432 226.212 405.408 226.2 405.36C226.104 404.736 225.846 404.16 225.426 403.632C225.006 403.092 224.4 402.822 223.608 402.822C222.936 402.822 222.432 403.02 222.096 403.416C221.772 403.8 221.61 404.28 221.61 404.856ZM233.44 413.064C233.488 413.064 233.524 413.094 233.548 413.154C233.572 413.202 233.566 413.238 233.53 413.262C233.086 413.61 232.684 413.856 232.324 414C231.976 414.144 231.61 414.216 231.226 414.216C230.722 414.216 230.308 414.102 229.984 413.874C229.66 413.646 229.498 413.268 229.498 412.74V408.51C229.498 408.198 229.474 407.976 229.426 407.844C229.39 407.712 229.312 407.628 229.192 407.592C229.072 407.544 228.868 407.52 228.58 407.52C228.532 407.52 228.508 407.484 228.508 407.412C228.508 407.328 228.532 407.286 228.58 407.286C229.06 407.274 229.45 407.148 229.75 406.908C230.05 406.656 230.224 406.326 230.272 405.918C230.272 405.882 230.32 405.864 230.416 405.864C230.5 405.864 230.542 405.882 230.542 405.918V407.25C231.142 407.238 231.976 407.178 233.044 407.07C233.068 407.07 233.092 407.118 233.116 407.214C233.152 407.298 233.17 407.394 233.17 407.502C233.17 407.598 233.146 407.7 233.098 407.808C233.062 407.904 233.02 407.946 232.972 407.934C232.312 407.766 231.502 407.67 230.542 407.646V412.128C230.542 412.62 230.662 412.986 230.902 413.226C231.154 413.466 231.508 413.586 231.964 413.586C232.516 413.586 232.996 413.418 233.404 413.082L233.44 413.064ZM240.476 412.992C240.512 412.992 240.542 413.016 240.566 413.064C240.602 413.1 240.608 413.136 240.584 413.172C239.768 413.868 238.892 414.216 237.956 414.216C237.248 414.216 236.636 414.054 236.12 413.73C235.604 413.406 235.214 412.986 234.95 412.47C234.698 411.942 234.572 411.372 234.572 410.76C234.572 410.04 234.74 409.386 235.076 408.798C235.424 408.21 235.892 407.748 236.48 407.412C237.068 407.064 237.722 406.89 238.442 406.89C239.09 406.89 239.594 407.052 239.954 407.376C240.314 407.688 240.494 408.12 240.494 408.672C240.494 408.816 240.476 408.924 240.44 408.996C240.416 409.056 240.362 409.086 240.278 409.086L235.85 409.122C235.79 409.446 235.76 409.758 235.76 410.058C235.76 411.102 236.012 411.954 236.516 412.614C237.02 413.262 237.716 413.586 238.604 413.586C239.288 413.586 239.906 413.388 240.458 412.992H240.476ZM237.83 407.25C237.338 407.25 236.924 407.394 236.588 407.682C236.264 407.958 236.036 408.354 235.904 408.87L239.252 408.798C239.252 408.306 239.12 407.928 238.856 407.664C238.604 407.388 238.262 407.25 237.83 407.25ZM247.013 406.818C247.505 406.818 247.961 406.95 248.381 407.214C248.801 407.478 249.137 407.862 249.389 408.366C249.641 408.87 249.767 409.458 249.767 410.13C249.767 411.03 249.563 411.792 249.155 412.416C248.747 413.028 248.243 413.484 247.643 413.784C247.055 414.084 246.473 414.234 245.897 414.234C245.525 414.234 245.189 414.198 244.889 414.126C244.601 414.054 244.301 413.934 243.989 413.766V417.492C243.989 417.852 244.031 418.116 244.115 418.284C244.211 418.452 244.385 418.566 244.637 418.626C244.889 418.698 245.273 418.734 245.789 418.734C245.813 418.734 245.825 418.77 245.825 418.842C245.825 418.914 245.813 418.95 245.789 418.95C245.381 418.95 245.057 418.944 244.817 418.932L243.503 418.914L242.513 418.932C242.345 418.944 242.123 418.95 241.847 418.95C241.811 418.95 241.793 418.914 241.793 418.842C241.793 418.77 241.811 418.734 241.847 418.734C242.171 418.734 242.411 418.698 242.567 418.626C242.723 418.566 242.831 418.452 242.891 418.284C242.951 418.116 242.981 417.852 242.981 417.492V409.032C242.981 408.6 242.933 408.294 242.837 408.114C242.741 407.922 242.573 407.826 242.333 407.826C242.069 407.826 241.751 407.91 241.379 408.078L241.343 408.096C241.295 408.096 241.265 408.066 241.253 408.006C241.229 407.946 241.235 407.904 241.271 407.88L243.269 406.926C243.293 406.914 243.335 406.908 243.395 406.908C243.563 406.908 243.701 407.034 243.809 407.286C243.917 407.538 243.977 407.898 243.989 408.366C245.009 407.334 246.017 406.818 247.013 406.818ZM246.437 413.856C247.073 413.856 247.595 413.58 248.003 413.028C248.411 412.464 248.615 411.684 248.615 410.688C248.615 409.68 248.393 408.9 247.949 408.348C247.505 407.784 246.941 407.502 246.257 407.502C245.837 407.502 245.447 407.604 245.087 407.808C244.727 408.012 244.361 408.3 243.989 408.672V412.722C244.313 413.094 244.667 413.376 245.051 413.568C245.435 413.76 245.897 413.856 246.437 413.856Z" fill="#001A34"/>
  </g>
  <defs>
    <filter id="filter0_d" x="33" y="294.851" width="372.176" height="105.269" filterUnits="userSpaceOnUse" color-interpolation-filters="sRGB">
      <feFlood flood-opacity="0" result="BackgroundImageFix"/>
      <feColorMatrix in="SourceAlpha" type="matrix" values="0 0 0 0 0 0 0 0 0 0 0 0 0 0 0 0 0 0 127 0" result="hardAlpha"/>
      <feOffset dy="1"/>
      <feGaussianBlur stdDeviation="12.5"/>
      <feColorMatrix type="matrix" values="0 0 0 0 0.88667 0 0 0 0 0.944027 0 0 0 0 0.963145 0 0 0 1 0"/>
      <feBlend mode="normal" in2="BackgroundImageFix" result="effect1_dropShadow"/>
      <feBlend mode="normal" in="SourceGraphic" in2="effect1_dropShadow" result="shape"/>
    </filter>
    <filter id="filter1_d" x="33" y="404.731" width="372.176" height="105.269" filterUnits="userSpaceOnUse" color-interpolation-filters="sRGB">
      <feFlood flood-opacity="0" result="BackgroundImageFix"/>
      <feColorMatrix in="SourceAlpha" type="matrix" values="0 0 0 0 0 0 0 0 0 0 0 0 0 0 0 0 0 0 127 0" result="hardAlpha"/>
      <feOffset dy="1"/>
      <feGaussianBlur stdDeviation="12.5"/>
      <feColorMatrix type="matrix" values="0 0 0 0 0.88667 0 0 0 0 0.944027 0 0 0 0 0.963145 0 0 0 1 0"/>
      <feBlend mode="normal" in2="BackgroundImageFix" result="effect1_dropShadow"/>
      <feBlend mode="normal" in="SourceGraphic" in2="effect1_dropShadow" result="shape"/>
    </filter>
    <filter id="filter2_d" x="161" y="261" width="80" height="80" filterUnits="userSpaceOnUse" color-interpolation-filters="sRGB">
      <feFlood flood-opacity="0" result="BackgroundImageFix"/>
      <feColorMatrix in="SourceAlpha" type="matrix" values="0 0 0 0 0 0 0 0 0 0 0 0 0 0 0 0 0 0 127 0" result="hardAlpha"/>
      <feOffset dy="1"/>
      <feGaussianBlur stdDeviation="12.5"/>
      <feColorMatrix type="matrix" values="0 0 0 0 0.88667 0 0 0 0 0.944027 0 0 0 0 0.963145 0 0 0 1 0"/>
      <feBlend mode="normal" in2="BackgroundImageFix" result="effect1_dropShadow"/>
      <feBlend mode="normal" in="SourceGraphic" in2="effect1_dropShadow" result="shape"/>
    </filter>
    <filter id="filter3_d" x="159" y="371" width="80" height="80" filterUnits="userSpaceOnUse" color-interpolation-filters="sRGB">
      <feFlood flood-opacity="0" result="BackgroundImageFix"/>
      <feColorMatrix in="SourceAlpha" type="matrix" values="0 0 0 0 0 0 0 0 0 0 0 0 0 0 0 0 0 0 127 0" result="hardAlpha"/>
      <feOffset dy="1"/>
      <feGaussianBlur stdDeviation="12.5"/>
      <feColorMatrix type="matrix" values="0 0 0 0 0.88667 0 0 0 0 0.944027 0 0 0 0 0.963145 0 0 0 1 0"/>
      <feBlend mode="normal" in2="BackgroundImageFix" result="effect1_dropShadow"/>
      <feBlend mode="normal" in="SourceGraphic" in2="effect1_dropShadow" result="shape"/>
    </filter>
    <linearGradient id="paint0_linear" x1="109.135" y1="353.001" x2="105.907" y2="359.504" gradientUnits="userSpaceOnUse">
      <stop stop-color="#00FFA3"/>
      <stop offset="1" stop-color="#DC1FFF"/>
    </linearGradient>
    <linearGradient id="paint1_linear" x1="109.135" y1="338.518" x2="105.907" y2="345.021" gradientUnits="userSpaceOnUse">
      <stop stop-color="#00FFA3"/>
      <stop offset="1" stop-color="#DC1FFF"/>
    </linearGradient>
    <linearGradient id="paint2_linear" x1="109.135" y1="345.898" x2="105.907" y2="352.401" gradientUnits="userSpaceOnUse">
      <stop stop-color="#00FFA3"/>
      <stop offset="1" stop-color="#DC1FFF"/>
    </linearGradient>
    <linearGradient id="paint3_linear" x1="109.135" y1="461.534" x2="105.907" y2="468.037" gradientUnits="userSpaceOnUse">
      <stop stop-color="#00FFA3"/>
      <stop offset="1" stop-color="#DC1FFF"/>
    </linearGradient>
    <linearGradient id="paint4_linear" x1="109.135" y1="447.051" x2="105.907" y2="453.554" gradientUnits="userSpaceOnUse">
      <stop stop-color="#00FFA3"/>
      <stop offset="1" stop-color="#DC1FFF"/>
    </linearGradient>
    <linearGradient id="paint5_linear" x1="109.135" y1="454.431" x2="105.907" y2="460.934" gradientUnits="userSpaceOnUse">
      <stop stop-color="#00FFA3"/>
      <stop offset="1" stop-color="#DC1FFF"/>
    </linearGradient>
    <linearGradient id="paint6_linear" x1="210.257" y1="294.65" x2="190.579" y2="302.52" gradientUnits="userSpaceOnUse">
      <stop stop-color="#C200FB"/>
      <stop offset="0.489658" stop-color="#3772FF"/>
      <stop offset="0.489758" stop-color="#3773FE"/>
      <stop offset="1" stop-color="#5AC4BE"/>
    </linearGradient>
    <linearGradient id="paint7_linear" x1="210.257" y1="294.65" x2="190.579" y2="302.519" gradientUnits="userSpaceOnUse">
      <stop stop-color="#C200FB"/>
      <stop offset="0.489658" stop-color="#3772FF"/>
      <stop offset="0.489758" stop-color="#3773FE"/>
      <stop offset="1" stop-color="#5AC4BE"/>
    </linearGradient>
    <linearGradient id="paint8_linear" x1="210.257" y1="294.65" x2="190.579" y2="302.519" gradientUnits="userSpaceOnUse">
      <stop stop-color="#C200FB"/>
      <stop offset="0.489658" stop-color="#3772FF"/>
      <stop offset="0.489758" stop-color="#3773FE"/>
      <stop offset="1" stop-color="#5AC4BE"/>
    </linearGradient>
    <linearGradient id="paint9_linear" x1="210.257" y1="294.65" x2="190.579" y2="302.519" gradientUnits="userSpaceOnUse">
      <stop stop-color="#C200FB"/>
      <stop offset="0.489658" stop-color="#3772FF"/>
      <stop offset="0.489758" stop-color="#3773FE"/>
      <stop offset="1" stop-color="#5AC4BE"/>
    </linearGradient>
    <clipPath id="clip0">
      <rect width="438" height="484" fill="white"/>
    </clipPath>
    <clipPath id="clip1">
      <rect width="104.261" height="20.2203" fill="white" transform="translate(91.7002 336.375)"/>
    </clipPath>
    <clipPath id="clip2">
      <rect width="104.261" height="20.2203" fill="white" transform="translate(91.7002 444.908)"/>
    </clipPath>
  </defs>
</svg>
