<svg width="421" height="357" viewBox="0 0 421 357" fill="none" xmlns="http://www.w3.org/2000/svg">
  <path d="M177.327 11.78C178.607 11.26 179.467 10.2 179.467 8.6C179.467 6.32 177.667 5 174.547 5H168.507V19H174.947C178.447 19 180.207 17.64 180.207 15.26C180.207 13.36 179.127 12.18 177.327 11.78ZM174.447 6.22C176.687 6.22 177.987 7.08 177.987 8.76C177.987 10.44 176.687 11.3 174.447 11.3H169.987V6.22H174.447ZM174.927 17.78H169.987V12.52H174.927C177.387 12.52 178.727 13.32 178.727 15.14C178.727 16.98 177.387 17.78 174.927 17.78ZM185.065 17.72V12.52H192.305V11.26H185.065V6.28H193.185V5H183.585V19H193.485V17.72H185.065ZM206.564 6.28V5H196.964V19H198.444V13.06H205.684V11.78H198.444V6.28H206.564ZM215.564 19.12C219.764 19.12 222.904 16.1 222.904 12C222.904 7.9 219.764 4.88 215.564 4.88C211.324 4.88 208.204 7.92 208.204 12C208.204 16.08 211.324 19.12 215.564 19.12ZM215.564 17.8C212.184 17.8 209.664 15.34 209.664 12C209.664 8.66 212.184 6.2 215.564 6.2C218.924 6.2 221.424 8.66 221.424 12C221.424 15.34 218.924 17.8 215.564 17.8ZM237.401 19L233.981 14.2C236.021 13.54 237.181 12 237.181 9.8C237.181 6.8 235.021 5 231.461 5H226.221V19H227.701V14.56H231.461C231.861 14.56 232.221 14.54 232.581 14.5L235.781 19H237.401ZM231.421 13.3H227.701V6.28H231.421C234.221 6.28 235.701 7.56 235.701 9.8C235.701 12 234.221 13.3 231.421 13.3ZM242.155 17.72V12.52H249.395V11.26H242.155V6.28H250.275V5H240.675V19H250.575V17.72H242.155Z" fill="#73979C"/>
  <g opacity="0.87">
    <path d="M349.187 55.5539C349.187 50.8068 345.34 46.9541 340.587 46.9541H74.8683C70.1212 46.9541 66.2686 50.8018 66.2686 55.5539V233.126H349.187V55.5539Z" fill="url(#paint0_linear)"/>
    <path d="M349.188 234.076C349.717 234.076 350.142 233.646 350.142 233.122V55.5542C350.142 50.2874 345.855 46 340.588 46H74.8687C69.6019 46 65.3145 50.2874 65.3145 55.5542V233.127C65.3145 233.656 65.7442 234.081 66.2689 234.081H349.188V234.076ZM67.2233 55.5542C67.2233 51.3418 70.6512 47.9088 74.8687 47.9088H340.588C344.8 47.9088 348.233 51.3368 348.233 55.5542V232.172H67.2233V55.5542Z" fill="url(#paint1_linear)"/>
  </g>
  <g opacity="0.87">
    <path d="M343.355 239.993C350.306 239.993 375.501 239.248 375.501 232.297V227.53C375.501 226.136 374.372 225.007 372.977 225.007H42.4776C41.0834 225.007 39.9541 226.136 39.9541 227.53V232.297C39.9541 239.248 65.1488 239.993 72.0996 239.993H343.355Z" fill="url(#paint2_linear)"/>
    <path d="M72.1 240.947H343.356C345.08 240.947 354.079 240.887 362.174 239.692C371.783 238.278 376.456 235.855 376.456 232.292V227.525C376.456 225.606 374.897 224.047 372.978 224.047H42.4779C40.5591 224.047 39 225.606 39 227.525V232.292C39 235.855 43.6722 238.278 53.2813 239.692C61.3764 240.887 70.381 240.947 72.1 240.947ZM40.9088 232.297V227.53C40.9088 226.665 41.6134 225.966 42.4729 225.966H372.978C373.842 225.966 374.542 226.67 374.542 227.53V232.297C374.542 236.724 358.851 239.038 343.351 239.038H72.1C56.5993 239.038 40.9088 236.724 40.9088 232.297Z" fill="url(#paint3_linear)"/>
  </g>
  <g opacity="0.87">
    <path d="M335.105 60.3311H80.3496V213.768H335.105V60.3311Z" fill="white"/>
    <path d="M335.106 214.728C335.635 214.728 336.06 214.298 336.06 213.773V60.3314C336.06 59.8017 335.63 59.377 335.106 59.377H80.3499C79.8203 59.377 79.3955 59.8067 79.3955 60.3314V213.768C79.3955 214.298 79.8252 214.723 80.3499 214.723H335.106V214.728ZM81.3044 61.2858H334.146V212.814H81.3044V61.2858Z" fill="white"/>
  </g>
  <g opacity="0.87">
    <path d="M334.231 59.4922H79.4756V212.929H334.231V59.4922Z" fill="url(#paint4_linear)"/>
    <path d="M335.186 214.843C335.715 214.843 336.14 214.413 336.14 213.889V60.4466C336.14 59.9169 335.71 59.4922 335.186 59.4922H80.43C79.9003 59.4922 79.4756 59.9219 79.4756 60.4466V213.884C79.4756 214.413 79.9053 214.838 80.43 214.838H335.186V214.843ZM81.3844 61.401H334.226V212.929H81.3844V61.401Z" fill="url(#paint5_linear)"/>
  </g>
  <g opacity="0.87">
    <path d="M374.702 234.516C375.232 234.516 375.656 234.087 375.656 233.562C375.656 233.032 375.227 232.607 374.702 232.607H40.7542C40.2245 232.607 39.7998 233.037 39.7998 233.562C39.7998 234.092 40.2295 234.516 40.7542 234.516H374.702Z" fill="url(#paint6_linear)"/>
  </g>
  <path d="M173.769 224.052C173.239 224.052 172.814 224.481 172.814 225.006V226.056C172.814 228.329 174.663 230.183 176.942 230.183H238.52C240.793 230.183 242.647 228.334 242.647 226.056V225.006C242.647 224.476 242.217 224.052 241.693 224.052C241.163 224.052 240.738 224.481 240.738 225.006V226.056C240.738 227.28 239.744 228.274 238.52 228.274H176.937C175.713 228.274 174.718 227.28 174.718 226.056V225.006C174.723 224.481 174.294 224.052 173.769 224.052Z" fill="#73979C"/>
  <path d="M207.728 55.1492C208.573 55.1492 209.262 54.4646 209.262 53.6151C209.262 52.7706 208.578 52.0811 207.728 52.0811C206.884 52.0811 206.194 52.7656 206.194 53.6151C206.194 54.4646 206.884 55.1492 207.728 55.1492Z" fill="#73979C"/>
  <path d="M210.027 53.615C210.027 52.3458 208.998 51.3164 207.728 51.3164C206.459 51.3164 205.43 52.3458 205.43 53.615C205.43 54.8793 206.459 55.9136 207.728 55.9136C208.998 55.9136 210.027 54.8842 210.027 53.615ZM206.959 53.615C206.959 53.1903 207.304 52.8455 207.728 52.8455C208.153 52.8455 208.498 53.1903 208.498 53.615C208.498 54.0398 208.153 54.3845 207.728 54.3845C207.304 54.3845 206.959 54.0398 206.959 53.615Z" fill="#73979C"/>
  <g filter="url(#filter0_d)">
    <circle cx="203.885" cy="136.159" r="25.1794" fill="white"/>
    <circle cx="203.885" cy="136.159" r="24.6794" stroke="#EAF1F3"/>
  </g>
  <path d="M195.356 128.848L211.601 143.875M219.317 121.538L188.452 151.591" stroke="#73979C" stroke-width="2"/>
  <path d="M78.9961 282H80.4761V269.28H85.3961V268H74.0761V269.28H78.9961V282ZM90.6667 282.1C93.7467 282.1 96.0067 279.86 96.0067 276.74C96.0067 273.62 93.7467 271.4 90.6667 271.4C87.5867 271.4 85.3067 273.62 85.3067 276.74C85.3067 279.86 87.5867 282.1 90.6667 282.1ZM90.6667 280.84C88.4267 280.84 86.7467 279.2 86.7467 276.74C86.7467 274.28 88.4267 272.64 90.6667 272.64C92.9067 272.64 94.5667 274.28 94.5667 276.74C94.5667 279.2 92.9067 280.84 90.6667 280.84ZM107.046 282H108.786L103.866 275.78L108.366 271.48H106.606L100.326 277.22V267.16H98.9058V282H100.326V279L102.806 276.72L107.046 282ZM119.668 276.74C119.668 273.58 117.528 271.4 114.568 271.4C111.608 271.4 109.428 273.62 109.428 276.74C109.428 279.86 111.668 282.1 114.948 282.1C116.608 282.1 118.068 281.5 119.008 280.38L118.208 279.46C117.408 280.38 116.268 280.84 114.988 280.84C112.688 280.84 111.008 279.38 110.848 277.18H119.648C119.648 277.02 119.668 276.86 119.668 276.74ZM114.568 272.62C116.628 272.62 118.128 274.06 118.308 276.12H110.848C111.028 274.06 112.528 272.62 114.568 272.62ZM127.918 271.4C126.098 271.4 124.678 272.14 123.918 273.42V271.48H122.558V282H123.978V276.48C123.978 274.08 125.398 272.68 127.658 272.68C129.658 272.68 130.818 273.82 130.818 276.04V282H132.238V275.9C132.238 272.88 130.478 271.4 127.918 271.4ZM202.577 271.48L199.237 280.42L195.877 271.48H194.657L191.277 280.42L187.977 271.48H186.617L190.577 282H191.917L195.237 273.38L198.557 282H199.897L203.877 271.48H202.577ZM207.375 273.54V271.48H206.015V282H207.435V276.64C207.435 274.16 208.775 272.76 210.975 272.76C211.075 272.76 211.195 272.78 211.315 272.78V271.4C209.375 271.4 208.035 272.14 207.375 273.54ZM217.547 271.4C215.887 271.4 214.327 271.92 213.267 272.82L213.907 273.88C214.767 273.12 216.047 272.64 217.407 272.64C219.367 272.64 220.387 273.62 220.387 275.42V276.06H217.047C214.027 276.06 212.987 277.42 212.987 279.04C212.987 280.86 214.447 282.1 216.827 282.1C218.567 282.1 219.807 281.44 220.447 280.36V282H221.807V275.48C221.807 272.76 220.267 271.4 217.547 271.4ZM217.047 280.98C215.367 280.98 214.387 280.22 214.387 279C214.387 277.92 215.047 277.12 217.087 277.12H220.387V278.84C219.827 280.22 218.647 280.98 217.047 280.98ZM231.084 271.4C229.344 271.4 227.884 272.16 227.024 273.56V271.48H225.664V285.88H227.084V280.02C227.964 281.38 229.404 282.1 231.084 282.1C234.084 282.1 236.324 279.94 236.324 276.74C236.324 273.56 234.084 271.4 231.084 271.4ZM230.984 280.84C228.744 280.84 227.064 279.2 227.064 276.74C227.064 274.3 228.744 272.64 230.984 272.64C233.204 272.64 234.904 274.3 234.904 276.74C234.904 279.2 233.204 280.84 230.984 280.84ZM244.638 271.4C242.898 271.4 241.438 272.16 240.578 273.56V271.48H239.218V285.88H240.638V280.02C241.518 281.38 242.958 282.1 244.638 282.1C247.638 282.1 249.878 279.94 249.878 276.74C249.878 273.56 247.638 271.4 244.638 271.4ZM244.538 280.84C242.298 280.84 240.618 279.2 240.618 276.74C240.618 274.3 242.298 272.64 244.538 272.64C246.758 272.64 248.458 274.3 248.458 276.74C248.458 279.2 246.758 280.84 244.538 280.84ZM261.953 276.74C261.953 273.58 259.813 271.4 256.853 271.4C253.893 271.4 251.713 273.62 251.713 276.74C251.713 279.86 253.953 282.1 257.233 282.1C258.893 282.1 260.353 281.5 261.293 280.38L260.493 279.46C259.693 280.38 258.553 280.84 257.273 280.84C254.973 280.84 253.293 279.38 253.133 277.18H261.933C261.933 277.02 261.953 276.86 261.953 276.74ZM256.853 272.62C258.913 272.62 260.413 274.06 260.593 276.12H253.133C253.313 274.06 254.813 272.62 256.853 272.62ZM273.023 267.16V273.48C272.143 272.12 270.703 271.4 269.023 271.4C266.023 271.4 263.783 273.56 263.783 276.74C263.783 279.92 266.023 282.1 269.023 282.1C270.763 282.1 272.223 281.34 273.083 279.92V282H274.443V267.16H273.023ZM269.143 280.84C266.903 280.84 265.223 279.2 265.223 276.74C265.223 274.28 266.903 272.64 269.143 272.64C271.363 272.64 273.043 274.28 273.043 276.74C273.043 279.2 271.363 280.84 269.143 280.84ZM286.652 282H288.132V269.28H293.052V268H281.732V269.28H286.652V282ZM298.323 282.1C301.403 282.1 303.663 279.86 303.663 276.74C303.663 273.62 301.403 271.4 298.323 271.4C295.243 271.4 292.963 273.62 292.963 276.74C292.963 279.86 295.243 282.1 298.323 282.1ZM298.323 280.84C296.083 280.84 294.403 279.2 294.403 276.74C294.403 274.28 296.083 272.64 298.323 272.64C300.563 272.64 302.223 274.28 302.223 276.74C302.223 279.2 300.563 280.84 298.323 280.84ZM314.702 282H316.442L311.522 275.78L316.022 271.48H314.262L307.982 277.22V267.16H306.562V282H307.982V279L310.462 276.72L314.702 282ZM327.324 276.74C327.324 273.58 325.184 271.4 322.224 271.4C319.264 271.4 317.084 273.62 317.084 276.74C317.084 279.86 319.324 282.1 322.604 282.1C324.264 282.1 325.724 281.5 326.664 280.38L325.864 279.46C325.064 280.38 323.924 280.84 322.644 280.84C320.344 280.84 318.664 279.38 318.504 277.18H327.304C327.304 277.02 327.324 276.86 327.324 276.74ZM322.224 272.62C324.284 272.62 325.784 274.06 325.964 276.12H318.504C318.684 274.06 320.184 272.62 322.224 272.62ZM335.574 271.4C333.754 271.4 332.334 272.14 331.574 273.42V271.48H330.214V282H331.634V276.48C331.634 274.08 333.054 272.68 335.314 272.68C337.314 272.68 338.474 273.82 338.474 276.04V282H339.894V275.9C339.894 272.88 338.134 271.4 335.574 271.4ZM42.4352 315.12C46.6352 315.12 49.7752 312.1 49.7752 308C49.7752 303.9 46.6352 300.88 42.4352 300.88C38.1952 300.88 35.0752 303.92 35.0752 308C35.0752 312.08 38.1952 315.12 42.4352 315.12ZM42.4352 313.8C39.0552 313.8 36.5352 311.34 36.5352 308C36.5352 304.66 39.0552 302.2 42.4352 302.2C45.7952 302.2 48.2952 304.66 48.2952 308C48.2952 311.34 45.7952 313.8 42.4352 313.8ZM54.1525 306.54V304.48H52.7925V315H54.2125V309.64C54.2125 307.16 55.5525 305.76 57.7525 305.76C57.8525 305.76 57.9725 305.78 58.0925 305.78V304.4C56.1525 304.4 54.8125 305.14 54.1525 306.54ZM61.3836 302.18C61.9836 302.18 62.4236 301.72 62.4236 301.14C62.4236 300.6 61.9636 300.16 61.3836 300.16C60.8036 300.16 60.3436 300.62 60.3436 301.16C60.3436 301.72 60.8036 302.18 61.3836 302.18ZM60.6636 315H62.0836V304.48H60.6636V315ZM74.4147 304.48V306.5C73.5347 305.12 72.0147 304.4 70.2547 304.4C67.2547 304.4 64.9747 306.46 64.9747 309.48C64.9747 312.5 67.2547 314.6 70.2547 314.6C71.9747 314.6 73.4747 313.9 74.3547 312.56V313.9C74.3547 316.5 73.1347 317.72 70.4747 317.72C68.8547 317.72 67.3347 317.18 66.3347 316.28L65.6147 317.36C66.7147 318.4 68.5947 318.98 70.5147 318.98C73.9947 318.98 75.7747 317.34 75.7747 313.72V304.48H74.4147ZM70.3947 313.34C68.0747 313.34 66.4147 311.76 66.4147 309.48C66.4147 307.2 68.0747 305.64 70.3947 305.64C72.7147 305.64 74.3947 307.2 74.3947 309.48C74.3947 311.76 72.7147 313.34 70.3947 313.34ZM80.4656 302.18C81.0656 302.18 81.5056 301.72 81.5056 301.14C81.5056 300.6 81.0456 300.16 80.4656 300.16C79.8856 300.16 79.4256 300.62 79.4256 301.16C79.4256 301.72 79.8856 302.18 80.4656 302.18ZM79.7456 315H81.1656V304.48H79.7456V315ZM90.4767 304.4C88.6567 304.4 87.2367 305.14 86.4767 306.42V304.48H85.1167V315H86.5367V309.48C86.5367 307.08 87.9567 305.68 90.2167 305.68C92.2167 305.68 93.3767 306.82 93.3767 309.04V315H94.7967V308.9C94.7967 305.88 93.0367 304.4 90.4767 304.4ZM108.246 315.1C110.026 315.1 111.526 314.38 112.366 313.02L111.306 312.3C110.586 313.36 109.466 313.84 108.246 313.84C105.946 313.84 104.266 312.22 104.266 309.74C104.266 307.28 105.946 305.64 108.246 305.64C109.466 305.64 110.586 306.14 111.306 307.2L112.366 306.48C111.526 305.1 110.026 304.4 108.246 304.4C105.106 304.4 102.826 306.6 102.826 309.74C102.826 312.88 105.106 315.1 108.246 315.1ZM120.36 304.4C118.58 304.4 117.2 305.1 116.42 306.32V300.16H115V315H116.42V309.48C116.42 307.08 117.84 305.68 120.1 305.68C122.1 305.68 123.26 306.82 123.26 309.04V315H124.68V308.9C124.68 305.88 122.92 304.4 120.36 304.4ZM132.215 304.4C130.555 304.4 128.995 304.92 127.935 305.82L128.575 306.88C129.435 306.12 130.715 305.64 132.075 305.64C134.035 305.64 135.055 306.62 135.055 308.42V309.06H131.715C128.695 309.06 127.655 310.42 127.655 312.04C127.655 313.86 129.115 315.1 131.495 315.1C133.235 315.1 134.475 314.44 135.115 313.36V315H136.475V308.48C136.475 305.76 134.935 304.4 132.215 304.4ZM131.715 313.98C130.035 313.98 129.055 313.22 129.055 312C129.055 310.92 129.715 310.12 131.755 310.12H135.055V311.84C134.495 313.22 133.315 313.98 131.715 313.98ZM141.052 302.18C141.652 302.18 142.092 301.72 142.092 301.14C142.092 300.6 141.632 300.16 141.052 300.16C140.472 300.16 140.012 300.62 140.012 301.16C140.012 301.72 140.472 302.18 141.052 302.18ZM140.332 315H141.752V304.48H140.332V315ZM151.063 304.4C149.243 304.4 147.823 305.14 147.063 306.42V304.48H145.703V315H147.123V309.48C147.123 307.08 148.543 305.68 150.803 305.68C152.803 305.68 153.963 306.82 153.963 309.04V315H155.383V308.9C155.383 305.88 153.623 304.4 151.063 304.4ZM211.882 315H217.582C222.062 315 225.082 312.12 225.082 308C225.082 303.88 222.062 301 217.582 301H211.882V315ZM213.362 313.72V302.28H217.502C221.222 302.28 223.622 304.64 223.622 308C223.622 311.36 221.222 313.72 217.502 313.72H213.362ZM237.285 309.74C237.285 306.58 235.145 304.4 232.185 304.4C229.225 304.4 227.045 306.62 227.045 309.74C227.045 312.86 229.285 315.1 232.565 315.1C234.225 315.1 235.685 314.5 236.625 313.38L235.825 312.46C235.025 313.38 233.885 313.84 232.605 313.84C230.305 313.84 228.625 312.38 228.465 310.18H237.265C237.265 310.02 237.285 309.86 237.285 309.74ZM232.185 305.62C234.245 305.62 235.745 307.06 235.925 309.12H228.465C228.645 307.06 230.145 305.62 232.185 305.62ZM242.995 315.1C245.735 315.1 247.335 313.92 247.335 312.1C247.335 308.06 240.515 310.2 240.515 307.36C240.515 306.36 241.355 305.62 243.255 305.62C244.335 305.62 245.435 305.88 246.355 306.52L246.975 305.38C246.095 304.78 244.615 304.4 243.255 304.4C240.575 304.4 239.095 305.68 239.095 307.4C239.095 311.56 245.915 309.4 245.915 312.14C245.915 313.18 245.095 313.86 243.095 313.86C241.615 313.86 240.195 313.34 239.355 312.68L238.715 313.8C239.575 314.54 241.255 315.1 242.995 315.1ZM255 313.34C254.6 313.7 254.02 313.88 253.44 313.88C252.26 313.88 251.62 313.2 251.62 311.96V305.68H254.82V304.48H251.62V302.18H250.2V304.48H248.32V305.68H250.2V312.04C250.2 313.98 251.3 315.1 253.28 315.1C254.1 315.1 254.94 314.86 255.5 314.36L255 313.34ZM258.805 302.18C259.405 302.18 259.845 301.72 259.845 301.14C259.845 300.6 259.385 300.16 258.805 300.16C258.225 300.16 257.765 300.62 257.765 301.16C257.765 301.72 258.225 302.18 258.805 302.18ZM258.085 315H259.505V304.48H258.085V315ZM268.817 304.4C266.997 304.4 265.577 305.14 264.817 306.42V304.48H263.457V315H264.877V309.48C264.877 307.08 266.297 305.68 268.557 305.68C270.557 305.68 271.717 306.82 271.717 309.04V315H273.137V308.9C273.137 305.88 271.377 304.4 268.817 304.4ZM280.672 304.4C279.012 304.4 277.452 304.92 276.392 305.82L277.032 306.88C277.892 306.12 279.172 305.64 280.532 305.64C282.492 305.64 283.512 306.62 283.512 308.42V309.06H280.172C277.152 309.06 276.112 310.42 276.112 312.04C276.112 313.86 277.572 315.1 279.952 315.1C281.692 315.1 282.932 314.44 283.572 313.36V315H284.932V308.48C284.932 305.76 283.392 304.4 280.672 304.4ZM280.172 313.98C278.492 313.98 277.512 313.22 277.512 312C277.512 310.92 278.172 310.12 280.212 310.12H283.512V311.84C282.952 313.22 281.772 313.98 280.172 313.98ZM293.829 313.34C293.429 313.7 292.849 313.88 292.269 313.88C291.089 313.88 290.449 313.2 290.449 311.96V305.68H293.649V304.48H290.449V302.18H289.029V304.48H287.149V305.68H289.029V312.04C289.029 313.98 290.129 315.1 292.109 315.1C292.929 315.1 293.769 314.86 294.329 314.36L293.829 313.34ZM297.634 302.18C298.234 302.18 298.674 301.72 298.674 301.14C298.674 300.6 298.214 300.16 297.634 300.16C297.054 300.16 296.594 300.62 296.594 301.16C296.594 301.72 297.054 302.18 297.634 302.18ZM296.914 315H298.334V304.48H296.914V315ZM306.585 315.1C309.665 315.1 311.925 312.86 311.925 309.74C311.925 306.62 309.665 304.4 306.585 304.4C303.505 304.4 301.225 306.62 301.225 309.74C301.225 312.86 303.505 315.1 306.585 315.1ZM306.585 313.84C304.345 313.84 302.665 312.2 302.665 309.74C302.665 307.28 304.345 305.64 306.585 305.64C308.825 305.64 310.485 307.28 310.485 309.74C310.485 312.2 308.825 313.84 306.585 313.84ZM320.184 304.4C318.364 304.4 316.944 305.14 316.184 306.42V304.48H314.824V315H316.244V309.48C316.244 307.08 317.664 305.68 319.924 305.68C321.924 305.68 323.084 306.82 323.084 309.04V315H324.504V308.9C324.504 305.88 322.744 304.4 320.184 304.4ZM337.953 315.1C339.733 315.1 341.233 314.38 342.073 313.02L341.013 312.3C340.293 313.36 339.173 313.84 337.953 313.84C335.653 313.84 333.973 312.22 333.973 309.74C333.973 307.28 335.653 305.64 337.953 305.64C339.173 305.64 340.293 306.14 341.013 307.2L342.073 306.48C341.233 305.1 339.733 304.4 337.953 304.4C334.813 304.4 332.533 306.6 332.533 309.74C332.533 312.88 334.813 315.1 337.953 315.1ZM350.067 304.4C348.287 304.4 346.907 305.1 346.127 306.32V300.16H344.707V315H346.127V309.48C346.127 307.08 347.547 305.68 349.807 305.68C351.807 305.68 352.967 306.82 352.967 309.04V315H354.387V308.9C354.387 305.88 352.627 304.4 350.067 304.4ZM361.922 304.4C360.262 304.4 358.702 304.92 357.642 305.82L358.282 306.88C359.142 306.12 360.422 305.64 361.782 305.64C363.742 305.64 364.762 306.62 364.762 308.42V309.06H361.422C358.402 309.06 357.362 310.42 357.362 312.04C357.362 313.86 358.822 315.1 361.202 315.1C362.942 315.1 364.182 314.44 364.822 313.36V315H366.182V308.48C366.182 305.76 364.642 304.4 361.922 304.4ZM361.422 313.98C359.742 313.98 358.762 313.22 358.762 312C358.762 310.92 359.422 310.12 361.462 310.12H364.762V311.84C364.202 313.22 363.022 313.98 361.422 313.98ZM370.759 302.18C371.359 302.18 371.799 301.72 371.799 301.14C371.799 300.6 371.339 300.16 370.759 300.16C370.179 300.16 369.719 300.62 369.719 301.16C369.719 301.72 370.179 302.18 370.759 302.18ZM370.039 315H371.459V304.48H370.039V315ZM380.77 304.4C378.95 304.4 377.53 305.14 376.77 306.42V304.48H375.41V315H376.83V309.48C376.83 307.08 378.25 305.68 380.51 305.68C382.51 305.68 383.67 306.82 383.67 309.04V315H385.09V308.9C385.09 305.88 383.33 304.4 380.77 304.4ZM126.01 334L121.91 346.1L117.79 334H116.41L112.23 346.04L108.19 334H106.67L111.39 348H112.93L117.05 336.06L121.15 348H122.71L127.43 334H126.01ZM132.723 337.4C131.063 337.4 129.503 337.92 128.443 338.82L129.083 339.88C129.943 339.12 131.223 338.64 132.583 338.64C134.543 338.64 135.563 339.62 135.563 341.42V342.06H132.223C129.203 342.06 128.163 343.42 128.163 345.04C128.163 346.86 129.623 348.1 132.003 348.1C133.743 348.1 134.983 347.44 135.623 346.36V348H136.983V341.48C136.983 338.76 135.443 337.4 132.723 337.4ZM132.223 346.98C130.543 346.98 129.562 346.22 129.562 345C129.562 343.92 130.223 343.12 132.263 343.12H135.563V344.84C135.003 346.22 133.823 346.98 132.223 346.98ZM140.839 348H142.259V333.16H140.839V348ZM146.21 348H147.63V333.16H146.21V348ZM160.762 342.74C160.762 339.58 158.622 337.4 155.662 337.4C152.702 337.4 150.522 339.62 150.522 342.74C150.522 345.86 152.762 348.1 156.042 348.1C157.702 348.1 159.162 347.5 160.102 346.38L159.302 345.46C158.502 346.38 157.362 346.84 156.082 346.84C153.782 346.84 152.102 345.38 151.942 343.18H160.742C160.742 343.02 160.762 342.86 160.762 342.74ZM155.662 338.62C157.722 338.62 159.222 340.06 159.402 342.12H151.942C152.122 340.06 153.622 338.62 155.662 338.62ZM168.692 346.34C168.292 346.7 167.712 346.88 167.132 346.88C165.952 346.88 165.312 346.2 165.312 344.96V338.68H168.512V337.48H165.312V335.18H163.892V337.48H162.012V338.68H163.892V345.04C163.892 346.98 164.992 348.1 166.972 348.1C167.792 348.1 168.632 347.86 169.192 347.36L168.692 346.34ZM175.211 334V335.28H178.511V348H179.951V334H175.211ZM254.682 334L250.582 346.1L246.462 334H245.082L240.902 346.04L236.862 334H235.342L240.062 348H241.602L245.722 336.06L249.822 348H251.382L256.102 334H254.682ZM261.394 337.4C259.734 337.4 258.174 337.92 257.114 338.82L257.754 339.88C258.614 339.12 259.894 338.64 261.254 338.64C263.214 338.64 264.234 339.62 264.234 341.42V342.06H260.894C257.874 342.06 256.834 343.42 256.834 345.04C256.834 346.86 258.294 348.1 260.674 348.1C262.414 348.1 263.654 347.44 264.294 346.36V348H265.654V341.48C265.654 338.76 264.114 337.4 261.394 337.4ZM260.894 346.98C259.214 346.98 258.234 346.22 258.234 345C258.234 343.92 258.894 343.12 260.934 343.12H264.234V344.84C263.674 346.22 262.494 346.98 260.894 346.98ZM269.511 348H270.931V333.16H269.511V348ZM274.882 348H276.302V333.16H274.882V348ZM289.433 342.74C289.433 339.58 287.293 337.4 284.333 337.4C281.373 337.4 279.193 339.62 279.193 342.74C279.193 345.86 281.433 348.1 284.713 348.1C286.373 348.1 287.833 347.5 288.773 346.38L287.973 345.46C287.173 346.38 286.033 346.84 284.753 346.84C282.453 346.84 280.773 345.38 280.613 343.18H289.413C289.413 343.02 289.433 342.86 289.433 342.74ZM284.333 338.62C286.393 338.62 287.893 340.06 288.073 342.12H280.613C280.793 340.06 282.293 338.62 284.333 338.62ZM297.364 346.34C296.964 346.7 296.384 346.88 295.804 346.88C294.624 346.88 293.984 346.2 293.984 344.96V338.68H297.184V337.48H293.984V335.18H292.564V337.48H290.684V338.68H292.564V345.04C292.564 346.98 293.664 348.1 295.644 348.1C296.464 348.1 297.304 347.86 297.864 347.36L297.364 346.34ZM306.603 346.72L311.363 342.04C313.243 340.2 313.663 339 313.663 337.66C313.663 335.32 311.863 333.88 309.023 333.88C306.883 333.88 305.143 334.6 304.063 335.88L305.083 336.76C306.003 335.7 307.263 335.2 308.903 335.2C311.043 335.2 312.183 336.2 312.183 337.82C312.183 338.78 311.883 339.72 310.303 341.28L304.483 346.98V348H314.303V346.72H306.603Z" fill="#001A34"/>
  <defs>
    <filter id="filter0_d" x="153.705" y="86.9795" width="100.359" height="100.359" filterUnits="userSpaceOnUse" color-interpolation-filters="sRGB">
      <feFlood flood-opacity="0" result="BackgroundImageFix"/>
      <feColorMatrix in="SourceAlpha" type="matrix" values="0 0 0 0 0 0 0 0 0 0 0 0 0 0 0 0 0 0 127 0" result="hardAlpha"/>
      <feOffset dy="1"/>
      <feGaussianBlur stdDeviation="12.5"/>
      <feColorMatrix type="matrix" values="0 0 0 0 0.88667 0 0 0 0 0.944027 0 0 0 0 0.963145 0 0 0 1 0"/>
      <feBlend mode="normal" in2="BackgroundImageFix" result="effect1_dropShadow"/>
      <feBlend mode="normal" in="SourceGraphic" in2="effect1_dropShadow" result="shape"/>
    </filter>
    <linearGradient id="paint0_linear" x1="532.853" y1="221.982" x2="273.402" y2="-52.5836" gradientUnits="userSpaceOnUse">
      <stop offset="0.40625" stop-color="#73979C"/>
      <stop offset="1" stop-color="#F3F9F9"/>
    </linearGradient>
    <linearGradient id="paint1_linear" x1="535.047" y1="222.823" x2="272.886" y2="-53.6483" gradientUnits="userSpaceOnUse">
      <stop offset="0.40625" stop-color="#73979C"/>
      <stop offset="1" stop-color="#F3F9F9"/>
    </linearGradient>
    <linearGradient id="paint2_linear" x1="593.332" y1="239.096" x2="590.66" y2="197.431" gradientUnits="userSpaceOnUse">
      <stop offset="0.40625" stop-color="#73979C"/>
      <stop offset="1" stop-color="#F3F9F9"/>
    </linearGradient>
    <linearGradient id="paint3_linear" x1="595.526" y1="239.935" x2="592.15" y2="192.999" gradientUnits="userSpaceOnUse">
      <stop offset="0.40625" stop-color="#73979C"/>
      <stop offset="1" stop-color="#F3F9F9"/>
    </linearGradient>
    <linearGradient id="paint4_linear" x1="346.939" y1="218.056" x2="238.126" y2="-31.2154" gradientUnits="userSpaceOnUse">
      <stop stop-color="#F3F9F9"/>
      <stop offset="0.927083" stop-color="#73979C"/>
    </linearGradient>
    <linearGradient id="paint5_linear" x1="502.762" y1="205.544" x2="288.031" y2="-41.5096" gradientUnits="userSpaceOnUse">
      <stop offset="0.317708" stop-color="#F3F9F9"/>
      <stop offset="0.927083" stop-color="#73979C"/>
    </linearGradient>
    <linearGradient id="paint6_linear" x1="593.688" y1="234.402" x2="593.645" y2="229.073" gradientUnits="userSpaceOnUse">
      <stop stop-color="#F3F9F9"/>
      <stop offset="1" stop-color="#73979C"/>
    </linearGradient>
  </defs>
</svg>
