<svg width="394" height="363" viewBox="0 0 394 363" fill="none" xmlns="http://www.w3.org/2000/svg">
  <path d="M182.598 5V16.36L173.578 5H172.358V19H173.838V7.64L182.838 19H184.058V5H182.598ZM194.748 19.12C198.948 19.12 202.088 16.1 202.088 12C202.088 7.9 198.948 4.88 194.748 4.88C190.508 4.88 187.388 7.92 187.388 12C187.388 16.08 190.508 19.12 194.748 19.12ZM194.748 17.8C191.368 17.8 188.848 15.34 188.848 12C188.848 8.66 191.368 6.2 194.748 6.2C198.108 6.2 200.608 8.66 200.608 12C200.608 15.34 198.108 17.8 194.748 17.8ZM222.775 5L218.675 17.1L214.555 5H213.175L208.995 17.04L204.955 5H203.435L208.155 19H209.695L213.815 7.06L217.915 19H219.475L224.195 5H222.775Z" fill="#FF0097"/>
  <path d="M339.187 55.5539C339.187 50.8068 335.34 46.9541 330.587 46.9541H64.8683C60.1212 46.9541 56.2686 50.8018 56.2686 55.5539V233.126H339.187V55.5539Z" fill="url(#paint0_linear)" fill-opacity="0.45"/>
  <path d="M339.188 234.076C339.717 234.076 340.142 233.646 340.142 233.122V55.5542C340.142 50.2874 335.855 46 330.588 46H64.8687C59.6019 46 55.3145 50.2874 55.3145 55.5542V233.127C55.3145 233.656 55.7442 234.081 56.2689 234.081H339.188V234.076ZM57.2233 55.5542C57.2233 51.3418 60.6512 47.9088 64.8687 47.9088H330.588C334.8 47.9088 338.233 51.3368 338.233 55.5542V232.172H57.2233V55.5542Z" fill="url(#paint1_linear)" fill-opacity="0.45"/>
  <path d="M333.355 239.993C340.306 239.993 365.501 239.248 365.501 232.297V227.53C365.501 226.136 364.372 225.007 362.977 225.007H32.4776C31.0834 225.007 29.9541 226.136 29.9541 227.53V232.297C29.9541 239.248 55.1488 239.993 62.0996 239.993H333.355Z" fill="url(#paint2_linear)" fill-opacity="0.45"/>
  <path d="M62.1 240.947H333.356C335.08 240.947 344.079 240.887 352.174 239.692C361.783 238.278 366.456 235.855 366.456 232.292V227.525C366.456 225.606 364.897 224.047 362.978 224.047H32.4779C30.5591 224.047 29 225.606 29 227.525V232.292C29 235.855 33.6722 238.278 43.2813 239.692C51.3764 240.887 60.381 240.947 62.1 240.947ZM30.9088 232.297V227.53C30.9088 226.665 31.6134 225.966 32.4729 225.966H362.978C363.842 225.966 364.542 226.67 364.542 227.53V232.297C364.542 236.724 348.851 239.038 333.351 239.038H62.1C46.5993 239.038 30.9088 236.724 30.9088 232.297Z" fill="url(#paint3_linear)" fill-opacity="0.45"/>
  <g opacity="0.87">
    <path d="M325.105 60.3311H70.3496V213.768H325.105V60.3311Z" fill="white"/>
    <path d="M325.106 214.728C325.635 214.728 326.06 214.298 326.06 213.773V60.3314C326.06 59.8017 325.63 59.377 325.106 59.377H70.3499C69.8203 59.377 69.3955 59.8067 69.3955 60.3314V213.768C69.3955 214.298 69.8252 214.723 70.3499 214.723H325.106V214.728ZM71.3044 61.2858H324.146V212.814H71.3044V61.2858Z" fill="white"/>
  </g>
  <g opacity="0.87">
    <path d="M324.231 59.4922H69.4756V212.929H324.231V59.4922Z" fill="url(#paint4_linear)" fill-opacity="0.45"/>
    <path d="M325.186 214.843C325.715 214.843 326.14 214.413 326.14 213.889V60.4466C326.14 59.9169 325.71 59.4922 325.186 59.4922H70.43C69.9003 59.4922 69.4756 59.9219 69.4756 60.4466V213.884C69.4756 214.413 69.9053 214.838 70.43 214.838H325.186V214.843ZM71.3844 61.401H324.226V212.929H71.3844V61.401Z" fill="#FF0097"/>
  </g>
  <g opacity="0.87">
    <path d="M364.702 234.516C365.232 234.516 365.656 234.087 365.656 233.562C365.656 233.032 365.227 232.607 364.702 232.607H30.7542C30.2245 232.607 29.7998 233.037 29.7998 233.562C29.7998 234.092 30.2295 234.516 30.7542 234.516H364.702Z" fill="#FF0097"/>
  </g>
  <path d="M163.769 224.052C163.239 224.052 162.814 224.481 162.814 225.006V226.056C162.814 228.329 164.663 230.183 166.942 230.183H228.52C230.793 230.183 232.647 228.334 232.647 226.056V225.006C232.647 224.476 232.217 224.052 231.693 224.052C231.163 224.052 230.738 224.481 230.738 225.006V226.056C230.738 227.28 229.744 228.274 228.52 228.274H166.937C165.713 228.274 164.718 227.28 164.718 226.056V225.006C164.723 224.481 164.294 224.052 163.769 224.052Z" fill="#FF0097"/>
  <path d="M197.728 55.1492C198.573 55.1492 199.262 54.4646 199.262 53.6151C199.262 52.7706 198.578 52.0811 197.728 52.0811C196.884 52.0811 196.194 52.7656 196.194 53.6151C196.194 54.4646 196.884 55.1492 197.728 55.1492Z" fill="#FF0097"/>
  <path d="M200.027 53.615C200.027 52.3458 198.998 51.3164 197.728 51.3164C196.459 51.3164 195.43 52.3458 195.43 53.615C195.43 54.8793 196.459 55.9136 197.728 55.9136C198.998 55.9136 200.027 54.8842 200.027 53.615ZM196.959 53.615C196.959 53.1903 197.304 52.8455 197.728 52.8455C198.153 52.8455 198.498 53.1903 198.498 53.615C198.498 54.0398 198.153 54.3845 197.728 54.3845C197.304 54.3845 196.959 54.0398 196.959 53.615Z" fill="#FF0097"/>
  <g filter="url(#filter0_d)">
    <circle cx="199.57" cy="136.97" r="25.1794" fill="white"/>
    <circle cx="199.57" cy="136.97" r="24.6794" stroke="#EAF1F3"/>
  </g>
  <path d="M187.387 136.159L196.727 144.687L212.566 128.849" stroke="#73979C" stroke-width="2"/>
  <path d="M65.4961 282H66.9761V269.28H71.8961V268H60.5761V269.28H65.4961V282ZM77.1667 282.1C80.2467 282.1 82.5067 279.86 82.5067 276.74C82.5067 273.62 80.2467 271.4 77.1667 271.4C74.0867 271.4 71.8067 273.62 71.8067 276.74C71.8067 279.86 74.0867 282.1 77.1667 282.1ZM77.1667 280.84C74.9267 280.84 73.2467 279.2 73.2467 276.74C73.2467 274.28 74.9267 272.64 77.1667 272.64C79.4067 272.64 81.0667 274.28 81.0667 276.74C81.0667 279.2 79.4067 280.84 77.1667 280.84ZM93.5458 282H95.2858L90.3658 275.78L94.8658 271.48H93.1058L86.8258 277.22V267.16H85.4058V282H86.8258V279L89.3058 276.72L93.5458 282ZM106.168 276.74C106.168 273.58 104.028 271.4 101.068 271.4C98.1078 271.4 95.9278 273.62 95.9278 276.74C95.9278 279.86 98.1678 282.1 101.448 282.1C103.108 282.1 104.568 281.5 105.508 280.38L104.708 279.46C103.908 280.38 102.768 280.84 101.488 280.84C99.1878 280.84 97.5078 279.38 97.3478 277.18H106.148C106.148 277.02 106.168 276.86 106.168 276.74ZM101.068 272.62C103.128 272.62 104.628 274.06 104.808 276.12H97.3478C97.5278 274.06 99.0278 272.62 101.068 272.62ZM114.418 271.4C112.598 271.4 111.178 272.14 110.418 273.42V271.48H109.058V282H110.478V276.48C110.478 274.08 111.898 272.68 114.158 272.68C116.158 272.68 117.318 273.82 117.318 276.04V282H118.738V275.9C118.738 272.88 116.978 271.4 114.418 271.4ZM189.077 271.48L185.737 280.42L182.377 271.48H181.157L177.777 280.42L174.477 271.48H173.117L177.077 282H178.417L181.737 273.38L185.057 282H186.397L190.377 271.48H189.077ZM193.875 273.54V271.48H192.515V282H193.935V276.64C193.935 274.16 195.275 272.76 197.475 272.76C197.575 272.76 197.695 272.78 197.815 272.78V271.4C195.875 271.4 194.535 272.14 193.875 273.54ZM204.047 271.4C202.387 271.4 200.827 271.92 199.767 272.82L200.407 273.88C201.267 273.12 202.547 272.64 203.907 272.64C205.867 272.64 206.887 273.62 206.887 275.42V276.06H203.547C200.527 276.06 199.487 277.42 199.487 279.04C199.487 280.86 200.947 282.1 203.327 282.1C205.067 282.1 206.307 281.44 206.947 280.36V282H208.307V275.48C208.307 272.76 206.767 271.4 204.047 271.4ZM203.547 280.98C201.867 280.98 200.887 280.22 200.887 279C200.887 277.92 201.547 277.12 203.587 277.12H206.887V278.84C206.327 280.22 205.147 280.98 203.547 280.98ZM217.584 271.4C215.844 271.4 214.384 272.16 213.524 273.56V271.48H212.164V285.88H213.584V280.02C214.464 281.38 215.904 282.1 217.584 282.1C220.584 282.1 222.824 279.94 222.824 276.74C222.824 273.56 220.584 271.4 217.584 271.4ZM217.484 280.84C215.244 280.84 213.564 279.2 213.564 276.74C213.564 274.3 215.244 272.64 217.484 272.64C219.704 272.64 221.404 274.3 221.404 276.74C221.404 279.2 219.704 280.84 217.484 280.84ZM231.138 271.4C229.398 271.4 227.938 272.16 227.078 273.56V271.48H225.718V285.88H227.138V280.02C228.018 281.38 229.458 282.1 231.138 282.1C234.138 282.1 236.378 279.94 236.378 276.74C236.378 273.56 234.138 271.4 231.138 271.4ZM231.038 280.84C228.798 280.84 227.118 279.2 227.118 276.74C227.118 274.3 228.798 272.64 231.038 272.64C233.258 272.64 234.958 274.3 234.958 276.74C234.958 279.2 233.258 280.84 231.038 280.84ZM248.453 276.74C248.453 273.58 246.313 271.4 243.353 271.4C240.393 271.4 238.213 273.62 238.213 276.74C238.213 279.86 240.453 282.1 243.733 282.1C245.393 282.1 246.853 281.5 247.793 280.38L246.993 279.46C246.193 280.38 245.053 280.84 243.773 280.84C241.473 280.84 239.793 279.38 239.633 277.18H248.433C248.433 277.02 248.453 276.86 248.453 276.74ZM243.353 272.62C245.413 272.62 246.913 274.06 247.093 276.12H239.633C239.813 274.06 241.313 272.62 243.353 272.62ZM259.523 267.16V273.48C258.643 272.12 257.203 271.4 255.523 271.4C252.523 271.4 250.283 273.56 250.283 276.74C250.283 279.92 252.523 282.1 255.523 282.1C257.263 282.1 258.723 281.34 259.583 279.92V282H260.943V267.16H259.523ZM255.643 280.84C253.403 280.84 251.723 279.2 251.723 276.74C251.723 274.28 253.403 272.64 255.643 272.64C257.863 272.64 259.543 274.28 259.543 276.74C259.543 279.2 257.863 280.84 255.643 280.84ZM273.152 282H274.632V269.28H279.552V268H268.232V269.28H273.152V282ZM284.823 282.1C287.903 282.1 290.163 279.86 290.163 276.74C290.163 273.62 287.903 271.4 284.823 271.4C281.743 271.4 279.463 273.62 279.463 276.74C279.463 279.86 281.743 282.1 284.823 282.1ZM284.823 280.84C282.583 280.84 280.903 279.2 280.903 276.74C280.903 274.28 282.583 272.64 284.823 272.64C287.063 272.64 288.723 274.28 288.723 276.74C288.723 279.2 287.063 280.84 284.823 280.84ZM301.202 282H302.942L298.022 275.78L302.522 271.48H300.762L294.482 277.22V267.16H293.062V282H294.482V279L296.962 276.72L301.202 282ZM313.824 276.74C313.824 273.58 311.684 271.4 308.724 271.4C305.764 271.4 303.584 273.62 303.584 276.74C303.584 279.86 305.824 282.1 309.104 282.1C310.764 282.1 312.224 281.5 313.164 280.38L312.364 279.46C311.564 280.38 310.424 280.84 309.144 280.84C306.844 280.84 305.164 279.38 305.004 277.18H313.804C313.804 277.02 313.824 276.86 313.824 276.74ZM308.724 272.62C310.784 272.62 312.284 274.06 312.464 276.12H305.004C305.184 274.06 306.684 272.62 308.724 272.62ZM322.074 271.4C320.254 271.4 318.834 272.14 318.074 273.42V271.48H316.714V282H318.134V276.48C318.134 274.08 319.554 272.68 321.814 272.68C323.814 272.68 324.974 273.82 324.974 276.04V282H326.394V275.9C326.394 272.88 324.634 271.4 322.074 271.4ZM28.9352 315.12C33.1352 315.12 36.2752 312.1 36.2752 308C36.2752 303.9 33.1352 300.88 28.9352 300.88C24.6952 300.88 21.5752 303.92 21.5752 308C21.5752 312.08 24.6952 315.12 28.9352 315.12ZM28.9352 313.8C25.5552 313.8 23.0352 311.34 23.0352 308C23.0352 304.66 25.5552 302.2 28.9352 302.2C32.2952 302.2 34.7952 304.66 34.7952 308C34.7952 311.34 32.2952 313.8 28.9352 313.8ZM40.6525 306.54V304.48H39.2925V315H40.7125V309.64C40.7125 307.16 42.0525 305.76 44.2525 305.76C44.3525 305.76 44.4725 305.78 44.5925 305.78V304.4C42.6525 304.4 41.3125 305.14 40.6525 306.54ZM47.8836 302.18C48.4836 302.18 48.9236 301.72 48.9236 301.14C48.9236 300.6 48.4636 300.16 47.8836 300.16C47.3036 300.16 46.8436 300.62 46.8436 301.16C46.8436 301.72 47.3036 302.18 47.8836 302.18ZM47.1636 315H48.5836V304.48H47.1636V315ZM60.9147 304.48V306.5C60.0347 305.12 58.5147 304.4 56.7547 304.4C53.7547 304.4 51.4747 306.46 51.4747 309.48C51.4747 312.5 53.7547 314.6 56.7547 314.6C58.4747 314.6 59.9747 313.9 60.8547 312.56V313.9C60.8547 316.5 59.6347 317.72 56.9747 317.72C55.3547 317.72 53.8347 317.18 52.8347 316.28L52.1147 317.36C53.2147 318.4 55.0947 318.98 57.0147 318.98C60.4947 318.98 62.2747 317.34 62.2747 313.72V304.48H60.9147ZM56.8947 313.34C54.5747 313.34 52.9147 311.76 52.9147 309.48C52.9147 307.2 54.5747 305.64 56.8947 305.64C59.2147 305.64 60.8947 307.2 60.8947 309.48C60.8947 311.76 59.2147 313.34 56.8947 313.34ZM66.9656 302.18C67.5656 302.18 68.0056 301.72 68.0056 301.14C68.0056 300.6 67.5456 300.16 66.9656 300.16C66.3856 300.16 65.9256 300.62 65.9256 301.16C65.9256 301.72 66.3856 302.18 66.9656 302.18ZM66.2456 315H67.6656V304.48H66.2456V315ZM76.9767 304.4C75.1567 304.4 73.7367 305.14 72.9767 306.42V304.48H71.6167V315H73.0367V309.48C73.0367 307.08 74.4567 305.68 76.7167 305.68C78.7167 305.68 79.8767 306.82 79.8767 309.04V315H81.2967V308.9C81.2967 305.88 79.5367 304.4 76.9767 304.4ZM94.7463 315.1C96.5263 315.1 98.0263 314.38 98.8663 313.02L97.8063 312.3C97.0863 313.36 95.9663 313.84 94.7463 313.84C92.4463 313.84 90.7663 312.22 90.7663 309.74C90.7663 307.28 92.4463 305.64 94.7463 305.64C95.9663 305.64 97.0863 306.14 97.8063 307.2L98.8663 306.48C98.0263 305.1 96.5263 304.4 94.7463 304.4C91.6063 304.4 89.3263 306.6 89.3263 309.74C89.3263 312.88 91.6063 315.1 94.7463 315.1ZM106.86 304.4C105.08 304.4 103.7 305.1 102.92 306.32V300.16H101.5V315H102.92V309.48C102.92 307.08 104.34 305.68 106.6 305.68C108.6 305.68 109.76 306.82 109.76 309.04V315H111.18V308.9C111.18 305.88 109.42 304.4 106.86 304.4ZM118.715 304.4C117.055 304.4 115.495 304.92 114.435 305.82L115.075 306.88C115.935 306.12 117.215 305.64 118.575 305.64C120.535 305.64 121.555 306.62 121.555 308.42V309.06H118.215C115.195 309.06 114.155 310.42 114.155 312.04C114.155 313.86 115.615 315.1 117.995 315.1C119.735 315.1 120.975 314.44 121.615 313.36V315H122.975V308.48C122.975 305.76 121.435 304.4 118.715 304.4ZM118.215 313.98C116.535 313.98 115.555 313.22 115.555 312C115.555 310.92 116.215 310.12 118.255 310.12H121.555V311.84C120.995 313.22 119.815 313.98 118.215 313.98ZM127.552 302.18C128.152 302.18 128.592 301.72 128.592 301.14C128.592 300.6 128.132 300.16 127.552 300.16C126.972 300.16 126.512 300.62 126.512 301.16C126.512 301.72 126.972 302.18 127.552 302.18ZM126.832 315H128.252V304.48H126.832V315ZM137.563 304.4C135.743 304.4 134.323 305.14 133.563 306.42V304.48H132.203V315H133.623V309.48C133.623 307.08 135.043 305.68 137.303 305.68C139.303 305.68 140.463 306.82 140.463 309.04V315H141.883V308.9C141.883 305.88 140.123 304.4 137.563 304.4ZM198.382 315H204.082C208.562 315 211.582 312.12 211.582 308C211.582 303.88 208.562 301 204.082 301H198.382V315ZM199.862 313.72V302.28H204.002C207.722 302.28 210.122 304.64 210.122 308C210.122 311.36 207.722 313.72 204.002 313.72H199.862ZM223.785 309.74C223.785 306.58 221.645 304.4 218.685 304.4C215.725 304.4 213.545 306.62 213.545 309.74C213.545 312.86 215.785 315.1 219.065 315.1C220.725 315.1 222.185 314.5 223.125 313.38L222.325 312.46C221.525 313.38 220.385 313.84 219.105 313.84C216.805 313.84 215.125 312.38 214.965 310.18H223.765C223.765 310.02 223.785 309.86 223.785 309.74ZM218.685 305.62C220.745 305.62 222.245 307.06 222.425 309.12H214.965C215.145 307.06 216.645 305.62 218.685 305.62ZM229.495 315.1C232.235 315.1 233.835 313.92 233.835 312.1C233.835 308.06 227.015 310.2 227.015 307.36C227.015 306.36 227.855 305.62 229.755 305.62C230.835 305.62 231.935 305.88 232.855 306.52L233.475 305.38C232.595 304.78 231.115 304.4 229.755 304.4C227.075 304.4 225.595 305.68 225.595 307.4C225.595 311.56 232.415 309.4 232.415 312.14C232.415 313.18 231.595 313.86 229.595 313.86C228.115 313.86 226.695 313.34 225.855 312.68L225.215 313.8C226.075 314.54 227.755 315.1 229.495 315.1ZM241.5 313.34C241.1 313.7 240.52 313.88 239.94 313.88C238.76 313.88 238.12 313.2 238.12 311.96V305.68H241.32V304.48H238.12V302.18H236.7V304.48H234.82V305.68H236.7V312.04C236.7 313.98 237.8 315.1 239.78 315.1C240.6 315.1 241.44 314.86 242 314.36L241.5 313.34ZM245.305 302.18C245.905 302.18 246.345 301.72 246.345 301.14C246.345 300.6 245.885 300.16 245.305 300.16C244.725 300.16 244.265 300.62 244.265 301.16C244.265 301.72 244.725 302.18 245.305 302.18ZM244.585 315H246.005V304.48H244.585V315ZM255.317 304.4C253.497 304.4 252.077 305.14 251.317 306.42V304.48H249.957V315H251.377V309.48C251.377 307.08 252.797 305.68 255.057 305.68C257.057 305.68 258.217 306.82 258.217 309.04V315H259.637V308.9C259.637 305.88 257.877 304.4 255.317 304.4ZM267.172 304.4C265.512 304.4 263.952 304.92 262.892 305.82L263.532 306.88C264.392 306.12 265.672 305.64 267.032 305.64C268.992 305.64 270.012 306.62 270.012 308.42V309.06H266.672C263.652 309.06 262.612 310.42 262.612 312.04C262.612 313.86 264.072 315.1 266.452 315.1C268.192 315.1 269.432 314.44 270.072 313.36V315H271.432V308.48C271.432 305.76 269.892 304.4 267.172 304.4ZM266.672 313.98C264.992 313.98 264.012 313.22 264.012 312C264.012 310.92 264.672 310.12 266.712 310.12H270.012V311.84C269.452 313.22 268.272 313.98 266.672 313.98ZM280.329 313.34C279.929 313.7 279.349 313.88 278.769 313.88C277.589 313.88 276.949 313.2 276.949 311.96V305.68H280.149V304.48H276.949V302.18H275.529V304.48H273.649V305.68H275.529V312.04C275.529 313.98 276.629 315.1 278.609 315.1C279.429 315.1 280.269 314.86 280.829 314.36L280.329 313.34ZM284.134 302.18C284.734 302.18 285.174 301.72 285.174 301.14C285.174 300.6 284.714 300.16 284.134 300.16C283.554 300.16 283.094 300.62 283.094 301.16C283.094 301.72 283.554 302.18 284.134 302.18ZM283.414 315H284.834V304.48H283.414V315ZM293.085 315.1C296.165 315.1 298.425 312.86 298.425 309.74C298.425 306.62 296.165 304.4 293.085 304.4C290.005 304.4 287.725 306.62 287.725 309.74C287.725 312.86 290.005 315.1 293.085 315.1ZM293.085 313.84C290.845 313.84 289.165 312.2 289.165 309.74C289.165 307.28 290.845 305.64 293.085 305.64C295.325 305.64 296.985 307.28 296.985 309.74C296.985 312.2 295.325 313.84 293.085 313.84ZM306.684 304.4C304.864 304.4 303.444 305.14 302.684 306.42V304.48H301.324V315H302.744V309.48C302.744 307.08 304.164 305.68 306.424 305.68C308.424 305.68 309.584 306.82 309.584 309.04V315H311.004V308.9C311.004 305.88 309.244 304.4 306.684 304.4ZM324.453 315.1C326.233 315.1 327.733 314.38 328.573 313.02L327.513 312.3C326.793 313.36 325.673 313.84 324.453 313.84C322.153 313.84 320.473 312.22 320.473 309.74C320.473 307.28 322.153 305.64 324.453 305.64C325.673 305.64 326.793 306.14 327.513 307.2L328.573 306.48C327.733 305.1 326.233 304.4 324.453 304.4C321.313 304.4 319.033 306.6 319.033 309.74C319.033 312.88 321.313 315.1 324.453 315.1ZM336.567 304.4C334.787 304.4 333.407 305.1 332.627 306.32V300.16H331.207V315H332.627V309.48C332.627 307.08 334.047 305.68 336.307 305.68C338.307 305.68 339.467 306.82 339.467 309.04V315H340.887V308.9C340.887 305.88 339.127 304.4 336.567 304.4ZM348.422 304.4C346.762 304.4 345.202 304.92 344.142 305.82L344.782 306.88C345.642 306.12 346.922 305.64 348.282 305.64C350.242 305.64 351.262 306.62 351.262 308.42V309.06H347.922C344.902 309.06 343.862 310.42 343.862 312.04C343.862 313.86 345.322 315.1 347.702 315.1C349.442 315.1 350.682 314.44 351.322 313.36V315H352.682V308.48C352.682 305.76 351.142 304.4 348.422 304.4ZM347.922 313.98C346.242 313.98 345.262 313.22 345.262 312C345.262 310.92 345.922 310.12 347.962 310.12H351.262V311.84C350.702 313.22 349.522 313.98 347.922 313.98ZM357.259 302.18C357.859 302.18 358.299 301.72 358.299 301.14C358.299 300.6 357.839 300.16 357.259 300.16C356.679 300.16 356.219 300.62 356.219 301.16C356.219 301.72 356.679 302.18 357.259 302.18ZM356.539 315H357.959V304.48H356.539V315ZM367.27 304.4C365.45 304.4 364.03 305.14 363.27 306.42V304.48H361.91V315H363.33V309.48C363.33 307.08 364.75 305.68 367.01 305.68C369.01 305.68 370.17 306.82 370.17 309.04V315H371.59V308.9C371.59 305.88 369.83 304.4 367.27 304.4ZM171.064 334L166.964 346.1L162.844 334H161.464L157.284 346.04L153.244 334H151.724L156.444 348H157.984L162.104 336.06L166.204 348H167.764L172.484 334H171.064ZM177.777 337.4C176.117 337.4 174.557 337.92 173.497 338.82L174.137 339.88C174.997 339.12 176.277 338.64 177.637 338.64C179.597 338.64 180.617 339.62 180.617 341.42V342.06H177.277C174.257 342.06 173.217 343.42 173.217 345.04C173.217 346.86 174.677 348.1 177.057 348.1C178.797 348.1 180.037 347.44 180.677 346.36V348H182.037V341.48C182.037 338.76 180.497 337.4 177.777 337.4ZM177.277 346.98C175.597 346.98 174.617 346.22 174.617 345C174.617 343.92 175.277 343.12 177.317 343.12H180.617V344.84C180.057 346.22 178.877 346.98 177.277 346.98ZM185.894 348H187.314V333.16H185.894V348ZM191.265 348H192.685V333.16H191.265V348ZM205.816 342.74C205.816 339.58 203.676 337.4 200.716 337.4C197.756 337.4 195.576 339.62 195.576 342.74C195.576 345.86 197.816 348.1 201.096 348.1C202.756 348.1 204.216 347.5 205.156 346.38L204.356 345.46C203.556 346.38 202.416 346.84 201.136 346.84C198.836 346.84 197.156 345.38 196.996 343.18H205.796C205.796 343.02 205.816 342.86 205.816 342.74ZM200.716 338.62C202.776 338.62 204.276 340.06 204.456 342.12H196.996C197.176 340.06 198.676 338.62 200.716 338.62ZM213.747 346.34C213.347 346.7 212.767 346.88 212.187 346.88C211.007 346.88 210.367 346.2 210.367 344.96V338.68H213.567V337.48H210.367V335.18H208.947V337.48H207.067V338.68H208.947V345.04C208.947 346.98 210.047 348.1 212.027 348.1C212.847 348.1 213.687 347.86 214.247 347.36L213.747 346.34ZM220.266 334V335.28H223.566V348H225.006V334H220.266Z" fill="#001A34"/>
  <path d="M162 276L157 273.113V278.887L162 276ZM132 276.5H157.5V275.5H132V276.5Z" fill="#73979C"/>
  <path d="M187 307L182 304.113V309.887L187 307ZM157 307.5H182.5V306.5H157V307.5Z" fill="#73979C"/>
  <path d="M240 339L247.79 346L261 333" stroke="#73979C"/>
  <defs>
    <filter id="filter0_d" x="149.391" y="87.791" width="100.359" height="100.359" filterUnits="userSpaceOnUse" color-interpolation-filters="sRGB">
      <feFlood flood-opacity="0" result="BackgroundImageFix"/>
      <feColorMatrix in="SourceAlpha" type="matrix" values="0 0 0 0 0 0 0 0 0 0 0 0 0 0 0 0 0 0 127 0" result="hardAlpha"/>
      <feOffset dy="1"/>
      <feGaussianBlur stdDeviation="12.5"/>
      <feColorMatrix type="matrix" values="0 0 0 0 0.88667 0 0 0 0 0.944027 0 0 0 0 0.963145 0 0 0 1 0"/>
      <feBlend mode="normal" in2="BackgroundImageFix" result="effect1_dropShadow"/>
      <feBlend mode="normal" in="SourceGraphic" in2="effect1_dropShadow" result="shape"/>
    </filter>
    <linearGradient id="paint0_linear" x1="338.756" y1="233.603" x2="42.0048" y2="79.3972" gradientUnits="userSpaceOnUse">
      <stop stop-color="#FF0097"/>
      <stop offset="1" stop-color="#FFA9DC"/>
    </linearGradient>
    <linearGradient id="paint1_linear" x1="339.708" y1="234.562" x2="72.7371" y2="72.549" gradientUnits="userSpaceOnUse">
      <stop stop-color="#FF0097"/>
      <stop offset="1" stop-color="#FFA9DC"/>
    </linearGradient>
    <linearGradient id="paint2_linear" x1="379.075" y1="232.815" x2="370.952" y2="174.872" gradientUnits="userSpaceOnUse">
      <stop stop-color="#FF0097"/>
      <stop offset="1" stop-color="#FFA9DC"/>
    </linearGradient>
    <linearGradient id="paint3_linear" x1="365.942" y1="240.99" x2="359.286" y2="187.735" gradientUnits="userSpaceOnUse">
      <stop stop-color="#FF0097"/>
      <stop offset="1" stop-color="#FFA9DC"/>
    </linearGradient>
    <linearGradient id="paint4_linear" x1="323.843" y1="213.322" x2="97.3733" y2="62.6424" gradientUnits="userSpaceOnUse">
      <stop stop-color="#FFA9DC"/>
      <stop offset="1" stop-color="#FF0097"/>
    </linearGradient>
  </defs>
</svg>
