<svg width="445" height="439" viewBox="0 0 445 439" fill="none" xmlns="http://www.w3.org/2000/svg">
  <path d="M191.327 11.78C192.607 11.26 193.467 10.2 193.467 8.6C193.467 6.32 191.667 5 188.547 5H182.507V19H188.947C192.447 19 194.207 17.64 194.207 15.26C194.207 13.36 193.127 12.18 191.327 11.78ZM188.447 6.22C190.687 6.22 191.987 7.08 191.987 8.76C191.987 10.44 190.687 11.3 188.447 11.3H183.987V6.22H188.447ZM188.927 17.78H183.987V12.52H188.927C191.387 12.52 192.727 13.32 192.727 15.14C192.727 16.98 191.387 17.78 188.927 17.78ZM199.065 17.72V12.52H206.305V11.26H199.065V6.28H207.185V5H197.585V19H207.485V17.72H199.065ZM220.564 6.28V5H210.964V19H212.444V13.06H219.684V11.78H212.444V6.28H220.564ZM229.564 19.12C233.764 19.12 236.904 16.1 236.904 12C236.904 7.9 233.764 4.88 229.564 4.88C225.324 4.88 222.204 7.92 222.204 12C222.204 16.08 225.324 19.12 229.564 19.12ZM229.564 17.8C226.184 17.8 223.664 15.34 223.664 12C223.664 8.66 226.184 6.2 229.564 6.2C232.924 6.2 235.424 8.66 235.424 12C235.424 15.34 232.924 17.8 229.564 17.8ZM251.401 19L247.981 14.2C250.021 13.54 251.181 12 251.181 9.8C251.181 6.8 249.021 5 245.461 5H240.221V19H241.701V14.56H245.461C245.861 14.56 246.221 14.54 246.581 14.5L249.781 19H251.401ZM245.421 13.3H241.701V6.28H245.421C248.221 6.28 249.701 7.56 249.701 9.8C249.701 12 248.221 13.3 245.421 13.3ZM256.155 17.72V12.52H263.395V11.26H256.155V6.28H264.275V5H254.675V19H264.575V17.72H256.155Z" fill="#73979C"/>
  <ellipse cx="223.43" cy="80.06" rx="34.4298" ry="34.06" fill="url(#paint0_linear)"/>
  <path d="M211.769 70.1716L233.981 90.4977M244.532 60.2832L202.328 100.935" stroke="white" stroke-width="4"/>
  <path d="M223 189L220.113 194L225.887 194L223 189ZM223 353L225.887 348L220.113 348L223 353ZM222.5 193.5L222.5 348.5L223.5 348.5L223.5 193.5L222.5 193.5Z" fill="#73979C"/>
  <g filter="url(#filter0_d)">
    <path fill-rule="evenodd" clip-rule="evenodd" d="M25 246C25 234.954 33.9543 226 45 226H105C116.046 226 125 234.954 125 246V256C125 267.046 116.046 276 105 276H45C33.9543 276 25 267.046 25 256V246Z" fill="white"/>
    <path d="M25.5 246C25.5 235.23 34.2304 226.5 45 226.5H105C115.77 226.5 124.5 235.23 124.5 246V256C124.5 266.77 115.77 275.5 105 275.5H45C34.2304 275.5 25.5 266.77 25.5 256V246Z" stroke="#EAF1F3"/>
  </g>
  <path d="M48.8229 257.12C50.8829 257.12 52.7229 256.42 53.9629 255.06L53.0229 254.12C51.8829 255.3 50.4829 255.8 48.8829 255.8C45.5029 255.8 42.9629 253.32 42.9629 250C42.9629 246.68 45.5029 244.2 48.8829 244.2C50.4829 244.2 51.8829 244.7 53.0229 245.86L53.9629 244.92C52.7229 243.56 50.8829 242.88 48.8429 242.88C44.6229 242.88 41.5029 245.9 41.5029 250C41.5029 254.1 44.6229 257.12 48.8229 257.12ZM62.1779 246.4C60.3979 246.4 59.0179 247.1 58.2379 248.32V242.16H56.8179V257H58.2379V251.48C58.2379 249.08 59.6579 247.68 61.9179 247.68C63.9179 247.68 65.0779 248.82 65.0779 251.04V257H66.4979V250.9C66.4979 247.88 64.7379 246.4 62.1779 246.4ZM74.033 246.4C72.373 246.4 70.813 246.92 69.753 247.82L70.393 248.88C71.253 248.12 72.533 247.64 73.893 247.64C75.853 247.64 76.873 248.62 76.873 250.42V251.06H73.533C70.513 251.06 69.473 252.42 69.473 254.04C69.473 255.86 70.933 257.1 73.313 257.1C75.053 257.1 76.293 256.44 76.933 255.36V257H78.293V250.48C78.293 247.76 76.753 246.4 74.033 246.4ZM73.533 255.98C71.853 255.98 70.873 255.22 70.873 254C70.873 252.92 71.533 252.12 73.573 252.12H76.873V253.84C76.313 255.22 75.133 255.98 73.533 255.98ZM82.8699 244.18C83.4699 244.18 83.9099 243.72 83.9099 243.14C83.9099 242.6 83.4499 242.16 82.8699 242.16C82.2899 242.16 81.8299 242.62 81.8299 243.16C81.8299 243.72 82.2899 244.18 82.8699 244.18ZM82.1499 257H83.5699V246.48H82.1499V257ZM92.881 246.4C91.061 246.4 89.641 247.14 88.881 248.42V246.48H87.521V257H88.941V251.48C88.941 249.08 90.361 247.68 92.621 247.68C94.621 247.68 95.781 248.82 95.781 251.04V257H97.201V250.9C97.201 247.88 95.441 246.4 92.881 246.4ZM104.491 243V244.28H107.791V257H109.231V243H104.491Z" fill="#001A34"/>
  <g filter="url(#filter1_d)">
    <path fill-rule="evenodd" clip-rule="evenodd" d="M172 383C172 371.954 180.954 363 192 363H252C263.046 363 272 371.954 272 383V393C272 404.046 263.046 413 252 413H192C180.954 413 172 404.046 172 393V383Z" fill="white"/>
    <path d="M172.5 383C172.5 372.23 181.23 363.5 192 363.5H252C262.77 363.5 271.5 372.23 271.5 383V393C271.5 403.77 262.77 412.5 252 412.5H192C181.23 412.5 172.5 403.77 172.5 393V383Z" stroke="#EAF1F3"/>
  </g>
  <path d="M193.792 393.12C195.852 393.12 197.692 392.42 198.932 391.06L197.992 390.12C196.852 391.3 195.452 391.8 193.852 391.8C190.472 391.8 187.932 389.32 187.932 386C187.932 382.68 190.472 380.2 193.852 380.2C195.452 380.2 196.852 380.7 197.992 381.86L198.932 380.92C197.692 379.56 195.852 378.88 193.812 378.88C189.592 378.88 186.472 381.9 186.472 386C186.472 390.1 189.592 393.12 193.792 393.12ZM207.147 382.4C205.367 382.4 203.987 383.1 203.207 384.32V378.16H201.787V393H203.207V387.48C203.207 385.08 204.627 383.68 206.887 383.68C208.887 383.68 210.047 384.82 210.047 387.04V393H211.467V386.9C211.467 383.88 209.707 382.4 207.147 382.4ZM219.002 382.4C217.342 382.4 215.782 382.92 214.722 383.82L215.362 384.88C216.222 384.12 217.502 383.64 218.862 383.64C220.822 383.64 221.842 384.62 221.842 386.42V387.06H218.502C215.482 387.06 214.442 388.42 214.442 390.04C214.442 391.86 215.902 393.1 218.282 393.1C220.022 393.1 221.262 392.44 221.902 391.36V393H223.262V386.48C223.262 383.76 221.722 382.4 219.002 382.4ZM218.502 391.98C216.822 391.98 215.842 391.22 215.842 390C215.842 388.92 216.502 388.12 218.542 388.12H221.842V389.84C221.282 391.22 220.102 391.98 218.502 391.98ZM227.839 380.18C228.439 380.18 228.879 379.72 228.879 379.14C228.879 378.6 228.419 378.16 227.839 378.16C227.259 378.16 226.799 378.62 226.799 379.16C226.799 379.72 227.259 380.18 227.839 380.18ZM227.119 393H228.539V382.48H227.119V393ZM237.85 382.4C236.03 382.4 234.61 383.14 233.85 384.42V382.48H232.49V393H233.91V387.48C233.91 385.08 235.33 383.68 237.59 383.68C239.59 383.68 240.75 384.82 240.75 387.04V393H242.17V386.9C242.17 383.88 240.41 382.4 237.85 382.4ZM255.079 385L259.039 380.02V379H250.039V380.28H257.199L253.319 385.14V386.2H254.319C256.919 386.2 258.099 387.3 258.099 388.98C258.099 390.72 256.819 391.8 254.499 391.8C252.679 391.8 251.059 391.12 250.159 390.18L249.459 391.32C250.539 392.42 252.479 393.12 254.499 393.12C257.879 393.12 259.579 391.32 259.579 388.98C259.579 386.74 258.079 385.16 255.079 385Z" fill="#001A34"/>
  <g filter="url(#filter2_d)">
    <path fill-rule="evenodd" clip-rule="evenodd" d="M89 314C89 302.954 97.9543 294 109 294H169C180.046 294 189 302.954 189 314V324C189 335.046 180.046 344 169 344H109C97.9543 344 89 335.046 89 324V314Z" fill="white"/>
    <path d="M89.5 314C89.5 303.23 98.2304 294.5 109 294.5H169C179.77 294.5 188.5 303.23 188.5 314V324C188.5 334.77 179.77 343.5 169 343.5H109C98.2304 343.5 89.5 334.77 89.5 324V314Z" stroke="#EAF1F3"/>
  </g>
  <path d="M110.753 325.12C112.813 325.12 114.653 324.42 115.893 323.06L114.953 322.12C113.813 323.3 112.413 323.8 110.813 323.8C107.433 323.8 104.893 321.32 104.893 318C104.893 314.68 107.433 312.2 110.813 312.2C112.413 312.2 113.813 312.7 114.953 313.86L115.893 312.92C114.653 311.56 112.813 310.88 110.773 310.88C106.553 310.88 103.433 313.9 103.433 318C103.433 322.1 106.553 325.12 110.753 325.12ZM124.108 314.4C122.328 314.4 120.948 315.1 120.168 316.32V310.16H118.748V325H120.168V319.48C120.168 317.08 121.588 315.68 123.848 315.68C125.848 315.68 127.008 316.82 127.008 319.04V325H128.428V318.9C128.428 315.88 126.668 314.4 124.108 314.4ZM135.963 314.4C134.303 314.4 132.743 314.92 131.683 315.82L132.323 316.88C133.183 316.12 134.463 315.64 135.823 315.64C137.783 315.64 138.803 316.62 138.803 318.42V319.06H135.463C132.443 319.06 131.403 320.42 131.403 322.04C131.403 323.86 132.863 325.1 135.243 325.1C136.983 325.1 138.223 324.44 138.863 323.36V325H140.223V318.48C140.223 315.76 138.683 314.4 135.963 314.4ZM135.463 323.98C133.783 323.98 132.803 323.22 132.803 322C132.803 320.92 133.463 320.12 135.503 320.12H138.803V321.84C138.243 323.22 137.063 323.98 135.463 323.98ZM144.8 312.18C145.4 312.18 145.84 311.72 145.84 311.14C145.84 310.6 145.38 310.16 144.8 310.16C144.22 310.16 143.76 310.62 143.76 311.16C143.76 311.72 144.22 312.18 144.8 312.18ZM144.08 325H145.5V314.48H144.08V325ZM154.811 314.4C152.991 314.4 151.571 315.14 150.811 316.42V314.48H149.451V325H150.871V319.48C150.871 317.08 152.291 315.68 154.551 315.68C156.551 315.68 157.711 316.82 157.711 319.04V325H159.131V318.9C159.131 315.88 157.371 314.4 154.811 314.4ZM169.14 323.72L173.9 319.04C175.78 317.2 176.2 316 176.2 314.66C176.2 312.32 174.4 310.88 171.56 310.88C169.42 310.88 167.68 311.6 166.6 312.88L167.62 313.76C168.54 312.7 169.8 312.2 171.44 312.2C173.58 312.2 174.72 313.2 174.72 314.82C174.72 315.78 174.42 316.72 172.84 318.28L167.02 323.98V325H176.84V323.72H169.14Z" fill="#001A34"/>
  <g filter="url(#filter3_d)">
    <path fill-rule="evenodd" clip-rule="evenodd" d="M254 314C254 302.954 262.954 294 274 294H334C345.046 294 354 302.954 354 314V324C354 335.046 345.046 344 334 344H274C262.954 344 254 335.046 254 324V314Z" fill="white"/>
    <path d="M254.5 314C254.5 303.23 263.23 294.5 274 294.5H334C344.77 294.5 353.5 303.23 353.5 314V324C353.5 334.77 344.77 343.5 334 343.5H274C263.23 343.5 254.5 334.77 254.5 324V314Z" stroke="#EAF1F3"/>
  </g>
  <path d="M274.825 325.12C276.885 325.12 278.725 324.42 279.965 323.06L279.025 322.12C277.885 323.3 276.485 323.8 274.885 323.8C271.505 323.8 268.965 321.32 268.965 318C268.965 314.68 271.505 312.2 274.885 312.2C276.485 312.2 277.885 312.7 279.025 313.86L279.965 312.92C278.725 311.56 276.885 310.88 274.845 310.88C270.625 310.88 267.505 313.9 267.505 318C267.505 322.1 270.625 325.12 274.825 325.12ZM288.18 314.4C286.4 314.4 285.02 315.1 284.24 316.32V310.16H282.82V325H284.24V319.48C284.24 317.08 285.66 315.68 287.92 315.68C289.92 315.68 291.08 316.82 291.08 319.04V325H292.5V318.9C292.5 315.88 290.74 314.4 288.18 314.4ZM300.035 314.4C298.375 314.4 296.815 314.92 295.755 315.82L296.395 316.88C297.255 316.12 298.535 315.64 299.895 315.64C301.855 315.64 302.875 316.62 302.875 318.42V319.06H299.535C296.515 319.06 295.475 320.42 295.475 322.04C295.475 323.86 296.935 325.1 299.315 325.1C301.055 325.1 302.295 324.44 302.935 323.36V325H304.295V318.48C304.295 315.76 302.755 314.4 300.035 314.4ZM299.535 323.98C297.855 323.98 296.875 323.22 296.875 322C296.875 320.92 297.535 320.12 299.575 320.12H302.875V321.84C302.315 323.22 301.135 323.98 299.535 323.98ZM308.872 312.18C309.472 312.18 309.912 311.72 309.912 311.14C309.912 310.6 309.452 310.16 308.872 310.16C308.292 310.16 307.832 310.62 307.832 311.16C307.832 311.72 308.292 312.18 308.872 312.18ZM308.152 325H309.572V314.48H308.152V325ZM318.883 314.4C317.063 314.4 315.643 315.14 314.883 316.42V314.48H313.523V325H314.943V319.48C314.943 317.08 316.363 315.68 318.623 315.68C320.623 315.68 321.783 316.82 321.783 319.04V325H323.203V318.9C323.203 315.88 321.443 314.4 318.883 314.4ZM343.253 320.04H340.453V316.8H339.053V320.04H332.973L340.133 311H338.533L331.113 320.28V321.32H339.013V325H340.453V321.32H343.253V320.04Z" fill="#001A34"/>
  <g filter="url(#filter4_d)">
    <path fill-rule="evenodd" clip-rule="evenodd" d="M320 246C320 234.954 328.954 226 340 226H400C411.046 226 420 234.954 420 246V256C420 267.046 411.046 276 400 276H340C328.954 276 320 267.046 320 256V246Z" fill="white"/>
    <path d="M320.5 246C320.5 235.23 329.23 226.5 340 226.5H400C410.77 226.5 419.5 235.23 419.5 246V256C419.5 266.77 410.77 275.5 400 275.5H340C329.23 275.5 320.5 266.77 320.5 256V246Z" stroke="#EAF1F3"/>
  </g>
  <path d="M341.272 257.12C343.332 257.12 345.172 256.42 346.412 255.06L345.472 254.12C344.332 255.3 342.932 255.8 341.332 255.8C337.952 255.8 335.412 253.32 335.412 250C335.412 246.68 337.952 244.2 341.332 244.2C342.932 244.2 344.332 244.7 345.472 245.86L346.412 244.92C345.172 243.56 343.332 242.88 341.292 242.88C337.072 242.88 333.952 245.9 333.952 250C333.952 254.1 337.072 257.12 341.272 257.12ZM354.627 246.4C352.847 246.4 351.467 247.1 350.687 248.32V242.16H349.267V257H350.687V251.48C350.687 249.08 352.107 247.68 354.367 247.68C356.367 247.68 357.527 248.82 357.527 251.04V257H358.947V250.9C358.947 247.88 357.187 246.4 354.627 246.4ZM366.482 246.4C364.822 246.4 363.262 246.92 362.202 247.82L362.842 248.88C363.702 248.12 364.982 247.64 366.342 247.64C368.302 247.64 369.322 248.62 369.322 250.42V251.06H365.982C362.962 251.06 361.922 252.42 361.922 254.04C361.922 255.86 363.382 257.1 365.762 257.1C367.502 257.1 368.742 256.44 369.382 255.36V257H370.742V250.48C370.742 247.76 369.202 246.4 366.482 246.4ZM365.982 255.98C364.302 255.98 363.322 255.22 363.322 254C363.322 252.92 363.982 252.12 366.022 252.12H369.322V253.84C368.762 255.22 367.582 255.98 365.982 255.98ZM375.319 244.18C375.919 244.18 376.359 243.72 376.359 243.14C376.359 242.6 375.899 242.16 375.319 242.16C374.739 242.16 374.279 242.62 374.279 243.16C374.279 243.72 374.739 244.18 375.319 244.18ZM374.599 257H376.019V246.48H374.599V257ZM385.33 246.4C383.51 246.4 382.09 247.14 381.33 248.42V246.48H379.97V257H381.39V251.48C381.39 249.08 382.81 247.68 385.07 247.68C387.07 247.68 388.23 248.82 388.23 251.04V257H389.65V250.9C389.65 247.88 387.89 246.4 385.33 246.4ZM401.48 248.74H399.68L400.16 244.28H406.56V243H398.9L398.18 250.02H401.16C404.72 250.02 405.84 251.14 405.84 252.94C405.84 254.64 404.58 255.8 402.2 255.8C400.4 255.8 398.8 255.12 397.9 254.18L397.2 255.32C398.28 256.42 400.2 257.12 402.22 257.12C405.64 257.12 407.3 255.26 407.3 252.88C407.3 250.4 405.7 248.74 401.48 248.74Z" fill="#001A34"/>
  <path d="M196 189L196 194.774L191 191.887L196 189ZM140 286L140 280.226L145 283.113L140 286ZM194.183 193.147L142.683 282.353L141.817 281.853L193.317 192.647L194.183 193.147Z" fill="#73979C"/>
  <path d="M134 188L130.899 192.87L128.232 187.749L134 188ZM76 218L79.1367 213.153L81.7661 218.293L76 218ZM98.1419 206.673L98.3728 207.117L98.3696 207.119L98.1419 206.673ZM130.24 190.522L98.3728 207.117L97.911 206.23L129.778 189.635L130.24 190.522ZM98.3696 207.119L80.234 216.396L79.7785 215.505L97.9142 206.228L98.3696 207.119Z" fill="#73979C"/>
  <path d="M250 189L250 194.774L255 191.887L250 189ZM306 286L306 280.226L301 283.113L306 286ZM251.817 193.147L303.317 282.353L304.183 281.853L252.683 192.647L251.817 193.147Z" fill="#73979C"/>
  <path d="M313 189L316.147 193.84L318.765 188.694L313 189ZM370 218L366.853 213.16L364.235 218.306L370 218ZM316.784 191.486L365.763 216.405L366.216 215.514L317.237 190.595L316.784 191.486Z" fill="#73979C"/>
  <g filter="url(#filter5_d)">
    <path fill-rule="evenodd" clip-rule="evenodd" d="M75.793 162.039C75.793 150.993 84.7473 142.039 95.793 142.039H350.401C361.446 142.039 370.401 150.993 370.401 162.039V172.2C370.401 183.245 361.446 192.2 350.401 192.2H95.793C84.7473 192.2 75.793 183.245 75.793 172.2V162.039Z" fill="white"/>
    <path d="M76.293 162.039C76.293 151.27 85.0234 142.539 95.793 142.539H350.401C361.17 142.539 369.901 151.27 369.901 162.039V172.2C369.901 182.969 361.17 191.7 350.401 191.7H95.793C85.0234 191.7 76.293 182.969 76.293 172.2V162.039Z" stroke="#EAF1F3"/>
  </g>
  <path d="M169.886 174.006C174.086 174.006 177.226 170.986 177.226 166.886C177.226 162.786 174.086 159.766 169.886 159.766C165.646 159.766 162.526 162.806 162.526 166.886C162.526 170.966 165.646 174.006 169.886 174.006ZM169.886 172.686C166.506 172.686 163.986 170.226 163.986 166.886C163.986 163.546 166.506 161.086 169.886 161.086C173.246 161.086 175.746 163.546 175.746 166.886C175.746 170.226 173.246 172.686 169.886 172.686ZM181.603 165.426V163.366H180.243V173.886H181.663V168.526C181.663 166.046 183.003 164.646 185.203 164.646C185.303 164.646 185.423 164.666 185.543 164.666V163.286C183.603 163.286 182.263 164.026 181.603 165.426ZM188.834 161.066C189.434 161.066 189.874 160.606 189.874 160.026C189.874 159.486 189.414 159.046 188.834 159.046C188.254 159.046 187.794 159.506 187.794 160.046C187.794 160.606 188.254 161.066 188.834 161.066ZM188.114 173.886H189.534V163.366H188.114V173.886ZM201.865 163.366V165.386C200.985 164.006 199.465 163.286 197.705 163.286C194.705 163.286 192.425 165.346 192.425 168.366C192.425 171.386 194.705 173.486 197.705 173.486C199.425 173.486 200.925 172.786 201.805 171.446V172.786C201.805 175.386 200.585 176.606 197.925 176.606C196.305 176.606 194.785 176.066 193.785 175.166L193.065 176.246C194.165 177.286 196.045 177.866 197.965 177.866C201.445 177.866 203.225 176.226 203.225 172.606V163.366H201.865ZM197.845 172.226C195.525 172.226 193.865 170.646 193.865 168.366C193.865 166.086 195.525 164.526 197.845 164.526C200.165 164.526 201.845 166.086 201.845 168.366C201.845 170.646 200.165 172.226 197.845 172.226ZM207.916 161.066C208.516 161.066 208.956 160.606 208.956 160.026C208.956 159.486 208.496 159.046 207.916 159.046C207.336 159.046 206.876 159.506 206.876 160.046C206.876 160.606 207.336 161.066 207.916 161.066ZM207.196 173.886H208.616V163.366H207.196V173.886ZM217.927 163.286C216.107 163.286 214.687 164.026 213.927 165.306V163.366H212.567V173.886H213.987V168.366C213.987 165.966 215.407 164.566 217.667 164.566C219.667 164.566 220.827 165.706 220.827 167.926V173.886H222.247V167.786C222.247 164.766 220.487 163.286 217.927 163.286ZM235.697 173.986C237.477 173.986 238.977 173.266 239.817 171.906L238.757 171.186C238.037 172.246 236.917 172.726 235.697 172.726C233.397 172.726 231.717 171.106 231.717 168.626C231.717 166.166 233.397 164.526 235.697 164.526C236.917 164.526 238.037 165.026 238.757 166.086L239.817 165.366C238.977 163.986 237.477 163.286 235.697 163.286C232.557 163.286 230.277 165.486 230.277 168.626C230.277 171.766 232.557 173.986 235.697 173.986ZM247.81 163.286C246.03 163.286 244.65 163.986 243.87 165.206V159.046H242.45V173.886H243.87V168.366C243.87 165.966 245.29 164.566 247.55 164.566C249.55 164.566 250.71 165.706 250.71 167.926V173.886H252.13V167.786C252.13 164.766 250.37 163.286 247.81 163.286ZM259.665 163.286C258.005 163.286 256.445 163.806 255.385 164.706L256.025 165.766C256.885 165.006 258.165 164.526 259.525 164.526C261.485 164.526 262.505 165.506 262.505 167.306V167.946H259.165C256.145 167.946 255.105 169.306 255.105 170.926C255.105 172.746 256.565 173.986 258.945 173.986C260.685 173.986 261.925 173.326 262.565 172.246V173.886H263.925V167.366C263.925 164.646 262.385 163.286 259.665 163.286ZM259.165 172.866C257.485 172.866 256.505 172.106 256.505 170.886C256.505 169.806 257.165 169.006 259.205 169.006H262.505V170.726C261.945 172.106 260.765 172.866 259.165 172.866ZM268.502 161.066C269.102 161.066 269.542 160.606 269.542 160.026C269.542 159.486 269.082 159.046 268.502 159.046C267.922 159.046 267.462 159.506 267.462 160.046C267.462 160.606 267.922 161.066 268.502 161.066ZM267.782 173.886H269.202V163.366H267.782V173.886ZM278.513 163.286C276.693 163.286 275.273 164.026 274.513 165.306V163.366H273.153V173.886H274.573V168.366C274.573 165.966 275.993 164.566 278.253 164.566C280.253 164.566 281.413 165.706 281.413 167.926V173.886H282.833V167.786C282.833 164.766 281.073 163.286 278.513 163.286Z" fill="#001A34"/>
  <defs>
    <filter id="filter0_d" x="0" y="202" width="150" height="100" filterUnits="userSpaceOnUse" color-interpolation-filters="sRGB">
      <feFlood flood-opacity="0" result="BackgroundImageFix"/>
      <feColorMatrix in="SourceAlpha" type="matrix" values="0 0 0 0 0 0 0 0 0 0 0 0 0 0 0 0 0 0 127 0" result="hardAlpha"/>
      <feOffset dy="1"/>
      <feGaussianBlur stdDeviation="12.5"/>
      <feColorMatrix type="matrix" values="0 0 0 0 0.88667 0 0 0 0 0.944027 0 0 0 0 0.963145 0 0 0 1 0"/>
      <feBlend mode="normal" in2="BackgroundImageFix" result="effect1_dropShadow"/>
      <feBlend mode="normal" in="SourceGraphic" in2="effect1_dropShadow" result="shape"/>
    </filter>
    <filter id="filter1_d" x="147" y="339" width="150" height="100" filterUnits="userSpaceOnUse" color-interpolation-filters="sRGB">
      <feFlood flood-opacity="0" result="BackgroundImageFix"/>
      <feColorMatrix in="SourceAlpha" type="matrix" values="0 0 0 0 0 0 0 0 0 0 0 0 0 0 0 0 0 0 127 0" result="hardAlpha"/>
      <feOffset dy="1"/>
      <feGaussianBlur stdDeviation="12.5"/>
      <feColorMatrix type="matrix" values="0 0 0 0 0.88667 0 0 0 0 0.944027 0 0 0 0 0.963145 0 0 0 1 0"/>
      <feBlend mode="normal" in2="BackgroundImageFix" result="effect1_dropShadow"/>
      <feBlend mode="normal" in="SourceGraphic" in2="effect1_dropShadow" result="shape"/>
    </filter>
    <filter id="filter2_d" x="64" y="270" width="150" height="100" filterUnits="userSpaceOnUse" color-interpolation-filters="sRGB">
      <feFlood flood-opacity="0" result="BackgroundImageFix"/>
      <feColorMatrix in="SourceAlpha" type="matrix" values="0 0 0 0 0 0 0 0 0 0 0 0 0 0 0 0 0 0 127 0" result="hardAlpha"/>
      <feOffset dy="1"/>
      <feGaussianBlur stdDeviation="12.5"/>
      <feColorMatrix type="matrix" values="0 0 0 0 0.88667 0 0 0 0 0.944027 0 0 0 0 0.963145 0 0 0 1 0"/>
      <feBlend mode="normal" in2="BackgroundImageFix" result="effect1_dropShadow"/>
      <feBlend mode="normal" in="SourceGraphic" in2="effect1_dropShadow" result="shape"/>
    </filter>
    <filter id="filter3_d" x="229" y="270" width="150" height="100" filterUnits="userSpaceOnUse" color-interpolation-filters="sRGB">
      <feFlood flood-opacity="0" result="BackgroundImageFix"/>
      <feColorMatrix in="SourceAlpha" type="matrix" values="0 0 0 0 0 0 0 0 0 0 0 0 0 0 0 0 0 0 127 0" result="hardAlpha"/>
      <feOffset dy="1"/>
      <feGaussianBlur stdDeviation="12.5"/>
      <feColorMatrix type="matrix" values="0 0 0 0 0.88667 0 0 0 0 0.944027 0 0 0 0 0.963145 0 0 0 1 0"/>
      <feBlend mode="normal" in2="BackgroundImageFix" result="effect1_dropShadow"/>
      <feBlend mode="normal" in="SourceGraphic" in2="effect1_dropShadow" result="shape"/>
    </filter>
    <filter id="filter4_d" x="295" y="202" width="150" height="100" filterUnits="userSpaceOnUse" color-interpolation-filters="sRGB">
      <feFlood flood-opacity="0" result="BackgroundImageFix"/>
      <feColorMatrix in="SourceAlpha" type="matrix" values="0 0 0 0 0 0 0 0 0 0 0 0 0 0 0 0 0 0 127 0" result="hardAlpha"/>
      <feOffset dy="1"/>
      <feGaussianBlur stdDeviation="12.5"/>
      <feColorMatrix type="matrix" values="0 0 0 0 0.88667 0 0 0 0 0.944027 0 0 0 0 0.963145 0 0 0 1 0"/>
      <feBlend mode="normal" in2="BackgroundImageFix" result="effect1_dropShadow"/>
      <feBlend mode="normal" in="SourceGraphic" in2="effect1_dropShadow" result="shape"/>
    </filter>
    <filter id="filter5_d" x="50.793" y="118.039" width="344.607" height="100.16" filterUnits="userSpaceOnUse" color-interpolation-filters="sRGB">
      <feFlood flood-opacity="0" result="BackgroundImageFix"/>
      <feColorMatrix in="SourceAlpha" type="matrix" values="0 0 0 0 0 0 0 0 0 0 0 0 0 0 0 0 0 0 127 0" result="hardAlpha"/>
      <feOffset dy="1"/>
      <feGaussianBlur stdDeviation="12.5"/>
      <feColorMatrix type="matrix" values="0 0 0 0 0.88667 0 0 0 0 0.944027 0 0 0 0 0.963145 0 0 0 1 0"/>
      <feBlend mode="normal" in2="BackgroundImageFix" result="effect1_dropShadow"/>
      <feBlend mode="normal" in="SourceGraphic" in2="effect1_dropShadow" result="shape"/>
    </filter>
    <linearGradient id="paint0_linear" x1="302.562" y1="110.042" x2="213.05" y2="47.0315" gradientUnits="userSpaceOnUse">
      <stop offset="0.317708" stop-color="#F3F9F9"/>
      <stop offset="0.927083" stop-color="#73979C"/>
    </linearGradient>
  </defs>
</svg>
