<svg width="445" height="439" viewBox="0 0 445 439" fill="none" xmlns="http://www.w3.org/2000/svg">
  <path d="M207.598 5V16.36L198.578 5H197.358V19H198.838V7.64L207.838 19H209.058V5H207.598ZM219.748 19.12C223.948 19.12 227.088 16.1 227.088 12C227.088 7.9 223.948 4.88 219.748 4.88C215.508 4.88 212.388 7.92 212.388 12C212.388 16.08 215.508 19.12 219.748 19.12ZM219.748 17.8C216.368 17.8 213.848 15.34 213.848 12C213.848 8.66 216.368 6.2 219.748 6.2C223.108 6.2 225.608 8.66 225.608 12C225.608 15.34 223.108 17.8 219.748 17.8ZM247.775 5L243.675 17.1L239.555 5H238.175L233.995 17.04L229.955 5H228.435L233.155 19H234.695L238.815 7.06L242.915 19H244.475L249.195 5H247.775Z" fill="#FF0097"/>
  <ellipse cx="223.319" cy="79.9502" rx="34.3188" ry="33.9502" fill="url(#paint0_linear)" fill-opacity="0.45"/>
  <path d="M206.713 78.8546L219.444 90.3538L241.032 68.998" stroke="white" stroke-width="4"/>
  <path d="M223.097 188.627L220.21 193.627L225.983 193.627L223.097 188.627ZM223.097 356.86L225.983 351.86L220.21 351.86L223.097 356.86ZM222.597 193.127L222.597 352.36L223.597 352.36L223.597 193.127L222.597 193.127Z" fill="#73979C"/>
  <g filter="url(#filter0_d)">
    <path fill-rule="evenodd" clip-rule="evenodd" d="M25 245.896C25 234.851 33.9543 225.896 45 225.896H105C116.046 225.896 125 234.851 125 245.896V255.896C125 266.942 116.046 275.896 105 275.896H45C33.9543 275.896 25 266.942 25 255.896V245.896Z" fill="white"/>
    <path d="M25.5 245.896C25.5 235.127 34.2304 226.396 45 226.396H105C115.77 226.396 124.5 235.127 124.5 245.896V255.896C124.5 266.666 115.77 275.396 105 275.396H45C34.2304 275.396 25.5 266.666 25.5 255.896V245.896Z" stroke="#EAF1F3"/>
  </g>
  <path d="M48.6159 256.656C50.6759 256.656 52.5159 255.956 53.7559 254.596L52.8159 253.656C51.6759 254.836 50.2759 255.336 48.6759 255.336C45.2959 255.336 42.7559 252.856 42.7559 249.536C42.7559 246.216 45.2959 243.736 48.6759 243.736C50.2759 243.736 51.6759 244.236 52.8159 245.396L53.7559 244.456C52.5159 243.096 50.6759 242.416 48.6359 242.416C44.4159 242.416 41.2959 245.436 41.2959 249.536C41.2959 253.636 44.4159 256.656 48.6159 256.656ZM61.9709 245.936C60.1909 245.936 58.8109 246.636 58.0309 247.856V241.696H56.6109V256.536H58.0309V251.016C58.0309 248.616 59.4509 247.216 61.7109 247.216C63.7109 247.216 64.8709 248.356 64.8709 250.576V256.536H66.2909V250.436C66.2909 247.416 64.5309 245.936 61.9709 245.936ZM73.8261 245.936C72.1661 245.936 70.6061 246.456 69.5461 247.356L70.1861 248.416C71.0461 247.656 72.3261 247.176 73.6861 247.176C75.6461 247.176 76.6661 248.156 76.6661 249.956V250.596H73.3261C70.3061 250.596 69.2661 251.956 69.2661 253.576C69.2661 255.396 70.7261 256.636 73.1061 256.636C74.8461 256.636 76.0861 255.976 76.7261 254.896V256.536H78.0861V250.016C78.0861 247.296 76.5461 245.936 73.8261 245.936ZM73.3261 255.516C71.6461 255.516 70.6661 254.756 70.6661 253.536C70.6661 252.456 71.3261 251.656 73.3661 251.656H76.6661V253.376C76.1061 254.756 74.9261 255.516 73.3261 255.516ZM82.663 243.716C83.263 243.716 83.703 243.256 83.703 242.676C83.703 242.136 83.243 241.696 82.663 241.696C82.083 241.696 81.623 242.156 81.623 242.696C81.623 243.256 82.083 243.716 82.663 243.716ZM81.943 256.536H83.363V246.016H81.943V256.536ZM92.674 245.936C90.854 245.936 89.434 246.676 88.674 247.956V246.016H87.314V256.536H88.734V251.016C88.734 248.616 90.154 247.216 92.414 247.216C94.414 247.216 95.574 248.356 95.574 250.576V256.536H96.994V250.436C96.994 247.416 95.234 245.936 92.674 245.936ZM104.284 242.536V243.816H107.584V256.536H109.024V242.536H104.284Z" fill="#001A34"/>
  <g filter="url(#filter1_d)">
    <path fill-rule="evenodd" clip-rule="evenodd" d="M172.304 382.554C172.304 371.508 181.258 362.554 192.304 362.554H252.304C263.349 362.554 272.304 371.508 272.304 382.554V392.554C272.304 403.599 263.349 412.554 252.304 412.554H192.304C181.258 412.554 172.304 403.599 172.304 392.554V382.554Z" fill="white"/>
    <path d="M172.804 382.554C172.804 371.784 181.534 363.054 192.304 363.054H252.304C263.073 363.054 271.804 371.784 271.804 382.554V392.554C271.804 403.323 263.073 412.054 252.304 412.054H192.304C181.534 412.054 172.804 403.323 172.804 392.554V382.554Z" stroke="#EAF1F3"/>
  </g>
  <path d="M193.888 393.312C195.948 393.312 197.788 392.612 199.028 391.252L198.088 390.312C196.948 391.492 195.548 391.992 193.948 391.992C190.568 391.992 188.028 389.512 188.028 386.192C188.028 382.872 190.568 380.392 193.948 380.392C195.548 380.392 196.948 380.892 198.088 382.052L199.028 381.112C197.788 379.752 195.948 379.072 193.908 379.072C189.688 379.072 186.568 382.092 186.568 386.192C186.568 390.292 189.688 393.312 193.888 393.312ZM207.243 382.592C205.463 382.592 204.083 383.292 203.303 384.512V378.352H201.883V393.192H203.303V387.672C203.303 385.272 204.723 383.872 206.983 383.872C208.983 383.872 210.143 385.012 210.143 387.232V393.192H211.563V387.092C211.563 384.072 209.803 382.592 207.243 382.592ZM219.099 382.592C217.439 382.592 215.879 383.112 214.819 384.012L215.459 385.072C216.319 384.312 217.599 383.832 218.959 383.832C220.919 383.832 221.939 384.812 221.939 386.612V387.252H218.599C215.579 387.252 214.539 388.612 214.539 390.232C214.539 392.052 215.999 393.292 218.379 393.292C220.119 393.292 221.359 392.632 221.999 391.552V393.192H223.359V386.672C223.359 383.952 221.819 382.592 219.099 382.592ZM218.599 392.172C216.919 392.172 215.939 391.412 215.939 390.192C215.939 389.112 216.599 388.312 218.639 388.312H221.939V390.032C221.379 391.412 220.199 392.172 218.599 392.172ZM227.935 380.372C228.535 380.372 228.975 379.912 228.975 379.332C228.975 378.792 228.515 378.352 227.935 378.352C227.355 378.352 226.895 378.812 226.895 379.352C226.895 379.912 227.355 380.372 227.935 380.372ZM227.215 393.192H228.635V382.672H227.215V393.192ZM237.947 382.592C236.127 382.592 234.707 383.332 233.947 384.612V382.672H232.587V393.192H234.007V387.672C234.007 385.272 235.427 383.872 237.687 383.872C239.687 383.872 240.847 385.012 240.847 387.232V393.192H242.267V387.092C242.267 384.072 240.507 382.592 237.947 382.592ZM255.176 385.192L259.136 380.212V379.192H250.136V380.472H257.296L253.416 385.332V386.392H254.416C257.016 386.392 258.196 387.492 258.196 389.172C258.196 390.912 256.916 391.992 254.596 391.992C252.776 391.992 251.156 391.312 250.256 390.372L249.556 391.512C250.636 392.612 252.576 393.312 254.596 393.312C257.976 393.312 259.676 391.512 259.676 389.172C259.676 386.932 258.176 385.352 255.176 385.192Z" fill="#001A34"/>
  <g filter="url(#filter2_d)">
    <path fill-rule="evenodd" clip-rule="evenodd" d="M89.1973 314.225C89.1973 303.179 98.1516 294.225 109.197 294.225H169.197C180.243 294.225 189.197 303.179 189.197 314.225V324.225C189.197 335.27 180.243 344.225 169.197 344.225H109.197C98.1516 344.225 89.1973 335.27 89.1973 324.225V314.225Z" fill="white"/>
    <path d="M89.6973 314.225C89.6973 303.455 98.4277 294.725 109.197 294.725H169.197C179.967 294.725 188.697 303.455 188.697 314.225V324.225C188.697 334.994 179.967 343.725 169.197 343.725H109.197C98.4277 343.725 89.6973 334.994 89.6973 324.225V314.225Z" stroke="#EAF1F3"/>
  </g>
  <path d="M110.742 324.984C112.802 324.984 114.642 324.284 115.882 322.924L114.942 321.984C113.802 323.164 112.402 323.664 110.802 323.664C107.422 323.664 104.882 321.184 104.882 317.864C104.882 314.544 107.422 312.064 110.802 312.064C112.402 312.064 113.802 312.564 114.942 313.724L115.882 312.784C114.642 311.424 112.802 310.744 110.762 310.744C106.542 310.744 103.422 313.764 103.422 317.864C103.422 321.964 106.542 324.984 110.742 324.984ZM124.097 314.264C122.317 314.264 120.937 314.964 120.157 316.184V310.024H118.737V324.864H120.157V319.344C120.157 316.944 121.577 315.544 123.837 315.544C125.837 315.544 126.997 316.684 126.997 318.904V324.864H128.417V318.764C128.417 315.744 126.657 314.264 124.097 314.264ZM135.952 314.264C134.292 314.264 132.732 314.784 131.672 315.684L132.312 316.744C133.172 315.984 134.452 315.504 135.812 315.504C137.772 315.504 138.792 316.484 138.792 318.284V318.924H135.452C132.432 318.924 131.392 320.284 131.392 321.904C131.392 323.724 132.852 324.964 135.232 324.964C136.972 324.964 138.212 324.304 138.852 323.224V324.864H140.212V318.344C140.212 315.624 138.672 314.264 135.952 314.264ZM135.452 323.844C133.772 323.844 132.792 323.084 132.792 321.864C132.792 320.784 133.452 319.984 135.492 319.984H138.792V321.704C138.232 323.084 137.052 323.844 135.452 323.844ZM144.789 312.044C145.389 312.044 145.829 311.584 145.829 311.004C145.829 310.464 145.369 310.024 144.789 310.024C144.209 310.024 143.749 310.484 143.749 311.024C143.749 311.584 144.209 312.044 144.789 312.044ZM144.069 324.864H145.489V314.344H144.069V324.864ZM154.8 314.264C152.98 314.264 151.56 315.004 150.8 316.284V314.344H149.44V324.864H150.86V319.344C150.86 316.944 152.28 315.544 154.54 315.544C156.54 315.544 157.7 316.684 157.7 318.904V324.864H159.12V318.764C159.12 315.744 157.36 314.264 154.8 314.264ZM169.13 323.584L173.89 318.904C175.77 317.064 176.19 315.864 176.19 314.524C176.19 312.184 174.39 310.744 171.55 310.744C169.41 310.744 167.67 311.464 166.59 312.744L167.61 313.624C168.53 312.564 169.79 312.064 171.43 312.064C173.57 312.064 174.71 313.064 174.71 314.684C174.71 315.644 174.41 316.584 172.83 318.144L167.01 323.844V324.864H176.83V323.584H169.13Z" fill="#001A34"/>
  <g filter="url(#filter3_d)">
    <path fill-rule="evenodd" clip-rule="evenodd" d="M254.416 314.225C254.416 303.179 263.37 294.225 274.416 294.225H334.416C345.462 294.225 354.416 303.179 354.416 314.225V324.225C354.416 335.27 345.462 344.225 334.416 344.225H274.416C263.37 344.225 254.416 335.27 254.416 324.225V314.225Z" fill="white"/>
    <path d="M254.916 314.225C254.916 303.455 263.646 294.725 274.416 294.725H334.416C345.186 294.725 353.916 303.455 353.916 314.225V324.225C353.916 334.994 345.186 343.725 334.416 343.725H274.416C263.646 343.725 254.916 334.994 254.916 324.225V314.225Z" stroke="#EAF1F3"/>
  </g>
  <path d="M275.034 324.984C277.094 324.984 278.934 324.284 280.174 322.924L279.234 321.984C278.094 323.164 276.694 323.664 275.094 323.664C271.714 323.664 269.174 321.184 269.174 317.864C269.174 314.544 271.714 312.064 275.094 312.064C276.694 312.064 278.094 312.564 279.234 313.724L280.174 312.784C278.934 311.424 277.094 310.744 275.054 310.744C270.834 310.744 267.714 313.764 267.714 317.864C267.714 321.964 270.834 324.984 275.034 324.984ZM288.389 314.264C286.609 314.264 285.229 314.964 284.449 316.184V310.024H283.029V324.864H284.449V319.344C284.449 316.944 285.869 315.544 288.129 315.544C290.129 315.544 291.289 316.684 291.289 318.904V324.864H292.709V318.764C292.709 315.744 290.949 314.264 288.389 314.264ZM300.244 314.264C298.584 314.264 297.024 314.784 295.964 315.684L296.604 316.744C297.464 315.984 298.744 315.504 300.104 315.504C302.064 315.504 303.084 316.484 303.084 318.284V318.924H299.744C296.724 318.924 295.684 320.284 295.684 321.904C295.684 323.724 297.144 324.964 299.524 324.964C301.264 324.964 302.504 324.304 303.144 323.224V324.864H304.504V318.344C304.504 315.624 302.964 314.264 300.244 314.264ZM299.744 323.844C298.064 323.844 297.084 323.084 297.084 321.864C297.084 320.784 297.744 319.984 299.784 319.984H303.084V321.704C302.524 323.084 301.344 323.844 299.744 323.844ZM309.081 312.044C309.681 312.044 310.121 311.584 310.121 311.004C310.121 310.464 309.661 310.024 309.081 310.024C308.501 310.024 308.041 310.484 308.041 311.024C308.041 311.584 308.501 312.044 309.081 312.044ZM308.361 324.864H309.781V314.344H308.361V324.864ZM319.092 314.264C317.272 314.264 315.852 315.004 315.092 316.284V314.344H313.732V324.864H315.152V319.344C315.152 316.944 316.572 315.544 318.832 315.544C320.832 315.544 321.992 316.684 321.992 318.904V324.864H323.412V318.764C323.412 315.744 321.652 314.264 319.092 314.264ZM343.462 319.904H340.662V316.664H339.262V319.904H333.182L340.342 310.864H338.742L331.322 320.144V321.184H339.222V324.864H340.662V321.184H343.462V319.904Z" fill="#001A34"/>
  <g filter="url(#filter4_d)">
    <path fill-rule="evenodd" clip-rule="evenodd" d="M319.608 245.896C319.608 234.851 328.563 225.896 339.608 225.896H399.608C410.654 225.896 419.608 234.851 419.608 245.896V255.896C419.608 266.942 410.654 275.896 399.608 275.896H339.608C328.563 275.896 319.608 266.942 319.608 255.896V245.896Z" fill="white"/>
    <path d="M320.108 245.896C320.108 235.127 328.839 226.396 339.608 226.396H399.608C410.378 226.396 419.108 235.127 419.108 245.896V255.896C419.108 266.666 410.378 275.396 399.608 275.396H339.608C328.839 275.396 320.108 266.666 320.108 255.896V245.896Z" stroke="#EAF1F3"/>
  </g>
  <path d="M341.174 256.656C343.234 256.656 345.074 255.956 346.314 254.596L345.374 253.656C344.234 254.836 342.834 255.336 341.234 255.336C337.854 255.336 335.314 252.856 335.314 249.536C335.314 246.216 337.854 243.736 341.234 243.736C342.834 243.736 344.234 244.236 345.374 245.396L346.314 244.456C345.074 243.096 343.234 242.416 341.194 242.416C336.974 242.416 333.854 245.436 333.854 249.536C333.854 253.636 336.974 256.656 341.174 256.656ZM354.529 245.936C352.749 245.936 351.369 246.636 350.589 247.856V241.696H349.169V256.536H350.589V251.016C350.589 248.616 352.009 247.216 354.269 247.216C356.269 247.216 357.429 248.356 357.429 250.576V256.536H358.849V250.436C358.849 247.416 357.089 245.936 354.529 245.936ZM366.384 245.936C364.724 245.936 363.164 246.456 362.104 247.356L362.744 248.416C363.604 247.656 364.884 247.176 366.244 247.176C368.204 247.176 369.224 248.156 369.224 249.956V250.596H365.884C362.864 250.596 361.824 251.956 361.824 253.576C361.824 255.396 363.284 256.636 365.664 256.636C367.404 256.636 368.644 255.976 369.284 254.896V256.536H370.644V250.016C370.644 247.296 369.104 245.936 366.384 245.936ZM365.884 255.516C364.204 255.516 363.224 254.756 363.224 253.536C363.224 252.456 363.884 251.656 365.924 251.656H369.224V253.376C368.664 254.756 367.484 255.516 365.884 255.516ZM375.221 243.716C375.821 243.716 376.261 243.256 376.261 242.676C376.261 242.136 375.801 241.696 375.221 241.696C374.641 241.696 374.181 242.156 374.181 242.696C374.181 243.256 374.641 243.716 375.221 243.716ZM374.501 256.536H375.921V246.016H374.501V256.536ZM385.232 245.936C383.412 245.936 381.992 246.676 381.232 247.956V246.016H379.872V256.536H381.292V251.016C381.292 248.616 382.712 247.216 384.972 247.216C386.972 247.216 388.132 248.356 388.132 250.576V256.536H389.552V250.436C389.552 247.416 387.792 245.936 385.232 245.936ZM401.381 248.276H399.581L400.061 243.816H406.461V242.536H398.801L398.081 249.556H401.061C404.621 249.556 405.741 250.676 405.741 252.476C405.741 254.176 404.481 255.336 402.101 255.336C400.301 255.336 398.701 254.656 397.801 253.716L397.101 254.856C398.181 255.956 400.101 256.656 402.121 256.656C405.541 256.656 407.201 254.796 407.201 252.416C407.201 249.936 405.601 248.276 401.381 248.276Z" fill="#001A34"/>
  <path d="M196.224 188.627L196.243 194.4L191.233 191.531L196.224 188.627ZM138.994 288.531L138.975 282.758L143.984 285.628L138.994 288.531ZM194.421 192.78L141.665 284.875L140.797 284.378L193.553 192.283L194.421 192.78Z" fill="#73979C"/>
  <path d="M134.018 188.109L130.91 192.975L128.25 187.851L134.018 188.109ZM75.793 218.132L78.9358 213.289L81.5587 218.433L75.793 218.132ZM98.0207 206.797L98.2511 207.241L98.2478 207.243L98.0207 206.797ZM130.254 190.627L98.2511 207.241L97.7903 206.353L129.794 189.739L130.254 190.627ZM98.2478 207.243L80.0289 216.534L79.5746 215.643L97.7935 206.352L98.2478 207.243Z" fill="#73979C"/>
  <path d="M249.97 188.627L249.955 194.4L254.963 191.527L249.97 188.627ZM308.195 290.084L308.21 284.311L303.203 287.184L308.195 290.084ZM251.777 192.779L305.522 286.43L306.389 285.932L252.644 192.281L251.777 192.779Z" fill="#73979C"/>
  <path d="M313.171 188.627L316.292 193.484L318.938 188.352L313.171 188.627ZM370.4 218.132L367.279 213.275L364.633 218.407L370.4 218.132ZM316.941 191.133L366.172 216.515L366.63 215.626L317.4 190.245L316.941 191.133Z" fill="#73979C"/>
  <g filter="url(#filter5_d)">
    <path fill-rule="evenodd" clip-rule="evenodd" d="M75.793 162.039C75.793 150.993 84.7473 142.039 95.793 142.039H350.401C361.446 142.039 370.401 150.993 370.401 162.039V164.485C370.401 175.531 361.446 184.485 350.401 184.485H95.793C84.7473 184.485 75.793 175.531 75.793 164.485V162.039Z" fill="white"/>
    <path d="M76.293 162.039C76.293 151.269 85.0234 142.539 95.793 142.539H350.401C361.17 142.539 369.901 151.27 369.901 162.039V164.485C369.901 175.255 361.17 183.985 350.401 183.985H95.793C85.0234 183.985 76.293 175.255 76.293 164.485V162.039Z" stroke="#EAF1F3"/>
  </g>
  <path d="M169.886 172.799C174.086 172.799 177.226 169.779 177.226 165.679C177.226 161.579 174.086 158.559 169.886 158.559C165.646 158.559 162.526 161.599 162.526 165.679C162.526 169.759 165.646 172.799 169.886 172.799ZM169.886 171.479C166.506 171.479 163.986 169.019 163.986 165.679C163.986 162.339 166.506 159.879 169.886 159.879C173.246 159.879 175.746 162.339 175.746 165.679C175.746 169.019 173.246 171.479 169.886 171.479ZM181.603 164.219V162.159H180.243V172.679H181.663V167.319C181.663 164.839 183.003 163.439 185.203 163.439C185.303 163.439 185.423 163.459 185.543 163.459V162.079C183.603 162.079 182.263 162.819 181.603 164.219ZM188.834 159.859C189.434 159.859 189.874 159.399 189.874 158.819C189.874 158.279 189.414 157.839 188.834 157.839C188.254 157.839 187.794 158.299 187.794 158.839C187.794 159.399 188.254 159.859 188.834 159.859ZM188.114 172.679H189.534V162.159H188.114V172.679ZM201.865 162.159V164.179C200.985 162.799 199.465 162.079 197.705 162.079C194.705 162.079 192.425 164.139 192.425 167.159C192.425 170.179 194.705 172.279 197.705 172.279C199.425 172.279 200.925 171.579 201.805 170.239V171.579C201.805 174.179 200.585 175.399 197.925 175.399C196.305 175.399 194.785 174.859 193.785 173.959L193.065 175.039C194.165 176.079 196.045 176.659 197.965 176.659C201.445 176.659 203.225 175.019 203.225 171.399V162.159H201.865ZM197.845 171.019C195.525 171.019 193.865 169.439 193.865 167.159C193.865 164.879 195.525 163.319 197.845 163.319C200.165 163.319 201.845 164.879 201.845 167.159C201.845 169.439 200.165 171.019 197.845 171.019ZM207.916 159.859C208.516 159.859 208.956 159.399 208.956 158.819C208.956 158.279 208.496 157.839 207.916 157.839C207.336 157.839 206.876 158.299 206.876 158.839C206.876 159.399 207.336 159.859 207.916 159.859ZM207.196 172.679H208.616V162.159H207.196V172.679ZM217.927 162.079C216.107 162.079 214.687 162.819 213.927 164.099V162.159H212.567V172.679H213.987V167.159C213.987 164.759 215.407 163.359 217.667 163.359C219.667 163.359 220.827 164.499 220.827 166.719V172.679H222.247V166.579C222.247 163.559 220.487 162.079 217.927 162.079ZM235.697 172.779C237.477 172.779 238.977 172.059 239.817 170.699L238.757 169.979C238.037 171.039 236.917 171.519 235.697 171.519C233.397 171.519 231.717 169.899 231.717 167.419C231.717 164.959 233.397 163.319 235.697 163.319C236.917 163.319 238.037 163.819 238.757 164.879L239.817 164.159C238.977 162.779 237.477 162.079 235.697 162.079C232.557 162.079 230.277 164.279 230.277 167.419C230.277 170.559 232.557 172.779 235.697 172.779ZM247.81 162.079C246.03 162.079 244.65 162.779 243.87 163.999V157.839H242.45V172.679H243.87V167.159C243.87 164.759 245.29 163.359 247.55 163.359C249.55 163.359 250.71 164.499 250.71 166.719V172.679H252.13V166.579C252.13 163.559 250.37 162.079 247.81 162.079ZM259.665 162.079C258.005 162.079 256.445 162.599 255.385 163.499L256.025 164.559C256.885 163.799 258.165 163.319 259.525 163.319C261.485 163.319 262.505 164.299 262.505 166.099V166.739H259.165C256.145 166.739 255.105 168.099 255.105 169.719C255.105 171.539 256.565 172.779 258.945 172.779C260.685 172.779 261.925 172.119 262.565 171.039V172.679H263.925V166.159C263.925 163.439 262.385 162.079 259.665 162.079ZM259.165 171.659C257.485 171.659 256.505 170.899 256.505 169.679C256.505 168.599 257.165 167.799 259.205 167.799H262.505V169.519C261.945 170.899 260.765 171.659 259.165 171.659ZM268.502 159.859C269.102 159.859 269.542 159.399 269.542 158.819C269.542 158.279 269.082 157.839 268.502 157.839C267.922 157.839 267.462 158.299 267.462 158.839C267.462 159.399 267.922 159.859 268.502 159.859ZM267.782 172.679H269.202V162.159H267.782V172.679ZM278.513 162.079C276.693 162.079 275.273 162.819 274.513 164.099V162.159H273.153V172.679H274.573V167.159C274.573 164.759 275.993 163.359 278.253 163.359C280.253 163.359 281.413 164.499 281.413 166.719V172.679H282.833V166.579C282.833 163.559 281.073 162.079 278.513 162.079Z" fill="#001A34"/>
  <path d="M104.159 274.555L105.729 280.111L109.756 275.973L104.159 274.555ZM119.586 289.566L118.016 284.01L113.99 288.148L119.586 289.566ZM107.036 278.051L116.012 286.786L116.71 286.07L107.733 277.335L107.036 278.051Z" fill="#73979C"/>
  <path d="M179.304 341.848L180.874 347.404L184.9 343.266L179.304 341.848ZM194.731 356.859L193.161 351.303L189.134 355.441L194.731 356.859ZM182.18 345.344L191.157 354.079L191.854 353.363L182.878 344.628L182.18 345.344Z" fill="#73979C"/>
  <path d="M344.523 274.555L342.953 280.111L338.927 275.973L344.523 274.555ZM329.096 289.566L330.667 284.01L334.693 288.148L329.096 289.566ZM341.647 278.051L332.67 286.786L331.973 286.07L340.95 277.335L341.647 278.051Z" fill="#73979C"/>
  <path d="M269.378 341.848L267.808 347.404L263.781 343.266L269.378 341.848ZM253.951 356.859L255.521 351.303L259.547 355.441L253.951 356.859ZM266.502 345.344L257.525 354.079L256.827 353.363L265.804 344.628L266.502 345.344Z" fill="#73979C"/>
  <path d="M189.754 317.519L194.754 320.405V314.632L189.754 317.519ZM256.439 317.519L251.439 314.632V320.405L256.439 317.519ZM194.254 318.019H251.939V317.019H194.254V318.019Z" fill="#73979C"/>
  <path d="M125.558 247.12L130.558 250.007L130.558 244.233L125.558 247.12ZM318.645 247.12L313.645 244.233L313.645 250.007L318.645 247.12ZM130.058 247.62L314.145 247.62L314.145 246.62L130.058 246.62L130.058 247.62Z" fill="#73979C"/>
  <defs>
    <filter id="filter0_d" x="0" y="201.896" width="150" height="100" filterUnits="userSpaceOnUse" color-interpolation-filters="sRGB">
      <feFlood flood-opacity="0" result="BackgroundImageFix"/>
      <feColorMatrix in="SourceAlpha" type="matrix" values="0 0 0 0 0 0 0 0 0 0 0 0 0 0 0 0 0 0 127 0" result="hardAlpha"/>
      <feOffset dy="1"/>
      <feGaussianBlur stdDeviation="12.5"/>
      <feColorMatrix type="matrix" values="0 0 0 0 0.88667 0 0 0 0 0.944027 0 0 0 0 0.963145 0 0 0 1 0"/>
      <feBlend mode="normal" in2="BackgroundImageFix" result="effect1_dropShadow"/>
      <feBlend mode="normal" in="SourceGraphic" in2="effect1_dropShadow" result="shape"/>
    </filter>
    <filter id="filter1_d" x="147.304" y="338.554" width="150" height="100" filterUnits="userSpaceOnUse" color-interpolation-filters="sRGB">
      <feFlood flood-opacity="0" result="BackgroundImageFix"/>
      <feColorMatrix in="SourceAlpha" type="matrix" values="0 0 0 0 0 0 0 0 0 0 0 0 0 0 0 0 0 0 127 0" result="hardAlpha"/>
      <feOffset dy="1"/>
      <feGaussianBlur stdDeviation="12.5"/>
      <feColorMatrix type="matrix" values="0 0 0 0 0.88667 0 0 0 0 0.944027 0 0 0 0 0.963145 0 0 0 1 0"/>
      <feBlend mode="normal" in2="BackgroundImageFix" result="effect1_dropShadow"/>
      <feBlend mode="normal" in="SourceGraphic" in2="effect1_dropShadow" result="shape"/>
    </filter>
    <filter id="filter2_d" x="64.1973" y="270.225" width="150" height="100" filterUnits="userSpaceOnUse" color-interpolation-filters="sRGB">
      <feFlood flood-opacity="0" result="BackgroundImageFix"/>
      <feColorMatrix in="SourceAlpha" type="matrix" values="0 0 0 0 0 0 0 0 0 0 0 0 0 0 0 0 0 0 127 0" result="hardAlpha"/>
      <feOffset dy="1"/>
      <feGaussianBlur stdDeviation="12.5"/>
      <feColorMatrix type="matrix" values="0 0 0 0 0.88667 0 0 0 0 0.944027 0 0 0 0 0.963145 0 0 0 1 0"/>
      <feBlend mode="normal" in2="BackgroundImageFix" result="effect1_dropShadow"/>
      <feBlend mode="normal" in="SourceGraphic" in2="effect1_dropShadow" result="shape"/>
    </filter>
    <filter id="filter3_d" x="229.416" y="270.225" width="150" height="100" filterUnits="userSpaceOnUse" color-interpolation-filters="sRGB">
      <feFlood flood-opacity="0" result="BackgroundImageFix"/>
      <feColorMatrix in="SourceAlpha" type="matrix" values="0 0 0 0 0 0 0 0 0 0 0 0 0 0 0 0 0 0 127 0" result="hardAlpha"/>
      <feOffset dy="1"/>
      <feGaussianBlur stdDeviation="12.5"/>
      <feColorMatrix type="matrix" values="0 0 0 0 0.88667 0 0 0 0 0.944027 0 0 0 0 0.963145 0 0 0 1 0"/>
      <feBlend mode="normal" in2="BackgroundImageFix" result="effect1_dropShadow"/>
      <feBlend mode="normal" in="SourceGraphic" in2="effect1_dropShadow" result="shape"/>
    </filter>
    <filter id="filter4_d" x="294.608" y="201.896" width="150" height="100" filterUnits="userSpaceOnUse" color-interpolation-filters="sRGB">
      <feFlood flood-opacity="0" result="BackgroundImageFix"/>
      <feColorMatrix in="SourceAlpha" type="matrix" values="0 0 0 0 0 0 0 0 0 0 0 0 0 0 0 0 0 0 127 0" result="hardAlpha"/>
      <feOffset dy="1"/>
      <feGaussianBlur stdDeviation="12.5"/>
      <feColorMatrix type="matrix" values="0 0 0 0 0.88667 0 0 0 0 0.944027 0 0 0 0 0.963145 0 0 0 1 0"/>
      <feBlend mode="normal" in2="BackgroundImageFix" result="effect1_dropShadow"/>
      <feBlend mode="normal" in="SourceGraphic" in2="effect1_dropShadow" result="shape"/>
    </filter>
    <filter id="filter5_d" x="50.793" y="118.039" width="344.607" height="92.4463" filterUnits="userSpaceOnUse" color-interpolation-filters="sRGB">
      <feFlood flood-opacity="0" result="BackgroundImageFix"/>
      <feColorMatrix in="SourceAlpha" type="matrix" values="0 0 0 0 0 0 0 0 0 0 0 0 0 0 0 0 0 0 127 0" result="hardAlpha"/>
      <feOffset dy="1"/>
      <feGaussianBlur stdDeviation="12.5"/>
      <feColorMatrix type="matrix" values="0 0 0 0 0.88667 0 0 0 0 0.944027 0 0 0 0 0.963145 0 0 0 1 0"/>
      <feBlend mode="normal" in2="BackgroundImageFix" result="effect1_dropShadow"/>
      <feBlend mode="normal" in="SourceGraphic" in2="effect1_dropShadow" result="shape"/>
    </filter>
    <linearGradient id="paint0_linear" x1="257.533" y1="114.074" x2="181.914" y2="83.4423" gradientUnits="userSpaceOnUse">
      <stop stop-color="#FF0097"/>
      <stop offset="1" stop-color="#FFA9DC"/>
    </linearGradient>
  </defs>
</svg>
