<svg width="375" height="528" viewBox="0 0 375 528" fill="none" xmlns="http://www.w3.org/2000/svg">
  <path d="M116.536 132.083L260.987 61.3745M116.536 132.083L187.712 177.589M116.536 132.083V61.3745M260.987 61.3745V132.083M260.987 61.3745L187.712 20.0693M260.987 132.083L116.536 61.3745M260.987 132.083L187.712 177.589M116.536 61.3745L187.712 20.0693M187.712 20.0693V177.589" stroke="#73979C"/>
  <path d="M167.421 144.627L166.846 146.433L167.33 148.266L165.529 147.686L163.696 148.17L164.276 146.369L163.787 144.542L165.594 145.116L167.421 144.627Z" fill="white"/>
  <circle cx="187.712" cy="95.912" r="38.5048" fill="white"/>
  <circle cx="187.712" cy="95.912" r="38.5048" fill="url(#paint0_radial)" fill-opacity="0.7"/>
  <path fill-rule="evenodd" clip-rule="evenodd" d="M170.952 71.4399C172.547 70.7635 180.074 81.3227 187.764 95.0248C195.453 108.727 200.393 120.384 198.798 121.061C197.202 121.737 189.675 111.178 181.986 97.476C174.297 83.7737 169.356 72.1172 170.952 71.4399ZM172.408 74.2809C171.411 74.7041 176.403 85.3827 183.212 97.5165C190.021 109.65 196.63 119.643 197.627 119.22C198.624 118.797 193.632 108.118 186.823 95.9846C180.014 83.8508 173.405 73.858 172.408 74.2809Z" fill="white"/>
  <path fill-rule="evenodd" clip-rule="evenodd" d="M170.683 72.0597C170.909 71.965 171.642 72.8446 172.731 74.4285C172.621 74.3719 172.533 74.3563 172.468 74.3833C171.462 74.8047 176.498 85.4327 183.367 97.5088C189.705 108.652 195.871 117.98 197.577 119.025C198.009 120.097 198.173 120.73 197.999 120.803C196.389 121.477 189.887 111.106 182.13 97.4685C174.373 83.8315 169.073 72.7336 170.683 72.0597Z" fill="white"/>
  <path fill-rule="evenodd" clip-rule="evenodd" d="M199.877 92.3131C195.661 92.1314 192.324 90.6942 189.867 88.0017C186.18 83.9627 185.784 80.9583 185.784 80.6029C185.784 80.1971 186.854 80.9499 188.16 81.8686C189.227 82.6195 190.452 83.4812 191.379 83.9118C192.902 84.6194 197.808 86.0109 202.721 87.4044L202.722 87.4045C204.457 87.8966 206.193 88.3891 207.781 88.8517C211.989 90.0775 212.291 92.8292 212.291 94.2034C212.291 96.0485 210.641 97.3093 209.099 97.5536C207.725 97.7711 205.266 99.0936 205.463 101.119C207.19 102.588 208.732 104.108 209.814 105.493C211.333 106.694 212.395 108.021 211.161 109.721C211.155 109.728 211.15 109.736 211.144 109.744C211.141 109.749 211.137 109.754 211.133 109.759C209.968 111.326 207.082 109.602 204.542 108.085C203.012 107.171 201.608 106.332 200.78 106.332C200.253 106.332 199.644 106.367 198.967 106.406H198.967C196.816 106.531 193.983 106.695 190.939 105.891C189.515 105.515 188.289 104.845 187.241 104.139C186.598 104.04 185.331 102.871 184.746 102.332C184.578 102.176 184.466 102.073 184.442 102.063C183.605 101.712 182.814 101.649 182.571 101.645C182.486 101.643 182.403 101.647 182.322 101.657C182.08 101.758 181.83 101.891 181.55 102.041C180.733 102.479 179.654 103.055 177.749 103.369C177.727 103.372 177.705 103.376 177.683 103.379C177.542 103.4 177.401 103.416 177.259 103.428C177.206 103.436 177.153 103.444 177.1 103.452C176.825 103.492 176.551 103.483 176.28 103.434C174.446 103.322 172.621 102.563 171.314 102.021C170.554 101.704 169.969 101.461 169.66 101.461C169.102 101.461 169.093 101.636 169.057 102.306C169.029 102.815 168.986 103.608 168.677 104.827C167.959 107.651 164.324 109.371 162.614 106.972C160.905 104.574 166.194 97.4483 166.614 97.0339C167.035 96.6196 168.299 95.4764 169.294 96.1752C170.057 96.7108 170.673 97.0815 171.418 96.9958C171.453 96.8798 171.515 96.798 171.606 96.7578C171.92 96.6197 172.137 96.0437 172.421 95.2873C173.147 93.3578 174.313 90.2548 178.666 90.2548C178.734 90.2548 178.801 90.255 178.866 90.2554C178.96 90.2548 179.057 90.2558 179.154 90.2586C179.762 90.2687 180.255 90.2986 180.678 90.3483C180.781 90.3604 180.989 90.389 181.245 90.4541C183.666 90.8175 185.675 91.595 187.579 92.3318C189.533 93.0881 191.376 93.8014 193.44 93.9796C196.499 94.2437 198.645 93.6881 199.877 92.3131ZM208.579 92.6725C208.853 92.8759 209.104 93.0147 209.331 93.089C208.931 93.3648 208.458 93.4463 207.911 93.3335C207.091 93.1644 206.912 92.7007 206.796 92.386C206.724 92.1919 206.282 91.9895 206.005 91.8627C205.833 91.7839 205.724 91.7343 205.809 91.7343C205.873 91.7343 205.994 91.7197 206.147 91.7012C206.522 91.6558 207.093 91.5868 207.51 91.6501C207.87 91.7046 208.035 91.9605 208.203 92.2208C208.31 92.3864 208.418 92.5539 208.579 92.6725Z" fill="white"/>
  <circle cx="187.767" cy="20.3578" r="20.3578" fill="white"/>
  <circle cx="187.767" cy="20.3578" r="20.3578" fill="url(#paint1_radial)" fill-opacity="0.7"/>
  <path fill-rule="evenodd" clip-rule="evenodd" d="M180.242 8.84914C180.978 8.53744 184.446 13.403 187.989 19.7168C191.532 26.0306 193.809 31.4018 193.074 31.7139C192.338 32.0256 188.87 27.1601 185.327 20.8463C181.784 14.5324 179.507 9.16122 180.242 8.84914ZM180.913 10.1582C180.454 10.3532 182.754 15.2738 185.892 20.865C189.029 26.4561 192.075 31.0606 192.534 30.8658C192.994 30.6708 190.693 25.7502 187.556 20.1591C184.418 14.5679 181.373 9.96337 180.913 10.1582Z" fill="white"/>
  <path fill-rule="evenodd" clip-rule="evenodd" d="M180.118 9.13503C180.223 9.09143 180.56 9.49671 181.062 10.2266C181.011 10.2005 180.971 10.1933 180.941 10.2057C180.477 10.3999 182.798 15.2972 185.963 20.8617C188.883 25.9962 191.725 30.2946 192.511 30.776C192.71 31.2701 192.785 31.562 192.705 31.5955C191.963 31.906 188.967 27.127 185.393 20.8432C181.818 14.5594 179.377 9.44557 180.118 9.13503Z" fill="white"/>
  <path fill-rule="evenodd" clip-rule="evenodd" d="M193.57 18.4674C191.628 18.3837 190.09 17.7214 188.958 16.4807C187.259 14.6196 187.077 13.2352 187.077 13.0714C187.077 12.8844 187.57 13.2313 188.171 13.6547C188.663 14.0007 189.228 14.3977 189.655 14.5961C190.357 14.9222 192.617 15.5634 194.881 16.2055C195.681 16.4323 196.481 16.6592 197.213 16.8724C199.152 17.4372 199.291 18.7052 199.291 19.3384C199.291 20.1886 198.531 20.7696 197.82 20.8821C197.187 20.9824 196.054 21.5918 196.145 22.5249C196.94 23.2019 197.651 23.9025 198.15 24.5408C198.851 25.095 199.34 25.7074 198.767 26.492L198.757 26.506C198.22 27.2281 196.891 26.4339 195.72 25.7347C195.015 25.3136 194.368 24.927 193.986 24.927C193.744 24.927 193.463 24.9432 193.151 24.9612L193.151 24.9612C192.16 25.0186 190.854 25.0941 189.452 24.7237C188.796 24.5504 188.23 24.2418 187.748 23.9163C187.451 23.8705 186.868 23.3321 186.599 23.0836C186.521 23.0119 186.469 22.9643 186.458 22.9597C186.073 22.7979 185.708 22.7692 185.596 22.7671C185.557 22.7664 185.519 22.7683 185.482 22.7726C185.37 22.8191 185.255 22.8807 185.126 22.9498C184.749 23.1514 184.252 23.4173 183.374 23.5616L183.349 23.5655C183.282 23.5759 183.214 23.5837 183.146 23.5891C183.122 23.5927 183.099 23.5963 183.075 23.5998C182.949 23.6181 182.824 23.6144 182.699 23.5919C181.853 23.5406 181.012 23.1908 180.409 22.9405C180.059 22.7948 179.789 22.6828 179.647 22.6828C179.39 22.6828 179.385 22.7634 179.369 23.0722C179.356 23.3064 179.336 23.6721 179.194 24.2336C178.863 25.535 177.188 26.3275 176.4 25.2222C175.613 24.1169 178.05 20.8336 178.244 20.6427C178.437 20.4518 179.02 19.925 179.478 20.247C179.83 20.4938 180.114 20.6646 180.457 20.6251C180.473 20.5715 180.502 20.5338 180.544 20.5153C180.688 20.4516 180.788 20.1862 180.919 19.8377C181.254 18.9486 181.791 17.5187 183.797 17.5187C183.835 17.5187 183.872 17.5189 183.909 17.5191C183.939 17.5191 183.97 17.5194 184.001 17.5202C184.291 17.5245 184.524 17.5383 184.724 17.5618C184.772 17.5674 184.868 17.5807 184.987 17.6111C186.102 17.7787 187.027 18.1367 187.904 18.476C188.804 18.8245 189.654 19.1532 190.605 19.2353C192.014 19.357 193.003 19.101 193.57 18.4674ZM197.58 18.6328C197.707 18.7266 197.822 18.7905 197.927 18.8248C197.743 18.9519 197.525 18.9894 197.273 18.9374C196.895 18.8595 196.812 18.6459 196.759 18.5008C196.726 18.4114 196.522 18.3181 196.394 18.2597C196.315 18.2234 196.265 18.2005 196.304 18.2005C196.334 18.2005 196.389 18.1938 196.46 18.1853C196.633 18.1643 196.896 18.1325 197.088 18.1617C197.254 18.1868 197.33 18.3047 197.407 18.4247C197.457 18.501 197.507 18.5782 197.58 18.6328Z" fill="white"/>
  <circle cx="187.767" cy="171.577" r="20.3578" fill="white"/>
  <circle cx="187.767" cy="171.577" r="20.3578" fill="url(#paint2_radial)" fill-opacity="0.7"/>
  <path fill-rule="evenodd" clip-rule="evenodd" d="M180.242 160.068C180.978 159.756 184.446 164.622 187.989 170.936C191.532 177.249 193.809 182.621 193.074 182.933C192.338 183.244 188.87 178.379 185.327 172.065C181.784 165.751 179.507 160.38 180.242 160.068ZM180.913 161.377C180.454 161.572 182.754 166.493 185.892 172.084C189.029 177.675 192.075 182.279 192.534 182.085C192.994 181.89 190.693 176.969 187.556 171.378C184.418 165.787 181.373 161.182 180.913 161.377Z" fill="white"/>
  <path fill-rule="evenodd" clip-rule="evenodd" d="M180.118 160.354C180.223 160.31 180.56 160.715 181.062 161.445C181.011 161.419 180.971 161.412 180.941 161.424C180.477 161.619 182.798 166.516 185.963 172.08C188.883 177.215 191.725 181.513 192.511 181.995C192.71 182.489 192.785 182.781 192.705 182.814C191.963 183.125 188.967 178.346 185.393 172.062C181.818 165.778 179.377 160.664 180.118 160.354Z" fill="white"/>
  <path fill-rule="evenodd" clip-rule="evenodd" d="M193.57 169.686C191.628 169.602 190.09 168.94 188.958 167.699C187.259 165.838 187.077 164.454 187.077 164.29C187.077 164.103 187.57 164.45 188.171 164.873C188.663 165.219 189.228 165.616 189.655 165.815C190.357 166.141 192.617 166.782 194.881 167.424C195.681 167.651 196.481 167.878 197.213 168.091C199.152 168.656 199.291 169.924 199.291 170.557C199.291 171.407 198.531 171.988 197.82 172.101C197.187 172.201 196.054 172.811 196.145 173.744C196.94 174.421 197.651 175.121 198.149 175.759C198.85 176.313 199.339 176.925 198.769 177.709L198.757 177.725C198.22 178.447 196.891 177.653 195.72 176.954C195.015 176.532 194.368 176.146 193.986 176.146C193.744 176.146 193.463 176.162 193.151 176.18L193.151 176.18C192.16 176.237 190.854 176.313 189.452 175.943C188.796 175.769 188.23 175.461 187.748 175.135C187.451 175.089 186.868 174.551 186.599 174.302C186.521 174.231 186.469 174.183 186.458 174.179C186.073 174.017 185.708 173.988 185.596 173.986C185.557 173.985 185.519 173.987 185.482 173.991C185.37 174.038 185.255 174.1 185.126 174.169C184.749 174.37 184.252 174.636 183.374 174.78C183.364 174.782 183.354 174.784 183.344 174.785C183.279 174.795 183.213 174.803 183.147 174.808C183.123 174.811 183.099 174.815 183.075 174.819C182.949 174.837 182.823 174.833 182.699 174.811C181.853 174.759 181.011 174.41 180.409 174.159C180.059 174.014 179.789 173.902 179.647 173.902C179.39 173.902 179.385 173.982 179.369 174.291C179.356 174.525 179.336 174.891 179.194 175.452C178.863 176.754 177.188 177.546 176.4 176.441C175.613 175.336 178.05 172.052 178.244 171.861C178.437 171.671 179.02 171.144 179.478 171.466C179.83 171.713 180.114 171.883 180.457 171.844C180.473 171.79 180.502 171.753 180.544 171.734C180.688 171.67 180.788 171.405 180.919 171.056C181.254 170.167 181.791 168.738 183.797 168.738C183.832 168.738 183.867 168.738 183.901 168.738C183.937 168.738 183.972 168.738 184.009 168.739C184.295 168.744 184.526 168.757 184.724 168.781C184.772 168.786 184.868 168.799 184.986 168.83C186.102 168.997 187.027 169.355 187.904 169.695C188.804 170.043 189.654 170.372 190.605 170.454C192.014 170.576 193.003 170.32 193.57 169.686ZM197.58 169.852C197.707 169.945 197.822 170.009 197.927 170.044C197.743 170.171 197.525 170.208 197.273 170.156C196.895 170.078 196.812 169.865 196.759 169.72C196.726 169.63 196.522 169.537 196.394 169.479C196.315 169.442 196.265 169.419 196.304 169.419C196.334 169.419 196.389 169.413 196.46 169.404C196.633 169.383 196.896 169.351 197.088 169.381C197.254 169.406 197.33 169.524 197.407 169.644C197.457 169.72 197.507 169.797 197.58 169.852Z" fill="white"/>
  <circle cx="116.358" cy="130.505" r="20.3578" fill="white"/>
  <circle cx="116.358" cy="130.505" r="20.3578" fill="url(#paint3_radial)" fill-opacity="0.7"/>
  <path fill-rule="evenodd" clip-rule="evenodd" d="M108.831 118.997C109.567 118.685 113.035 123.55 116.578 129.864C120.121 136.178 122.398 141.549 121.663 141.861C120.927 142.173 117.459 137.308 113.916 130.994C110.373 124.68 108.096 119.309 108.831 118.997ZM109.502 120.306C109.043 120.501 111.343 125.421 114.481 131.012C117.618 136.604 120.663 141.208 121.123 141.013C121.582 140.818 119.282 135.898 116.145 130.307C113.007 124.715 109.962 120.111 109.502 120.306Z" fill="white"/>
  <path fill-rule="evenodd" clip-rule="evenodd" d="M108.708 119.282C108.812 119.239 109.15 119.644 109.652 120.374C109.601 120.348 109.561 120.341 109.531 120.353C109.067 120.547 111.387 125.445 114.553 131.009C117.473 136.144 120.314 140.442 121.1 140.923C121.3 141.418 121.375 141.709 121.295 141.743C120.553 142.053 117.557 137.274 113.983 130.991C110.408 124.707 107.966 119.593 108.708 119.282Z" fill="white"/>
  <path fill-rule="evenodd" clip-rule="evenodd" d="M122.16 128.615C120.218 128.531 118.68 127.869 117.548 126.628C115.849 124.767 115.666 123.383 115.666 123.219C115.666 123.032 116.16 123.379 116.761 123.802C117.253 124.148 117.818 124.545 118.245 124.744C118.947 125.07 121.207 125.711 123.471 126.353C124.271 126.58 125.071 126.807 125.802 127.02C127.742 127.585 127.881 128.853 127.881 129.486C127.881 130.336 127.12 130.917 126.41 131.03C125.777 131.13 124.643 131.739 124.734 132.672C125.53 133.349 126.241 134.05 126.739 134.688C127.441 135.242 127.93 135.855 127.357 136.64L127.347 136.654C126.81 137.376 125.48 136.581 124.31 135.882C123.605 135.461 122.958 135.074 122.576 135.074C122.333 135.074 122.053 135.091 121.741 135.109L121.741 135.109C120.75 135.166 119.444 135.242 118.042 134.871C117.385 134.698 116.821 134.39 116.338 134.064C116.042 134.019 115.458 133.48 115.188 133.231C115.111 133.16 115.059 133.112 115.048 133.107C114.662 132.946 114.298 132.917 114.186 132.915C114.147 132.914 114.108 132.916 114.071 132.92C113.96 132.967 113.845 133.028 113.716 133.097C113.339 133.299 112.842 133.565 111.964 133.709C111.955 133.711 111.946 133.712 111.936 133.713C111.871 133.723 111.805 133.731 111.738 133.736C111.714 133.74 111.69 133.744 111.665 133.747C111.538 133.766 111.412 133.762 111.287 133.739C110.442 133.688 109.601 133.338 108.999 133.088C108.648 132.942 108.379 132.83 108.237 132.83C107.98 132.83 107.975 132.911 107.959 133.22C107.946 133.454 107.926 133.82 107.784 134.381C107.453 135.682 105.778 136.475 104.99 135.37C104.203 134.264 106.639 130.981 106.833 130.79C107.027 130.599 107.61 130.072 108.068 130.394C108.42 130.641 108.704 130.812 109.047 130.773C109.063 130.719 109.091 130.681 109.133 130.663C109.278 130.599 109.378 130.334 109.509 129.985C109.843 129.096 110.381 127.666 112.387 127.666C112.417 127.666 112.448 127.667 112.477 127.667C112.522 127.666 112.567 127.667 112.613 127.668C112.892 127.673 113.119 127.687 113.314 127.709C113.361 127.715 113.457 127.728 113.575 127.758C114.691 127.926 115.616 128.284 116.494 128.623C117.394 128.972 118.243 129.301 119.195 129.383C120.604 129.504 121.593 129.248 122.16 128.615ZM126.17 128.78C126.296 128.874 126.412 128.938 126.517 128.972C126.333 129.099 126.114 129.137 125.862 129.085C125.484 129.007 125.402 128.793 125.349 128.648C125.316 128.559 125.112 128.466 124.984 128.407C124.905 128.371 124.855 128.348 124.894 128.348C124.924 128.348 124.979 128.341 125.05 128.333C125.223 128.312 125.485 128.28 125.678 128.309C125.843 128.334 125.92 128.452 125.997 128.572C126.046 128.649 126.096 128.726 126.17 128.78Z" fill="white"/>
  <circle cx="259.642" cy="130.505" r="20.3578" fill="white"/>
  <circle cx="259.642" cy="130.505" r="20.3578" fill="url(#paint4_radial)" fill-opacity="0.7"/>
  <path fill-rule="evenodd" clip-rule="evenodd" d="M252.115 118.997C252.851 118.685 256.319 123.55 259.862 129.864C263.406 136.178 265.682 141.549 264.947 141.861C264.212 142.173 260.743 137.308 257.2 130.994C253.657 124.68 251.38 119.309 252.115 118.997ZM252.786 120.306C252.327 120.501 254.627 125.421 257.765 131.012C260.902 136.604 263.948 141.208 264.407 141.013C264.867 140.818 262.566 135.898 259.429 130.307C256.291 124.715 253.246 120.111 252.786 120.306Z" fill="white"/>
  <path fill-rule="evenodd" clip-rule="evenodd" d="M251.992 119.282C252.097 119.239 252.434 119.644 252.936 120.374C252.885 120.348 252.845 120.341 252.815 120.353C252.351 120.547 254.672 125.445 257.837 131.009C260.757 136.144 263.599 140.442 264.385 140.923C264.584 141.418 264.659 141.709 264.579 141.743C263.837 142.053 260.841 137.274 257.267 130.991C253.692 124.707 251.251 119.593 251.992 119.282Z" fill="white"/>
  <path fill-rule="evenodd" clip-rule="evenodd" d="M265.444 128.615C263.502 128.531 261.964 127.869 260.832 126.628C259.133 124.767 258.951 123.383 258.951 123.219C258.951 123.032 259.444 123.379 260.045 123.802C260.537 124.148 261.102 124.545 261.529 124.744C262.231 125.07 264.491 125.711 266.755 126.353C267.555 126.58 268.355 126.807 269.087 127.02C271.026 127.585 271.165 128.853 271.165 129.486C271.165 130.336 270.405 130.917 269.694 131.03C269.061 131.13 267.928 131.739 268.019 132.672C268.814 133.349 269.525 134.05 270.023 134.688C270.726 135.244 271.216 135.857 270.638 136.645L270.631 136.653C270.094 137.376 268.765 136.581 267.594 135.882C266.889 135.461 266.242 135.074 265.86 135.074C265.618 135.074 265.337 135.091 265.025 135.109L265.025 135.109C264.034 135.166 262.728 135.242 261.326 134.871C260.67 134.698 260.105 134.389 259.622 134.064C259.326 134.019 258.742 133.48 258.472 133.231C258.395 133.159 258.343 133.112 258.332 133.107C257.946 132.946 257.582 132.917 257.47 132.915C257.431 132.914 257.393 132.916 257.355 132.92C257.244 132.967 257.129 133.028 257 133.097C256.623 133.299 256.126 133.565 255.248 133.709L255.225 133.713C255.158 133.723 255.09 133.731 255.021 133.736C254.998 133.74 254.973 133.744 254.949 133.747C254.822 133.766 254.696 133.762 254.571 133.739C253.726 133.688 252.885 133.338 252.283 133.088C251.933 132.942 251.663 132.83 251.521 132.83C251.264 132.83 251.26 132.911 251.243 133.22C251.23 133.454 251.21 133.82 251.068 134.381C250.737 135.682 249.062 136.475 248.274 135.37C247.487 134.264 249.924 130.981 250.118 130.79C250.311 130.599 250.894 130.072 251.352 130.394C251.704 130.641 251.988 130.812 252.331 130.773C252.347 130.719 252.375 130.681 252.417 130.663C252.562 130.599 252.662 130.334 252.793 129.985C253.127 129.096 253.665 127.666 255.671 127.666C255.703 127.666 255.735 127.666 255.766 127.667C255.808 127.666 255.85 127.667 255.893 127.668C256.174 127.673 256.402 127.686 256.598 127.709C256.645 127.715 256.741 127.728 256.859 127.758C257.975 127.926 258.901 128.284 259.778 128.623C260.678 128.972 261.528 129.301 262.479 129.383C263.888 129.504 264.877 129.248 265.444 128.615ZM269.454 128.78C269.581 128.874 269.696 128.938 269.801 128.972C269.617 129.099 269.399 129.137 269.147 129.085C268.769 129.007 268.686 128.793 268.633 128.648C268.6 128.559 268.396 128.466 268.268 128.407C268.189 128.371 268.139 128.348 268.178 128.348C268.208 128.348 268.263 128.341 268.334 128.333C268.507 128.312 268.769 128.28 268.962 128.309C269.128 128.334 269.204 128.452 269.281 128.572C269.331 128.648 269.38 128.726 269.454 128.78Z" fill="white"/>
  <circle cx="116.358" cy="60.9623" r="20.3578" fill="white"/>
  <circle cx="116.358" cy="60.9623" r="20.3578" fill="url(#paint5_radial)" fill-opacity="0.7"/>
  <path fill-rule="evenodd" clip-rule="evenodd" d="M108.831 49.4536C109.567 49.1419 113.035 54.0075 116.578 60.3213C120.121 66.6351 122.398 72.0063 121.663 72.3184C120.927 72.6301 117.459 67.7646 113.916 61.4508C110.373 55.1369 108.096 49.7657 108.831 49.4536ZM109.502 50.7627C109.043 50.9577 111.343 55.8783 114.481 61.4694C117.618 67.0606 120.663 71.6651 121.123 71.4703C121.582 71.2752 119.282 66.3547 116.145 60.7635C113.007 55.1724 109.962 50.5679 109.502 50.7627Z" fill="white"/>
  <path fill-rule="evenodd" clip-rule="evenodd" d="M108.708 49.7395C108.812 49.6959 109.15 50.1012 109.652 50.831C109.601 50.805 109.561 50.7978 109.531 50.8102C109.067 51.0044 111.387 55.9017 114.553 61.4662C117.473 66.6007 120.314 70.8991 121.1 71.3805C121.3 71.8746 121.375 72.1665 121.295 72.2C120.553 72.5105 117.557 67.7315 113.983 61.4477C110.408 55.1639 107.966 50.0501 108.708 49.7395Z" fill="white"/>
  <path fill-rule="evenodd" clip-rule="evenodd" d="M122.16 59.0719C120.218 58.9882 118.68 58.3259 117.548 57.0852C115.849 55.2241 115.666 53.8397 115.666 53.6759C115.666 53.4889 116.16 53.8358 116.761 54.2592C117.253 54.6052 117.818 55.0022 118.245 55.2006C118.947 55.5267 121.207 56.1679 123.471 56.81C124.271 57.0368 125.071 57.2637 125.802 57.4769C127.742 58.0417 127.881 59.3097 127.881 59.9429C127.881 60.7931 127.12 61.3741 126.41 61.4866C125.777 61.5869 124.643 62.1964 124.734 63.1296C125.53 63.8064 126.24 64.5067 126.739 65.1449C127.439 65.6986 127.929 66.3103 127.359 67.0937C127.355 67.0994 127.351 67.1051 127.347 67.1107C126.81 67.8328 125.48 67.0385 124.31 66.3394C123.605 65.9183 122.958 65.5316 122.576 65.5316C122.333 65.5316 122.053 65.5479 121.741 65.5659L121.741 65.5659C120.75 65.6233 119.444 65.6988 118.042 65.3284C117.385 65.1551 116.82 64.8465 116.338 64.521C116.041 64.4752 115.458 63.9368 115.188 63.6883C115.111 63.6165 115.059 63.569 115.048 63.5644C114.662 63.4026 114.298 63.3739 114.186 63.3718C114.147 63.3711 114.109 63.373 114.071 63.3773C113.96 63.4238 113.845 63.4854 113.716 63.5545C113.339 63.7561 112.842 64.0219 111.964 64.1663C111.952 64.1682 111.94 64.17 111.928 64.1716C111.865 64.1811 111.802 64.1883 111.738 64.1934C111.714 64.1972 111.689 64.2008 111.665 64.2044C111.538 64.2228 111.412 64.219 111.288 64.1963C110.442 64.1447 109.601 63.7952 108.999 63.545C108.648 63.3993 108.379 63.2873 108.237 63.2873C107.98 63.2873 107.975 63.3679 107.959 63.6767C107.946 63.9109 107.926 64.2766 107.784 64.8381C107.453 66.1395 105.778 66.932 104.99 65.8267C104.203 64.7214 106.639 61.4381 106.833 61.2472C107.027 61.0563 107.61 60.5295 108.068 60.8515C108.42 61.0983 108.704 61.2691 109.047 61.2296C109.063 61.1761 109.091 61.1384 109.133 61.1199C109.278 61.0563 109.378 60.7909 109.509 60.4423C109.843 59.5532 110.381 58.1234 112.387 58.1234C112.419 58.1234 112.45 58.1235 112.481 58.1237C112.523 58.1234 112.566 58.1239 112.609 58.1251C112.89 58.1297 113.118 58.1435 113.314 58.1665C113.361 58.1721 113.457 58.1853 113.575 58.2153C114.691 58.3828 115.617 58.741 116.494 59.0805C117.394 59.429 118.243 59.7577 119.195 59.8398C120.604 59.9615 121.593 59.7055 122.16 59.0719ZM126.17 59.2375C126.296 59.3312 126.412 59.3952 126.517 59.4294C126.333 59.5565 126.114 59.5941 125.862 59.5421C125.484 59.4642 125.402 59.2505 125.349 59.1055C125.316 59.0161 125.112 58.9228 124.984 58.8644C124.905 58.828 124.855 58.8052 124.894 58.8052C124.924 58.8052 124.979 58.7985 125.05 58.7899C125.223 58.769 125.485 58.7372 125.678 58.7664C125.843 58.7915 125.92 58.9094 125.997 59.0294C126.046 59.1057 126.096 59.1828 126.17 59.2375Z" fill="white"/>
  <circle cx="259.642" cy="60.9623" r="20.3578" fill="white"/>
  <circle cx="259.642" cy="60.9623" r="20.3578" fill="url(#paint6_radial)" fill-opacity="0.7"/>
  <path fill-rule="evenodd" clip-rule="evenodd" d="M252.117 49.4536C252.853 49.1419 256.321 54.0075 259.864 60.3213C263.407 66.6351 265.684 72.0063 264.949 72.3184C264.213 72.6301 260.745 67.7646 257.202 61.4508C253.659 55.1369 251.382 49.7657 252.117 49.4536ZM252.788 50.7627C252.329 50.9577 254.629 55.8783 257.767 61.4694C260.904 67.0606 263.95 71.6651 264.409 71.4703C264.869 71.2752 262.568 66.3547 259.431 60.7635C256.293 55.1724 253.248 50.5679 252.788 50.7627Z" fill="white"/>
  <path fill-rule="evenodd" clip-rule="evenodd" d="M251.993 49.7395C252.098 49.6959 252.435 50.1012 252.937 50.831C252.886 50.805 252.846 50.7978 252.816 50.8102C252.352 51.0044 254.673 55.9017 257.838 61.4662C260.758 66.6007 263.6 70.8991 264.386 71.3805C264.585 71.8746 264.66 72.1665 264.58 72.2C263.838 72.5105 260.842 67.7315 257.268 61.4477C253.693 55.1639 251.252 50.0501 251.993 49.7395Z" fill="white"/>
  <path fill-rule="evenodd" clip-rule="evenodd" d="M265.445 59.0719C263.503 58.9882 261.965 58.3259 260.833 57.0852C259.134 55.2241 258.952 53.8397 258.952 53.6759C258.952 53.4889 259.445 53.8358 260.046 54.2592C260.538 54.6052 261.103 55.0022 261.53 55.2006C262.232 55.5267 264.492 56.1679 266.756 56.81C267.556 57.0368 268.356 57.2637 269.088 57.4769C271.027 58.0417 271.166 59.3097 271.166 59.9429C271.166 60.7931 270.406 61.3741 269.695 61.4866C269.062 61.5869 267.928 62.1963 268.02 63.1295C268.815 63.8064 269.526 64.5069 270.024 65.1451C270.724 65.6981 271.213 66.309 270.646 67.091C270.642 67.0976 270.637 67.1042 270.632 67.1107C270.095 67.8328 268.766 67.0385 267.595 66.3394C266.89 65.9183 266.243 65.5316 265.862 65.5316C265.619 65.5316 265.338 65.5479 265.026 65.5659L265.026 65.5659C264.035 65.6233 262.73 65.6988 261.327 65.3284C260.671 65.1551 260.106 64.8465 259.623 64.521C259.327 64.4754 258.743 63.9368 258.474 63.6883C258.396 63.6165 258.344 63.569 258.333 63.5644C257.948 63.4026 257.583 63.3739 257.471 63.3718C257.432 63.3711 257.394 63.373 257.357 63.3773C257.245 63.4238 257.13 63.4854 257.001 63.5545C256.624 63.7561 256.127 64.0219 255.249 64.1663C255.237 64.1683 255.225 64.1701 255.213 64.1717C255.15 64.1811 255.086 64.1883 255.023 64.1934C254.999 64.1972 254.975 64.2008 254.95 64.2044C254.824 64.2229 254.697 64.219 254.573 64.1963C253.727 64.1447 252.886 63.7951 252.284 63.545C251.934 63.3993 251.664 63.2873 251.522 63.2873C251.265 63.2873 251.26 63.3679 251.244 63.6767C251.231 63.9109 251.211 64.2766 251.069 64.8381C250.738 66.1395 249.063 66.932 248.275 65.8267C247.488 64.7214 249.925 61.4381 250.119 61.2472C250.312 61.0563 250.895 60.5295 251.353 60.8515C251.705 61.0983 251.989 61.2691 252.332 61.2296C252.348 61.1761 252.376 61.1384 252.419 61.1199C252.563 61.0563 252.663 60.7909 252.794 60.4423C253.128 59.5532 253.666 58.1234 255.672 58.1234C255.704 58.1234 255.736 58.1235 255.767 58.1237C255.808 58.1234 255.851 58.1239 255.894 58.1251C256.175 58.1297 256.403 58.1435 256.599 58.1665C256.646 58.1721 256.742 58.1853 256.86 58.2153C257.976 58.3828 258.902 58.741 259.779 59.0805C260.679 59.429 261.529 59.7577 262.48 59.8398C263.889 59.9615 264.878 59.7055 265.445 59.0719ZM269.455 59.2375C269.582 59.3312 269.697 59.3952 269.802 59.4294C269.618 59.5565 269.4 59.5941 269.148 59.5421C268.77 59.4642 268.687 59.2505 268.634 59.1055C268.601 59.0161 268.397 58.9228 268.269 58.8644C268.19 58.828 268.14 58.8052 268.179 58.8052C268.209 58.8052 268.264 58.7985 268.335 58.7899C268.508 58.769 268.771 58.7372 268.963 58.7664C269.129 58.7915 269.205 58.9094 269.282 59.0294C269.332 59.1057 269.381 59.1828 269.455 59.2375Z" fill="white"/>
  <g filter="url(#filter0_d)">
    <path fill-rule="evenodd" clip-rule="evenodd" d="M24 290C24 278.954 32.9543 270 44 270H140C151.046 270 160 278.954 160 290V385C160 396.046 151.046 405 140 405H44C32.9543 405 24 396.046 24 385V290Z" fill="white"/>
    <path d="M24.5 290C24.5 279.23 33.2304 270.5 44 270.5H140C150.77 270.5 159.5 279.23 159.5 290V385C159.5 395.77 150.77 404.5 140 404.5H44C33.2305 404.5 24.5 395.77 24.5 385V290Z" stroke="#EAF1F3"/>
  </g>
  <path d="M53.6412 296H62.5692V294.02H55.9812V283.4H53.6412V296ZM68.4327 296.126C71.4207 296.126 73.5627 294.074 73.5627 291.194C73.5627 288.314 71.4207 286.28 68.4327 286.28C65.4807 286.28 63.3207 288.314 63.3207 291.194C63.3207 294.074 65.4807 296.126 68.4327 296.126ZM68.4327 294.2C66.8127 294.2 65.5887 293.03 65.5887 291.194C65.5887 289.358 66.8127 288.188 68.4327 288.188C70.0707 288.188 71.2947 289.358 71.2947 291.194C71.2947 293.03 70.0707 294.2 68.4327 294.2ZM80.1243 296.126C81.9963 296.126 83.4903 295.316 84.2283 293.876L82.5003 292.868C81.9243 293.786 81.0603 294.2 80.1063 294.2C78.4503 294.2 77.1903 293.066 77.1903 291.194C77.1903 289.34 78.4503 288.188 80.1063 288.188C81.0603 288.188 81.9243 288.602 82.5003 289.52L84.2283 288.512C83.4903 287.054 81.9963 286.28 80.1243 286.28C77.0823 286.28 74.9223 288.314 74.9223 291.194C74.9223 294.074 77.0823 296.126 80.1243 296.126ZM93.3394 296H96.0754L91.6834 290.42L95.6974 286.388H92.9974L88.3354 290.708V282.644H86.0854V296H88.3354V293.462L90.0094 291.878L93.3394 296ZM98.5748 284.804C99.4208 284.804 100.015 284.192 100.015 283.4C100.015 282.662 99.4028 282.104 98.5748 282.104C97.7468 282.104 97.1348 282.698 97.1348 283.454C97.1348 284.21 97.7468 284.804 98.5748 284.804ZM97.4408 296H99.6908V286.388H97.4408V296ZM108.098 286.28C106.694 286.28 105.524 286.748 104.786 287.63V286.388H102.644V296H104.894V291.14C104.894 289.214 105.974 288.242 107.576 288.242C109.016 288.242 109.862 289.07 109.862 290.78V296H112.112V290.492C112.112 287.594 110.402 286.28 108.098 286.28ZM122.452 286.388V287.666C121.66 286.712 120.472 286.28 119.122 286.28C116.368 286.28 114.262 288.116 114.262 290.906C114.262 293.696 116.368 295.568 119.122 295.568C120.418 295.568 121.552 295.154 122.344 294.29V294.794C122.344 296.738 121.408 297.71 119.284 297.71C117.952 297.71 116.584 297.26 115.738 296.558L114.73 298.25C115.828 299.15 117.61 299.618 119.41 299.618C122.776 299.618 124.594 298.034 124.594 294.542V286.388H122.452ZM119.464 293.66C117.754 293.66 116.53 292.544 116.53 290.906C116.53 289.286 117.754 288.188 119.464 288.188C121.156 288.188 122.38 289.286 122.38 290.906C122.38 292.544 121.156 293.66 119.464 293.66ZM43.6098 318.108C47.3898 318.108 50.2158 315.39 50.2158 311.7C50.2158 308.01 47.3898 305.292 43.6098 305.292C39.7938 305.292 36.9858 308.028 36.9858 311.7C36.9858 315.372 39.7938 318.108 43.6098 318.108ZM43.6098 316.92C40.5678 316.92 38.2998 314.706 38.2998 311.7C38.2998 308.694 40.5678 306.48 43.6098 306.48C46.6338 306.48 48.8838 308.694 48.8838 311.7C48.8838 314.706 46.6338 316.92 43.6098 316.92ZM54.1554 310.386V308.532H52.9314V318H54.2094V313.176C54.2094 310.944 55.4154 309.684 57.3954 309.684C57.4854 309.684 57.5934 309.702 57.7014 309.702V308.46C55.9554 308.46 54.7494 309.126 54.1554 310.386ZM60.6634 306.462C61.2034 306.462 61.5994 306.048 61.5994 305.526C61.5994 305.04 61.1854 304.644 60.6634 304.644C60.1414 304.644 59.7274 305.058 59.7274 305.544C59.7274 306.048 60.1414 306.462 60.6634 306.462ZM60.0154 318H61.2934V308.532H60.0154V318ZM72.3914 308.532V310.35C71.5994 309.108 70.2314 308.46 68.6474 308.46C65.9474 308.46 63.8954 310.314 63.8954 313.032C63.8954 315.75 65.9474 317.64 68.6474 317.64C70.1954 317.64 71.5454 317.01 72.3374 315.804V317.01C72.3374 319.35 71.2394 320.448 68.8454 320.448C67.3874 320.448 66.0194 319.962 65.1194 319.152L64.4714 320.124C65.4614 321.06 67.1534 321.582 68.8814 321.582C72.0134 321.582 73.6154 320.106 73.6154 316.848V308.532H72.3914ZM68.7734 316.506C66.6854 316.506 65.1914 315.084 65.1914 313.032C65.1914 310.98 66.6854 309.576 68.7734 309.576C70.8614 309.576 72.3734 310.98 72.3734 313.032C72.3734 315.084 70.8614 316.506 68.7734 316.506ZM77.8372 306.462C78.3772 306.462 78.7732 306.048 78.7732 305.526C78.7732 305.04 78.3592 304.644 77.8372 304.644C77.3152 304.644 76.9012 305.058 76.9012 305.544C76.9012 306.048 77.3152 306.462 77.8372 306.462ZM77.1892 318H78.4672V308.532H77.1892V318ZM86.8472 308.46C85.2092 308.46 83.9312 309.126 83.2472 310.278V308.532H82.0232V318H83.3012V313.032C83.3012 310.872 84.5792 309.612 86.6132 309.612C88.4132 309.612 89.4572 310.638 89.4572 312.636V318H90.7352V312.51C90.7352 309.792 89.1512 308.46 86.8472 308.46ZM102.84 318.09C104.442 318.09 105.792 317.442 106.548 316.218L105.594 315.57C104.946 316.524 103.938 316.956 102.84 316.956C100.77 316.956 99.2578 315.498 99.2578 313.266C99.2578 311.052 100.77 309.576 102.84 309.576C103.938 309.576 104.946 310.026 105.594 310.98L106.548 310.332C105.792 309.09 104.442 308.46 102.84 308.46C100.014 308.46 97.9618 310.44 97.9618 313.266C97.9618 316.092 100.014 318.09 102.84 318.09ZM113.742 308.46C112.14 308.46 110.898 309.09 110.196 310.188V304.644H108.918V318H110.196V313.032C110.196 310.872 111.474 309.612 113.508 309.612C115.308 309.612 116.352 310.638 116.352 312.636V318H117.63V312.51C117.63 309.792 116.046 308.46 113.742 308.46ZM124.411 308.46C122.917 308.46 121.513 308.928 120.559 309.738L121.135 310.692C121.909 310.008 123.061 309.576 124.285 309.576C126.049 309.576 126.967 310.458 126.967 312.078V312.654H123.961C121.243 312.654 120.307 313.878 120.307 315.336C120.307 316.974 121.621 318.09 123.763 318.09C125.329 318.09 126.445 317.496 127.021 316.524V318H128.245V312.132C128.245 309.684 126.859 308.46 124.411 308.46ZM123.961 317.082C122.449 317.082 121.567 316.398 121.567 315.3C121.567 314.328 122.161 313.608 123.997 313.608H126.967V315.156C126.463 316.398 125.401 317.082 123.961 317.082ZM132.365 306.462C132.905 306.462 133.301 306.048 133.301 305.526C133.301 305.04 132.887 304.644 132.365 304.644C131.843 304.644 131.429 305.058 131.429 305.544C131.429 306.048 131.843 306.462 132.365 306.462ZM131.717 318H132.995V308.532H131.717V318ZM141.375 308.46C139.737 308.46 138.459 309.126 137.775 310.278V308.532H136.551V318H137.829V313.032C137.829 310.872 139.107 309.612 141.141 309.612C142.941 309.612 143.985 310.638 143.985 312.636V318H145.263V312.51C145.263 309.792 143.679 308.46 141.375 308.46ZM69.235 340.108C72.457 340.108 73.933 338.524 73.933 336.67C73.933 332.08 66.175 334.168 66.175 330.712C66.175 329.452 67.201 328.426 69.505 328.426C70.621 328.426 71.881 328.768 72.961 329.47L73.411 328.408C72.403 327.706 70.927 327.292 69.505 327.292C66.301 327.292 64.861 328.894 64.861 330.748C64.861 335.41 72.619 333.286 72.619 336.742C72.619 337.984 71.593 338.974 69.235 338.974C67.579 338.974 65.977 338.326 65.077 337.444L64.555 338.47C65.491 339.442 67.345 340.108 69.235 340.108ZM88.3732 330.46C86.6632 330.46 85.3132 331.234 84.6292 332.458C84.0532 331.126 82.8292 330.46 81.2632 330.46C79.6792 330.46 78.4552 331.126 77.7892 332.26V330.532H76.5652V340H77.8432V335.032C77.8432 332.872 79.0852 331.612 81.0112 331.612C82.7392 331.612 83.7472 332.638 83.7472 334.636V340H85.0252V335.032C85.0252 332.872 86.2492 331.612 88.1932 331.612C89.9032 331.612 90.9112 332.638 90.9112 334.636V340H92.1892V334.51C92.1892 331.792 90.6772 330.46 88.3732 330.46ZM98.967 330.46C97.473 330.46 96.069 330.928 95.115 331.738L95.691 332.692C96.465 332.008 97.617 331.576 98.841 331.576C100.605 331.576 101.523 332.458 101.523 334.078V334.654H98.517C95.799 334.654 94.863 335.878 94.863 337.336C94.863 338.974 96.177 340.09 98.319 340.09C99.885 340.09 101.001 339.496 101.577 338.524V340H102.801V334.132C102.801 331.684 101.415 330.46 98.967 330.46ZM98.517 339.082C97.005 339.082 96.123 338.398 96.123 337.3C96.123 336.328 96.717 335.608 98.553 335.608H101.523V337.156C101.019 338.398 99.957 339.082 98.517 339.082ZM107.496 332.386V330.532H106.272V340H107.55V335.176C107.55 332.944 108.756 331.684 110.736 331.684C110.826 331.684 110.934 331.702 111.042 331.702V330.46C109.296 330.46 108.09 331.126 107.496 332.386ZM118.297 338.506C117.937 338.83 117.415 338.992 116.893 338.992C115.831 338.992 115.255 338.38 115.255 337.264V331.612H118.135V330.532H115.255V328.462H113.977V330.532H112.285V331.612H113.977V337.336C113.977 339.082 114.967 340.09 116.749 340.09C117.487 340.09 118.243 339.874 118.747 339.424L118.297 338.506ZM53.5771 362.09C55.1791 362.09 56.5291 361.442 57.2851 360.218L56.3311 359.57C55.6831 360.524 54.6751 360.956 53.5771 360.956C51.5071 360.956 49.9951 359.498 49.9951 357.266C49.9951 355.052 51.5071 353.576 53.5771 353.576C54.6751 353.576 55.6831 354.026 56.3311 354.98L57.2851 354.332C56.5291 353.09 55.1791 352.46 53.5771 352.46C50.7511 352.46 48.6991 354.44 48.6991 357.266C48.6991 360.092 50.7511 362.09 53.5771 362.09ZM63.5075 362.09C66.2795 362.09 68.3135 360.074 68.3135 357.266C68.3135 354.458 66.2795 352.46 63.5075 352.46C60.7355 352.46 58.6835 354.458 58.6835 357.266C58.6835 360.074 60.7355 362.09 63.5075 362.09ZM63.5075 360.956C61.4915 360.956 59.9795 359.48 59.9795 357.266C59.9795 355.052 61.4915 353.576 63.5075 353.576C65.5235 353.576 67.0175 355.052 67.0175 357.266C67.0175 359.48 65.5235 360.956 63.5075 360.956ZM75.7466 352.46C74.1086 352.46 72.8306 353.126 72.1466 354.278V352.532H70.9226V362H72.2006V357.032C72.2006 354.872 73.4786 353.612 75.5126 353.612C77.3126 353.612 78.3566 354.638 78.3566 356.636V362H79.6346V356.51C79.6346 353.792 78.0506 352.46 75.7466 352.46ZM87.6403 360.506C87.2803 360.83 86.7583 360.992 86.2363 360.992C85.1743 360.992 84.5983 360.38 84.5983 359.264V353.612H87.4783V352.532H84.5983V350.462H83.3203V352.532H81.6283V353.612H83.3203V359.336C83.3203 361.082 84.3103 362.09 86.0923 362.09C86.8303 362.09 87.5863 361.874 88.0903 361.424L87.6403 360.506ZM91.6408 354.386V352.532H90.4168V362H91.6948V357.176C91.6948 354.944 92.9008 353.684 94.8808 353.684C94.9708 353.684 95.0788 353.702 95.1868 353.702V352.46C93.4408 352.46 92.2348 353.126 91.6408 354.386ZM100.795 352.46C99.3012 352.46 97.8972 352.928 96.9432 353.738L97.5192 354.692C98.2932 354.008 99.4452 353.576 100.669 353.576C102.433 353.576 103.351 354.458 103.351 356.078V356.654H100.345C97.6272 356.654 96.6912 357.878 96.6912 359.336C96.6912 360.974 98.0052 362.09 100.147 362.09C101.713 362.09 102.829 361.496 103.405 360.524V362H104.629V356.132C104.629 353.684 103.243 352.46 100.795 352.46ZM100.345 361.082C98.8332 361.082 97.9512 360.398 97.9512 359.3C97.9512 358.328 98.5452 357.608 100.381 357.608H103.351V359.156C102.847 360.398 101.785 361.082 100.345 361.082ZM112.06 362.09C113.662 362.09 115.012 361.442 115.768 360.218L114.814 359.57C114.166 360.524 113.158 360.956 112.06 360.956C109.99 360.956 108.478 359.498 108.478 357.266C108.478 355.052 109.99 353.576 112.06 353.576C113.158 353.576 114.166 354.026 114.814 354.98L115.768 354.332C115.012 353.09 113.662 352.46 112.06 352.46C109.234 352.46 107.182 354.44 107.182 357.266C107.182 360.092 109.234 362.09 112.06 362.09ZM122.92 360.506C122.56 360.83 122.038 360.992 121.516 360.992C120.454 360.992 119.878 360.38 119.878 359.264V353.612H122.758V352.532H119.878V350.462H118.6V352.532H116.908V353.612H118.6V359.336C118.6 361.082 119.59 362.09 121.372 362.09C122.11 362.09 122.866 361.874 123.37 361.424L122.92 360.506ZM128.787 349.4V350.552H131.757V362H133.053V349.4H128.787Z" fill="#001A34"/>
  <g filter="url(#filter1_d)">
    <path fill-rule="evenodd" clip-rule="evenodd" d="M215 290C215 278.954 223.954 270 235 270H331C342.046 270 351 278.954 351 290V385C351 396.046 342.046 405 331 405H235C223.954 405 215 396.046 215 385V290Z" fill="white"/>
    <path d="M215.5 290C215.5 279.23 224.23 270.5 235 270.5H331C341.77 270.5 350.5 279.23 350.5 290V385C350.5 395.77 341.77 404.5 331 404.5H235C224.23 404.5 215.5 395.77 215.5 385V290Z" stroke="#EAF1F3"/>
  </g>
  <path d="M259.764 298L259.746 285.4H257.82L252.906 293.752L247.902 285.4H245.976V298H248.208V289.756L252.348 296.56H253.392L257.532 289.648L257.55 298H259.764ZM264.086 286.804C264.932 286.804 265.526 286.192 265.526 285.4C265.526 284.662 264.914 284.104 264.086 284.104C263.258 284.104 262.646 284.698 262.646 285.454C262.646 286.21 263.258 286.804 264.086 286.804ZM262.952 298H265.202V288.388H262.952V298ZM273.609 288.28C272.205 288.28 271.035 288.748 270.297 289.63V288.388H268.155V298H270.405V293.14C270.405 291.214 271.485 290.242 273.087 290.242C274.527 290.242 275.373 291.07 275.373 292.78V298H277.623V292.492C277.623 289.594 275.913 288.28 273.609 288.28ZM285.625 295.876C285.283 296.146 284.833 296.272 284.365 296.272C283.501 296.272 283.033 295.768 283.033 294.832V290.26H285.607V288.46H283.033V286.264H280.783V288.46H279.199V290.26H280.783V294.886C280.783 297.01 281.989 298.126 284.095 298.126C284.905 298.126 285.715 297.91 286.255 297.478L285.625 295.876ZM289.24 286.804C290.086 286.804 290.68 286.192 290.68 285.4C290.68 284.662 290.068 284.104 289.24 284.104C288.412 284.104 287.8 284.698 287.8 285.454C287.8 286.21 288.412 286.804 289.24 286.804ZM288.106 298H290.356V288.388H288.106V298ZM298.763 288.28C297.359 288.28 296.189 288.748 295.451 289.63V288.388H293.309V298H295.559V293.14C295.559 291.214 296.639 290.242 298.241 290.242C299.681 290.242 300.527 291.07 300.527 292.78V298H302.777V292.492C302.777 289.594 301.067 288.28 298.763 288.28ZM313.117 288.388V289.666C312.325 288.712 311.137 288.28 309.787 288.28C307.033 288.28 304.927 290.116 304.927 292.906C304.927 295.696 307.033 297.568 309.787 297.568C311.083 297.568 312.217 297.154 313.009 296.29V296.794C313.009 298.738 312.073 299.71 309.949 299.71C308.617 299.71 307.249 299.26 306.403 298.558L305.395 300.25C306.493 301.15 308.275 301.618 310.075 301.618C313.441 301.618 315.259 300.034 315.259 296.542V288.388H313.117ZM310.129 295.66C308.419 295.66 307.195 294.544 307.195 292.906C307.195 291.286 308.419 290.188 310.129 290.188C311.821 290.188 313.045 291.286 313.045 292.906C313.045 294.544 311.821 295.66 310.129 295.66ZM232.502 320H237.632C241.664 320 244.382 317.408 244.382 313.7C244.382 309.992 241.664 307.4 237.632 307.4H232.502V320ZM233.834 318.848V308.552H237.56C240.908 308.552 243.068 310.676 243.068 313.7C243.068 316.724 240.908 318.848 237.56 318.848H233.834ZM255.365 315.266C255.365 312.422 253.439 310.46 250.775 310.46C248.111 310.46 246.149 312.458 246.149 315.266C246.149 318.074 248.165 320.09 251.117 320.09C252.611 320.09 253.925 319.55 254.771 318.542L254.051 317.714C253.331 318.542 252.305 318.956 251.153 318.956C249.083 318.956 247.571 317.642 247.427 315.662H255.347C255.347 315.518 255.365 315.374 255.365 315.266ZM250.775 311.558C252.629 311.558 253.979 312.854 254.141 314.708H247.427C247.589 312.854 248.939 311.558 250.775 311.558ZM260.505 320.09C262.971 320.09 264.411 319.028 264.411 317.39C264.411 313.754 258.273 315.68 258.273 313.124C258.273 312.224 259.029 311.558 260.739 311.558C261.711 311.558 262.701 311.792 263.529 312.368L264.087 311.342C263.295 310.802 261.963 310.46 260.739 310.46C258.327 310.46 256.995 311.612 256.995 313.16C256.995 316.904 263.133 314.96 263.133 317.426C263.133 318.362 262.395 318.974 260.595 318.974C259.263 318.974 257.985 318.506 257.229 317.912L256.653 318.92C257.427 319.586 258.939 320.09 260.505 320.09ZM271.309 318.506C270.949 318.83 270.427 318.992 269.905 318.992C268.843 318.992 268.267 318.38 268.267 317.264V311.612H271.147V310.532H268.267V308.462H266.989V310.532H265.297V311.612H266.989V317.336C266.989 319.082 267.979 320.09 269.761 320.09C270.499 320.09 271.255 319.874 271.759 319.424L271.309 318.506ZM274.734 308.462C275.274 308.462 275.67 308.048 275.67 307.526C275.67 307.04 275.256 306.644 274.734 306.644C274.212 306.644 273.798 307.058 273.798 307.544C273.798 308.048 274.212 308.462 274.734 308.462ZM274.086 320H275.364V310.532H274.086V320ZM283.744 310.46C282.106 310.46 280.828 311.126 280.144 312.278V310.532H278.92V320H280.198V315.032C280.198 312.872 281.476 311.612 283.51 311.612C285.31 311.612 286.354 312.638 286.354 314.636V320H287.632V314.51C287.632 311.792 286.048 310.46 283.744 310.46ZM294.413 310.46C292.919 310.46 291.515 310.928 290.561 311.738L291.137 312.692C291.911 312.008 293.063 311.576 294.287 311.576C296.051 311.576 296.969 312.458 296.969 314.078V314.654H293.963C291.245 314.654 290.309 315.878 290.309 317.336C290.309 318.974 291.623 320.09 293.765 320.09C295.331 320.09 296.447 319.496 297.023 318.524V320H298.247V314.132C298.247 311.684 296.861 310.46 294.413 310.46ZM293.963 319.082C292.451 319.082 291.569 318.398 291.569 317.3C291.569 316.328 292.163 315.608 293.999 315.608H296.969V317.156C296.465 318.398 295.403 319.082 293.963 319.082ZM306.255 318.506C305.895 318.83 305.373 318.992 304.851 318.992C303.789 318.992 303.213 318.38 303.213 317.264V311.612H306.093V310.532H303.213V308.462H301.935V310.532H300.243V311.612H301.935V317.336C301.935 319.082 302.925 320.09 304.707 320.09C305.445 320.09 306.201 319.874 306.705 319.424L306.255 318.506ZM309.679 308.462C310.219 308.462 310.615 308.048 310.615 307.526C310.615 307.04 310.201 306.644 309.679 306.644C309.157 306.644 308.743 307.058 308.743 307.544C308.743 308.048 309.157 308.462 309.679 308.462ZM309.031 320H310.309V310.532H309.031V320ZM317.735 320.09C320.507 320.09 322.541 318.074 322.541 315.266C322.541 312.458 320.507 310.46 317.735 310.46C314.963 310.46 312.911 312.458 312.911 315.266C312.911 318.074 314.963 320.09 317.735 320.09ZM317.735 318.956C315.719 318.956 314.207 317.48 314.207 315.266C314.207 313.052 315.719 311.576 317.735 311.576C319.751 311.576 321.245 313.052 321.245 315.266C321.245 317.48 319.751 318.956 317.735 318.956ZM329.974 310.46C328.336 310.46 327.058 311.126 326.374 312.278V310.532H325.15V320H326.428V315.032C326.428 312.872 327.706 311.612 329.74 311.612C331.54 311.612 332.584 312.638 332.584 314.636V320H333.862V314.51C333.862 311.792 332.278 310.46 329.974 310.46ZM263.798 342.09C265.4 342.09 266.75 341.442 267.506 340.218L266.552 339.57C265.904 340.524 264.896 340.956 263.798 340.956C261.728 340.956 260.216 339.498 260.216 337.266C260.216 335.052 261.728 333.576 263.798 333.576C264.896 333.576 265.904 334.026 266.552 334.98L267.506 334.332C266.75 333.09 265.4 332.46 263.798 332.46C260.972 332.46 258.92 334.44 258.92 337.266C258.92 340.092 260.972 342.09 263.798 342.09ZM274.7 332.46C273.098 332.46 271.856 333.09 271.154 334.188V328.644H269.876V342H271.154V337.032C271.154 334.872 272.432 333.612 274.466 333.612C276.266 333.612 277.31 334.638 277.31 336.636V342H278.588V336.51C278.588 333.792 277.004 332.46 274.7 332.46ZM285.369 332.46C283.875 332.46 282.471 332.928 281.517 333.738L282.093 334.692C282.867 334.008 284.019 333.576 285.243 333.576C287.007 333.576 287.925 334.458 287.925 336.078V336.654H284.919C282.201 336.654 281.265 337.878 281.265 339.336C281.265 340.974 282.579 342.09 284.721 342.09C286.287 342.09 287.403 341.496 287.979 340.524V342H289.203V336.132C289.203 333.684 287.817 332.46 285.369 332.46ZM284.919 341.082C283.407 341.082 282.525 340.398 282.525 339.3C282.525 338.328 283.119 337.608 284.955 337.608H287.925V339.156C287.421 340.398 286.359 341.082 284.919 341.082ZM293.323 330.462C293.863 330.462 294.259 330.048 294.259 329.526C294.259 329.04 293.845 328.644 293.323 328.644C292.801 328.644 292.387 329.058 292.387 329.544C292.387 330.048 292.801 330.462 293.323 330.462ZM292.675 342H293.953V332.532H292.675V342ZM302.333 332.46C300.695 332.46 299.417 333.126 298.733 334.278V332.532H297.509V342H298.787V337.032C298.787 334.872 300.065 333.612 302.099 333.612C303.899 333.612 304.943 334.638 304.943 336.636V342H306.221V336.51C306.221 333.792 304.637 332.46 302.333 332.46ZM260.735 364.108C263.957 364.108 265.433 362.524 265.433 360.67C265.433 356.08 257.675 358.168 257.675 354.712C257.675 353.452 258.701 352.426 261.005 352.426C262.121 352.426 263.381 352.768 264.461 353.47L264.911 352.408C263.903 351.706 262.427 351.292 261.005 351.292C257.801 351.292 256.361 352.894 256.361 354.748C256.361 359.41 264.119 357.286 264.119 360.742C264.119 361.984 263.093 362.974 260.735 362.974C259.079 362.974 257.477 362.326 256.577 361.444L256.055 362.47C256.991 363.442 258.845 364.108 260.735 364.108ZM279.873 354.46C278.163 354.46 276.813 355.234 276.129 356.458C275.553 355.126 274.329 354.46 272.763 354.46C271.179 354.46 269.955 355.126 269.289 356.26V354.532H268.065V364H269.343V359.032C269.343 356.872 270.585 355.612 272.511 355.612C274.239 355.612 275.247 356.638 275.247 358.636V364H276.525V359.032C276.525 356.872 277.749 355.612 279.693 355.612C281.403 355.612 282.411 356.638 282.411 358.636V364H283.689V358.51C283.689 355.792 282.177 354.46 279.873 354.46ZM290.467 354.46C288.973 354.46 287.569 354.928 286.615 355.738L287.191 356.692C287.965 356.008 289.117 355.576 290.341 355.576C292.105 355.576 293.023 356.458 293.023 358.078V358.654H290.017C287.299 358.654 286.363 359.878 286.363 361.336C286.363 362.974 287.677 364.09 289.819 364.09C291.385 364.09 292.501 363.496 293.077 362.524V364H294.301V358.132C294.301 355.684 292.915 354.46 290.467 354.46ZM290.017 363.082C288.505 363.082 287.623 362.398 287.623 361.3C287.623 360.328 288.217 359.608 290.053 359.608H293.023V361.156C292.519 362.398 291.457 363.082 290.017 363.082ZM298.996 356.386V354.532H297.772V364H299.05V359.176C299.05 356.944 300.256 355.684 302.236 355.684C302.326 355.684 302.434 355.702 302.542 355.702V354.46C300.796 354.46 299.59 355.126 298.996 356.386ZM309.797 362.506C309.437 362.83 308.915 362.992 308.393 362.992C307.331 362.992 306.755 362.38 306.755 361.264V355.612H309.635V354.532H306.755V352.462H305.477V354.532H303.785V355.612H305.477V361.336C305.477 363.082 306.467 364.09 308.249 364.09C308.987 364.09 309.743 363.874 310.247 363.424L309.797 362.506ZM243.214 386.09C244.816 386.09 246.166 385.442 246.922 384.218L245.968 383.57C245.32 384.524 244.312 384.956 243.214 384.956C241.144 384.956 239.632 383.498 239.632 381.266C239.632 379.052 241.144 377.576 243.214 377.576C244.312 377.576 245.32 378.026 245.968 378.98L246.922 378.332C246.166 377.09 244.816 376.46 243.214 376.46C240.388 376.46 238.336 378.44 238.336 381.266C238.336 384.092 240.388 386.09 243.214 386.09ZM253.144 386.09C255.916 386.09 257.95 384.074 257.95 381.266C257.95 378.458 255.916 376.46 253.144 376.46C250.372 376.46 248.32 378.458 248.32 381.266C248.32 384.074 250.372 386.09 253.144 386.09ZM253.144 384.956C251.128 384.956 249.616 383.48 249.616 381.266C249.616 379.052 251.128 377.576 253.144 377.576C255.16 377.576 256.654 379.052 256.654 381.266C256.654 383.48 255.16 384.956 253.144 384.956ZM265.383 376.46C263.745 376.46 262.467 377.126 261.783 378.278V376.532H260.559V386H261.837V381.032C261.837 378.872 263.115 377.612 265.149 377.612C266.949 377.612 267.993 378.638 267.993 380.636V386H269.271V380.51C269.271 377.792 267.687 376.46 265.383 376.46ZM277.277 384.506C276.917 384.83 276.395 384.992 275.873 384.992C274.811 384.992 274.235 384.38 274.235 383.264V377.612H277.115V376.532H274.235V374.462H272.957V376.532H271.265V377.612H272.957V383.336C272.957 385.082 273.947 386.09 275.729 386.09C276.467 386.09 277.223 385.874 277.727 385.424L277.277 384.506ZM281.277 378.386V376.532H280.053V386H281.331V381.176C281.331 378.944 282.537 377.684 284.517 377.684C284.607 377.684 284.715 377.702 284.823 377.702V376.46C283.077 376.46 281.871 377.126 281.277 378.386ZM290.432 376.46C288.938 376.46 287.534 376.928 286.58 377.738L287.156 378.692C287.93 378.008 289.082 377.576 290.306 377.576C292.07 377.576 292.988 378.458 292.988 380.078V380.654H289.982C287.264 380.654 286.328 381.878 286.328 383.336C286.328 384.974 287.642 386.09 289.784 386.09C291.35 386.09 292.466 385.496 293.042 384.524V386H294.266V380.132C294.266 377.684 292.88 376.46 290.432 376.46ZM289.982 385.082C288.47 385.082 287.588 384.398 287.588 383.3C287.588 382.328 288.182 381.608 290.018 381.608H292.988V383.156C292.484 384.398 291.422 385.082 289.982 385.082ZM301.696 386.09C303.298 386.09 304.648 385.442 305.404 384.218L304.45 383.57C303.802 384.524 302.794 384.956 301.696 384.956C299.626 384.956 298.114 383.498 298.114 381.266C298.114 379.052 299.626 377.576 301.696 377.576C302.794 377.576 303.802 378.026 304.45 378.98L305.404 378.332C304.648 377.09 303.298 376.46 301.696 376.46C298.87 376.46 296.818 378.44 296.818 381.266C296.818 384.092 298.87 386.09 301.696 386.09ZM312.556 384.506C312.196 384.83 311.674 384.992 311.152 384.992C310.09 384.992 309.514 384.38 309.514 383.264V377.612H312.394V376.532H309.514V374.462H308.236V376.532H306.544V377.612H308.236V383.336C308.236 385.082 309.226 386.09 311.008 386.09C311.746 386.09 312.502 385.874 313.006 385.424L312.556 384.506ZM320.872 384.848L325.156 380.636C326.848 378.98 327.226 377.9 327.226 376.694C327.226 374.588 325.606 373.292 323.05 373.292C321.124 373.292 319.558 373.94 318.586 375.092L319.504 375.884C320.332 374.93 321.466 374.48 322.942 374.48C324.868 374.48 325.894 375.38 325.894 376.838C325.894 377.702 325.624 378.548 324.202 379.952L318.964 385.082V386H327.802V384.848H320.872Z" fill="#001A34"/>
  <g filter="url(#filter2_d)">
    <path fill-rule="evenodd" clip-rule="evenodd" d="M215 467C215 455.954 223.954 447 235 447H331C342.046 447 351 455.954 351 467V482C351 493.046 342.046 502 331 502H235C223.954 502 215 493.046 215 482V467Z" fill="white"/>
    <path d="M215.5 467C215.5 456.23 224.23 447.5 235 447.5H331C341.77 447.5 350.5 456.23 350.5 467V482C350.5 492.77 341.77 501.5 331 501.5H235C224.23 501.5 215.5 492.77 215.5 482V467Z" stroke="#EAF1F3"/>
  </g>
  <path d="M260.951 458.4L257.261 469.29L253.553 458.4H252.311L248.549 469.236L244.913 458.4H243.545L247.793 471H249.179L252.887 460.254L256.577 471H257.981L262.229 458.4H260.951ZM265.256 463.386V461.532H264.032V471H265.31V466.176C265.31 463.944 266.516 462.684 268.496 462.684C268.586 462.684 268.694 462.702 268.802 462.702V461.46C267.056 461.46 265.85 462.126 265.256 463.386ZM274.411 461.46C272.917 461.46 271.513 461.928 270.559 462.738L271.135 463.692C271.909 463.008 273.061 462.576 274.285 462.576C276.049 462.576 276.967 463.458 276.967 465.078V465.654H273.961C271.243 465.654 270.307 466.878 270.307 468.336C270.307 469.974 271.621 471.09 273.763 471.09C275.329 471.09 276.445 470.496 277.021 469.524V471H278.245V465.132C278.245 462.684 276.859 461.46 274.411 461.46ZM273.961 470.082C272.449 470.082 271.567 469.398 271.567 468.3C271.567 467.328 272.161 466.608 273.997 466.608H276.967V468.156C276.463 469.398 275.401 470.082 273.961 470.082ZM286.594 461.46C285.028 461.46 283.714 462.144 282.94 463.404V461.532H281.716V474.492H282.994V469.218C283.786 470.442 285.082 471.09 286.594 471.09C289.294 471.09 291.31 469.146 291.31 466.266C291.31 463.404 289.294 461.46 286.594 461.46ZM286.504 469.956C284.488 469.956 282.976 468.48 282.976 466.266C282.976 464.07 284.488 462.576 286.504 462.576C288.502 462.576 290.032 464.07 290.032 466.266C290.032 468.48 288.502 469.956 286.504 469.956ZM298.793 461.46C297.227 461.46 295.913 462.144 295.139 463.404V461.532H293.915V474.492H295.193V469.218C295.985 470.442 297.281 471.09 298.793 471.09C301.493 471.09 303.509 469.146 303.509 466.266C303.509 463.404 301.493 461.46 298.793 461.46ZM298.703 469.956C296.687 469.956 295.175 468.48 295.175 466.266C295.175 464.07 296.687 462.576 298.703 462.576C300.701 462.576 302.231 464.07 302.231 466.266C302.231 468.48 300.701 469.956 298.703 469.956ZM314.376 466.266C314.376 463.422 312.45 461.46 309.786 461.46C307.122 461.46 305.16 463.458 305.16 466.266C305.16 469.074 307.176 471.09 310.128 471.09C311.622 471.09 312.936 470.55 313.782 469.542L313.062 468.714C312.342 469.542 311.316 469.956 310.164 469.956C308.094 469.956 306.582 468.642 306.438 466.662H314.358C314.358 466.518 314.376 466.374 314.376 466.266ZM309.786 462.558C311.64 462.558 312.99 463.854 313.152 465.708H306.438C306.6 463.854 307.95 462.558 309.786 462.558ZM324.34 457.644V463.332C323.548 462.108 322.252 461.46 320.74 461.46C318.04 461.46 316.024 463.404 316.024 466.266C316.024 469.128 318.04 471.09 320.74 471.09C322.306 471.09 323.62 470.406 324.394 469.128V471H325.618V457.644H324.34ZM320.848 469.956C318.832 469.956 317.32 468.48 317.32 466.266C317.32 464.052 318.832 462.576 320.848 462.576C322.846 462.576 324.358 464.052 324.358 466.266C324.358 468.48 322.846 469.956 320.848 469.956ZM262.584 493H263.916V481.552H268.344V480.4H258.156V481.552H262.584V493ZM273.088 493.09C275.86 493.09 277.894 491.074 277.894 488.266C277.894 485.458 275.86 483.46 273.088 483.46C270.316 483.46 268.264 485.458 268.264 488.266C268.264 491.074 270.316 493.09 273.088 493.09ZM273.088 491.956C271.072 491.956 269.56 490.48 269.56 488.266C269.56 486.052 271.072 484.576 273.088 484.576C275.104 484.576 276.598 486.052 276.598 488.266C276.598 490.48 275.104 491.956 273.088 491.956ZM287.829 493H289.395L284.967 487.402L289.017 483.532H287.433L281.781 488.698V479.644H280.503V493H281.781V490.3L284.013 488.248L287.829 493ZM299.189 488.266C299.189 485.422 297.263 483.46 294.599 483.46C291.935 483.46 289.973 485.458 289.973 488.266C289.973 491.074 291.989 493.09 294.941 493.09C296.435 493.09 297.749 492.55 298.595 491.542L297.875 490.714C297.155 491.542 296.129 491.956 294.977 491.956C292.907 491.956 291.395 490.642 291.251 488.662H299.171C299.171 488.518 299.189 488.374 299.189 488.266ZM294.599 484.558C296.453 484.558 297.803 485.854 297.965 487.708H291.251C291.413 485.854 292.763 484.558 294.599 484.558ZM306.614 483.46C304.976 483.46 303.698 484.126 303.014 485.278V483.532H301.79V493H303.068V488.032C303.068 485.872 304.346 484.612 306.38 484.612C308.18 484.612 309.224 485.638 309.224 487.636V493H310.502V487.51C310.502 484.792 308.918 483.46 306.614 483.46Z" fill="#001A34"/>
  <g filter="url(#filter3_d)">
    <path fill-rule="evenodd" clip-rule="evenodd" d="M24 466C24 455.507 32.5066 447 43 447H141C151.493 447 160 455.507 160 466C160 476.493 151.493 485 141 485H43C32.5066 485 24 476.493 24 466Z" fill="white"/>
    <path d="M24.5 466C24.5 455.783 32.7827 447.5 43 447.5H141C151.217 447.5 159.5 455.783 159.5 466C159.5 476.217 151.217 484.5 141 484.5H43C32.7827 484.5 24.5 476.217 24.5 466Z" stroke="#EAF1F3"/>
  </g>
  <path d="M69.2037 471H70.5357V459.552H74.9637V458.4H64.7757V459.552H69.2037V471ZM79.7073 471.09C82.4793 471.09 84.5133 469.074 84.5133 466.266C84.5133 463.458 82.4793 461.46 79.7073 461.46C76.9353 461.46 74.8833 463.458 74.8833 466.266C74.8833 469.074 76.9353 471.09 79.7073 471.09ZM79.7073 469.956C77.6913 469.956 76.1793 468.48 76.1793 466.266C76.1793 464.052 77.6913 462.576 79.7073 462.576C81.7233 462.576 83.2173 464.052 83.2173 466.266C83.2173 468.48 81.7233 469.956 79.7073 469.956ZM94.4484 471H96.0144L91.5864 465.402L95.6364 461.532H94.0524L88.4004 466.698V457.644H87.1224V471H88.4004V468.3L90.6324 466.248L94.4484 471ZM105.808 466.266C105.808 463.422 103.882 461.46 101.218 461.46C98.5542 461.46 96.5922 463.458 96.5922 466.266C96.5922 469.074 98.6082 471.09 101.56 471.09C103.054 471.09 104.368 470.55 105.214 469.542L104.494 468.714C103.774 469.542 102.748 469.956 101.596 469.956C99.5262 469.956 98.0142 468.642 97.8702 466.662H105.79C105.79 466.518 105.808 466.374 105.808 466.266ZM101.218 462.558C103.072 462.558 104.422 463.854 104.584 465.708H97.8702C98.0322 463.854 99.3822 462.558 101.218 462.558ZM113.234 461.46C111.596 461.46 110.318 462.126 109.634 463.278V461.532H108.41V471H109.688V466.032C109.688 463.872 110.966 462.612 113 462.612C114.8 462.612 115.844 463.638 115.844 465.636V471H117.122V465.51C117.122 462.792 115.538 461.46 113.234 461.46Z" fill="#001A34"/>
  <g filter="url(#filter4_d)">
    <path fill-rule="evenodd" clip-rule="evenodd" d="M94 223C94 213.059 102.059 205 112 205H265C274.941 205 283 213.059 283 223C283 232.941 274.941 241 265 241H112C102.059 241 94 232.941 94 223Z" fill="white"/>
    <path d="M94.5 223C94.5 213.335 102.335 205.5 112 205.5H265C274.665 205.5 282.5 213.335 282.5 223C282.5 232.665 274.665 240.5 265 240.5H112C102.335 240.5 94.5 232.665 94.5 223Z" stroke="#EAF1F3"/>
  </g>
  <path d="M125.094 228.579C128.316 228.579 129.792 226.995 129.792 225.141C129.792 220.551 122.034 222.639 122.034 219.183C122.034 217.923 123.06 216.897 125.364 216.897C126.48 216.897 127.74 217.239 128.82 217.941L129.27 216.879C128.262 216.177 126.786 215.763 125.364 215.763C122.16 215.763 120.72 217.365 120.72 219.219C120.72 223.881 128.478 221.757 128.478 225.213C128.478 226.455 127.452 227.445 125.094 227.445C123.438 227.445 121.836 226.797 120.936 225.915L120.414 226.941C121.35 227.913 123.204 228.579 125.094 228.579ZM139.679 219.003V223.971C139.679 226.131 138.437 227.409 136.457 227.409C134.657 227.409 133.613 226.383 133.613 224.367V219.003H132.335V224.493C132.335 227.211 133.919 228.561 136.331 228.561C137.843 228.561 139.067 227.895 139.733 226.743V228.471H140.957V219.003H139.679ZM147.946 228.579C151.168 228.579 152.644 226.995 152.644 225.141C152.644 220.551 144.886 222.639 144.886 219.183C144.886 217.923 145.912 216.897 148.216 216.897C149.332 216.897 150.592 217.239 151.672 217.941L152.122 216.879C151.114 216.177 149.638 215.763 148.216 215.763C145.012 215.763 143.572 217.365 143.572 219.219C143.572 223.881 151.33 221.757 151.33 225.213C151.33 226.455 150.304 227.445 147.946 227.445C146.29 227.445 144.688 226.797 143.788 225.915L143.266 226.941C144.202 227.913 146.056 228.579 147.946 228.579ZM161.796 219.003L158.232 227.049L154.668 219.003H153.336L157.566 228.453L157.152 229.371C156.612 230.559 156.036 230.955 155.19 230.955C154.506 230.955 153.93 230.703 153.462 230.235L152.868 231.189C153.444 231.765 154.29 232.053 155.172 232.053C156.522 232.053 157.53 231.459 158.322 229.605L163.056 219.003H161.796ZM178.963 215.871L174.103 226.815L169.279 215.871H167.839L173.419 228.471H174.733L180.313 215.871H178.963ZM184.463 218.931C182.969 218.931 181.565 219.399 180.611 220.209L181.187 221.163C181.961 220.479 183.113 220.047 184.337 220.047C186.101 220.047 187.019 220.929 187.019 222.549V223.125H184.013C181.295 223.125 180.359 224.349 180.359 225.807C180.359 227.445 181.673 228.561 183.815 228.561C185.381 228.561 186.497 227.967 187.073 226.995V228.471H188.297V222.603C188.297 220.155 186.911 218.931 184.463 218.931ZM184.013 227.553C182.501 227.553 181.619 226.869 181.619 225.771C181.619 224.799 182.213 224.079 184.049 224.079H187.019V225.627C186.515 226.869 185.453 227.553 184.013 227.553ZM191.768 228.471H193.046V215.115H191.768V228.471ZM197.25 216.933C197.79 216.933 198.186 216.519 198.186 215.997C198.186 215.511 197.772 215.115 197.25 215.115C196.728 215.115 196.314 215.529 196.314 216.015C196.314 216.519 196.728 216.933 197.25 216.933ZM196.602 228.471H197.88V219.003H196.602V228.471ZM208.798 215.115V220.803C208.006 219.579 206.71 218.931 205.198 218.931C202.498 218.931 200.482 220.875 200.482 223.737C200.482 226.599 202.498 228.561 205.198 228.561C206.764 228.561 208.078 227.877 208.852 226.599V228.471H210.076V215.115H208.798ZM205.306 227.427C203.29 227.427 201.778 225.951 201.778 223.737C201.778 221.523 203.29 220.047 205.306 220.047C207.304 220.047 208.816 221.523 208.816 223.737C208.816 225.951 207.304 227.427 205.306 227.427ZM216.948 218.931C215.454 218.931 214.05 219.399 213.096 220.209L213.672 221.163C214.446 220.479 215.598 220.047 216.822 220.047C218.586 220.047 219.504 220.929 219.504 222.549V223.125H216.498C213.78 223.125 212.844 224.349 212.844 225.807C212.844 227.445 214.158 228.561 216.3 228.561C217.866 228.561 218.982 227.967 219.558 226.995V228.471H220.782V222.603C220.782 220.155 219.396 218.931 216.948 218.931ZM216.498 227.553C214.986 227.553 214.104 226.869 214.104 225.771C214.104 224.799 214.698 224.079 216.534 224.079H219.504V225.627C219 226.869 217.938 227.553 216.498 227.553ZM228.789 226.977C228.429 227.301 227.907 227.463 227.385 227.463C226.323 227.463 225.747 226.851 225.747 225.735V220.083H228.627V219.003H225.747V216.933H224.469V219.003H222.777V220.083H224.469V225.807C224.469 227.553 225.459 228.561 227.241 228.561C227.979 228.561 228.735 228.345 229.239 227.895L228.789 226.977ZM235.101 228.561C237.873 228.561 239.907 226.545 239.907 223.737C239.907 220.929 237.873 218.931 235.101 218.931C232.329 218.931 230.277 220.929 230.277 223.737C230.277 226.545 232.329 228.561 235.101 228.561ZM235.101 227.427C233.085 227.427 231.573 225.951 231.573 223.737C231.573 221.523 233.085 220.047 235.101 220.047C237.117 220.047 238.611 221.523 238.611 223.737C238.611 225.951 237.117 227.427 235.101 227.427ZM243.74 220.857V219.003H242.516V228.471H243.794V223.647C243.794 221.415 245 220.155 246.98 220.155C247.07 220.155 247.178 220.173 247.286 220.173V218.931C245.54 218.931 244.334 219.597 243.74 220.857ZM252.209 228.561C254.675 228.561 256.115 227.499 256.115 225.861C256.115 222.225 249.977 224.151 249.977 221.595C249.977 220.695 250.733 220.029 252.443 220.029C253.415 220.029 254.405 220.263 255.233 220.839L255.791 219.813C254.999 219.273 253.667 218.931 252.443 218.931C250.031 218.931 248.699 220.083 248.699 221.631C248.699 225.375 254.837 223.431 254.837 225.897C254.837 226.833 254.099 227.445 252.299 227.445C250.967 227.445 249.689 226.977 248.933 226.383L248.357 227.391C249.131 228.057 250.643 228.561 252.209 228.561Z" fill="#001A34"/>
  <path d="M118 245L115.732 250.309L112.268 245.691L118 245ZM114.7 248.1L94.3 263.4L93.7 262.6L114.1 247.3L114.7 248.1Z" fill="#72979C"/>
  <path d="M280.598 263.262L274.883 262.446L278.448 257.904L280.598 263.262ZM276.75 260.877L256.691 245.132L257.309 244.346L277.367 260.09L276.75 260.877Z" fill="#72979C"/>
  <path d="M92 415L89.1132 420L94.8868 420L92 415ZM91.5 419.5L91.5 440L92.5 440L92.5 419.5L91.5 419.5Z" fill="#72979C"/>
  <path d="M284 440L286.887 435L281.113 435L284 440ZM283.5 415L283.5 435.5L284.5 435.5L284.5 415L283.5 415Z" fill="#72979C"/>
  <defs>
    <filter id="filter0_d" x="-1" y="246" width="186" height="185" filterUnits="userSpaceOnUse" color-interpolation-filters="sRGB">
      <feFlood flood-opacity="0" result="BackgroundImageFix"/>
      <feColorMatrix in="SourceAlpha" type="matrix" values="0 0 0 0 0 0 0 0 0 0 0 0 0 0 0 0 0 0 127 0" result="hardAlpha"/>
      <feOffset dy="1"/>
      <feGaussianBlur stdDeviation="12.5"/>
      <feColorMatrix type="matrix" values="0 0 0 0 0.88667 0 0 0 0 0.944027 0 0 0 0 0.963145 0 0 0 1 0"/>
      <feBlend mode="normal" in2="BackgroundImageFix" result="effect1_dropShadow"/>
      <feBlend mode="normal" in="SourceGraphic" in2="effect1_dropShadow" result="shape"/>
    </filter>
    <filter id="filter1_d" x="190" y="246" width="186" height="185" filterUnits="userSpaceOnUse" color-interpolation-filters="sRGB">
      <feFlood flood-opacity="0" result="BackgroundImageFix"/>
      <feColorMatrix in="SourceAlpha" type="matrix" values="0 0 0 0 0 0 0 0 0 0 0 0 0 0 0 0 0 0 127 0" result="hardAlpha"/>
      <feOffset dy="1"/>
      <feGaussianBlur stdDeviation="12.5"/>
      <feColorMatrix type="matrix" values="0 0 0 0 0.88667 0 0 0 0 0.944027 0 0 0 0 0.963145 0 0 0 1 0"/>
      <feBlend mode="normal" in2="BackgroundImageFix" result="effect1_dropShadow"/>
      <feBlend mode="normal" in="SourceGraphic" in2="effect1_dropShadow" result="shape"/>
    </filter>
    <filter id="filter2_d" x="190" y="423" width="186" height="105" filterUnits="userSpaceOnUse" color-interpolation-filters="sRGB">
      <feFlood flood-opacity="0" result="BackgroundImageFix"/>
      <feColorMatrix in="SourceAlpha" type="matrix" values="0 0 0 0 0 0 0 0 0 0 0 0 0 0 0 0 0 0 127 0" result="hardAlpha"/>
      <feOffset dy="1"/>
      <feGaussianBlur stdDeviation="12.5"/>
      <feColorMatrix type="matrix" values="0 0 0 0 0.88667 0 0 0 0 0.944027 0 0 0 0 0.963145 0 0 0 1 0"/>
      <feBlend mode="normal" in2="BackgroundImageFix" result="effect1_dropShadow"/>
      <feBlend mode="normal" in="SourceGraphic" in2="effect1_dropShadow" result="shape"/>
    </filter>
    <filter id="filter3_d" x="-1" y="423" width="186" height="88" filterUnits="userSpaceOnUse" color-interpolation-filters="sRGB">
      <feFlood flood-opacity="0" result="BackgroundImageFix"/>
      <feColorMatrix in="SourceAlpha" type="matrix" values="0 0 0 0 0 0 0 0 0 0 0 0 0 0 0 0 0 0 127 0" result="hardAlpha"/>
      <feOffset dy="1"/>
      <feGaussianBlur stdDeviation="12.5"/>
      <feColorMatrix type="matrix" values="0 0 0 0 0.88667 0 0 0 0 0.944027 0 0 0 0 0.963145 0 0 0 1 0"/>
      <feBlend mode="normal" in2="BackgroundImageFix" result="effect1_dropShadow"/>
      <feBlend mode="normal" in="SourceGraphic" in2="effect1_dropShadow" result="shape"/>
    </filter>
    <filter id="filter4_d" x="69" y="181" width="239" height="86" filterUnits="userSpaceOnUse" color-interpolation-filters="sRGB">
      <feFlood flood-opacity="0" result="BackgroundImageFix"/>
      <feColorMatrix in="SourceAlpha" type="matrix" values="0 0 0 0 0 0 0 0 0 0 0 0 0 0 0 0 0 0 127 0" result="hardAlpha"/>
      <feOffset dy="1"/>
      <feGaussianBlur stdDeviation="12.5"/>
      <feColorMatrix type="matrix" values="0 0 0 0 0.88667 0 0 0 0 0.944027 0 0 0 0 0.963145 0 0 0 1 0"/>
      <feBlend mode="normal" in2="BackgroundImageFix" result="effect1_dropShadow"/>
      <feBlend mode="normal" in="SourceGraphic" in2="effect1_dropShadow" result="shape"/>
    </filter>
    <radialGradient id="paint0_radial" cx="0" cy="0" r="1" gradientUnits="userSpaceOnUse" gradientTransform="translate(187.712 75.5699) rotate(90) scale(47.9494 41.0997)">
      <stop stop-color="#FFA9DC"/>
      <stop offset="1" stop-color="#FF0097"/>
    </radialGradient>
    <radialGradient id="paint1_radial" cx="0" cy="0" r="1" gradientUnits="userSpaceOnUse" gradientTransform="translate(187.767 9.60273) rotate(90) scale(25.3512 21.7298)">
      <stop stop-color="#FFA9DC"/>
      <stop offset="1" stop-color="#FF0097"/>
    </radialGradient>
    <radialGradient id="paint2_radial" cx="0" cy="0" r="1" gradientUnits="userSpaceOnUse" gradientTransform="translate(187.767 160.821) rotate(90) scale(25.3512 21.7298)">
      <stop stop-color="#FFA9DC"/>
      <stop offset="1" stop-color="#FF0097"/>
    </radialGradient>
    <radialGradient id="paint3_radial" cx="0" cy="0" r="1" gradientUnits="userSpaceOnUse" gradientTransform="translate(116.358 119.75) rotate(90) scale(25.3512 21.7298)">
      <stop stop-color="#FFA9DC"/>
      <stop offset="1" stop-color="#FF0097"/>
    </radialGradient>
    <radialGradient id="paint4_radial" cx="0" cy="0" r="1" gradientUnits="userSpaceOnUse" gradientTransform="translate(259.642 119.75) rotate(90) scale(25.3512 21.7298)">
      <stop stop-color="#FFA9DC"/>
      <stop offset="1" stop-color="#FF0097"/>
    </radialGradient>
    <radialGradient id="paint5_radial" cx="0" cy="0" r="1" gradientUnits="userSpaceOnUse" gradientTransform="translate(116.358 50.2072) rotate(90) scale(25.3512 21.7298)">
      <stop stop-color="#FFA9DC"/>
      <stop offset="1" stop-color="#FF0097"/>
    </radialGradient>
    <radialGradient id="paint6_radial" cx="0" cy="0" r="1" gradientUnits="userSpaceOnUse" gradientTransform="translate(259.642 50.2072) rotate(90) scale(25.3512 21.7298)">
      <stop stop-color="#FFA9DC"/>
      <stop offset="1" stop-color="#FF0097"/>
    </radialGradient>
  </defs>
</svg>
