<svg width="827" height="534" viewBox="0 0 827 534" fill="none" xmlns="http://www.w3.org/2000/svg">
  <path d="M341.536 132.083L485.987 61.3745M341.536 132.083L412.712 177.589M341.536 132.083V61.3745M485.987 61.3745V132.083M485.987 61.3745L412.712 20.0693M485.987 132.083L341.536 61.3745M485.987 132.083L412.712 177.589M341.536 61.3745L412.712 20.0693M412.712 20.0693V177.589" stroke="#73979C"/>
  <path d="M392.421 144.627L391.846 146.433L392.33 148.266L390.529 147.686L388.696 148.17L389.276 146.369L388.787 144.542L390.594 145.116L392.421 144.627Z" fill="white"/>
  <circle cx="412.712" cy="95.912" r="38.5048" fill="white"/>
  <circle cx="412.712" cy="95.912" r="38.5048" fill="url(#paint0_radial)" fill-opacity="0.7"/>
  <path fill-rule="evenodd" clip-rule="evenodd" d="M395.952 71.4399C397.547 70.7635 405.074 81.3227 412.764 95.0248C420.453 108.727 425.393 120.384 423.798 121.061C422.202 121.737 414.675 111.178 406.986 97.476C399.297 83.7737 394.356 72.1172 395.952 71.4399ZM397.408 74.2809C396.411 74.7041 401.403 85.3827 408.212 97.5165C415.021 109.65 421.63 119.643 422.627 119.22C423.624 118.797 418.632 108.118 411.823 95.9846C405.014 83.8508 398.405 73.858 397.408 74.2809Z" fill="white"/>
  <path fill-rule="evenodd" clip-rule="evenodd" d="M395.683 72.0597C395.909 71.965 396.642 72.8446 397.731 74.4285C397.621 74.3719 397.533 74.3563 397.468 74.3833C396.462 74.8047 401.498 85.4327 408.367 97.5088C414.705 108.652 420.871 117.98 422.577 119.025C423.009 120.097 423.173 120.73 422.999 120.803C421.389 121.477 414.887 111.106 407.13 97.4685C399.373 83.8315 394.073 72.7336 395.683 72.0597Z" fill="white"/>
  <path fill-rule="evenodd" clip-rule="evenodd" d="M424.877 92.3131C420.661 92.1314 417.324 90.6942 414.867 88.0017C411.18 83.9627 410.784 80.9583 410.784 80.6029C410.784 80.1971 411.854 80.9499 413.16 81.8686C414.227 82.6195 415.452 83.4812 416.379 83.9118C417.902 84.6194 422.808 86.0109 427.721 87.4044L427.722 87.4045C429.457 87.8966 431.193 88.3891 432.781 88.8517C436.989 90.0775 437.291 92.8292 437.291 94.2034C437.291 96.0485 435.641 97.3093 434.099 97.5536C432.725 97.7711 430.266 99.0936 430.463 101.119C432.19 102.588 433.732 104.108 434.814 105.493C436.333 106.694 437.395 108.021 436.161 109.721C436.155 109.728 436.15 109.736 436.144 109.744C436.141 109.749 436.137 109.754 436.133 109.759C434.968 111.326 432.082 109.602 429.542 108.085C428.012 107.171 426.608 106.332 425.78 106.332C425.253 106.332 424.644 106.367 423.967 106.406H423.967C421.816 106.531 418.983 106.695 415.939 105.891C414.515 105.515 413.289 104.845 412.241 104.139C411.598 104.04 410.331 102.871 409.746 102.332C409.578 102.176 409.466 102.073 409.442 102.063C408.605 101.712 407.814 101.649 407.571 101.645C407.486 101.643 407.403 101.647 407.322 101.657C407.08 101.758 406.83 101.891 406.55 102.041C405.733 102.479 404.654 103.055 402.749 103.369C402.727 103.372 402.705 103.376 402.683 103.379C402.542 103.4 402.401 103.416 402.259 103.428C402.206 103.436 402.153 103.444 402.1 103.452C401.825 103.492 401.551 103.483 401.28 103.434C399.446 103.322 397.621 102.563 396.314 102.021C395.554 101.704 394.969 101.461 394.66 101.461C394.102 101.461 394.093 101.636 394.057 102.306C394.029 102.815 393.986 103.608 393.677 104.827C392.959 107.651 389.324 109.371 387.614 106.972C385.905 104.574 391.194 97.4483 391.614 97.0339C392.035 96.6196 393.299 95.4764 394.294 96.1752C395.057 96.7108 395.673 97.0815 396.418 96.9958C396.453 96.8798 396.515 96.798 396.606 96.7578C396.92 96.6197 397.137 96.0437 397.421 95.2873C398.147 93.3578 399.313 90.2548 403.666 90.2548C403.734 90.2548 403.801 90.255 403.866 90.2554C403.96 90.2548 404.057 90.2558 404.154 90.2586C404.762 90.2687 405.255 90.2986 405.678 90.3483C405.781 90.3604 405.989 90.389 406.245 90.4541C408.666 90.8175 410.675 91.595 412.579 92.3318C414.533 93.0881 416.376 93.8014 418.44 93.9796C421.499 94.2437 423.645 93.6881 424.877 92.3131ZM433.579 92.6725C433.853 92.8759 434.104 93.0147 434.331 93.089C433.931 93.3648 433.458 93.4463 432.911 93.3335C432.091 93.1644 431.912 92.7007 431.796 92.386C431.724 92.1919 431.282 91.9895 431.005 91.8627C430.833 91.7839 430.724 91.7343 430.809 91.7343C430.873 91.7343 430.994 91.7197 431.147 91.7012C431.522 91.6558 432.093 91.5868 432.51 91.6501C432.87 91.7046 433.035 91.9605 433.203 92.2208C433.31 92.3864 433.418 92.5539 433.579 92.6725Z" fill="white"/>
  <circle cx="412.767" cy="20.3578" r="20.3578" fill="white"/>
  <circle cx="412.767" cy="20.3578" r="20.3578" fill="url(#paint1_radial)" fill-opacity="0.7"/>
  <path fill-rule="evenodd" clip-rule="evenodd" d="M405.242 8.84914C405.978 8.53744 409.446 13.403 412.989 19.7168C416.532 26.0306 418.809 31.4018 418.074 31.7139C417.338 32.0256 413.87 27.1601 410.327 20.8463C406.784 14.5324 404.507 9.16122 405.242 8.84914ZM405.913 10.1582C405.454 10.3532 407.754 15.2738 410.892 20.865C414.029 26.4561 417.075 31.0606 417.534 30.8658C417.994 30.6708 415.693 25.7502 412.556 20.1591C409.418 14.5679 406.373 9.96337 405.913 10.1582Z" fill="white"/>
  <path fill-rule="evenodd" clip-rule="evenodd" d="M405.118 9.13503C405.223 9.09143 405.56 9.49671 406.062 10.2266C406.011 10.2005 405.971 10.1933 405.941 10.2057C405.477 10.3999 407.798 15.2972 410.963 20.8617C413.883 25.9962 416.725 30.2946 417.511 30.776C417.71 31.2701 417.785 31.562 417.705 31.5955C416.963 31.906 413.967 27.127 410.393 20.8432C406.818 14.5594 404.377 9.44557 405.118 9.13503Z" fill="white"/>
  <path fill-rule="evenodd" clip-rule="evenodd" d="M418.57 18.4674C416.628 18.3837 415.09 17.7214 413.958 16.4807C412.259 14.6196 412.077 13.2352 412.077 13.0714C412.077 12.8844 412.57 13.2313 413.171 13.6547C413.663 14.0007 414.228 14.3977 414.655 14.5961C415.357 14.9222 417.617 15.5634 419.881 16.2055C420.681 16.4323 421.481 16.6592 422.213 16.8724C424.152 17.4372 424.291 18.7052 424.291 19.3384C424.291 20.1886 423.531 20.7696 422.82 20.8821C422.187 20.9824 421.054 21.5918 421.145 22.5249C421.94 23.2019 422.651 23.9025 423.15 24.5408C423.851 25.095 424.34 25.7074 423.767 26.492L423.757 26.506C423.22 27.2281 421.891 26.4339 420.72 25.7347C420.015 25.3136 419.368 24.927 418.986 24.927C418.744 24.927 418.463 24.9432 418.151 24.9612L418.151 24.9612C417.16 25.0186 415.854 25.0941 414.452 24.7237C413.796 24.5504 413.23 24.2418 412.748 23.9163C412.451 23.8705 411.868 23.3321 411.599 23.0836C411.521 23.0119 411.469 22.9643 411.458 22.9597C411.073 22.7979 410.708 22.7692 410.596 22.7671C410.557 22.7664 410.519 22.7683 410.482 22.7726C410.37 22.8191 410.255 22.8807 410.126 22.9498C409.749 23.1514 409.252 23.4173 408.374 23.5616L408.349 23.5655C408.282 23.5759 408.214 23.5837 408.146 23.5891C408.122 23.5927 408.099 23.5963 408.075 23.5998C407.949 23.6181 407.824 23.6144 407.699 23.5919C406.853 23.5406 406.012 23.1908 405.409 22.9405C405.059 22.7948 404.789 22.6828 404.647 22.6828C404.39 22.6828 404.385 22.7634 404.369 23.0722C404.356 23.3064 404.336 23.6721 404.194 24.2336C403.863 25.535 402.188 26.3275 401.4 25.2222C400.613 24.1169 403.05 20.8336 403.244 20.6427C403.437 20.4518 404.02 19.925 404.478 20.247C404.83 20.4938 405.114 20.6646 405.457 20.6251C405.473 20.5715 405.502 20.5338 405.544 20.5153C405.688 20.4516 405.788 20.1862 405.919 19.8377C406.254 18.9486 406.791 17.5187 408.797 17.5187C408.835 17.5187 408.872 17.5189 408.909 17.5191C408.939 17.5191 408.97 17.5194 409.001 17.5202C409.291 17.5245 409.524 17.5383 409.724 17.5618C409.772 17.5674 409.868 17.5807 409.987 17.6111C411.102 17.7787 412.027 18.1367 412.904 18.476C413.804 18.8245 414.654 19.1532 415.605 19.2353C417.014 19.357 418.003 19.101 418.57 18.4674ZM422.58 18.6328C422.707 18.7266 422.822 18.7905 422.927 18.8248C422.743 18.9519 422.525 18.9894 422.273 18.9374C421.895 18.8595 421.812 18.6459 421.759 18.5008C421.726 18.4114 421.522 18.3181 421.394 18.2597C421.315 18.2234 421.265 18.2005 421.304 18.2005C421.334 18.2005 421.389 18.1938 421.46 18.1853C421.633 18.1643 421.896 18.1325 422.088 18.1617C422.254 18.1868 422.33 18.3047 422.407 18.4247C422.457 18.501 422.507 18.5782 422.58 18.6328Z" fill="white"/>
  <circle cx="412.767" cy="171.577" r="20.3578" fill="white"/>
  <circle cx="412.767" cy="171.577" r="20.3578" fill="url(#paint2_radial)" fill-opacity="0.7"/>
  <path fill-rule="evenodd" clip-rule="evenodd" d="M405.242 160.068C405.978 159.756 409.446 164.622 412.989 170.936C416.532 177.249 418.809 182.621 418.074 182.933C417.338 183.244 413.87 178.379 410.327 172.065C406.784 165.751 404.507 160.38 405.242 160.068ZM405.913 161.377C405.454 161.572 407.754 166.493 410.892 172.084C414.029 177.675 417.075 182.279 417.534 182.085C417.994 181.89 415.693 176.969 412.556 171.378C409.418 165.787 406.373 161.182 405.913 161.377Z" fill="white"/>
  <path fill-rule="evenodd" clip-rule="evenodd" d="M405.118 160.354C405.223 160.31 405.56 160.715 406.062 161.445C406.011 161.419 405.971 161.412 405.941 161.424C405.477 161.619 407.798 166.516 410.963 172.08C413.883 177.215 416.725 181.513 417.511 181.995C417.71 182.489 417.785 182.781 417.705 182.814C416.963 183.125 413.967 178.346 410.393 172.062C406.818 165.778 404.377 160.664 405.118 160.354Z" fill="white"/>
  <path fill-rule="evenodd" clip-rule="evenodd" d="M418.57 169.686C416.628 169.602 415.09 168.94 413.958 167.699C412.259 165.838 412.077 164.454 412.077 164.29C412.077 164.103 412.57 164.45 413.171 164.873C413.663 165.219 414.228 165.616 414.655 165.815C415.357 166.141 417.617 166.782 419.881 167.424C420.681 167.651 421.481 167.878 422.213 168.091C424.152 168.656 424.291 169.924 424.291 170.557C424.291 171.407 423.531 171.988 422.82 172.101C422.187 172.201 421.054 172.811 421.145 173.744C421.94 174.421 422.651 175.121 423.149 175.759C423.85 176.313 424.339 176.925 423.769 177.709L423.757 177.725C423.22 178.447 421.891 177.653 420.72 176.954C420.015 176.532 419.368 176.146 418.986 176.146C418.744 176.146 418.463 176.162 418.151 176.18L418.151 176.18C417.16 176.237 415.854 176.313 414.452 175.943C413.796 175.769 413.23 175.461 412.748 175.135C412.451 175.089 411.868 174.551 411.599 174.302C411.521 174.231 411.469 174.183 411.458 174.179C411.073 174.017 410.708 173.988 410.596 173.986C410.557 173.985 410.519 173.987 410.482 173.991C410.37 174.038 410.255 174.1 410.126 174.169C409.749 174.37 409.252 174.636 408.374 174.78C408.364 174.782 408.354 174.784 408.344 174.785C408.279 174.795 408.213 174.803 408.147 174.808C408.123 174.811 408.099 174.815 408.075 174.819C407.949 174.837 407.823 174.833 407.699 174.811C406.853 174.759 406.011 174.41 405.409 174.159C405.059 174.014 404.789 173.902 404.647 173.902C404.39 173.902 404.385 173.982 404.369 174.291C404.356 174.525 404.336 174.891 404.194 175.452C403.863 176.754 402.188 177.546 401.4 176.441C400.613 175.336 403.05 172.052 403.244 171.861C403.437 171.671 404.02 171.144 404.478 171.466C404.83 171.713 405.114 171.883 405.457 171.844C405.473 171.79 405.502 171.753 405.544 171.734C405.688 171.67 405.788 171.405 405.919 171.056C406.254 170.167 406.791 168.738 408.797 168.738C408.832 168.738 408.867 168.738 408.901 168.738C408.937 168.738 408.972 168.738 409.009 168.739C409.295 168.744 409.526 168.757 409.724 168.781C409.772 168.786 409.868 168.799 409.986 168.83C411.102 168.997 412.027 169.355 412.904 169.695C413.804 170.043 414.654 170.372 415.605 170.454C417.014 170.576 418.003 170.32 418.57 169.686ZM422.58 169.852C422.707 169.945 422.822 170.009 422.927 170.044C422.743 170.171 422.525 170.208 422.273 170.156C421.895 170.078 421.812 169.865 421.759 169.72C421.726 169.63 421.522 169.537 421.394 169.479C421.315 169.442 421.265 169.419 421.304 169.419C421.334 169.419 421.389 169.413 421.46 169.404C421.633 169.383 421.896 169.351 422.088 169.381C422.254 169.406 422.33 169.524 422.407 169.644C422.457 169.72 422.507 169.797 422.58 169.852Z" fill="white"/>
  <circle cx="341.358" cy="130.505" r="20.3578" fill="white"/>
  <circle cx="341.358" cy="130.505" r="20.3578" fill="url(#paint3_radial)" fill-opacity="0.7"/>
  <path fill-rule="evenodd" clip-rule="evenodd" d="M333.831 118.997C334.567 118.685 338.035 123.55 341.578 129.864C345.121 136.178 347.398 141.549 346.663 141.861C345.927 142.173 342.459 137.308 338.916 130.994C335.373 124.68 333.096 119.309 333.831 118.997ZM334.502 120.306C334.043 120.501 336.343 125.421 339.481 131.012C342.618 136.604 345.663 141.208 346.123 141.013C346.582 140.818 344.282 135.898 341.145 130.307C338.007 124.715 334.962 120.111 334.502 120.306Z" fill="white"/>
  <path fill-rule="evenodd" clip-rule="evenodd" d="M333.708 119.282C333.812 119.239 334.15 119.644 334.652 120.374C334.601 120.348 334.561 120.341 334.531 120.353C334.067 120.547 336.387 125.445 339.553 131.009C342.473 136.144 345.314 140.442 346.1 140.923C346.3 141.418 346.375 141.709 346.295 141.743C345.553 142.053 342.557 137.274 338.983 130.991C335.408 124.707 332.966 119.593 333.708 119.282Z" fill="white"/>
  <path fill-rule="evenodd" clip-rule="evenodd" d="M347.16 128.615C345.218 128.531 343.68 127.869 342.548 126.628C340.849 124.767 340.666 123.383 340.666 123.219C340.666 123.032 341.16 123.379 341.761 123.802C342.253 124.148 342.818 124.545 343.245 124.744C343.947 125.07 346.207 125.711 348.471 126.353C349.271 126.58 350.071 126.807 350.802 127.02C352.742 127.585 352.881 128.853 352.881 129.486C352.881 130.336 352.12 130.917 351.41 131.03C350.777 131.13 349.643 131.739 349.734 132.672C350.53 133.349 351.241 134.05 351.739 134.688C352.441 135.242 352.93 135.855 352.357 136.64L352.347 136.654C351.81 137.376 350.48 136.581 349.31 135.882C348.605 135.461 347.958 135.074 347.576 135.074C347.333 135.074 347.053 135.091 346.741 135.109L346.741 135.109C345.75 135.166 344.444 135.242 343.042 134.871C342.385 134.698 341.821 134.39 341.338 134.064C341.042 134.019 340.458 133.48 340.188 133.231C340.111 133.16 340.059 133.112 340.048 133.107C339.662 132.946 339.298 132.917 339.186 132.915C339.147 132.914 339.108 132.916 339.071 132.92C338.96 132.967 338.845 133.028 338.716 133.097C338.339 133.299 337.842 133.565 336.964 133.709C336.955 133.711 336.946 133.712 336.936 133.713C336.871 133.723 336.805 133.731 336.738 133.736C336.714 133.74 336.69 133.744 336.665 133.747C336.538 133.766 336.412 133.762 336.287 133.739C335.442 133.688 334.601 133.338 333.999 133.088C333.648 132.942 333.379 132.83 333.237 132.83C332.98 132.83 332.975 132.911 332.959 133.22C332.946 133.454 332.926 133.82 332.784 134.381C332.453 135.682 330.778 136.475 329.99 135.37C329.203 134.264 331.639 130.981 331.833 130.79C332.027 130.599 332.61 130.072 333.068 130.394C333.42 130.641 333.704 130.812 334.047 130.773C334.063 130.719 334.091 130.681 334.133 130.663C334.278 130.599 334.378 130.334 334.509 129.985C334.843 129.096 335.381 127.666 337.387 127.666C337.417 127.666 337.448 127.667 337.477 127.667C337.522 127.666 337.567 127.667 337.613 127.668C337.892 127.673 338.119 127.687 338.314 127.709C338.361 127.715 338.457 127.728 338.575 127.758C339.691 127.926 340.616 128.284 341.494 128.623C342.394 128.972 343.243 129.301 344.195 129.383C345.604 129.504 346.593 129.248 347.16 128.615ZM351.17 128.78C351.296 128.874 351.412 128.938 351.517 128.972C351.333 129.099 351.114 129.137 350.862 129.085C350.484 129.007 350.402 128.793 350.349 128.648C350.316 128.559 350.112 128.466 349.984 128.407C349.905 128.371 349.855 128.348 349.894 128.348C349.924 128.348 349.979 128.341 350.05 128.333C350.223 128.312 350.485 128.28 350.678 128.309C350.843 128.334 350.92 128.452 350.997 128.572C351.046 128.649 351.096 128.726 351.17 128.78Z" fill="white"/>
  <circle cx="484.642" cy="130.505" r="20.3578" fill="white"/>
  <circle cx="484.642" cy="130.505" r="20.3578" fill="url(#paint4_radial)" fill-opacity="0.7"/>
  <path fill-rule="evenodd" clip-rule="evenodd" d="M477.115 118.997C477.851 118.685 481.319 123.55 484.862 129.864C488.406 136.178 490.682 141.549 489.947 141.861C489.212 142.173 485.743 137.308 482.2 130.994C478.657 124.68 476.38 119.309 477.115 118.997ZM477.786 120.306C477.327 120.501 479.627 125.421 482.765 131.012C485.902 136.604 488.948 141.208 489.407 141.013C489.867 140.818 487.566 135.898 484.429 130.307C481.291 124.715 478.246 120.111 477.786 120.306Z" fill="white"/>
  <path fill-rule="evenodd" clip-rule="evenodd" d="M476.992 119.282C477.097 119.239 477.434 119.644 477.936 120.374C477.885 120.348 477.845 120.341 477.815 120.353C477.351 120.547 479.672 125.445 482.837 131.009C485.757 136.144 488.599 140.442 489.385 140.923C489.584 141.418 489.659 141.709 489.579 141.743C488.837 142.053 485.841 137.274 482.267 130.991C478.692 124.707 476.251 119.593 476.992 119.282Z" fill="white"/>
  <path fill-rule="evenodd" clip-rule="evenodd" d="M490.444 128.615C488.502 128.531 486.964 127.869 485.832 126.628C484.133 124.767 483.951 123.383 483.951 123.219C483.951 123.032 484.444 123.379 485.045 123.802C485.537 124.148 486.102 124.545 486.529 124.744C487.231 125.07 489.491 125.711 491.755 126.353C492.555 126.58 493.355 126.807 494.087 127.02C496.026 127.585 496.165 128.853 496.165 129.486C496.165 130.336 495.405 130.917 494.694 131.03C494.061 131.13 492.928 131.739 493.019 132.672C493.814 133.349 494.525 134.05 495.023 134.688C495.726 135.244 496.216 135.857 495.638 136.645L495.631 136.653C495.094 137.376 493.765 136.581 492.594 135.882C491.889 135.461 491.242 135.074 490.86 135.074C490.618 135.074 490.337 135.091 490.025 135.109L490.025 135.109C489.034 135.166 487.728 135.242 486.326 134.871C485.67 134.698 485.105 134.389 484.622 134.064C484.326 134.019 483.742 133.48 483.472 133.231C483.395 133.159 483.343 133.112 483.332 133.107C482.946 132.946 482.582 132.917 482.47 132.915C482.431 132.914 482.393 132.916 482.355 132.92C482.244 132.967 482.129 133.028 482 133.097C481.623 133.299 481.126 133.565 480.248 133.709L480.225 133.713C480.158 133.723 480.09 133.731 480.021 133.736C479.998 133.74 479.973 133.744 479.949 133.747C479.822 133.766 479.696 133.762 479.571 133.739C478.726 133.688 477.885 133.338 477.283 133.088C476.933 132.942 476.663 132.83 476.521 132.83C476.264 132.83 476.26 132.911 476.243 133.22C476.23 133.454 476.21 133.82 476.068 134.381C475.737 135.682 474.062 136.475 473.274 135.37C472.487 134.264 474.924 130.981 475.118 130.79C475.311 130.599 475.894 130.072 476.352 130.394C476.704 130.641 476.988 130.812 477.331 130.773C477.347 130.719 477.375 130.681 477.417 130.663C477.562 130.599 477.662 130.334 477.793 129.985C478.127 129.096 478.665 127.666 480.671 127.666C480.703 127.666 480.735 127.666 480.766 127.667C480.808 127.666 480.85 127.667 480.893 127.668C481.174 127.673 481.402 127.686 481.598 127.709C481.645 127.715 481.741 127.728 481.859 127.758C482.975 127.926 483.901 128.284 484.778 128.623C485.678 128.972 486.528 129.301 487.479 129.383C488.888 129.504 489.877 129.248 490.444 128.615ZM494.454 128.78C494.581 128.874 494.696 128.938 494.801 128.972C494.617 129.099 494.399 129.137 494.147 129.085C493.769 129.007 493.686 128.793 493.633 128.648C493.6 128.559 493.396 128.466 493.268 128.407C493.189 128.371 493.139 128.348 493.178 128.348C493.208 128.348 493.263 128.341 493.334 128.333C493.507 128.312 493.769 128.28 493.962 128.309C494.128 128.334 494.204 128.452 494.281 128.572C494.331 128.648 494.38 128.726 494.454 128.78Z" fill="white"/>
  <circle cx="341.358" cy="60.9623" r="20.3578" fill="white"/>
  <circle cx="341.358" cy="60.9623" r="20.3578" fill="url(#paint5_radial)" fill-opacity="0.7"/>
  <path fill-rule="evenodd" clip-rule="evenodd" d="M333.831 49.4536C334.567 49.1419 338.035 54.0075 341.578 60.3213C345.121 66.6351 347.398 72.0063 346.663 72.3184C345.927 72.6301 342.459 67.7646 338.916 61.4508C335.373 55.1369 333.096 49.7657 333.831 49.4536ZM334.502 50.7627C334.043 50.9577 336.343 55.8783 339.481 61.4694C342.618 67.0606 345.663 71.6651 346.123 71.4703C346.582 71.2752 344.282 66.3547 341.145 60.7635C338.007 55.1724 334.962 50.5679 334.502 50.7627Z" fill="white"/>
  <path fill-rule="evenodd" clip-rule="evenodd" d="M333.708 49.7395C333.812 49.6959 334.15 50.1012 334.652 50.831C334.601 50.805 334.561 50.7978 334.531 50.8102C334.067 51.0044 336.387 55.9017 339.553 61.4662C342.473 66.6007 345.314 70.8991 346.1 71.3805C346.3 71.8746 346.375 72.1665 346.295 72.2C345.553 72.5105 342.557 67.7315 338.983 61.4477C335.408 55.1639 332.966 50.0501 333.708 49.7395Z" fill="white"/>
  <path fill-rule="evenodd" clip-rule="evenodd" d="M347.16 59.0719C345.218 58.9882 343.68 58.3259 342.548 57.0852C340.849 55.2241 340.666 53.8397 340.666 53.6759C340.666 53.4889 341.16 53.8358 341.761 54.2592C342.253 54.6052 342.818 55.0022 343.245 55.2006C343.947 55.5267 346.207 56.1679 348.471 56.81C349.271 57.0368 350.071 57.2637 350.802 57.4769C352.742 58.0417 352.881 59.3097 352.881 59.9429C352.881 60.7931 352.12 61.3741 351.41 61.4866C350.777 61.5869 349.643 62.1964 349.734 63.1296C350.53 63.8064 351.24 64.5067 351.739 65.1449C352.439 65.6986 352.929 66.3103 352.359 67.0937C352.355 67.0994 352.351 67.1051 352.347 67.1107C351.81 67.8328 350.48 67.0385 349.31 66.3394C348.605 65.9183 347.958 65.5316 347.576 65.5316C347.333 65.5316 347.053 65.5479 346.741 65.5659L346.741 65.5659C345.75 65.6233 344.444 65.6988 343.042 65.3284C342.385 65.1551 341.82 64.8465 341.338 64.521C341.041 64.4752 340.458 63.9368 340.188 63.6883C340.111 63.6165 340.059 63.569 340.048 63.5644C339.662 63.4026 339.298 63.3739 339.186 63.3718C339.147 63.3711 339.109 63.373 339.071 63.3773C338.96 63.4238 338.845 63.4854 338.716 63.5545C338.339 63.7561 337.842 64.0219 336.964 64.1663C336.952 64.1682 336.94 64.17 336.928 64.1716C336.865 64.1811 336.802 64.1883 336.738 64.1934C336.714 64.1972 336.689 64.2008 336.665 64.2044C336.538 64.2228 336.412 64.219 336.288 64.1963C335.442 64.1447 334.601 63.7952 333.999 63.545C333.648 63.3993 333.379 63.2873 333.237 63.2873C332.98 63.2873 332.975 63.3679 332.959 63.6767C332.946 63.9109 332.926 64.2766 332.784 64.8381C332.453 66.1395 330.778 66.932 329.99 65.8267C329.203 64.7214 331.639 61.4381 331.833 61.2472C332.027 61.0563 332.61 60.5295 333.068 60.8515C333.42 61.0983 333.704 61.2691 334.047 61.2296C334.063 61.1761 334.091 61.1384 334.133 61.1199C334.278 61.0563 334.378 60.7909 334.509 60.4423C334.843 59.5532 335.381 58.1234 337.387 58.1234C337.419 58.1234 337.45 58.1235 337.481 58.1237C337.523 58.1234 337.566 58.1239 337.609 58.1251C337.89 58.1297 338.118 58.1435 338.314 58.1665C338.361 58.1721 338.457 58.1853 338.575 58.2153C339.691 58.3828 340.617 58.741 341.494 59.0805C342.394 59.429 343.243 59.7577 344.195 59.8398C345.604 59.9615 346.593 59.7055 347.16 59.0719ZM351.17 59.2375C351.296 59.3312 351.412 59.3952 351.517 59.4294C351.333 59.5565 351.114 59.5941 350.862 59.5421C350.484 59.4642 350.402 59.2505 350.349 59.1055C350.316 59.0161 350.112 58.9228 349.984 58.8644C349.905 58.828 349.855 58.8052 349.894 58.8052C349.924 58.8052 349.979 58.7985 350.05 58.7899C350.223 58.769 350.485 58.7372 350.678 58.7664C350.843 58.7915 350.92 58.9094 350.997 59.0294C351.046 59.1057 351.096 59.1828 351.17 59.2375Z" fill="white"/>
  <circle cx="484.642" cy="60.9623" r="20.3578" fill="white"/>
  <circle cx="484.642" cy="60.9623" r="20.3578" fill="url(#paint6_radial)" fill-opacity="0.7"/>
  <path fill-rule="evenodd" clip-rule="evenodd" d="M477.117 49.4536C477.853 49.1419 481.321 54.0075 484.864 60.3213C488.407 66.6351 490.684 72.0063 489.949 72.3184C489.213 72.6301 485.745 67.7646 482.202 61.4508C478.659 55.1369 476.382 49.7657 477.117 49.4536ZM477.788 50.7627C477.329 50.9577 479.629 55.8783 482.767 61.4694C485.904 67.0606 488.95 71.6651 489.409 71.4703C489.869 71.2752 487.568 66.3547 484.431 60.7635C481.293 55.1724 478.248 50.5679 477.788 50.7627Z" fill="white"/>
  <path fill-rule="evenodd" clip-rule="evenodd" d="M476.993 49.7395C477.098 49.6959 477.435 50.1012 477.937 50.831C477.886 50.805 477.846 50.7978 477.816 50.8102C477.352 51.0044 479.673 55.9017 482.838 61.4662C485.758 66.6007 488.6 70.8991 489.386 71.3805C489.585 71.8746 489.66 72.1665 489.58 72.2C488.838 72.5105 485.842 67.7315 482.268 61.4477C478.693 55.1639 476.252 50.0501 476.993 49.7395Z" fill="white"/>
  <path fill-rule="evenodd" clip-rule="evenodd" d="M490.445 59.0719C488.503 58.9882 486.965 58.3259 485.833 57.0852C484.134 55.2241 483.952 53.8397 483.952 53.6759C483.952 53.4889 484.445 53.8358 485.046 54.2592C485.538 54.6052 486.103 55.0022 486.53 55.2006C487.232 55.5267 489.492 56.1679 491.756 56.81C492.556 57.0368 493.356 57.2637 494.088 57.4769C496.027 58.0417 496.166 59.3097 496.166 59.9429C496.166 60.7931 495.406 61.3741 494.695 61.4866C494.062 61.5869 492.928 62.1963 493.02 63.1295C493.815 63.8064 494.526 64.5069 495.024 65.1451C495.724 65.6981 496.213 66.309 495.646 67.091C495.642 67.0976 495.637 67.1042 495.632 67.1107C495.095 67.8328 493.766 67.0385 492.595 66.3394C491.89 65.9183 491.243 65.5316 490.862 65.5316C490.619 65.5316 490.338 65.5479 490.026 65.5659L490.026 65.5659C489.035 65.6233 487.73 65.6988 486.327 65.3284C485.671 65.1551 485.106 64.8465 484.623 64.521C484.327 64.4754 483.743 63.9368 483.474 63.6883C483.396 63.6165 483.344 63.569 483.333 63.5644C482.948 63.4026 482.583 63.3739 482.471 63.3718C482.432 63.3711 482.394 63.373 482.357 63.3773C482.245 63.4238 482.13 63.4854 482.001 63.5545C481.624 63.7561 481.127 64.0219 480.249 64.1663C480.237 64.1683 480.225 64.1701 480.213 64.1717C480.15 64.1811 480.086 64.1883 480.023 64.1934C479.999 64.1972 479.975 64.2008 479.95 64.2044C479.824 64.2229 479.697 64.219 479.573 64.1963C478.727 64.1447 477.886 63.7951 477.284 63.545C476.934 63.3993 476.664 63.2873 476.522 63.2873C476.265 63.2873 476.26 63.3679 476.244 63.6767C476.231 63.9109 476.211 64.2766 476.069 64.8381C475.738 66.1395 474.063 66.932 473.275 65.8267C472.488 64.7214 474.925 61.4381 475.119 61.2472C475.312 61.0563 475.895 60.5295 476.353 60.8515C476.705 61.0983 476.989 61.2691 477.332 61.2296C477.348 61.1761 477.376 61.1384 477.419 61.1199C477.563 61.0563 477.663 60.7909 477.794 60.4423C478.128 59.5532 478.666 58.1234 480.672 58.1234C480.704 58.1234 480.736 58.1235 480.767 58.1237C480.808 58.1234 480.851 58.1239 480.894 58.1251C481.175 58.1297 481.403 58.1435 481.599 58.1665C481.646 58.1721 481.742 58.1853 481.86 58.2153C482.976 58.3828 483.902 58.741 484.779 59.0805C485.679 59.429 486.529 59.7577 487.48 59.8398C488.889 59.9615 489.878 59.7055 490.445 59.0719ZM494.455 59.2375C494.582 59.3312 494.697 59.3952 494.802 59.4294C494.618 59.5565 494.4 59.5941 494.148 59.5421C493.77 59.4642 493.687 59.2505 493.634 59.1055C493.601 59.0161 493.397 58.9228 493.269 58.8644C493.19 58.828 493.14 58.8052 493.179 58.8052C493.209 58.8052 493.264 58.7985 493.335 58.7899C493.508 58.769 493.771 58.7372 493.963 58.7664C494.129 58.7915 494.205 58.9094 494.282 59.0294C494.332 59.1057 494.381 59.1828 494.455 59.2375Z" fill="white"/>
  <g filter="url(#filter0_d)">
    <path fill-rule="evenodd" clip-rule="evenodd" d="M25 318C25 306.954 33.9543 298 45 298H328C339.046 298 348 306.954 348 318V383C348 394.046 339.046 403 328 403H45C33.9543 403 25 394.046 25 383V318Z" fill="white"/>
    <path d="M25.5 318C25.5 307.23 34.2304 298.5 45 298.5H328C338.77 298.5 347.5 307.23 347.5 318V383C347.5 393.77 338.77 402.5 328 402.5H45C34.2304 402.5 25.5 393.77 25.5 383V318Z" stroke="#EAF1F3"/>
  </g>
  <path d="M143.935 333H153.855V330.8H146.535V319H143.935V333ZM160.37 333.14C163.69 333.14 166.07 330.86 166.07 327.66C166.07 324.46 163.69 322.2 160.37 322.2C157.09 322.2 154.69 324.46 154.69 327.66C154.69 330.86 157.09 333.14 160.37 333.14ZM160.37 331C158.57 331 157.21 329.7 157.21 327.66C157.21 325.62 158.57 324.32 160.37 324.32C162.19 324.32 163.55 325.62 163.55 327.66C163.55 329.7 162.19 331 160.37 331ZM173.36 333.14C175.44 333.14 177.1 332.24 177.92 330.64L176 329.52C175.36 330.54 174.4 331 173.34 331C171.5 331 170.1 329.74 170.1 327.66C170.1 325.6 171.5 324.32 173.34 324.32C174.4 324.32 175.36 324.78 176 325.8L177.92 324.68C177.1 323.06 175.44 322.2 173.36 322.2C169.98 322.2 167.58 324.46 167.58 327.66C167.58 330.86 169.98 333.14 173.36 333.14ZM188.044 333H191.084L186.204 326.8L190.664 322.32H187.664L182.484 327.12V318.16H179.984V333H182.484V330.18L184.344 328.42L188.044 333ZM193.861 320.56C194.801 320.56 195.461 319.88 195.461 319C195.461 318.18 194.781 317.56 193.861 317.56C192.941 317.56 192.261 318.22 192.261 319.06C192.261 319.9 192.941 320.56 193.861 320.56ZM192.601 333H195.101V322.32H192.601V333ZM204.442 322.2C202.882 322.2 201.582 322.72 200.762 323.7V322.32H198.382V333H200.882V327.6C200.882 325.46 202.082 324.38 203.862 324.38C205.462 324.38 206.402 325.3 206.402 327.2V333H208.902V326.88C208.902 323.66 207.002 322.2 204.442 322.2ZM220.391 322.32V323.74C219.511 322.68 218.191 322.2 216.691 322.2C213.631 322.2 211.291 324.24 211.291 327.34C211.291 330.44 213.631 332.52 216.691 332.52C218.131 332.52 219.391 332.06 220.271 331.1V331.66C220.271 333.82 219.231 334.9 216.871 334.9C215.391 334.9 213.871 334.4 212.931 333.62L211.811 335.5C213.031 336.5 215.011 337.02 217.011 337.02C220.751 337.02 222.771 335.26 222.771 331.38V322.32H220.391ZM217.071 330.4C215.171 330.4 213.811 329.16 213.811 327.34C213.811 325.54 215.171 324.32 217.071 324.32C218.951 324.32 220.311 325.54 220.311 327.34C220.311 329.16 218.951 330.4 217.071 330.4ZM132.789 358.12C136.989 358.12 140.129 355.1 140.129 351C140.129 346.9 136.989 343.88 132.789 343.88C128.549 343.88 125.429 346.92 125.429 351C125.429 355.08 128.549 358.12 132.789 358.12ZM132.789 356.8C129.409 356.8 126.889 354.34 126.889 351C126.889 347.66 129.409 345.2 132.789 345.2C136.149 345.2 138.649 347.66 138.649 351C138.649 354.34 136.149 356.8 132.789 356.8ZM144.506 349.54V347.48H143.146V358H144.566V352.64C144.566 350.16 145.906 348.76 148.106 348.76C148.206 348.76 148.326 348.78 148.446 348.78V347.4C146.506 347.4 145.166 348.14 144.506 349.54ZM151.737 345.18C152.337 345.18 152.777 344.72 152.777 344.14C152.777 343.6 152.317 343.16 151.737 343.16C151.157 343.16 150.697 343.62 150.697 344.16C150.697 344.72 151.157 345.18 151.737 345.18ZM151.017 358H152.437V347.48H151.017V358ZM164.768 347.48V349.5C163.888 348.12 162.368 347.4 160.608 347.4C157.608 347.4 155.328 349.46 155.328 352.48C155.328 355.5 157.608 357.6 160.608 357.6C162.328 357.6 163.828 356.9 164.708 355.56V356.9C164.708 359.5 163.488 360.72 160.828 360.72C159.208 360.72 157.688 360.18 156.688 359.28L155.968 360.36C157.068 361.4 158.948 361.98 160.868 361.98C164.348 361.98 166.128 360.34 166.128 356.72V347.48H164.768ZM160.748 356.34C158.428 356.34 156.768 354.76 156.768 352.48C156.768 350.2 158.428 348.64 160.748 348.64C163.068 348.64 164.748 350.2 164.748 352.48C164.748 354.76 163.068 356.34 160.748 356.34ZM170.819 345.18C171.419 345.18 171.859 344.72 171.859 344.14C171.859 343.6 171.399 343.16 170.819 343.16C170.239 343.16 169.779 343.62 169.779 344.16C169.779 344.72 170.239 345.18 170.819 345.18ZM170.099 358H171.519V347.48H170.099V358ZM180.83 347.4C179.01 347.4 177.59 348.14 176.83 349.42V347.48H175.47V358H176.89V352.48C176.89 350.08 178.31 348.68 180.57 348.68C182.57 348.68 183.73 349.82 183.73 352.04V358H185.15V351.9C185.15 348.88 183.39 347.4 180.83 347.4ZM198.6 358.1C200.38 358.1 201.88 357.38 202.72 356.02L201.66 355.3C200.94 356.36 199.82 356.84 198.6 356.84C196.3 356.84 194.62 355.22 194.62 352.74C194.62 350.28 196.3 348.64 198.6 348.64C199.82 348.64 200.94 349.14 201.66 350.2L202.72 349.48C201.88 348.1 200.38 347.4 198.6 347.4C195.46 347.4 193.18 349.6 193.18 352.74C193.18 355.88 195.46 358.1 198.6 358.1ZM210.713 347.4C208.933 347.4 207.553 348.1 206.773 349.32V343.16H205.353V358H206.773V352.48C206.773 350.08 208.193 348.68 210.453 348.68C212.453 348.68 213.613 349.82 213.613 352.04V358H215.033V351.9C215.033 348.88 213.273 347.4 210.713 347.4ZM222.568 347.4C220.908 347.4 219.348 347.92 218.288 348.82L218.928 349.88C219.788 349.12 221.068 348.64 222.428 348.64C224.388 348.64 225.408 349.62 225.408 351.42V352.06H222.068C219.048 352.06 218.008 353.42 218.008 355.04C218.008 356.86 219.468 358.1 221.848 358.1C223.588 358.1 224.828 357.44 225.468 356.36V358H226.828V351.48C226.828 348.76 225.288 347.4 222.568 347.4ZM222.068 356.98C220.388 356.98 219.408 356.22 219.408 355C219.408 353.92 220.068 353.12 222.108 353.12H225.408V354.84C224.848 356.22 223.668 356.98 222.068 356.98ZM231.405 345.18C232.005 345.18 232.445 344.72 232.445 344.14C232.445 343.6 231.985 343.16 231.405 343.16C230.825 343.16 230.365 343.62 230.365 344.16C230.365 344.72 230.825 345.18 231.405 345.18ZM230.685 358H232.105V347.48H230.685V358ZM241.416 347.4C239.596 347.4 238.176 348.14 237.416 349.42V347.48H236.056V358H237.476V352.48C237.476 350.08 238.896 348.68 241.156 348.68C243.156 348.68 244.316 349.82 244.316 352.04V358H245.736V351.9C245.736 348.88 243.976 347.4 241.416 347.4ZM110.167 383.12C113.747 383.12 115.387 381.36 115.387 379.3C115.387 374.2 106.767 376.52 106.767 372.68C106.767 371.28 107.907 370.14 110.467 370.14C111.707 370.14 113.107 370.52 114.307 371.3L114.807 370.12C113.687 369.34 112.047 368.88 110.467 368.88C106.907 368.88 105.307 370.66 105.307 372.72C105.307 377.9 113.927 375.54 113.927 379.38C113.927 380.76 112.787 381.86 110.167 381.86C108.327 381.86 106.547 381.14 105.547 380.16L104.967 381.3C106.007 382.38 108.067 383.12 110.167 383.12ZM131.432 372.4C129.532 372.4 128.032 373.26 127.272 374.62C126.632 373.14 125.272 372.4 123.532 372.4C121.772 372.4 120.412 373.14 119.672 374.4V372.48H118.312V383H119.732V377.48C119.732 375.08 121.112 373.68 123.252 373.68C125.172 373.68 126.292 374.82 126.292 377.04V383H127.712V377.48C127.712 375.08 129.072 373.68 131.232 373.68C133.132 373.68 134.252 374.82 134.252 377.04V383H135.672V376.9C135.672 373.88 133.992 372.4 131.432 372.4ZM143.203 372.4C141.543 372.4 139.983 372.92 138.923 373.82L139.563 374.88C140.423 374.12 141.703 373.64 143.063 373.64C145.023 373.64 146.043 374.62 146.043 376.42V377.06H142.703C139.683 377.06 138.643 378.42 138.643 380.04C138.643 381.86 140.103 383.1 142.483 383.1C144.223 383.1 145.463 382.44 146.103 381.36V383H147.463V376.48C147.463 373.76 145.923 372.4 143.203 372.4ZM142.703 381.98C141.023 381.98 140.043 381.22 140.043 380C140.043 378.92 140.703 378.12 142.743 378.12H146.043V379.84C145.483 381.22 144.303 381.98 142.703 381.98ZM152.68 374.54V372.48H151.32V383H152.74V377.64C152.74 375.16 154.08 373.76 156.28 373.76C156.38 373.76 156.5 373.78 156.62 373.78V372.4C154.68 372.4 153.34 373.14 152.68 374.54ZM164.68 381.34C164.28 381.7 163.7 381.88 163.12 381.88C161.94 381.88 161.3 381.2 161.3 379.96V373.68H164.5V372.48H161.3V370.18H159.88V372.48H158V373.68H159.88V380.04C159.88 381.98 160.98 383.1 162.96 383.1C163.78 383.1 164.62 382.86 165.18 382.36L164.68 381.34ZM177.36 383.1C179.14 383.1 180.64 382.38 181.48 381.02L180.42 380.3C179.7 381.36 178.58 381.84 177.36 381.84C175.06 381.84 173.38 380.22 173.38 377.74C173.38 375.28 175.06 373.64 177.36 373.64C178.58 373.64 179.7 374.14 180.42 375.2L181.48 374.48C180.64 373.1 179.14 372.4 177.36 372.4C174.22 372.4 171.94 374.6 171.94 377.74C171.94 380.88 174.22 383.1 177.36 383.1ZM188.393 383.1C191.473 383.1 193.733 380.86 193.733 377.74C193.733 374.62 191.473 372.4 188.393 372.4C185.313 372.4 183.033 374.62 183.033 377.74C183.033 380.86 185.313 383.1 188.393 383.1ZM188.393 381.84C186.153 381.84 184.473 380.2 184.473 377.74C184.473 375.28 186.153 373.64 188.393 373.64C190.633 373.64 192.293 375.28 192.293 377.74C192.293 380.2 190.633 381.84 188.393 381.84ZM201.992 372.4C200.172 372.4 198.752 373.14 197.992 374.42V372.48H196.632V383H198.052V377.48C198.052 375.08 199.472 373.68 201.732 373.68C203.732 373.68 204.892 374.82 204.892 377.04V383H206.312V376.9C206.312 373.88 204.552 372.4 201.992 372.4ZM215.208 381.34C214.808 381.7 214.228 381.88 213.648 381.88C212.468 381.88 211.828 381.2 211.828 379.96V373.68H215.028V372.48H211.828V370.18H210.408V372.48H208.528V373.68H210.408V380.04C210.408 381.98 211.508 383.1 213.488 383.1C214.308 383.1 215.148 382.86 215.708 382.36L215.208 381.34ZM219.653 374.54V372.48H218.293V383H219.713V377.64C219.713 375.16 221.053 373.76 223.253 373.76C223.353 373.76 223.473 373.78 223.593 373.78V372.4C221.653 372.4 220.313 373.14 219.653 374.54ZM229.824 372.4C228.164 372.4 226.604 372.92 225.544 373.82L226.184 374.88C227.044 374.12 228.324 373.64 229.684 373.64C231.644 373.64 232.664 374.62 232.664 376.42V377.06H229.324C226.304 377.06 225.264 378.42 225.264 380.04C225.264 381.86 226.724 383.1 229.104 383.1C230.844 383.1 232.084 382.44 232.724 381.36V383H234.084V376.48C234.084 373.76 232.544 372.4 229.824 372.4ZM229.324 381.98C227.644 381.98 226.664 381.22 226.664 380C226.664 378.92 227.324 378.12 229.364 378.12H232.664V379.84C232.104 381.22 230.924 381.98 229.324 381.98ZM242.34 383.1C244.12 383.1 245.62 382.38 246.46 381.02L245.4 380.3C244.68 381.36 243.56 381.84 242.34 381.84C240.04 381.84 238.36 380.22 238.36 377.74C238.36 375.28 240.04 373.64 242.34 373.64C243.56 373.64 244.68 374.14 245.4 375.2L246.46 374.48C245.62 373.1 244.12 372.4 242.34 372.4C239.2 372.4 236.92 374.6 236.92 377.74C236.92 380.88 239.2 383.1 242.34 383.1ZM254.407 381.34C254.007 381.7 253.427 381.88 252.847 381.88C251.667 381.88 251.027 381.2 251.027 379.96V373.68H254.227V372.48H251.027V370.18H249.607V372.48H247.727V373.68H249.607V380.04C249.607 381.98 250.707 383.1 252.687 383.1C253.507 383.1 254.347 382.86 254.907 382.36L254.407 381.34ZM260.926 369V370.28H264.226V383H265.666V369H260.926Z" fill="#001A34"/>
  <g filter="url(#filter1_d)">
    <path fill-rule="evenodd" clip-rule="evenodd" d="M479 318C479 306.954 487.954 298 499 298H782C793.046 298 802 306.954 802 318V378C802 389.046 793.046 398 782 398H499C487.954 398 479 389.046 479 378V318Z" fill="white"/>
    <path d="M479.5 318C479.5 307.23 488.23 298.5 499 298.5H782C792.77 298.5 801.5 307.23 801.5 318V378C801.5 388.77 792.77 397.5 782 397.5H499C488.23 397.5 479.5 388.77 479.5 378V318Z" stroke="#EAF1F3"/>
  </g>
  <path d="M614.182 330L614.162 316H612.022L606.562 325.28L601.002 316H598.862V330H601.342V320.84L605.942 328.4H607.102L611.702 320.72L611.722 330H614.182ZM618.984 317.56C619.924 317.56 620.584 316.88 620.584 316C620.584 315.18 619.904 314.56 618.984 314.56C618.064 314.56 617.384 315.22 617.384 316.06C617.384 316.9 618.064 317.56 618.984 317.56ZM617.724 330H620.224V319.32H617.724V330ZM629.565 319.2C628.005 319.2 626.705 319.72 625.885 320.7V319.32H623.505V330H626.005V324.6C626.005 322.46 627.205 321.38 628.985 321.38C630.585 321.38 631.525 322.3 631.525 324.2V330H634.025V323.88C634.025 320.66 632.125 319.2 629.565 319.2ZM642.917 327.64C642.537 327.94 642.037 328.08 641.517 328.08C640.557 328.08 640.037 327.52 640.037 326.48V321.4H642.897V319.4H640.037V316.96H637.537V319.4H635.777V321.4H637.537V326.54C637.537 328.9 638.877 330.14 641.217 330.14C642.117 330.14 643.017 329.9 643.617 329.42L642.917 327.64ZM646.933 317.56C647.873 317.56 648.533 316.88 648.533 316C648.533 315.18 647.853 314.56 646.933 314.56C646.013 314.56 645.333 315.22 645.333 316.06C645.333 316.9 646.013 317.56 646.933 317.56ZM645.673 330H648.173V319.32H645.673V330ZM657.514 319.2C655.954 319.2 654.654 319.72 653.834 320.7V319.32H651.454V330H653.954V324.6C653.954 322.46 655.154 321.38 656.934 321.38C658.534 321.38 659.474 322.3 659.474 324.2V330H661.974V323.88C661.974 320.66 660.074 319.2 657.514 319.2ZM673.464 319.32V320.74C672.584 319.68 671.264 319.2 669.764 319.2C666.704 319.2 664.364 321.24 664.364 324.34C664.364 327.44 666.704 329.52 669.764 329.52C671.204 329.52 672.464 329.06 673.344 328.1V328.66C673.344 330.82 672.304 331.9 669.944 331.9C668.464 331.9 666.944 331.4 666.004 330.62L664.884 332.5C666.104 333.5 668.084 334.02 670.084 334.02C673.824 334.02 675.844 332.26 675.844 328.38V319.32H673.464ZM670.144 327.4C668.244 327.4 666.884 326.16 666.884 324.34C666.884 322.54 668.244 321.32 670.144 321.32C672.024 321.32 673.384 322.54 673.384 324.34C673.384 326.16 672.024 327.4 670.144 327.4ZM553.598 355H559.298C563.778 355 566.798 352.12 566.798 348C566.798 343.88 563.778 341 559.298 341H553.598V355ZM555.078 353.72V342.28H559.218C562.938 342.28 565.338 344.64 565.338 348C565.338 351.36 562.938 353.72 559.218 353.72H555.078ZM579.002 349.74C579.002 346.58 576.862 344.4 573.902 344.4C570.942 344.4 568.762 346.62 568.762 349.74C568.762 352.86 571.002 355.1 574.282 355.1C575.942 355.1 577.402 354.5 578.342 353.38L577.542 352.46C576.742 353.38 575.602 353.84 574.322 353.84C572.022 353.84 570.342 352.38 570.182 350.18H578.982C578.982 350.02 579.002 349.86 579.002 349.74ZM573.902 345.62C575.962 345.62 577.462 347.06 577.642 349.12H570.182C570.362 347.06 571.862 345.62 573.902 345.62ZM584.712 355.1C587.452 355.1 589.052 353.92 589.052 352.1C589.052 348.06 582.232 350.2 582.232 347.36C582.232 346.36 583.072 345.62 584.972 345.62C586.052 345.62 587.152 345.88 588.072 346.52L588.692 345.38C587.812 344.78 586.332 344.4 584.972 344.4C582.292 344.4 580.812 345.68 580.812 347.4C580.812 351.56 587.632 349.4 587.632 352.14C587.632 353.18 586.812 353.86 584.812 353.86C583.332 353.86 581.912 353.34 581.072 352.68L580.432 353.8C581.292 354.54 582.972 355.1 584.712 355.1ZM596.717 353.34C596.317 353.7 595.737 353.88 595.157 353.88C593.977 353.88 593.337 353.2 593.337 351.96V345.68H596.537V344.48H593.337V342.18H591.917V344.48H590.037V345.68H591.917V352.04C591.917 353.98 593.017 355.1 594.997 355.1C595.817 355.1 596.657 354.86 597.217 354.36L596.717 353.34ZM600.522 342.18C601.122 342.18 601.562 341.72 601.562 341.14C601.562 340.6 601.102 340.16 600.522 340.16C599.942 340.16 599.482 340.62 599.482 341.16C599.482 341.72 599.942 342.18 600.522 342.18ZM599.802 355H601.222V344.48H599.802V355ZM610.533 344.4C608.713 344.4 607.293 345.14 606.533 346.42V344.48H605.173V355H606.593V349.48C606.593 347.08 608.013 345.68 610.273 345.68C612.273 345.68 613.433 346.82 613.433 349.04V355H614.853V348.9C614.853 345.88 613.093 344.4 610.533 344.4ZM622.389 344.4C620.729 344.4 619.169 344.92 618.109 345.82L618.749 346.88C619.609 346.12 620.889 345.64 622.249 345.64C624.209 345.64 625.229 346.62 625.229 348.42V349.06H621.889C618.869 349.06 617.829 350.42 617.829 352.04C617.829 353.86 619.289 355.1 621.669 355.1C623.409 355.1 624.649 354.44 625.289 353.36V355H626.649V348.48C626.649 345.76 625.109 344.4 622.389 344.4ZM621.889 353.98C620.209 353.98 619.229 353.22 619.229 352C619.229 350.92 619.889 350.12 621.929 350.12H625.229V351.84C624.669 353.22 623.489 353.98 621.889 353.98ZM635.545 353.34C635.145 353.7 634.565 353.88 633.985 353.88C632.805 353.88 632.165 353.2 632.165 351.96V345.68H635.365V344.48H632.165V342.18H630.745V344.48H628.865V345.68H630.745V352.04C630.745 353.98 631.845 355.1 633.825 355.1C634.645 355.1 635.485 354.86 636.045 354.36L635.545 353.34ZM639.35 342.18C639.95 342.18 640.39 341.72 640.39 341.14C640.39 340.6 639.93 340.16 639.35 340.16C638.77 340.16 638.31 340.62 638.31 341.16C638.31 341.72 638.77 342.18 639.35 342.18ZM638.63 355H640.05V344.48H638.63V355ZM648.301 355.1C651.381 355.1 653.641 352.86 653.641 349.74C653.641 346.62 651.381 344.4 648.301 344.4C645.221 344.4 642.941 346.62 642.941 349.74C642.941 352.86 645.221 355.1 648.301 355.1ZM648.301 353.84C646.061 353.84 644.381 352.2 644.381 349.74C644.381 347.28 646.061 345.64 648.301 345.64C650.541 345.64 652.201 347.28 652.201 349.74C652.201 352.2 650.541 353.84 648.301 353.84ZM661.901 344.4C660.081 344.4 658.661 345.14 657.901 346.42V344.48H656.541V355H657.961V349.48C657.961 347.08 659.381 345.68 661.641 345.68C663.641 345.68 664.801 346.82 664.801 349.04V355H666.221V348.9C666.221 345.88 664.461 344.4 661.901 344.4ZM679.67 355.1C681.45 355.1 682.95 354.38 683.79 353.02L682.73 352.3C682.01 353.36 680.89 353.84 679.67 353.84C677.37 353.84 675.69 352.22 675.69 349.74C675.69 347.28 677.37 345.64 679.67 345.64C680.89 345.64 682.01 346.14 682.73 347.2L683.79 346.48C682.95 345.1 681.45 344.4 679.67 344.4C676.53 344.4 674.25 346.6 674.25 349.74C674.25 352.88 676.53 355.1 679.67 355.1ZM691.783 344.4C690.003 344.4 688.623 345.1 687.843 346.32V340.16H686.423V355H687.843V349.48C687.843 347.08 689.263 345.68 691.523 345.68C693.523 345.68 694.683 346.82 694.683 349.04V355H696.103V348.9C696.103 345.88 694.343 344.4 691.783 344.4ZM703.639 344.4C701.979 344.4 700.419 344.92 699.359 345.82L699.999 346.88C700.859 346.12 702.139 345.64 703.499 345.64C705.459 345.64 706.479 346.62 706.479 348.42V349.06H703.139C700.119 349.06 699.079 350.42 699.079 352.04C699.079 353.86 700.539 355.1 702.919 355.1C704.659 355.1 705.899 354.44 706.539 353.36V355H707.899V348.48C707.899 345.76 706.359 344.4 703.639 344.4ZM703.139 353.98C701.459 353.98 700.479 353.22 700.479 352C700.479 350.92 701.139 350.12 703.179 350.12H706.479V351.84C705.919 353.22 704.739 353.98 703.139 353.98ZM712.475 342.18C713.075 342.18 713.515 341.72 713.515 341.14C713.515 340.6 713.055 340.16 712.475 340.16C711.895 340.16 711.435 340.62 711.435 341.16C711.435 341.72 711.895 342.18 712.475 342.18ZM711.755 355H713.175V344.48H711.755V355ZM722.486 344.4C720.666 344.4 719.246 345.14 718.486 346.42V344.48H717.126V355H718.546V349.48C718.546 347.08 719.966 345.68 722.226 345.68C724.226 345.68 725.386 346.82 725.386 349.04V355H726.806V348.9C726.806 345.88 725.046 344.4 722.486 344.4ZM562.097 380.12C565.677 380.12 567.317 378.36 567.317 376.3C567.317 371.2 558.697 373.52 558.697 369.68C558.697 368.28 559.837 367.14 562.397 367.14C563.637 367.14 565.037 367.52 566.237 368.3L566.737 367.12C565.617 366.34 563.977 365.88 562.397 365.88C558.837 365.88 557.237 367.66 557.237 369.72C557.237 374.9 565.857 372.54 565.857 376.38C565.857 377.76 564.717 378.86 562.097 378.86C560.257 378.86 558.477 378.14 557.477 377.16L556.897 378.3C557.937 379.38 559.997 380.12 562.097 380.12ZM583.362 369.4C581.462 369.4 579.962 370.26 579.202 371.62C578.562 370.14 577.202 369.4 575.462 369.4C573.702 369.4 572.342 370.14 571.602 371.4V369.48H570.242V380H571.662V374.48C571.662 372.08 573.042 370.68 575.182 370.68C577.102 370.68 578.222 371.82 578.222 374.04V380H579.642V374.48C579.642 372.08 581.002 370.68 583.162 370.68C585.062 370.68 586.182 371.82 586.182 374.04V380H587.602V373.9C587.602 370.88 585.922 369.4 583.362 369.4ZM595.133 369.4C593.473 369.4 591.913 369.92 590.853 370.82L591.493 371.88C592.353 371.12 593.633 370.64 594.993 370.64C596.953 370.64 597.973 371.62 597.973 373.42V374.06H594.633C591.613 374.06 590.573 375.42 590.573 377.04C590.573 378.86 592.033 380.1 594.413 380.1C596.153 380.1 597.393 379.44 598.033 378.36V380H599.393V373.48C599.393 370.76 597.853 369.4 595.133 369.4ZM594.633 378.98C592.953 378.98 591.973 378.22 591.973 377C591.973 375.92 592.633 375.12 594.673 375.12H597.973V376.84C597.413 378.22 596.233 378.98 594.633 378.98ZM604.61 371.54V369.48H603.25V380H604.67V374.64C604.67 372.16 606.01 370.76 608.21 370.76C608.31 370.76 608.43 370.78 608.55 370.78V369.4C606.61 369.4 605.27 370.14 604.61 371.54ZM616.61 378.34C616.21 378.7 615.63 378.88 615.05 378.88C613.87 378.88 613.23 378.2 613.23 376.96V370.68H616.43V369.48H613.23V367.18H611.81V369.48H609.93V370.68H611.81V377.04C611.81 378.98 612.91 380.1 614.89 380.1C615.71 380.1 616.55 379.86 617.11 379.36L616.61 378.34ZM629.289 380.1C631.069 380.1 632.569 379.38 633.409 378.02L632.349 377.3C631.629 378.36 630.509 378.84 629.289 378.84C626.989 378.84 625.309 377.22 625.309 374.74C625.309 372.28 626.989 370.64 629.289 370.64C630.509 370.64 631.629 371.14 632.349 372.2L633.409 371.48C632.569 370.1 631.069 369.4 629.289 369.4C626.149 369.4 623.869 371.6 623.869 374.74C623.869 377.88 626.149 380.1 629.289 380.1ZM640.323 380.1C643.403 380.1 645.663 377.86 645.663 374.74C645.663 371.62 643.403 369.4 640.323 369.4C637.243 369.4 634.963 371.62 634.963 374.74C634.963 377.86 637.243 380.1 640.323 380.1ZM640.323 378.84C638.083 378.84 636.403 377.2 636.403 374.74C636.403 372.28 638.083 370.64 640.323 370.64C642.563 370.64 644.223 372.28 644.223 374.74C644.223 377.2 642.563 378.84 640.323 378.84ZM653.922 369.4C652.102 369.4 650.682 370.14 649.922 371.42V369.48H648.562V380H649.982V374.48C649.982 372.08 651.402 370.68 653.662 370.68C655.662 370.68 656.822 371.82 656.822 374.04V380H658.242V373.9C658.242 370.88 656.482 369.4 653.922 369.4ZM667.137 378.34C666.737 378.7 666.157 378.88 665.577 378.88C664.397 378.88 663.757 378.2 663.757 376.96V370.68H666.957V369.48H663.757V367.18H662.337V369.48H660.457V370.68H662.337V377.04C662.337 378.98 663.437 380.1 665.417 380.1C666.237 380.1 667.077 379.86 667.637 379.36L667.137 378.34ZM671.582 371.54V369.48H670.222V380H671.642V374.64C671.642 372.16 672.982 370.76 675.182 370.76C675.282 370.76 675.402 370.78 675.522 370.78V369.4C673.582 369.4 672.242 370.14 671.582 371.54ZM681.754 369.4C680.094 369.4 678.534 369.92 677.474 370.82L678.114 371.88C678.974 371.12 680.254 370.64 681.614 370.64C683.574 370.64 684.594 371.62 684.594 373.42V374.06H681.254C678.234 374.06 677.194 375.42 677.194 377.04C677.194 378.86 678.654 380.1 681.034 380.1C682.774 380.1 684.014 379.44 684.654 378.36V380H686.014V373.48C686.014 370.76 684.474 369.4 681.754 369.4ZM681.254 378.98C679.574 378.98 678.594 378.22 678.594 377C678.594 375.92 679.254 375.12 681.294 375.12H684.594V376.84C684.034 378.22 682.854 378.98 681.254 378.98ZM694.27 380.1C696.05 380.1 697.55 379.38 698.39 378.02L697.33 377.3C696.61 378.36 695.49 378.84 694.27 378.84C691.97 378.84 690.29 377.22 690.29 374.74C690.29 372.28 691.97 370.64 694.27 370.64C695.49 370.64 696.61 371.14 697.33 372.2L698.39 371.48C697.55 370.1 696.05 369.4 694.27 369.4C691.13 369.4 688.85 371.6 688.85 374.74C688.85 377.88 691.13 380.1 694.27 380.1ZM706.336 378.34C705.936 378.7 705.356 378.88 704.776 378.88C703.596 378.88 702.956 378.2 702.956 376.96V370.68H706.156V369.48H702.956V367.18H701.536V369.48H699.656V370.68H701.536V377.04C701.536 378.98 702.636 380.1 704.616 380.1C705.436 380.1 706.276 379.86 706.836 379.36L706.336 378.34ZM715.576 378.72L720.336 374.04C722.216 372.2 722.636 371 722.636 369.66C722.636 367.32 720.836 365.88 717.996 365.88C715.856 365.88 714.116 366.6 713.036 367.88L714.056 368.76C714.976 367.7 716.236 367.2 717.876 367.2C720.016 367.2 721.156 368.2 721.156 369.82C721.156 370.78 720.856 371.72 719.276 373.28L713.456 378.98V380H723.276V378.72H715.576Z" fill="#001A34"/>
  <g filter="url(#filter2_d)">
    <path fill-rule="evenodd" clip-rule="evenodd" d="M479 478C479 466.954 487.954 458 499 458H782C793.046 458 802 466.954 802 478V488C802 499.046 793.046 508 782 508H499C487.954 508 479 499.046 479 488V478Z" fill="white"/>
    <path d="M479.5 478C479.5 467.23 488.23 458.5 499 458.5H782C792.77 458.5 801.5 467.23 801.5 478V488C801.5 498.77 792.77 507.5 782 507.5H499C488.23 507.5 479.5 498.77 479.5 488V478Z" stroke="#EAF1F3"/>
  </g>
  <path d="M585.951 475L581.851 487.1L577.731 475H576.351L572.171 487.04L568.131 475H566.611L571.331 489H572.871L576.991 477.06L581.091 489H582.651L587.371 475H585.951ZM590.735 480.54V478.48H589.375V489H590.795V483.64C590.795 481.16 592.135 479.76 594.335 479.76C594.435 479.76 594.555 479.78 594.675 479.78V478.4C592.735 478.4 591.395 479.14 590.735 480.54ZM600.906 478.4C599.246 478.4 597.686 478.92 596.626 479.82L597.266 480.88C598.126 480.12 599.406 479.64 600.766 479.64C602.726 479.64 603.746 480.62 603.746 482.42V483.06H600.406C597.386 483.06 596.346 484.42 596.346 486.04C596.346 487.86 597.806 489.1 600.186 489.1C601.926 489.1 603.166 488.44 603.806 487.36V489H605.166V482.48C605.166 479.76 603.626 478.4 600.906 478.4ZM600.406 487.98C598.726 487.98 597.746 487.22 597.746 486C597.746 484.92 598.406 484.12 600.446 484.12H603.746V485.84C603.186 487.22 602.006 487.98 600.406 487.98ZM614.443 478.4C612.703 478.4 611.243 479.16 610.383 480.56V478.48H609.023V492.88H610.443V487.02C611.323 488.38 612.763 489.1 614.443 489.1C617.443 489.1 619.683 486.94 619.683 483.74C619.683 480.56 617.443 478.4 614.443 478.4ZM614.343 487.84C612.103 487.84 610.423 486.2 610.423 483.74C610.423 481.3 612.103 479.64 614.343 479.64C616.563 479.64 618.263 481.3 618.263 483.74C618.263 486.2 616.563 487.84 614.343 487.84ZM627.998 478.4C626.258 478.4 624.798 479.16 623.938 480.56V478.48H622.578V492.88H623.998V487.02C624.878 488.38 626.318 489.1 627.998 489.1C630.998 489.1 633.238 486.94 633.238 483.74C633.238 480.56 630.998 478.4 627.998 478.4ZM627.898 487.84C625.658 487.84 623.978 486.2 623.978 483.74C623.978 481.3 625.658 479.64 627.898 479.64C630.118 479.64 631.818 481.3 631.818 483.74C631.818 486.2 630.118 487.84 627.898 487.84ZM645.312 483.74C645.312 480.58 643.172 478.4 640.212 478.4C637.252 478.4 635.072 480.62 635.072 483.74C635.072 486.86 637.312 489.1 640.592 489.1C642.252 489.1 643.712 488.5 644.652 487.38L643.852 486.46C643.052 487.38 641.912 487.84 640.632 487.84C638.332 487.84 636.652 486.38 636.492 484.18H645.292C645.292 484.02 645.312 483.86 645.312 483.74ZM640.212 479.62C642.272 479.62 643.772 481.06 643.952 483.12H636.492C636.672 481.06 638.172 479.62 640.212 479.62ZM656.383 474.16V480.48C655.503 479.12 654.063 478.4 652.383 478.4C649.383 478.4 647.143 480.56 647.143 483.74C647.143 486.92 649.383 489.1 652.383 489.1C654.123 489.1 655.583 488.34 656.443 486.92V489H657.803V474.16H656.383ZM652.503 487.84C650.263 487.84 648.583 486.2 648.583 483.74C648.583 481.28 650.263 479.64 652.503 479.64C654.723 479.64 656.403 481.28 656.403 483.74C656.403 486.2 654.723 487.84 652.503 487.84ZM670.012 489H671.492V476.28H676.412V475H665.092V476.28H670.012V489ZM681.682 489.1C684.762 489.1 687.022 486.86 687.022 483.74C687.022 480.62 684.762 478.4 681.682 478.4C678.602 478.4 676.322 480.62 676.322 483.74C676.322 486.86 678.602 489.1 681.682 489.1ZM681.682 487.84C679.442 487.84 677.762 486.2 677.762 483.74C677.762 481.28 679.442 479.64 681.682 479.64C683.922 479.64 685.582 481.28 685.582 483.74C685.582 486.2 683.922 487.84 681.682 487.84ZM698.061 489H699.801L694.881 482.78L699.381 478.48H697.621L691.341 484.22V474.16H689.921V489H691.341V486L693.821 483.72L698.061 489ZM710.683 483.74C710.683 480.58 708.543 478.4 705.583 478.4C702.623 478.4 700.443 480.62 700.443 483.74C700.443 486.86 702.683 489.1 705.963 489.1C707.623 489.1 709.083 488.5 710.023 487.38L709.223 486.46C708.423 487.38 707.283 487.84 706.003 487.84C703.703 487.84 702.023 486.38 701.863 484.18H710.663C710.663 484.02 710.683 483.86 710.683 483.74ZM705.583 479.62C707.643 479.62 709.143 481.06 709.323 483.12H701.863C702.043 481.06 703.543 479.62 705.583 479.62ZM718.934 478.4C717.114 478.4 715.694 479.14 714.934 480.42V478.48H713.574V489H714.994V483.48C714.994 481.08 716.414 479.68 718.674 479.68C720.674 479.68 721.834 480.82 721.834 483.04V489H723.254V482.9C723.254 479.88 721.494 478.4 718.934 478.4Z" fill="#001A34"/>
  <g filter="url(#filter3_d)">
    <path fill-rule="evenodd" clip-rule="evenodd" d="M25 478C25 466.954 33.9543 458 45 458H328C339.046 458 348 466.954 348 478V488C348 499.046 339.046 508 328 508H45C33.9543 508 25 499.046 25 488V478Z" fill="white"/>
    <path d="M25.5 478C25.5 467.23 34.2304 458.5 45 458.5H328C338.77 458.5 347.5 467.23 347.5 478V488C347.5 498.77 338.77 507.5 328 507.5H45C34.2304 507.5 25.5 498.77 25.5 488V478Z" stroke="#EAF1F3"/>
  </g>
  <path d="M160.941 489H162.421V476.28H167.341V475H156.021V476.28H160.941V489ZM172.612 489.1C175.692 489.1 177.952 486.86 177.952 483.74C177.952 480.62 175.692 478.4 172.612 478.4C169.532 478.4 167.252 480.62 167.252 483.74C167.252 486.86 169.532 489.1 172.612 489.1ZM172.612 487.84C170.372 487.84 168.692 486.2 168.692 483.74C168.692 481.28 170.372 479.64 172.612 479.64C174.852 479.64 176.512 481.28 176.512 483.74C176.512 486.2 174.852 487.84 172.612 487.84ZM188.991 489H190.731L185.811 482.78L190.311 478.48H188.551L182.271 484.22V474.16H180.851V489H182.271V486L184.751 483.72L188.991 489ZM201.613 483.74C201.613 480.58 199.473 478.4 196.513 478.4C193.553 478.4 191.373 480.62 191.373 483.74C191.373 486.86 193.613 489.1 196.893 489.1C198.553 489.1 200.013 488.5 200.953 487.38L200.153 486.46C199.353 487.38 198.213 487.84 196.933 487.84C194.633 487.84 192.953 486.38 192.793 484.18H201.593C201.593 484.02 201.613 483.86 201.613 483.74ZM196.513 479.62C198.573 479.62 200.073 481.06 200.253 483.12H192.793C192.973 481.06 194.473 479.62 196.513 479.62ZM209.863 478.4C208.043 478.4 206.623 479.14 205.863 480.42V478.48H204.503V489H205.923V483.48C205.923 481.08 207.343 479.68 209.603 479.68C211.603 479.68 212.763 480.82 212.763 483.04V489H214.183V482.9C214.183 479.88 212.423 478.4 209.863 478.4Z" fill="#001A34"/>
  <g filter="url(#filter4_d)">
    <path fill-rule="evenodd" clip-rule="evenodd" d="M191 226C191 214.954 199.954 206 211 206H620C631.046 206 640 214.954 640 226V236C640 247.046 631.046 256 620 256H211C199.954 256 191 247.046 191 236V226Z" fill="white"/>
    <path d="M191.5 226C191.5 215.23 200.23 206.5 211 206.5H620C630.77 206.5 639.5 215.23 639.5 226V236C639.5 246.77 630.77 255.5 620 255.5H211C200.23 255.5 191.5 246.77 191.5 236V226Z" stroke="#EAF1F3"/>
  </g>
  <path d="M344.958 239.12C348.538 239.12 350.178 237.36 350.178 235.3C350.178 230.2 341.558 232.52 341.558 228.68C341.558 227.28 342.698 226.14 345.258 226.14C346.498 226.14 347.898 226.52 349.098 227.3L349.598 226.12C348.478 225.34 346.838 224.88 345.258 224.88C341.698 224.88 340.098 226.66 340.098 228.72C340.098 233.9 348.718 231.54 348.718 235.38C348.718 236.76 347.578 237.86 344.958 237.86C343.118 237.86 341.338 237.14 340.338 236.16L339.758 237.3C340.798 238.38 342.858 239.12 344.958 239.12ZM361.163 228.48V234C361.163 236.4 359.783 237.82 357.583 237.82C355.583 237.82 354.423 236.68 354.423 234.44V228.48H353.003V234.58C353.003 237.6 354.763 239.1 357.443 239.1C359.123 239.1 360.483 238.36 361.223 237.08V239H362.583V228.48H361.163ZM370.349 239.12C373.929 239.12 375.569 237.36 375.569 235.3C375.569 230.2 366.949 232.52 366.949 228.68C366.949 227.28 368.089 226.14 370.649 226.14C371.889 226.14 373.289 226.52 374.489 227.3L374.989 226.12C373.869 225.34 372.229 224.88 370.649 224.88C367.089 224.88 365.489 226.66 365.489 228.72C365.489 233.9 374.109 231.54 374.109 235.38C374.109 236.76 372.969 237.86 370.349 237.86C368.509 237.86 366.729 237.14 365.729 236.16L365.149 237.3C366.189 238.38 368.249 239.12 370.349 239.12ZM385.738 228.48L381.778 237.42L377.818 228.48H376.338L381.038 238.98L380.578 240C379.978 241.32 379.338 241.76 378.398 241.76C377.638 241.76 376.998 241.48 376.478 240.96L375.818 242.02C376.458 242.66 377.398 242.98 378.378 242.98C379.878 242.98 380.998 242.32 381.878 240.26L387.138 228.48H385.738ZM404.813 225L399.413 237.16L394.053 225H392.453L398.653 239H400.113L406.313 225H404.813ZM410.924 228.4C409.264 228.4 407.704 228.92 406.644 229.82L407.284 230.88C408.144 230.12 409.424 229.64 410.784 229.64C412.744 229.64 413.764 230.62 413.764 232.42V233.06H410.424C407.404 233.06 406.364 234.42 406.364 236.04C406.364 237.86 407.824 239.1 410.204 239.1C411.944 239.1 413.184 238.44 413.824 237.36V239H415.184V232.48C415.184 229.76 413.644 228.4 410.924 228.4ZM410.424 237.98C408.744 237.98 407.764 237.22 407.764 236C407.764 234.92 408.424 234.12 410.464 234.12H413.764V235.84C413.204 237.22 412.024 237.98 410.424 237.98ZM419.041 239H420.461V224.16H419.041V239ZM425.132 226.18C425.732 226.18 426.172 225.72 426.172 225.14C426.172 224.6 425.712 224.16 425.132 224.16C424.552 224.16 424.092 224.62 424.092 225.16C424.092 225.72 424.552 226.18 425.132 226.18ZM424.412 239H425.832V228.48H424.412V239ZM437.963 224.16V230.48C437.083 229.12 435.643 228.4 433.963 228.4C430.963 228.4 428.723 230.56 428.723 233.74C428.723 236.92 430.963 239.1 433.963 239.1C435.703 239.1 437.163 238.34 438.023 236.92V239H439.383V224.16H437.963ZM434.083 237.84C431.843 237.84 430.163 236.2 430.163 233.74C430.163 231.28 431.843 229.64 434.083 229.64C436.303 229.64 437.983 231.28 437.983 233.74C437.983 236.2 436.303 237.84 434.083 237.84ZM447.017 228.4C445.357 228.4 443.797 228.92 442.737 229.82L443.377 230.88C444.237 230.12 445.517 229.64 446.877 229.64C448.837 229.64 449.857 230.62 449.857 232.42V233.06H446.517C443.497 233.06 442.457 234.42 442.457 236.04C442.457 237.86 443.917 239.1 446.297 239.1C448.037 239.1 449.277 238.44 449.917 237.36V239H451.277V232.48C451.277 229.76 449.737 228.4 447.017 228.4ZM446.517 237.98C444.837 237.98 443.857 237.22 443.857 236C443.857 234.92 444.517 234.12 446.557 234.12H449.857V235.84C449.297 237.22 448.117 237.98 446.517 237.98ZM460.174 237.34C459.774 237.7 459.194 237.88 458.614 237.88C457.434 237.88 456.794 237.2 456.794 235.96V229.68H459.994V228.48H456.794V226.18H455.374V228.48H453.494V229.68H455.374V236.04C455.374 237.98 456.474 239.1 458.454 239.1C459.274 239.1 460.114 238.86 460.674 238.36L460.174 237.34ZM467.188 239.1C470.268 239.1 472.528 236.86 472.528 233.74C472.528 230.62 470.268 228.4 467.188 228.4C464.108 228.4 461.828 230.62 461.828 233.74C461.828 236.86 464.108 239.1 467.188 239.1ZM467.188 237.84C464.948 237.84 463.268 236.2 463.268 233.74C463.268 231.28 464.948 229.64 467.188 229.64C469.428 229.64 471.088 231.28 471.088 233.74C471.088 236.2 469.428 237.84 467.188 237.84ZM476.787 230.54V228.48H475.427V239H476.847V233.64C476.847 231.16 478.187 229.76 480.387 229.76C480.487 229.76 480.607 229.78 480.727 229.78V228.4C478.787 228.4 477.447 229.14 476.787 230.54ZM486.196 239.1C488.936 239.1 490.536 237.92 490.536 236.1C490.536 232.06 483.716 234.2 483.716 231.36C483.716 230.36 484.556 229.62 486.456 229.62C487.536 229.62 488.636 229.88 489.556 230.52L490.176 229.38C489.296 228.78 487.816 228.4 486.456 228.4C483.776 228.4 482.296 229.68 482.296 231.4C482.296 235.56 489.116 233.4 489.116 236.14C489.116 237.18 488.296 237.86 486.296 237.86C484.816 237.86 483.396 237.34 482.556 236.68L481.916 237.8C482.776 238.54 484.456 239.1 486.196 239.1Z" fill="#001A34"/>
  <path d="M250 269L246.324 273.452L244.307 268.042L250 269ZM245.958 271.041L191.175 291.468L190.825 290.532L245.609 270.104L245.958 271.041Z" fill="#73979C"/>
  <path d="M640 291L636.324 286.548L634.307 291.958L640 291ZM580.825 269.468L635.609 289.896L635.958 288.959L581.175 268.532L580.825 269.468Z" fill="#73979C"/>
  <path d="M186 411L183.113 416L188.887 416L186 411ZM185.5 415.5L185.5 449L186.5 449L186.5 415.5L185.5 415.5Z" fill="#73979C"/>
  <path d="M643 449L645.887 444L640.113 444L643 449ZM642.5 411L642.5 444.5L643.5 444.5L643.5 411L642.5 411Z" fill="#73979C"/>
  <defs>
    <filter id="filter0_d" x="0" y="274" width="373" height="155" filterUnits="userSpaceOnUse" color-interpolation-filters="sRGB">
      <feFlood flood-opacity="0" result="BackgroundImageFix"/>
      <feColorMatrix in="SourceAlpha" type="matrix" values="0 0 0 0 0 0 0 0 0 0 0 0 0 0 0 0 0 0 127 0" result="hardAlpha"/>
      <feOffset dy="1"/>
      <feGaussianBlur stdDeviation="12.5"/>
      <feColorMatrix type="matrix" values="0 0 0 0 0.88667 0 0 0 0 0.944027 0 0 0 0 0.963145 0 0 0 1 0"/>
      <feBlend mode="normal" in2="BackgroundImageFix" result="effect1_dropShadow"/>
      <feBlend mode="normal" in="SourceGraphic" in2="effect1_dropShadow" result="shape"/>
    </filter>
    <filter id="filter1_d" x="454" y="274" width="373" height="150" filterUnits="userSpaceOnUse" color-interpolation-filters="sRGB">
      <feFlood flood-opacity="0" result="BackgroundImageFix"/>
      <feColorMatrix in="SourceAlpha" type="matrix" values="0 0 0 0 0 0 0 0 0 0 0 0 0 0 0 0 0 0 127 0" result="hardAlpha"/>
      <feOffset dy="1"/>
      <feGaussianBlur stdDeviation="12.5"/>
      <feColorMatrix type="matrix" values="0 0 0 0 0.88667 0 0 0 0 0.944027 0 0 0 0 0.963145 0 0 0 1 0"/>
      <feBlend mode="normal" in2="BackgroundImageFix" result="effect1_dropShadow"/>
      <feBlend mode="normal" in="SourceGraphic" in2="effect1_dropShadow" result="shape"/>
    </filter>
    <filter id="filter2_d" x="454" y="434" width="373" height="100" filterUnits="userSpaceOnUse" color-interpolation-filters="sRGB">
      <feFlood flood-opacity="0" result="BackgroundImageFix"/>
      <feColorMatrix in="SourceAlpha" type="matrix" values="0 0 0 0 0 0 0 0 0 0 0 0 0 0 0 0 0 0 127 0" result="hardAlpha"/>
      <feOffset dy="1"/>
      <feGaussianBlur stdDeviation="12.5"/>
      <feColorMatrix type="matrix" values="0 0 0 0 0.88667 0 0 0 0 0.944027 0 0 0 0 0.963145 0 0 0 1 0"/>
      <feBlend mode="normal" in2="BackgroundImageFix" result="effect1_dropShadow"/>
      <feBlend mode="normal" in="SourceGraphic" in2="effect1_dropShadow" result="shape"/>
    </filter>
    <filter id="filter3_d" x="0" y="434" width="373" height="100" filterUnits="userSpaceOnUse" color-interpolation-filters="sRGB">
      <feFlood flood-opacity="0" result="BackgroundImageFix"/>
      <feColorMatrix in="SourceAlpha" type="matrix" values="0 0 0 0 0 0 0 0 0 0 0 0 0 0 0 0 0 0 127 0" result="hardAlpha"/>
      <feOffset dy="1"/>
      <feGaussianBlur stdDeviation="12.5"/>
      <feColorMatrix type="matrix" values="0 0 0 0 0.88667 0 0 0 0 0.944027 0 0 0 0 0.963145 0 0 0 1 0"/>
      <feBlend mode="normal" in2="BackgroundImageFix" result="effect1_dropShadow"/>
      <feBlend mode="normal" in="SourceGraphic" in2="effect1_dropShadow" result="shape"/>
    </filter>
    <filter id="filter4_d" x="166" y="182" width="499" height="100" filterUnits="userSpaceOnUse" color-interpolation-filters="sRGB">
      <feFlood flood-opacity="0" result="BackgroundImageFix"/>
      <feColorMatrix in="SourceAlpha" type="matrix" values="0 0 0 0 0 0 0 0 0 0 0 0 0 0 0 0 0 0 127 0" result="hardAlpha"/>
      <feOffset dy="1"/>
      <feGaussianBlur stdDeviation="12.5"/>
      <feColorMatrix type="matrix" values="0 0 0 0 0.88667 0 0 0 0 0.944027 0 0 0 0 0.963145 0 0 0 1 0"/>
      <feBlend mode="normal" in2="BackgroundImageFix" result="effect1_dropShadow"/>
      <feBlend mode="normal" in="SourceGraphic" in2="effect1_dropShadow" result="shape"/>
    </filter>
    <radialGradient id="paint0_radial" cx="0" cy="0" r="1" gradientUnits="userSpaceOnUse" gradientTransform="translate(412.712 75.5699) rotate(90) scale(47.9494 41.0997)">
      <stop stop-color="#FFA9DC"/>
      <stop offset="1" stop-color="#FF0097"/>
    </radialGradient>
    <radialGradient id="paint1_radial" cx="0" cy="0" r="1" gradientUnits="userSpaceOnUse" gradientTransform="translate(412.767 9.60273) rotate(90) scale(25.3512 21.7298)">
      <stop stop-color="#FFA9DC"/>
      <stop offset="1" stop-color="#FF0097"/>
    </radialGradient>
    <radialGradient id="paint2_radial" cx="0" cy="0" r="1" gradientUnits="userSpaceOnUse" gradientTransform="translate(412.767 160.821) rotate(90) scale(25.3512 21.7298)">
      <stop stop-color="#FFA9DC"/>
      <stop offset="1" stop-color="#FF0097"/>
    </radialGradient>
    <radialGradient id="paint3_radial" cx="0" cy="0" r="1" gradientUnits="userSpaceOnUse" gradientTransform="translate(341.358 119.75) rotate(90) scale(25.3512 21.7298)">
      <stop stop-color="#FFA9DC"/>
      <stop offset="1" stop-color="#FF0097"/>
    </radialGradient>
    <radialGradient id="paint4_radial" cx="0" cy="0" r="1" gradientUnits="userSpaceOnUse" gradientTransform="translate(484.642 119.75) rotate(90) scale(25.3512 21.7298)">
      <stop stop-color="#FFA9DC"/>
      <stop offset="1" stop-color="#FF0097"/>
    </radialGradient>
    <radialGradient id="paint5_radial" cx="0" cy="0" r="1" gradientUnits="userSpaceOnUse" gradientTransform="translate(341.358 50.2072) rotate(90) scale(25.3512 21.7298)">
      <stop stop-color="#FFA9DC"/>
      <stop offset="1" stop-color="#FF0097"/>
    </radialGradient>
    <radialGradient id="paint6_radial" cx="0" cy="0" r="1" gradientUnits="userSpaceOnUse" gradientTransform="translate(484.642 50.2072) rotate(90) scale(25.3512 21.7298)">
      <stop stop-color="#FFA9DC"/>
      <stop offset="1" stop-color="#FF0097"/>
    </radialGradient>
  </defs>
</svg>
