<svg width="943" height="661" viewBox="0 0 943 661" fill="none" xmlns="http://www.w3.org/2000/svg">
  <path fill-rule="evenodd" clip-rule="evenodd" d="M331.339 623.329C330.995 623.216 330.614 623.006 330.198 622.698C329.574 622.236 329.471 621.285 328.579 621.15C327.687 621.015 326.336 621.277 326 621.277C325.664 621.277 327.32 621.788 327.496 622.264C327.672 622.741 327.943 623.443 329.186 623.699C330.015 623.87 330.733 623.746 331.339 623.329Z" fill="white"/>
  <path d="M278.948 150L283.869 159.028L292.896 163.948L283.869 168.869L278.948 177.896L274.028 168.869L265 163.948L274.028 159.028L278.948 150Z" fill="url(#paint0_linear)" fill-opacity="0.45"/>
  <path d="M648.948 373L653.869 382.028L662.896 386.948L653.869 391.869L648.948 400.896L644.028 391.869L635 386.948L644.028 382.028L648.948 373Z" fill="url(#paint1_linear)" fill-opacity="0.45"/>
  <path d="M328.948 453L333.869 462.028L342.896 466.948L333.869 471.869L328.948 480.896L324.028 471.869L315 466.948L324.028 462.028L328.948 453Z" fill="url(#paint2_linear)" fill-opacity="0.45"/>
  <path d="M928.948 594L933.869 603.028L942.896 607.948L933.869 612.869L928.948 621.896L924.028 612.869L915 607.948L924.028 603.028L928.948 594Z" fill="url(#paint3_linear)" fill-opacity="0.45"/>
  <path d="M300 22L307.408 35.592L321 43L307.408 50.408L300 64L292.592 50.408L279 43L292.592 35.592L300 22Z" fill="url(#paint4_linear)" fill-opacity="0.45"/>
  <path d="M227.509 209.599L229.092 212.465L231.959 214.048L229.092 215.631L227.509 218.498L225.926 215.631L223.06 214.048L225.926 212.465L227.509 209.599Z" fill="white"/>
  <path d="M649 268C649 364.656 570.656 443 474 443C377.344 443 299 364.656 299 268C299 171.344 377.344 93 474 93C570.656 93 649 171.344 649 268Z" fill="white"/>
  <path d="M649 268C649 364.656 570.656 443 474 443C377.344 443 299 364.656 299 268C299 171.344 377.344 93 474 93C570.656 93 649 171.344 649 268Z" fill="url(#paint5_linear)" fill-opacity="0.45"/>
  <path d="M608.031 270.772C608.031 343.264 549.264 402.031 476.772 402.031C404.281 402.031 345.514 343.264 345.514 270.772C345.514 198.281 404.281 139.514 476.772 139.514C549.264 139.514 608.031 198.281 608.031 270.772Z" fill="white"/>
  <path d="M608.031 270.772C608.031 343.264 549.264 402.031 476.772 402.031C404.281 402.031 345.514 343.264 345.514 270.772C345.514 198.281 404.281 139.514 476.772 139.514C549.264 139.514 608.031 198.281 608.031 270.772Z" fill="url(#paint6_linear)" fill-opacity="0.4"/>
  <path fill-rule="evenodd" clip-rule="evenodd" d="M592.113 203.843C568.617 168.358 528.337 144.955 482.591 144.955C410.099 144.955 351.332 203.722 351.332 276.214C351.332 321.96 374.736 362.241 410.222 385.737C370.623 362.694 344.008 319.794 344.008 270.669C344.008 197.185 403.562 137.631 477.046 137.631C526.17 137.631 569.069 164.245 592.113 203.843Z" fill="#FF75C7"/>
  <path fill-rule="evenodd" clip-rule="evenodd" d="M410.997 178.815C416.784 176.361 444.083 214.658 471.973 264.355C499.861 314.051 517.779 356.328 511.993 358.784C506.205 361.238 478.906 322.941 451.017 273.245C423.128 223.548 405.211 181.271 410.997 178.815ZM416.278 189.119C412.662 190.653 430.767 229.384 455.463 273.392C480.16 317.4 504.128 353.642 507.746 352.109C511.362 350.574 493.257 311.844 468.56 267.836C443.864 223.828 419.895 187.585 416.278 189.119Z" fill="#FF6FC3"/>
  <path fill-rule="evenodd" clip-rule="evenodd" d="M410.025 181.062C410.845 180.719 413.503 183.909 417.45 189.654C417.052 189.449 416.733 189.392 416.499 189.49C412.85 191.018 431.113 229.565 456.026 273.364C479.014 313.777 501.377 347.61 507.564 351.399C509.134 355.289 509.726 357.586 509.096 357.85C503.256 360.293 479.673 322.678 451.54 273.218C423.406 223.757 404.186 183.506 410.025 181.062Z" fill="#FF6FC3"/>
  <path fill-rule="evenodd" clip-rule="evenodd" d="M515.906 254.519C500.616 253.86 488.514 248.647 479.601 238.882C466.231 224.233 464.793 213.336 464.793 212.047C464.793 210.575 468.674 213.306 473.411 216.638C477.282 219.361 481.724 222.487 485.086 224.048C490.611 226.615 508.405 231.662 526.224 236.716C532.517 238.501 538.814 240.287 544.574 241.965C559.837 246.411 560.931 256.391 560.931 261.375C560.931 268.067 554.948 272.64 549.355 273.526C544.373 274.315 535.451 279.111 536.167 286.456C542.431 291.784 548.024 297.299 551.949 302.323C557.456 306.676 561.303 311.486 556.84 317.643C556.805 317.693 556.77 317.743 556.733 317.792C552.506 323.476 542.04 317.224 532.827 311.721C527.279 308.406 522.184 305.363 519.182 305.363C517.27 305.363 515.061 305.491 512.607 305.633C504.805 306.084 494.53 306.679 483.49 303.764C478.324 302.4 473.878 299.972 470.079 297.41C467.747 297.053 463.151 292.812 461.03 290.855C460.418 290.29 460.012 289.916 459.927 289.88C456.89 288.606 454.023 288.381 453.139 288.364C452.832 288.358 452.532 288.374 452.237 288.407C451.36 288.774 450.455 289.258 449.439 289.801C446.473 291.388 442.561 293.48 435.653 294.617C435.57 294.63 435.486 294.643 435.402 294.654C434.894 294.731 434.384 294.79 433.872 294.83C433.682 294.86 433.49 294.889 433.296 294.918C432.301 295.063 431.307 295.032 430.325 294.854C423.67 294.447 417.051 291.696 412.313 289.727C409.554 288.58 407.433 287.699 406.314 287.699C404.29 287.699 404.256 288.333 404.125 290.763C404.025 292.607 403.87 295.486 402.746 299.905C400.143 310.149 386.96 316.386 380.76 307.686C374.56 298.987 393.741 273.144 395.267 271.641C396.794 270.138 401.378 265.992 404.988 268.527C407.754 270.469 409.988 271.813 412.689 271.503C412.815 271.082 413.04 270.785 413.371 270.639C414.511 270.139 415.296 268.049 416.328 265.306C418.959 258.308 423.191 247.054 438.977 247.054C439.225 247.054 439.469 247.054 439.708 247.056C440.047 247.054 440.392 247.057 440.743 247.067C442.95 247.104 444.741 247.212 446.275 247.393C446.649 247.437 447.403 247.54 448.33 247.776C457.113 249.095 464.4 251.915 471.304 254.587C478.392 257.33 485.077 259.917 492.563 260.563C503.657 261.521 511.438 259.506 515.906 254.519ZM547.467 255.822C548.463 256.559 549.373 257.063 550.197 257.332C548.747 258.333 547.03 258.628 545.047 258.219C542.072 257.606 541.423 255.924 541.002 254.783C540.743 254.079 539.138 253.345 538.133 252.885C537.508 252.599 537.116 252.419 537.424 252.419C537.657 252.419 538.094 252.366 538.65 252.299C540.01 252.134 542.079 251.884 543.593 252.114C544.897 252.311 545.497 253.239 546.107 254.184C546.495 254.784 546.887 255.392 547.467 255.822Z" fill="#FF6FC3"/>
  <path fill-rule="evenodd" clip-rule="evenodd" d="M416.547 178.928C422.334 176.475 449.633 214.772 477.522 264.468C505.411 314.164 523.329 356.441 517.543 358.898C511.755 361.351 484.456 323.054 456.567 273.358C428.678 223.661 410.761 181.384 416.547 178.928ZM421.828 189.232C418.211 190.767 436.316 229.497 461.013 273.505C485.71 317.513 509.678 353.756 513.295 352.222C516.912 350.687 498.807 311.957 474.11 267.949C449.413 223.941 425.445 187.698 421.828 189.232Z" fill="white"/>
  <path fill-rule="evenodd" clip-rule="evenodd" d="M415.575 181.176C416.395 180.832 419.053 184.022 423 189.767C422.601 189.562 422.283 189.505 422.049 189.603C418.399 191.131 436.662 229.678 461.576 273.477C484.564 313.89 506.927 347.724 513.114 351.512C514.683 355.402 515.276 357.699 514.646 357.963C508.806 360.406 485.223 322.791 457.089 273.331C428.956 223.871 409.736 183.62 415.575 181.176Z" fill="white"/>
  <path fill-rule="evenodd" clip-rule="evenodd" d="M521.455 254.632C506.166 253.973 494.064 248.761 485.15 238.995C471.78 224.346 470.343 213.45 470.343 212.161C470.343 210.689 474.224 213.419 478.961 216.751C482.832 219.475 487.274 222.6 490.636 224.162C496.161 226.728 513.955 231.775 531.774 236.829C538.067 238.614 544.364 240.4 550.124 242.078C565.387 246.524 566.48 256.504 566.48 261.488C566.48 268.18 560.498 272.753 554.905 273.639C549.923 274.428 541.001 279.224 541.717 286.569C547.98 291.898 553.574 297.412 557.499 302.436C563.007 306.791 566.855 311.602 562.386 317.762C562.352 317.81 562.318 317.858 562.283 317.905C558.055 323.589 547.59 317.337 538.377 311.834C532.828 308.52 527.734 305.477 524.731 305.477C522.82 305.477 520.611 305.604 518.157 305.746C510.355 306.198 500.079 306.792 489.039 303.877C483.874 302.513 479.427 300.085 475.628 297.523C473.296 297.166 468.701 292.925 466.58 290.968C465.968 290.404 465.562 290.029 465.477 289.993C462.44 288.72 459.572 288.494 458.688 288.477C458.381 288.472 458.082 288.487 457.787 288.521C456.91 288.887 456.005 289.371 454.989 289.914C452.022 291.501 448.111 293.594 441.203 294.73C441.122 294.743 441.041 294.755 440.96 294.766C440.449 294.844 439.936 294.903 439.42 294.944C439.231 294.974 439.04 295.003 438.846 295.031C437.851 295.176 436.858 295.146 435.875 294.967C429.221 294.56 422.601 291.809 417.863 289.84C415.104 288.694 412.983 287.812 411.863 287.812C409.84 287.812 409.806 288.447 409.675 290.877C409.575 292.721 409.419 295.599 408.296 300.018C405.693 310.262 392.51 316.499 386.31 307.799C380.11 299.1 399.291 273.257 400.817 271.754C402.344 270.252 406.928 266.105 410.538 268.64C413.304 270.582 415.537 271.927 418.238 271.616C418.365 271.195 418.59 270.898 418.921 270.753C420.06 270.252 420.846 268.162 421.877 265.419C424.509 258.421 428.74 247.167 444.526 247.167C444.778 247.167 445.025 247.168 445.267 247.169C445.6 247.167 445.938 247.171 446.282 247.18C448.494 247.217 450.288 247.325 451.824 247.506C452.199 247.55 452.953 247.654 453.881 247.89C462.663 249.208 469.95 252.028 476.854 254.7C483.942 257.443 490.626 260.03 498.112 260.676C509.207 261.634 516.988 259.619 521.455 254.632ZM553.017 255.935C554.013 256.673 554.922 257.176 555.746 257.446C554.296 258.446 552.579 258.742 550.596 258.333C547.621 257.719 546.973 256.037 546.552 254.896C546.292 254.192 544.688 253.458 543.683 252.998C543.058 252.712 542.665 252.532 542.973 252.532C543.206 252.532 543.644 252.479 544.199 252.412C545.56 252.248 547.628 251.997 549.143 252.227C550.447 252.425 551.046 253.353 551.656 254.297C552.044 254.898 552.436 255.505 553.017 255.935Z" fill="white"/>
  <path fill-rule="evenodd" clip-rule="evenodd" d="M416.547 178.928C422.334 176.475 449.633 214.772 477.522 264.468C505.411 314.164 523.329 356.441 517.543 358.898C511.755 361.351 484.456 323.054 456.567 273.358C428.678 223.661 410.761 181.384 416.547 178.928ZM421.828 189.232C418.211 190.767 436.316 229.497 461.013 273.505C485.71 317.513 509.678 353.756 513.295 352.222C516.912 350.687 498.807 311.957 474.11 267.949C449.413 223.941 425.445 187.698 421.828 189.232Z" fill="#FFF4FA"/>
  <path fill-rule="evenodd" clip-rule="evenodd" d="M415.575 181.176C416.395 180.832 419.053 184.022 423 189.767C422.601 189.562 422.283 189.505 422.049 189.603C418.399 191.131 436.662 229.678 461.576 273.477C484.564 313.89 506.927 347.724 513.114 351.512C514.683 355.402 515.276 357.699 514.646 357.963C508.806 360.406 485.223 322.791 457.089 273.331C428.956 223.871 409.736 183.62 415.575 181.176Z" fill="#FFF4FA"/>
  <path fill-rule="evenodd" clip-rule="evenodd" d="M521.455 254.632C506.166 253.973 494.064 248.761 485.15 238.995C471.78 224.346 470.343 213.45 470.343 212.161C470.343 210.689 474.224 213.419 478.961 216.751C482.832 219.475 487.274 222.6 490.636 224.162C496.161 226.728 513.955 231.775 531.774 236.829C538.067 238.614 544.364 240.4 550.124 242.078C565.387 246.524 566.48 256.504 566.48 261.488C566.48 268.18 560.498 272.753 554.905 273.639C549.923 274.428 541.001 279.224 541.717 286.569C547.98 291.898 553.574 297.412 557.499 302.436C563.007 306.791 566.855 311.602 562.386 317.762C562.352 317.81 562.318 317.858 562.283 317.905C558.055 323.589 547.59 317.337 538.377 311.834C532.828 308.52 527.734 305.477 524.731 305.477C522.82 305.477 520.611 305.604 518.157 305.746C510.355 306.198 500.079 306.792 489.039 303.877C483.874 302.513 479.427 300.085 475.628 297.523C473.296 297.166 468.701 292.925 466.58 290.968C465.968 290.404 465.562 290.029 465.477 289.993C462.44 288.72 459.572 288.494 458.688 288.477C458.381 288.472 458.082 288.487 457.787 288.521C456.91 288.887 456.005 289.371 454.989 289.914C452.022 291.501 448.111 293.594 441.203 294.73C441.122 294.743 441.041 294.755 440.96 294.766C440.449 294.844 439.936 294.903 439.42 294.944C439.231 294.974 439.04 295.003 438.846 295.031C437.851 295.176 436.858 295.146 435.875 294.967C429.221 294.56 422.601 291.809 417.863 289.84C415.104 288.694 412.983 287.812 411.863 287.812C409.84 287.812 409.806 288.447 409.675 290.877C409.575 292.721 409.419 295.599 408.296 300.018C405.693 310.262 392.51 316.499 386.31 307.799C380.11 299.1 399.291 273.257 400.817 271.754C402.344 270.252 406.928 266.105 410.538 268.64C413.304 270.582 415.537 271.927 418.238 271.616C418.365 271.195 418.59 270.898 418.921 270.753C420.06 270.252 420.846 268.162 421.877 265.419C424.509 258.421 428.74 247.167 444.526 247.167C444.778 247.167 445.025 247.168 445.267 247.169C445.6 247.167 445.938 247.171 446.282 247.18C448.494 247.217 450.288 247.325 451.824 247.506C452.199 247.55 452.953 247.654 453.881 247.89C462.663 249.208 469.95 252.028 476.854 254.7C483.942 257.443 490.626 260.03 498.112 260.676C509.207 261.634 516.988 259.619 521.455 254.632ZM553.017 255.935C554.013 256.673 554.922 257.176 555.746 257.446C554.296 258.446 552.579 258.742 550.596 258.333C547.621 257.719 546.973 256.037 546.552 254.896C546.292 254.192 544.688 253.458 543.683 252.998C543.058 252.712 542.665 252.532 542.973 252.532C543.206 252.532 543.644 252.479 544.199 252.412C545.56 252.248 547.628 251.997 549.143 252.227C550.447 252.425 551.046 253.353 551.656 254.297C552.044 254.898 552.436 255.505 553.017 255.935Z" fill="white" fill-opacity="0.7"/>
  <path d="M689.109 435.53L686.044 445.096L688.648 454.826L679.037 451.76L669.33 454.343L672.395 444.777L669.813 435.024L679.401 438.112L689.109 435.53Z" fill="white"/>
  <path d="M615.32 580.911C569.111 624.863 515.602 643.641 495.82 622.843C476.038 602.045 497.471 549.543 543.68 505.591C589.905 461.625 643.398 442.862 663.18 463.66C682.962 484.458 661.545 536.945 615.32 580.911Z" fill="url(#paint7_linear)" fill-opacity="0.45"/>
  <path d="M606.305 571.433C571.636 604.408 532.782 619.803 519.484 605.822C506.201 591.857 523.523 553.791 558.176 520.831C592.828 487.872 631.714 472.477 645.011 486.458C658.294 500.423 640.973 538.458 606.305 571.433Z" fill="url(#paint8_linear)" fill-opacity="0.45"/>
  <path fill-rule="evenodd" clip-rule="evenodd" d="M649.351 496.746C648.936 492.59 647.519 489.095 645.011 486.459C631.713 472.478 592.828 487.873 558.175 520.832C524.585 552.781 507.28 589.528 518.348 604.471C518.338 604.461 518.329 604.451 518.32 604.441C504.213 589.61 518.734 547.402 554.268 513.603C589.787 479.82 629.35 463.751 642.648 477.732C645.912 481.164 649.461 484.895 649.354 496.542C649.353 496.61 649.352 496.678 649.351 496.746Z" fill="#FF75C7"/>
  <path fill-rule="evenodd" clip-rule="evenodd" d="M594.245 493.88C596.265 493.671 591.317 514.54 583.194 540.492C575.071 566.444 566.849 587.652 564.828 587.863C562.808 588.072 567.756 567.203 575.879 541.251C584.002 515.299 592.225 494.091 594.245 493.88ZM592.448 499.186C591.185 499.318 584.034 519 576.841 541.981C569.648 564.963 564.544 584.432 565.806 584.302C567.069 584.17 574.22 564.488 581.413 541.506C588.606 518.525 593.71 499.055 592.448 499.186Z" fill="#FF75C7"/>
  <path fill-rule="evenodd" clip-rule="evenodd" d="M593.373 494.72C593.658 494.692 593.332 496.488 592.557 499.596C592.526 499.446 592.471 499.374 592.39 499.382C591.121 499.505 584.06 519.131 576.976 542.053C570.44 563.203 565.673 581.377 565.971 583.963C565.197 585.903 564.664 586.998 564.445 587.019C562.416 587.216 568.005 567.203 576.005 541.317C584.004 515.432 591.344 494.917 593.373 494.72Z" fill="#FF75C7"/>
  <path fill-rule="evenodd" clip-rule="evenodd" d="M595.976 542.757C592.712 540.18 591.491 536.084 592.311 530.471C593.542 522.05 596.38 517.06 596.754 516.495C597.182 515.85 597.266 517.628 597.369 519.797C597.453 521.569 597.55 523.604 597.856 524.791C598.36 526.743 600.916 531.618 603.475 536.499C604.379 538.224 605.283 539.948 606.098 541.546C608.256 545.778 605.606 550.316 604.159 552.5C602.217 555.432 599.538 556.541 598.017 556.092C596.662 555.692 593.254 556.459 591.284 559.785C591.153 563.057 590.816 566.311 590.245 569.101C590.225 571.832 589.698 574.516 586.902 576.546C586.88 576.563 586.858 576.579 586.836 576.595C584.231 578.453 583.68 574.147 583.196 570.357C582.904 568.074 582.637 565.978 581.958 565.528C581.526 565.242 580.99 564.968 580.394 564.663C578.5 563.693 576.006 562.415 574.358 559.486C573.586 558.115 573.286 556.385 573.172 554.694C572.749 554.188 572.941 551.642 573.03 550.467C573.056 550.128 573.073 549.903 573.064 549.875C572.747 548.862 572.165 548.334 571.97 548.195C571.902 548.146 571.83 548.108 571.754 548.079C571.449 548.108 571.104 548.185 570.717 548.271C569.586 548.522 568.095 548.854 566.204 548.318C566.182 548.312 566.16 548.305 566.139 548.298C566 548.255 565.866 548.204 565.738 548.144C565.687 548.129 565.635 548.113 565.584 548.097C565.317 548.012 565.102 547.85 564.932 547.625C563.546 546.451 562.848 544.255 562.349 542.682C562.059 541.767 561.835 541.063 561.582 540.896C561.125 540.593 560.933 540.866 560.198 541.911C559.64 542.704 558.77 543.942 557.233 545.711C553.672 549.81 548.883 550.57 550.007 545.83C551.131 541.09 562.966 532.635 563.747 532.205C564.528 531.775 566.768 530.644 566.848 532.295C566.909 533.561 567.023 534.484 567.724 534.752C567.875 534.586 568.012 534.49 568.129 534.476C568.532 534.427 569.316 533.629 570.345 532.581C572.971 529.908 577.194 525.609 580.76 527.972C580.82 528.012 580.879 528.051 580.936 528.09C581.006 528.135 581.075 528.183 581.144 528.234C581.638 528.584 582.015 528.902 582.311 529.213C582.383 529.288 582.524 529.447 582.665 529.69C584.266 531.582 585.094 533.908 585.878 536.112C586.684 538.374 587.443 540.508 588.947 541.912C591.176 543.992 593.519 544.274 595.976 542.757ZM602.729 548.051C602.74 548.524 602.8 548.88 602.908 549.122C602.29 549.343 601.816 549.216 601.486 548.74C600.992 548.026 601.334 547.192 601.57 546.628C601.716 546.281 601.566 545.719 601.473 545.367C601.414 545.148 601.378 545.011 601.447 545.057C601.5 545.092 601.614 545.134 601.759 545.188C602.115 545.319 602.655 545.519 602.93 545.846C603.167 546.128 603.034 546.625 602.897 547.13C602.811 547.451 602.723 547.776 602.729 548.051Z" fill="#FF75C7"/>
  <path fill-rule="evenodd" clip-rule="evenodd" d="M585.151 536.358C585.41 537.017 585.646 537.681 585.878 538.333C586.684 540.596 587.443 542.73 588.947 544.134C591.176 546.214 593.519 546.495 595.976 544.978C592.712 542.401 591.491 538.306 592.311 532.693C593.542 524.272 596.38 519.282 596.754 518.717C597.182 518.072 597.266 519.849 597.369 522.018C597.453 523.791 597.55 525.826 597.856 527.013C598.36 528.965 600.916 533.839 603.475 538.721L603.476 538.722C604.379 540.446 605.283 542.171 606.098 543.767C608.256 548 605.606 552.537 604.16 554.721C602.217 557.654 599.538 558.763 598.017 558.314C596.662 557.914 593.254 558.681 591.284 562.007C591.153 565.279 590.816 568.532 590.245 571.321C590.225 574.056 589.698 576.742 586.895 578.773C586.879 578.785 586.863 578.797 586.846 578.809L586.836 578.816C584.23 580.675 583.68 576.369 583.196 572.578C582.904 570.295 582.637 568.199 581.958 567.75C581.526 567.464 580.99 567.189 580.394 566.884L580.394 566.884C579.101 566.222 577.528 565.417 576.136 564.04C570.756 579.358 566.252 589.936 564.828 590.085C564.58 590.11 564.438 589.819 564.392 589.242C563.132 589.134 565.224 580.138 569.133 566.475C570.264 562.293 571.569 557.704 573.019 552.835C573.023 552.784 573.026 552.736 573.03 552.689C573.055 552.35 573.072 552.125 573.063 552.097C572.747 551.084 572.165 550.556 571.97 550.416C571.902 550.368 571.83 550.33 571.753 550.3C571.449 550.33 571.104 550.406 570.716 550.493C569.586 550.744 568.094 551.076 566.204 550.54C566.182 550.533 566.16 550.527 566.139 550.519C566 550.477 565.867 550.426 565.738 550.366C565.687 550.351 565.636 550.335 565.584 550.319C565.317 550.233 565.102 550.072 564.932 549.847C563.546 548.672 562.848 546.476 562.349 544.904C562.059 543.989 561.835 543.285 561.582 543.117C561.125 542.814 560.933 543.087 560.198 544.133C559.64 544.926 558.77 546.164 557.233 547.932C553.672 552.032 548.883 552.792 550.007 548.052C551.131 543.312 562.966 534.857 563.747 534.427C564.528 533.997 566.768 532.866 566.848 534.517C566.909 535.782 567.023 536.706 567.724 536.974C567.875 536.808 568.012 536.712 568.129 536.697C568.532 536.648 569.315 535.85 570.345 534.803L570.345 534.803C572.852 532.251 576.814 528.217 580.272 529.913C580.701 528.634 581.128 527.377 581.55 526.146C587.158 509.16 591.756 497.277 593.336 496.947C593.712 496.415 594.018 496.126 594.245 496.102C596.097 495.911 592.091 513.439 585.151 536.358ZM573.172 556.921C568.682 572.284 565.734 584.135 565.971 586.185C565.926 586.299 565.881 586.409 565.838 586.516C566.781 586.206 570.541 576.529 575.16 562.929C574.876 562.557 574.607 562.151 574.358 561.707C573.587 560.338 573.287 558.61 573.172 556.921ZM581.327 530.588C586.738 514.054 591.384 501.702 592.389 501.604C592.471 501.596 592.526 501.668 592.557 501.818L592.61 501.605C593.001 503.391 589.498 517.056 584.28 534.39C583.836 533.517 583.314 532.678 582.664 531.911C582.523 531.668 582.383 531.51 582.311 531.434C582.052 531.163 581.732 530.886 581.327 530.588ZM602.907 551.343C602.799 551.102 602.74 550.745 602.729 550.273C602.723 549.998 602.81 549.673 602.897 549.351C603.033 548.846 603.167 548.35 602.93 548.068C602.654 547.741 602.114 547.541 601.759 547.409L601.759 547.409C601.614 547.356 601.5 547.313 601.447 547.279C601.378 547.233 601.414 547.37 601.472 547.589L601.472 547.589C601.566 547.941 601.715 548.503 601.57 548.85C601.334 549.413 600.992 550.247 601.486 550.961C601.816 551.437 602.289 551.565 602.907 551.343Z" fill="white" fill-opacity="0.7"/>
  <path fill-rule="evenodd" clip-rule="evenodd" d="M495.82 622.843C515.602 643.641 569.111 624.863 615.32 580.911C661.506 536.982 682.926 484.546 663.23 463.713L680.116 481.466L680.146 481.498C699.928 502.296 678.541 554.815 632.316 598.781C586.107 642.732 532.583 661.495 512.786 640.681L495.82 622.843ZM661.807 462.327C662.263 462.736 662.704 463.162 663.13 463.607L661.862 462.274L661.807 462.327ZM494.558 621.404C494.958 621.899 495.379 622.379 495.82 622.843L494.502 621.457L494.558 621.404Z" fill="url(#paint9_linear)" fill-opacity="0.45"/>
  <path d="M758.337 504.569L755.992 511.881L757.967 519.337L750.637 516.974L743.199 518.967L745.545 511.62L743.569 504.199L750.899 506.527L758.337 504.569Z" fill="url(#paint10_linear)" fill-opacity="0.4"/>
  <path d="M22.3369 7.56903L19.9921 14.8813L21.9671 22.3373L14.6375 19.9743L7.19885 21.9674L9.54452 14.6197L7.56864 7.19923L14.8991 9.52676L22.3369 7.56903Z" fill="url(#paint11_linear)" fill-opacity="0.4"/>
  <path d="M164.162 225.799L162.676 230.435L163.928 235.163L159.28 233.664L154.564 234.928L156.051 230.269L154.799 225.565L159.446 227.04L164.162 225.799Z" fill="url(#paint12_linear)" fill-opacity="0.4"/>
  <path d="M171.423 126.448C186.655 105.645 175.523 71.5885 146.559 50.3812C117.595 29.1738 81.767 28.8461 66.535 49.6491C51.303 70.4522 62.435 104.508 91.399 125.716C120.363 146.923 156.191 147.251 171.423 126.448Z" fill="url(#paint13_linear)" fill-opacity="0.45"/>
  <path fill-rule="evenodd" clip-rule="evenodd" d="M63.6009 54.4387C53.035 75.3871 64.563 106.066 91.3988 125.715C118.235 145.365 150.963 147.09 167.742 130.691C166.905 132.352 165.928 133.952 164.809 135.481C149.577 156.284 113.749 155.956 84.7848 134.749C55.8208 113.541 44.6889 79.485 59.9208 58.682C61.04 57.1535 62.2703 55.7391 63.6009 54.4387Z" fill="url(#paint14_linear)" fill-opacity="0.45"/>
  <path d="M97.6304 117.205C119.352 133.109 145.988 133.668 157.121 118.463C168.254 103.258 159.678 78.0335 137.957 62.1294C116.236 46.2252 89.6064 45.6563 78.4658 60.8714C67.3253 76.0866 75.9093 101.301 97.6304 117.205Z" fill="url(#paint15_linear)" fill-opacity="0.45"/>
  <path fill-rule="evenodd" clip-rule="evenodd" d="M157.909 117.318C158.208 116.953 158.499 116.579 158.78 116.196C170.28 100.49 161.555 74.5471 139.302 58.2531C117.037 41.9513 89.6819 41.4761 78.182 57.1821C73.4277 63.6752 72.1314 71.916 73.8188 80.5011C72.9717 73.2545 74.4149 66.4017 78.4649 60.8704C89.6054 45.6552 116.235 46.2242 137.956 62.1283C159.141 77.6399 167.822 102.017 157.909 117.318Z" fill="url(#paint16_linear)" fill-opacity="0.4"/>
  <path fill-rule="evenodd" clip-rule="evenodd" d="M82.086 86.5645C82.2223 84.8575 97.0752 86.4284 115.261 90.0733C133.447 93.7182 148.08 98.0568 147.945 99.7641C147.808 101.471 132.955 99.9003 114.769 96.2554C96.5833 92.6105 81.9507 88.2718 82.086 86.5645ZM85.7843 87.427C85.6996 88.4941 99.3487 92.1084 115.453 95.3361C131.558 98.5638 145.344 100.448 145.429 99.3813C145.514 98.3143 131.865 94.7 115.761 91.4723C99.6561 88.2446 85.8693 86.3602 85.7843 87.427Z" fill="#FF6FC3"/>
  <path fill-rule="evenodd" clip-rule="evenodd" d="M82.5861 87.2054C82.6067 86.9644 83.8993 87.0134 86.1059 87.2805C85.99 87.3259 85.9278 87.3828 85.9219 87.4517C85.8306 88.5245 99.4502 92.0696 115.526 95.2108C130.36 98.1091 143.228 99.8708 145.201 99.2831C146.536 99.6991 147.276 100.016 147.26 100.201C147.113 101.918 132.991 99.6861 114.837 96.1389C96.6831 92.5918 82.4397 88.9217 82.5861 87.2054Z" fill="#FF6FC3"/>
  <path fill-rule="evenodd" clip-rule="evenodd" d="M118.801 78.8107C116.406 81.9427 113.174 83.5164 109.104 83.5319C103 83.5551 99.688 81.7589 99.3207 81.5102C98.9013 81.2261 100.24 80.9257 101.873 80.5591L101.873 80.5591C103.207 80.2594 104.739 79.9156 105.67 79.5003C107.198 78.8178 111.205 75.9989 115.217 73.176L115.217 73.176C116.634 72.179 118.052 71.1815 119.362 70.2774C122.832 67.8819 125.833 69.5747 127.253 70.5364C129.16 71.8277 129.6 73.9852 129.045 75.3484C128.55 76.5626 128.629 79.3899 130.825 80.6545C133.248 80.3476 135.626 80.2195 137.625 80.3523C139.661 80.0183 141.589 80.1266 142.699 82.2713C142.707 82.2866 142.715 82.302 142.723 82.3175C143.732 84.3154 140.44 85.3398 137.542 86.2416C135.797 86.7848 134.194 87.2834 133.761 87.9235C133.485 88.3309 133.202 88.8265 132.889 89.3769C131.891 91.1271 130.577 93.4321 128.153 95.2228C127.018 96.0605 125.685 96.5398 124.406 96.8552C123.968 97.2836 122.096 97.4449 121.233 97.5193C120.983 97.5407 120.818 97.555 120.795 97.5663C119.994 97.9678 119.516 98.5355 119.384 98.7207C119.338 98.785 119.299 98.8518 119.266 98.9213C119.244 99.1788 119.251 99.4651 119.259 99.7866C119.283 100.725 119.315 101.963 118.641 103.654C118.634 103.673 118.626 103.692 118.618 103.71C118.566 103.835 118.508 103.957 118.445 104.076C118.426 104.122 118.407 104.168 118.387 104.215C118.284 104.455 118.132 104.661 117.94 104.836C116.863 106.176 115.124 107.056 113.879 107.686C113.154 108.053 112.597 108.335 112.435 108.573C112.143 109.005 112.319 109.134 112.992 109.631C113.503 110.008 114.301 110.597 115.398 111.689C117.941 114.22 117.815 118.234 114.441 117.877C111.068 117.52 106.473 108.444 106.265 107.829C106.057 107.214 105.537 105.437 106.781 105.156C107.733 104.942 108.439 104.725 108.74 104.089C108.639 103.981 108.586 103.876 108.593 103.777C108.615 103.438 108.133 102.867 107.5 102.118C105.886 100.207 103.29 97.1329 105.568 93.7681C105.605 93.7142 105.641 93.6615 105.677 93.6099C105.724 93.5389 105.773 93.4679 105.826 93.3968C106.155 92.9322 106.445 92.5706 106.719 92.2779C106.785 92.2066 106.924 92.0658 107.125 91.9137C108.768 90.2959 110.624 89.2869 112.382 88.3308C114.186 87.3493 115.888 86.4237 117.153 84.9527C119.028 82.7727 119.577 80.7254 118.801 78.8107ZM123.728 72.3347C124.082 72.2648 124.356 72.1681 124.552 72.0444C124.628 72.5465 124.464 72.9695 124.061 73.3133C123.457 73.829 122.884 73.6428 122.498 73.5123C122.26 73.4318 121.82 73.6321 121.544 73.7576C121.372 73.8356 121.264 73.8847 121.308 73.819C121.342 73.7694 121.39 73.6659 121.451 73.5344C121.601 73.2127 121.828 72.7235 122.112 72.445C122.357 72.2052 122.707 72.2565 123.065 72.3087C123.292 72.3419 123.521 72.3754 123.728 72.3347Z" fill="#FF6FC3"/>
  <path fill-rule="evenodd" clip-rule="evenodd" d="M111.678 88.2557C95.583 85.2374 83.0859 84.0469 82.9608 85.612C82.9456 85.804 83.1172 86.0294 83.4597 86.2833C83.4759 87.5981 91.6822 90.0227 103.55 92.6597C104.404 92.8632 105.276 93.0669 106.163 93.2703C104.397 96.4562 106.833 99.3407 108.375 101.166C109.007 101.915 109.489 102.485 109.467 102.825C109.461 102.924 109.513 103.029 109.615 103.137C109.313 103.772 108.608 103.989 107.655 104.204C106.412 104.484 106.932 106.262 107.14 106.877C107.347 107.492 111.942 116.567 115.316 116.924C118.69 117.282 118.816 113.268 116.273 110.737C115.175 109.644 114.378 109.056 113.867 108.679C113.193 108.182 113.018 108.052 113.31 107.621C113.471 107.382 114.029 107.1 114.753 106.733C115.998 106.103 117.737 105.223 118.814 103.884C119.007 103.709 119.159 103.503 119.261 103.263C119.281 103.216 119.301 103.169 119.32 103.123C119.383 103.004 119.44 102.883 119.492 102.759C119.5 102.74 119.508 102.721 119.516 102.702C120.189 101.01 120.158 99.7728 120.134 98.8343C120.125 98.513 120.118 98.2267 120.14 97.9692C120.173 97.8997 120.212 97.8328 120.258 97.7684C120.391 97.5832 120.869 97.0155 121.67 96.614C121.693 96.6027 121.858 96.5885 122.107 96.567L122.107 96.567L122.107 96.567C122.142 96.564 122.178 96.5609 122.216 96.5576C125.635 97.1768 128.865 97.7082 131.819 98.1421C141.452 99.7469 147.866 100.389 148.128 99.2936C148.565 99.1807 148.803 99.0207 148.82 98.8116C148.915 97.6083 141.675 95.098 131.025 92.4447C132.254 91.0729 133.082 89.6195 133.763 88.4247C134.077 87.8742 134.359 87.3787 134.635 86.9713C135.069 86.3312 136.671 85.8325 138.417 85.2894C141.314 84.3876 144.606 83.3631 143.597 81.3652L143.586 81.3425L143.576 81.3249C142.467 79.1742 140.538 79.0656 138.498 79.4C136.5 79.2673 134.122 79.3954 131.7 79.7022C129.504 78.4377 129.425 75.6102 129.919 74.396C130.474 73.0328 130.035 70.8753 128.128 69.584C126.708 68.6223 123.706 66.9295 120.236 69.325C118.927 70.229 117.509 71.2264 116.092 72.2234L116.092 72.2236L116.092 72.2236L116.092 72.2237C112.079 75.0466 108.073 77.8654 106.544 78.5479C105.614 78.9632 104.082 79.307 102.747 79.6067L102.747 79.6067C101.114 79.9733 99.7759 80.2737 100.195 80.5578C100.563 80.8065 103.875 82.6027 109.979 82.5796C114.048 82.564 117.28 80.9903 119.675 77.8583C120.451 79.773 119.902 81.8203 118.028 84.0003C116.763 85.4713 115.061 86.3969 113.256 87.3784C112.736 87.6614 112.207 87.949 111.678 88.2557ZM110.084 89.2558C97.9052 86.9998 88.2174 85.7444 86.8295 86.31C86.8794 86.316 86.9298 86.322 86.9806 86.3281C86.8647 86.3735 86.8026 86.4304 86.7967 86.4993C86.7243 87.3497 95.2672 89.7536 106.82 92.2783C107.101 91.8923 107.353 91.5824 107.593 91.3256C107.66 91.2544 107.798 91.1139 107.999 90.9619C108.666 90.3053 109.368 89.749 110.084 89.2558ZM130.055 93.4249C129.736 93.7161 129.395 93.9992 129.027 94.2705C127.894 95.1075 126.562 95.5866 125.285 95.9021C136.097 97.7856 144.512 98.7967 146.076 98.3307C146.154 98.355 146.23 98.379 146.304 98.4026C146.21 97.6332 139.534 95.6463 130.055 93.4249ZM124.602 71.3823C124.956 71.3124 125.231 71.2157 125.427 71.092C125.502 71.5942 125.339 72.0171 124.936 72.3609C124.332 72.8766 123.759 72.6904 123.373 72.5599C123.135 72.4794 122.694 72.6797 122.418 72.8052C122.246 72.8832 122.138 72.9323 122.183 72.8666C122.217 72.817 122.265 72.7135 122.326 72.582C122.475 72.2603 122.702 71.7711 122.986 71.4926C123.231 71.2528 123.582 71.3041 123.939 71.3563C124.166 71.3895 124.396 71.4231 124.602 71.3823Z" fill="white" fill-opacity="0.7"/>
  <defs>
    <linearGradient id="paint0_linear" x1="304.811" y1="171.066" x2="285.529" y2="184.594" gradientUnits="userSpaceOnUse">
      <stop offset="0.0851474" stop-color="#FF0097"/>
      <stop offset="1" stop-color="#FFA9D1"/>
    </linearGradient>
    <linearGradient id="paint1_linear" x1="674.811" y1="394.066" x2="655.529" y2="407.594" gradientUnits="userSpaceOnUse">
      <stop offset="0.0851474" stop-color="#FF0097"/>
      <stop offset="1" stop-color="#FFA9D1"/>
    </linearGradient>
    <linearGradient id="paint2_linear" x1="354.811" y1="474.066" x2="335.529" y2="487.594" gradientUnits="userSpaceOnUse">
      <stop offset="0.0851474" stop-color="#FF0097"/>
      <stop offset="1" stop-color="#FFA9D1"/>
    </linearGradient>
    <linearGradient id="paint3_linear" x1="954.811" y1="615.066" x2="935.529" y2="628.594" gradientUnits="userSpaceOnUse">
      <stop offset="0.0851474" stop-color="#FF0097"/>
      <stop offset="1" stop-color="#FFA9D1"/>
    </linearGradient>
    <linearGradient id="paint4_linear" x1="338.938" y1="53.7163" x2="309.907" y2="74.0835" gradientUnits="userSpaceOnUse">
      <stop offset="0.0851474" stop-color="#FF0097"/>
      <stop offset="1" stop-color="#FFA9D1"/>
    </linearGradient>
    <linearGradient id="paint5_linear" x1="357.698" y1="142.765" x2="590.79" y2="395.584" gradientUnits="userSpaceOnUse">
      <stop stop-color="#FF0097"/>
      <stop offset="1" stop-color="#FFA9D1"/>
    </linearGradient>
    <linearGradient id="paint6_linear" x1="208.813" y1="-137.892" x2="556.835" y2="382.511" gradientUnits="userSpaceOnUse">
      <stop offset="0.59375" stop-color="#FFA9D1"/>
      <stop offset="1" stop-color="#FF0097"/>
    </linearGradient>
    <linearGradient id="paint7_linear" x1="615.579" y1="461.266" x2="656.399" y2="590.364" gradientUnits="userSpaceOnUse">
      <stop stop-color="#FF0097"/>
      <stop offset="1" stop-color="#FFA9D1"/>
    </linearGradient>
    <linearGradient id="paint8_linear" x1="594.837" y1="623.505" x2="535.203" y2="588.18" gradientUnits="userSpaceOnUse">
      <stop offset="0.0851474" stop-color="#FF0097"/>
      <stop offset="1" stop-color="#FFA9D1"/>
    </linearGradient>
    <linearGradient id="paint9_linear" x1="620.936" y1="580.747" x2="641.051" y2="607.046" gradientUnits="userSpaceOnUse">
      <stop stop-color="#FF0097"/>
      <stop offset="1" stop-color="#FFA9D1"/>
    </linearGradient>
    <linearGradient id="paint10_linear" x1="765.575" y1="512.517" x2="750.313" y2="526.455" gradientUnits="userSpaceOnUse">
      <stop stop-color="#FF0097"/>
      <stop offset="1" stop-color="#FFA9D1"/>
    </linearGradient>
    <linearGradient id="paint11_linear" x1="29.5749" y1="15.5167" x2="14.3126" y2="29.455" gradientUnits="userSpaceOnUse">
      <stop stop-color="#FF0097"/>
      <stop offset="1" stop-color="#FFA9D1"/>
    </linearGradient>
    <linearGradient id="paint12_linear" x1="168.751" y1="230.838" x2="159.075" y2="239.676" gradientUnits="userSpaceOnUse">
      <stop stop-color="#FF0097"/>
      <stop offset="1" stop-color="#FFA9D1"/>
    </linearGradient>
    <linearGradient id="paint13_linear" x1="196.88" y1="37.8005" x2="182.732" y2="122.632" gradientUnits="userSpaceOnUse">
      <stop offset="0.0851474" stop-color="#FF0097"/>
      <stop offset="1" stop-color="#FFA9D1"/>
    </linearGradient>
    <linearGradient id="paint14_linear" x1="91.5027" y1="138.627" x2="85.1248" y2="42.3336" gradientUnits="userSpaceOnUse">
      <stop stop-color="#FF0097"/>
      <stop offset="1" stop-color="#FFA9D1"/>
    </linearGradient>
    <linearGradient id="paint15_linear" x1="94.1563" y1="114.699" x2="89.936" y2="72.388" gradientUnits="userSpaceOnUse">
      <stop offset="0.0851474" stop-color="#FF0097"/>
      <stop offset="1" stop-color="#FFA9D1"/>
    </linearGradient>
    <linearGradient id="paint16_linear" x1="101.911" y1="48.8753" x2="164.993" y2="120.468" gradientUnits="userSpaceOnUse">
      <stop stop-color="#FF0097"/>
      <stop offset="1" stop-color="#FFA9D1"/>
    </linearGradient>
  </defs>
</svg>
