<svg width="327" height="275" viewBox="0 0 327 275" fill="none" xmlns="http://www.w3.org/2000/svg">
  <path d="M91.6374 212.527L97.5599 223.296L108.328 229.188L97.5599 235.111L91.6374 245.879L85.7448 235.111L74.9766 229.188L85.7448 223.296L91.6374 212.527Z" fill="url(#paint0_linear)" fill-opacity="0.4"/>
  <path d="M252.965 132.948C252.965 180.04 214.794 218.211 167.702 218.211C120.609 218.211 82.4385 180.04 82.4385 132.948C82.4385 85.8554 120.609 47.6846 167.702 47.6846C214.794 47.6846 252.965 85.8554 252.965 132.948Z" fill="white"/>
  <path d="M252.965 132.948C252.965 180.04 214.794 218.211 167.702 218.211C120.609 218.211 82.4385 180.04 82.4385 132.948C82.4385 85.8554 120.609 47.6846 167.702 47.6846C214.794 47.6846 252.965 85.8554 252.965 132.948Z" fill="url(#paint1_linear)" fill-opacity="0.45"/>
  <path d="M233.004 134.299C233.004 169.619 204.372 198.251 169.052 198.251C133.733 198.251 105.101 169.619 105.101 134.299C105.101 98.98 133.733 70.3477 169.052 70.3477C204.372 70.3477 233.004 98.98 233.004 134.299Z" fill="white"/>
  <path d="M233.004 134.299C233.004 169.619 204.372 198.251 169.052 198.251C133.733 198.251 105.101 169.619 105.101 134.299C105.101 98.98 133.733 70.3477 169.052 70.3477C204.372 70.3477 233.004 98.98 233.004 134.299Z" fill="url(#paint2_linear)" fill-opacity="0.4"/>
  <path fill-rule="evenodd" clip-rule="evenodd" d="M225.248 101.689C213.801 84.4001 194.176 72.9983 171.888 72.9983C136.568 72.9983 107.936 101.631 107.936 136.95C107.936 159.239 119.339 178.865 136.629 190.312C117.335 179.085 104.367 158.183 104.367 134.248C104.367 98.4456 133.383 69.4297 169.186 69.4297C193.12 69.4297 214.021 82.3964 225.248 101.689Z" fill="#FF75C7"/>
  <path d="M67.1678 82.0635L70.7362 88.6003L77.2731 92.1687L70.7362 95.7372L67.1678 102.274L63.5994 95.7372L57.0625 92.1687L63.5994 88.6003L67.1678 82.0635Z" fill="url(#paint3_linear)" fill-opacity="0.4"/>
  <path d="M139.15 30.6318L141.068 34.1504L144.586 36.0682L141.068 37.9859L139.15 41.5045L137.232 37.9859L133.714 36.0682L137.232 34.1504L139.15 30.6318Z" fill="url(#paint4_linear)" fill-opacity="0.45"/>
  <path d="M253.975 42.7168L257.678 49.5038L264.481 53.2225L257.678 56.9412L253.975 63.7283L250.257 56.9412L243.47 53.2225L250.257 49.5038L253.975 42.7168Z" fill="url(#paint5_linear)" fill-opacity="0.4"/>
  <path d="M223.44 192.317L226.142 197.253L231.078 199.955L226.142 202.64L223.44 207.576L220.755 202.64L215.819 199.955L220.755 197.253L223.44 192.317Z" fill="url(#paint6_linear)" fill-opacity="0.7"/>
  <path d="M259.809 99.2295L260.426 100.347L261.543 100.964L260.426 101.581L259.809 102.698L259.191 101.581L258.074 100.964L259.191 100.347L259.809 99.2295Z" fill="#FBFCE6"/>
  <path d="M60.9999 99.2295L61.6169 100.347L62.7342 100.964L61.6169 101.581L60.9999 102.698L60.3829 101.581L59.2656 100.964L60.3829 100.347L60.9999 99.2295Z" fill="#FBFCE6"/>
  <path fill-rule="evenodd" clip-rule="evenodd" d="M137.005 89.4958C139.824 88.3005 153.125 106.959 166.713 131.172C180.301 155.385 189.031 175.984 186.212 177.18C183.392 178.376 170.091 159.717 156.503 135.504C142.915 111.291 134.186 90.6926 137.005 89.4958ZM139.578 94.516C137.816 95.2638 146.637 114.134 158.669 135.575C170.702 157.017 182.38 174.675 184.142 173.928C185.904 173.18 177.083 154.31 165.051 132.868C153.018 111.427 141.34 93.7688 139.578 94.516Z" fill="#FF6FC3"/>
  <path fill-rule="evenodd" clip-rule="evenodd" d="M136.532 90.5913C136.931 90.4241 138.226 91.9784 140.149 94.7772C139.955 94.6774 139.8 94.6497 139.686 94.6974C137.908 95.4421 146.806 114.223 158.944 135.562C170.144 155.253 181.04 171.737 184.055 173.583C184.819 175.478 185.108 176.597 184.801 176.726C181.956 177.916 170.466 159.589 156.759 135.491C143.051 111.393 133.687 91.7822 136.532 90.5913Z" fill="#FF6FC3"/>
  <path fill-rule="evenodd" clip-rule="evenodd" d="M188.118 126.38C180.669 126.059 174.773 123.52 170.43 118.762C163.916 111.624 163.215 106.315 163.215 105.687C163.215 104.97 165.106 106.301 167.414 107.924C169.3 109.251 171.465 110.774 173.103 111.534C175.795 112.785 184.464 115.244 193.146 117.706C196.212 118.576 199.28 119.446 202.086 120.264C209.523 122.43 210.056 127.292 210.056 129.721C210.056 132.981 207.141 135.209 204.416 135.641C201.988 136.025 197.641 138.362 197.99 141.941C201.042 144.537 203.767 147.223 205.679 149.671C208.363 151.793 210.238 154.137 208.061 157.138C208.054 157.148 208.047 157.157 208.04 157.167C208.031 157.181 208.021 157.194 208.01 157.208C205.951 159.977 200.852 156.932 196.363 154.25C193.66 152.635 191.178 151.153 189.715 151.153C188.783 151.153 187.707 151.215 186.511 151.284C182.71 151.504 177.704 151.794 172.325 150.373C169.808 149.709 167.641 148.526 165.791 147.278C164.654 147.104 162.415 145.037 161.382 144.084C161.084 143.809 160.886 143.626 160.845 143.609C159.365 142.988 157.968 142.878 157.537 142.87C157.388 142.868 157.242 142.875 157.098 142.891C156.671 143.07 156.23 143.306 155.735 143.571C154.289 144.344 152.384 145.363 149.018 145.917C148.977 145.923 148.936 145.93 148.895 145.935C148.648 145.973 148.399 146.001 148.15 146.021C148.058 146.035 147.964 146.05 147.869 146.063C147.385 146.134 146.901 146.119 146.422 146.032C143.18 145.834 139.955 144.494 137.646 143.534C136.302 142.976 135.269 142.546 134.723 142.546C133.737 142.546 133.721 142.855 133.657 144.039C133.608 144.938 133.532 146.34 132.985 148.493C131.717 153.484 125.294 156.523 122.273 152.284C119.252 148.046 128.598 135.455 129.341 134.723C130.085 133.99 132.318 131.97 134.077 133.205C135.425 134.151 136.513 134.807 137.829 134.655C137.891 134.45 138 134.306 138.162 134.235C138.717 133.991 139.1 132.973 139.602 131.636C140.884 128.226 142.946 122.743 150.637 122.743C150.758 122.743 150.877 122.743 150.994 122.744C151.159 122.743 151.327 122.745 151.498 122.75C152.573 122.768 153.446 122.82 154.193 122.908C154.375 122.93 154.743 122.98 155.194 123.095C159.474 123.738 163.024 125.112 166.388 126.413C169.841 127.75 173.098 129.01 176.745 129.325C182.151 129.792 185.942 128.81 188.118 126.38ZM203.496 127.015C203.981 127.375 204.424 127.62 204.826 127.751C204.119 128.239 203.283 128.383 202.317 128.183C200.867 127.884 200.551 127.065 200.346 126.509C200.22 126.166 199.438 125.808 198.948 125.584C198.644 125.445 198.452 125.357 198.602 125.357C198.716 125.357 198.929 125.331 199.2 125.299C199.863 125.219 200.87 125.097 201.608 125.208C202.244 125.305 202.536 125.757 202.833 126.217C203.022 126.51 203.213 126.806 203.496 127.015Z" fill="#FF6FC3"/>
  <path fill-rule="evenodd" clip-rule="evenodd" d="M139.709 89.5505C142.528 88.3551 155.829 107.014 169.417 131.227C183.005 155.44 191.735 176.038 188.916 177.235C186.096 178.43 172.795 159.772 159.207 135.559C145.619 111.345 136.89 90.7473 139.709 89.5505ZM142.282 94.5707C140.52 95.3185 149.341 114.189 161.373 135.63C173.406 157.072 185.084 174.73 186.846 173.983C188.608 173.235 179.787 154.365 167.755 132.923C155.722 111.482 144.044 93.8234 142.282 94.5707Z" fill="white"/>
  <path fill-rule="evenodd" clip-rule="evenodd" d="M139.236 90.646C139.635 90.4788 140.93 92.0331 142.854 94.8319C142.659 94.732 142.504 94.7044 142.39 94.7521C140.612 95.4968 149.51 114.277 161.648 135.617C172.849 155.307 183.744 171.791 186.759 173.637C187.524 175.532 187.812 176.652 187.505 176.78C184.66 177.971 173.17 159.644 159.463 135.546C145.755 111.448 136.391 91.8369 139.236 90.646Z" fill="white"/>
  <path fill-rule="evenodd" clip-rule="evenodd" d="M190.823 126.435C183.373 126.114 177.477 123.574 173.134 118.816C166.62 111.679 165.92 106.37 165.92 105.742C165.92 105.025 167.811 106.355 170.118 107.979C172.004 109.306 174.169 110.828 175.807 111.589C178.499 112.84 187.168 115.299 195.85 117.761C198.916 118.631 201.984 119.501 204.79 120.318C212.227 122.485 212.76 127.347 212.76 129.775C212.76 133.036 209.845 135.264 207.12 135.695C204.692 136.08 200.346 138.417 200.694 141.995C203.746 144.591 206.471 147.278 208.384 149.726C211.067 151.848 212.943 154.192 210.764 157.193C210.752 157.212 210.739 157.23 210.725 157.248C210.722 157.253 210.718 157.258 210.714 157.263C208.655 160.032 203.556 156.986 199.067 154.305C196.364 152.69 193.882 151.207 192.419 151.207C191.487 151.207 190.411 151.27 189.215 151.339C185.414 151.559 180.408 151.848 175.029 150.428C172.512 149.763 170.346 148.58 168.495 147.332C167.358 147.158 165.119 145.092 164.086 144.139C163.788 143.864 163.59 143.681 163.549 143.664C162.069 143.043 160.672 142.933 160.241 142.925C160.092 142.922 159.946 142.93 159.802 142.946C159.375 143.125 158.934 143.36 158.439 143.625C156.994 144.398 155.088 145.418 151.722 145.971C151.682 145.978 151.642 145.984 151.602 145.989C151.354 146.027 151.104 146.056 150.854 146.076C150.762 146.09 150.668 146.104 150.574 146.118C150.089 146.189 149.605 146.174 149.126 146.087C145.884 145.889 142.659 144.548 140.35 143.589C139.006 143.03 137.973 142.601 137.427 142.601C136.441 142.601 136.425 142.91 136.361 144.094C136.312 144.992 136.236 146.395 135.689 148.548C134.421 153.539 127.998 156.578 124.977 152.339C121.956 148.101 131.302 135.509 132.045 134.777C132.789 134.045 135.023 132.025 136.781 133.26C138.129 134.206 139.217 134.861 140.533 134.71C140.595 134.505 140.705 134.36 140.866 134.289C141.421 134.045 141.804 133.027 142.306 131.691C143.588 128.281 145.65 122.798 153.341 122.798C153.463 122.798 153.583 122.798 153.7 122.799C153.864 122.798 154.03 122.8 154.199 122.804C155.276 122.822 156.149 122.875 156.897 122.963C157.079 122.984 157.447 123.035 157.899 123.15C162.178 123.792 165.728 125.166 169.092 126.468C172.545 127.805 175.802 129.065 179.449 129.38C184.855 129.847 188.646 128.865 190.823 126.435ZM206.2 127.07C206.685 127.429 207.128 127.674 207.53 127.806C206.823 128.293 205.987 128.437 205.021 128.238C203.571 127.939 203.255 127.12 203.05 126.564C202.924 126.221 202.142 125.863 201.652 125.639C201.348 125.5 201.156 125.412 201.306 125.412C201.42 125.412 201.633 125.386 201.904 125.353C202.567 125.273 203.574 125.151 204.312 125.263C204.948 125.359 205.24 125.812 205.537 126.272C205.726 126.564 205.917 126.86 206.2 127.07Z" fill="white"/>
  <path fill-rule="evenodd" clip-rule="evenodd" d="M139.709 89.5505C142.528 88.3551 155.829 107.014 169.417 131.227C183.005 155.44 191.735 176.038 188.916 177.235C186.096 178.43 172.795 159.772 159.207 135.559C145.619 111.345 136.89 90.7473 139.709 89.5505ZM142.282 94.5707C140.52 95.3185 149.341 114.189 161.373 135.63C173.406 157.072 185.084 174.73 186.846 173.983C188.608 173.235 179.787 154.365 167.755 132.923C155.722 111.482 144.044 93.8234 142.282 94.5707Z" fill="#FFF4FA"/>
  <path fill-rule="evenodd" clip-rule="evenodd" d="M139.236 90.646C139.635 90.4788 140.93 92.0331 142.854 94.8319C142.659 94.732 142.504 94.7044 142.39 94.7521C140.612 95.4968 149.51 114.277 161.648 135.617C172.849 155.307 183.744 171.791 186.759 173.637C187.524 175.532 187.812 176.652 187.505 176.78C184.66 177.971 173.17 159.644 159.463 135.546C145.755 111.448 136.391 91.8369 139.236 90.646Z" fill="#FFF4FA"/>
  <path fill-rule="evenodd" clip-rule="evenodd" d="M190.823 126.435C183.373 126.114 177.477 123.574 173.134 118.816C166.62 111.679 165.92 106.37 165.92 105.742C165.92 105.025 167.811 106.355 170.118 107.979C172.004 109.306 174.169 110.828 175.807 111.589C178.499 112.84 187.168 115.299 195.85 117.761C198.916 118.631 201.984 119.501 204.79 120.318C212.227 122.485 212.76 127.347 212.76 129.775C212.76 133.036 209.845 135.264 207.12 135.695C204.692 136.08 200.346 138.417 200.694 141.995C203.746 144.591 206.471 147.278 208.384 149.726C211.067 151.848 212.943 154.192 210.764 157.193C210.752 157.212 210.739 157.23 210.725 157.248C210.722 157.253 210.718 157.258 210.714 157.263C208.655 160.032 203.556 156.986 199.067 154.305C196.364 152.69 193.882 151.207 192.419 151.207C191.487 151.207 190.411 151.27 189.215 151.339C185.414 151.559 180.408 151.848 175.029 150.428C172.512 149.763 170.346 148.58 168.495 147.332C167.358 147.158 165.119 145.092 164.086 144.139C163.788 143.864 163.59 143.681 163.549 143.664C162.069 143.043 160.672 142.933 160.241 142.925C160.092 142.922 159.946 142.93 159.802 142.946C159.375 143.125 158.934 143.36 158.439 143.625C156.994 144.398 155.088 145.418 151.722 145.971C151.682 145.978 151.642 145.984 151.602 145.989C151.354 146.027 151.104 146.056 150.854 146.076C150.762 146.09 150.668 146.104 150.574 146.118C150.089 146.189 149.605 146.174 149.126 146.087C145.884 145.889 142.659 144.548 140.35 143.589C139.006 143.03 137.973 142.601 137.427 142.601C136.441 142.601 136.425 142.91 136.361 144.094C136.312 144.992 136.236 146.395 135.689 148.548C134.421 153.539 127.998 156.578 124.977 152.339C121.956 148.101 131.302 135.509 132.045 134.777C132.789 134.045 135.023 132.025 136.781 133.26C138.129 134.206 139.217 134.861 140.533 134.71C140.595 134.505 140.705 134.36 140.866 134.289C141.421 134.045 141.804 133.027 142.306 131.691C143.588 128.281 145.65 122.798 153.341 122.798C153.463 122.798 153.583 122.798 153.7 122.799C153.864 122.798 154.03 122.8 154.199 122.804C155.276 122.822 156.149 122.875 156.897 122.963C157.079 122.984 157.447 123.035 157.899 123.15C162.178 123.792 165.728 125.166 169.092 126.468C172.545 127.805 175.802 129.065 179.449 129.38C184.855 129.847 188.646 128.865 190.823 126.435ZM206.2 127.07C206.685 127.429 207.128 127.674 207.53 127.806C206.823 128.293 205.987 128.437 205.021 128.238C203.571 127.939 203.255 127.12 203.05 126.564C202.924 126.221 202.142 125.863 201.652 125.639C201.348 125.5 201.156 125.412 201.306 125.412C201.42 125.412 201.633 125.386 201.904 125.353C202.567 125.273 203.574 125.151 204.312 125.263C204.948 125.359 205.24 125.812 205.537 126.272C205.726 126.564 205.917 126.86 206.2 127.07Z" fill="#FFF4FA"/>
  <path d="M178.89 235.169L183.355 241.504L190.517 244.44L184.179 248.883L181.224 256.068L176.778 249.709L169.617 246.773L175.954 242.33L178.89 235.169Z" fill="url(#paint7_linear)" fill-opacity="0.45"/>
  <path d="M147.391 12.9979L149.993 16.7018L154.179 18.414L150.475 21.0162L148.754 25.2028L146.16 21.4979L141.974 19.7766L145.679 17.1835L147.391 12.9979Z" fill="url(#paint8_linear)" fill-opacity="0.45"/>
  <path d="M289.399 238.555C268.636 258.304 244.592 266.742 235.704 257.397C226.815 248.052 236.446 224.46 257.209 204.712C277.98 184.956 302.016 176.525 310.905 185.87C319.793 195.216 310.17 218.8 289.399 238.555Z" fill="url(#paint9_linear)" fill-opacity="0.45"/>
  <path d="M240.908 187.287L239.713 191.015L240.728 194.807L236.982 193.612L233.199 194.619L234.393 190.891L233.387 187.09L237.124 188.293L240.908 187.287Z" fill="white"/>
  <path fill-rule="evenodd" clip-rule="evenodd" d="M235.704 257.397C244.593 266.743 268.637 258.305 289.4 238.556C310.156 218.814 319.781 195.249 310.924 185.89L318.529 193.886C327.418 203.231 317.808 226.83 297.037 246.585C276.274 266.334 252.223 274.765 243.328 265.413L243.321 265.405L235.704 257.397ZM310.288 185.272C310.495 185.457 310.694 185.65 310.887 185.851L310.313 185.248L310.288 185.272ZM235.137 256.751C235.317 256.973 235.506 257.189 235.704 257.397L235.112 256.775L235.137 256.751Z" fill="url(#paint10_linear)" fill-opacity="0.45"/>
  <path d="M285.349 234.297C269.771 249.114 252.312 256.031 246.337 249.749C240.368 243.474 248.152 226.37 263.722 211.56C279.293 196.75 296.766 189.833 302.741 196.115C308.709 202.39 300.926 219.48 285.349 234.297Z" fill="url(#paint11_linear)" fill-opacity="0.45"/>
  <path fill-rule="evenodd" clip-rule="evenodd" d="M304.691 200.737C304.505 198.869 303.868 197.299 302.741 196.115C296.766 189.833 279.294 196.75 263.723 211.56C248.63 225.916 240.854 242.427 245.827 249.142C245.823 249.137 245.819 249.133 245.814 249.128C239.476 242.464 246 223.498 261.967 208.312C277.927 193.131 295.704 185.911 301.679 192.193C303.146 193.735 304.741 195.412 304.693 200.645C304.692 200.676 304.692 200.706 304.691 200.737Z" fill="#FF75C7"/>
  <path fill-rule="evenodd" clip-rule="evenodd" d="M279.93 199.449C280.837 199.356 278.614 208.732 274.964 220.394C271.314 232.055 267.619 241.584 266.712 241.679C265.804 241.773 268.027 232.396 271.677 220.735C275.327 209.074 279.022 199.544 279.93 199.449ZM279.122 201.834C278.555 201.893 275.342 210.736 272.109 221.063C268.877 231.389 266.584 240.138 267.151 240.079C267.718 240.02 270.931 231.176 274.164 220.85C277.396 210.523 279.689 201.775 279.122 201.834Z" fill="#FF75C7"/>
  <path fill-rule="evenodd" clip-rule="evenodd" d="M279.538 199.826C279.666 199.814 279.519 200.621 279.171 202.017C279.157 201.95 279.132 201.918 279.096 201.921C278.526 201.977 275.353 210.795 272.17 221.095C269.233 230.599 267.091 238.765 267.225 239.927C266.877 240.798 266.638 241.29 266.539 241.3C265.628 241.388 268.139 232.396 271.733 220.764C275.328 209.133 278.626 199.915 279.538 199.826Z" fill="#FF75C7"/>
  <path fill-rule="evenodd" clip-rule="evenodd" d="M280.707 221.411C279.24 220.253 278.691 218.413 279.06 215.891C279.613 212.107 280.888 209.865 281.057 209.611C281.249 209.321 281.286 210.12 281.333 211.095C281.371 211.891 281.414 212.805 281.552 213.339C281.778 214.216 282.926 216.406 284.076 218.6L284.076 218.6C284.482 219.374 284.889 220.149 285.255 220.867C286.225 222.769 285.034 224.808 284.384 225.789C283.511 227.107 282.307 227.605 281.624 227.403C281.015 227.224 279.484 227.568 278.599 229.063C278.54 230.533 278.388 231.995 278.131 233.249C278.123 234.476 277.886 235.681 276.631 236.593C276.621 236.601 276.61 236.609 276.6 236.616C275.429 237.451 275.182 235.516 274.964 233.813L274.964 233.813C274.833 232.787 274.713 231.845 274.408 231.643C274.214 231.515 273.973 231.392 273.705 231.255L273.705 231.254C272.854 230.819 271.734 230.245 270.993 228.928C270.646 228.312 270.512 227.535 270.46 226.775C270.27 226.548 270.356 225.404 270.396 224.876C270.408 224.724 270.415 224.623 270.411 224.61C270.269 224.155 270.008 223.917 269.92 223.855C269.89 223.833 269.857 223.816 269.823 223.803C269.686 223.816 269.531 223.85 269.357 223.889C268.849 224.002 268.179 224.151 267.329 223.91C267.323 223.908 267.316 223.906 267.31 223.904C267.306 223.903 267.302 223.902 267.299 223.901C267.237 223.882 267.177 223.859 267.12 223.832C267.097 223.825 267.074 223.818 267.051 223.811C266.931 223.773 266.834 223.7 266.758 223.599C266.135 223.071 265.821 222.084 265.597 221.378L265.597 221.378C265.467 220.967 265.366 220.65 265.252 220.575C265.047 220.439 264.961 220.562 264.631 221.031C264.38 221.388 263.989 221.944 263.298 222.739C261.698 224.581 259.546 224.922 260.051 222.792C260.556 220.662 265.874 216.863 266.225 216.67C266.576 216.477 267.582 215.969 267.618 216.711C267.646 217.279 267.697 217.694 268.012 217.815C268.08 217.74 268.141 217.697 268.194 217.69C268.375 217.668 268.727 217.31 269.19 216.839C270.37 215.638 272.267 213.706 273.87 214.768C273.897 214.786 273.923 214.803 273.948 214.82C273.98 214.841 274.012 214.863 274.043 214.886C274.264 215.043 274.434 215.186 274.567 215.326C274.599 215.359 274.662 215.431 274.726 215.54C275.445 216.39 275.817 217.435 276.17 218.425C276.531 219.442 276.873 220.401 277.548 221.032C278.55 221.966 279.603 222.093 280.707 221.411ZM283.741 223.79C283.746 224.003 283.773 224.163 283.821 224.271C283.544 224.371 283.331 224.314 283.183 224.1C282.961 223.779 283.114 223.404 283.22 223.151C283.286 222.995 283.219 222.742 283.177 222.584C283.15 222.486 283.134 222.424 283.165 222.445C283.189 222.461 283.24 222.48 283.305 222.504C283.465 222.563 283.708 222.653 283.832 222.8C283.938 222.926 283.878 223.149 283.817 223.376C283.778 223.521 283.738 223.667 283.741 223.79Z" fill="#FF75C7"/>
  <path fill-rule="evenodd" clip-rule="evenodd" d="M279.93 200.448C280.837 200.354 278.614 209.73 274.964 221.392C271.314 233.053 267.619 242.583 266.712 242.677C265.804 242.771 268.027 233.394 271.677 221.733C275.327 210.072 279.022 200.542 279.93 200.448ZM279.122 202.832C278.555 202.891 275.342 211.735 272.109 222.061C268.877 232.387 266.584 241.136 267.151 241.077C267.718 241.018 270.931 232.174 274.164 221.848C277.396 211.521 279.689 202.773 279.122 202.832Z" fill="#FFF4FA"/>
  <path fill-rule="evenodd" clip-rule="evenodd" d="M279.538 200.824C279.666 200.812 279.519 201.619 279.171 203.015C279.157 202.948 279.132 202.916 279.096 202.919C278.526 202.975 275.353 211.793 272.17 222.093C269.233 231.597 267.091 239.763 267.225 240.925C266.877 241.796 266.638 242.288 266.539 242.298C265.628 242.386 268.139 233.394 271.733 221.763C275.328 210.131 278.626 200.913 279.538 200.824Z" fill="#FFF4FA"/>
  <path fill-rule="evenodd" clip-rule="evenodd" d="M280.707 222.409C279.24 221.251 278.691 219.411 279.06 216.889C279.613 213.105 280.888 210.863 281.057 210.609C281.249 210.319 281.286 211.118 281.333 212.093C281.371 212.889 281.414 213.803 281.552 214.337C281.778 215.214 282.926 217.404 284.076 219.598L284.076 219.598C284.482 220.372 284.889 221.148 285.255 221.865C286.225 223.767 285.034 225.806 284.384 226.787C283.511 228.105 282.307 228.603 281.624 228.401C281.015 228.222 279.484 228.566 278.599 230.061C278.54 231.531 278.388 232.993 278.131 234.247C278.123 235.474 277.886 236.681 276.629 237.593C276.623 237.597 276.617 237.602 276.611 237.606C276.607 237.609 276.604 237.611 276.6 237.614C275.429 238.449 275.182 236.514 274.964 234.811C274.833 233.785 274.713 232.843 274.408 232.641C274.214 232.513 273.973 232.39 273.705 232.252L273.705 232.252C272.854 231.817 271.734 231.243 270.993 229.926C270.646 229.31 270.512 228.533 270.46 227.773C270.27 227.546 270.356 226.402 270.396 225.874C270.408 225.722 270.415 225.621 270.411 225.608C270.269 225.153 270.008 224.916 269.92 224.853C269.889 224.831 269.857 224.814 269.823 224.801C269.686 224.814 269.531 224.848 269.357 224.887C268.849 225 268.179 225.149 267.329 224.908C267.319 224.905 267.31 224.903 267.301 224.899C267.238 224.88 267.178 224.857 267.12 224.83C267.097 224.824 267.074 224.816 267.051 224.809C266.931 224.771 266.834 224.698 266.757 224.597C266.135 224.069 265.821 223.082 265.597 222.376L265.597 222.376C265.467 221.965 265.366 221.648 265.252 221.573C265.047 221.437 264.961 221.56 264.631 222.029C264.38 222.386 263.989 222.942 263.298 223.737C261.698 225.579 259.546 225.92 260.051 223.79C260.556 221.66 265.874 217.862 266.225 217.668C266.576 217.475 267.582 216.967 267.618 217.709C267.646 218.277 267.697 218.692 268.012 218.813C268.08 218.738 268.141 218.695 268.194 218.688C268.375 218.666 268.727 218.308 269.19 217.837C270.37 216.636 272.267 214.705 273.87 215.766C273.896 215.783 273.921 215.8 273.946 215.817C273.979 215.839 274.012 215.862 274.045 215.886C274.265 216.042 274.434 216.184 274.567 216.324C274.599 216.357 274.662 216.429 274.725 216.538C275.445 217.388 275.817 218.433 276.17 219.423C276.531 220.44 276.873 221.399 277.548 222.03C278.55 222.964 279.603 223.091 280.707 222.409ZM283.741 224.788C283.746 225.001 283.773 225.161 283.821 225.269C283.544 225.369 283.331 225.312 283.183 225.098C282.961 224.777 283.114 224.402 283.22 224.149C283.286 223.993 283.219 223.74 283.177 223.582C283.15 223.484 283.134 223.422 283.165 223.443C283.189 223.459 283.24 223.478 283.305 223.502C283.465 223.561 283.708 223.651 283.831 223.798C283.938 223.924 283.878 224.147 283.817 224.374C283.778 224.519 283.738 224.665 283.741 224.788Z" fill="#FFF4FA"/>
  <path d="M315.259 200.917L313.963 204.952L315.055 209.061L311.013 207.758L306.911 208.857L308.207 204.808L307.108 200.706L311.157 202.002L315.259 200.917Z" fill="white"/>
  <path d="M315.259 200.917L313.963 204.952L315.055 209.061L311.013 207.758L306.911 208.857L308.207 204.808L307.108 200.706L311.157 202.002L315.259 200.917Z" fill="url(#paint12_linear)" fill-opacity="0.5"/>
  <path d="M69.0102 57.8002C76.443 47.6488 71.0109 31.0302 56.8772 20.6816C42.7435 10.3329 25.2603 10.1729 17.8275 20.3243C10.3946 30.4757 15.8268 47.0943 29.9605 57.443C44.0942 67.7917 61.5774 67.9516 69.0102 57.8002Z" fill="url(#paint13_linear)" fill-opacity="0.45"/>
  <path fill-rule="evenodd" clip-rule="evenodd" d="M16.3963 22.6615C11.2404 32.8839 16.8658 47.8546 29.961 57.4429C43.0562 67.0312 59.0268 67.873 67.2148 59.8708C66.806 60.6814 66.3293 61.4622 65.7832 62.2081C58.3504 72.3595 40.8672 72.1996 26.7335 61.8509C12.5998 51.5022 7.16766 34.8836 14.6005 24.7322C15.1466 23.9863 15.747 23.2961 16.3963 22.6615Z" fill="url(#paint14_linear)" fill-opacity="0.45"/>
  <path d="M33.0015 53.2899C43.6009 61.0507 56.599 61.3233 62.0316 53.9037C67.4642 46.4842 63.2791 34.1752 52.6797 26.4144C42.0804 18.6535 29.086 18.3759 23.6497 25.8005C18.2133 33.2252 22.4022 45.529 33.0015 53.2899Z" fill="url(#paint15_linear)" fill-opacity="0.45"/>
  <path fill-rule="evenodd" clip-rule="evenodd" d="M62.4172 53.3454C62.5633 53.1677 62.7049 52.9853 62.8419 52.7981C68.4536 45.134 64.1963 32.4747 53.3371 24.5235C42.4727 16.5687 29.1239 16.3368 23.5122 24.0009C21.1921 27.1696 20.5596 31.1913 21.3832 35.3809C20.9696 31.8445 21.6738 28.5001 23.6503 25.8007C29.0866 18.3761 42.081 18.6537 52.6804 26.4146C63.018 33.9837 67.2542 45.8791 62.4172 53.3454Z" fill="url(#paint16_linear)" fill-opacity="0.4"/>
  <path fill-rule="evenodd" clip-rule="evenodd" d="M25.4162 38.338C25.4827 37.505 32.7306 38.2716 41.605 40.0502C50.4793 41.8288 57.6197 43.946 57.5537 44.7791C57.4871 45.6121 50.2393 44.8456 41.365 43.0669C32.4906 41.2883 25.3502 39.1711 25.4162 38.338ZM27.2209 38.7589C27.1796 39.2796 33.84 41.0433 41.6986 42.6183C49.5572 44.1934 56.2848 45.1129 56.3263 44.5923C56.3676 44.0716 49.7072 42.3079 41.8486 40.7329C33.99 39.1579 27.2624 38.2383 27.2209 38.7589Z" fill="#FF6FC3"/>
  <path fill-rule="evenodd" clip-rule="evenodd" d="M25.6603 38.6512C25.6703 38.5336 26.3011 38.5575 27.3779 38.6879C27.3213 38.71 27.291 38.7378 27.2881 38.7714C27.2435 39.2949 33.8896 41.0249 41.7343 42.5577C48.9728 43.972 55.2523 44.8316 56.2149 44.5449C56.8663 44.7478 57.2274 44.9025 57.2197 44.9929C57.1481 45.8304 50.2568 44.7415 41.398 43.0106C32.5393 41.2796 25.5888 39.4887 25.6603 38.6512Z" fill="#FF6FC3"/>
  <path fill-rule="evenodd" clip-rule="evenodd" d="M43.3321 34.5548C42.1634 36.0831 40.5862 36.8511 38.6006 36.8587C35.622 36.87 34.0056 35.9935 33.8264 35.8721C33.6217 35.7335 34.2748 35.5869 35.0717 35.408C35.723 35.2617 36.4705 35.094 36.9245 34.8913C37.6705 34.5583 39.6256 33.1827 41.5835 31.8052L41.5836 31.8052L41.5836 31.8051C42.2751 31.3186 42.9669 30.8319 43.6059 30.3908C45.2992 29.2218 46.7639 30.0478 47.4569 30.5171C48.3874 31.1473 48.6018 32.2001 48.331 32.8653C48.0897 33.4578 48.1282 34.8374 49.1999 35.4545C50.3819 35.3048 51.5426 35.2423 52.5176 35.3071C53.512 35.144 54.4527 35.1969 54.9942 36.2444C54.9981 36.2516 55.0018 36.2588 55.0055 36.266C55.498 37.241 53.8916 37.7409 52.4775 38.1809C51.6258 38.446 50.8438 38.6893 50.6323 39.0016C50.4977 39.2005 50.3598 39.4423 50.2067 39.7109L50.2067 39.7109C49.7199 40.5649 49.0787 41.6897 47.8957 42.5635C47.3422 42.9723 46.6914 43.2062 46.0677 43.3601C45.8538 43.5691 44.9404 43.6478 44.5189 43.6841C44.3973 43.6946 44.3166 43.7016 44.3056 43.7071C43.9146 43.903 43.6812 44.18 43.6166 44.2704C43.5942 44.3018 43.5752 44.3344 43.5591 44.3684C43.5483 44.494 43.5518 44.6337 43.5558 44.7905C43.5675 45.2485 43.5829 45.8524 43.2543 46.6779C43.2506 46.6871 43.2468 46.6963 43.2428 46.7053C43.2175 46.7662 43.1893 46.8256 43.1585 46.8834C43.1493 46.9059 43.1399 46.9286 43.1302 46.9514C43.0802 47.0686 43.006 47.1691 42.9119 47.2544C42.3866 47.9082 41.538 48.3377 40.9304 48.6451C40.5767 48.8241 40.3047 48.9617 40.2258 49.0782C40.0833 49.2887 40.1691 49.352 40.4977 49.5944C40.7471 49.7784 41.1364 50.0656 41.6718 50.5986C42.9127 51.8339 42.8513 53.7925 41.2049 53.6182C39.5586 53.4439 37.3165 49.0154 37.215 48.7151C37.1136 48.4149 36.86 47.5476 37.4667 47.4108C37.9316 47.306 38.2759 47.2003 38.4229 46.8901C38.3733 46.8373 38.3479 46.786 38.351 46.7378C38.3616 46.5721 38.1264 46.2937 37.8177 45.9281C37.03 44.9955 35.7632 43.4956 36.8752 41.8536C36.8928 41.8277 36.9101 41.8023 36.9272 41.7775C36.9507 41.7421 36.9754 41.7068 37.0014 41.6715C37.162 41.4452 37.3032 41.2691 37.4364 41.1265C37.4688 41.0917 37.5364 41.023 37.6345 40.9488C38.4365 40.1594 39.3419 39.6669 40.1998 39.2004C41.0805 38.7214 41.911 38.2697 42.5282 37.5519C43.4429 36.4882 43.7108 35.4891 43.3321 34.5548ZM45.7364 31.3947C45.9091 31.3606 46.0431 31.3134 46.1387 31.253C46.1756 31.4981 46.0958 31.7045 45.8992 31.8722C45.6044 32.1239 45.3249 32.033 45.1365 31.9693C45.0203 31.93 44.8052 32.0278 44.6705 32.089C44.5867 32.1271 44.5341 32.151 44.5558 32.119C44.5722 32.0948 44.5956 32.0443 44.6254 31.9801C44.6984 31.8231 44.8093 31.5844 44.9479 31.4485C45.0673 31.3315 45.2385 31.3565 45.4128 31.382C45.5236 31.3982 45.6357 31.4146 45.7364 31.3947Z" fill="#FF6FC3"/>
  <path fill-rule="evenodd" clip-rule="evenodd" d="M25.843 37.8732C25.9095 37.0402 33.1573 37.8068 42.0317 39.5854C50.9061 41.364 58.0465 43.4811 57.9805 44.3143C57.9139 45.1473 50.6661 44.3807 41.7917 42.6021C32.9173 40.8234 25.7769 38.7063 25.843 37.8732ZM27.6476 38.2941C27.6063 38.8148 34.2668 40.5785 42.1253 42.1535C49.9839 43.7285 56.7115 44.6481 56.7531 44.1274C56.7943 43.6068 50.1339 41.8431 42.2754 40.268C34.4168 38.693 27.6892 37.7734 27.6476 38.2941Z" fill="#FFF4FA"/>
  <path fill-rule="evenodd" clip-rule="evenodd" d="M26.087 38.1864C26.0971 38.0688 26.7278 38.0927 27.8046 38.223C27.7481 38.2452 27.7177 38.273 27.7149 38.3066C27.6703 38.83 34.3163 40.56 42.1611 42.0928C49.3995 43.5071 55.679 44.3668 56.6417 44.08C57.293 44.283 57.6542 44.4376 57.6465 44.5281C57.5748 45.3656 50.6836 44.2767 41.8248 42.5457C32.966 40.8148 26.0156 39.0239 26.087 38.1864Z" fill="#FFF4FA"/>
  <path fill-rule="evenodd" clip-rule="evenodd" d="M43.7588 34.09C42.5902 35.6183 41.013 36.3862 39.0273 36.3938C36.0487 36.4051 34.4324 35.5286 34.2531 35.4072C34.0485 35.2686 34.7015 35.122 35.4985 34.9431C36.1498 34.7969 36.8973 34.6291 37.3512 34.4265C38.0973 34.0934 40.0524 32.7179 42.0103 31.3403L42.0103 31.3403L42.0104 31.3403C42.7018 30.8538 43.3937 30.3671 44.0327 29.9259C45.726 28.7569 47.1907 29.583 47.8836 30.0523C48.8141 30.6824 49.0285 31.7352 48.7577 32.4004C48.5165 32.9929 48.555 34.3726 49.6266 34.9897C50.8087 34.84 51.9694 34.7774 52.9445 34.8422C53.9379 34.6793 54.8779 34.732 55.4196 35.7769C55.4239 35.7849 55.4282 35.793 55.4323 35.8012C55.9248 36.7761 54.3184 37.276 52.9043 37.7161C52.0526 37.9811 51.2706 38.2245 51.0591 38.5368C50.9245 38.7356 50.7866 38.9774 50.6335 39.246L50.6335 39.246C50.1467 40.1 49.5055 41.2248 48.3225 42.0987C47.769 42.5075 47.1182 42.7414 46.4944 42.8953C46.2806 43.1043 45.3671 43.183 44.9457 43.2193C44.824 43.2298 44.7434 43.2367 44.7323 43.2422C44.3414 43.4382 44.108 43.7152 44.0434 43.8056C44.021 43.8369 44.002 43.8695 43.9859 43.9034C43.9751 44.0291 43.9787 44.1688 43.9827 44.3257C43.9943 44.7836 44.0098 45.3875 43.6811 46.213C43.6772 46.2229 43.673 46.2328 43.6687 46.2425C43.6437 46.3026 43.6158 46.3612 43.5854 46.4184C43.5762 46.441 43.5667 46.4637 43.5569 46.4866C43.507 46.6038 43.4328 46.7042 43.3387 46.7896C42.8134 47.4434 41.9647 47.8729 41.3571 48.1803C41.0035 48.3593 40.7315 48.4969 40.6526 48.6134C40.5101 48.8238 40.5959 48.8871 40.9245 49.1296C41.1739 49.3136 41.5631 49.6008 42.0985 50.1338C43.3394 51.369 43.2781 53.3276 41.6317 53.1533C39.9854 52.979 37.7432 48.5505 37.6418 48.2503C37.5404 47.95 37.2867 47.0828 37.8935 46.946C38.3583 46.8412 38.7026 46.7354 38.8497 46.4252C38.8001 46.3724 38.7747 46.3211 38.7778 46.2729C38.7884 46.1073 38.5532 45.8288 38.2444 45.4633C37.4568 44.5306 36.19 43.0307 37.302 41.3888C37.3194 41.3631 37.3366 41.3379 37.3535 41.3133C37.3773 41.2775 37.4024 41.2417 37.4287 41.2058C37.5891 40.98 37.7302 40.8041 37.8632 40.6616C37.8956 40.6269 37.9632 40.5582 38.0612 40.484C38.8632 39.6945 39.7687 39.2021 40.6266 38.7355C41.5072 38.2566 42.3378 37.8049 42.955 37.0871C43.8696 36.0233 44.1376 35.0243 43.7588 34.09ZM46.1632 30.9298C46.3359 30.8957 46.4699 30.8485 46.5655 30.7881C46.6024 31.0331 46.5226 31.2395 46.326 31.4073C46.0312 31.659 45.7517 31.5681 45.5633 31.5044C45.4471 31.4651 45.232 31.5629 45.0973 31.6241C45.0135 31.6622 44.9609 31.6861 44.9826 31.6541C44.999 31.6298 45.0224 31.5793 45.0522 31.5152C45.1252 31.3582 45.2361 31.1195 45.3747 30.9836C45.494 30.8665 45.6653 30.8916 45.8395 30.9171C45.9504 30.9333 46.0625 30.9496 46.1632 30.9298Z" fill="#FFF4FA"/>
  <defs>
    <linearGradient id="paint0_linear" x1="108.809" y1="212.899" x2="108.14" y2="245.888" gradientUnits="userSpaceOnUse">
      <stop stop-color="#FF0097"/>
      <stop offset="1" stop-color="#FFA9D1"/>
    </linearGradient>
    <linearGradient id="paint1_linear" x1="111.037" y1="71.9311" x2="224.604" y2="195.109" gradientUnits="userSpaceOnUse">
      <stop stop-color="#FF0097"/>
      <stop offset="1" stop-color="#FFA9D1"/>
    </linearGradient>
    <linearGradient id="paint2_linear" x1="38.4975" y1="-64.8097" x2="208.06" y2="188.741" gradientUnits="userSpaceOnUse">
      <stop offset="0.59375" stop-color="#FFA9D1"/>
      <stop offset="1" stop-color="#FF0097"/>
    </linearGradient>
    <linearGradient id="paint3_linear" x1="77.5644" y1="82.2888" x2="77.159" y2="102.28" gradientUnits="userSpaceOnUse">
      <stop stop-color="#FF0097"/>
      <stop offset="1" stop-color="#FFA9D1"/>
    </linearGradient>
    <linearGradient id="paint4_linear" x1="149.23" y1="38.8423" x2="141.715" y2="44.1148" gradientUnits="userSpaceOnUse">
      <stop offset="0.0851474" stop-color="#FF0097"/>
      <stop offset="1" stop-color="#FFA9D1"/>
    </linearGradient>
    <linearGradient id="paint5_linear" x1="264.784" y1="42.951" x2="264.363" y2="63.7341" gradientUnits="userSpaceOnUse">
      <stop stop-color="#FF0097"/>
      <stop offset="1" stop-color="#FFA9D1"/>
    </linearGradient>
    <linearGradient id="paint6_linear" x1="231.298" y1="192.487" x2="230.992" y2="207.58" gradientUnits="userSpaceOnUse">
      <stop stop-color="#FF0097"/>
      <stop offset="1" stop-color="#FFA9D1"/>
    </linearGradient>
    <linearGradient id="paint7_linear" x1="200.04" y1="248.787" x2="186.725" y2="260.534" gradientUnits="userSpaceOnUse">
      <stop offset="0.0851474" stop-color="#FF0097"/>
      <stop offset="1" stop-color="#FFA9D1"/>
    </linearGradient>
    <linearGradient id="paint8_linear" x1="159.74" y1="20.9506" x2="151.964" y2="27.8111" gradientUnits="userSpaceOnUse">
      <stop offset="0.0851474" stop-color="#FF0097"/>
      <stop offset="1" stop-color="#FFA9D1"/>
    </linearGradient>
    <linearGradient id="paint9_linear" x1="289.516" y1="184.794" x2="307.858" y2="242.803" gradientUnits="userSpaceOnUse">
      <stop stop-color="#FF0097"/>
      <stop offset="1" stop-color="#FFA9D1"/>
    </linearGradient>
    <linearGradient id="paint10_linear" x1="291.924" y1="238.482" x2="300.962" y2="250.299" gradientUnits="userSpaceOnUse">
      <stop stop-color="#FF0097"/>
      <stop offset="1" stop-color="#FFA9D1"/>
    </linearGradient>
    <linearGradient id="paint11_linear" x1="280.195" y1="257.695" x2="253.4" y2="241.822" gradientUnits="userSpaceOnUse">
      <stop offset="0.0851474" stop-color="#FF0097"/>
      <stop offset="1" stop-color="#FFA9D1"/>
    </linearGradient>
    <linearGradient id="paint12_linear" x1="309.639" y1="204.798" x2="313.132" y2="204.816" gradientUnits="userSpaceOnUse">
      <stop stop-color="#FF0097"/>
      <stop offset="1" stop-color="#FFA9D1"/>
    </linearGradient>
    <linearGradient id="paint13_linear" x1="81.4327" y1="14.5425" x2="74.5288" y2="55.9382" gradientUnits="userSpaceOnUse">
      <stop offset="0.0851474" stop-color="#FF0097"/>
      <stop offset="1" stop-color="#FFA9D1"/>
    </linearGradient>
    <linearGradient id="paint14_linear" x1="30.0117" y1="63.7436" x2="26.8995" y2="16.7546" gradientUnits="userSpaceOnUse">
      <stop stop-color="#FF0097"/>
      <stop offset="1" stop-color="#FFA9D1"/>
    </linearGradient>
    <linearGradient id="paint15_linear" x1="31.3062" y1="52.0671" x2="29.2468" y2="31.4203" gradientUnits="userSpaceOnUse">
      <stop offset="0.0851474" stop-color="#FF0097"/>
      <stop offset="1" stop-color="#FFA9D1"/>
    </linearGradient>
    <linearGradient id="paint16_linear" x1="35.0911" y1="19.9475" x2="65.8737" y2="54.8829" gradientUnits="userSpaceOnUse">
      <stop stop-color="#FF0097"/>
      <stop offset="1" stop-color="#FFA9D1"/>
    </linearGradient>
  </defs>
</svg>
