<svg width="66" height="66" viewBox="0 0 66 66" fill="none" xmlns="http://www.w3.org/2000/svg">
  <path fill-rule="evenodd" clip-rule="evenodd" d="M49.6183 27.82C44.0552 27.5831 39.6522 25.7087 36.4092 22.1969C31.5447 16.9293 31.0217 13.0109 31.0217 12.5473C31.0217 11.5855 35.6851 15.6141 38.4052 16.8628C41.1252 18.1116 52.0191 20.9939 60.0489 23.3056C65.6022 24.9043 66 28.4931 66 30.2853C66 32.6918 63.8234 34.3361 61.7884 34.6547C59.7534 34.9732 55.9117 37.1081 57.2534 40.3166C58.5951 43.5251 67.89 46.0308 64.4724 50.572C62.0078 53.8469 53.7163 46.1028 50.8098 46.1028C47.9034 46.1028 43.1038 46.9056 37.8238 45.5275C32.5438 44.1494 29.3277 39.7514 27.6035 39.7514C25.8793 39.7514 24.8224 41.5225 20.4192 42.2382C16.0159 42.954 11.0396 39.7514 9.74478 39.7514C8.44991 39.7514 9.39399 40.4573 8.44689 44.1407C7.49979 47.8242 2.70324 50.0672 0.447464 46.9388C-1.80831 43.8104 5.17044 34.5174 5.72576 33.977C6.28107 33.4366 7.94896 31.9456 9.26238 32.8571C10.5758 33.7686 11.5594 34.3141 13.0214 33.6479C14.4835 32.9818 14.4835 24.7841 22.4702 25.1478C30.4569 25.5116 35.0705 29.4768 41.1252 29.9935C45.1617 30.3379 47.9928 29.6134 49.6183 27.82Z" fill="url(#logo0_linear)"/>
  <path fill-rule="evenodd" clip-rule="evenodd" d="M64.4724 50.5727C62.0078 53.8476 53.7163 46.1034 50.8098 46.1034C47.9034 46.1034 43.1038 46.9062 37.8238 45.5281C32.5437 44.15 29.3277 39.752 27.6035 39.752C25.8793 39.752 24.8224 41.5231 20.4192 42.2389C16.0159 42.9546 11.5594 34.3147 13.0214 33.6486C14.4835 32.9824 14.4835 24.7847 22.4702 25.1485C30.4569 25.5122 35.0705 29.4775 41.1252 29.9941C47.18 30.5107 67.89 46.0314 64.4724 50.5727Z" fill="url(#logo1_linear)"/>
  <path fill-rule="evenodd" clip-rule="evenodd" d="M62.0942 28.8338C61.7944 28.7369 61.4633 28.5558 61.1011 28.2905C60.5578 27.8927 60.4679 27.0734 59.6915 26.9571C58.9152 26.8407 57.7389 27.067 57.4468 27.067C57.1547 27.067 58.5957 27.5063 58.7488 27.9169C58.902 28.3274 59.138 28.932 60.2204 29.1527C60.9419 29.2998 61.5666 29.1935 62.0942 28.8338Z" fill="white"/>
  <path fill-rule="evenodd" clip-rule="evenodd" d="M11.4017 0.655442C13.5145 -0.226309 23.481 13.5378 33.6626 31.399C43.8443 49.2602 50.3856 64.4549 48.2733 65.3377C46.1604 66.2195 36.194 52.4553 26.0123 34.5941C15.8306 16.7329 9.28934 1.53829 11.4017 0.655442ZM13.3297 4.3587C12.0095 4.91036 18.6192 18.8303 27.6354 34.647C36.6517 50.4637 45.4022 63.4896 46.7227 62.9384C48.0429 62.3867 41.4331 48.4668 32.4169 32.6501C23.4007 16.8333 14.6502 3.80749 13.3297 4.3587Z" fill="url(#logo2_linear)"/>
  <path fill-rule="evenodd" clip-rule="evenodd" d="M11.9875 1.28661C12.2867 1.16264 13.2569 2.31503 14.6978 4.39027C14.5524 4.31621 14.4361 4.2957 14.3506 4.33109C13.0185 4.88321 19.6852 18.8082 28.7795 34.6306C37.1709 49.23 45.3344 61.4523 47.5929 62.821C48.1659 64.2261 48.3823 65.0559 48.1521 65.1513C46.0204 66.034 37.4117 52.4454 27.1418 34.5779C16.872 16.7103 9.85589 2.16961 11.9875 1.28661Z" fill="url(#logo3_linear)"/>
  <path fill-rule="evenodd" clip-rule="evenodd" d="M26.781 39.9906C25.0583 39.959 23.9729 41.7117 19.5615 42.3473C15.1502 42.9828 10.8404 34.2566 12.3123 33.6169C13.7842 32.9772 13.6334 25.1355 21.6284 25.1355C22.7367 25.1355 23.5838 25.1761 24.2836 25.2574C24.7019 25.306 26.4266 25.5577 27.2705 26.769C29.6052 30.1206 35.0568 40.7175 35.5 43.5C35.9432 46.2825 29.439 40.6136 29.2508 40.5356C28.146 40.0777 27.1027 39.9965 26.781 39.9906Z" fill="url(#logo4_linear)"/>
  <path fill-rule="evenodd" clip-rule="evenodd" d="M4.76867 60.9028C4.35012 61.0412 3.86338 61.1104 3.30844 61.1104C2.85697 61.1104 2.45488 61.062 2.10217 60.9651C1.74945 60.8681 1.43789 60.7274 1.16748 60.5428C0.897066 60.3582 0.665451 60.1332 0.472635 59.8678C0.279819 59.6025 0.122274 59.299 0 58.9575L0.839456 58.6183C0.938215 58.9183 1.07107 59.186 1.23802 59.4213C1.40497 59.6567 1.59896 59.8563 1.82 60.0201C2.04103 60.184 2.28675 60.3097 2.55717 60.3974C2.82758 60.4851 3.11563 60.5289 3.42131 60.5289C3.65175 60.5289 3.87984 60.4978 4.10557 60.4355C4.33131 60.3732 4.53353 60.2809 4.71224 60.1586C4.89095 60.0363 5.03438 59.8863 5.14255 59.7086C5.25071 59.5309 5.3048 59.3244 5.3048 59.089C5.3048 58.8075 5.23073 58.5571 5.08259 58.3379C4.93445 58.1187 4.74046 57.918 4.50061 57.7357C4.26077 57.5534 3.98683 57.3815 3.67879 57.2199C3.37076 57.0584 3.05684 56.8969 2.73705 56.7354C2.41726 56.5738 2.10334 56.4042 1.79531 56.2265C1.48727 56.0489 1.21333 55.8504 0.973487 55.6312C0.733642 55.412 0.53965 55.1674 0.391511 54.8974C0.243372 54.6274 0.169302 54.3171 0.169302 53.9663C0.169302 53.6156 0.236317 53.2902 0.370348 52.9902C0.504379 52.6902 0.700722 52.4306 0.959378 52.2114C1.21803 51.9922 1.53665 51.8203 1.91523 51.6957C2.29381 51.5711 2.72764 51.5088 3.21674 51.5088C3.65881 51.5088 4.05384 51.5549 4.40185 51.6472C4.74986 51.7395 5.05555 51.8757 5.31891 52.0557C5.58226 52.2357 5.80565 52.4572 5.98906 52.7202C6.17247 52.9833 6.32061 53.2879 6.43348 53.634L5.62929 53.994C5.53524 53.7125 5.41531 53.4552 5.26953 53.2221C5.12374 52.9891 4.94973 52.7895 4.74751 52.6233C4.54529 52.4572 4.31132 52.3291 4.04561 52.2391C3.7799 52.1491 3.4801 52.1041 3.1462 52.1041C2.84992 52.1041 2.59126 52.1445 2.37023 52.2253C2.1492 52.306 1.96461 52.4122 1.81647 52.5437C1.66833 52.6752 1.55781 52.8229 1.48492 52.9868C1.41203 53.1506 1.37558 53.3179 1.37558 53.4887C1.37558 53.7286 1.45082 53.949 1.60132 54.1498C1.75181 54.3505 1.95168 54.5397 2.20093 54.7174C2.45018 54.8951 2.73352 55.067 3.05096 55.2331C3.3684 55.3993 3.69173 55.5677 4.02092 55.7385C4.35012 55.9093 4.67344 56.0869 4.99088 56.2715C5.30832 56.4561 5.59167 56.658 5.84092 56.8773C6.09017 57.0965 6.29004 57.3365 6.44053 57.5972C6.59102 57.858 6.66627 58.1499 6.66627 58.4729C6.66627 58.8375 6.59573 59.1802 6.45464 59.5009C6.31356 59.8217 6.10193 60.1009 5.81976 60.3386C5.53759 60.5762 5.18723 60.7643 4.76867 60.9028ZM11.809 60.9278C11.5739 61.0063 11.3505 61.0455 11.1388 61.0455C10.8238 61.0455 10.5275 60.9878 10.25 60.8724C9.97255 60.757 9.73035 60.6001 9.52343 60.4017C9.3165 60.2032 9.15308 59.9702 9.03315 59.7025C8.91323 59.4348 8.85327 59.151 8.85327 58.851V53.8044H10.2923V58.851C10.2923 59.0264 10.3335 59.1925 10.4158 59.3494C10.4981 59.5064 10.6121 59.6425 10.7579 59.7579C10.9037 59.8733 11.0718 59.9644 11.2623 60.0313C11.4528 60.0982 11.6585 60.1317 11.8795 60.1317C12.0206 60.1317 12.1723 60.1017 12.3345 60.0417C12.4968 59.9817 12.6555 59.8998 12.8107 59.7959C12.9659 59.6921 13.1105 59.5698 13.2445 59.4291C13.3786 59.2883 13.4926 59.1395 13.5867 58.9825V53.8044H15.0116V60.8932H13.5867V59.564C13.4597 59.7671 13.301 59.9586 13.1105 60.1386C12.92 60.3186 12.7143 60.4755 12.4933 60.6094C12.2722 60.7432 12.0441 60.8493 11.809 60.9278ZM20.4996 61.1104C21.0545 61.1104 21.5412 61.0412 21.9598 60.9028C22.3783 60.7643 22.7287 60.5762 23.0109 60.3386C23.293 60.1009 23.5047 59.8217 23.6458 59.5009C23.7868 59.1802 23.8574 58.8375 23.8574 58.4729C23.8574 58.1499 23.7821 57.858 23.6317 57.5972C23.4812 57.3365 23.2813 57.0965 23.032 56.8773C22.7828 56.658 22.4994 56.4561 22.182 56.2715C21.8646 56.0869 21.5412 55.9093 21.212 55.7385C20.8828 55.5677 20.5595 55.3993 20.2421 55.2331C19.9246 55.067 19.6413 54.8951 19.392 54.7174C19.1428 54.5397 18.9429 54.3505 18.7924 54.1498C18.6419 53.949 18.5667 53.7286 18.5667 53.4887C18.5667 53.3179 18.6031 53.1506 18.676 52.9868C18.7489 52.8229 18.8595 52.6752 19.0076 52.5437C19.1557 52.4122 19.3403 52.306 19.5613 52.2253C19.7824 52.1445 20.041 52.1041 20.3373 52.1041C20.6712 52.1041 20.971 52.1491 21.2367 52.2391C21.5024 52.3291 21.7364 52.4572 21.9386 52.6233C22.1409 52.7895 22.3149 52.9891 22.4606 53.2221C22.6064 53.4552 22.7264 53.7125 22.8204 53.994L23.6246 53.634C23.5117 53.2879 23.3636 52.9833 23.1802 52.7202C22.9968 52.4572 22.7734 52.2357 22.51 52.0557C22.2467 51.8757 21.941 51.7395 21.593 51.6472C21.245 51.5549 20.8499 51.5088 20.4079 51.5088C19.9188 51.5088 19.4849 51.5711 19.1064 51.6957C18.7278 51.8203 18.4092 51.9922 18.1505 52.2114C17.8918 52.4306 17.6955 52.6902 17.5615 52.9902C17.4274 53.2902 17.3604 53.6156 17.3604 53.9663C17.3604 54.3171 17.4345 54.6274 17.5826 54.8974C17.7308 55.1674 17.9248 55.412 18.1646 55.6312C18.4045 55.8504 18.6784 56.0489 18.9864 56.2265C19.2945 56.4042 19.6084 56.5738 19.9282 56.7354C20.248 56.8969 20.5619 57.0584 20.8699 57.2199C21.1779 57.3815 21.4519 57.5534 21.6917 57.7357C21.9316 57.918 22.1256 58.1187 22.2737 58.3379C22.4219 58.5571 22.4959 58.8075 22.4959 59.089C22.4959 59.3244 22.4418 59.5309 22.3337 59.7086C22.2255 59.8863 22.0821 60.0363 21.9034 60.1586C21.7247 60.2809 21.5224 60.3732 21.2967 60.4355C21.071 60.4978 20.8429 60.5289 20.6124 60.5289C20.3067 60.5289 20.0187 60.4851 19.7483 60.3974C19.4779 60.3097 19.2322 60.184 19.0111 60.0201C18.7901 59.8563 18.5961 59.6567 18.4291 59.4213C18.2622 59.186 18.1293 58.9183 18.0306 58.6183L17.1911 58.9575C17.3134 59.299 17.4709 59.6025 17.6638 59.8678C17.8566 60.1332 18.0882 60.3582 18.3586 60.5428C18.629 60.7274 18.9406 60.8681 19.2933 60.9651C19.646 61.062 20.0481 61.1104 20.4996 61.1104ZM26.785 64.0395C26.5452 64.1203 26.3124 64.1606 26.0867 64.1606C25.9174 64.1606 25.7528 64.1353 25.5929 64.0845C25.433 64.0337 25.2989 63.9668 25.1908 63.8837L25.7904 62.5684C25.8468 62.5915 25.9091 62.6215 25.9773 62.6584C26.0455 62.6954 26.1208 62.7311 26.2031 62.7657C26.2854 62.8004 26.3759 62.8292 26.4747 62.8523C26.5734 62.8753 26.6839 62.8869 26.8062 62.8869C26.9567 62.8869 27.0978 62.8454 27.2295 62.7623C27.3611 62.6792 27.4811 62.5754 27.5892 62.4508C27.6974 62.3262 27.7938 62.19 27.8785 62.0423C27.9631 61.8946 28.0336 61.7562 28.0901 61.627L28.5768 60.5609L24.8875 53.8044H26.517L29.2964 58.9272L31.5749 53.8044H32.3438L28.6544 62.1392C28.4992 62.4854 28.3217 62.7854 28.1218 63.0392C27.922 63.293 27.7092 63.503 27.4834 63.6691C27.2577 63.8353 27.0249 63.9587 26.785 64.0395Z" fill="#FF0097"/>
  <defs>
    <linearGradient id="logo0_linear" x1="66" y1="12.4004" x2="66" y2="51.3795" gradientUnits="userSpaceOnUse">
      <stop stop-color="#FFA9DC"/>
      <stop offset="1" stop-color="#FF0097"/>
    </linearGradient>
    <linearGradient id="logo1_linear" x1="64.8506" y1="25.1367" x2="64.8506" y2="51.3802" gradientUnits="userSpaceOnUse">
      <stop stop-color="#FFA9DC"/>
      <stop offset="1" stop-color="#FF0097"/>
    </linearGradient>
    <linearGradient id="logo2_linear" x1="43.3158" y1="-17.0498" x2="11.2999" y2="-16.3074" gradientUnits="userSpaceOnUse">
      <stop stop-color="#00FFA3"/>
      <stop offset="1" stop-color="#DC1FFF"/>
    </linearGradient>
    <linearGradient id="logo3_linear" x1="43.0037" y1="-16.1505" x2="11.8884" y2="-15.4315" gradientUnits="userSpaceOnUse">
      <stop stop-color="#00FFA3"/>
      <stop offset="1" stop-color="#DC1FFF"/>
    </linearGradient>
    <linearGradient id="logo4_linear" x1="33.7698" y1="25.3379" x2="33.4628" y2="43.2596" gradientUnits="userSpaceOnUse">
      <stop stop-color="#FFA9DC"/>
      <stop offset="1" stop-color="#FF0097"/>
    </linearGradient>
  </defs>
</svg>
