<svg class="mr-1" fill="none" height="16" viewBox="0 0 19 16" width="19"
     xmlns="http://www.w3.org/2000/svg">
  <path clip-rule="evenodd"
        d="M13.5 5.70681L9.83333 0.326103C9.66663 0.163052 9.41667 0 9.16667 0C8.91667 0 8.66667 0.0815258 8.5 0.326103L4.83333 5.70681H0.833333C0.333333 5.70681 0 6.03291 0 6.52206V6.76664L2.08333 14.3485C2.25 15.0007 2.91667 15.5714 3.66667 15.5714H14.5C15.25 15.5714 15.9167 15.0823 16.0833 14.3485L18.1667 6.76664V6.52206C18.1667 6.03291 17.8333 5.70681 17.3333 5.70681H13.5ZM6.6667 5.70685L9.1667 2.11971L11.6667 5.70685H6.6667ZM7.50004 10.5984C7.50004 11.4952 8.25004 12.2289 9.16671 12.2289C10.0834 12.2289 10.8334 11.4952 10.8334 10.5984C10.8334 9.70159 10.0834 8.96786 9.16671 8.96786C8.25004 8.96786 7.50004 9.70159 7.50004 10.5984Z"
        fill="white"
        fill-rule="evenodd" />
</svg>
