<svg width="18" height="18" viewBox="0 0 18 18" fill="none" xmlns="http://www.w3.org/2000/svg">
  <path d="M9 18C13.9875 18 18 13.9875 18 9C18 4.01247 13.9875 0 9 0C4.01247 0 0 4.01247 0 9C0 13.9875 4.01247 18 9 18Z" fill-rule="evenodd" clip-rule="evenodd"/>
  <path d="M11.4742 10.4242C11.4742 9.11175 10.6867 8.66175 9.11169 8.47428C7.98669 8.32425 7.76169 8.02428 7.76169 7.49922C7.76169 6.97416 8.13672 6.63675 8.88669 6.63675C9.56169 6.63675 9.93672 6.86175 10.1242 7.42425C10.1617 7.53675 10.2742 7.61172 10.3867 7.61172H10.9867C11.1367 7.61172 11.2492 7.49922 11.2492 7.34928V7.31175C11.0992 6.48672 10.4242 5.84925 9.56169 5.77428V4.87428C9.56169 4.72425 9.44919 4.61175 9.26172 4.57422H8.69922C8.54919 4.57422 8.43669 4.68672 8.39916 4.87428V5.73675C7.27416 5.88678 6.56172 6.63675 6.56172 7.57428C6.56172 8.81178 7.31169 9.29922 8.88669 9.48678C9.93672 9.67425 10.2742 9.89925 10.2742 10.4993C10.2742 11.0993 9.74916 11.5118 9.03672 11.5118C8.06166 11.5118 7.72416 11.0992 7.61166 10.5367C7.57422 10.3868 7.46172 10.3117 7.34922 10.3117H6.71166C6.56172 10.3117 6.44922 10.4242 6.44922 10.5742V10.6118C6.59916 11.5492 7.19919 12.2242 8.43669 12.4118V13.3118C8.43669 13.4617 8.54919 13.5742 8.73666 13.6117H9.29916C9.44919 13.6117 9.56169 13.4992 9.59922 13.3118V12.4118C10.7242 12.2242 11.4742 11.4367 11.4742 10.4242Z" fill-rule="evenodd" clip-rule="evenodd"/>
  <path d="M7.08823 14.3624C4.16323 13.3125 2.6632 10.05 3.75076 7.16244C4.31326 5.58744 5.55076 4.38747 7.08823 3.82497C7.23826 3.75 7.31323 3.6375 7.31323 3.44994V2.92497C7.31323 2.77494 7.23826 2.66244 7.08823 2.625C7.0507 2.625 6.97573 2.625 6.9382 2.66244C3.37573 3.78744 1.4257 7.575 2.5507 11.1375C3.2257 13.2374 4.83823 14.85 6.9382 15.525C7.08823 15.5999 7.23826 15.525 7.2757 15.3749C7.31323 15.3375 7.31323 15.3 7.31323 15.225V14.6999C7.31323 14.5874 7.20073 14.4375 7.08823 14.3624ZM11.0633 2.66244C10.9132 2.58747 10.7632 2.66244 10.7258 2.81247C10.6882 2.85 10.6882 2.88744 10.6882 2.9625V3.48747C10.6882 3.6375 10.8007 3.78744 10.9132 3.8625C13.8382 4.91244 15.3383 8.17494 14.2507 11.0625C13.6882 12.6375 12.4507 13.8375 10.9132 14.4C10.7632 14.4749 10.6882 14.5874 10.6882 14.775V15.3C10.6882 15.45 10.7632 15.5625 10.9132 15.5999C10.9508 15.5999 11.0257 15.5999 11.0633 15.5625C14.6257 14.4375 16.5758 10.6499 15.4508 7.08747C14.7758 4.94997 13.1257 3.33744 11.0633 2.66244Z" fill-rule="evenodd" clip-rule="evenodd"/>
</svg>
