<svg width="175" height="175" viewBox="0 0 175 175" fill="none" xmlns="http://www.w3.org/2000/svg">
  <path d="M120.432 120.391C129.764 111.034 130.441 96.1131 121.991 85.9517L126.492 81.4513C133.577 74.3499 138.042 65.0569 139.16 55.0869L140.577 39.532C140.654 38.1718 140.143 36.8425 139.178 35.8774C138.213 34.9123 136.886 34.404 135.526 34.4801L120.226 35.8733L119.973 35.9C110.007 37.0215 100.714 41.4869 93.6124 48.5678L89.112 53.0682C78.9506 44.6189 64.0296 45.2959 54.6728 54.628L39.7126 69.5882L57.7965 84.3837L53.0286 89.1516L59.1423 95.2653L50.9214 100.198L53.9176 103.194C49.8328 103.937 46.0774 105.923 43.1615 108.88C36.3255 115.716 35.9283 134.666 35.9016 136.804L35.8769 139.179L38.2536 139.152C40.3917 139.129 59.3398 138.73 66.1758 131.894C69.135 128.98 71.1187 125.223 71.8615 121.138L74.8597 124.136L79.7923 115.915L85.906 122.029L90.6739 117.261L105.469 135.345L120.428 120.387L120.432 120.391Z" fill="white" stroke="#73979C" stroke-width="3" stroke-miterlimit="10"/>
  <path d="M89.1123 53.0684L57.7947 84.3859" stroke="#73979C" stroke-width="3" stroke-miterlimit="10"/>
  <path d="M121.993 85.9502L90.6756 117.268" stroke="#73979C" stroke-width="3" stroke-miterlimit="10"/>
  <path d="M59.1426 95.2695L79.7946 115.922" stroke="#73979C" stroke-width="3" stroke-miterlimit="10"/>
  <path d="M53.918 103.198L71.864 121.144" stroke="#73979C" stroke-width="3" stroke-miterlimit="10"/>
  <path d="M93.0572 115.044L76.0722 98.0626" stroke="#73979C" stroke-width="3" stroke-miterlimit="10"/>
  <path d="M100.705 74.3589C106.154 79.8079 114.986 79.8079 120.435 74.3589C125.882 68.9119 125.884 60.0778 120.435 54.6287C114.988 49.1818 106.154 49.1797 100.705 54.6287C98.8759 56.4622 97.6597 58.6785 97.063 61.0202C95.8797 65.64 97.0959 70.7413 100.705 74.3589Z" fill="white" stroke="#73979C" stroke-width="3" stroke-miterlimit="10"/>
  <path d="M114.046 78.0025L97.0614 61.0216" stroke="#73979C" stroke-width="3" stroke-miterlimit="10"/>
</svg>
