<svg width="112" height="112" viewBox="0 0 112 112" fill="none" xmlns="http://www.w3.org/2000/svg">
  <path d="M56 2C26.2262 2 2 26.2262 2 56C2 85.7738 26.2262 110 56 110C85.7738 110 110 85.7738 110 56C110 26.2262 85.7738 2 56 2Z" fill="white" stroke="#73979C" stroke-width="3" stroke-miterlimit="10"/>
  <path d="M56.0005 10.2207C30.7576 10.2207 10.2207 30.7597 10.2207 56.0005C10.2207 81.2412 30.7597 101.78 56.0005 101.78C81.2412 101.78 101.78 81.2412 101.78 56.0005C101.78 30.7597 81.2433 10.2207 56.0005 10.2207Z" fill="white" stroke="#73979C" stroke-width="3" stroke-miterlimit="10"/>
  <path d="M55.9999 52.6248C50.5113 52.6248 45.8748 49.5325 45.8748 45.8748C45.8748 42.2172 50.5113 39.1248 55.9999 39.1248C59.1049 39.1248 61.9799 40.0973 63.8847 41.7848C65.2748 43.0209 67.401 42.9048 68.6498 41.5021C69.8922 40.112 69.7635 37.9795 68.3671 36.737C66.0046 34.6382 62.8321 33.2207 59.377 32.6596V29.002C59.377 27.1394 57.8645 25.627 56.002 25.627C54.1394 25.627 52.627 27.1394 52.627 29.002V32.647C44.932 33.902 39.127 39.3569 39.127 45.877C39.127 53.323 46.6996 59.377 56.002 59.377C61.4906 59.377 66.127 62.4693 66.127 66.127C66.127 69.7846 61.4906 72.877 56.002 72.877C52.897 72.877 50.0219 71.9045 48.1171 70.217C46.727 68.9746 44.5945 69.097 43.352 70.4997C42.1096 71.8898 42.2383 74.0223 43.6347 75.2648C45.9972 77.3699 49.1697 78.7811 52.6249 79.3485V82.9998C52.6249 84.8624 54.1373 86.3748 55.9999 86.3748C57.8624 86.3748 59.3749 84.8624 59.3749 82.9998V79.3548C67.0699 78.0998 72.8749 72.6449 72.8749 66.1248C72.8749 58.6809 65.3022 52.6248 55.9999 52.6248Z" fill="white" stroke="#73979C" stroke-width="3" stroke-miterlimit="10"/>
</svg>
