<svg width="98" height="95" viewBox="0 0 98 95" fill="none" xmlns="http://www.w3.org/2000/svg">
  <rect x="1.5" y="1.5" width="95" height="92" rx="8.5" fill="white" stroke="#73979C" stroke-width="3"/>
  <path d="M82.1639 32.6984C82.7497 32.1126 82.7497 31.1628 82.1639 30.577L72.618 21.0311C72.0322 20.4453 71.0825 20.4453 70.4967 21.0311C69.9109 21.6169 69.9109 22.5666 70.4967 23.1524L78.982 31.6377L70.4967 40.123C69.9109 40.7088 69.9109 41.6585 70.4967 42.2443C71.0825 42.8301 72.0322 42.8301 72.618 42.2443L82.1639 32.6984ZM17.7412 33.1377H81.1033V30.1377H17.7412V33.1377Z" fill="#73979C"/>
  <path d="M16.6808 63.5253C16.095 64.1111 16.095 65.0608 16.6808 65.6466L26.2267 75.1925C26.8125 75.7783 27.7623 75.7783 28.348 75.1925C28.9338 74.6067 28.9338 73.657 28.348 73.0712L19.8628 64.5859L28.348 56.1007C28.9338 55.5149 28.9338 54.5651 28.348 53.9793C27.7623 53.3935 26.8125 53.3935 26.2267 53.9793L16.6808 63.5253ZM81.1035 63.0859L17.7414 63.0859L17.7414 66.0859L81.1035 66.0859L81.1035 63.0859Z" fill="#73979C"/>
</svg>
