<svg width="87" height="113" viewBox="0 0 87 113" fill="none" xmlns="http://www.w3.org/2000/svg">
  <path d="M2 45.4751V14.7392H5.19231C27.4869 14.7392 40.7192 3.40911 43.5 2C46.3614 3.44975 59.3044 14.7392 81.8077 14.7392H85V45.4751C85 71.5664 71.032 96.971 44.9282 109.996L43.5 110.708L42.0718 109.996C17.3538 97.6669 2 73.046 2 45.4751Z" fill="white" stroke="#73979C" stroke-width="3"/>
  <mask id="path-2-inside-1" fill="white">
    <path fill-rule="evenodd" clip-rule="evenodd" d="M46.7526 36.0231C49.9536 39.5302 54.2997 41.4021 59.7907 41.6388C58.1863 43.4298 55.3919 44.1534 51.4076 43.8094C48.7191 43.5773 46.3185 42.6482 43.7732 41.6632C40.6603 40.4585 37.331 39.17 32.994 38.9701C27.304 38.7079 25.7209 42.8999 24.7378 45.5031C24.3588 46.5066 24.069 47.274 23.6674 47.4591C22.2242 48.1244 21.2534 47.5797 19.957 46.6693C18.6606 45.759 17.0143 47.2481 16.4661 47.7878C15.918 48.3274 9.02953 57.6084 11.2561 60.7327C13.4827 63.857 18.2172 61.617 19.152 57.9383C19.5554 56.3511 19.6112 55.3174 19.647 54.6552C19.6942 53.7825 19.7065 53.5546 20.4331 53.5546C20.8352 53.5546 21.597 53.8712 22.5876 54.2829C24.7208 55.1694 27.9153 56.4969 30.8655 56.0546C30.9003 56.0501 30.935 56.045 30.9697 56.0393C33.4506 55.6313 34.8553 54.8798 35.9206 54.3099C36.7216 53.8815 37.3307 53.5556 38.0611 53.5556C38.7629 53.5556 39.715 54.3024 40.9571 55.2766C42.7273 56.6651 45.0864 58.5154 48.1491 59.3243C52.1139 60.3712 55.8042 60.1577 58.6061 59.9956C59.4874 59.9446 60.2808 59.8987 60.9672 59.8987C62.0456 59.8987 63.875 60.9916 65.8678 62.1819C69.1762 64.1583 72.9347 66.4034 74.453 64.3622C74.4668 64.3437 74.4801 64.325 74.4931 64.3062C76.0936 62.0957 74.7115 60.369 72.7342 58.806C71.3245 57.0019 69.3162 55.0219 67.0673 53.1086C66.8098 50.4707 70.0141 48.748 71.8034 48.4646C73.8121 48.1465 75.9605 46.5042 75.9605 44.1009C75.9605 42.311 75.5679 38.7269 70.0864 37.1302C68.0178 36.5276 65.7565 35.8863 63.4964 35.2452C57.0971 33.4301 50.7069 31.6176 48.7227 30.6959C47.5153 30.135 45.9199 29.0127 44.5296 28.0346C42.8286 26.838 41.4348 25.8574 41.4348 26.386C41.4348 26.849 41.951 30.7622 46.7526 36.0231Z"/>
  </mask>
  <path d="M59.7907 41.6388L62.0252 43.6405L66.2588 38.9147L59.9199 38.6415L59.7907 41.6388ZM46.7526 36.0231L44.5367 38.0455L44.5368 38.0455L46.7526 36.0231ZM51.4076 43.8094L51.1496 46.7983L51.4076 43.8094ZM43.7732 41.6632L42.6904 44.461L43.7732 41.6632ZM32.994 38.9701L33.1321 35.9733H33.1321L32.994 38.9701ZM24.7378 45.5031L27.5443 46.563L24.7378 45.5031ZM23.6674 47.4591L24.9233 50.1836L24.9234 50.1835L23.6674 47.4591ZM19.957 46.6693L21.6811 44.2142L21.6809 44.2141L19.957 46.6693ZM16.4661 47.7878L14.3614 45.65L14.3614 45.65L16.4661 47.7878ZM11.2561 60.7327L13.6992 58.9916L13.6992 58.9915L11.2561 60.7327ZM19.152 57.9383L16.2445 57.1994L16.2445 57.1994L19.152 57.9383ZM19.647 54.6552L16.6514 54.4933L19.647 54.6552ZM22.5876 54.2829L23.7389 51.5126L23.7389 51.5126L22.5876 54.2829ZM30.8655 56.0546L30.4779 53.0798L30.4492 53.0835L30.4207 53.0878L30.8655 56.0546ZM30.9697 56.0393L31.4566 58.9995H31.4566L30.9697 56.0393ZM35.9206 54.3099L37.3357 56.9552L37.3357 56.9552L35.9206 54.3099ZM40.9571 55.2766L42.8086 52.9161L40.9571 55.2766ZM48.1491 59.3243L47.3831 62.2248L47.3832 62.2248L48.1491 59.3243ZM58.6061 59.9956L58.4329 57.0006H58.4329L58.6061 59.9956ZM65.8678 62.1819L67.4062 59.6065L65.8678 62.1819ZM74.453 64.3622L76.8601 66.1526L76.8602 66.1526L74.453 64.3622ZM74.4931 64.3062L72.0632 62.5468L72.0419 62.5762L72.0213 62.6061L74.4931 64.3062ZM72.7342 58.806L70.3703 60.6531L70.5917 60.9365L70.8738 61.1595L72.7342 58.806ZM67.0673 53.1086L64.0815 53.4L64.1993 54.6075L65.1233 55.3936L67.0673 53.1086ZM71.8034 48.4646L71.3341 45.5015L71.3341 45.5015L71.8034 48.4646ZM70.0864 37.1302L69.2474 40.0105L69.2474 40.0105L70.0864 37.1302ZM63.4964 35.2452L62.6778 38.1314L63.4964 35.2452ZM48.7227 30.6959L47.4588 33.4167L47.4589 33.4167L48.7227 30.6959ZM44.5296 28.0346L46.2558 25.581V25.581L44.5296 28.0346ZM59.9199 38.6415C55.0904 38.4334 51.5459 36.8247 48.9684 34.0006L44.5368 38.0455C48.3613 42.2357 53.509 44.3708 59.6616 44.636L59.9199 38.6415ZM51.1496 46.7983C55.4559 47.1701 59.4688 46.4942 62.0252 43.6405L57.5562 39.637C56.9037 40.3654 55.328 41.1367 51.6657 40.8205L51.1496 46.7983ZM42.6904 44.461C45.1737 45.422 47.9668 46.5235 51.1496 46.7983L51.6657 40.8205C49.4715 40.6311 47.4633 39.8744 44.8559 38.8654L42.6904 44.461ZM32.8559 41.9669C36.653 42.1419 39.5724 43.2543 42.6904 44.461L44.8559 38.8654C41.7482 37.6626 38.0089 36.198 33.1321 35.9733L32.8559 41.9669ZM27.5443 46.563C28.0605 45.1961 28.53 44.042 29.3114 43.1901C29.9385 42.5066 30.8956 41.8766 32.8559 41.9669L33.1321 35.9733C29.4024 35.8014 26.7229 37.1363 24.8902 39.134C23.2118 40.9634 22.3981 43.2069 21.9312 44.4432L27.5443 46.563ZM24.9234 50.1835C26.159 49.614 26.7206 48.4774 26.895 48.1284C27.1487 47.6204 27.3741 47.0136 27.5443 46.563L21.9312 44.4432C21.8338 44.7012 21.7561 44.9065 21.6833 45.0879C21.61 45.2704 21.5601 45.3816 21.5272 45.4476C21.4893 45.5233 21.5083 45.469 21.5944 45.3597C21.6419 45.2995 21.726 45.2016 21.8526 45.0923C21.9808 44.9817 22.1656 44.848 22.4115 44.7347L24.9234 50.1835ZM18.2329 49.1244C18.86 49.5648 19.8036 50.2177 20.9347 50.5401C22.2604 50.918 23.6 50.7936 24.9233 50.1836L22.4116 44.7346C22.3118 44.7806 22.3136 44.7635 22.3924 44.7564C22.4785 44.7487 22.5516 44.762 22.5796 44.77C22.5902 44.773 22.5299 44.7572 22.3666 44.6642C22.1979 44.568 21.9881 44.4298 21.6811 44.2142L18.2329 49.1244ZM18.5708 49.9256C18.6655 49.8324 18.7911 49.7147 18.9342 49.6003C19.0838 49.4806 19.2067 49.4016 19.2888 49.3599C19.3821 49.3126 19.3155 49.3675 19.1154 49.3791C19.0042 49.3856 18.8548 49.378 18.6848 49.3327C18.5113 49.2865 18.3572 49.2117 18.2331 49.1245L21.6809 44.2141C19.6861 42.8134 17.6104 43.4832 16.5731 44.0097C15.5023 44.5532 14.6844 45.3319 14.3614 45.65L18.5708 49.9256ZM13.6992 58.9915C13.9612 59.3591 13.6611 59.3664 13.958 58.2199C14.21 57.2464 14.7485 56.0241 15.4555 54.7253C16.1474 53.4542 16.9294 52.2387 17.575 51.3053C17.8963 50.8408 18.1758 50.4578 18.3831 50.1846C18.6505 49.8324 18.6854 49.8128 18.5708 49.9256L14.3614 45.65C14.1098 45.8977 13.8096 46.2861 13.604 46.557C13.3384 46.9068 13.0072 47.3619 12.6404 47.8922C11.9098 48.9484 11.0061 50.3495 10.1857 51.8567C9.38037 53.3361 8.57997 55.0536 8.14954 56.7159C7.76392 58.2051 7.43779 60.544 8.81307 62.4738L13.6992 58.9915ZM16.2445 57.1994C16.0269 58.0554 15.3157 58.8056 14.5777 59.0998C14.2378 59.2353 14.0267 59.2203 13.95 59.2032C13.9205 59.1966 13.8374 59.1855 13.6992 58.9916L8.81304 62.4737C10.9177 65.4269 14.2661 65.6831 16.7993 64.6734C19.2188 63.709 21.3423 61.4998 22.0596 58.6772L16.2445 57.1994ZM16.6514 54.4933C16.6202 55.0715 16.5786 55.8847 16.2445 57.1994L22.0596 58.6772C22.5322 56.8175 22.6023 55.5634 22.6427 54.817L16.6514 54.4933ZM20.4331 50.5546C20.0335 50.5546 18.2287 50.544 17.214 52.2322C16.8424 52.8504 16.7489 53.4548 16.7137 53.72C16.6756 54.0064 16.6609 54.318 16.6514 54.4933L22.6427 54.817C22.6489 54.7017 22.6529 54.6279 22.6572 54.5664C22.6615 54.5049 22.6636 54.494 22.6614 54.5101C22.6596 54.5242 22.6479 54.6115 22.6121 54.7385C22.5754 54.8681 22.5022 55.0808 22.3566 55.3231C22.2032 55.5783 21.9909 55.8304 21.7149 56.0443C21.4447 56.2536 21.1781 56.3763 20.9666 56.4474C20.6018 56.5701 20.3469 56.5546 20.4331 56.5546V50.5546ZM23.7389 51.5126C23.2674 51.3166 22.7519 51.1015 22.3015 50.9402C21.9585 50.8173 21.2167 50.5546 20.4331 50.5546V56.5546C20.1807 56.5546 20.0326 56.5109 20.0677 56.5198C20.0804 56.523 20.1436 56.5405 20.2778 56.5886C20.5566 56.6885 20.9172 56.8375 21.4364 57.0532L23.7389 51.5126ZM30.4207 53.0878C28.4417 53.3845 26.0453 52.4711 23.7389 51.5126L21.4364 57.0532C23.3963 57.8677 27.3888 59.6094 31.3103 59.0215L30.4207 53.0878ZM30.4829 53.079C30.4812 53.0793 30.4795 53.0796 30.4779 53.0798L31.2531 59.0295C31.321 59.0206 31.3888 59.0106 31.4566 58.9995L30.4829 53.079ZM34.5055 51.6647C33.5474 52.1772 32.4836 52.75 30.4829 53.079L31.4566 58.9995C34.4177 58.5125 36.1632 57.5825 37.3357 56.9552L34.5055 51.6647ZM38.0611 50.5556C36.4438 50.5556 35.1551 51.3172 34.5055 51.6647L37.3357 56.9552C37.5437 56.8439 37.6956 56.7629 37.8346 56.6933C37.9697 56.6255 38.0562 56.5872 38.1142 56.5644C38.2124 56.5258 38.1687 56.5556 38.0611 56.5556V50.5556ZM42.8086 52.9161C42.2259 52.4591 41.5531 51.9277 40.926 51.5255C40.3948 51.1848 39.3443 50.5556 38.0611 50.5556V56.5556C37.7175 56.5556 37.5082 56.4679 37.4944 56.4623C37.4741 56.4539 37.5305 56.4758 37.687 56.5761C38.0219 56.7909 38.4462 57.1199 39.1056 57.6372L42.8086 52.9161ZM48.9151 56.4237C46.5281 55.7933 44.6165 54.3341 42.8086 52.9161L39.1056 57.6372C40.8381 58.996 43.6448 61.2376 47.3831 62.2248L48.9151 56.4237ZM58.4329 57.0006C55.6145 57.1637 52.3648 57.3346 48.9151 56.4237L47.3832 62.2248C51.863 63.4078 55.9938 63.1517 58.7794 62.9906L58.4329 57.0006ZM60.9672 56.8987C60.1761 56.8987 59.2881 56.9511 58.4329 57.0006L58.7794 62.9906C59.6867 62.9381 60.3854 62.8987 60.9672 62.8987V56.8987ZM67.4062 59.6065C66.4383 59.0283 65.38 58.3942 64.4197 57.9124C63.5885 57.4955 62.2893 56.8987 60.9672 56.8987V62.8987C60.7717 62.8987 60.7352 62.8578 60.9376 62.927C61.1158 62.9878 61.3748 63.0976 61.7294 63.2755C62.4516 63.6378 63.3045 64.1453 64.3293 64.7574L67.4062 59.6065ZM72.0459 62.5718C72.2623 62.2808 72.6002 62.1773 72.715 62.1688C72.7271 62.1679 72.6624 62.1736 72.4988 62.1427C72.3377 62.1122 72.1213 62.054 71.8442 61.9547C70.6347 61.5211 69.1411 60.6428 67.4062 59.6065L64.3293 64.7574C65.9029 65.6974 67.9428 66.9299 69.8193 67.6027C70.7631 67.941 71.9369 68.2427 73.1576 68.1524C74.5075 68.0526 75.8846 67.4642 76.8601 66.1526L72.0459 62.5718ZM72.0213 62.6061C72.0293 62.5945 72.0375 62.5831 72.0458 62.5718L76.8602 66.1526C76.8961 66.1044 76.931 66.0556 76.9649 66.0062L72.0213 62.6061ZM70.8738 61.1595C71.3004 61.4967 71.6242 61.7881 71.8597 62.0443C72.0984 62.3039 72.1819 62.4583 72.204 62.5091C72.2133 62.5307 72.1823 62.4568 72.1966 62.3474C72.2089 62.2525 72.2328 62.3125 72.0632 62.5468L76.923 66.0656C77.5537 65.1946 78.005 64.2099 78.1465 63.1206C78.2899 62.017 78.09 60.9993 77.7067 60.1175C76.9985 58.488 75.6394 57.2784 74.5946 56.4525L70.8738 61.1595ZM65.1233 55.3936C67.2876 57.2348 69.1314 59.0676 70.3703 60.6531L75.0981 56.9589C73.5176 54.9362 71.3448 52.8089 69.0112 50.8236L65.1233 55.3936ZM71.3341 45.5015C69.9231 45.725 68.1898 46.4416 66.7911 47.5631C65.3932 48.684 63.8145 50.6643 64.0815 53.4L70.0531 52.8172C70.0524 52.8105 70.0527 52.8087 70.0526 52.8103C70.0525 52.8119 70.0523 52.8128 70.0525 52.8121C70.0526 52.8116 70.0573 52.7897 70.0822 52.7439C70.1381 52.6411 70.2735 52.4615 70.5445 52.2442C70.8105 52.0309 71.1409 51.8351 71.4866 51.6821C71.8399 51.5257 72.1249 51.4511 72.2727 51.4277L71.3341 45.5015ZM72.9605 44.1009C72.9605 44.3424 72.8687 44.6042 72.5661 44.8924C72.2333 45.2094 71.7577 45.4344 71.3341 45.5015L72.2726 51.4277C75.1732 50.9683 78.9605 48.4875 78.9605 44.1009H72.9605ZM69.2474 40.0105C71.3844 40.6329 72.1667 41.5143 72.4994 42.0747C72.8774 42.7112 72.9605 43.4146 72.9605 44.1009H78.9605C78.9605 42.9973 78.8473 41.0137 77.6586 39.0115C76.4247 36.9332 74.27 35.2241 70.9254 34.2499L69.2474 40.0105ZM62.6778 38.1314C64.9403 38.7731 67.1908 39.4115 69.2474 40.0105L70.9254 34.2499C68.8447 33.6438 66.5728 32.9994 64.3151 32.3591L62.6778 38.1314ZM47.4589 33.4167C48.6853 33.9864 51.0042 34.7312 53.5903 35.5085C56.2629 36.3119 59.4849 37.2257 62.6778 38.1314L64.3151 32.3591C61.1086 31.4496 57.9359 30.5496 55.3175 29.7625C52.6125 28.9494 50.7443 28.3271 49.9865 27.9751L47.4589 33.4167ZM42.8035 30.4883C44.1036 31.4029 45.9511 32.7163 47.4588 33.4167L49.9866 27.9751C49.0794 27.5537 47.7361 26.6224 46.2558 25.581L42.8035 30.4883ZM44.4348 26.386C44.4348 26.6638 44.3915 27.1237 44.1419 27.6302C43.87 28.1821 43.4265 28.6359 42.8766 28.9205C41.9365 29.4069 41.1028 29.1982 41.0045 29.1755C40.6694 29.0981 40.5454 28.9864 40.8281 29.152C41.2549 29.402 41.9066 29.8573 42.8035 30.4883L46.2558 25.581C45.4516 25.0153 44.5559 24.382 43.8606 23.9747C43.5822 23.8116 43.0034 23.4791 42.3538 23.3291C42.0982 23.2702 41.1424 23.0622 40.1194 23.5915C38.7399 24.3053 38.4348 25.6444 38.4348 26.386H44.4348ZM48.9684 34.0007C44.5603 29.1709 44.4348 25.9508 44.4348 26.386H38.4348C38.4348 27.7471 39.3417 32.3535 44.5367 38.0455L48.9684 34.0007Z" fill="#73979C" mask="url(#path-2-inside-1)"/>
</svg>
