<svg width="30" height="30" viewBox="0 0 30 30" fill="none" xmlns="http://www.w3.org/2000/svg">
  <path d="M15 30C23.2843 30 30 23.2843 30 15C30 6.71573 23.2843 0 15 0C6.71573 0 0 6.71573 0 15C0 23.2843 6.71573 30 15 30Z" fill="url(#paint0_linear_7422:17397)"/>
  <path d="M21.5635 20.9767L16.4914 8.71381C16.2053 8.07979 15.78 7.77051 15.2195 7.77051H14.771C14.2104 7.77051 13.7852 8.07979 13.4991 8.71381L11.2916 14.0566H9.62152C9.1228 14.0605 8.71688 14.4625 8.71301 14.9651V14.9767C8.71688 15.4754 9.1228 15.8813 9.62152 15.8852H10.5184L8.41147 20.9767C8.37281 21.0888 8.34961 21.2048 8.34961 21.3246C8.34961 21.6107 8.43853 21.8349 8.59703 22.0089C8.75554 22.1829 8.98363 22.2679 9.26971 22.2679C9.45915 22.2641 9.64085 22.2061 9.79162 22.094C9.95399 21.9818 10.0661 21.8195 10.155 21.6339L12.4746 15.8813H14.0829C14.5816 15.8775 14.9875 15.4754 14.9914 14.9728V14.9496C14.9875 14.4509 14.5816 14.045 14.0829 14.0411H13.2246L14.9952 9.63004L19.82 21.63C19.9089 21.8156 20.021 21.978 20.1834 22.0901C20.3341 22.2022 20.5197 22.2602 20.7053 22.2641C20.9914 22.2641 21.2156 22.179 21.378 22.005C21.5403 21.8311 21.6254 21.6068 21.6254 21.3208C21.6292 21.2048 21.6099 21.0849 21.5635 20.9767Z" fill="white"/>
  <defs>
    <linearGradient id="paint0_linear_7422:17397" x1="26.1838" y1="5.58968" x2="3.86378" y2="24.3697" gradientUnits="userSpaceOnUse">
      <stop stop-color="#B6509E"/>
      <stop offset="1" stop-color="#2EBAC6"/>
    </linearGradient>
  </defs>
</svg>
