<svg width="30" height="30" viewBox="0 0 30 30" fill="none" xmlns="http://www.w3.org/2000/svg">
  <path d="M5.71618 17.6805C5.11463 18.0426 4.32401 18.282 3.47037 18.136C3.33861 18.1127 3.20684 18.0835 3.07507 18.0426C2.38758 17.8265 1.6657 17.3477 0.983948 16.4717C-0.688941 14.311 -0.133231 10.8482 1.92925 10.0364C2.86882 9.66282 3.61933 9.83796 4.16359 10.1358C4.18651 10.1475 4.20943 10.1591 4.23235 10.1766C4.8339 10.5271 5.15474 11.0234 5.15474 11.0234L5.42399 14.2468L5.69327 17.4644L5.71618 17.6805Z" fill="#A16552"/>
  <path d="M5.02736 11.6936C5.02736 11.6936 4.10498 10.2745 2.48366 10.9169C0.862321 11.5592 0.421181 14.2864 1.73887 15.9798C3.05656 17.6733 4.54612 17.4923 5.46278 16.9375L5.02736 11.6936Z" fill="#F5DCB4"/>
  <path d="M24.8389 11.0176C24.8389 11.0176 26.0076 9.21906 28.0702 10.0307C30.1326 10.8425 30.6883 14.3053 29.0153 16.466C27.3425 18.6267 25.4519 18.3872 24.2832 17.6806L24.8389 11.0176Z" fill="#A16552"/>
  <path d="M24.9666 11.6936C24.9666 11.6936 25.889 10.2745 27.5103 10.9169C29.1316 11.5592 29.5728 14.2864 28.255 15.9798C26.9374 17.6733 25.4478 17.4923 24.5312 16.9375L24.9666 11.6936Z" fill="#F5DCB4"/>
  <path d="M27.1373 19.926C27.1373 25.4912 21.7004 29.9994 14.9973 29.9994C14.9516 29.9994 14.9114 29.9994 14.8657 29.9994C14.3041 29.9934 13.7484 29.9585 13.2099 29.8883C12.1214 29.754 11.0844 29.5029 10.1104 29.1467C5.83655 27.5875 2.85742 24.043 2.85742 19.9202C2.85742 19.3186 2.92044 18.7288 3.04648 18.1508C3.05795 18.1099 3.06368 18.069 3.07513 18.0339C3.09232 17.9464 3.11523 17.8588 3.13816 17.777C3.18971 17.5843 3.23555 17.3858 3.28138 17.1872C3.52773 16.0894 3.66522 14.974 3.65376 13.8471C3.65376 13.7827 3.65376 13.7185 3.65376 13.6542C3.65376 12.7317 3.77981 11.809 4.02615 10.8979C4.02615 10.8921 4.02615 10.8921 4.02615 10.8863C4.08918 10.647 4.16366 10.4017 4.24386 10.1623C4.37564 9.76517 4.53033 9.36806 4.70219 8.98269C4.82824 8.70229 4.96573 8.42204 5.11469 8.14758C6.61571 5.35039 9.13651 3.02623 12.0297 2.04518C12.1042 2.02183 12.173 1.99847 12.2474 1.97511C12.5912 1.87 12.9349 1.77657 13.2843 1.71233C13.3704 1.69481 13.462 1.6773 13.5536 1.66561C13.9604 1.59554 14.3786 1.55466 14.7969 1.54883C14.8657 1.54883 14.9344 1.54883 15.0089 1.54883C15.1407 1.54883 15.2724 1.54883 15.4041 1.5605H15.4099C15.5474 1.56634 15.6849 1.57801 15.8281 1.5897C15.9026 1.59554 15.9771 1.60721 16.0515 1.61306C16.6302 1.68313 17.2031 1.80577 17.7645 1.98096C17.839 2.00431 17.9134 2.02767 17.9822 2.05103C20.8754 3.03208 23.4019 5.3562 24.9029 8.15338C25.052 8.42784 25.1895 8.70229 25.3155 8.98849C25.4873 9.37386 25.642 9.77097 25.7795 10.1681C25.854 10.3959 25.9227 10.6235 25.9857 10.8572C25.9916 10.8688 25.9916 10.8805 25.9973 10.8921C26.2378 11.8031 26.3696 12.7317 26.3696 13.6542C26.3696 13.7185 26.3696 13.7827 26.3696 13.8471C26.3582 14.974 26.49 16.0894 26.7421 17.1872C26.7878 17.3858 26.8337 17.5785 26.8853 17.777C26.9082 17.8646 26.931 17.9522 26.9483 18.0399C26.9598 18.0808 26.9655 18.1216 26.9769 18.1566C27.0742 18.7288 27.1373 19.3186 27.1373 19.926Z" fill="#A16552"/>
  <path d="M23.508 16.653C23.7715 16.0632 23.9205 15.415 23.9205 14.7376C23.9205 12.0865 21.7091 9.9375 18.9762 9.9375C18.0539 9.9375 17.1945 10.1827 16.4554 10.6031C15.5503 11.1229 14.4561 11.1229 13.545 10.6031C12.806 10.1769 11.9467 9.9375 11.0243 9.9375C8.2915 9.9375 6.08008 12.0865 6.08008 14.7376C6.08008 15.4208 6.22904 16.069 6.49256 16.653C6.58423 16.8515 6.68162 17.0442 6.79621 17.2253C7.27172 17.9902 7.4035 18.9305 7.11703 19.7947C6.89933 20.4429 6.71027 21.1787 6.71027 21.7217C6.71027 25.7102 10.4227 28.9453 14.9946 28.9453C19.5664 28.9453 23.2789 25.7102 23.2789 21.7217C23.2789 21.1787 23.0841 20.4429 22.8721 19.7947C22.5855 18.9363 22.7173 17.9902 23.1928 17.2253C23.3132 17.0442 23.4164 16.8515 23.508 16.653Z" fill="#F5DCB4"/>
  <path d="M10.7751 22.6074C10.4887 22.6074 10.2653 22.8643 10.3055 23.1563C10.5976 25.2937 12.5913 26.9462 14.9976 26.9462C17.4094 26.9462 19.3975 25.2937 19.6897 23.1563C19.7297 22.8643 19.5063 22.6074 19.2199 22.6074H10.7751Z" fill="#4E3F3F"/>
  <path d="M12.2676 26.1519C13.041 26.6541 13.9748 26.9461 14.9946 26.9461C16.0144 26.9461 16.9483 26.6483 17.7216 26.1519C17.3779 24.9432 16.2836 25.2234 14.9946 25.2234C13.7056 25.2234 12.6113 24.9432 12.2676 26.1519Z" fill="#E6646E"/>
  <path d="M17.9926 2.66286L14.767 3.23513L14.2171 3.3344L12.7791 2.52854L12.0172 2.10225L12 2.09058C12 2.09058 12.0057 2.07889 12.0172 2.04969C12.1546 1.77523 13.0198 0.15767 14.767 0.011671C14.8588 0.00584232 14.9504 0 15.0422 0L15.1224 0.35037L15.3973 1.55333L15.4259 1.67596L15.489 1.94458L15.8786 1.70516L16.0389 1.60589L17.9124 0.461327L17.9697 2.04969V2.10225L17.9926 2.66286Z" fill="#A16552"/>
  <path d="M14.5833 19.7763C14.4916 19.9807 14.2567 20.0683 14.0562 19.9749L13.1338 19.5485C12.9333 19.4551 12.8474 19.2158 12.939 19.0113C13.0307 18.8069 13.2656 18.7193 13.4661 18.8127L14.3885 19.2391C14.589 19.3325 14.6749 19.572 14.5833 19.7763Z" fill="#4E3F3F"/>
  <path d="M15.4136 19.7763C15.5052 19.9807 15.7402 20.0683 15.9407 19.9749L16.8631 19.5485C17.0635 19.4551 17.1496 19.2158 17.0578 19.0113C16.9662 18.8069 16.7314 18.7193 16.5308 18.8127L15.6084 19.2391C15.4079 19.3325 15.322 19.572 15.4136 19.7763Z" fill="#4E3F3F"/>
  <path d="M10.7431 16.6511C9.95828 16.6511 9.32227 16.038 9.32227 15.2789V14.8235C9.32227 14.0643 9.95828 13.4512 10.7431 13.4512C11.528 13.4512 12.1639 14.0643 12.1639 14.8235V15.2789C12.1639 16.038 11.528 16.6511 10.7431 16.6511Z" fill="#4E3F3F"/>
  <path d="M10.7402 13.4512V15.0511C10.7402 15.4308 11.0552 15.7344 11.4506 15.7344C11.8459 15.7344 12.1611 15.4248 12.1611 15.0511V14.8235C12.1611 14.0643 11.525 13.4512 10.7402 13.4512Z" fill="#5D5360"/>
  <path d="M10.7431 14.8173C11.0057 14.8173 11.2186 14.6133 11.2186 14.3618C11.2186 14.1103 11.0057 13.9062 10.7431 13.9062C10.4805 13.9062 10.2676 14.1103 10.2676 14.3618C10.2676 14.6133 10.4805 14.8173 10.7431 14.8173Z" fill="white"/>
  <path d="M19.2509 16.6511C18.466 16.6511 17.8301 16.038 17.8301 15.2789V14.8235C17.8301 14.0643 18.466 13.4512 19.2509 13.4512C20.0357 13.4512 20.6717 14.0643 20.6717 14.8235V15.2789C20.6717 16.038 20.0357 16.6511 19.2509 16.6511Z" fill="#4E3F3F"/>
  <path d="M19.2578 13.4512V15.0511C19.2578 15.4308 19.5728 15.7344 19.9682 15.7344C20.3635 15.7344 20.6786 15.4248 20.6786 15.0511V14.8235C20.6786 14.0643 20.0426 13.4512 19.2578 13.4512Z" fill="#5D5360"/>
  <path d="M19.2529 14.8173C19.5156 14.8173 19.7284 14.6133 19.7284 14.3618C19.7284 14.1103 19.5156 13.9062 19.2529 13.9062C18.9903 13.9062 18.7773 14.1103 18.7773 14.3618C18.7773 14.6133 18.9903 14.8173 19.2529 14.8173Z" fill="white"/>
  <path opacity="0.35" d="M15.1253 0.363079C14.8102 0.328037 14.1113 0.84192 13.2806 1.7237C13.0743 1.9456 12.8567 2.18503 12.6331 2.45366C11.0003 4.40407 9.10975 7.48154 8.46237 10.635C7.37385 15.9314 6.93271 22.0805 8.85194 25.4908C10.4791 28.3814 13.2118 29.8938 13.2118 29.8938C12.1233 29.7596 11.0862 29.5085 10.1123 29.1522C5.83844 27.5931 2.85931 24.0485 2.85931 19.9257C2.85931 19.3242 2.92234 18.7344 3.04837 18.1563C3.05983 18.1154 3.06557 18.0745 3.07703 18.0395C2.38953 17.8234 1.66767 17.3446 0.985896 16.4687C-0.686992 14.3138 -0.131269 10.851 1.93121 10.0392C2.87077 9.67139 3.62129 9.84073 4.16555 10.1385C4.18846 10.1503 4.21139 10.1619 4.2343 10.1794C4.36606 9.7823 4.52075 9.38519 4.69263 8.99982C4.81867 8.71957 4.95616 8.43917 5.10512 8.16471C6.60615 5.36767 9.12695 3.04345 12.0201 2.0624C12.1576 1.78794 13.0227 0.170366 14.7701 0.0243814C14.8618 0.0185386 14.9534 0.0126953 15.0451 0.0126953L15.1253 0.363079Z" fill="#4E3F3F"/>
</svg>
