<svg width="30" height="30" viewBox="0 0 30 30" fill="none" xmlns="http://www.w3.org/2000/svg">
  <path d="M19.9287 17.8066C19.1231 19.2605 17.4582 20.0879 15.7418 19.7395C13.5933 19.3033 12.1778 17.1895 12.5801 15.0183C12.9826 12.8472 15.0506 11.4407 17.199 11.8769C18.7506 12.192 19.9198 13.3816 20.2983 14.8361L27.9903 14.8373L27.9919 22.5253C29.4234 23.3652 30.2514 25.0541 29.9316 26.7792C29.5293 28.9504 27.4613 30.3568 25.3127 29.9207C24.4061 29.7365 23.6298 29.2537 23.0657 28.5937L7.57229 28.5933C6.43787 28.5933 5.47367 28.1709 4.67967 27.3263C3.88568 26.4816 3.48868 25.4559 3.48868 24.2493L3.48852 11.4635C1.05222 10.3158 -0.411499 7.60476 0.102519 4.83118C0.706154 1.57443 3.80799 -0.535301 7.03087 0.118993C8.57695 0.432866 9.86998 1.32594 10.7302 2.5297L23.9067 2.52955C25.0411 2.52955 26.0052 2.95189 26.7993 3.79657C27.5933 4.6411 27.9903 5.66676 27.9903 6.87356V7.92334H25.2339V6.87356C25.2339 6.48732 25.1035 6.15555 24.8426 5.87793C24.5816 5.60047 24.2697 5.46166 23.9067 5.46166L11.8434 5.4609C11.9023 6.02842 11.8822 6.61308 11.7732 7.20063C11.2581 9.98043 8.92269 11.9246 6.24558 12.0275L6.2451 24.2493C6.2451 24.6355 6.37549 24.9673 6.63645 25.2447C6.89725 25.5224 7.2093 25.661 7.57229 25.661L22.0924 25.6615C22.1031 25.5081 22.1226 25.354 22.1511 25.1995C22.4552 23.5587 23.7106 22.3547 25.2329 22.0526L25.2339 17.8057L19.9287 17.8066Z" fill="#22213D"/>
</svg>
