<svg width="19" height="16" viewBox="0 0 19 16" fill="none" xmlns="http://www.w3.org/2000/svg">
  <path  d="M8.62332 3.0519L9.06193 3.85349L9.50057 3.05192C9.78037 2.54059 10.2476 1.85399 10.9357 1.32182C11.6449 0.77332 12.4395 0.5 13.3097 0.5C15.7406 0.5 17.6239 2.48196 17.6239 5.22173C17.6239 6.67596 17.047 7.92086 15.9593 9.23329C14.859 10.561 13.2748 11.9132 11.3091 13.5884L11.3091 13.5884L11.309 13.5884C10.6451 14.1542 9.89043 14.7973 9.10561 15.4837L9.10543 15.4838C9.09374 15.4941 9.07846 15.5 9.06195 15.5C9.04545 15.5 9.03019 15.4941 9.01853 15.4839L9.01827 15.4836C8.2341 14.7979 7.47992 14.1552 6.81673 13.59L6.81525 13.5887L6.81524 13.5887C4.84927 11.9133 3.26499 10.5611 2.16462 9.23333C1.07692 7.92086 0.5 6.67596 0.5 5.22173C0.5 2.48196 2.38328 0.5 4.81416 0.5C5.68436 0.5 6.47895 0.77332 7.18817 1.32182L7.49405 0.926301L7.18817 1.32182C7.87628 1.85399 8.34352 2.54056 8.62332 3.0519Z"/>
</svg>
