<svg width="30" height="30" viewBox="0 0 30 30" fill="none" xmlns="http://www.w3.org/2000/svg">
  <path d="M15 30C23.2842 30 30 23.2843 30 15C30 6.71573 23.2842 0 15 0C6.71572 0 0 6.71573 0 15C0 23.2843 6.71572 30 15 30Z" fill="#172852"/>
  <path d="M12.0867 6.69773C13.8432 6.04073 15.8202 6.03923 17.6097 6.57923C19.9392 7.30223 21.9057 9.06023 22.9331 11.2667C23.2167 11.8952 23.4882 12.5507 23.5152 13.2497C22.2057 12.4907 20.7702 11.9987 19.3317 11.5502C17.0307 10.7207 14.6217 10.1447 12.4437 9.00473C11.9367 8.70173 11.2902 8.39123 11.1522 7.75973C11.0967 7.21373 11.6742 6.90923 12.0867 6.69773Z" fill="#FFD83D"/>
  <path d="M6.77956 12.0089C7.28806 10.6289 8.12206 9.34794 9.25456 8.39844C9.54256 10.7669 10.5506 13.0559 12.2156 14.7779C14.2121 16.8524 17.0561 18.1259 19.9496 18.0779C21.0986 18.1139 22.2221 17.8484 23.3426 17.6339C22.2401 21.6179 17.8736 24.2624 13.8281 23.6264C11.3861 23.3144 9.13156 21.8684 7.77106 19.8269C6.23656 17.5709 5.84956 14.5754 6.77956 12.0089Z" fill="#FFD83D"/>
  <path d="M19.3281 11.5557C20.7666 12.0042 22.2021 12.4962 23.5116 13.2552L23.6001 13.3017C23.7216 14.2152 23.8101 15.1467 23.6481 16.0617C22.9896 15.7827 22.4556 15.2922 21.8976 14.8587C20.8236 13.9647 19.7271 12.9417 19.3281 11.5557Z" fill="#FF6F03"/>
</svg>
