<svg width="30" height="30" viewBox="0 0 30 30" fill="none" xmlns="http://www.w3.org/2000/svg">
  <g opacity="0.9">
    <path opacity="0.9" d="M28.836 17.9466C28.7529 16.5348 28.4032 17.373 27.3771 17.2191C23.9355 15.7829 24.5597 10.7002 24.5597 10.7002C24.5597 4.8797 19.8393 0 13.7605 0H12.7879C6.95223 0 2 4.96887 2 10.7894V16.6746C2 19.8274 2.5515 21.7645 4.49672 24.4322C6.6851 27.1 10.6097 31.1482 16.4453 29.6932C16.4453 29.6932 17.3136 29.4055 17.4262 28.9798C17.5388 28.5541 18.2287 26.8398 20.9038 26.8398C23.3352 26.3547 23.133 23.8972 23.133 23.8972C23.133 23.8972 23.2222 21.3998 25.8972 21.133C28.3287 20.8904 28.9191 19.3585 28.836 17.9466Z" fill="#BFD2D3"/>
    <path opacity="0.9" fill-rule="evenodd" clip-rule="evenodd" d="M13.2353 0.980856C10.6494 1.33753 5.74509 4.72594 5.74509 12.9295C5.71536 14.9506 5.76292 19.2426 6.19093 20.2413C6.22843 20.3289 6.27034 20.4348 6.31862 20.5568C6.95889 22.1759 8.72161 26.6331 16.267 28.6232C16.7146 28.7412 17.1017 28.8498 17.4346 28.9495C17.4315 28.9602 17.4287 28.9704 17.4262 28.9798C17.3136 29.4055 16.4453 29.6932 16.4453 29.6932C10.6097 31.1482 6.6851 27.1 4.49672 24.4322C2.5515 21.7645 2 19.8274 2 16.6746V10.7894C2 4.96887 6.95223 0 12.7879 0H13.1199L13.2353 0.980856Z" fill="#A6B6B7"/>
    <path opacity="0.9" fill-rule="evenodd" clip-rule="evenodd" d="M19.1549 1.41529L15.1974 0.353516L13.1465 0.977697C14.1273 1.09659 16.4264 1.89241 17.6049 3.20691C19.9233 5.79281 20.9042 8.73538 20.9042 12.213C20.9042 16.3186 21.35 18.1873 23.4009 19.2573C25.4518 20.3273 27.3243 20.684 27.681 19.7923C27.9663 19.0789 28.0377 18.3656 28.0377 18.0981L27.7347 17.2333C27.6259 17.239 27.5071 17.2354 27.3775 17.216C23.9359 15.7797 24.5601 10.6971 24.5601 10.6971C24.5601 6.77343 22.415 3.2773 19.1549 1.41529Z" fill="#768182"/>
    <path opacity="0.9" fill-rule="evenodd" clip-rule="evenodd" d="M27.0873 18.2577L26.9649 18.2066C24.7518 17.2829 23.9269 15.2098 23.6264 13.6198C23.4727 12.8067 23.4408 12.053 23.446 11.5067C23.4486 11.2318 23.4606 11.0048 23.4724 10.8436C23.4782 10.7628 23.4841 10.6982 23.4888 10.6519C23.4889 10.6493 23.4893 10.6467 23.4895 10.6442C23.4593 5.4354 19.2249 1.07002 13.7605 1.07002H12.7879C7.54435 1.07002 3.07002 5.55867 3.07002 10.7894V16.6746C3.07002 18.1892 3.20293 19.3434 3.53966 20.4143C3.87352 21.4763 4.42691 22.5167 5.34345 23.7772C7.5253 26.4325 11.0296 29.9124 16.1364 28.6672C16.1487 28.6626 16.1641 28.6567 16.1818 28.6496C16.2402 28.6258 16.3138 28.5932 16.3842 28.5552C16.4099 28.5413 16.4315 28.5285 16.4494 28.5174C16.5834 28.1274 16.8798 27.5175 17.4775 26.9646C18.1907 26.305 19.2597 25.796 20.7848 25.7707C21.506 25.5998 21.786 25.1902 21.9285 24.8107C22.0109 24.5911 22.0466 24.3721 22.0599 24.2034C22.0665 24.1212 22.0674 24.0561 22.0671 24.016C22.0667 23.9962 22.0662 23.983 22.066 23.9773C22.066 23.9771 22.066 23.9771 22.066 23.9769L22.0614 23.9222L22.0637 23.8591L23.133 23.8972C23.133 23.8972 23.3352 26.3547 20.9038 26.8398C18.2287 26.8398 17.5388 28.5541 17.4262 28.9798C17.3136 29.4055 16.4453 29.6932 16.4453 29.6932C10.6097 31.1482 6.6851 27.1 4.49672 24.4322C2.5515 21.7645 2 19.8274 2 16.6746V10.7894C2 4.96887 6.95223 0 12.7879 0H13.7605C19.8393 0 24.5597 4.8797 24.5597 10.7002C24.5597 10.7002 23.9355 15.7829 27.3771 17.2191C27.7314 17.2723 28.005 17.2071 28.2149 17.1572C28.6129 17.0625 28.7816 17.0223 28.836 17.9466C28.9191 19.3585 28.3287 20.8904 25.8972 21.133C23.2222 21.3998 23.133 23.8972 23.133 23.8972C22.0637 23.8591 22.0637 23.8585 22.0637 23.8578V23.8567L22.0639 23.8541L22.064 23.8482C22.0642 23.8439 22.0646 23.8391 22.0647 23.8336C22.0655 23.8225 22.0662 23.8089 22.0672 23.7932C22.0696 23.7615 22.0731 23.7203 22.0787 23.6709C22.0895 23.5725 22.1086 23.4394 22.1416 23.2825C22.2071 22.9716 22.3314 22.5474 22.5714 22.1051C23.0747 21.177 24.0562 20.2413 25.7911 20.0683C26.7844 19.9692 27.2326 19.6317 27.4529 19.3375C27.6481 19.0762 27.756 18.7254 27.7715 18.306C27.6053 18.3137 27.4202 18.3076 27.2183 18.2773L27.0873 18.2577ZM16.1048 28.6788L16.1052 28.6786C16.1044 28.679 16.1042 28.679 16.1048 28.6788ZM16.5127 28.4728C16.5122 28.4732 16.5117 28.4737 16.5112 28.4741C16.5172 28.468 16.5185 28.4676 16.5127 28.4728Z" fill="#1F2B46"/>
    <path opacity="0.9" d="M8.50816 12.8386C10.478 12.8386 12.0749 11.2417 12.0749 9.27183C12.0749 7.30197 10.478 5.70508 8.50816 5.70508C6.53829 5.70508 4.94141 7.30197 4.94141 9.27183C4.94141 11.2417 6.53829 12.8386 8.50816 12.8386Z" fill="#1F2B46"/>
    <path opacity="0.9" d="M8.50994 7.4873C8.03695 7.4873 7.58335 7.6752 7.24889 8.00964C6.91446 8.34409 6.72656 8.79769 6.72656 9.27068C6.72656 9.74367 6.91446 10.1973 7.24889 10.5317C7.58335 10.8662 8.03695 11.0541 8.50994 11.0541V9.27068V7.4873Z" fill="#52D784"/>
    <path opacity="0.9" d="M17.6058 12.8386C19.5757 12.8386 21.1726 11.2417 21.1726 9.27183C21.1726 7.30197 19.5757 5.70508 17.6058 5.70508C15.636 5.70508 14.0391 7.30197 14.0391 9.27183C14.0391 11.2417 15.636 12.8386 17.6058 12.8386Z" fill="#1F2B46"/>
    <path opacity="0.9" d="M17.6056 7.4873C17.1327 7.4873 16.6791 7.6752 16.3446 8.00964C16.0102 8.34409 15.8223 8.79769 15.8223 9.27068C15.8223 9.74367 16.0102 10.1973 16.3446 10.5317C16.6791 10.8662 17.1327 11.0541 17.6056 11.0541V9.27068V7.4873Z" fill="#60D5DC"/>
  </g>
</svg>
