<svg width="30" height="30" viewBox="0 0 30 30" fill="none" xmlns="http://www.w3.org/2000/svg">
  <g clip-path="url(#clip0_7422:17356)">
    <path fill-rule="evenodd" clip-rule="evenodd" d="M28.3356 22.4989L28.3351 7.51519L15.1704 0.015625L15.171 15.0054L2.00977 22.5016L15.1751 30.0002L28.3276 22.5088L28.3356 22.5134V22.5043L28.3403 22.5016L28.3356 22.4989Z" fill="#64C557"/>
    <path d="M2.01424 7.51518L15.1789 0.015625L15.1784 15.0138L2.01367 22.5135L2.01424 7.51518Z" fill="#118AB2"/>
    <path d="M15.1795 0L28.3448 7.49862L23.9563 9.99816L10.791 2.49954L15.1795 0Z" fill="#00F8B7"/>
    <path d="M23.9459 9.9947L23.9462 14.9941L10.7814 7.49452L10.7812 2.49512L23.9459 9.9947Z" fill="#09BD8E"/>
    <path d="M10.7732 7.50293L23.9385 15.0015L19.5501 17.5011L6.38477 10.0025L10.7732 7.50293Z" fill="#FFE3A3"/>
    <path d="M19.6022 17.5241L19.6023 22.5235L6.43766 15.0238L6.4375 10.0244L19.6022 17.5241Z" fill="#FFBB1D"/>
    <path d="M6.3982 15.002L19.5634 22.5006L15.1751 25.0001L2.00977 17.5015L6.3982 15.002Z" fill="#FF965E"/>
    <path d="M15.1647 24.9938L15.1649 29.9932L2.00019 22.4935L2 17.4941L15.1647 24.9938Z" fill="#D94C00"/>
    <path d="M23.9517 9.99603L28.3399 7.49609L28.3394 22.4944L23.9512 24.9942L23.9517 9.99603Z" fill="#06D6A0"/>
    <path d="M19.5551 17.496L23.9433 14.9961L23.9429 24.9949L19.5547 27.4947L19.5551 17.496Z" fill="#FFD166"/>
    <path d="M15.1565 24.9979L19.5447 22.498L19.5445 27.4974L15.1562 29.9973L15.1565 24.9979Z" fill="#F3722C"/>
  </g>
  <defs>
    <clipPath id="clip0_7422:17356">
      <rect width="30" height="30" fill="white"/>
    </clipPath>
  </defs>
</svg>
