<svg width="30" height="30" viewBox="0 0 30 30" fill="none" xmlns="http://www.w3.org/2000/svg">
  <g clip-path="url(#clip0_7422:17431)">
    <path d="M6.25 2.875L29.5 18.75L23.75 27.25L0.5 11.25L6.25 2.875Z" fill="url(#paint0_linear_7422:17431)"/>
    <path d="M29.5 18.75C27.5 21.625 20.75 20.5 14.375 16C7.87504 11.625 4.37504 5.75003 6.25004 2.87503C8.25004 2.99215e-05 15 1.12503 21.375 5.62503C27.875 9.87503 31.375 15.875 29.5 18.75Z" fill="url(#paint1_linear_7422:17431)"/>
    <path d="M23.7499 27.125C21.7499 30 14.9999 28.875 8.62492 24.375C2.24992 19.875 -1.37508 14.125 0.624919 11.125C2.62492 8.25003 9.37492 9.37503 15.7499 13.875C22.1249 18.375 25.6249 24.25 23.7499 27.125Z" fill="url(#paint2_linear_7422:17431)"/>
    <path d="M29.5 18.7503L23.75 27.2503C21.75 30.1253 15 28.8753 8.625 24.5003C7.375 23.6253 6.25 22.7503 5.125 21.7503C6 21.6253 7.125 21.1253 8.25 19.8753C10.25 17.7503 11.25 17.2503 12.125 17.3753C13 17.3753 14 18.2503 15.625 20.3753C17.25 22.5003 19.5 23.1253 20.875 22.0003C21 21.8753 21.125 21.8753 21.25 21.7503C22.375 20.8753 22.75 20.5003 24.875 16.5003C25.375 15.5003 27.125 13.8753 29.5 14.6253C30.125 16.2503 30.125 17.6253 29.5 18.7503Z" fill="#0E0F23"/>
    <path fill-rule="evenodd" clip-rule="evenodd" d="M28.625 18.2503C26.875 20.7503 20.75 19.5003 14.875 15.3753C8.87497 11.2503 5.37497 6.00028 7.12497 3.50028C8.87497 1.00028 15 2.25028 20.875 6.37528C26.75 10.5003 30.25 15.7503 28.625 18.2503ZM23.125 14.5003C22.25 15.7503 19.25 15.1253 16.25 13.1253C13.375 11.1253 11.625 8.50028 12.5 7.25028C13.375 6.00028 16.375 6.62528 19.375 8.62528C22.25 10.6253 24 13.2503 23.125 14.5003Z" fill="white"/>
    <path d="M5.75 5.75002C5.75 5.62502 5.625 5.50002 5.5 5.62502C5.375 5.75002 5.25 5.75002 5.25 5.87502C5.375 6.25002 5.5 6.50002 5.5 6.75002C5.5 6.87502 5.625 7.00002 5.75 6.87502C5.875 6.87502 6 6.75002 5.875 6.62502C5.875 6.37502 5.875 6.12502 5.75 5.75002Z" fill="white"/>
    <path d="M6.375 7.75002C6.375 7.62502 6.25 7.50002 6.125 7.62502C6 7.75002 6 7.75002 6 7.87502C7.375 11 10.25 14.375 14 16.875C14.125 17 14.25 16.875 14.375 16.875C14.5 16.75 14.375 16.625 14.375 16.5C10.5 14 7.75 10.75 6.375 7.75002Z" fill="white"/>
    <path d="M21.5 20C21.375 20 21.25 20 21.25 20.125C21.25 20.25 21.25 20.375 21.375 20.375C21.75 20.5 22.25 20.625 22.625 20.75C22.75 20.75 22.875 20.75 22.875 20.625C22.875 20.5 22.875 20.375 22.75 20.375C22.375 20.25 21.875 20.125 21.5 20Z" fill="white"/>
    <path d="M23.75 20.5C23.625 20.5 23.5 20.625 23.5 20.75C23.5 20.875 23.625 21 23.75 21C24.75 21.125 25.875 21.25 26.75 21.125C26.875 21.125 27 21 27 20.875C27 20.75 26.875 20.625 26.75 20.625C25.75 20.75 24.75 20.625 23.75 20.5Z" fill="white"/>
  </g>
  <defs>
    <linearGradient id="paint0_linear_7422:17431" x1="10.8053" y1="0.617875" x2="15.416" y2="16.4506" gradientUnits="userSpaceOnUse">
      <stop stop-color="#03B8FF"/>
      <stop offset="1" stop-color="#FA52A0"/>
    </linearGradient>
    <linearGradient id="paint1_linear_7422:17431" x1="14.6023" y1="-0.48797" x2="19.2132" y2="15.3449" gradientUnits="userSpaceOnUse">
      <stop stop-color="#03B8FF"/>
      <stop offset="1" stop-color="#FA52A0"/>
    </linearGradient>
    <linearGradient id="paint2_linear_7422:17431" x1="7.01992" y1="1.72016" x2="11.6308" y2="17.553" gradientUnits="userSpaceOnUse">
      <stop stop-color="#03B8FF"/>
      <stop offset="1" stop-color="#FA52A0"/>
    </linearGradient>
    <clipPath id="clip0_7422:17431">
      <rect width="30" height="30" fill="white"/>
    </clipPath>
  </defs>
</svg>
