<svg width="30" height="30" viewBox="0 0 30 30" fill="none" xmlns="http://www.w3.org/2000/svg">
  <g clip-path="url(#clip0_7422:17379)">
    <path d="M10.8872 5.45197C10.5431 5.40281 10.5267 5.38642 10.6906 5.37003C11.002 5.32087 11.723 5.38642 12.2311 5.50114C13.411 5.77973 14.4762 6.50081 15.607 7.7627L15.902 8.10684L16.3281 8.04129C18.1472 7.74631 20.0154 7.97574 21.5723 8.69682C21.9984 8.89347 22.6703 9.28679 22.7522 9.38512C22.785 9.41789 22.8342 9.63094 22.8669 9.84398C22.9816 10.6142 22.9325 11.1878 22.6867 11.6303C22.5556 11.8761 22.5556 11.9417 22.6375 12.1547C22.703 12.3186 22.8997 12.4333 23.08 12.4333C23.4733 12.4333 23.883 11.8106 24.0796 10.942L24.1616 10.5978L24.3091 10.7617C25.1449 11.6958 25.8004 12.9905 25.8987 13.9082L25.9315 14.1541L25.784 13.941C25.5382 13.5641 25.3088 13.3183 24.9974 13.1052C24.4402 12.7283 23.8502 12.6136 22.2933 12.5316C20.884 12.4497 20.081 12.335 19.2943 12.0728C17.9505 11.6303 17.2622 11.0567 15.6726 8.94264C14.9679 8.00852 14.5254 7.50049 14.0829 7.07439C13.116 6.14027 12.1491 5.64863 10.8872 5.45197Z" fill="#FF007A"/>
    <path d="M23.0962 7.53368C23.1289 6.91093 23.2109 6.50123 23.3912 6.1243C23.4567 5.97681 23.5223 5.8457 23.5386 5.8457C23.555 5.8457 23.5223 5.96042 23.4731 6.09152C23.342 6.45206 23.3256 6.96009 23.4075 7.53368C23.5223 8.27114 23.5714 8.36947 24.3581 9.17249C24.7186 9.54941 25.1447 10.0247 25.3086 10.2213L25.5872 10.5819L25.3086 10.3197C24.9644 9.99189 24.1778 9.36914 23.9975 9.2872C23.8828 9.22165 23.8664 9.22165 23.7845 9.30359C23.7189 9.36914 23.7025 9.46747 23.7025 9.94273C23.6861 10.6802 23.5878 11.1391 23.342 11.6143C23.2109 11.8601 23.1945 11.811 23.3092 11.5324C23.3912 11.3193 23.4075 11.221 23.4075 10.5163C23.4075 9.09055 23.2437 8.7464 22.244 8.17281C21.9982 8.02532 21.5721 7.81228 21.3262 7.69756C21.064 7.58284 20.8674 7.48451 20.8838 7.48451C20.9165 7.45174 21.8834 7.73033 22.2604 7.89422C22.834 8.12365 22.9323 8.14004 22.9978 8.12365C23.047 8.07449 23.0798 7.94338 23.0962 7.53368Z" fill="#FF007A"/>
    <path d="M11.5578 9.97599C10.8695 9.02548 10.427 7.55055 10.5254 6.45255L10.5581 6.1084L10.722 6.14117C11.017 6.19034 11.525 6.387 11.7709 6.53449C12.4264 6.9278 12.7214 7.46861 13 8.81243C13.0819 9.20575 13.1966 9.66461 13.2458 9.8121C13.3277 10.0579 13.6391 10.6315 13.9013 10.992C14.0816 11.2543 13.9669 11.3854 13.5572 11.3526C12.9344 11.287 12.0986 10.7134 11.5578 9.97599Z" fill="#FF007A"/>
    <path d="M22.2611 17.1016C19.0163 15.7906 17.8691 14.6598 17.8691 12.7424C17.8691 12.4638 17.8855 12.2344 17.8855 12.2344C17.9019 12.2344 18.0166 12.3327 18.1641 12.4474C18.8197 12.9718 19.5571 13.2013 21.6056 13.4963C22.802 13.6765 23.4903 13.8076 24.113 14.0207C26.096 14.6762 27.3251 16.02 27.6201 17.8391C27.702 18.3635 27.6528 19.3632 27.5217 19.8876C27.407 20.2973 27.0792 21.0512 26.9973 21.0676C26.9809 21.0676 26.9481 20.9856 26.9481 20.8545C26.9154 20.1662 26.5712 19.5107 25.9976 19.0027C25.3093 18.4127 24.4244 17.9702 22.2611 17.1016Z" fill="#FF007A"/>
    <path d="M19.9664 17.6431C19.9337 17.3973 19.8517 17.0859 19.8026 16.9548L19.7206 16.709L19.8681 16.8893C20.0812 17.1351 20.245 17.4301 20.3925 17.8398C20.5072 18.1511 20.5072 18.2495 20.5072 18.7575C20.5072 19.2491 20.4909 19.3639 20.3925 19.6425C20.2287 20.0849 20.032 20.3963 19.7042 20.7405C19.1143 21.3468 18.344 21.6746 17.246 21.8221C17.0494 21.8385 16.4922 21.8876 16.0005 21.9204C14.7714 21.986 13.952 22.1171 13.2146 22.3793C13.1162 22.412 13.0179 22.4448 13.0015 22.4284C12.9687 22.3957 13.4768 22.1007 13.8865 21.904C14.46 21.6254 15.05 21.4779 16.3447 21.2485C16.9838 21.1502 17.6393 21.0191 17.8032 20.9535C19.4256 20.4455 20.2287 19.1836 19.9664 17.6431Z" fill="#FF007A"/>
    <path d="M21.4584 20.2797C21.0323 19.3456 20.934 18.4606 21.1634 17.6248C21.1962 17.5429 21.229 17.4609 21.2617 17.4609C21.2945 17.4609 21.3929 17.5101 21.4912 17.5757C21.6878 17.7068 22.0975 17.9362 23.1464 18.5098C24.4738 19.2308 25.2277 19.788 25.7521 20.4272C26.2109 20.9844 26.4895 21.6235 26.6206 22.4101C26.7026 22.8526 26.6534 23.9178 26.5387 24.3603C26.1782 25.7533 25.3588 26.8677 24.1624 27.5068C23.9822 27.6051 23.8347 27.6707 23.8183 27.6707C23.8019 27.6707 23.8674 27.5068 23.9658 27.3101C24.3591 26.4744 24.4082 25.6713 24.1133 24.77C23.933 24.2128 23.5561 23.5409 22.8022 22.4101C21.9009 21.0991 21.6878 20.7549 21.4584 20.2797Z" fill="#FF007A"/>
    <path d="M9.24845 25.2972C10.4612 24.2811 11.9525 23.5601 13.3291 23.3306C13.9191 23.2323 14.9023 23.2651 15.4431 23.4126C16.3117 23.642 17.0983 24.1336 17.508 24.74C17.9014 25.33 18.0816 25.838 18.2619 26.9688C18.3274 27.4112 18.4094 27.8701 18.4258 27.9684C18.5569 28.5584 18.8191 29.0173 19.1468 29.2631C19.6549 29.64 20.5398 29.6564 21.4084 29.3287C21.5559 29.2795 21.687 29.2303 21.687 29.2467C21.7198 29.2795 21.2773 29.5745 20.9823 29.722C20.5726 29.935 20.2449 30.0006 19.8024 30.0006C19.0157 30.0006 18.3438 29.5909 17.803 28.7715C17.6883 28.6076 17.4589 28.1323 17.2622 27.6898C16.6886 26.3624 16.3937 25.9691 15.7217 25.5266C15.1318 25.1497 14.3779 25.0678 13.8043 25.3464C13.0505 25.7069 12.8538 26.6738 13.3782 27.2638C13.5913 27.5096 13.9846 27.7062 14.3124 27.7554C14.9187 27.8373 15.4431 27.3621 15.4431 26.7557C15.4431 26.3624 15.2956 26.133 14.9023 25.9527C14.3779 25.7233 13.8043 25.9855 13.8207 26.4935C13.8207 26.7066 13.9191 26.8377 14.1321 26.936C14.2632 27.0015 14.2632 27.0015 14.1649 26.9852C13.6896 26.8868 13.5749 26.2969 13.9518 25.9199C14.4107 25.4611 15.3776 25.6577 15.7054 26.2969C15.8365 26.5591 15.8528 27.0835 15.7381 27.4112C15.4595 28.1323 14.6729 28.5092 13.8699 28.2962C13.3291 28.1487 13.0996 28.0012 12.4441 27.3293C11.297 26.1494 10.8545 25.9199 9.21567 25.6741L8.9043 25.6249L9.24845 25.2972Z" fill="#FF007A"/>
    <path fill-rule="evenodd" clip-rule="evenodd" d="M2.55792 0.704688C6.37635 5.34251 10.3298 10.7766 10.6248 11.1699C10.8706 11.4977 10.7723 11.8091 10.3626 12.0385C10.1332 12.1696 9.65791 12.3007 9.42847 12.3007C9.16626 12.3007 8.85489 12.1696 8.64185 11.9566C8.49435 11.8091 7.85523 10.875 6.41308 8.6298C5.31508 6.90905 4.38095 5.48328 4.36457 5.4669C4.29901 5.43412 4.29902 5.43412 6.29837 9.00672C7.56025 11.2519 7.96994 12.0549 7.96994 12.1532C7.96994 12.3663 7.9044 12.481 7.64219 12.776C7.19971 13.2676 7.00305 13.8248 6.85556 14.9883C6.69168 16.283 6.2492 17.2007 4.98732 18.7576C4.24985 19.6753 4.13513 19.8392 3.95486 20.2161C3.72543 20.675 3.65988 20.9372 3.6271 21.5272C3.59432 22.1499 3.65988 22.5432 3.84015 23.1332C4.00403 23.6576 4.1843 24.0018 4.62678 24.6737C5.0037 25.2637 5.23314 25.7061 5.23314 25.87C5.23314 26.0011 5.26592 26.0011 5.85589 25.87C7.26526 25.5423 8.4288 24.9851 9.06794 24.2968C9.46125 23.8707 9.55958 23.6412 9.55958 23.0513C9.55958 22.6744 9.54319 22.5924 9.44486 22.363C9.28098 22.0024 8.96961 21.7075 8.2977 21.2486C7.41274 20.6422 7.03583 20.1506 6.9375 19.4951C6.85556 18.9379 6.95389 18.5609 7.44553 17.5285C7.95356 16.4633 8.08466 16.0208 8.1666 14.9392C8.21576 14.2509 8.2977 13.9723 8.49436 13.7592C8.7074 13.5298 8.88767 13.4479 9.3957 13.3823C10.2315 13.2676 10.7723 13.0546 11.1984 12.6449C11.5753 12.3007 11.7392 11.9566 11.7556 11.4485L11.772 11.0716L11.5589 10.8422C10.7887 9.95723 2.04989 0 2.00073 0C1.98434 0 2.24655 0.311374 2.55792 0.704688ZM5.65923 22.2319C5.8395 21.9205 5.74117 21.5272 5.44619 21.3305C5.16759 21.1503 4.7415 21.2322 4.7415 21.478C4.7415 21.5436 4.77427 21.6091 4.8726 21.6419C5.02009 21.7238 5.03648 21.8058 4.92176 21.986C4.80705 22.1663 4.80705 22.3302 4.95454 22.4449C5.18397 22.6252 5.49535 22.5269 5.65923 22.2319Z" fill="#FF007A"/>
    <path fill-rule="evenodd" clip-rule="evenodd" d="M12.2973 13.6123C11.904 13.727 11.527 14.1531 11.4123 14.5792C11.3468 14.8414 11.3795 15.3167 11.4943 15.4642C11.6745 15.6936 11.8384 15.7592 12.2973 15.7592C13.1986 15.7592 13.9689 15.3658 14.0508 14.8906C14.1327 14.4973 13.7886 13.9565 13.3133 13.7107C13.0675 13.5795 12.5595 13.5304 12.2973 13.6123ZM13.3461 14.4317C13.4772 14.2351 13.428 14.022 13.1822 13.8745C12.7397 13.5959 12.0678 13.8254 12.0678 14.2515C12.0678 14.4645 12.412 14.6939 12.7397 14.6939C12.9528 14.6939 13.2478 14.5628 13.3461 14.4317Z" fill="#FF007A"/>
  </g>
  <defs>
    <clipPath id="clip0_7422:17379">
      <rect width="30" height="30" fill="white"/>
    </clipPath>
  </defs>
</svg>
