<svg width="30" height="30" viewBox="0 0 30 30" fill="none" xmlns="http://www.w3.org/2000/svg">
  <path d="M15 30C23.3125 30 30 23.3125 30 15C30 6.68745 23.3125 0 15 0C6.68745 0 0 6.68745 0 15C0 23.3125 6.68745 30 15 30Z" fill="#2775CA"/>
  <path d="M19.125 17.374C19.125 15.1866 17.8125 14.4366 15.1875 14.1241C13.3125 13.8741 12.9375 13.3741 12.9375 12.499C12.9375 11.6239 13.5625 11.0616 14.8125 11.0616C15.9375 11.0616 16.5625 11.4366 16.875 12.3741C16.9375 12.5616 17.125 12.6865 17.3125 12.6865H18.3124C18.5625 12.6865 18.75 12.499 18.75 12.2491V12.1866C18.4999 10.8115 17.3749 9.74907 15.9375 9.62412V8.12412C15.9375 7.87407 15.75 7.68657 15.4375 7.62402H14.5C14.25 7.62402 14.0625 7.81152 13.9999 8.12412V9.56157C12.1249 9.81162 10.9375 11.0616 10.9375 12.6241C10.9375 14.6866 12.1875 15.499 14.8125 15.8116C16.5625 16.1241 17.125 16.4991 17.125 17.4991C17.125 18.4992 16.2499 19.1866 15.0625 19.1866C13.4374 19.1866 12.8749 18.499 12.6874 17.5615C12.625 17.3116 12.4375 17.1865 12.25 17.1865H11.1874C10.9375 17.1865 10.75 17.374 10.75 17.6241V17.6866C10.9999 19.249 12 20.374 14.0625 20.6866V22.1866C14.0625 22.4365 14.25 22.624 14.5624 22.6866H15.4999C15.75 22.6866 15.9375 22.4991 16 22.1866V20.6866C17.875 20.374 19.125 19.0615 19.125 17.374Z" fill="white"/>
  <path d="M11.8098 23.9374C6.93481 22.1875 4.43476 16.75 6.24736 11.9374C7.18486 9.3124 9.24736 7.31245 11.8098 6.37495C12.0599 6.25 12.1848 6.0625 12.1848 5.7499V4.87495C12.1848 4.6249 12.0599 4.4374 11.8098 4.375C11.7473 4.375 11.6223 4.375 11.5598 4.4374C5.62231 6.3124 2.37226 12.625 4.24726 18.5624C5.37226 22.0624 8.05981 24.7499 11.5598 25.8749C11.8098 25.9999 12.0599 25.8749 12.1223 25.6249C12.1848 25.5625 12.1848 25.4999 12.1848 25.375V24.4999C12.1848 24.3124 11.9973 24.0625 11.8098 23.9374ZM18.4349 4.4374C18.1848 4.31245 17.9348 4.4374 17.8724 4.68745C17.8098 4.75 17.8098 4.8124 17.8098 4.9375V5.81245C17.8098 6.0625 17.9973 6.3124 18.1848 6.4375C23.0598 8.1874 25.5599 13.6249 23.7473 18.4375C22.8098 21.0625 20.7473 23.0624 18.1848 23.9999C17.9348 24.1249 17.8098 24.3124 17.8098 24.625V25.4999C17.8098 25.75 17.9348 25.9375 18.1848 25.9999C18.2474 25.9999 18.3723 25.9999 18.4349 25.9375C24.3723 24.0625 27.6224 17.7499 25.7474 11.8124C24.6224 8.24995 21.8723 5.5624 18.4349 4.4374Z" fill="white"/>
</svg>
