<svg width="30" height="30" viewBox="0 0 30 30" fill="none" xmlns="http://www.w3.org/2000/svg">
  <path fill-rule="evenodd" clip-rule="evenodd" d="M18.0439 6.08199V10.077C24.8662 10.4199 29.9931 11.8882 30 13.6472C30 15.4062 24.873 16.8745 18.0508 17.2174V30H11.9698V17.2174C5.1407 16.8745 0 15.4062 0 13.6472C0 11.8882 5.1407 10.4199 11.9698 10.077V6.08199H3.56211V0H26.4516V6.08199H18.0439ZM17.9665 16.1397C18.0038 16.1377 18.0318 16.1362 18.0509 16.1354C24.0701 15.8372 28.5657 14.6969 28.5794 13.3329C28.5794 11.9689 24.0838 10.8285 18.0578 10.5379V14.995C17.8793 15.0174 16.939 15.0994 15.0653 15.0994C13.5005 15.0994 12.3749 15.0248 11.9768 14.995V10.5528C5.93697 10.8434 1.43457 11.9838 1.43457 13.3478C1.43457 14.7118 5.94384 15.8521 11.9768 16.1428V16.1354C12.368 16.1577 13.4661 16.2025 15.0379 16.2025C16.7817 16.2025 17.6697 16.1554 17.9665 16.1397Z" fill="#00C089"/>
</svg>
