<svg width="30" height="30" viewBox="0 0 30 30" fill="none" xmlns="http://www.w3.org/2000/svg">
  <path fill-rule="evenodd" clip-rule="evenodd" d="M15 0C23.283 0 30 6.717 30 15C30 23.283 23.283 30 15 30C6.717 30 0 23.283 0 15C0 6.717 6.717 0 15 0Z" fill="#006AE3"/>
  <path d="M14.3809 21.3208V8.84082H15.7399V21.3208H14.3809Z" fill="white"/>
  <path d="M21.3033 13.0044L17.1063 14.1174L16.1703 9.76148L17.4183 9.47949L17.9103 11.5434C17.9103 11.5434 19.0443 9.68348 17.5323 7.75753C16.6413 6.76755 16.2183 6.72555 15.2193 6.56956C14.3403 6.44356 12.2973 6.74055 11.6883 9.12549C11.4303 10.6615 11.7213 11.7984 13.7013 13.2864L13.5903 14.9424C13.5903 14.9424 11.3793 13.3854 10.8093 12.2934C10.3683 11.4294 9.61228 9.72248 10.9773 7.34654C11.7123 6.15857 13.1613 5.01859 15.7143 5.13859C16.9983 5.19259 20.1333 6.76155 19.6473 10.4275C19.5633 11.1144 19.2063 12.0294 19.2063 12.0294L20.9283 11.6454L21.3033 13.0044Z" fill="white"/>
  <path d="M18.9015 22.7695C18.1335 23.9365 16.6545 25.0375 14.1075 24.8515C12.8235 24.7645 9.73351 23.1115 10.3155 19.4605C10.4175 18.7765 10.7985 17.8735 10.7985 17.8735L9.06752 18.2095L8.72852 16.8445L12.9555 15.8425L13.7775 20.2225L12.5205 20.4715L12.0825 18.3925C12.0825 18.3925 10.9005 20.2195 12.3585 22.1875C13.2225 23.2015 13.6425 23.2525 14.6415 23.4355C15.5145 23.5855 17.5665 23.3395 18.2385 20.9725C18.5355 19.4455 18.2745 18.2995 16.3365 16.7575L16.4925 15.1045C16.4925 15.1045 18.6615 16.7185 19.2015 17.8255C19.6155 18.7045 20.3265 20.4325 18.9015 22.7695Z" fill="white"/>
</svg>
