<svg width="90" height="21" viewBox="0 0 90 21" fill="none" xmlns="http://www.w3.org/2000/svg">
<circle cx="10.4281" cy="10.4281" r="10.4281" fill="#FB1717"/>
<path fill-rule="evenodd" clip-rule="evenodd" d="M11.3368 2.79197C10.9827 2.15984 10.4193 2.15984 10.0652 2.79197L3.63454 14.4948C3.28041 15.1353 3.57015 15.6426 4.2784 15.6426H7.50578C8.1577 15.601 8.74523 15.2434 9.09935 14.6778L12.9867 7.71598C13.2684 7.11711 13.2684 6.41012 12.9867 5.81125L11.8277 3.70691L11.3368 2.79197ZM15.6007 10.4929C15.2465 9.86081 14.6751 9.86081 14.321 10.4929L12.0755 14.4937C11.7294 15.1258 12.0192 15.6415 12.7194 15.6415H17.162C17.8703 15.6415 18.16 15.1258 17.8059 14.4937L15.6007 10.4929Z" fill="white"/>
<path d="M31.8675 13.6711H27.6094L26.7699 15.642H25.1396L28.972 7.12572H30.5292L34.3737 15.642H32.7191L31.8675 13.6711ZM31.3444 12.4301L29.7384 8.70731L28.1447 12.4301H31.3444Z" fill="black"/>
<path d="M41.0612 9.14529L38.2751 15.642H36.7057L33.9197 9.14529H35.5013L37.5208 13.9631L39.6012 9.14529H41.0612Z" fill="black"/>
<path d="M44.2915 9.07229C45.2486 9.07229 45.9786 9.30345 46.4814 9.76576C46.9924 10.22 47.2479 10.9094 47.2479 11.834V15.642H45.8123V14.8512C45.6257 15.1351 45.3581 15.354 45.0093 15.5082C44.6687 15.6541 44.255 15.7271 43.7684 15.7271C43.2817 15.7271 42.8559 15.646 42.491 15.4838C42.126 15.3135 41.8421 15.0823 41.6393 14.7904C41.4447 14.4903 41.3473 14.1537 41.3473 13.7806C41.3473 13.1966 41.5623 12.7302 41.9921 12.3815C42.4301 12.0246 43.1155 11.8462 44.0482 11.8462H45.7271V11.7488C45.7271 11.2946 45.5892 10.9459 45.3135 10.7025C45.0458 10.4592 44.6444 10.3376 44.109 10.3376C43.7441 10.3376 43.3831 10.3943 43.0263 10.5079C42.6775 10.6214 42.3815 10.7796 42.1381 10.9824L41.542 9.87526C41.8826 9.61571 42.2922 9.417 42.7708 9.27912C43.2493 9.14124 43.7562 9.07229 44.2915 9.07229ZM44.0847 14.62C44.4659 14.62 44.8025 14.5349 45.0945 14.3645C45.3946 14.1861 45.6055 13.9347 45.7271 13.6102V12.8559H44.1577C43.2817 12.8559 42.8438 13.1439 42.8438 13.7197C42.8438 13.9955 42.9533 14.2145 43.1723 14.3767C43.3912 14.5389 43.6954 14.62 44.0847 14.62Z" fill="black"/>
<path d="M49.1996 6.61475H50.7204V15.642H49.1996V6.61475Z" fill="black"/>
<path d="M55.1982 9.07229C56.1553 9.07229 56.8853 9.30345 57.3881 9.76576C57.8991 10.22 58.1546 10.9094 58.1546 11.834V15.642H56.719V14.8512C56.5324 15.1351 56.2648 15.354 55.916 15.5082C55.5754 15.6541 55.1617 15.7271 54.6751 15.7271C54.1884 15.7271 53.7626 15.646 53.3977 15.4838C53.0327 15.3135 52.7488 15.0823 52.546 14.7904C52.3514 14.4903 52.254 14.1537 52.254 13.7806C52.254 13.1966 52.469 12.7302 52.8988 12.3815C53.3368 12.0246 54.0222 11.8462 54.9549 11.8462H56.6338V11.7488C56.6338 11.2946 56.496 10.9459 56.2202 10.7025C55.9525 10.4592 55.5511 10.3376 55.0157 10.3376C54.6508 10.3376 54.2898 10.3943 53.933 10.5079C53.5842 10.6214 53.2882 10.7796 53.0448 10.9824L52.4487 9.87526C52.7894 9.61571 53.1989 9.417 53.6775 9.27912C54.156 9.14124 54.6629 9.07229 55.1982 9.07229ZM54.9914 14.62C55.3726 14.62 55.7092 14.5349 56.0012 14.3645C56.3013 14.1861 56.5122 13.9347 56.6338 13.6102V12.8559H55.0644C54.1884 12.8559 53.7505 13.1439 53.7505 13.7197C53.7505 13.9955 53.86 14.2145 54.079 14.3767C54.2979 14.5389 54.6021 14.62 54.9914 14.62Z" fill="black"/>
<path d="M63.7926 9.07229C64.6118 9.07229 65.2688 9.31156 65.7635 9.79009C66.2583 10.2686 66.5057 10.9783 66.5057 11.9192V15.642H64.9849V12.1138C64.9849 11.5461 64.8511 11.1203 64.5834 10.8364C64.3158 10.5444 63.9346 10.3984 63.4398 10.3984C62.8802 10.3984 62.4381 10.5687 62.1137 10.9094C61.7893 11.2419 61.6271 11.7245 61.6271 12.3571V15.642H60.1063V9.14529H61.5541V9.98475C61.8055 9.68465 62.1218 9.45755 62.503 9.30345C62.8842 9.14935 63.3141 9.07229 63.7926 9.07229Z" fill="black"/>
<path d="M71.4749 15.7271C70.8017 15.7271 70.1975 15.5852 69.6622 15.3013C69.1269 15.0175 68.7092 14.6241 68.4091 14.1212C68.109 13.6102 67.9589 13.0344 67.9589 12.3936C67.9589 11.7529 68.109 11.1811 68.4091 10.6782C68.7092 10.1754 69.1228 9.78198 69.65 9.49811C70.1853 9.21423 70.7936 9.07229 71.4749 9.07229C72.1157 9.07229 72.6753 9.20207 73.1539 9.46161C73.6405 9.72115 74.0055 10.0942 74.2488 10.5809L73.0809 11.2622C72.8943 10.9621 72.6591 10.739 72.3752 10.5931C72.0995 10.439 71.7953 10.3619 71.4628 10.3619C70.895 10.3619 70.4246 10.5484 70.0515 10.9215C69.6784 11.2865 69.4919 11.7772 69.4919 12.3936C69.4919 13.0101 69.6744 13.5048 70.0393 13.8779C70.4124 14.2429 70.8869 14.4254 71.4628 14.4254C71.7953 14.4254 72.0995 14.3524 72.3752 14.2064C72.6591 14.0523 72.8943 13.8252 73.0809 13.5251L74.2488 14.2064C73.9974 14.693 73.6283 15.0702 73.1417 15.3378C72.6632 15.5974 72.1076 15.7271 71.4749 15.7271Z" fill="black"/>
<path d="M79.1903 9.07229C80.0095 9.07229 80.6665 9.31156 81.1612 9.79009C81.656 10.2686 81.9034 10.9783 81.9034 11.9192V15.642H80.3826V12.1138C80.3826 11.5461 80.2488 11.1203 79.9811 10.8364C79.7135 10.5444 79.3323 10.3984 78.8375 10.3984C78.2779 10.3984 77.8358 10.5687 77.5114 10.9094C77.187 11.2419 77.0248 11.7245 77.0248 12.3571V15.642H75.504V6.61475H77.0248V9.89959C77.2762 9.63193 77.5844 9.42917 77.9494 9.29128C78.3225 9.14529 78.7361 9.07229 79.1903 9.07229Z" fill="black"/>
<path d="M89.9993 12.4301C89.9993 12.5356 89.9912 12.6856 89.975 12.8803H84.8774C84.9666 13.3588 85.1978 13.74 85.5709 14.0239C85.9521 14.2997 86.4225 14.4375 86.9821 14.4375C87.6959 14.4375 88.2839 14.2023 88.7462 13.7319L89.5613 14.6687C89.2693 15.0175 88.9003 15.2811 88.4542 15.4595C88.0081 15.6379 87.5053 15.7271 86.9456 15.7271C86.2319 15.7271 85.6033 15.5852 85.0599 15.3013C84.5165 15.0175 84.0947 14.6241 83.7946 14.1212C83.5026 13.6102 83.3566 13.0344 83.3566 12.3936C83.3566 11.761 83.4986 11.1932 83.7824 10.6904C84.0744 10.1794 84.4759 9.78198 84.9869 9.49811C85.4979 9.21423 86.0737 9.07229 86.7145 9.07229C87.3471 9.07229 87.9108 9.21423 88.4056 9.49811C88.9084 9.77387 89.2977 10.1672 89.5735 10.6782C89.8574 11.1811 89.9993 11.7651 89.9993 12.4301ZM86.7145 10.2889C86.2278 10.2889 85.8142 10.4349 85.4735 10.7269C85.141 11.0108 84.9382 11.392 84.8652 11.8705H88.5516C88.4867 11.4001 88.2879 11.0189 87.9554 10.7269C87.6229 10.4349 87.2092 10.2889 86.7145 10.2889Z" fill="black"/>
</svg>
