<svg width="79" height="76" viewBox="0 0 79 76" fill="none" xmlns="http://www.w3.org/2000/svg">
<path d="M29.1985 75.8355C28.5782 75.8355 27.945 75.7441 27.2986 75.5318C24.0928 74.4969 22.7837 71.2551 21.628 68.3987C21.1612 67.2496 20.3841 65.3267 19.865 64.9512C19.3524 64.5823 17.3284 64.4453 16.1173 64.3636C13.2021 64.1678 9.575 63.9262 7.51504 61.2003C5.39954 58.4024 6.32999 54.8376 7.07759 51.9745C7.38126 50.809 7.8937 48.8568 7.69789 48.2561C7.50208 47.6521 6.02648 46.4279 5.05359 45.615C2.80431 43.751 0 41.4233 0 37.9205C0 34.3947 2.85647 32.0409 5.15482 30.1475C6.06243 29.3999 7.58047 28.1495 7.77628 27.5848C7.95913 26.994 7.44977 25.0155 7.1495 23.8338C6.38878 20.8598 5.52376 17.4842 7.44329 14.7353C9.40866 11.9179 13.0748 11.6796 16.0195 11.4871C17.247 11.4087 19.3004 11.2749 19.8129 10.8995C20.3451 10.5142 21.1187 8.60453 21.579 7.46515C22.7281 4.62489 24.0308 1.40936 27.2235 0.325528C30.4717 -0.784377 33.5437 1.17435 36.0052 2.7413C37.1217 3.45295 38.8063 4.52382 39.5048 4.52382C40.2164 4.52382 41.9173 3.44647 43.0436 2.73482C45.6063 1.11556 48.5085 -0.719107 51.7046 0.309172C54.9072 1.34409 56.2196 4.58261 57.372 7.43907C57.8388 8.58817 58.6191 10.5143 59.1382 10.8898C59.6508 11.2619 61.6813 11.3957 62.8926 11.4774C65.8177 11.6732 69.461 11.918 71.4817 14.6767C73.5156 17.4515 72.608 20.9806 71.88 23.8176C71.5763 24.9962 71.0703 26.968 71.2662 27.5817C71.462 28.1824 72.9996 29.4588 73.9203 30.2195C76.1827 32.0901 79 34.421 79 37.924C79 41.4499 76.1435 43.8069 73.8452 45.7003C72.9408 46.4479 71.4195 47.6982 71.2237 48.263C71.0441 48.8506 71.5404 50.8061 71.8375 51.9782C72.5983 54.9783 73.46 58.3833 71.4522 61.1353C69.4576 63.8743 65.984 64.1061 62.9219 64.315C61.6944 64.3967 59.6409 64.5338 59.1219 64.9157C58.5931 65.3043 57.8225 67.2141 57.3589 68.3533C56.2066 71.1902 54.9072 74.4059 51.7144 75.4963C48.4661 76.603 45.4137 74.6574 42.9652 73.1002C41.8618 72.395 40.1936 71.3308 39.4981 71.3308C38.7865 71.3308 37.0856 72.4081 35.9594 73.1198C33.9192 74.4023 31.6569 75.8355 29.1985 75.8355ZM29.1985 6.53131C28.8819 6.82186 28.0984 8.75775 27.6316 9.91348C26.6815 12.2575 25.7022 14.683 23.6717 16.1685C21.6249 17.6669 18.9903 17.8399 16.4438 18.0064C15.2327 18.0815 13.2021 18.2153 12.7026 18.5744C12.647 18.9791 13.1661 21.0033 13.473 22.2144C14.1063 24.6955 14.7658 27.2583 13.966 29.6512C13.1891 31.9854 11.214 33.6111 9.30419 35.1847C8.38362 35.942 6.67285 37.3556 6.52272 37.9694C6.66313 38.4721 8.33131 39.8596 9.22905 40.604C11.0605 42.1285 13.1335 43.849 13.9137 46.255C14.694 48.6643 14.005 51.3054 13.3979 53.6331C13.091 54.8084 12.5751 56.7835 12.7776 57.3612C13.1791 57.6321 15.373 57.779 16.5548 57.8574C19.062 58.0239 21.654 58.1969 23.6847 59.6595C25.7315 61.1352 26.724 63.5869 27.6837 65.957C28.1473 67.1028 28.9211 69.0159 29.4271 69.3783C29.7861 69.3 31.4674 68.2293 32.4729 67.5958C34.5492 66.2835 36.8997 64.7948 39.5048 64.7948C42.1034 64.7948 44.4311 66.2801 46.4845 67.586C47.4803 68.2192 49.142 69.2868 49.736 69.2868C50.0559 68.9931 50.8395 67.0572 51.3064 65.9014C52.2564 63.5542 53.239 61.1319 55.2663 59.6464C57.3131 58.1448 60.062 57.9619 62.4875 57.7986C63.7118 57.7203 65.7586 57.5798 66.2548 57.2078C66.3233 56.7932 65.8141 54.7854 65.5105 53.5842C64.8869 51.1227 64.2406 48.5762 65.0338 46.1996C65.8108 43.8655 67.7858 42.2364 69.6956 40.6662C70.5901 39.9251 72.242 38.5638 72.464 37.9271C72.2486 37.3101 70.6358 35.9749 69.7642 35.2534C67.9229 33.7321 65.8368 32.0051 65.0599 29.5991C64.2796 27.1833 64.9587 24.5356 65.5562 22.1982C65.8631 21.0164 66.369 19.0348 66.17 18.457C65.7814 18.2187 63.7019 18.0815 62.458 17.9967C59.9475 17.8302 57.3521 17.6572 55.3184 16.1913C53.2716 14.7157 52.2791 12.264 51.3193 9.89389C50.8558 8.75127 50.0821 6.83822 49.576 6.47591C49.2202 6.55754 47.5357 7.62501 46.5301 8.26167C44.4538 9.57402 42.1033 11.0627 39.4981 11.0627C36.8995 11.0627 34.5587 9.57078 32.4923 8.25843C31.4904 7.60526 29.7992 6.53131 29.1985 6.53131ZM72.4774 37.9694H72.5134H72.4774Z" fill="#00DBA6"/>
<path d="M35.1596 51.5341C34.2944 51.5341 33.4653 51.1946 32.8515 50.5776L24.135 41.8611C22.8586 40.5847 22.8586 38.5214 24.135 37.245C25.4114 35.9686 27.4748 35.9686 28.7512 37.245L34.9441 43.4347L49.4977 26.0311C50.6535 24.6535 52.7068 24.4608 54.0975 25.623C55.4818 26.7787 55.6612 28.8387 54.5089 30.2228L37.6636 50.3654C37.076 51.0673 36.2207 51.4917 35.3032 51.5309C35.2575 51.5341 35.2085 51.5341 35.1596 51.5341Z" fill="#00DBA6"/>
</svg>
