<svg width="101" height="26" viewBox="0 0 101 26" fill="none" xmlns="http://www.w3.org/2000/svg">
  <path d="M28.6353 14.5607C28.6353 14.7384 28.4857 14.888 28.2987 14.888H22.0984C22.2574 16.4217 23.4077 17.8245 25.0349 17.8245C26.1478 17.8245 26.9707 17.4037 27.5879 16.5152C27.6534 16.4217 27.7469 16.3562 27.8591 16.3562C28.0368 16.3562 28.1678 16.4872 28.1678 16.6649C28.1678 16.7303 28.1491 16.7771 28.121 16.8238C27.4944 17.9087 26.2506 18.4417 25.0349 18.4417C22.9494 18.4417 21.4531 16.5713 21.4531 14.5794C21.4531 12.5781 22.9401 10.7171 25.0349 10.7171C27.1203 10.7171 28.626 12.5687 28.6353 14.5607ZM27.9714 14.2708C27.8404 12.7371 26.6621 11.3343 25.0349 11.3343C23.4077 11.3343 22.2574 12.7371 22.0984 14.2708H27.9714ZM36.1636 10.8667C36.3413 10.8667 36.4722 11.0257 36.4722 11.1753C36.4722 11.353 36.3413 11.4839 36.1636 11.4839H34.499V18.0209C34.499 18.1799 34.368 18.3295 34.1903 18.3295C34.0127 18.3295 33.8817 18.1705 33.8817 18.0209V11.4839H32.2826C32.1049 11.4839 31.974 11.353 31.974 11.1753C31.974 11.0163 32.1049 10.8667 32.2826 10.8667H33.8817V8.48198C33.8817 8.323 34.0033 8.17337 34.1623 8.15467C34.3587 8.13597 34.5083 8.27624 34.5083 8.46328V10.8667H36.1636ZM46.3197 14.0276V17.9835C46.3197 18.1612 46.1607 18.2921 46.0111 18.2921C45.8334 18.2921 45.7025 18.1612 45.7025 17.9835V14.0276C45.7025 12.6903 44.945 11.3624 43.458 11.3624C41.5503 11.3624 40.7273 13.027 40.8395 14.7384C40.8395 14.7851 40.8582 14.9815 40.8582 15.0096V17.9741C40.8582 18.1331 40.7366 18.2827 40.5777 18.3014C40.3813 18.3201 40.2316 18.1799 40.2316 17.9928V4.98439C40.2316 4.82541 40.3626 4.67578 40.5403 4.67578C40.7179 4.67578 40.8489 4.83476 40.8489 4.98439V12.3349C41.3819 11.3811 42.3358 10.7358 43.4487 10.7358C45.2816 10.7358 46.3197 12.3349 46.3197 14.0276ZM57.4578 14.5607C57.4578 14.7384 57.3081 14.888 57.1211 14.888H50.9208C51.0798 16.4217 52.2301 17.8245 53.8573 17.8245C54.9702 17.8245 55.7931 17.4037 56.4103 16.5152C56.4758 16.4217 56.5693 16.3562 56.6815 16.3562C56.8592 16.3562 56.9902 16.4872 56.9902 16.6649C56.9902 16.7303 56.9715 16.7771 56.9434 16.8238C56.3168 17.9087 55.073 18.4417 53.8573 18.4417C51.7718 18.4417 50.2755 16.5713 50.2755 14.5794C50.2755 12.5781 51.7625 10.7171 53.8573 10.7171C55.9334 10.7171 57.4391 12.5687 57.4578 14.5607ZM56.7844 14.2708C56.6535 12.7371 55.4752 11.3343 53.8479 11.3343C52.2301 11.3343 51.0704 12.7371 50.9115 14.2708H56.7844ZM65.0702 11.1566C65.0702 11.353 64.9579 11.4652 64.7803 11.4933C62.9566 11.7645 62.1337 13.2514 62.1337 14.9815V17.9461C62.1337 18.105 62.0121 18.2547 61.8531 18.2734C61.6567 18.2921 61.5071 18.1518 61.5071 17.9648V11.2034C61.5071 11.0444 61.6287 10.8948 61.7877 10.8761C61.9841 10.8574 62.1337 10.9976 62.1337 11.1847V12.5594C62.648 11.6897 63.6674 10.8667 64.7335 10.8667C64.8925 10.8667 65.0702 10.9789 65.0702 11.1566ZM75.273 14.5607C75.273 14.7384 75.1234 14.888 74.9364 14.888H68.7361C68.8951 16.4217 70.0453 17.8245 71.6726 17.8245C72.7854 17.8245 73.6084 17.4037 74.2256 16.5152C74.2911 16.4217 74.3846 16.3562 74.4968 16.3562C74.6745 16.3562 74.8054 16.4872 74.8054 16.6649C74.8054 16.7303 74.7867 16.7771 74.7587 16.8238C74.1321 17.9087 72.8883 18.4417 71.6726 18.4417C69.5871 18.4417 68.0908 16.5713 68.0908 14.5794C68.0908 12.5781 69.5778 10.7171 71.6726 10.7171C73.758 10.7171 75.2637 12.5687 75.273 14.5607ZM74.6091 14.2708C74.4781 12.7371 73.2998 11.3343 71.6726 11.3343C70.0453 11.3343 68.8951 12.7371 68.7361 14.2708H74.6091ZM85.2982 11.2314V18.0209C85.2982 18.1986 85.1392 18.3295 84.9896 18.3295C84.8119 18.3295 84.681 18.1986 84.681 18.0209V16.7303C84.1666 17.7497 83.2595 18.4885 82.0999 18.4885C80.2576 18.4885 79.2382 16.8893 79.2382 15.1966V11.2221C79.2382 11.0631 79.3691 10.9135 79.5468 10.9135C79.7245 10.9135 79.8554 11.0724 79.8554 11.2221V15.1966C79.8554 16.5339 80.6129 17.8619 82.0999 17.8619C84.1853 17.8619 84.681 15.9074 84.681 13.7471V11.2127C84.681 11.0257 84.8774 10.8387 85.1018 10.9228C85.214 10.9789 85.2982 11.1005 85.2982 11.2314ZM101 13.9996V17.9741C101 18.1518 100.841 18.2827 100.691 18.2827C100.514 18.2827 100.383 18.1518 100.383 17.9741V13.9996C100.383 12.6623 99.6253 11.353 98.1383 11.353C96.2679 11.353 95.5572 13.3543 95.5572 14.9067V17.9741C95.5572 18.1518 95.3982 18.2827 95.2486 18.2827C95.0709 18.2827 94.94 18.1518 94.94 17.9741V13.9996C94.94 12.6623 94.1825 11.353 92.6955 11.353C90.8065 11.353 90.0303 12.8399 90.0957 14.8225C90.0957 14.8693 90.1144 14.9535 90.0957 14.9815V17.9648C90.0957 18.1237 89.9741 18.2734 89.8152 18.2921C89.6188 18.3108 89.4691 18.1705 89.4691 17.9835V11.2034C89.4691 11.0444 89.5907 10.8948 89.7497 10.8761C89.9461 10.8574 90.0957 10.9976 90.0957 11.1847V12.3162C90.6288 11.3624 91.5827 10.7358 92.6955 10.7358C93.958 10.7358 94.94 11.54 95.3421 12.709C95.8565 11.5494 96.8571 10.7358 98.1383 10.7358C99.9619 10.7358 101 12.3162 101 13.9996Z" fill="#3B3B3B"/>
  <path opacity="0.6" d="M7.76204 17.4787L15.5334 12.887L7.76204 9.36133L0 12.887L7.76204 17.4787Z" fill="black"/>
  <path opacity="0.45" d="M7.76204 9.3612V0L0 12.8869L7.76204 17.4786V9.3612Z" fill="black"/>
  <path opacity="0.8" d="M7.76172 17.4786L15.5331 12.8869L7.76172 0V9.3612V17.4786Z" fill="black"/>
  <path opacity="0.45" d="M7.76204 18.9467L0 14.3643L7.76204 25.3059V18.9467Z" fill="black"/>
  <path opacity="0.8" d="M15.5331 14.3643L7.76172 18.9467V25.3059L15.5331 14.3643Z" fill="black"/>
</svg>

