<svg width="95" height="25" viewBox="0 0 95 25" fill="none" xmlns="http://www.w3.org/2000/svg">
  <path d="M8.66253 0.236266C9.26199 -0.0787555 10.1741 -0.0787555 10.7736 0.236266L16.8906 3.45077C17.2516 3.6405 17.4499 3.92321 17.4854 4.21506H17.4912V20.3729C17.4833 20.6912 17.2832 21.0074 16.8906 21.2138L10.7736 24.4282C10.1741 24.7433 9.26199 24.7433 8.66253 24.4282L2.54557 21.2138C2.15463 21.0084 1.96703 20.6898 1.95774 20.3729C1.95682 20.3416 1.9567 20.3156 1.95759 20.2941L1.95755 4.31885C1.95693 4.30135 1.95688 4.28387 1.95738 4.26647L1.95774 4.21506L1.96048 4.21504C1.98765 3.92 2.17693 3.64451 2.54557 3.45077L8.66253 0.236266ZM16.5283 13.2294L10.7736 16.2535C10.1741 16.5686 9.26199 16.5686 8.66253 16.2535L2.92043 13.2362V20.3409L8.66253 23.3424C8.98677 23.5149 9.32331 23.6829 9.65237 23.7043L9.71807 23.7064C10.061 23.7076 10.3939 23.5343 10.7314 23.3704L16.5283 20.3151V13.2294ZM0.96282 20.0216C0.96282 20.6405 1.03514 21.0475 1.17872 21.3342C1.29772 21.5718 1.47628 21.7533 1.80232 21.9743L1.82093 21.9868C1.89248 22.0348 1.97131 22.0851 2.06725 22.1441L2.1804 22.2131L2.52784 22.4218L2.02952 23.2415L1.64064 23.0077L1.57527 22.9678C1.46283 22.8987 1.36964 22.8395 1.28271 22.7811C0.353492 22.1578 0.00694157 21.4783 0.000103482 20.0646L0 20.0216H0.96282ZM9.23652 8.89864C9.19199 8.91386 9.15025 8.93145 9.1122 8.95145L2.99523 12.166C2.98881 12.1693 2.98269 12.1727 2.97687 12.176L2.97168 12.179L2.98128 12.1844L2.99523 12.192L9.1122 15.4065C9.15025 15.4265 9.19199 15.4441 9.23652 15.4593V8.89864ZM10.1996 8.89864V15.4593C10.2442 15.4441 10.2859 15.4265 10.3239 15.4065L16.4409 12.192C16.4473 12.1886 16.4535 12.1853 16.4593 12.182L16.4645 12.179L16.4548 12.1735L16.4409 12.166L10.3239 8.95145C10.2859 8.93145 10.2442 8.91386 10.1996 8.89864ZM16.5283 5.36125L11.041 8.24487L16.5283 11.1285V5.36125ZM2.92043 5.36799V11.1218L8.39498 8.24487L2.92043 5.36799ZM10.3239 1.08334C10.0058 0.916176 9.43031 0.916176 9.1122 1.08334L2.99523 4.29786C2.98881 4.30124 2.98269 4.30457 2.97687 4.30786L2.97168 4.31085L2.98128 4.31632L2.99523 4.32386L9.1122 7.53837C9.43031 7.70553 10.0058 7.70553 10.3239 7.53837L16.4409 4.32386C16.4473 4.32049 16.4535 4.31715 16.4593 4.31384L16.4645 4.31085L16.4548 4.30538L16.4409 4.29786L10.3239 1.08334ZM17.4323 1.43585L17.8212 1.66952L17.8865 1.70945C17.999 1.77851 18.0922 1.83783 18.1791 1.89614C19.1083 2.51944 19.4549 3.199 19.4616 4.61266L19.4618 4.65573H18.499C18.499 4.03665 18.4267 3.62976 18.2831 3.3431C18.1641 3.10551 17.9855 2.92394 17.6595 2.703L17.6409 2.69045C17.5693 2.64245 17.4905 2.59218 17.3946 2.53308L17.2814 2.46414L16.934 2.25553L17.4323 1.43585Z" fill="#1969FF"/>
  <path d="M29.2457 19.6947V10.6838H31.7445V9.03391H29.2457V7.84938C29.2457 6.50975 29.8317 5.83994 31.0034 5.83994C31.3422 5.83994 31.7023 5.89634 32.0835 6.00914V4.25351C31.6175 4.1125 31.1023 4.04199 30.5375 4.04199C29.4505 4.04199 28.6069 4.35223 28.0069 4.97269C27.4068 5.59316 27.1068 6.49565 27.1068 7.68018V9.03391H25.0527V10.6838H27.1068V19.6947H29.2457ZM37.9282 19.8427C38.7471 19.8427 39.4635 19.6735 40.0776 19.3349C40.6918 18.9966 41.1542 18.5101 41.4648 17.8755V19.6947H43.5825V9.03391H41.4648V10.7684C41.14 10.1338 40.6742 9.6438 40.067 9.2983C39.4601 8.95283 38.7471 8.78008 37.9282 8.78008C37.0106 8.78008 36.1916 9.01275 35.4717 9.4781C34.7517 9.94345 34.1905 10.5992 33.7882 11.4452C33.3859 12.2913 33.1847 13.2644 33.1847 14.3643C33.1847 15.4642 33.3822 16.4266 33.7776 17.2515C34.1728 18.0765 34.727 18.7146 35.44 19.1658C36.1529 19.617 36.9823 19.8427 37.9282 19.8427ZM38.4365 18.1505C37.4622 18.1505 36.7034 17.8191 36.16 17.1563C35.6165 16.4936 35.3446 15.5629 35.3446 14.3643C35.3446 13.1515 35.6165 12.2032 36.16 11.5193C36.7034 10.8354 37.4553 10.4934 38.4153 10.4934C39.3894 10.4934 40.1412 10.8248 40.6706 11.4876C41.2001 12.1503 41.4648 13.0951 41.4648 14.322C41.4648 15.5347 41.2001 16.476 40.6706 17.1458C40.1412 17.8156 39.3965 18.1505 38.4365 18.1505ZM48.8343 19.6947V13.6239C48.8343 12.6791 49.106 11.9247 49.6496 11.3607C50.1932 10.7966 50.9167 10.5146 51.8203 10.5146C52.6109 10.5146 53.1861 10.7261 53.5462 11.1491C53.9061 11.5722 54.0861 12.249 54.0861 13.1797V19.6947H56.225V13.0528C56.225 10.2043 54.9473 8.78008 52.392 8.78008C51.5732 8.78008 50.8425 8.95988 50.2001 9.31946C49.5579 9.67904 49.0673 10.1973 48.7283 10.8742L48.5378 9.03391H46.5473C46.6602 9.92229 46.7166 10.9235 46.7166 12.0375V19.6947H48.8343ZM63.3827 19.8427C63.9756 19.8427 64.5051 19.7652 64.9711 19.6101V17.8755C64.5897 17.9883 64.2157 18.0447 63.8486 18.0447C63.2838 18.0447 62.8428 17.8931 62.525 17.59C62.2075 17.2868 62.0485 16.7686 62.0485 16.0353V10.6838H64.9922V9.03391H62.0485V5.6284L59.9098 6.36874V9.03391H57.8343V10.6838H59.9098V16.2045C59.9098 17.389 60.2133 18.2915 60.8203 18.912C61.4275 19.5324 62.2815 19.8427 63.3827 19.8427ZM71.557 19.8427C72.5876 19.8427 73.4982 19.617 74.2888 19.1658C75.0794 18.7146 75.6899 18.0729 76.1206 17.241C76.5512 16.409 76.7665 15.436 76.7665 14.322C76.7665 13.2079 76.5512 12.2314 76.1206 11.3924C75.6899 10.5533 75.0794 9.90821 74.2888 9.45694C73.4982 9.0057 72.5876 8.78008 71.557 8.78008C70.5123 8.78008 69.5947 9.0057 68.8041 9.45694C68.0135 9.90821 67.4028 10.5533 66.9721 11.3924C66.5417 12.2314 66.3263 13.2079 66.3263 14.322C66.3263 15.436 66.5417 16.409 66.9721 17.241C67.4028 18.0729 68.0135 18.7146 68.8041 19.1658C69.5947 19.617 70.5123 19.8427 71.557 19.8427ZM71.5359 18.1505C70.5616 18.1505 69.8099 17.8262 69.2804 17.1775C68.7511 16.5288 68.4863 15.577 68.4863 14.322C68.4863 13.0951 68.7545 12.1503 69.291 11.4876C69.8274 10.8248 70.5828 10.4934 71.557 10.4934C72.517 10.4934 73.2618 10.8248 73.7911 11.4876C74.3206 12.1503 74.5852 13.0951 74.5852 14.322C74.5852 15.577 74.3241 16.5288 73.8017 17.1775C73.2793 17.8262 72.524 18.1505 71.5359 18.1505ZM81.383 19.6947V13.6662C81.383 12.6932 81.6231 11.9247 82.103 11.3607C82.583 10.7966 83.2324 10.5146 84.0513 10.5146C84.7572 10.5146 85.269 10.7261 85.5865 11.1491C85.9043 11.5722 86.063 12.242 86.063 13.1586V19.6947H88.2019V13.6662C88.2019 12.6932 88.4383 11.9247 88.9114 11.3607C89.3843 10.7966 90.0302 10.5146 90.8491 10.5146C91.5549 10.5146 92.0667 10.7261 92.3843 11.1491C92.702 11.5722 92.8608 12.242 92.8608 13.1586V19.6947H94.9997V13.0528C94.9997 10.2043 93.8139 8.78008 91.442 8.78008C90.6514 8.78008 89.9419 8.9634 89.3137 9.33004C88.6854 9.69667 88.209 10.1973 87.8844 10.8318C87.376 9.464 86.296 8.78008 84.6443 8.78008C83.8677 8.78008 83.19 8.95635 82.6112 9.30888C82.0323 9.66143 81.5878 10.162 81.2772 10.8107L81.0866 9.03391H79.0959C79.2088 9.92229 79.2653 10.9235 79.2653 12.0375V19.6947H81.383Z" fill="#1969FF"/>
</svg>
