<svg width="74" height="23" viewBox="0 0 74 23" fill="none" xmlns="http://www.w3.org/2000/svg">
<g clip-path="url(#clip0)">
<path d="M27.4789 5.53536V11.8013H21.2537V6.34448C21.2537 5.89602 20.8899 5.53223 20.4415 5.53223H18.334V20.5323C18.334 20.9808 18.6978 21.3446 19.1462 21.3446H21.2537V14.3479H27.4821V20.5292C27.4758 20.9776 27.8333 21.3477 28.2818 21.354H28.2943H30.4018V6.34448C30.4018 5.89602 30.038 5.53223 29.5895 5.53223H27.4789V5.53536ZM39.8415 9.45552V16.9728C39.8478 17.6565 39.4903 18.2931 38.9007 18.6444C37.2511 19.5977 35.5419 18.4029 35.5419 16.8348V10.2678C35.5419 9.81931 35.1781 9.45552 34.7297 9.45552H32.6222V17.1045C32.6284 19.5695 34.623 21.5641 37.088 21.5766H38.286C40.7541 21.5704 42.755 19.5695 42.7613 17.1014V10.2678C42.7613 9.81931 42.3975 9.45552 41.949 9.45552H39.8415Z" fill="#1B2143"/>
<path d="M71.7263 21.3541H73.8338V10.7039C73.8338 10.2554 73.47 9.8916 73.0216 9.8916H70.9141V20.5356C70.9109 20.9841 71.2716 21.351 71.7201 21.3541H71.7263Z" fill="#2CA6E0"/>
<path d="M73.8785 7.76107C74.2225 6.93055 73.8282 5.9784 72.9976 5.63438C72.1671 5.29036 71.215 5.68475 70.8709 6.51526C70.5269 7.34578 70.9213 8.29793 71.7518 8.64194C72.5824 8.98596 73.5345 8.59158 73.8785 7.76107Z" fill="#2CA6E0"/>
<path d="M50.2937 9.44922C47.236 9.44922 44.7334 11.6351 44.7334 14.6928V16.3456C44.7334 19.4033 47.236 21.5766 50.2937 21.5766C53.3515 21.5766 55.8541 19.4033 55.8541 16.3456V14.6928C55.8572 11.6351 53.3546 9.44922 50.2937 9.44922ZM52.9218 16.5431C52.9218 17.9889 51.7395 18.9517 50.2906 18.9517C48.8417 18.9517 47.6625 17.9889 47.6625 16.5431V14.4796C47.6625 13.0338 48.8449 12.071 50.2906 12.071C51.7364 12.071 52.9218 13.0338 52.9218 14.4796V16.5431Z" fill="#1B2143"/>
<path d="M63.3867 9.44919C62.471 9.44292 61.5678 9.6499 60.743 10.0482V6.36011C60.743 5.91164 60.3792 5.54785 59.9307 5.54785H57.8232V16.3455C57.8232 19.4032 60.3259 21.5766 63.3836 21.5766C66.4413 21.5766 68.9439 19.4032 68.9439 16.3455V14.6928C68.9471 11.6351 66.4507 9.44919 63.3867 9.44919ZM66.0179 16.5431C66.0179 17.9889 64.8356 18.9516 63.3867 18.9516C61.941 18.9516 60.7587 17.9889 60.7587 16.5431V14.4795C60.7587 13.0338 61.941 12.071 63.3867 12.071C64.8325 12.071 66.0179 13.0338 66.0179 14.4795V16.5431Z" fill="#2CA6E0"/>
<path d="M9.51432 6.83022C9.51432 3.64392 7.96194 0.899813 6.77961 0.00915373C6.77961 0.00915373 6.68867 -0.0410243 6.69807 0.0875568C6.60085 6.24377 3.45532 7.91219 1.72731 10.1577C-2.26184 15.3448 1.44506 21.0306 5.22723 22.0812C7.33471 22.6708 4.738 21.04 4.40243 17.5997C3.9916 13.4474 9.51432 10.2737 9.51432 6.83022Z" fill="#1B2143"/>
<path d="M11.3217 8.92847C11.2966 8.91279 11.2621 8.90025 11.2401 8.94102C11.1743 9.71564 10.384 11.3715 9.38041 12.8957C5.97772 18.0577 7.91584 20.5478 9.00721 21.8869C9.64071 22.6616 9.00721 21.8869 10.5878 21.0935C12.5416 19.908 13.8086 17.857 13.9968 15.5802C14.3073 11.9109 12.1057 9.5996 11.3217 8.92847Z" fill="#2CA6E0"/>
</g>
<defs>
<clipPath id="clip0">
<rect width="74" height="22.2069" fill="white"/>
</clipPath>
</defs>
</svg>
