<svg width="171" height="77" viewBox="0 0 171 77" fill="none" xmlns="http://www.w3.org/2000/svg">
  <path fill-rule="evenodd" clip-rule="evenodd" d="M22.4623 64.7379V71.2268H20.8736V54.6689H22.4623V62.0081C22.7756 60.9639 23.3424 60.1658 24.1628 59.6139C24.9833 59.062 25.923 58.786 26.9821 58.786C28.3992 58.786 29.5516 59.2373 30.4391 60.1397C31.3267 61.0422 31.7705 62.3661 31.7705 64.1114V71.2268H30.2266V64.2233C30.2266 62.8956 29.8909 61.8776 29.2197 61.169C28.5484 60.4605 27.631 60.1062 26.4675 60.1062C25.2443 60.1062 24.271 60.4977 23.5475 61.2809C22.824 62.064 22.4623 63.2164 22.4623 64.7379ZM9.09331 70.4544C8.36983 71.0734 7.41142 71.3829 6.21806 71.3829C4.81587 71.3829 3.66727 71.0361 2.77225 70.3425C1.87723 69.6488 1.34768 68.6979 1.18359 67.4896H2.70512C2.79462 68.2951 3.14517 68.9515 3.75677 69.4586C4.36836 69.9658 5.19625 70.2194 6.24044 70.2194C7.01612 70.2194 7.62026 70.018 8.05285 69.6153C8.48544 69.2125 8.70174 68.6904 8.70174 68.049C8.70174 67.5269 8.55257 67.1092 8.25423 66.796C7.95589 66.4827 7.58669 66.2478 7.14664 66.0911C6.70659 65.9345 6.10619 65.7667 5.34542 65.5877C4.46532 65.3789 3.7605 65.17 3.23095 64.9612C2.70139 64.7523 2.25016 64.4279 1.87723 63.9879C1.50431 63.5478 1.31785 62.9474 1.31785 62.1866C1.31785 61.1872 1.68331 60.3817 2.41424 59.7701C3.14517 59.1585 4.13715 58.8527 5.39017 58.8527C6.71778 58.8527 7.78434 59.2032 8.58986 59.9043C9.39537 60.6054 9.88763 61.5527 10.0666 62.746H8.56748C8.47798 61.9554 8.15354 61.3028 7.59415 60.7882C7.03477 60.2735 6.28519 60.0162 5.34542 60.0162C4.53991 60.0162 3.90967 60.2139 3.4547 60.6092C2.99973 61.0045 2.77225 61.5303 2.77225 62.1866C2.77225 62.6789 2.91769 63.0742 3.20857 63.3725C3.49945 63.6709 3.86119 63.8984 4.29378 64.055C4.72637 64.2116 5.30813 64.372 6.03906 64.5361C6.93408 64.7449 7.65382 64.9575 8.19829 65.1738C8.74276 65.39 9.20891 65.7294 9.59675 66.1918C9.98459 66.6543 10.1785 67.2808 10.1785 68.0714C10.1785 69.041 9.81678 69.8353 9.09331 70.4544ZM48.4385 71.3829C49.6021 71.3829 50.6425 71.1293 51.5599 70.6222C52.4773 70.115 53.197 69.3915 53.7191 68.4518C54.2412 67.512 54.5023 66.4007 54.5023 65.1178C54.5023 63.835 54.2412 62.7199 53.7191 61.7727C53.197 60.8255 52.4773 60.102 51.5599 59.6023C50.6425 59.1026 49.6021 58.8527 48.4385 58.8527C47.275 58.8527 46.2308 59.1026 45.306 59.6023C44.3811 60.102 43.6539 60.8255 43.1244 61.7727C42.5948 62.7199 42.3301 63.835 42.3301 65.1178C42.3301 66.3858 42.5948 67.4933 43.1244 68.4406C43.6539 69.3878 44.3811 70.115 45.306 70.6222C46.2308 71.1293 47.275 71.3829 48.4385 71.3829ZM46.2028 69.46C46.889 69.818 47.6348 69.997 48.4404 69.997C49.231 69.997 49.9656 69.818 50.6443 69.46C51.3231 69.102 51.8713 68.5575 52.2889 67.8266C52.7066 67.0957 52.9154 66.1932 52.9154 65.1192C52.9154 64.0451 52.7066 63.1389 52.2889 62.4005C51.8713 61.6622 51.3231 61.114 50.6443 60.7559C49.9656 60.3979 49.231 60.2189 48.4404 60.2189C47.6348 60.2189 46.889 60.3979 46.2028 60.7559C45.5166 61.114 44.9647 61.6622 44.547 62.4005C44.1294 63.1389 43.9205 64.0451 43.9205 65.1192C43.9205 66.1932 44.1294 67.0957 44.547 67.8266C44.9647 68.5575 45.5166 69.102 46.2028 69.46ZM66.7215 76.9992V67.87C67.0497 68.9291 67.6463 69.7794 68.5115 70.4208C69.3767 71.0622 70.4358 71.3829 71.6888 71.3829C72.7927 71.3829 73.7772 71.1293 74.6424 70.6222C75.5076 70.115 76.1826 69.3878 76.6674 68.4406C77.1522 67.4933 77.3946 66.3858 77.3946 65.1178C77.3946 63.835 77.1522 62.7199 76.6674 61.7727C76.1826 60.8255 75.5113 60.102 74.6536 59.6023C73.7958 59.1026 72.8076 58.8527 71.6888 58.8527C70.4358 58.8527 69.3767 59.1734 68.5115 59.8148C67.6463 60.4563 67.0497 61.3065 66.7215 62.3656V59.0093H65.1552V76.9992H66.7215ZM68.9238 69.3922C69.6175 69.7949 70.3969 69.9963 71.2621 69.9963C72.6493 69.9963 73.7532 69.56 74.5736 68.6873C75.3941 67.8147 75.8043 66.6251 75.8043 65.1185C75.8043 63.6118 75.3941 62.4222 74.5736 61.5496C73.7532 60.6769 72.6493 60.2406 71.2621 60.2406C70.3969 60.2406 69.6175 60.442 68.9238 60.8447C68.2302 61.2475 67.6894 61.8181 67.3016 62.5565C66.9138 63.2949 66.7198 64.1489 66.7198 65.1185C66.7198 66.0881 66.9138 66.942 67.3016 67.6804C67.6894 68.4188 68.2302 68.9894 68.9238 69.3922Z" fill="#2400FF"/>
  <path d="M15.8222 45.8939C23.6316 45.8939 28.8094 41.7966 31.3555 33.6021C31.4625 33.2597 31.516 32.9281 31.516 32.6072C31.516 31.9439 31.2699 31.3234 30.7778 30.7457C30.0718 30.1039 29.3871 29.7829 28.7238 29.7829C27.9108 29.7829 27.1298 30.2857 26.381 31.2913L25.4182 32.9602C24.7763 34.1584 24.0061 35.2816 23.1074 36.33L22.9791 36.4263C22.3158 37.218 21.5937 37.8973 20.8127 38.4643C20.0318 39.0312 19.1171 39.3147 18.0687 39.3147C16.785 39.3147 15.3194 39.1329 13.6719 38.7691C11.4253 38.2556 9.91694 37.3249 9.14669 35.977C7.99132 33.7304 7.38154 31.7513 7.31735 30.0397C7.27456 28.7773 7.19968 27.515 7.0927 26.2526C6.94293 24.3484 6.86804 22.2516 6.86804 19.9623C6.86804 18.1222 7.0927 16.1431 7.54201 14.0249C7.99132 11.9067 8.87925 10.27 10.2058 9.1146C11.5323 7.95923 13.1691 7.0927 15.1161 6.51501C15.4798 6.40803 15.8329 6.35455 16.1752 6.35455C16.4106 6.35455 16.6566 6.38664 16.9134 6.45083C20.2939 7.17828 22.6367 8.79366 23.9419 11.297L24.1023 11.6179C24.2093 11.8961 24.3537 12.1528 24.5356 12.3882C24.7175 12.6235 24.9047 12.8696 25.0972 13.1263C25.5038 13.7468 25.9745 14.3138 26.5094 14.8273C27.2368 15.5333 28.1568 15.8864 29.2694 15.8864C29.9113 15.8864 30.4408 15.7152 30.8581 15.3729C31.2753 15.0305 31.4839 14.4849 31.4839 13.7361L31.4518 13.1905C31.2378 11.0295 30.5104 9.03971 29.2694 7.22107C27.4936 4.80335 25.2898 2.87773 22.6581 1.44421C21.1176 0.481405 19.4915 0 17.7799 0C15.5333 0 13.3082 0.235354 11.1044 0.706061C7.6169 1.5405 4.87824 3.79775 2.88843 7.47782C2.37493 8.46203 1.56189 10.1951 0.449311 12.677C0.320937 13.0407 0.256749 13.4365 0.256749 13.8645V14.0249L0.160468 17.0738C0.0534894 19.5343 0 21.9949 0 24.4554C0 26.1884 0.106979 27.8145 0.320937 29.3336C0.470707 30.596 0.566988 31.8476 0.60978 33.0886C0.695363 35.6775 1.56189 38.1273 3.20937 40.438C3.44472 40.7376 3.64798 41.0585 3.81915 41.4008C5.10289 43.4976 6.94293 44.7279 9.33925 45.0916C11.8426 45.6265 14.0035 45.8939 15.8222 45.8939Z" fill="url(#paint0_radial)"/>
  <mask id="mask0" style="mask-type:alpha" maskUnits="userSpaceOnUse" x="0" y="0" width="32" height="46">
    <path d="M15.8222 45.8939C23.6316 45.8939 28.8094 41.7966 31.3555 33.6021C31.4625 33.2597 31.516 32.9281 31.516 32.6072C31.516 31.9439 31.2699 31.3234 30.7778 30.7457C30.0718 30.1039 29.3871 29.7829 28.7238 29.7829C27.9108 29.7829 27.1298 30.2857 26.381 31.2913L25.4182 32.9602C24.7763 34.1584 24.0061 35.2816 23.1074 36.33L22.9791 36.4263C22.3158 37.218 21.5937 37.8973 20.8127 38.4643C20.0318 39.0312 19.1171 39.3147 18.0687 39.3147C16.785 39.3147 15.3194 39.1329 13.6719 38.7691C11.4253 38.2556 9.91694 37.3249 9.14669 35.977C7.99132 33.7304 7.38154 31.7513 7.31735 30.0397C7.27456 28.7773 7.19968 27.515 7.0927 26.2526C6.94293 24.3484 6.86804 22.2516 6.86804 19.9623C6.86804 18.1222 7.0927 16.1431 7.54201 14.0249C7.99132 11.9067 8.87925 10.27 10.2058 9.1146C11.5323 7.95923 13.1691 7.0927 15.1161 6.51501C15.4798 6.40803 15.8329 6.35455 16.1752 6.35455C16.4106 6.35455 16.6566 6.38664 16.9134 6.45083C20.2939 7.17828 22.6367 8.79366 23.9419 11.297L24.1023 11.6179C24.2093 11.8961 24.3537 12.1528 24.5356 12.3882C24.7175 12.6235 24.9047 12.8696 25.0972 13.1263C25.5038 13.7468 25.9745 14.3138 26.5094 14.8273C27.2368 15.5333 28.1568 15.8864 29.2694 15.8864C29.9113 15.8864 30.4408 15.7152 30.8581 15.3729C31.2753 15.0305 31.4839 14.4849 31.4839 13.7361L31.4518 13.1905C31.2378 11.0295 30.5104 9.03971 29.2694 7.22107C27.4936 4.80335 25.2898 2.87773 22.6581 1.44421C21.1176 0.481405 19.4915 0 17.7799 0C15.5333 0 13.3082 0.235354 11.1044 0.706061C7.6169 1.5405 4.87824 3.79775 2.88843 7.47782C2.37493 8.46203 1.56189 10.1951 0.449311 12.677C0.320937 13.0407 0.256749 13.4365 0.256749 13.8645V14.0249L0.160468 17.0738C0.0534894 19.5343 0 21.9949 0 24.4554C0 26.1884 0.106979 27.8145 0.320937 29.3336C0.470707 30.596 0.566988 31.8476 0.60978 33.0886C0.695363 35.6775 1.56189 38.1273 3.20937 40.438C3.44472 40.7376 3.64798 41.0585 3.81915 41.4008C5.10289 43.4976 6.94293 44.7279 9.33925 45.0916C11.8426 45.6265 14.0035 45.8939 15.8222 45.8939Z" fill="white"/>
  </mask>
  <g mask="url(#mask0)">
    <path d="M-6.03711 22.1538C-6.03711 23.6222 -5.93222 25.0906 -5.61757 26.4541C-4.98826 29.9153 -3.72964 33.1667 -1.84172 35.9986C-0.0586748 38.6207 1.56896 41.0148 4.0862 42.9027C6.91809 44.8955 10.6396 46.0675 14.1008 46.8017C15.674 47.1164 17.3522 47.3262 19.1352 47.3262C20.6036 47.3262 22.072 47.2213 23.4355 46.9066C26.8967 46.2773 30.1482 45.0187 32.98 43.1308C35.6022 41.3477 37.8047 39.1451 39.6927 36.6279C41.6855 33.796 43.049 30.6495 43.7832 27.1883C44.0978 25.615 44.3076 23.9368 44.3076 22.1538C44.3076 20.6854 44.2027 19.217 43.8881 17.8535C43.2588 14.3923 42.0001 11.1409 40.1122 8.30901C38.3292 5.68689 36.1266 3.4843 33.6093 1.59638C30.7775 -0.396434 27.6309 -1.75994 24.1697 -2.49413C22.5964 -2.80879 20.9183 -3.01855 19.1352 -3.01855C17.6669 -3.01855 16.1985 -2.91367 14.835 -2.59902C11.3738 -1.96971 8.12234 -0.711089 5.29045 1.17684C2.66833 2.95988 0.465749 5.16246 -1.42218 7.6797C-3.41499 10.5116 -4.77849 13.6581 -5.51269 17.1193C-5.93222 18.7975 -6.03711 20.4756 -6.03711 22.1538Z" fill="#2400FF"/>
    <path d="M16.8055 20.0196C17.5247 20.7388 18.3467 21.458 19.2714 22.0744C14.7506 15.3961 15.3671 6.25182 21.3263 0.395395C22.251 -0.529303 23.2784 -1.35126 24.3059 -1.96772C22.7647 -2.27596 21.1208 -2.48145 19.3741 -2.48145C17.9357 -2.48145 16.4973 -2.3787 15.1616 -2.07047C10.1272 4.50517 10.7436 13.9576 16.8055 20.0196Z" fill="#FF6CAD"/>
    <path d="M18.9648 18.8891C18.9648 20.0193 19.0676 21.0468 19.2731 22.0742C20.7115 14.1629 27.6981 8.20372 36.0204 8.20372C37.3561 8.20372 38.589 8.30647 39.8219 8.6147C38.0753 6.04609 35.9177 3.88846 33.4518 2.03906C25.2322 3.27199 18.9648 10.3614 18.9648 18.8891Z" fill="white"/>
    <path d="M19.375 22.0756C26.0534 17.5549 35.1976 18.1713 41.054 24.1305C41.9787 25.0552 42.8007 26.0826 43.4172 27.1101C43.7254 25.5689 43.9309 23.925 43.9309 22.1784C43.9309 20.7399 43.8281 19.3015 43.5199 17.9658C36.8415 13.0341 27.3891 13.6506 21.3271 19.7125C20.6079 20.329 19.9915 21.1509 19.375 22.0756Z" fill="#FFA4FC"/>
    <path d="M33.2455 38.9247C33.2455 40.2604 33.1427 41.4933 32.8345 42.7262C35.4031 40.9796 37.5607 38.822 39.4101 36.3561C38.1772 28.1365 31.0879 21.8691 22.5601 21.8691C21.4299 21.8691 20.4024 21.9719 19.375 22.1774C27.2863 23.6158 33.2455 30.4997 33.2455 38.9247Z" fill="#FFF0AB"/>
    <path d="M14.3418 46.2191C15.883 46.5274 17.5269 46.7329 19.2735 46.7329C20.7119 46.7329 22.1504 46.6301 23.486 46.3219C28.4178 39.6435 27.8013 30.191 21.7394 24.1291C21.0202 23.4099 20.1982 22.6907 19.2735 22.0742C23.7943 28.7526 23.1778 37.8968 17.2186 43.7533C16.3967 44.7807 15.472 45.6027 14.3418 46.2191Z" fill="#8CFF0E"/>
    <path d="M-1.27539 35.7388C0.471263 38.3074 2.62889 40.465 5.09476 42.3144C13.3143 41.0815 19.5817 33.9921 19.5817 25.4644C19.5817 24.3342 19.479 23.3067 19.2735 22.2793C17.8351 30.1906 10.8484 36.1498 2.52615 36.1498C1.19047 36.1498 -0.0424589 35.9443 -1.27539 35.7388Z" fill="#FFAAAB"/>
    <path d="M-5.2832 22.0745C-5.2832 23.5129 -5.18046 24.9514 -4.87223 26.287C1.80615 31.2188 11.2586 30.6023 17.3205 24.5404C18.0398 23.8212 18.759 22.9992 19.3754 22.0745C12.6971 26.5953 3.55281 25.9788 -2.30362 20.0196C-3.22832 19.0949 -4.05027 18.0675 -4.66674 17.04C-5.18046 18.7867 -5.2832 20.4306 -5.2832 22.0745Z" fill="#2EB4FF"/>
    <path d="M-0.865234 7.99905C0.367697 16.2186 7.45706 22.486 15.9848 22.486C17.115 22.486 18.1425 22.3833 19.1699 22.1778C11.2586 20.7393 5.29942 13.7527 5.29942 5.43045C5.29942 4.09477 5.40217 2.86184 5.7104 1.62891C3.14179 3.27282 0.881419 5.43045 -0.865234 7.99905Z" fill="#A8FFAA"/>
    <path d="M13.0586 22.2529C13.0586 25.9439 16.0114 28.749 19.5547 28.749C23.2456 28.749 26.0508 25.7963 26.0508 22.2529C26.0508 18.7096 23.098 15.7568 19.5547 15.7568C16.0114 15.7568 13.0586 18.7096 13.0586 22.2529Z" fill="white"/>
    <path d="M15.5195 22.2808C15.5195 24.48 17.3804 26.3408 19.5796 26.3408C21.7788 26.3408 23.6396 24.48 23.6396 22.2808C23.6396 20.0816 21.7788 18.2207 19.5796 18.2207C17.3804 18.2207 15.5195 20.0816 15.5195 22.2808Z" fill="#505050"/>
  </g>
  <path fill-rule="evenodd" clip-rule="evenodd" d="M58.1639 44.737C56.1955 45.4431 54.302 45.7961 52.4833 45.7961C50.7931 45.7961 49.167 45.4966 47.6051 44.8975C44.3744 43.6565 41.6785 41.5598 39.5175 38.6071C38.9826 37.8583 38.5868 37.0667 38.33 36.2322C37.5384 33.6433 37.1426 31.4182 37.1426 29.5567C37.1426 28.4014 37.271 26.9144 37.5277 25.0957C37.7845 23.5766 38.6403 21.897 40.0952 20.057C41.4645 18.3881 43.0478 16.9546 44.8451 15.7565C46.0218 14.9434 47.7549 14.3978 50.0442 14.1197L50.4294 14.0234C52.4192 13.7025 54.4411 13.542 56.4951 13.542C58.1211 13.542 59.7151 13.8415 61.277 14.4406C63.0315 15.1039 63.9622 16.3448 64.0692 18.1635C64.1333 19.0193 64.1654 19.9179 64.1654 20.8593C64.1654 21.6082 64.144 22.3784 64.1013 23.1701C64.0799 24.3255 64.0692 25.5878 64.0692 26.9571V28.1446L64.005 30.8726C64.005 32.1991 64.112 33.6005 64.3259 35.0768C64.6255 36.5959 65.0534 38.0616 65.6097 39.4737C66.0376 40.5863 66.2515 41.4528 66.2515 42.0733C66.2515 43.4426 65.4492 44.4375 63.8445 45.058C63.4808 45.1863 63.1277 45.2505 62.7854 45.2505C62.2719 45.2505 61.7905 45.1115 61.3412 44.8333C60.7849 44.5552 60.2286 44.4161 59.6723 44.4161C59.1588 44.4161 58.656 44.5231 58.1639 44.737ZM51.3606 38.6061C52.2593 38.7773 53.1793 38.8629 54.1207 38.8629C56.2389 38.8629 57.5333 38.5954 58.004 38.0605C58.2608 37.7824 58.3892 37.2689 58.3892 36.52V22.8481C58.3892 21.9923 58.2501 21.4039 57.9719 21.083C57.4798 20.5267 56.1533 20.2485 53.9923 20.2485C52.5374 20.2485 51.1146 20.4197 49.7239 20.762C47.7127 21.1472 46.4075 21.9816 45.8084 23.2654C44.974 25.1054 44.5568 26.7101 44.5568 28.0794C44.5568 28.6571 44.621 29.2455 44.7493 29.8446C45.3484 32.2409 46.3754 34.4446 47.8303 36.4558C48.6006 37.654 49.7774 38.3708 51.3606 38.6061Z" fill="url(#paint1_radial)"/>
  <mask id="mask1" style="mask-type:alpha" maskUnits="userSpaceOnUse" x="37" y="13" width="30" height="33">
    <path fill-rule="evenodd" clip-rule="evenodd" d="M58.1639 44.737C56.1955 45.4431 54.302 45.7961 52.4833 45.7961C50.7931 45.7961 49.167 45.4966 47.6051 44.8975C44.3744 43.6565 41.6785 41.5598 39.5175 38.6071C38.9826 37.8583 38.5868 37.0667 38.33 36.2322C37.5384 33.6433 37.1426 31.4182 37.1426 29.5567C37.1426 28.4014 37.271 26.9144 37.5277 25.0957C37.7845 23.5766 38.6403 21.897 40.0952 20.057C41.4645 18.3881 43.0478 16.9546 44.8451 15.7565C46.0218 14.9434 47.7549 14.3978 50.0442 14.1197L50.4294 14.0234C52.4192 13.7025 54.4411 13.542 56.4951 13.542C58.1211 13.542 59.7151 13.8415 61.277 14.4406C63.0315 15.1039 63.9622 16.3448 64.0692 18.1635C64.1333 19.0193 64.1654 19.9179 64.1654 20.8593C64.1654 21.6082 64.144 22.3784 64.1013 23.1701C64.0799 24.3255 64.0692 25.5878 64.0692 26.9571V28.1446L64.005 30.8726C64.005 32.1991 64.112 33.6005 64.3259 35.0768C64.6255 36.5959 65.0534 38.0616 65.6097 39.4737C66.0376 40.5863 66.2515 41.4528 66.2515 42.0733C66.2515 43.4426 65.4492 44.4375 63.8445 45.058C63.4808 45.1863 63.1277 45.2505 62.7854 45.2505C62.2719 45.2505 61.7905 45.1115 61.3412 44.8333C60.7849 44.5552 60.2286 44.4161 59.6723 44.4161C59.1588 44.4161 58.656 44.5231 58.1639 44.737ZM51.3606 38.6061C52.2593 38.7773 53.1793 38.8629 54.1207 38.8629C56.2389 38.8629 57.5333 38.5954 58.004 38.0605C58.2608 37.7824 58.3892 37.2689 58.3892 36.52V22.8481C58.3892 21.9923 58.2501 21.4039 57.9719 21.083C57.4798 20.5267 56.1533 20.2485 53.9923 20.2485C52.5374 20.2485 51.1146 20.4197 49.7239 20.762C47.7127 21.1472 46.4075 21.9816 45.8084 23.2654C44.974 25.1054 44.5568 26.7101 44.5568 28.0794C44.5568 28.6571 44.621 29.2455 44.7493 29.8446C45.3484 32.2409 46.3754 34.4446 47.8303 36.4558C48.6006 37.654 49.7774 38.3708 51.3606 38.6061Z" fill="white"/>
  </mask>
  <g mask="url(#mask1)">
    <path d="M29.3672 29.272C29.3672 30.7404 29.4721 32.2087 29.7867 33.5722C30.416 37.0334 31.6747 40.2849 33.5626 43.1168C35.3456 45.7389 37.5482 47.9415 40.0654 49.8294C42.8973 51.8222 46.0439 53.1857 49.5051 53.9199C51.0783 54.2345 52.7565 54.4443 54.5395 54.4443C56.0079 54.4443 57.4763 54.3394 58.8398 54.0248C62.301 53.3955 65.5524 52.1369 68.3843 50.2489C71.0065 48.4659 73.209 46.2633 75.097 43.7461C77.0898 40.9142 78.4533 37.7676 79.1875 34.3064C79.5021 32.7332 79.7119 31.055 79.7119 29.272C79.7119 27.8036 79.607 26.3352 79.2924 24.9717C78.663 21.5105 77.4044 18.2591 75.5165 15.4272C73.7335 12.805 71.5309 10.6025 69.0136 8.71454C66.1818 6.72173 63.0352 5.35823 59.574 4.62403C58.0007 4.30938 56.3226 4.09961 54.5395 4.09961C53.0712 4.09961 51.6028 4.20449 50.2393 4.51915C46.7781 5.14846 43.5266 6.40707 40.6947 8.295C38.0726 10.078 35.87 12.2806 33.9821 14.7979C31.9893 17.6298 30.6258 20.7763 29.8916 24.2375C29.4721 25.9157 29.3672 27.5938 29.3672 29.272Z" fill="#2400FF"/>
    <path d="M51.7665 27.0108C52.4857 27.73 53.3076 28.4492 54.2323 29.0657C49.7116 22.3873 50.3281 13.243 56.2872 7.38661C57.2119 6.46191 58.2394 5.63995 59.2668 5.02349C57.7256 4.71525 56.0817 4.50977 54.3351 4.50977C52.8967 4.50977 51.4582 4.61251 50.1226 4.92074C45.0881 11.4964 45.7046 20.9489 51.7665 27.0108Z" fill="#FF6CAD"/>
    <path d="M53.9258 25.8803C53.9258 27.0105 54.0285 28.038 54.234 29.0654C55.6724 21.1541 62.659 15.1949 70.9813 15.1949C72.317 15.1949 73.5499 15.2977 74.7829 15.6059C73.0362 13.0373 70.8786 10.8797 68.4127 9.03027C60.1932 10.2632 53.9258 17.3526 53.9258 25.8803Z" fill="white"/>
    <path d="M54.3359 29.0668C61.0143 24.5461 70.1586 25.1625 76.015 31.1217C76.9397 32.0464 77.7616 33.0739 78.3781 34.1013C78.6863 32.5601 78.8918 30.9162 78.8918 29.1696C78.8918 27.7311 78.7891 26.2927 78.4808 24.9571C71.8025 20.0253 62.35 20.6418 56.2881 26.7037C55.5689 27.3202 54.9524 28.1421 54.3359 29.0668Z" fill="#FF6CAD"/>
    <path d="M68.2064 45.9159C68.2064 47.2516 68.1037 48.4845 67.7954 49.7174C70.3641 47.9708 72.5217 45.8132 74.3711 43.3473C73.1381 35.1278 66.0488 28.8604 57.521 28.8604C56.3908 28.8604 55.3634 28.9631 54.3359 29.1686C62.2473 30.607 68.2064 37.4909 68.2064 45.9159Z" fill="#52F1D5"/>
    <path d="M49.3008 53.2103C50.8419 53.5186 52.4859 53.7241 54.2325 53.7241C55.6709 53.7241 57.1093 53.6213 58.445 53.3131C63.3768 46.6347 62.7603 37.1822 56.6984 31.1203C55.9792 30.4011 55.1572 29.6819 54.2325 29.0654C58.7533 35.7438 58.1368 44.8881 52.1776 50.7445C51.3557 51.7719 50.431 52.5939 49.3008 53.2103Z" fill="#8CFF0E"/>
    <path d="M33.6855 42.73C35.4322 45.2986 37.5898 47.4563 40.0557 49.3056C48.2752 48.0727 54.5426 40.9834 54.5426 32.4556C54.5426 31.3254 54.4399 30.298 54.2344 29.2705C52.796 37.1818 45.8094 43.141 37.4871 43.141C36.1514 43.141 34.9185 42.9355 33.6855 42.73Z" fill="#FFAAAB"/>
    <path d="M29.6777 29.0657C29.6777 30.5041 29.7805 31.9426 30.0887 33.2782C36.7671 38.21 46.2196 37.5935 52.2815 31.5316C53.0007 30.8124 53.7199 29.9904 54.3364 29.0657C47.658 33.5865 38.5137 32.97 32.6573 27.0108C31.7326 26.0861 30.9107 25.0587 30.2942 24.0312C29.7805 25.7779 29.6777 27.4218 29.6777 29.0657Z" fill="#2EB4FF"/>
    <path d="M34.0957 14.9903C35.3286 23.2098 42.418 29.4772 50.9458 29.4772C52.076 29.4772 53.1034 29.3745 54.1308 29.169C46.2195 27.7306 40.2604 20.7439 40.2604 12.4217C40.2604 11.086 40.3631 9.85305 40.6713 8.62012C38.1027 10.264 35.8424 12.4217 34.0957 14.9903Z" fill="#A8FFAA"/>
  </g>
  <path d="M77.464 46.1506C78.1486 46.1506 78.7691 45.9366 79.3254 45.5087C80.0742 44.9096 80.4487 44.118 80.4487 43.1338V42.7486C80.2775 41.1868 80.1919 39.7104 80.1919 38.3197V36.8113C80.1919 36.1267 80.1705 35.5062 80.1277 34.9499L80.1286 33.2302C80.1316 30.5112 80.142 28.5276 80.1598 27.2795V26.9265C80.1598 26.3488 80.2989 25.8139 80.577 25.3218C82.7166 22.091 85.0488 20.4756 87.5735 20.4756C88.2153 20.4756 88.9107 20.5612 89.6595 20.7324C92.2912 21.2887 93.7461 22.7008 94.0243 24.9688L94.4736 28.5632C95.0299 32.5215 95.308 35.5704 95.308 37.7099C95.308 38.5444 95.2759 39.3788 95.2118 40.2132V40.7909C95.2118 41.7537 95.3829 42.6845 95.7252 43.5831C96.2815 44.9524 97.223 45.6371 98.5495 45.6371C100.026 45.6371 100.903 44.8561 101.181 43.2942C101.695 40.8551 101.951 38.4588 101.951 36.1053C101.951 34.8857 101.871 33.5324 101.711 32.0454C101.55 30.5584 101.235 28.3172 100.764 25.3218C100.058 20.6789 97.683 17.3198 93.6392 15.2444C91.521 14.0248 89.4563 13.415 87.4451 13.415C85.7976 13.415 84.1287 13.982 82.4385 15.116C82.2031 15.2658 81.9464 15.3941 81.6682 15.5011C81.1975 15.7365 80.7696 15.8542 80.3845 15.8542C79.8282 15.8542 79.2826 15.6616 78.7477 15.2765C77.7849 14.5918 76.8863 14.2495 76.0518 14.2495C75.6453 14.2495 75.0676 14.4099 74.3188 14.7309C73.5699 15.0518 73.0564 16.0788 72.7783 17.8119C72.4573 19.7589 72.2969 21.7059 72.2969 23.6529C72.2969 24.5729 72.3397 25.5037 72.4252 26.4451C72.6178 28.6488 72.7141 30.8526 72.7141 33.0564V34.2759C72.7141 36.8648 72.789 38.983 72.9387 40.6305L73.035 42.1068C73.142 43.198 73.495 44.0377 74.0941 44.6261C74.6932 45.2145 75.4421 45.6585 76.3407 45.958C76.7258 46.0864 77.1002 46.1506 77.464 46.1506Z" fill="url(#paint2_radial)"/>
  <mask id="mask2" style="mask-type:alpha" maskUnits="userSpaceOnUse" x="72" y="13" width="30" height="34">
    <path d="M77.464 46.1506C78.1486 46.1506 78.7691 45.9366 79.3254 45.5087C80.0742 44.9096 80.4487 44.118 80.4487 43.1338V42.7486C80.2775 41.1868 80.1919 39.7104 80.1919 38.3197V36.8113C80.1919 36.1267 80.1705 35.5062 80.1277 34.9499L80.1286 33.2302C80.1316 30.5112 80.142 28.5276 80.1598 27.2795V26.9265C80.1598 26.3488 80.2989 25.8139 80.577 25.3218C82.7166 22.091 85.0488 20.4756 87.5735 20.4756C88.2153 20.4756 88.9107 20.5612 89.6595 20.7324C92.2912 21.2887 93.7461 22.7008 94.0243 24.9688L94.4736 28.5632C95.0299 32.5215 95.308 35.5704 95.308 37.7099C95.308 38.5444 95.2759 39.3788 95.2118 40.2132V40.7909C95.2118 41.7537 95.3829 42.6845 95.7252 43.5831C96.2815 44.9524 97.223 45.6371 98.5495 45.6371C100.026 45.6371 100.903 44.8561 101.181 43.2942C101.695 40.8551 101.951 38.4588 101.951 36.1053C101.951 34.8857 101.871 33.5324 101.711 32.0454C101.55 30.5584 101.235 28.3172 100.764 25.3218C100.058 20.6789 97.683 17.3198 93.6392 15.2444C91.521 14.0248 89.4563 13.415 87.4451 13.415C85.7976 13.415 84.1287 13.982 82.4385 15.116C82.2031 15.2658 81.9464 15.3941 81.6682 15.5011C81.1975 15.7365 80.7696 15.8542 80.3845 15.8542C79.8282 15.8542 79.2826 15.6616 78.7477 15.2765C77.7849 14.5918 76.8863 14.2495 76.0518 14.2495C75.6453 14.2495 75.0676 14.4099 74.3188 14.7309C73.5699 15.0518 73.0564 16.0788 72.7783 17.8119C72.4573 19.7589 72.2969 21.7059 72.2969 23.6529C72.2969 24.5729 72.3397 25.5037 72.4252 26.4451C72.6178 28.6488 72.7141 30.8526 72.7141 33.0564V34.2759C72.7141 36.8648 72.789 38.983 72.9387 40.6305L73.035 42.1068C73.142 43.198 73.495 44.0377 74.0941 44.6261C74.6932 45.2145 75.4421 45.6585 76.3407 45.958C76.7258 46.0864 77.1002 46.1506 77.464 46.1506Z" fill="white"/>
  </mask>
  <g mask="url(#mask2)">
    <path d="M61.9023 29.7026C61.9023 31.171 62.0072 32.6394 62.3219 34.0029C62.9512 37.4641 64.2098 40.7155 66.0977 43.5474C67.8808 46.1695 70.0834 48.3721 72.6006 50.2601C75.4325 52.2529 78.579 53.6164 82.0402 54.3506C83.6135 54.6652 85.2917 54.875 87.0747 54.875C88.5431 54.875 90.0115 54.7701 91.375 54.4554C94.8362 53.8261 98.0876 52.5675 100.919 50.6796C103.542 48.8965 105.744 46.694 107.632 44.1767C109.625 41.3448 110.988 38.1983 111.723 34.7371C112.037 33.1638 112.247 31.4857 112.247 29.7026C112.247 28.2342 112.142 26.7659 111.828 25.4023C111.198 21.9412 109.94 18.6897 108.052 15.8578C106.269 13.2357 104.066 11.0331 101.549 9.14521C98.7169 7.15239 95.5704 5.78889 92.1092 5.0547C90.5359 4.74004 88.8577 4.53027 87.0747 4.53027C85.6063 4.53027 84.1379 4.63516 82.7744 4.94981C79.3132 5.57912 76.0618 6.83774 73.2299 8.72567C70.6078 10.5087 68.4052 12.7113 66.5173 15.2285C64.5245 18.0604 63.161 21.207 62.4268 24.6682C62.0072 26.3463 61.9023 28.0245 61.9023 29.7026Z" fill="#2400FF"/>
    <path d="M83.9286 27.0117C84.6478 27.731 85.4697 28.4502 86.3944 29.0666C81.8737 22.3883 82.4902 13.244 88.4493 7.38758C89.374 6.46288 90.4015 5.64093 91.4289 5.02446C89.8878 4.71623 88.2438 4.51074 86.4972 4.51074C85.0588 4.51074 83.6203 4.61349 82.2847 4.92172C77.2502 11.4974 77.8667 20.9498 83.9286 27.0117Z" fill="#FF6CAD"/>
    <path d="M86.0879 25.8813C86.0879 27.0115 86.1906 28.0389 86.3961 29.0664C87.8345 21.1551 94.8212 15.1959 103.143 15.1959C104.479 15.1959 105.712 15.2987 106.945 15.6069C105.198 13.0383 103.041 10.8806 100.575 9.03125C92.3553 10.2642 86.0879 17.3535 86.0879 25.8813Z" fill="white"/>
    <path d="M86.498 29.0678C93.1764 24.547 102.321 25.1635 108.177 31.1227C109.102 32.0474 109.924 33.0748 110.54 34.1023C110.848 32.5611 111.054 30.9172 111.054 29.1705C111.054 27.7321 110.951 26.2937 110.643 24.958C103.965 20.0263 94.5121 20.6428 88.4502 26.7047C87.731 27.3211 87.1145 28.1431 86.498 29.0678Z" fill="#FFA4FC"/>
    <path d="M100.369 45.9169C100.369 47.2526 100.266 48.4855 99.9576 49.7184C102.526 47.9718 104.684 45.8141 106.533 43.3483C105.3 35.1287 98.2109 28.8613 89.6831 28.8613C88.5529 28.8613 87.5255 28.9641 86.498 29.1696C94.4094 30.608 100.369 37.4918 100.369 45.9169Z" fill="#52F1D5"/>
    <path d="M81.4648 53.2113C83.006 53.5196 84.6499 53.725 86.3966 53.725C87.835 53.725 89.2734 53.6223 90.6091 53.3141C95.5408 46.6357 94.9243 37.1832 88.8624 31.1213C88.1432 30.4021 87.3213 29.6829 86.3966 29.0664C90.9173 35.7448 90.3009 44.889 84.3417 50.7455C83.5197 51.7729 82.595 52.5949 81.4648 53.2113Z" fill="#DCFFB5"/>
    <path d="M65.8496 42.731C67.5963 45.2996 69.7539 47.4572 72.2198 49.3066C80.4393 48.0737 86.7067 40.9843 86.7067 32.4566C86.7067 31.3264 86.604 30.2989 86.3985 29.2715C84.9601 37.1828 77.9734 43.142 69.6511 43.142C68.3155 43.142 67.0825 42.9365 65.8496 42.731Z" fill="#FFAAAB"/>
    <path d="M61.8398 29.0667C61.8398 30.5051 61.9426 31.9435 62.2508 33.2792C68.9292 38.2109 78.3817 37.5945 84.4436 31.5326C85.1628 30.8134 85.882 29.9914 86.4985 29.0667C79.8201 33.5874 70.6759 32.971 64.8194 27.0118C63.8947 26.0871 63.0728 25.0597 62.4563 24.0322C61.9426 25.7789 61.8398 27.4228 61.8398 29.0667Z" fill="#2EB4FF"/>
    <path d="M66.2578 14.9912C67.4907 23.2108 74.5801 29.4782 83.1079 29.4782C84.2381 29.4782 85.2655 29.3754 86.293 29.17C78.3816 27.7315 72.4225 20.7449 72.4225 12.4226C72.4225 11.087 72.5252 9.85403 72.8334 8.62109C70.2648 10.265 68.0045 12.4226 66.2578 14.9912Z" fill="#A8FFAA"/>
  </g>
  <path fill-rule="evenodd" clip-rule="evenodd" d="M129.338 45.3167C127.434 45.7018 125.53 45.8943 123.626 45.8943C122.556 45.8943 121.475 45.8301 120.384 45.7018C116.875 45.3167 113.837 43.8938 111.27 41.4333C109.879 40.0426 108.895 37.9672 108.317 35.2071L108.285 35.0788C107.6 32.3615 107.258 30.2219 107.258 28.66C107.258 25.9214 108.071 23.386 109.697 21.0538C113.313 16.2184 117.26 13.4476 121.539 12.7416L125.294 12.0997C126.022 11.9713 126.749 11.8483 127.477 11.7306C128.204 11.613 128.654 11.4525 128.825 11.2492C128.996 11.046 129.087 10.5539 129.098 9.77292C129.108 8.99197 129.114 8.20568 129.114 7.41403C129.114 6.32285 129.135 5.25306 129.178 4.20467V4.10839C129.178 2.88883 129.627 1.82974 130.526 0.931115C131.232 0.374825 131.959 0.0966797 132.708 0.0966797C133.05 0.0966797 133.393 0.150169 133.735 0.257148C134.869 0.642272 135.65 1.48741 136.078 2.79255C136.313 3.88373 136.431 5.0498 136.431 6.29076L136.399 8.56941C136.399 9.23268 136.356 9.92269 136.27 10.6394C136.185 11.3562 136.142 12.0783 136.142 12.8058L136.174 13.5118C136.345 15.9509 136.506 18.3473 136.656 20.7008C136.698 21.4497 136.752 22.1985 136.816 22.9474C136.966 24.4879 137.041 26.0284 137.041 27.5689C137.041 28.4675 137.009 29.3821 136.944 30.3129C136.88 31.2436 136.848 32.1903 136.848 33.1532C136.848 34.5867 136.934 36.0202 137.105 37.4537C137.233 38.2239 137.297 38.9942 137.297 39.7644C137.297 40.4705 137.244 41.1766 137.137 41.8826C136.581 44.3859 135.286 45.6376 133.254 45.6376C132.655 45.6376 132.013 45.5413 131.328 45.3487C130.964 45.2418 130.611 45.1883 130.269 45.1883C129.948 45.1883 129.638 45.2311 129.338 45.3167ZM122.376 37.6154C123.168 37.8722 123.938 38.0005 124.687 38.0005C125.842 38.0005 127.286 37.6796 129.019 37.0377C129.405 36.888 129.725 36.674 129.982 36.3959C130.239 36.1177 130.367 35.8503 130.367 35.5935V35.4651C130.325 35.1656 130.303 34.8661 130.303 34.5665C130.303 34.2242 130.335 33.8765 130.399 33.5235C130.464 33.1704 130.496 32.8014 130.496 32.4162V31.9348C130.025 28.1692 129.576 24.4035 129.148 20.6379C129.126 19.9746 128.773 19.5574 128.089 19.3862C126.848 19.1081 125.617 18.969 124.398 18.969C122.151 18.969 120.108 19.5253 118.268 20.6379C116.193 21.9216 115.155 24.2965 115.155 27.7627L115.187 28.2762C115.101 28.8966 115.059 29.4101 115.059 29.8167C115.059 33.5823 117.102 36.0428 121.189 37.1982C121.595 37.3266 121.991 37.4656 122.376 37.6154Z" fill="url(#paint3_radial)"/>
  <mask id="mask3" style="mask-type:alpha" maskUnits="userSpaceOnUse" x="107" y="0" width="31" height="46">
    <path fill-rule="evenodd" clip-rule="evenodd" d="M129.338 45.3166C127.434 45.7018 125.53 45.8943 123.626 45.8943C122.556 45.8943 121.475 45.8301 120.384 45.7018C116.875 45.3166 113.837 43.8938 111.27 41.4333C109.879 40.0426 108.895 37.9672 108.317 35.2071L108.285 35.0788C107.6 32.3615 107.258 30.2219 107.258 28.66C107.258 25.9214 108.071 23.386 109.697 21.0538C113.313 16.2184 117.26 13.4476 121.539 12.7416L125.294 12.0997C126.022 11.9713 126.749 11.8483 127.477 11.7306C128.204 11.613 128.654 11.4525 128.825 11.2492C128.996 11.046 129.087 10.5539 129.098 9.77292C129.108 8.99197 129.114 8.20568 129.114 7.41403C129.114 6.32285 129.135 5.25306 129.178 4.20467V4.10839C129.178 2.88883 129.627 1.82974 130.526 0.931115C131.232 0.374825 131.959 0.0966797 132.708 0.0966797C133.05 0.0966797 133.393 0.150169 133.735 0.257148C134.869 0.642272 135.65 1.4874 136.078 2.79255C136.313 3.88373 136.431 5.0498 136.431 6.29076L136.399 8.56941C136.399 9.23268 136.356 9.92269 136.27 10.6394C136.185 11.3562 136.142 12.0783 136.142 12.8058L136.174 13.5118C136.345 15.9509 136.506 18.3473 136.656 20.7008C136.698 21.4497 136.752 22.1985 136.816 22.9474C136.966 24.4879 137.041 26.0284 137.041 27.5689C137.041 28.4675 137.009 29.3821 136.944 30.3129C136.88 31.2436 136.848 32.1903 136.848 33.1532C136.848 34.5867 136.934 36.0202 137.105 37.4537C137.233 38.2239 137.297 38.9942 137.297 39.7644C137.297 40.4705 137.244 41.1766 137.137 41.8826C136.581 44.3859 135.286 45.6376 133.254 45.6376C132.655 45.6376 132.013 45.5413 131.328 45.3487C130.964 45.2418 130.611 45.1883 130.269 45.1883C129.948 45.1883 129.638 45.2311 129.338 45.3166ZM122.376 37.6154C123.168 37.8722 123.938 38.0005 124.687 38.0005C125.842 38.0005 127.286 37.6796 129.019 37.0377C129.405 36.888 129.725 36.674 129.982 36.3959C130.239 36.1177 130.367 35.8503 130.367 35.5935V35.4651C130.325 35.1656 130.303 34.8661 130.303 34.5665C130.303 34.2242 130.335 33.8765 130.399 33.5235C130.464 33.1704 130.496 32.8014 130.496 32.4162V31.9348C130.025 28.1692 129.576 24.4035 129.148 20.6379C129.126 19.9746 128.773 19.5574 128.089 19.3862C126.848 19.1081 125.617 18.969 124.398 18.969C122.151 18.969 120.108 19.5253 118.268 20.6379C116.193 21.9216 115.155 24.2965 115.155 27.7627L115.187 28.2762C115.101 28.8966 115.059 29.4101 115.059 29.8167C115.059 33.5823 117.102 36.0428 121.189 37.1982C121.595 37.3266 121.991 37.4656 122.376 37.6154Z" fill="white"/>
  </mask>
  <g mask="url(#mask3)">
    <path d="M99.6523 20.6419C99.6523 19.1735 99.7572 17.7051 100.072 16.3416C100.701 12.8804 101.96 9.62895 103.848 6.79706C105.631 4.17494 107.833 1.97236 110.351 0.0844307C113.182 -1.90838 116.329 -3.27187 119.79 -4.00606C121.364 -4.32071 123.042 -4.53049 124.825 -4.53049C126.293 -4.53049 127.761 -4.42561 129.125 -4.11095C132.586 -3.48164 135.838 -2.22303 138.669 -0.335106C141.292 1.44794 143.494 3.65052 145.382 6.16775C147.375 8.99964 148.738 12.1462 149.473 15.6074C149.787 17.1807 149.997 18.8588 149.997 20.6419C149.997 22.1102 149.892 23.5786 149.578 24.9421C148.948 28.4033 147.69 31.6548 145.802 34.4867C144.019 37.1088 142.178 41.1407 139.66 43.0286C136.829 45.0215 133.682 46.385 130.221 47.1192C128.648 47.4338 126.969 47.6436 125.186 47.6436C123.718 47.6436 122.25 47.5387 120.886 47.224C117.425 46.5947 114.173 45.3361 111.342 43.4482C108.719 41.6651 106.155 37.6332 104.267 35.116C102.274 32.2841 100.911 29.1375 100.177 25.6763C99.7572 23.9982 99.6523 22.32 99.6523 20.6419Z" fill="#2400FF"/>
    <path d="M121.69 23.1416C122.41 22.4224 123.231 21.7032 124.156 21.0867C119.635 27.7651 120.252 36.9093 126.211 42.7657C127.136 43.6904 128.163 44.5124 129.191 45.1289C127.649 45.4371 126.006 45.6426 124.259 45.6426C122.82 45.6426 121.382 45.5398 120.046 45.2316C115.012 38.656 115.628 29.2035 121.69 23.1416Z" fill="#FF6CAD"/>
    <path d="M123.85 24.272C123.85 23.1418 123.952 22.1144 124.158 21.0869C125.596 28.9982 132.583 34.9574 140.905 34.9574C142.241 34.9574 143.474 34.8547 144.707 34.5464C142.96 37.115 140.802 39.2727 138.337 41.1221C130.117 39.8891 123.85 32.7998 123.85 24.272Z" fill="white"/>
    <path d="M124.26 21.0855C130.938 25.6063 140.082 24.9898 145.939 19.0306C146.864 18.1059 147.685 17.0785 148.302 16.0511C148.61 17.5922 148.816 19.2361 148.816 20.9828C148.816 22.4212 148.713 23.8596 148.405 25.1953C141.726 30.127 132.274 29.5106 126.212 23.4486C125.493 22.8322 124.876 22.0102 124.26 21.0855Z" fill="#FF6CAD"/>
    <path d="M138.13 4.23644C138.13 2.90076 138.028 1.66783 137.719 0.434898C140.288 2.18155 142.446 4.33918 144.295 6.80504C143.062 15.0246 135.973 21.292 127.445 21.292C126.315 21.292 125.287 21.1892 124.26 20.9838C132.171 19.5453 138.13 12.6615 138.13 4.23644Z" fill="#52F1D5"/>
    <path d="M119.227 -3.058C120.768 -3.36623 122.412 -3.57172 124.158 -3.57172C125.597 -3.57172 127.035 -3.46898 128.371 -3.16075C133.303 3.51764 132.686 12.9701 126.624 19.032C125.905 19.7512 125.083 20.4704 124.158 21.0869C128.679 14.4085 128.063 5.26429 122.103 -0.592136C121.281 -1.61958 120.357 -2.44153 119.227 -3.058Z" fill="#8CFF0E"/>
    <path d="M103.609 7.42233C105.356 4.85372 107.514 2.69609 109.98 0.846695C118.199 2.07963 124.466 9.16898 124.466 17.6968C124.466 18.8269 124.364 19.8544 124.158 20.8818C122.72 12.9705 115.733 7.01135 107.411 7.01135C106.075 7.01135 104.842 7.21684 103.609 7.42233Z" fill="#FFAAAB"/>
    <path d="M99.6016 21.0866C99.6016 19.6482 99.7043 18.2098 100.013 16.8741C106.691 11.9424 116.143 12.5588 122.205 18.6208C122.925 19.34 123.644 20.1619 124.26 21.0866C117.582 16.5659 108.438 17.1823 102.581 23.1415C101.656 24.0662 100.834 25.0937 100.218 26.1211C99.7043 24.3744 99.6016 22.7305 99.6016 21.0866Z" fill="#2EB4FF"/>
    <path d="M104.02 35.1621C105.252 26.9425 112.342 20.6751 120.87 20.6751C122 20.6751 123.027 20.7779 124.055 20.9834C116.143 22.4218 110.184 29.4084 110.184 37.7307C110.184 39.0664 110.287 40.2993 110.595 41.5322C108.027 39.8883 105.766 37.7307 104.02 35.1621Z" fill="#A8FFAA"/>
  </g>
  <path d="M149.534 59.5335C150.176 59.4694 150.647 59.4373 150.946 59.4373L151.845 59.4694C153.428 59.4694 154.701 58.6349 155.664 56.966C157.697 53.6925 159.087 50.6008 159.836 47.691C160.628 44.6314 161.73 41.6788 163.142 38.8331C164.255 36.6294 165.11 34.3721 165.709 32.0614C166.266 29.5153 167.122 27.0762 168.277 24.744C168.598 24.0807 168.908 23.4228 169.208 22.7703C169.507 22.1177 169.807 21.4812 170.106 20.8607C170.513 20.0476 170.716 19.2346 170.716 18.4216C170.716 17.6085 170.513 16.7955 170.106 15.9824C169.4 14.3992 168.352 13.6075 166.961 13.6075C165.592 13.6075 164.543 14.2922 163.816 15.6615C161.548 19.9193 159.997 23.61 159.162 26.7338C158.991 27.5469 158.66 28.285 158.167 28.9483C157.611 29.6116 157.076 29.9432 156.563 29.9432C156.006 29.9432 155.493 29.5046 155.022 28.6273C154.552 27.7501 154.199 26.798 153.963 25.771C153.043 22.0481 151.567 18.5499 149.534 15.2764C148.892 13.9712 148.037 13.2652 146.967 13.1582C145.833 13.1582 144.865 13.5647 144.062 14.3778C143.26 15.1908 142.848 16.175 142.827 17.3304C142.869 18.9992 143.212 20.5825 143.854 22.0802C145.18 25.0756 146.325 28.1459 147.288 31.2911C148.914 36.3405 150.529 40.5983 152.134 44.0644C152.455 44.7491 152.615 45.3909 152.615 45.99C152.615 47.1026 152.107 48.1242 151.091 49.055C150.074 49.9857 148.229 50.9966 145.555 52.0878L143.854 52.826C143.126 53.1897 142.591 53.6818 142.249 54.3023C141.928 54.8158 141.768 55.34 141.768 55.8749C141.875 57.6293 142.795 58.6777 144.528 59.02C146.154 59.3624 147.823 59.5335 149.534 59.5335Z" fill="url(#paint4_radial)"/>
  <mask id="mask4" style="mask-type:alpha" maskUnits="userSpaceOnUse" x="141" y="13" width="30" height="47">
    <path d="M149.534 59.5335C150.176 59.4694 150.647 59.4373 150.946 59.4373L151.845 59.4694C153.428 59.4694 154.701 58.6349 155.664 56.966C157.697 53.6925 159.087 50.6008 159.836 47.691C160.628 44.6314 161.73 41.6788 163.142 38.8331C164.255 36.6294 165.11 34.3721 165.709 32.0614C166.266 29.5153 167.122 27.0762 168.277 24.744C168.598 24.0807 168.908 23.4228 169.208 22.7703C169.507 22.1177 169.807 21.4812 170.106 20.8607C170.513 20.0476 170.716 19.2346 170.716 18.4216C170.716 17.6085 170.513 16.7955 170.106 15.9824C169.4 14.3992 168.352 13.6075 166.961 13.6075C165.592 13.6075 164.543 14.2922 163.816 15.6615C161.548 19.9193 159.997 23.61 159.162 26.7338C158.991 27.5469 158.66 28.285 158.167 28.9483C157.611 29.6116 157.076 29.9432 156.563 29.9432C156.006 29.9432 155.493 29.5046 155.022 28.6273C154.552 27.7501 154.199 26.798 153.963 25.771C153.043 22.0481 151.567 18.5499 149.534 15.2764C148.892 13.9712 148.037 13.2652 146.967 13.1582C145.833 13.1582 144.865 13.5647 144.062 14.3778C143.26 15.1908 142.848 16.175 142.827 17.3304C142.869 18.9992 143.212 20.5825 143.854 22.0802C145.18 25.0756 146.325 28.1459 147.288 31.2911C148.914 36.3405 150.529 40.5983 152.134 44.0644C152.455 44.7491 152.615 45.3909 152.615 45.99C152.615 47.1026 152.107 48.1242 151.091 49.055C150.074 49.9857 148.229 50.9966 145.555 52.0878L143.854 52.826C143.126 53.1897 142.591 53.6818 142.249 54.3023C141.928 54.8158 141.768 55.34 141.768 55.8749C141.875 57.6293 142.795 58.6777 144.528 59.02C146.154 59.3624 147.823 59.5335 149.534 59.5335Z" fill="white"/>
  </mask>
  <g mask="url(#mask4)">
    <path d="M174.545 29.1432C174.545 31.0195 174.411 32.8957 174.009 34.638C173.205 39.0606 171.596 43.2152 169.184 46.8338C166.906 50.1842 164.091 52.9987 160.875 55.411C157.256 57.9574 153.236 59.6996 148.813 60.6378C146.803 61.0398 144.659 61.3079 142.38 61.3079C140.504 61.3079 138.628 61.1739 136.885 60.7718C132.463 59.9677 128.308 58.3594 124.69 55.9471C121.339 53.6688 118.525 50.8543 116.112 47.6379C113.566 44.0194 111.824 39.9988 110.886 35.5761C110.484 33.5658 110.216 31.4215 110.216 29.1432C110.216 27.2669 110.35 25.3906 110.752 23.6484C111.556 19.2257 113.164 15.0711 115.576 11.4526C117.855 8.10213 120.669 5.28772 123.886 2.87537C127.504 0.329003 131.525 -1.41325 135.947 -2.35139C137.958 -2.75345 140.102 -3.02148 142.38 -3.02148C144.257 -3.02148 146.133 -2.88746 147.875 -2.48541C152.298 -1.68129 156.452 -0.0730557 160.071 2.33929C163.421 4.61763 166.236 7.43204 168.648 10.6485C171.194 14.267 172.937 18.2876 173.875 22.7103C174.411 24.8546 174.545 26.9989 174.545 29.1432Z" fill="#2400FF"/>
    <path d="M146.189 26.3821C145.27 27.3011 144.22 28.2201 143.038 29.0078C148.815 20.4743 148.027 8.79003 140.412 1.30682C139.231 0.125263 137.918 -0.925012 136.605 -1.71272C138.574 -2.10657 140.675 -2.36914 142.907 -2.36914C144.745 -2.36914 146.583 -2.23786 148.289 -1.844C154.722 6.5582 153.935 18.6364 146.189 26.3821Z" fill="#FF6CAD"/>
    <path d="M143.43 24.9379C143.43 26.382 143.298 27.6948 143.036 29.0077C141.198 18.8988 132.271 11.2843 121.636 11.2843C119.93 11.2843 118.354 11.4156 116.779 11.8094C119.011 8.52732 121.768 5.77035 124.919 3.40723C135.421 4.98264 143.43 14.0413 143.43 24.9379Z" fill="white"/>
    <path d="M142.906 29.007C134.373 23.2305 122.688 24.0182 115.205 31.6327C114.024 32.8143 112.973 34.1271 112.186 35.44C111.792 33.4707 111.529 31.3702 111.529 29.1383C111.529 27.3003 111.661 25.4624 112.054 23.7557C120.588 17.454 132.666 18.2417 140.412 25.9875C141.331 26.7752 142.119 27.8255 142.906 29.007Z" fill="#FFA4FC"/>
    <path d="M125.183 50.5393C125.183 52.246 125.314 53.8214 125.708 55.3968C122.426 53.165 119.669 50.408 117.306 47.2572C118.881 36.7544 127.94 28.7461 138.836 28.7461C140.281 28.7461 141.593 28.8774 142.906 29.1399C132.797 30.9779 125.183 39.774 125.183 50.5393Z" fill="#FFF0AB"/>
    <path d="M149.336 59.8587C147.367 60.2525 145.266 60.5151 143.034 60.5151C141.196 60.5151 139.358 60.3838 137.652 59.99C131.35 51.4565 132.138 39.3783 139.883 31.6325C140.802 30.7135 141.853 29.7945 143.034 29.0068C137.258 37.5403 138.045 49.2246 145.66 56.7078C146.71 58.0207 147.892 59.071 149.336 59.8587Z" fill="#8CFF0E"/>
    <path d="M169.293 46.4688C167.061 49.7509 164.304 52.5078 161.153 54.871C150.651 53.2956 142.642 44.2369 142.642 33.3403C142.642 31.8962 142.774 30.5834 143.036 29.2705C144.874 39.3794 153.801 46.9939 164.435 46.9939C166.142 46.9939 167.718 46.7313 169.293 46.4688Z" fill="#FFAAAB"/>
    <path d="M174.414 29.0081C174.414 30.8461 174.283 32.6841 173.889 34.3908C165.355 40.6924 153.277 39.9047 145.531 32.159C144.613 31.24 143.694 30.1897 142.906 29.0081C151.439 34.7846 163.124 33.9969 170.607 26.3824C171.788 25.2009 172.839 23.888 173.626 22.5752C174.283 24.807 174.414 26.9076 174.414 29.0081Z" fill="#2EB4FF"/>
    <path d="M168.768 11.0205C167.192 21.5232 158.134 29.5316 147.237 29.5316C145.793 29.5316 144.48 29.4003 143.167 29.1377C153.276 27.2998 160.891 18.3724 160.891 7.73838C160.891 6.03169 160.759 4.45627 160.365 2.88086C163.647 4.98141 166.536 7.73838 168.768 11.0205Z" fill="#A8FFAA"/>
  </g>
  <defs>
    <radialGradient id="paint0_radial" cx="0" cy="0" r="1" gradientUnits="userSpaceOnUse" gradientTransform="translate(15.758 23.3034) rotate(90) scale(22.5906 14.5852)">
      <stop stop-color="#505870"/>
      <stop offset="1" stop-color="#05021B"/>
    </radialGradient>
    <radialGradient id="paint1_radial" cx="0" cy="0" r="1" gradientUnits="userSpaceOnUse" gradientTransform="translate(51.6971 29.6691) rotate(90) scale(16.1271 13.6838)">
      <stop offset="0.0155318" stop-color="#505870"/>
      <stop offset="1" stop-color="#05021B"/>
    </radialGradient>
    <radialGradient id="paint2_radial" cx="0" cy="0" r="1" gradientUnits="userSpaceOnUse" gradientTransform="translate(87.1241 29.7828) rotate(90) scale(16.3678 13.9403)">
      <stop offset="0.0155318" stop-color="#505870"/>
      <stop offset="1" stop-color="#05021B"/>
    </radialGradient>
    <radialGradient id="paint3_radial" cx="0" cy="0" r="1" gradientUnits="userSpaceOnUse" gradientTransform="translate(122.278 22.9955) rotate(90) scale(22.8988 14.1213)">
      <stop offset="0.0155318" stop-color="#505870"/>
      <stop offset="1" stop-color="#05021B"/>
    </radialGradient>
    <radialGradient id="paint4_radial" cx="0" cy="0" r="1" gradientUnits="userSpaceOnUse" gradientTransform="translate(156.242 36.3459) rotate(90) scale(23.1877 13.6084)">
      <stop offset="0.0155318" stop-color="#505870"/>
      <stop offset="1" stop-color="#05021B"/>
    </radialGradient>
  </defs>
</svg>
