<svg width="184" height="108" viewBox="0 0 184 108" fill="none" xmlns="http://www.w3.org/2000/svg">
  <path d="M30.133 11.6445C33.5316 11.6445 36.5003 12.6251 39.0394 14.5863C41.5785 16.5475 42.848 19.0856 42.848 22.2004C42.848 23.854 42.3793 25.2192 41.4418 26.296C40.5043 27.3727 39.3519 27.9111 37.9848 27.9111C36.6175 27.9111 35.5238 27.738 34.7034 27.3919C34.8207 26.7766 34.8792 26.1229 34.8792 25.4306C34.8401 23.008 34.2347 21.0467 33.0628 19.547C31.8909 18.0089 30.1721 17.2397 27.9065 17.2397C25.6798 17.2397 23.6096 17.9511 21.6955 19.374C20.5627 20.9891 19.6838 23.1041 19.0587 25.7191C18.4337 28.334 18.1212 30.9106 18.1212 33.4486C18.1212 37.6787 18.9415 41.2358 20.5822 44.1199C22.2618 46.9656 24.8596 48.3884 28.3752 48.3884C31.6175 48.3884 33.805 47.1771 34.9378 44.7544C35.9925 42.6394 36.5198 39.8321 36.5198 36.3327C38.5121 36.3327 40.1722 36.698 41.5004 37.4287C42.8286 38.1209 43.4926 39.2746 43.4926 40.8897C43.4926 44.6583 41.8129 47.7924 38.4535 50.292C35.094 52.7531 31.3049 53.9836 27.0861 53.9836C21.5783 53.9836 17.3986 52.1955 14.5469 48.6192C11.6953 45.0044 10.2695 40.1206 10.2695 33.9677C10.2695 27.8149 12.0469 22.5657 15.6017 18.2203C19.1954 13.8364 24.0392 11.6445 30.133 11.6445Z" fill="#7908F4"/>
  <path fill-rule="evenodd" clip-rule="evenodd" d="M34.0019 20.145L34.0406 20.0957C34.2262 20.4924 34.3847 20.9117 34.5158 21.3535C34.8111 22.348 34.9684 23.4567 34.9878 24.6795C34.9878 25.3098 34.9413 25.909 34.8485 26.4774C34.8364 26.5518 34.8234 26.6256 34.8096 26.699C35.3192 26.9174 35.9327 27.0688 36.6503 27.1533C36.9525 27.1889 37.2731 27.2127 37.6122 27.2246C37.7817 27.2305 37.9558 27.2334 38.1347 27.2334C38.8865 27.2334 39.5743 27.0702 40.1979 26.7436C40.7233 26.4685 41.2032 26.0774 41.6376 25.5704C41.8761 25.2922 42.0846 24.9952 42.2632 24.6795C42.285 24.6409 42.3064 24.6022 42.3273 24.563C42.8175 23.6464 43.0626 22.5765 43.0626 21.3535C43.0626 18.2997 41.8963 15.7842 39.5637 13.8074C39.5383 13.7858 39.5128 13.7643 39.4871 13.743C39.3943 13.6656 39.2997 13.5891 39.2033 13.5135C36.6305 11.4942 33.6222 10.4844 30.1785 10.4844C29.4066 10.4844 28.6546 10.5197 27.9223 10.5902C24.2819 10.9408 21.1307 12.163 18.4685 14.2567C18.0263 14.6044 17.5976 14.9763 17.1825 15.3722C16.5776 15.9488 16.0014 16.5766 15.4538 17.2553C13.9571 19.1145 12.7714 21.1343 11.8966 23.3147C10.7255 26.2337 10.1117 29.4405 10.0551 32.9353C10.0522 33.1127 10.0508 33.2909 10.0508 33.4698C10.0508 39.3313 11.2875 44.0742 13.7609 47.6987C13.7841 47.7326 13.8073 47.7664 13.8307 47.8002C14.0092 48.0578 14.194 48.3097 14.3851 48.5559C17.2746 52.2382 21.51 54.0795 27.0911 54.0795C27.5311 54.0795 27.9665 54.066 28.3973 54.0392C32.1517 53.8052 35.5559 52.5516 38.6096 50.2783C39.6805 49.4687 40.5829 48.5943 41.3169 47.6553C41.3537 47.6083 41.3901 47.5611 41.426 47.5137C42.9524 45.5012 43.7157 43.1956 43.7157 40.5971C43.7157 38.9341 43.0428 37.7462 41.6971 37.0334C41.3074 36.8157 40.8895 36.6294 40.4435 36.4746C39.7433 36.2317 38.9737 36.0665 38.1347 35.979C37.6619 35.9296 37.1671 35.905 36.6503 35.905C36.6503 36.1449 36.6479 36.3816 36.6431 36.6152C36.6138 38.064 36.4932 39.3913 36.2816 40.5971C36.0784 41.7548 35.7911 42.8005 35.4198 43.7342C35.3038 44.0258 35.1796 44.3066 35.0471 44.5765C34.9609 44.7638 34.8687 44.9443 34.7703 45.1176C34.7617 45.1327 34.7532 45.1477 34.7445 45.1628C33.5301 47.2664 31.4144 48.3183 28.3973 48.3183C27.947 48.3183 27.5116 48.2949 27.0911 48.2481C24.1843 47.9245 21.9875 46.4829 20.5005 43.9231C20.4852 43.8957 20.4699 43.8682 20.4547 43.8407C20.4482 43.8288 20.4417 43.817 20.4352 43.8052C18.8839 40.9797 18.0758 37.5345 18.0111 33.4698C18.0083 33.2928 18.0069 33.1146 18.0069 32.9353C18.0069 30.322 18.3235 27.669 18.9568 24.9765C19.2968 23.5314 19.7108 22.2346 20.199 21.086C20.1998 21.084 20.2007 21.082 20.2015 21.08C20.6222 20.091 21.098 19.2121 21.6287 18.4432C23.5683 16.9781 25.6661 16.2456 27.9223 16.2456C28.7456 16.2456 29.4978 16.3475 30.1785 16.5512C31.3961 16.9155 32.3856 17.6056 33.1472 18.6213C33.4913 19.0688 33.7872 19.5562 34.0349 20.0834C34.0368 20.0875 34.0387 20.0916 34.0406 20.0957L34.0019 20.145ZM49.3152 31.0604C50.1055 31.8498 50.8162 32.7642 51.4092 33.8109C52.7064 36.1009 53.1388 38.4896 53.1388 40.597C53.1388 47.7573 49.78 53.6491 44.2908 57.7992L44.2628 57.8204L44.2348 57.8413C39.1914 61.5958 33.3755 63.5071 27.0897 63.5071C19.2376 63.5071 11.9985 60.7848 6.97036 54.3769L6.95525 54.3577L6.94027 54.3383C2.3872 48.4735 0.625 41.1822 0.625 33.4697C0.625 25.2185 3.02094 17.6664 8.11225 11.3421L8.11532 11.3383L8.11838 11.3344C13.6784 4.44244 21.3659 1.05664 30.1771 1.05664C35.6101 1.05664 40.695 2.702 45.0196 6.0963C49.8162 9.86107 52.4857 15.1839 52.4857 21.3533C52.4857 24.6679 51.5817 28.1041 49.3152 31.0604Z" fill="url(#paint0_linear_7422:14879)"/>
  <path fill-rule="evenodd" clip-rule="evenodd" d="M74.0455 39.4054C74.0455 34.8228 74.5781 30.2599 75.6432 25.7167C70.9093 24.097 66.2937 23.2871 61.7965 23.2871C57.3386 23.2871 53.7094 25.2031 50.9085 29.0352C48.1075 32.8278 46.707 37.2523 46.707 42.3091C46.707 45.6276 47.5355 48.4127 49.1924 50.6646C50.8492 52.8769 53.1768 53.983 56.175 53.983C57.4373 53.983 58.6602 53.6275 59.8437 52.9164C62.4474 51.3362 65.1497 47.5436 67.9506 41.5388C67.4378 44.4622 67.1813 46.7732 67.1813 48.472C67.1813 50.1312 67.4772 51.4152 68.0689 52.3238C68.6606 53.1929 69.7061 53.6275 71.2051 53.6275C72.7043 53.6275 74.1638 53.3905 75.584 52.9164C74.5583 48.4522 74.0455 43.9486 74.0455 39.4054ZM62.5649 28.325C64.0245 28.325 65.7998 28.6409 67.8905 29.273C66.6282 34.0928 64.9121 38.5372 62.7424 42.6063C60.5727 46.6754 58.7975 48.71 57.4167 48.71C56.2332 48.71 55.3456 47.7816 54.7539 45.9248C54.2016 44.068 53.9255 42.231 53.9255 40.4138C53.9255 36.9767 54.5961 33.599 55.9373 30.2804C57.397 28.9768 59.6062 28.325 62.5649 28.325Z" fill="#7908F4"/>
  <path fill-rule="evenodd" clip-rule="evenodd" d="M86.3612 20.4152L84.421 28.5739C83.5202 32.3618 83.0752 36.14 83.0752 39.9221C83.0752 43.6863 83.5054 47.4198 84.3714 51.1355L86.2806 59.3276L78.2031 61.9858C75.8294 62.7669 73.3728 63.1599 70.8716 63.1599C68.8787 63.1599 66.2845 62.7782 63.8854 61.4129C61.5016 62.7288 58.7968 63.5095 55.8776 63.5095C50.2302 63.5095 45.0069 61.2728 41.4158 56.5456L41.392 56.5143L41.3685 56.4827C38.3198 52.398 37.0625 47.6371 37.0625 42.7778C37.0625 35.9831 39.0109 29.6762 43.0766 24.2406C47.5031 18.2808 53.8426 14.8193 61.4856 14.8193C67.1116 14.8193 72.7394 15.8204 78.3285 17.7056L86.3612 20.4152ZM72.6584 53.7919C73.5316 53.6797 74.3909 53.4845 75.2361 53.2063C74.9285 51.8865 74.6671 50.5631 74.452 49.2363C74.4303 49.1027 74.4091 48.9691 74.3884 48.8354C74.3652 48.6857 74.3426 48.5358 74.3205 48.386C74.312 48.3275 74.3035 48.269 74.295 48.2106C74.183 47.4326 74.0869 46.6533 74.0065 45.873C73.9738 45.5554 73.9438 45.2377 73.9164 44.9197C73.8636 44.3093 73.8206 43.6981 73.7873 43.0861C73.7796 42.9432 73.7723 42.8002 73.7655 42.6572C73.74 42.114 73.7221 41.5702 73.7118 41.0258C73.7048 40.6571 73.7013 40.288 73.7013 39.9186C73.7013 37.1705 73.8988 34.4297 74.2938 31.6961C74.5467 29.9465 74.8805 28.1998 75.2952 26.4561C73.2182 25.7555 71.164 25.2089 69.1326 24.8164C68.1714 24.6307 67.2153 24.4795 66.2642 24.3628C66.2331 24.359 66.2019 24.3552 66.1708 24.3514C64.8537 24.1928 63.5466 24.1005 62.2492 24.0744C61.993 24.0692 61.7372 24.0667 61.4818 24.0667C57.9998 24.0667 55.0245 25.2219 52.5558 27.5324C52.0426 28.0127 51.5513 28.5429 51.0819 29.1231C50.9255 29.3164 50.7715 29.5153 50.6199 29.7197C48.1807 32.9759 46.8061 36.7057 46.4963 40.9094C46.4512 41.521 46.4287 42.1426 46.4287 42.7743C46.4287 44.8614 46.7667 46.734 47.4426 48.3921C47.4604 48.4357 47.4784 48.4791 47.4967 48.5225C47.8695 49.4075 48.3399 50.2306 48.908 50.9917C50.5609 53.1675 52.8828 54.2554 55.8737 54.2554C56.2913 54.2554 56.7046 54.217 57.1134 54.14C57.4609 54.0747 57.8053 53.9816 58.1466 53.8608C58.6148 53.6949 59.0772 53.4767 59.5337 53.2063C60.9252 52.3738 62.3448 50.9168 63.7928 48.8354C64.1091 48.3806 64.4268 47.896 64.7459 47.3816C65.1991 46.651 65.6549 45.8604 66.1135 45.0096C66.6128 44.0832 67.1153 43.0856 67.6211 42.0167C67.3915 43.3065 67.2135 44.4752 67.0869 45.5227C66.9314 46.81 66.8537 47.9142 66.8537 48.8354C66.8537 50.3166 67.0968 51.4937 67.5832 52.3667C67.6326 52.4554 67.6846 52.541 67.7391 52.6236C68.3294 53.4783 69.3723 53.9057 70.8677 53.9057C71.1291 53.9057 71.3892 53.8986 71.6481 53.8843C71.9869 53.8657 72.3237 53.8349 72.6584 53.7919ZM64.1232 39.6549C64.1952 39.4965 64.2667 39.3374 64.3375 39.1779C64.4056 39.0248 64.4729 38.8711 64.5398 38.717C65.1177 37.3835 65.6514 36.014 66.1408 34.6084C66.2416 34.3185 66.3406 34.0271 66.4377 33.7342C66.8466 32.501 67.2222 31.2406 67.5642 29.9529C66.8227 29.7319 66.1209 29.5502 65.4588 29.4077C65.3646 29.3875 65.2712 29.368 65.1786 29.3493C64.0919 29.13 63.1161 29.0205 62.2514 29.0205C61.9898 29.0205 61.7339 29.0255 61.484 29.0356C60.1198 29.0906 58.9307 29.2958 57.9167 29.651C57.0212 29.9648 56.2622 30.3957 55.6399 30.9437C55.3816 31.5736 55.1483 32.2056 54.9399 32.8399C54.937 32.8487 54.9342 32.8574 54.9312 32.8662C54.2052 35.0834 53.7836 37.3272 53.6665 39.5975C53.6487 39.9438 53.6379 40.2907 53.6342 40.6382C53.6333 40.7286 53.6328 40.819 53.6328 40.9095C53.6328 41.5288 53.6659 42.1505 53.732 42.7744C53.8568 43.9512 54.0992 45.1361 54.4592 46.3295C54.5086 46.4823 54.5601 46.6288 54.6137 46.7688C54.6211 46.7881 54.6286 46.8075 54.636 46.8266C54.9704 47.681 55.3838 48.2912 55.876 48.6572C56.2119 48.9069 56.5845 49.0429 56.9938 49.0653C57.0025 49.0658 57.0113 49.0662 57.02 49.0665C57.0517 49.0679 57.0835 49.0686 57.1157 49.0686C57.2363 49.0686 57.3599 49.0533 57.4865 49.0225C57.6449 48.9842 57.808 48.9219 57.9758 48.8355C59.0587 48.2783 60.338 46.722 61.814 44.1666C61.8499 44.1044 61.886 44.0415 61.9222 43.978C62.0885 43.6865 62.2572 43.3824 62.4285 43.0658C62.537 42.8653 62.6443 42.6638 62.7506 42.4613C62.8539 42.2643 62.9562 42.0664 63.0574 41.8677C63.1574 41.6715 63.2562 41.4743 63.3541 41.2764C63.5184 40.9437 63.6799 40.6087 63.8382 40.2713C63.9343 40.0667 64.0293 39.8613 64.1232 39.6549Z" fill="url(#paint1_linear_7422:14879)"/>
  <path d="M107.826 29.688L107.246 42.7249C107.246 46.3199 107.787 49.8359 108.868 53.273C107.787 53.747 106.551 53.984 105.161 53.984C101.878 53.984 100.237 52.1075 100.237 48.3545C100.237 46.6557 100.449 43.8113 100.874 39.8212C101.298 35.7917 101.511 33.2632 101.511 32.2361C101.511 30.2609 100.643 29.2732 98.9043 29.2732C97.6296 29.2732 96.1821 30.2213 94.5596 32.1176C92.9762 33.9744 91.6051 36.0681 90.4466 38.399C89.3266 40.6904 88.67 42.5866 88.4769 44.0878C88.6314 47.1693 89.0176 50.1124 89.6355 52.9173C88.3997 53.3915 87.1059 53.6285 85.7542 53.6285C84.4411 53.6285 83.3597 53.3124 82.5101 52.6803C81.699 52.0087 81.2936 51.1001 81.2936 49.9544C81.2936 48.7693 81.4673 46.6755 81.8149 43.673C82.1625 40.6311 82.3363 37.6286 82.3363 34.6657C82.3363 31.6633 81.8922 28.2262 81.0039 24.3548C82.2397 23.8806 83.5529 23.6436 84.9431 23.6436C86.3334 23.6436 87.4535 24.0584 88.3031 24.888C89.1914 25.7177 89.6355 26.7448 89.6355 27.9695C89.6355 29.1942 89.481 31.1497 89.1721 33.8361C90.6396 31.0312 92.5514 28.5819 94.9072 26.488C97.2626 24.3548 99.6187 23.2881 101.975 23.2881C105.875 23.2881 107.826 25.4214 107.826 29.688Z" fill="#7908F4"/>
  <path fill-rule="evenodd" clip-rule="evenodd" d="M116.394 30.5744L115.811 43.3794C115.831 45.8809 116.224 48.3191 117 50.7254L119.585 58.744L111.829 62.0622C109.396 63.1032 106.874 63.5095 104.442 63.5095C101.643 63.5095 98.3049 62.827 95.4652 60.5932L92.0505 61.8715C89.7393 62.7367 87.3313 63.1599 84.8852 63.1599C82.0985 63.1599 78.9639 62.4897 76.1656 60.4581L75.9718 60.3173L75.7855 60.1668C72.6184 57.6074 71.1233 53.9794 71.1233 50.2958C71.1233 48.5192 71.3653 45.9631 71.7122 43.0373C72.0217 40.3926 72.1742 37.8008 72.1742 35.2597C72.1742 33.2052 71.858 30.5565 71.0766 27.2328L69.2148 19.3135L76.8444 16.4574C79.185 15.5812 81.6156 15.169 84.068 15.169C86.6778 15.169 89.4484 15.8057 91.9191 17.4189C94.638 15.8439 97.7553 14.8193 101.232 14.8193C104.79 14.8193 109.119 15.7985 112.422 19.325C115.616 22.7348 116.394 26.9888 116.394 30.3643V30.5744ZM82.8026 24.4817C81.8632 24.5808 80.9614 24.792 80.0971 25.1156C80.3862 26.3452 80.6286 27.5302 80.8243 28.6707C80.834 28.7272 80.8435 28.7837 80.853 28.8399C80.953 29.4342 81.0402 30.0162 81.1146 30.586C81.1814 31.0977 81.2379 31.5995 81.2842 32.0916C81.2926 32.1809 81.3006 32.2698 81.3083 32.3584C81.3145 32.4299 81.3205 32.5013 81.3263 32.5724C81.3553 32.929 81.3787 33.2802 81.3966 33.6262C81.4045 33.7778 81.4112 33.9283 81.4169 34.0778C81.4234 34.2465 81.4284 34.4139 81.4322 34.5801C81.4336 34.646 81.4349 34.7117 81.4359 34.7772C81.4363 34.8004 81.4367 34.8237 81.437 34.8469C81.4388 34.9843 81.4398 35.1207 81.4398 35.2563C81.4398 38.0185 81.2825 40.8158 80.9677 43.6479C80.9504 43.8034 80.9326 43.959 80.9144 44.1147C80.8837 44.3736 80.8543 44.6257 80.8263 44.8709C80.5348 47.4218 80.389 49.229 80.389 50.2923C80.389 51.4191 80.7977 52.3127 81.6149 52.9732C82.4712 53.5948 83.561 53.9057 84.8842 53.9057C85.2172 53.9057 85.5467 53.8918 85.8727 53.8639C86.8803 53.7778 87.8547 53.5586 88.7956 53.2063C88.5801 52.2513 88.3925 51.28 88.2329 50.2923C88.0082 48.9022 87.8391 47.4798 87.7253 46.0251C87.6964 45.6558 87.6711 45.2844 87.6494 44.911C87.6492 44.9075 87.6489 44.904 87.6487 44.9005C87.6414 44.7748 87.6346 44.6489 87.6281 44.5227C87.8227 43.0463 88.4843 41.1813 89.613 38.9279C89.9531 38.2601 90.3114 37.6121 90.6878 36.984C90.688 36.9837 90.6882 36.9834 90.6883 36.9831C90.8688 36.6821 91.0535 36.3855 91.2422 36.0935C91.2577 36.0696 91.2732 36.0458 91.2886 36.0218C91.5175 35.6702 91.7523 35.3252 91.9932 34.9868C92.0186 34.951 92.0442 34.9154 92.0698 34.8798C92.5725 34.1802 93.1015 33.5093 93.6567 32.8668C93.6904 32.8278 93.7242 32.789 93.758 32.7503C94.8391 31.5169 95.8433 30.6913 96.7711 30.2736C96.7833 30.2682 96.7955 30.2629 96.8077 30.2576C97.1728 30.0968 97.5267 29.9997 97.8684 29.9661C97.9237 29.9608 97.9771 29.957 98.0314 29.9549C98.0669 29.9536 98.1016 29.9528 98.1362 29.9528C98.2739 29.9528 98.4068 29.9588 98.5332 29.9709C99.0107 30.016 99.4105 30.146 99.7344 30.3608C100.421 30.8157 100.763 31.651 100.763 32.8668C100.763 32.9625 100.762 33.0714 100.758 33.1935C100.753 33.354 100.745 33.5375 100.732 33.7439C100.675 34.761 100.537 36.334 100.318 38.4631C100.318 38.4684 100.317 38.4737 100.317 38.479C100.305 38.5944 100.292 38.7113 100.28 38.8298C100.259 39.0356 100.236 39.2462 100.214 39.4617C100.184 39.7418 100.154 40.03 100.121 40.3266C100.022 41.2381 99.9339 42.089 99.858 42.8789C99.8477 42.9811 99.8384 43.0821 99.829 43.1823C99.5959 45.6409 99.4788 47.4864 99.4788 48.7188C99.4788 52.4099 101.133 54.2554 104.441 54.2554C105.268 54.2554 106.04 54.1742 106.758 54.012C107.258 53.8992 107.731 53.7472 108.178 53.5561C107.664 51.9609 107.27 50.3485 106.999 48.7188C106.84 47.7632 106.723 46.8016 106.647 45.8341C106.578 44.9551 106.543 44.0711 106.543 43.1823L107.127 30.3608C107.127 26.1647 105.162 24.0667 101.231 24.0667C100.199 24.0667 99.168 24.2646 98.1362 24.6605C97.9359 24.7375 97.7355 24.8219 97.5351 24.9139C96.3929 25.4377 95.2506 26.2043 94.1082 27.2137C93.5691 27.6813 93.053 28.167 92.5601 28.6707C92.0253 29.2172 91.5177 29.7848 91.0372 30.3736C91.036 30.375 91.0349 30.3764 91.0337 30.3778C90.85 30.6031 90.6703 30.8315 90.4945 31.0629C89.6891 32.1236 88.9672 33.2494 88.3286 34.4404C88.64 31.7984 88.7956 29.8752 88.7956 28.6707C88.7956 28.5873 88.7935 28.5049 88.7893 28.4233C88.789 28.4187 88.7887 28.414 88.7885 28.4094C88.7313 27.3829 88.3331 26.5044 87.5939 25.7739C87.5483 25.7287 87.5013 25.6842 87.4529 25.6401C86.5967 24.8243 85.4681 24.4163 84.0669 24.4163C84.0266 24.4163 83.9864 24.4165 83.9462 24.4169C83.559 24.4206 83.1778 24.4422 82.8026 24.4817Z" fill="url(#paint2_linear_7422:14879)"/>
  <path fill-rule="evenodd" clip-rule="evenodd" d="M137.22 9.52734C135.873 9.52734 134.567 9.75698 133.298 10.2162C134.091 14.6172 134.527 19.2861 134.606 24.2229C132.665 23.534 130.367 23.1896 127.713 23.1896C125.06 23.1896 122.544 24.1272 120.168 26.0024C117.831 27.8394 116.068 30.1547 114.88 32.9484C113.731 35.7037 113.156 38.6505 113.156 41.7887C113.156 44.9267 113.949 47.5673 115.533 49.7104C117.157 51.8535 119.475 52.925 122.485 52.925C123.831 52.925 125.099 52.5998 126.288 51.9492C127.515 51.2604 128.764 50.0931 130.031 48.4475C131.338 46.8019 132.823 44.2762 134.487 40.8701C133.972 43.9317 133.715 46.0556 133.715 47.242C133.715 50.8011 135.022 52.5806 137.636 52.5806C139.18 52.5806 140.666 52.351 142.092 51.8918C141.141 46.6871 140.666 41.7887 140.666 37.1963C140.666 32.5657 140.864 27.8776 141.261 23.1322C141.656 18.3485 141.854 15.3252 141.854 14.0623C141.854 12.7612 141.419 11.6896 140.547 10.8476C139.676 9.96744 138.567 9.52734 137.22 9.52734ZM128.311 28.0701C130.568 28.0701 132.668 28.4145 134.609 29.1034C133.856 33.6957 132.311 37.9627 129.974 41.9045C127.676 45.8463 125.617 47.8171 123.795 47.8171C122.607 47.8171 121.755 47.0135 121.24 45.4062C120.725 43.7989 120.468 42.115 120.468 40.3546C120.468 36.5276 121.142 33.0643 122.488 29.9644C124.112 28.7015 126.053 28.0701 128.311 28.0701Z" fill="#7908F4"/>
  <path fill-rule="evenodd" clip-rule="evenodd" d="M122.539 4.04102L129.892 1.30788C132.224 0.441277 134.664 0 137.16 0C140.869 0 144.492 1.34119 147.277 4.18564C150.05 6.97534 151.291 10.5191 151.291 14.0647C151.291 15.823 151.052 19.3577 150.664 24.1613L150.663 24.1673C150.285 28.814 150.097 33.3937 150.097 37.9073C150.097 42.0187 150.512 46.5169 151.386 51.4209L152.807 59.3998L145.051 61.9619C142.625 62.7632 140.119 63.1537 137.577 63.1537C135.279 63.1537 132.876 62.6079 130.732 61.3466C128.164 62.7636 125.325 63.5088 122.355 63.5088C116.643 63.5088 111.329 61.2314 107.726 56.3523L107.692 56.3079L107.661 56.2631C104.714 52.1751 103.508 47.4475 103.508 42.6403C103.508 38.2725 104.293 34.0378 105.925 30.0208L105.938 29.9901L105.95 29.9597C107.72 25.6905 110.423 22.0104 114.041 19.0914C117.01 16.6896 120.459 14.9821 124.297 14.3501C124.174 13.4553 124.036 12.5753 123.884 11.7099L122.539 4.04102ZM138.528 53.7343C139.741 53.6567 140.916 53.4302 142.053 53.0544C141.801 51.6402 141.582 50.2479 141.397 48.8775C141.37 48.6719 141.342 48.4669 141.316 48.2623C141.2 47.3645 141.1 46.4762 141.012 45.5975C140.985 45.3123 140.958 45.0281 140.932 44.7449C140.872 44.0643 140.82 43.3894 140.778 42.7204C140.768 42.5714 140.759 42.4226 140.75 42.2741C140.747 42.2196 140.744 42.1654 140.741 42.111C140.66 40.6837 140.62 39.2829 140.62 37.9088C140.62 37.5265 140.622 37.1438 140.624 36.7607C140.638 34.7004 140.688 32.629 140.776 30.5468C140.861 28.5204 140.982 26.4837 141.137 24.4365C141.163 24.0959 141.19 23.7551 141.217 23.4139C141.256 22.9379 141.292 22.4786 141.326 22.0364C141.652 17.8989 141.814 15.2421 141.814 14.0662C141.814 12.7252 141.376 11.6208 140.5 10.7531C139.662 9.88321 138.602 9.43041 137.324 9.39463C137.268 9.3931 137.214 9.39233 137.158 9.39233C135.804 9.39233 134.492 9.62902 133.218 10.1023C133.446 11.4009 133.645 12.7223 133.813 14.0662C133.838 14.26 133.862 14.4543 133.885 14.6491C133.97 15.3621 134.047 16.0813 134.115 16.8069C134.122 16.8907 134.131 16.9747 134.139 17.0588C134.159 17.2811 134.178 17.504 134.197 17.7273C134.254 18.3978 134.303 19.0737 134.345 19.7548C134.411 20.7833 134.459 21.8238 134.492 22.8764C134.492 22.8779 134.492 22.8793 134.492 22.8807C134.509 23.4298 134.523 23.9823 134.531 24.538C133.654 24.2188 132.705 23.9712 131.683 23.7956C130.604 23.61 129.444 23.5046 128.204 23.4792C128.007 23.4751 127.808 23.4731 127.607 23.4731C126.735 23.4731 125.88 23.5761 125.039 23.7823C123.304 24.2074 121.634 25.0706 120.025 26.372C119.826 26.533 119.63 26.6975 119.44 26.8656C118.841 27.3911 118.284 27.9513 117.768 28.5464C116.506 30 115.488 31.6615 114.713 33.5307C113.737 35.9336 113.173 38.4776 113.022 41.1627C112.996 41.6511 112.981 42.1441 112.981 42.6419C112.981 44.8383 113.349 46.7983 114.083 48.5217C114.43 49.336 114.859 50.0975 115.369 50.8063C117.001 53.015 119.329 54.1194 122.354 54.1194C122.8 54.1194 123.237 54.0829 123.667 54.0099C124.084 53.939 124.492 53.8337 124.893 53.694C125.329 53.5416 125.756 53.3481 126.174 53.1136C127.408 52.4036 128.662 51.2007 129.935 49.5047C130.222 49.1339 130.518 48.7197 130.821 48.2623C131.085 47.8671 131.354 47.4395 131.629 46.9796C132.069 46.2462 132.525 45.4304 132.997 44.5323C133 44.5245 133.005 44.5168 133.009 44.509C133.462 43.6468 133.929 42.7088 134.412 41.6952C134.205 42.9562 134.04 44.0628 133.916 45.0151C133.914 45.0272 133.913 45.0392 133.911 45.0513C133.728 46.4641 133.636 47.5344 133.636 48.2623C133.636 50.147 133.983 51.5475 134.676 52.4639C135.332 53.3309 136.298 53.7644 137.576 53.7644C137.729 53.7644 137.881 53.7621 138.033 53.7575C138.199 53.7525 138.364 53.7447 138.528 53.7343ZM131.181 40.2981C131.196 40.2666 131.211 40.2351 131.226 40.2035C131.347 39.9537 131.463 39.7026 131.578 39.4505C131.81 38.9408 132.029 38.4265 132.238 37.9073C132.727 36.6885 133.152 35.443 133.515 34.1708C133.942 32.6726 134.281 31.1375 134.532 29.5653C133.986 29.3668 133.428 29.196 132.858 29.0529C132.372 28.9311 131.878 28.8294 131.373 28.7479C130.354 28.5829 129.298 28.5005 128.204 28.5005C128.066 28.5005 127.928 28.5029 127.792 28.5077C127.73 28.51 127.668 28.5126 127.607 28.5159C126.688 28.5639 125.825 28.7242 125.016 28.9967C124.301 29.2374 123.63 29.5657 123.001 29.9816C122.999 29.9832 122.997 29.9848 122.994 29.9864C122.775 30.1313 122.562 30.2867 122.354 30.4528C121.626 32.1738 121.092 34.0034 120.756 35.9417C120.753 35.957 120.752 35.9722 120.749 35.9874C120.519 37.3255 120.382 38.7152 120.339 40.1568C120.337 40.2228 120.335 40.2889 120.334 40.3552C120.327 40.6222 120.325 40.8909 120.325 41.1613C120.325 41.6603 120.344 42.1533 120.383 42.6404C120.486 43.9242 120.726 45.1666 121.1 46.3675C121.125 46.4444 121.149 46.5195 121.175 46.5927C121.184 46.6203 121.194 46.6477 121.203 46.6749C121.495 47.482 121.879 48.0649 122.354 48.4233C122.733 48.7093 123.171 48.8524 123.668 48.8524C123.671 48.8524 123.675 48.8524 123.679 48.8524C123.698 48.8523 123.718 48.8519 123.738 48.8514C123.88 48.8474 124.023 48.8313 124.167 48.8032C124.582 48.7221 125.009 48.5414 125.448 48.2608C125.874 47.9883 126.311 47.6217 126.76 47.161C126.773 47.147 126.787 47.133 126.8 47.1188C127.572 46.317 128.377 45.2369 129.214 43.8788C129.413 43.5557 129.614 43.2168 129.817 42.8622C129.836 42.8279 129.856 42.7933 129.875 42.7587C129.893 42.7286 129.91 42.6986 129.928 42.6685C130.224 42.1537 130.506 41.6336 130.776 41.1081C130.915 40.8395 131.049 40.5695 131.181 40.2981Z" fill="url(#paint3_linear_7422:14879)"/>
  <path d="M148.505 43.8632L149.091 35.5969C149.091 31.8848 148.544 28.364 147.449 25.0346C148.544 24.5753 149.893 24.3457 151.495 24.3457C154.621 24.3457 156.185 26.0488 156.185 29.4547C156.185 30.9855 155.971 33.1477 155.54 35.9414C155.11 38.7351 154.895 40.6676 154.895 41.7392C154.895 42.7724 154.915 43.5378 154.954 44.0353C154.993 44.4946 155.09 45.0495 155.247 45.7001C155.482 47.0012 156.244 47.6518 157.533 47.6518C158.863 47.6518 160.269 46.6376 161.755 44.6094C163.279 42.5428 164.491 40.2658 165.39 37.7783C166.327 35.2908 166.796 33.3199 166.796 31.8657C166.601 28.8424 166.269 26.5653 165.8 25.0346C167.05 24.5753 168.32 24.3457 169.61 24.3457C170.94 24.3457 172.034 24.7476 172.894 25.5513C173.793 26.3549 174.242 27.4265 174.242 28.7659C174.242 49.661 170.333 62.1942 162.516 66.3656C160.758 67.2841 158.765 67.7433 156.537 67.7433C154.309 67.7433 152.354 67.1693 150.674 66.0212C149.033 64.8731 148.212 63.2658 148.212 61.1992C148.212 59.8215 148.739 58.6543 149.795 57.6976C150.85 56.7791 152.101 56.3199 153.547 56.3199C153.86 56.3199 154.251 56.3581 154.719 56.4347C154.602 56.9322 154.543 57.3722 154.543 57.7549C154.543 61.1227 155.735 62.8066 158.12 62.8066C159.566 62.8066 160.876 62.0412 162.048 60.5104C163.221 58.9796 164.158 57.1043 164.862 54.8847C166.229 50.3689 166.914 46.2741 166.914 42.6003C165.741 45.7001 164.139 48.2068 162.106 50.1202C160.113 51.9954 157.944 52.933 155.599 52.933C150.87 52.933 148.505 49.9097 148.505 43.8632Z" fill="#7908F4"/>
  <path fill-rule="evenodd" clip-rule="evenodd" d="M138.909 43.9999L139.502 35.5024C139.474 32.7119 139.057 30.1581 138.293 27.7972L135.66 19.6571L143.559 16.2886C146.175 15.1732 148.894 14.8193 151.38 14.8193C153.926 14.8193 156.957 15.3874 159.645 17.22L162.573 16.1272C164.863 15.2728 167.271 14.8193 169.752 14.8193C173.185 14.8193 176.695 15.9418 179.523 18.5883C182.59 21.4175 183.887 25.1388 183.887 28.7658C183.887 39.9804 182.87 49.6336 180.503 57.3476C178.156 64.9923 174.086 71.9607 167.074 75.7633L167.037 75.7836L166.999 75.8035C163.694 77.5575 160.116 78.3282 156.492 78.3282C152.479 78.3282 148.574 77.2435 145.147 74.8642L145.104 74.8344L145.061 74.8041C140.784 71.7641 138.612 67.1899 138.612 62.1927C138.612 59.3033 139.446 56.6227 140.971 54.3401C139.354 51.0621 138.909 47.4789 138.909 44.3256V43.9999ZM167.381 24.4729C166.881 24.5856 166.382 24.7343 165.887 24.919C166.183 25.9022 166.426 27.184 166.614 28.7646C166.727 29.7045 166.82 30.7501 166.894 31.9012C166.896 31.9205 166.897 31.9399 166.898 31.9593C166.898 32.0363 166.897 32.1147 166.894 32.1945C166.891 32.2995 166.885 32.407 166.878 32.5169C166.778 33.9489 166.309 35.7944 165.471 38.053C165.185 38.8568 164.869 39.6392 164.52 40.4002C164.478 40.4936 164.434 40.5866 164.391 40.6793C164.363 40.7384 164.335 40.7973 164.307 40.8561C164.148 41.1886 163.982 41.5169 163.81 41.841C163.759 41.9395 163.705 42.0376 163.653 42.1353C163.623 42.1884 163.595 42.2414 163.565 42.2943C163.43 42.5395 163.29 42.7824 163.147 43.0228C162.98 43.3052 162.807 43.5842 162.629 43.8599C162.618 43.8772 162.607 43.8946 162.595 43.9118C162.447 44.1397 162.297 44.3654 162.142 44.5886C162.035 44.7447 161.925 44.8997 161.813 45.0535C161.804 45.0668 161.794 45.0801 161.785 45.0934C160.89 46.3346 160.023 47.2074 159.185 47.7117C159.184 47.7119 159.184 47.7122 159.183 47.7125C158.61 48.0568 158.051 48.2291 157.503 48.2291C157.494 48.2291 157.484 48.2291 157.475 48.229C157.331 48.2278 157.193 48.2185 157.063 48.201C156.873 48.1756 156.697 48.1331 156.536 48.0734C156.109 47.9156 155.777 47.6379 155.542 47.2404C155.375 46.9593 155.256 46.6184 155.185 46.2176C155.055 45.6726 154.966 45.1929 154.916 44.7782C154.905 44.6826 154.895 44.5905 154.888 44.5018C154.883 44.4459 154.879 44.3868 154.875 44.3243C154.844 43.8138 154.828 43.0842 154.828 42.1353C154.828 41.6601 154.869 41.0207 154.949 40.2168C154.951 40.2058 154.952 40.1947 154.952 40.1836C154.98 39.9096 155.013 39.6166 155.05 39.3048C155.101 38.8673 155.162 38.3927 155.233 37.8808C155.302 37.3754 155.381 36.8337 155.467 36.2558C155.472 36.224 155.477 36.1919 155.482 36.1599C155.5 36.0404 155.518 35.9221 155.535 35.8049C155.936 33.0969 156.136 30.9867 156.136 29.4745C156.136 25.9641 154.55 24.209 151.38 24.209C150.354 24.209 149.432 24.3031 148.612 24.4914C148.132 24.6016 147.686 24.7441 147.276 24.919C147.756 26.4007 148.132 27.9192 148.404 29.4745C148.584 30.5019 148.719 31.5452 148.809 32.6046C148.88 33.4523 148.923 34.3102 148.936 35.1785C148.94 35.3867 148.941 35.5955 148.941 35.8049L148.347 44.3243C148.347 44.5544 148.35 44.7801 148.357 45.0016C148.358 45.0155 148.358 45.0293 148.358 45.0432C148.384 45.8825 148.458 46.6607 148.579 47.3775C148.6 47.503 148.622 47.6267 148.647 47.7484C148.696 47.9994 148.752 48.2425 148.813 48.4776C149.532 51.2115 151.081 52.8662 153.46 53.4418C154.013 53.5756 154.612 53.6511 155.255 53.6683C155.349 53.6707 155.445 53.6721 155.542 53.6721C155.581 53.6721 155.62 53.6718 155.659 53.6712C156.256 53.6632 156.841 53.5941 157.415 53.4639C157.444 53.4572 157.474 53.4503 157.503 53.4433C157.537 53.4354 157.57 53.4273 157.602 53.419C159.204 53.0167 160.717 52.1348 162.141 50.773C162.434 50.4925 162.719 50.1996 162.995 49.8943C163.186 49.6815 163.374 49.4627 163.558 49.2378C164.04 48.6476 164.492 48.016 164.914 47.3429C164.917 47.3391 164.919 47.3353 164.922 47.3316C165.728 46.0462 166.426 44.6099 167.017 43.0228C167.017 44.7614 166.871 46.5916 166.578 48.5132C166.577 48.5207 166.575 48.5282 166.574 48.5357C166.302 50.3196 165.904 52.1823 165.38 54.1238C165.379 54.1245 165.379 54.1251 165.379 54.1258C165.296 54.4323 165.21 54.7406 165.121 55.0509C165.06 55.2609 164.999 55.4718 164.936 55.6836C164.735 56.3261 164.517 56.9407 164.278 57.5272C164.134 57.882 163.984 58.2265 163.826 58.5608C163.813 58.5878 163.801 58.6149 163.787 58.6417C163.68 58.8669 163.57 59.0873 163.455 59.303C163.04 60.092 162.582 60.8181 162.082 61.4815C161.948 61.6595 161.811 61.8276 161.674 61.9854C161.22 62.506 160.747 62.9175 160.254 63.2198C160.242 63.2275 160.229 63.2351 160.217 63.2427C159.546 63.6463 158.84 63.848 158.098 63.848C157.774 63.848 157.473 63.817 157.192 63.7547C156.942 63.6992 156.709 63.6188 156.492 63.5136C156.248 63.3945 156.026 63.2436 155.826 63.0607C155.726 62.9691 155.63 62.8694 155.542 62.7617C155.401 62.5916 155.274 62.4015 155.16 62.1914C155.012 61.9145 154.887 61.6028 154.786 61.2564C154.776 61.2233 154.767 61.1899 154.757 61.1561C154.566 60.4549 154.471 59.6168 154.471 58.6417C154.471 58.5103 154.478 58.3722 154.491 58.2276C154.517 57.9422 154.569 57.6312 154.646 57.2946C154.647 57.2901 154.648 57.2856 154.649 57.281C154.59 57.271 154.531 57.2617 154.474 57.2531C154.075 57.1928 153.738 57.1626 153.46 57.1626C151.994 57.1626 150.725 57.636 149.655 58.5825C149.634 58.6021 149.613 58.6219 149.592 58.6417C148.749 59.4409 148.252 60.3802 148.1 61.4595C148.067 61.6967 148.05 61.9408 148.05 62.1914C148.05 64.3214 148.882 65.9779 150.547 67.1612C152.251 68.3444 154.233 68.936 156.492 68.936C157.042 68.936 157.577 68.908 158.098 68.8522C159.721 68.678 161.207 68.2327 162.557 67.5161C163.901 66.7877 165.13 65.8119 166.245 64.5888C167.922 62.7516 169.341 60.3561 170.502 57.4026C170.512 57.3799 170.52 57.3572 170.53 57.3344C170.905 56.3732 171.254 55.3531 171.576 54.2743C172.356 51.6584 172.978 48.6969 173.44 45.3899C173.548 44.6196 173.647 43.8305 173.738 43.0228C173.747 42.939 173.756 42.855 173.765 42.7709C173.774 42.6966 173.781 42.6221 173.789 42.5474C173.839 42.0908 173.884 41.6284 173.927 41.1601C173.931 41.1183 173.935 41.0765 173.939 41.0346C174.196 38.2209 174.356 35.1958 174.418 31.9593C174.422 31.8017 174.425 31.6437 174.427 31.4851C174.442 30.5941 174.449 29.6872 174.449 28.7646C174.449 27.384 173.993 26.2797 173.081 25.4514C172.21 24.6231 171.1 24.209 169.752 24.209C168.954 24.209 168.164 24.2969 167.381 24.4729Z" fill="url(#paint4_linear_7422:14879)"/>
  <path d="M30.133 11.6445C33.5316 11.6445 36.5003 12.6251 39.0394 14.5863C41.5785 16.5475 42.848 19.0856 42.848 22.2004C42.848 23.854 42.3793 25.2192 41.4418 26.296C40.5043 27.3727 39.3519 27.9111 37.9848 27.9111C36.6175 27.9111 35.5238 27.738 34.7034 27.3919C34.8207 26.7766 34.8792 26.1229 34.8792 25.4306C34.8401 23.008 34.2347 21.0467 33.0628 19.547C31.8909 18.0089 30.1721 17.2397 27.9065 17.2397C25.6798 17.2397 23.6096 17.9511 21.6955 19.374C20.5627 20.9891 19.6838 23.1041 19.0587 25.7191C18.4337 28.334 18.1212 30.9106 18.1212 33.4486C18.1212 37.6787 18.9415 41.2358 20.5822 44.1199C22.2618 46.9656 24.8596 48.3884 28.3752 48.3884C31.6175 48.3884 33.805 47.1771 34.9378 44.7544C35.9925 42.6394 36.5198 39.8321 36.5198 36.3327C38.5121 36.3327 40.1722 36.698 41.5004 37.4287C42.8286 38.1209 43.4926 39.2746 43.4926 40.8897C43.4926 44.6583 41.8129 47.7924 38.4535 50.292C35.094 52.7531 31.3049 53.9836 27.0861 53.9836C21.5783 53.9836 17.3986 52.1955 14.5469 48.6192C11.6953 45.0044 10.2695 40.1206 10.2695 33.9677C10.2695 27.8149 12.0469 22.5657 15.6017 18.2203C19.1954 13.8364 24.0392 11.6445 30.133 11.6445Z" fill="#7908F4"/>
  <path fill-rule="evenodd" clip-rule="evenodd" d="M28.9385 30.4089L29.7025 26.4032C29.7546 26.1302 29.7895 25.7986 29.7916 25.3989C29.7588 23.7653 29.3621 22.9466 29.0276 22.5191L29.0084 22.4945L28.9895 22.4697C28.899 22.351 28.846 22.3234 28.7949 22.3005C28.7189 22.2666 28.4659 22.1738 27.9135 22.1738C27.0963 22.1738 26.2935 22.3619 25.4463 22.8448C24.9255 23.7818 24.4191 25.0728 24.0019 26.8158C23.4559 29.0969 23.1914 31.3077 23.1914 33.4563C23.1914 37.073 23.8896 39.7442 24.9995 41.7104C25.7112 42.8982 26.5756 43.4573 28.3876 43.4573C29.3912 43.4573 29.8317 43.2691 29.9695 43.193C30.0487 43.1492 30.1697 43.078 30.3248 42.7465L30.3518 42.6889L30.3803 42.632C30.971 41.449 31.4507 39.4715 31.4507 36.3687V31.4673L28.9385 30.4089ZM42.0912 32.1172C43.3997 31.5327 44.5598 30.6571 45.5313 29.5428C47.4133 27.3843 48.1986 24.7689 48.1986 22.098C48.1986 17.3547 46.1557 13.3305 42.3676 10.4086C38.8387 7.68659 34.697 6.35352 30.1686 6.35352C22.5596 6.35352 16.1362 9.17578 11.4492 14.8853L11.4459 14.8894C7.03394 20.2753 4.91016 26.7339 4.91016 33.9805C4.91016 40.9363 6.52615 47.0883 10.3227 51.8943L10.3309 51.9047L10.3392 51.9151C14.3965 56.9966 20.2717 59.2775 27.0876 59.2775C32.4572 59.2775 37.3735 57.6874 41.6702 54.544L41.6857 54.5327L41.701 54.5212C46.2424 51.1469 48.8503 46.5447 48.8503 40.9701C48.8503 39.4665 48.5374 37.8635 47.6743 36.3662C46.8083 34.8637 45.5548 33.7585 44.138 33.0098C43.4773 32.6506 42.7929 32.3554 42.0912 32.1172ZM36.6254 36.366C36.6254 39.8997 36.0921 42.7344 35.0256 44.8701C33.8801 47.3166 31.668 48.5397 28.3896 48.5397C24.8345 48.5397 22.2078 47.103 20.5093 44.2294C18.8503 41.3171 18.0207 37.7251 18.0207 33.4537C18.0207 30.8907 18.3368 28.289 18.9688 25.6485C19.6008 23.0079 20.4895 20.8721 21.635 19.2412C23.5705 17.8045 25.6641 17.086 27.9155 17.086C30.2065 17.086 31.9446 17.8627 33.1296 19.416C34.3146 20.9304 34.9268 22.9108 34.9663 25.3572C34.9663 26.0562 34.9071 26.7163 34.7886 27.3376C35.511 27.6421 36.4433 27.8138 37.5853 27.8532C37.7544 27.859 37.9282 27.8619 38.1066 27.8619C38.7924 27.8619 39.4249 27.728 40.0039 27.4604C40.5919 27.1886 41.1247 26.7788 41.6024 26.2309C42.5503 25.1436 43.0244 23.7651 43.0244 22.0954C43.0244 18.9499 41.7406 16.3871 39.1731 14.4066C36.6056 12.4262 33.6036 11.436 30.1671 11.436C24.0051 11.436 19.107 13.6494 15.473 18.0762C11.8785 22.4643 10.0812 27.7648 10.0812 33.9779C10.0812 40.1909 11.523 45.1225 14.4065 48.7728C17.29 52.3841 21.5165 54.1898 27.0861 54.1898C31.3521 54.1898 35.1836 52.9472 38.5805 50.4619C41.9776 47.9379 43.6761 44.7731 43.6761 40.9676C43.6761 39.3854 43.0441 38.2418 41.7803 37.5367C41.7414 37.5149 41.7017 37.4937 41.6615 37.4727C40.3186 36.7349 38.6398 36.366 36.6254 36.366Z" fill="url(#paint5_linear_7422:14879)"/>
  <path fill-rule="evenodd" clip-rule="evenodd" d="M74.0455 39.4054C74.0455 34.8228 74.5781 30.2599 75.6432 25.7167C70.9093 24.097 66.2937 23.2871 61.7965 23.2871C57.3386 23.2871 53.7094 25.2031 50.9085 29.0352C48.1075 32.8278 46.707 37.2523 46.707 42.3091C46.707 45.6276 47.5355 48.4127 49.1924 50.6646C50.8492 52.8769 53.1768 53.983 56.175 53.983C57.4373 53.983 58.6602 53.6275 59.8437 52.9164C62.4474 51.3362 65.1497 47.5436 67.9506 41.5388C67.4378 44.4622 67.1813 46.7732 67.1813 48.472C67.1813 50.1312 67.4772 51.4152 68.0689 52.3238C68.6606 53.1929 69.7061 53.6275 71.2051 53.6275C72.7043 53.6275 74.1638 53.3905 75.584 52.9164C74.5583 48.4522 74.0455 43.9486 74.0455 39.4054ZM62.5649 28.325C64.0245 28.325 65.7998 28.6409 67.8905 29.273C66.6282 34.0928 64.9121 38.5372 62.7424 42.6063C60.5727 46.6754 58.7975 48.71 57.4167 48.71C56.2332 48.71 55.3456 47.7816 54.7539 45.9248C54.2016 44.068 53.9255 42.231 53.9255 40.4138C53.9255 36.9767 54.5961 33.599 55.9373 30.2804C57.397 28.9768 59.6062 28.325 62.5649 28.325Z" fill="#7908F4"/>
  <path fill-rule="evenodd" clip-rule="evenodd" d="M81.0049 22.2395L79.9497 26.8286C78.9871 31.0155 78.5087 35.2059 78.5087 39.4074C78.5087 43.581 78.9703 47.7194 79.8966 51.8301L80.9348 56.4379L76.542 57.9331C74.6209 58.587 72.637 58.9154 70.6115 58.9154C68.4487 58.9154 65.7728 58.3091 63.8768 56.0855C63.2851 56.6013 62.6752 57.0571 62.0459 57.4467L62.0362 57.4527L62.0264 57.4586C60.1434 58.6123 58.0398 59.2729 55.786 59.2729C51.384 59.2729 47.5105 57.5141 44.8221 53.8539L44.8091 53.8362L44.7963 53.8186C42.4031 50.5018 41.3516 46.5632 41.3516 42.3279C41.3516 36.2174 43.0327 30.6671 46.487 25.8932C50.1372 20.8067 55.1957 17.9922 61.3309 17.9922C66.3867 17.9922 71.4959 18.9219 76.6365 20.7154L81.0049 22.2395ZM65.9018 23.4803C68.8805 23.8461 71.9099 24.5663 74.9901 25.641C73.9396 30.2105 73.4142 34.7998 73.4142 39.4092C73.4142 43.9787 73.9201 48.5084 74.9318 52.9985C74.0961 53.283 73.2465 53.4826 72.3831 53.5974C71.7992 53.6749 71.209 53.7137 70.6126 53.7137C70.346 53.7137 70.094 53.6996 69.8565 53.6711C68.7766 53.5419 67.9975 53.119 67.519 52.4024C67.4641 52.3164 67.4117 52.2269 67.3619 52.1341C66.883 51.2419 66.6435 50.04 66.6435 48.5283C66.6435 47.5003 66.7351 46.2495 66.9182 44.7757C67.0394 43.7999 67.2008 42.7262 67.4023 41.5548C66.9022 42.648 66.4054 43.6682 65.9117 44.6156C65.1391 46.0984 64.3742 47.4026 63.6171 48.5283C62.9802 49.4753 62.3488 50.2959 61.723 50.99C60.9421 51.8563 60.1697 52.5258 59.4059 52.9985C58.6256 53.4765 57.8279 53.7948 57.0128 53.9534C56.984 53.959 56.9551 53.9644 56.9261 53.9697C56.5501 54.0374 56.1704 54.0713 55.7871 54.0713C52.8298 54.0713 50.534 52.9587 48.8997 50.7336C47.2654 48.4687 46.4483 45.6673 46.4483 42.3296C46.4483 37.2832 47.8082 32.8627 50.5281 29.0679C50.5494 29.0382 50.5708 29.0084 50.5924 28.9787C50.7422 28.7696 50.8944 28.5663 51.0492 28.3685C51.5133 27.7752 51.9991 27.2329 52.5066 26.7416C54.9474 24.3787 57.8893 23.1973 61.332 23.1973C61.5846 23.1973 61.8375 23.1999 62.0908 23.2052C63.3518 23.2315 64.6221 23.3232 65.9018 23.4803ZM55.0546 31.5844C54.0648 34.4854 53.5699 37.4309 53.5699 40.421C53.5699 42.2488 53.8423 44.0965 54.3871 45.964C54.8794 47.5394 55.5794 48.4502 56.4871 48.6967C56.6181 48.7323 56.7534 48.7541 56.8931 48.7619C56.9017 48.7624 56.9103 48.7629 56.919 48.7633C56.9503 48.7646 56.9818 48.7653 57.0136 48.7653C58.3171 48.7653 59.9769 46.8909 61.9933 43.142C62.0837 42.9738 62.1748 42.802 62.2667 42.6263C62.5814 42.0244 62.8865 41.4144 63.1818 40.7962C63.3443 40.4561 63.5039 40.1134 63.6606 39.7683C63.6785 39.7289 63.6964 39.6895 63.7142 39.6501C64.5061 37.8952 65.2226 36.0766 65.8635 34.1944C65.8882 34.122 65.9127 34.0494 65.9372 33.9768C66.457 32.4325 66.9261 30.8454 67.3447 29.2158C66.6114 28.9897 65.9175 28.8038 65.2629 28.6581C65.206 28.6455 65.1493 28.6331 65.0929 28.621C64.0705 28.4021 63.1462 28.2833 62.3199 28.2647C62.243 28.2629 62.1669 28.2621 62.0916 28.2621C61.8329 28.2621 61.5799 28.2672 61.3328 28.2776C58.7927 28.3835 56.8665 29.034 55.5544 30.229C55.3757 30.6797 55.2091 31.1315 55.0546 31.5844ZM59.7202 33.7419C59.2545 35.2004 58.946 36.6586 58.7891 38.121C59.4758 36.6526 60.1059 35.1282 60.6785 33.5469C60.2802 33.5979 59.9659 33.6679 59.7202 33.7419Z" fill="url(#paint6_linear_7422:14879)"/>
  <path d="M107.826 29.688L107.246 42.7249C107.246 46.3199 107.787 49.8359 108.868 53.273C107.787 53.747 106.551 53.984 105.161 53.984C101.878 53.984 100.237 52.1075 100.237 48.3545C100.237 46.6557 100.449 43.8113 100.874 39.8212C101.298 35.7917 101.511 33.2632 101.511 32.2361C101.511 30.2609 100.643 29.2732 98.9043 29.2732C97.6296 29.2732 96.1821 30.2213 94.5596 32.1176C92.9762 33.9744 91.6051 36.0681 90.4466 38.399C89.3266 40.6904 88.67 42.5866 88.4769 44.0878C88.6314 47.1693 89.0176 50.1124 89.6355 52.9173C88.3997 53.3915 87.1059 53.6285 85.7542 53.6285C84.4411 53.6285 83.3597 53.3124 82.5101 52.6803C81.699 52.0087 81.2936 51.1001 81.2936 49.9544C81.2936 48.7693 81.4673 46.6755 81.8149 43.673C82.1625 40.6311 82.3363 37.6286 82.3363 34.6657C82.3363 31.6633 81.8922 28.2262 81.0039 24.3548C82.2397 23.8806 83.5529 23.6436 84.9431 23.6436C86.3334 23.6436 87.4535 24.0584 88.3031 24.888C89.1914 25.7177 89.6355 26.7448 89.6355 27.9695C89.6355 29.1942 89.481 31.1497 89.1721 33.8361C90.6396 31.0312 92.5514 28.5819 94.9072 26.488C97.2626 24.3548 99.6187 23.2881 101.975 23.2881C105.875 23.2881 107.826 25.4214 107.826 29.688Z" fill="#7908F4"/>
  <path fill-rule="evenodd" clip-rule="evenodd" d="M112.989 29.7508L112.385 42.8586C112.396 45.8914 112.874 48.8524 113.824 51.7603L115.297 56.2706L110.877 58.1371C108.982 58.9372 106.965 59.2729 104.926 59.2729C102.237 59.2729 99.2972 58.5061 97.1339 56.1236C95.0708 53.8514 94.5034 50.963 94.5034 48.4074C94.5034 46.3891 94.7556 43.2803 95.1995 39.264C95.2073 39.1926 95.2151 39.1218 95.2227 39.0516C94.8931 39.5931 94.5777 40.1547 94.2768 40.7371C93.3945 42.478 92.977 43.6727 92.811 44.4109C92.9754 47.0285 93.3299 49.5074 93.8663 51.8529L94.8781 56.2766L90.569 57.8689C88.6713 58.5701 86.6912 58.9154 84.662 58.9154C82.457 58.9154 80.1626 58.3954 78.1687 56.9665L78.0582 56.8874L77.9521 56.8027C75.7662 55.0591 74.7238 52.6071 74.7238 50.0167C74.7238 48.4808 74.9433 46.0952 75.3044 43.0907C75.6439 40.2262 75.8125 37.4096 75.8125 34.6393C75.8125 32.1247 75.4237 29.0793 74.561 25.4574L73.5 21.0029L77.8478 19.3964C79.7623 18.6889 81.7644 18.3498 83.8153 18.3498C86.341 18.3498 88.8874 19.1054 90.9268 21.0008C91.1864 21.2371 91.4306 21.4835 91.6588 21.7394C94.5469 19.472 97.8799 17.9922 101.599 17.9922C104.543 17.9922 107.697 18.7843 110.038 21.2508C112.317 23.6515 112.989 26.7684 112.989 29.6326V29.7508ZM87.8295 25.3362C88.4203 26.0662 88.7157 26.9228 88.7157 27.9059C88.7157 28.4961 88.6786 29.255 88.6046 30.1827C88.5241 31.1912 88.3998 32.3992 88.2318 33.8065C89.0377 32.3227 89.972 30.9377 91.0346 29.6518C91.0357 29.6504 91.037 29.6489 91.0382 29.6475C91.536 29.0452 92.062 28.4647 92.6161 27.9059C93.0344 27.484 93.4687 27.0745 93.9191 26.6774C94.0186 26.5896 94.119 26.5024 94.2201 26.4158C95.4275 25.3628 96.6343 24.5682 97.842 24.0319C99.0944 23.4755 100.347 23.1973 101.6 23.1973C105.673 23.1973 107.709 25.343 107.709 29.6343L107.104 42.7469C107.104 46.3627 107.669 49.8992 108.798 53.3561C108.334 53.5517 107.845 53.7071 107.327 53.8225C106.583 53.9884 105.783 54.0713 104.927 54.0713C104.395 54.0713 103.904 54.0259 103.454 53.9349C101.008 53.4398 99.7851 51.5979 99.7851 48.4091C99.7851 46.7005 100.007 43.8396 100.451 39.8264C100.894 35.7734 101.116 33.2304 101.116 32.1973C101.116 30.4839 100.441 29.5093 99.0915 29.2736C98.8761 29.2359 98.6433 29.2172 98.394 29.2172C97.9545 29.2172 97.4957 29.321 97.0165 29.5288C97.0048 29.5342 96.9922 29.5397 96.9796 29.5452C96.0183 29.9723 94.9774 30.8166 93.8572 32.0781C93.8108 32.1304 93.7647 32.1829 93.7186 32.2357C93.1556 32.881 92.6188 33.5544 92.1081 34.2559C91.8305 34.637 91.5608 35.0263 91.2987 35.4239C91.2357 35.5195 91.1732 35.6156 91.111 35.7121C90.5598 36.5691 90.0436 37.4637 89.5626 38.3959C88.3931 40.7005 87.7076 42.6078 87.5059 44.1177C87.6672 47.217 88.0705 50.1773 88.7157 52.9985C87.7408 53.3588 86.7312 53.5829 85.6872 53.671C85.3494 53.6995 85.008 53.7137 84.663 53.7137C84.2342 53.7137 83.8291 53.6826 83.4476 53.6204C82.6093 53.4838 81.8853 53.197 81.2756 52.7601C80.4288 52.0846 80.0054 51.1707 80.0054 50.0184C80.0054 48.8263 80.1868 46.7203 80.5497 43.7005C80.9127 40.6409 81.0941 37.6211 81.0941 34.641C81.0941 31.6211 80.6304 28.1642 79.7029 24.2701C80.5985 23.9392 81.5329 23.7231 82.5062 23.6219C82.9353 23.5772 83.3719 23.5549 83.8162 23.5549C84.226 23.5549 84.6133 23.5881 84.9782 23.6547C85.9056 23.8237 86.6877 24.2077 87.3245 24.8066C87.5117 24.975 87.68 25.1515 87.8295 25.3362Z" fill="url(#paint7_linear_7422:14879)"/>
  <path fill-rule="evenodd" clip-rule="evenodd" d="M137.22 9.52734C135.873 9.52734 134.567 9.75698 133.298 10.2162C134.091 14.6172 134.527 19.2861 134.606 24.2229C132.665 23.534 130.367 23.1896 127.713 23.1896C125.06 23.1896 122.544 24.1272 120.168 26.0024C117.83 27.8394 116.068 30.1547 114.88 32.9484C113.731 35.7037 113.156 38.6505 113.156 41.7887C113.156 44.9267 113.949 47.5673 115.533 49.7104C117.157 51.8535 119.475 52.925 122.485 52.925C123.831 52.925 125.099 52.5998 126.288 51.9492C127.515 51.2604 128.764 50.0931 130.031 48.4475C131.338 46.8019 132.823 44.2762 134.487 40.8701C133.972 43.9317 133.715 46.0556 133.715 47.242C133.715 50.8011 135.022 52.5806 137.636 52.5806C139.18 52.5806 140.666 52.351 142.092 51.8918C141.141 46.6871 140.666 41.7887 140.666 37.1963C140.666 32.5657 140.864 27.8776 141.261 23.1322C141.656 18.3485 141.854 15.3252 141.854 14.0623C141.854 12.7612 141.419 11.6896 140.547 10.8476C139.676 9.96744 138.567 9.52734 137.22 9.52734ZM128.311 28.0701C130.568 28.0701 132.668 28.4145 134.609 29.1034C133.856 33.6957 132.311 37.9627 129.974 41.9045C127.676 45.8463 125.617 47.8171 123.795 47.8171C122.607 47.8171 121.755 47.0135 121.24 45.4062C120.725 43.7989 120.468 42.115 120.468 40.3546C120.468 36.5276 121.142 33.0643 122.488 29.9644C124.112 28.7015 126.053 28.0701 128.311 28.0701Z" fill="#7908F4"/>
  <path fill-rule="evenodd" clip-rule="evenodd" d="M127.106 6.72778L131.096 5.25389C132.926 4.57773 134.833 4.23535 136.788 4.23535C139.401 4.23535 141.861 5.15853 143.761 7.09274C145.655 8.98001 146.522 11.3791 146.522 13.8822C146.522 15.4047 146.304 18.6856 145.916 23.4513V23.4546C145.535 28.1182 145.344 32.7198 145.344 37.2595C145.344 41.5649 145.781 46.2182 146.68 51.2295L147.45 55.5322L143.242 56.9138C141.29 57.5548 139.268 57.8698 137.199 57.8698C134.797 57.8698 132.384 57.038 130.632 55.0627C129.972 55.623 129.273 56.124 128.533 56.547L128.51 56.5604L128.487 56.5735C126.547 57.656 124.42 58.2179 122.183 58.2179C117.742 58.2179 113.825 56.5025 111.145 52.8968L111.128 52.8728L111.11 52.8487C108.805 49.6697 107.797 45.9195 107.797 41.9001C107.797 38.1178 108.479 34.494 109.876 31.0748L109.884 31.0583L109.891 31.0419C111.381 27.4694 113.633 24.4321 116.639 22.0226C119.761 19.5122 123.37 18.0412 127.365 18.0412C127.834 18.0412 128.298 18.0506 128.758 18.07C128.552 15.577 128.244 13.1752 127.836 10.8634L127.106 6.72778ZM133.968 18.7906C134.082 20.419 134.156 22.0787 134.189 23.7697C134.192 23.8969 134.194 24.0243 134.195 24.1518C132.691 23.6073 130.97 23.2758 129.032 23.1571C128.68 23.1356 128.32 23.121 127.954 23.1136C127.759 23.1097 127.563 23.1076 127.364 23.1076C124.734 23.1076 122.241 24.0552 119.886 25.9501C119.689 26.1079 119.496 26.2692 119.308 26.4339C118.717 26.9491 118.168 27.4985 117.659 28.082C117.488 28.2774 117.321 28.4768 117.16 28.6799C116.143 29.9579 115.304 31.3876 114.645 32.969C113.506 35.7534 112.938 38.7312 112.938 41.9023C112.938 45.0734 113.722 47.7418 115.293 49.9074C116.902 52.073 119.199 53.1559 122.182 53.1559C122.605 53.1559 123.019 53.1229 123.426 53.0572C123.443 53.0543 123.46 53.0514 123.478 53.0485C124.338 52.9031 125.162 52.6103 125.952 52.1697C126.756 51.7095 127.569 51.038 128.391 50.1552C128.812 49.7027 129.235 49.1947 129.661 48.6313C129.945 48.2677 130.236 47.8616 130.537 47.413C131.209 46.4076 131.924 45.1885 132.682 43.7558C132.686 43.7483 132.69 43.7407 132.694 43.7331C133.141 42.8876 133.602 41.968 134.078 40.9741C133.874 42.2105 133.711 43.2955 133.588 44.2293C133.587 44.2411 133.585 44.253 133.583 44.2648C133.519 44.7565 133.466 45.2058 133.426 45.6129C133.35 46.3527 133.312 46.9527 133.312 47.413C133.312 49.053 133.582 50.319 134.121 51.2112C134.653 52.0942 135.451 52.611 136.512 52.7614C136.73 52.7923 136.959 52.8078 137.199 52.8078C137.35 52.8078 137.5 52.8055 137.65 52.8011C139.02 52.7598 140.342 52.53 141.616 52.1117C140.673 46.8523 140.202 41.9023 140.202 37.2617C140.202 32.5823 140.398 27.845 140.791 23.0497C141.184 18.2156 141.381 15.1605 141.381 13.8844C141.381 12.5695 140.948 11.4868 140.085 10.6359C139.503 10.0372 138.815 9.63992 138.02 9.44428C137.683 9.36121 137.326 9.31447 136.95 9.30401C136.896 9.30251 136.842 9.30176 136.787 9.30176C135.452 9.30176 134.157 9.53378 132.901 9.99781C133.398 12.8198 133.754 15.7506 133.968 18.7906ZM134.122 29.5202C134.148 29.3746 134.171 29.2286 134.195 29.0823C133.657 28.8875 133.107 28.72 132.544 28.5797C131.095 28.2187 129.564 28.0381 127.953 28.0381C127.754 28.0381 127.558 28.0431 127.364 28.0532C125.657 28.1419 124.143 28.6209 122.82 29.4903C122.818 29.4919 122.816 29.4935 122.814 29.495C122.597 29.6371 122.388 29.7896 122.182 29.9524C122.001 30.378 121.831 30.8103 121.675 31.2495C120.678 34.0425 120.18 37.11 120.18 40.4519C120.18 42.2307 120.435 43.9323 120.946 45.5565C121.387 46.9608 122.077 47.758 123.018 47.9482C123.165 47.978 123.318 47.9929 123.478 47.9929C123.481 47.9929 123.485 47.9929 123.489 47.9928C123.509 47.9927 123.528 47.9925 123.547 47.9919C124.479 47.9655 125.472 47.413 126.528 46.3345C126.541 46.3208 126.555 46.3069 126.569 46.2931C127.174 45.667 127.801 44.8679 128.448 43.8959C128.826 43.3288 129.21 42.7028 129.602 42.018C129.912 41.4845 130.208 40.945 130.491 40.3997C130.643 40.1058 130.79 39.8102 130.935 39.5128C130.968 39.4432 131.002 39.3737 131.035 39.3039C132.5 36.2253 133.529 32.9641 134.122 29.5202ZM126.385 33.3463C125.811 35.0839 125.459 37.0042 125.356 39.1306C126.439 37.2118 127.314 35.2038 127.983 33.1007C127.974 33.1007 127.966 33.1007 127.957 33.1007C127.329 33.1007 126.818 33.1888 126.385 33.3463Z" fill="url(#paint8_linear_7422:14879)"/>
  <path d="M148.505 43.8631L149.091 35.5969C149.091 31.8848 148.544 28.364 147.449 25.0346C148.544 24.5753 149.893 24.3457 151.495 24.3457C154.621 24.3457 156.185 26.0487 156.185 29.4547C156.185 30.9855 155.971 33.1476 155.54 35.9414C155.11 38.7351 154.895 40.6676 154.895 41.7391C154.895 42.7724 154.915 43.5378 154.954 44.0353C154.993 44.4945 155.09 45.0495 155.247 45.7001C155.482 47.0012 156.244 47.6518 157.533 47.6518C158.863 47.6518 160.269 46.6376 161.755 44.6093C163.279 42.5428 164.491 40.2658 165.39 37.7783C166.327 35.2908 166.796 33.3199 166.796 31.8657C166.601 28.8424 166.269 26.5653 165.8 25.0346C167.05 24.5753 168.32 24.3457 169.61 24.3457C170.94 24.3457 172.034 24.7476 172.894 25.5512C173.793 26.3549 174.242 27.4264 174.242 28.7659C174.242 49.661 170.333 62.1942 162.516 66.3656C160.758 67.284 158.765 67.7433 156.537 67.7433C154.309 67.7433 152.354 67.1692 150.674 66.0212C149.033 64.8731 148.212 63.2658 148.212 61.1992C148.212 59.8215 148.739 58.6543 149.795 57.6975C150.85 56.7791 152.101 56.3198 153.547 56.3198C153.86 56.3198 154.25 56.3581 154.719 56.4346C154.602 56.9321 154.543 57.3722 154.543 57.7549C154.543 61.1227 155.735 62.8065 158.12 62.8065C159.566 62.8065 160.875 62.0411 162.048 60.5104C163.221 58.9796 164.158 57.1043 164.862 54.8847C166.229 50.3689 166.914 46.2741 166.914 42.6003C165.741 45.7001 164.139 48.2068 162.106 50.1202C160.113 51.9954 157.944 52.933 155.599 52.933C150.87 52.933 148.505 49.9097 148.505 43.8631Z" fill="#7908F4"/>
  <path fill-rule="evenodd" clip-rule="evenodd" d="M143.278 43.664L143.87 35.3169C143.853 32.1243 143.376 29.1485 142.462 26.3645L141.02 21.9748L145.345 20.1583C147.275 19.3479 149.376 19.0527 151.465 19.0527C153.991 19.0527 156.791 19.7659 158.861 22.0222C159.482 22.6996 159.961 23.4339 160.325 24.1962L159.571 21.7336L164.094 20.0712C165.916 19.4017 167.813 19.0527 169.756 19.0527C172.24 19.0527 174.66 19.8403 176.598 21.6334C178.688 23.5246 179.601 26.0195 179.601 28.5835C179.601 39.3821 178.601 48.3879 176.416 55.3974C174.244 62.3696 170.683 68.0265 165.068 71.0255L165.047 71.0364L165.026 71.0472C162.417 72.4107 159.553 73.0352 156.557 73.0352C153.346 73.0352 150.32 72.1892 147.679 70.3841L147.656 70.368L147.633 70.3516C144.544 68.1901 142.983 64.9926 142.983 61.3581C142.983 58.5201 144.142 56.0048 146.237 54.1037L146.276 54.0687L146.315 54.0345C146.318 54.0323 146.321 54.0301 146.323 54.0279C146.259 53.9507 146.196 53.8723 146.134 53.7927C143.948 50.9961 143.278 47.3985 143.278 43.8396V43.664ZM151.117 51.6193C151.795 52.1715 152.601 52.5589 153.536 52.7816C154.087 52.9128 154.682 52.9868 155.322 53.0036C155.416 53.0061 155.512 53.0073 155.608 53.0073C156.344 53.0073 157.064 52.9157 157.765 52.7322C158.293 52.5944 158.812 52.4047 159.32 52.1632C159.753 51.9575 160.18 51.7142 160.598 51.4333C161.137 51.0726 161.663 50.6498 162.178 50.165C163.208 49.1948 164.128 48.0737 164.94 46.8017C164.942 46.798 164.944 46.7943 164.946 46.7906C165.749 45.5303 166.444 44.1221 167.032 42.5659C167.032 43.8107 166.954 45.1034 166.799 46.4439C166.544 48.6498 166.078 50.9852 165.402 53.4502C165.402 53.4509 165.401 53.4516 165.401 53.4523C165.318 53.7572 165.231 54.0642 165.141 54.3732C165.082 54.5745 165.022 54.7767 164.961 54.9797C164.269 57.163 163.353 59.0165 162.213 60.5403C162.182 60.582 162.151 60.6233 162.119 60.6644C161.545 61.4143 160.939 61.9823 160.3 62.3687C160.287 62.3763 160.275 62.3839 160.262 62.3913C159.595 62.7869 158.891 62.9847 158.153 62.9847C157.821 62.9847 157.513 62.9525 157.227 62.8879C155.469 62.4909 154.574 60.8734 154.542 58.0352C154.542 57.9838 154.542 57.9322 154.542 57.88C154.542 57.7511 154.548 57.6159 154.561 57.4741C154.588 57.1904 154.64 56.881 154.72 56.5458C154.246 56.4685 153.851 56.4298 153.536 56.4298C152.467 56.4298 151.504 56.6782 150.647 57.1751C150.333 57.3573 150.033 57.573 149.747 57.822C149.726 57.8413 149.705 57.8606 149.684 57.88C149.575 57.9811 149.474 58.0845 149.377 58.19C148.558 59.0835 148.149 60.1403 148.149 61.3605C148.149 63.4488 148.977 65.073 150.635 66.2332C152.332 67.3933 154.305 67.9734 156.555 67.9734C156.673 67.9734 156.791 67.9721 156.908 67.9696C157.332 67.9603 157.746 67.9341 158.153 67.8912C159.769 67.7204 161.249 67.2838 162.593 66.5812C163.89 65.8887 165.079 64.968 166.163 63.8192C171.675 57.9761 174.431 46.2317 174.431 28.586C174.431 27.2325 173.978 26.1497 173.07 25.3375C172.515 24.8174 171.861 24.4638 171.11 24.2768C170.69 24.1719 170.238 24.1194 169.755 24.1194C168.961 24.1194 168.174 24.2056 167.395 24.3782C166.896 24.4886 166.401 24.6343 165.907 24.8154C166.381 26.3623 166.717 28.6634 166.914 31.7184C166.914 33.188 166.441 35.1796 165.493 37.6932C165.063 38.8846 164.562 40.0281 163.99 41.1238C163.94 41.2187 163.891 41.3131 163.839 41.4072C163.629 41.7997 163.409 42.1859 163.18 42.5659C162.758 43.2636 162.306 43.9404 161.823 44.5962C161.81 44.6148 161.795 44.6333 161.782 44.6517C160.906 45.8393 160.057 46.6764 159.235 47.1633C159.235 47.1635 159.234 47.1638 159.234 47.1641C158.664 47.5018 158.105 47.6706 157.561 47.6706C157.37 47.6706 157.189 47.6563 157.02 47.6279C156.043 47.4627 155.454 46.8196 155.253 45.6983C155.095 45.0409 154.996 44.4802 154.956 44.0161C154.916 43.5134 154.897 42.74 154.897 41.6958C154.897 40.613 155.114 38.66 155.549 35.837C155.983 33.0139 156.199 30.8289 156.199 29.2821C156.199 26.2787 154.997 24.5857 152.593 24.2031C152.242 24.1473 151.866 24.1194 151.464 24.1194C150.443 24.1194 149.525 24.2117 148.709 24.3962C148.23 24.5043 147.788 24.6441 147.38 24.8154C148.485 28.1799 149.037 31.7377 149.037 35.4889L148.445 43.8421C148.445 47.5745 149.335 50.1668 151.117 51.6193ZM160.83 35.4388C161.507 33.5541 161.718 32.4097 161.744 31.837C161.625 30.0611 161.461 28.7 161.284 27.6953C161.344 28.234 161.368 28.7658 161.368 29.281C161.368 30.9486 161.172 33.0294 160.83 35.4388Z" fill="url(#paint9_linear_7422:14879)"/>
  <path d="M30.1331 11.6445C33.5315 11.6445 36.5003 12.6251 39.0394 14.5863C41.5785 16.5476 42.848 19.0855 42.848 22.2004C42.848 23.854 42.3792 25.2191 41.4418 26.2959C40.5042 27.3726 39.3519 27.911 37.9847 27.911C36.6175 27.911 35.5237 27.738 34.7034 27.3919C34.8206 26.7766 34.8791 26.1229 34.8791 25.4307C34.8401 23.008 34.2346 21.0468 33.0628 19.5471C31.8909 18.0088 30.1721 17.2397 27.9064 17.2397C25.6799 17.2397 23.6095 17.9511 21.6954 19.374C20.5626 20.9891 19.6837 23.1041 19.0587 25.7191C18.4337 28.334 18.1212 30.9105 18.1212 33.4486C18.1212 37.6786 18.9415 41.2357 20.5822 44.1198C22.2619 46.9656 24.8595 48.3884 28.3751 48.3884C31.6174 48.3884 33.805 47.177 34.9378 44.7543C35.9925 42.6393 36.5198 39.8322 36.5198 36.3327C38.512 36.3327 40.1722 36.6981 41.5003 37.4287C42.8285 38.1208 43.4926 39.2745 43.4926 40.8896C43.4926 44.6582 41.8129 47.7923 38.4534 50.2919C35.094 52.753 31.3049 53.9836 27.0862 53.9836C21.5783 53.9836 17.3985 52.1955 14.5469 48.6191C11.6954 45.0043 10.2695 40.1205 10.2695 33.9677C10.2695 27.8149 12.0469 22.5658 15.6016 18.2203C19.1954 13.8364 24.0393 11.6445 30.1331 11.6445Z" fill="url(#paint10_linear_7422:14879)"/>
  <path fill-rule="evenodd" clip-rule="evenodd" d="M32.6909 28.4431L32.9699 26.9827C33.0645 26.4876 33.1152 25.9457 33.116 25.3533C33.0788 23.1945 32.5417 21.6332 31.6634 20.5124L31.6564 20.5034L31.6495 20.4944C30.8765 19.4827 29.739 18.9 27.925 18.9C26.1982 18.9 24.5703 19.4134 23.0035 20.5088C22.1014 21.8737 21.3442 23.7016 20.78 26.0554C20.1769 28.5718 19.8783 31.0378 19.8783 33.4564C19.8783 37.5017 20.6639 40.7671 22.1288 43.3414C23.4753 45.6077 25.4671 46.7278 28.4009 46.7278C29.8149 46.7278 30.8528 46.4642 31.6098 46.0462C32.3454 45.64 32.9259 45.0287 33.3486 44.1274L33.3584 44.1064L33.3688 44.0856C34.266 42.2917 34.7818 39.7621 34.7818 36.3763V34.5224H36.6705C38.911 34.5224 40.9303 34.9299 42.6306 35.8576C43.5764 36.353 44.3565 37.0533 44.8876 37.9735C45.4173 38.891 45.6388 39.9214 45.6388 40.9898C45.6388 45.4503 43.6014 49.1474 39.7726 51.988L39.767 51.9921L39.7613 51.9963C36.0218 54.728 31.7786 56.1005 27.0921 56.1005C21.0446 56.1005 16.1989 54.1169 12.8749 49.9601L12.8719 49.9563L12.8689 49.9526C9.64019 45.8714 8.12891 40.482 8.12891 33.9819C8.12891 27.3759 10.0528 21.6392 13.9605 16.8761L13.9617 16.8746C17.9951 11.9685 23.4701 9.52734 30.1858 9.52734C34.035 9.52734 37.4654 10.6452 40.3946 12.9011C43.4183 15.2299 44.9845 18.3323 44.9845 22.0684C44.9845 24.1075 44.3948 25.9407 43.1019 27.4213C41.8132 28.8972 40.1302 29.7039 38.1578 29.7039C36.6362 29.7039 35.2414 29.5161 34.0822 29.0284L32.6909 28.4431ZM41.725 37.4871C40.8205 36.9909 39.7644 36.6612 38.5566 36.4978C37.9637 36.4176 37.3342 36.3776 36.6681 36.3776C36.6681 39.9205 36.1328 42.7625 35.0619 44.9038C33.9117 47.3566 31.6906 48.583 28.3986 48.583C24.829 48.583 22.1915 47.1425 20.4861 44.2614C18.8203 41.3414 17.9873 37.7402 17.9873 33.4576C17.9873 30.888 18.3046 28.2794 18.9392 25.632C19.5738 22.9846 20.4662 20.8433 21.6164 19.2081C23.5598 17.7675 25.662 17.0473 27.9227 17.0473C30.223 17.0473 31.9682 17.826 33.1581 19.3833C34.3479 20.9017 34.9627 22.8872 35.0023 25.3401C35.0023 26.0408 34.9429 26.7027 34.8239 27.3256C35.6567 27.676 36.7673 27.8512 38.1555 27.8512C39.5436 27.8512 40.7137 27.3061 41.6656 26.216C42.6174 25.1259 43.0934 23.7437 43.0934 22.0696C43.0934 18.916 41.8044 16.3465 39.2264 14.3609C36.6484 12.3753 33.634 11.3826 30.1834 11.3826C23.9962 11.3826 19.0781 13.6017 15.4291 18.0401C11.8199 22.4396 10.0152 27.7539 10.0152 33.9831C10.0152 40.2124 11.4629 45.1569 14.3582 48.8166C17.2536 52.4374 21.4974 54.2478 27.0898 54.2478C31.3732 54.2478 35.2205 53.0019 38.6314 50.5102C42.0424 47.9795 43.7479 44.8065 43.7479 40.9911C43.7479 39.3559 43.0736 38.1879 41.725 37.4871Z" fill="#FF881B"/>
  <path fill-rule="evenodd" clip-rule="evenodd" d="M74.0456 39.4054C74.0456 34.8228 74.5782 30.2599 75.6432 25.7167C70.9093 24.097 66.2937 23.2871 61.7964 23.2871C57.3387 23.2871 53.7093 25.2031 50.9084 29.0352C48.1075 32.8277 46.707 37.2524 46.707 42.3091C46.707 45.6276 47.5354 48.4127 49.1923 50.6645C50.8492 52.8768 53.1767 53.983 56.1749 53.983C57.4373 53.983 58.6603 53.6274 59.8437 52.9164C62.4474 51.3361 65.1497 47.5436 67.9506 41.5387C67.4377 44.4622 67.1813 46.7733 67.1813 48.4719C67.1813 50.1312 67.4772 51.4152 68.0689 52.3237C68.6607 53.1929 69.7061 53.6274 71.2052 53.6274C72.7042 53.6274 74.1639 53.3904 75.5841 52.9164C74.5584 48.4522 74.0456 43.9486 74.0456 39.4054ZM62.5649 28.325C64.0246 28.325 65.7998 28.641 67.8907 29.2731C66.6283 34.0928 64.9122 38.5372 62.7425 42.6063C60.5728 46.6753 58.7976 48.71 57.4168 48.71C56.2333 48.71 55.3456 47.7816 54.7539 45.9247C54.2016 44.068 53.9255 42.231 53.9255 40.4137C53.9255 36.9767 54.5961 33.599 55.9374 30.2805C57.397 28.9768 59.6062 28.325 62.5649 28.325Z" fill="url(#paint11_linear_7422:14879)"/>
  <path fill-rule="evenodd" clip-rule="evenodd" d="M76.7152 24.1991L76.324 25.83C75.2853 30.1598 74.7671 34.5031 74.7671 38.8629C74.7671 43.1879 75.2665 47.4757 76.2663 51.729L76.6514 53.3666L75.0226 53.8979C73.4013 54.4269 71.7315 54.6918 70.021 54.6918C68.1755 54.6918 66.3882 54.157 65.3056 52.6028L65.2947 52.5872L65.2841 52.5713C64.6472 51.6155 64.302 50.471 64.1613 49.2199C62.6776 51.2603 61.1543 52.7873 59.5733 53.725L59.5696 53.7272L59.5661 53.7293C58.1104 54.5841 56.5477 55.0413 54.904 55.0413C51.3529 55.0413 48.4269 53.7243 46.3697 51.0397L46.3649 51.0334L46.3601 51.027C44.4122 48.4398 43.4922 45.298 43.4922 41.717C43.4922 36.3825 45.0118 31.6422 48.0853 27.5734C51.2313 23.3688 55.43 21.1699 60.558 21.1699C65.3109 21.1699 70.1595 22.0069 75.0955 23.6574L76.7152 24.1991ZM49.6091 28.6682C46.7921 32.3962 45.3835 36.7454 45.3835 41.716C45.3835 44.9779 46.2167 47.7157 47.8831 49.9291C49.5496 52.1038 51.8905 53.191 54.906 53.191C56.1757 53.191 57.4056 52.8416 58.5959 52.1426C60.4083 51.0676 62.2681 48.9509 64.1755 45.7928C65.0242 44.3876 65.8822 42.7763 66.7496 40.9588C66.3672 43.0889 66.1266 44.8882 66.0277 46.3569C65.9932 46.8695 65.9759 47.3418 65.9759 47.7739C65.9759 49.4049 66.2735 50.6669 66.8686 51.5601C67.4638 52.4144 68.5152 52.8416 70.023 52.8416C71.5307 52.8416 72.9988 52.6086 74.4271 52.1426C73.3955 47.7545 72.8797 43.3275 72.8797 38.8618C72.8797 34.3572 73.4153 29.8721 74.4866 25.4063C69.7254 23.8142 65.0832 23.0181 60.56 23.0181C56.0765 23.0181 52.4262 24.9014 49.6091 28.6682ZM64.3574 30.2075C63.1657 29.9418 62.1612 29.8203 61.3311 29.8203C58.8647 29.8203 57.2543 30.3025 56.2409 31.0231C55.0971 33.9318 54.5312 36.8722 54.5312 39.8539C54.5312 41.4444 54.7773 43.0665 55.2804 44.7254C55.53 45.4849 55.7856 45.8717 55.9557 46.0455C56.0308 46.1223 56.0753 46.1479 56.1061 46.1561C56.1546 46.1318 56.4837 45.9949 57.1111 45.2921C57.8661 44.4465 58.7793 43.0879 59.843 41.1381C61.6772 37.7762 63.1834 34.1341 64.3574 30.2075ZM53.4778 45.2726C52.9223 43.4474 52.6445 41.6418 52.6445 39.8554C52.6445 36.477 53.3191 33.1568 54.6681 29.8949C56.1361 28.6134 58.358 27.9727 61.3338 27.9727C62.8019 27.9727 64.5874 28.2833 66.6903 28.9046C65.4205 33.6422 63.6946 38.0108 61.5124 42.0107C59.3301 46.0104 57.5446 48.0103 56.156 48.0103C54.9656 48.0103 54.0729 47.0978 53.4778 45.2726Z" fill="#FF881B"/>
  <path d="M107.826 29.6881L107.246 42.7249C107.246 46.3199 107.787 49.8359 108.868 53.2729C107.787 53.7469 106.551 53.984 105.161 53.984C101.878 53.984 100.237 52.1074 100.237 48.3544C100.237 46.6557 100.449 43.8113 100.874 39.8212C101.298 35.7916 101.511 33.2633 101.511 32.2362C101.511 30.2608 100.643 29.2732 98.9043 29.2732C97.6296 29.2732 96.1821 30.2213 94.5596 32.1177C92.9762 33.9744 91.6052 36.0682 90.4466 38.399C89.3266 40.6903 88.67 42.5866 88.477 44.0879C88.6314 47.1693 89.0176 50.1125 89.6355 52.9173C88.3997 53.3914 87.106 53.6284 85.7542 53.6284C84.4411 53.6284 83.3597 53.3124 82.5101 52.6803C81.6991 52.0087 81.2936 51.1001 81.2936 49.9544C81.2936 48.7692 81.4673 46.6754 81.815 43.673C82.1625 40.631 82.3363 37.6287 82.3363 34.6657C82.3363 31.6633 81.8922 28.2263 81.0039 24.3548C82.2397 23.8807 83.5529 23.6436 84.9432 23.6436C86.3335 23.6436 87.4535 24.0584 88.3031 24.8881C89.1914 25.7177 89.6355 26.7448 89.6355 27.9695C89.6355 29.1942 89.4811 31.1497 89.1721 33.8361C90.6396 31.0312 92.5514 28.5819 94.9072 26.488C97.2626 24.3548 99.6187 23.2881 101.975 23.2881C105.875 23.2881 107.826 25.4214 107.826 29.6881Z" fill="url(#paint12_linear_7422:14879)"/>
  <path fill-rule="evenodd" clip-rule="evenodd" d="M109.503 29.352L108.906 42.1662C108.911 45.4924 109.436 48.7437 110.484 51.9266L111.012 53.5295L109.428 54.1928C108.042 54.7736 106.51 55.0413 104.868 55.0413C102.83 55.0413 100.971 54.4752 99.6581 53.0417C98.3809 51.6473 97.9087 49.7404 97.9087 47.6584C97.9087 45.8786 98.1391 42.9943 98.576 39.071C99.0167 35.0747 99.2203 32.7025 99.2203 31.8147C99.2203 31.0837 99.0482 30.8806 99.0358 30.8674L99.0348 30.8669C99.03 30.8613 99.0128 30.8423 98.9469 30.8184C98.8675 30.7895 98.7069 30.7514 98.4306 30.7514C97.9976 30.7514 96.9957 31.1161 95.384 32.9155C93.8656 34.6171 92.5422 36.5445 91.4174 38.7052C90.3542 40.784 89.7868 42.3822 89.6005 43.5476C89.7603 46.4142 90.141 49.1433 90.7391 51.7371L91.1017 53.3092L89.5576 53.875C88.0684 54.4208 86.5116 54.6918 84.8994 54.6918C83.2494 54.6918 81.7191 54.3092 80.4484 53.4061L80.4088 53.378L80.3707 53.3479C79.0564 52.3082 78.4172 50.8684 78.4172 49.2312C78.4172 47.944 78.6098 45.7865 78.9667 42.8407C79.316 39.92 79.4902 37.0408 79.4902 34.203C79.4902 31.4312 79.06 28.199 78.1692 24.4901L77.7891 22.9071L79.3471 22.3361C80.8423 21.7882 82.4197 21.5194 84.0649 21.5194C85.8795 21.5194 87.526 22.047 88.8134 23.24C89.9444 24.2552 90.6044 25.5278 90.7531 26.9797C91.4767 26.2068 92.249 25.4716 93.0698 24.7742C95.7205 22.4834 98.5702 21.1699 101.59 21.1699C103.922 21.1699 106.01 21.7851 107.487 23.3288C108.942 24.8491 109.503 26.9577 109.503 29.31V29.352ZM94.3186 26.1635C92.9603 27.3167 91.7455 28.5796 90.6742 29.9523C89.8336 31.0295 89.0813 32.1741 88.4173 33.3864C88.6158 31.7372 88.7524 30.3682 88.827 29.2795C88.8718 28.6249 88.8942 28.0717 88.8942 27.6198C88.8942 26.4159 88.4372 25.4063 87.5232 24.5908C86.6489 23.7753 85.4965 23.3675 84.0659 23.3675C82.6353 23.3675 81.2843 23.6005 80.0125 24.0666C80.9265 27.8722 81.3836 31.2506 81.3836 34.2019C81.3836 37.1144 81.2047 40.0656 80.8471 43.0558C80.4895 46.007 80.3106 48.0652 80.3106 49.2302C80.3106 50.3563 80.7279 51.2495 81.5623 51.9095C82.4367 52.531 83.5493 52.8416 84.9005 52.8416C86.2913 52.8416 87.6226 52.6086 88.8942 52.1426C88.2584 49.3854 87.861 46.4924 87.702 43.4635C87.9007 41.9878 88.5763 40.1239 89.7287 37.8716C90.9209 35.5805 92.3316 33.5223 93.9609 31.6971C95.6298 29.8332 97.1201 28.9012 98.4317 28.9012C100.219 28.9012 101.114 29.8721 101.114 31.8136C101.114 32.8233 100.895 35.3086 100.458 39.2695C100.021 43.1916 99.8025 45.9876 99.8025 47.6574C99.8025 51.3465 101.492 53.191 104.869 53.191C105.575 53.191 106.242 53.1343 106.87 53.0209C106.993 52.9988 107.115 52.9744 107.235 52.9478C107.745 52.8351 108.227 52.6832 108.684 52.4921C107.572 49.1137 107.015 45.6575 107.015 42.1238L107.611 29.3089C107.611 25.115 105.604 23.0181 101.591 23.0181C99.1668 23.0181 96.7425 24.0666 94.3186 26.1635Z" fill="#FF881B"/>
  <path fill-rule="evenodd" clip-rule="evenodd" d="M137.22 9.52734C135.873 9.52734 134.567 9.75697 133.298 10.2162C134.091 14.6172 134.527 19.2861 134.606 24.2229C132.665 23.534 130.367 23.1896 127.713 23.1896C125.06 23.1896 122.544 24.1272 120.168 26.0025C117.831 27.8394 116.068 30.1546 114.88 32.9484C113.731 35.7038 113.156 38.6505 113.156 41.7886C113.156 44.9268 113.949 47.5673 115.534 49.7104C117.157 51.8535 119.475 52.925 122.485 52.925C123.831 52.925 125.099 52.5998 126.288 51.9492C127.515 51.2604 128.764 50.0931 130.031 48.4475C131.338 46.802 132.824 44.2762 134.487 40.8701C133.972 43.9318 133.715 46.0557 133.715 47.242C133.715 50.8012 135.022 52.5806 137.636 52.5806C139.18 52.5806 140.666 52.351 142.092 51.8918C141.141 46.6872 140.666 41.7886 140.666 37.1963C140.666 32.5657 140.864 27.8777 141.261 23.1322C141.656 18.3485 141.854 15.3252 141.854 14.0623C141.854 12.7611 141.419 11.6895 140.548 10.8476C139.676 9.96742 138.567 9.52734 137.22 9.52734ZM128.311 28.0701C130.568 28.0701 132.668 28.4145 134.609 29.1034C133.856 33.6957 132.311 37.9628 129.975 41.9045C127.677 45.8462 125.617 47.8171 123.795 47.8171C122.607 47.8171 121.755 47.0134 121.24 45.4061C120.725 43.7988 120.468 42.1149 120.468 40.3545C120.468 36.5276 121.142 33.0642 122.488 29.9644C124.112 28.7015 126.053 28.0701 128.311 28.0701Z" fill="url(#paint13_linear_7422:14879)"/>
  <path fill-rule="evenodd" clip-rule="evenodd" d="M132.141 8.76215L133.617 8.22513C135.107 7.68286 136.651 7.41016 138.237 7.41016C140.067 7.41016 141.688 8.03 142.95 9.30198C144.209 10.5321 144.81 12.0971 144.81 13.847C144.81 15.2155 144.602 18.359 144.204 23.1777V23.1789C143.809 27.9358 143.612 32.6331 143.612 37.2708C143.612 41.7986 144.079 46.6502 145.02 51.8297L145.305 53.3974L143.749 53.9009C142.113 54.4303 140.412 54.693 138.656 54.693C136.834 54.693 135.217 54.0348 134.141 52.5644C133.463 51.6363 133.086 50.4973 132.916 49.2402C132.778 49.4263 132.643 49.6046 132.507 49.7754C131.148 51.5467 129.712 52.9368 128.173 53.8042L128.164 53.8091L128.155 53.8138C126.676 54.6275 125.076 55.0417 123.385 55.0417C119.812 55.0417 116.877 53.7264 114.844 51.0317L114.837 51.023L114.832 51.0142C112.963 48.475 112.082 45.4071 112.082 41.9207C112.082 38.5206 112.702 35.3016 113.956 32.2803L113.959 32.2743L113.962 32.2683C115.274 29.1665 117.239 26.5679 119.849 24.5064C122.528 22.3836 125.476 21.2435 128.655 21.2435C130.431 21.2435 132.093 21.388 133.631 21.6896C133.466 17.6895 133.059 13.883 132.411 10.269L132.141 8.76215ZM135.55 22.1674C135.573 22.8181 135.589 23.4734 135.6 24.1335C134.997 23.9185 134.36 23.7366 133.688 23.5878C132.181 23.2541 130.504 23.0873 128.653 23.0873C125.978 23.0873 123.443 24.0367 121.047 25.9354C118.692 27.7953 116.916 30.1396 115.718 32.9683C114.56 35.7582 113.98 38.7419 113.98 41.9193C113.98 45.0967 114.78 47.7703 116.377 49.9403C118.013 52.1103 120.349 53.1952 123.383 53.1952C124.74 53.1952 126.017 52.8659 127.216 52.2071C128.453 51.5097 129.711 50.3278 130.989 48.6616C131.584 47.9083 132.217 46.9728 132.885 45.8551C133.696 44.5007 134.561 42.8788 135.48 40.9893C135.085 43.348 134.84 45.157 134.746 46.4165C134.716 46.8123 134.702 47.1538 134.702 47.441C134.702 51.0447 136.019 52.8465 138.654 52.8465C140.211 52.8465 141.708 52.614 143.146 52.149C142.187 46.8792 141.708 41.9193 141.708 37.2694C141.708 32.5808 141.908 27.8341 142.307 23.0292C142.706 18.1855 142.906 15.1244 142.906 13.8456C142.906 12.5282 142.467 11.4432 141.589 10.5907C140.71 9.69949 139.592 9.25391 138.235 9.25391C136.877 9.25391 135.56 9.4864 134.282 9.95136C134.975 13.8191 135.398 17.8911 135.55 22.1674ZM129.278 41.1247L129.282 41.1188C131.254 37.7777 132.638 34.1924 133.435 30.3543C132.129 30.0359 130.739 29.8734 129.255 29.8734C127.554 29.8734 126.143 30.297 124.949 31.1118C123.827 33.8828 123.25 36.9931 123.25 40.4666C123.25 42.0727 123.484 43.5932 123.944 45.0359C124.15 45.6824 124.367 45.9767 124.489 46.0924C124.543 46.1427 124.575 46.1568 124.586 46.1615C124.598 46.1661 124.63 46.1775 124.703 46.1775C124.894 46.1775 125.415 46.0654 126.3 45.215C127.16 44.388 128.157 43.0566 129.275 41.1305L129.278 41.1247ZM123.384 29.9437C125.02 28.665 126.977 28.0256 129.253 28.0256C131.528 28.0256 133.644 28.3744 135.6 29.0719C134.842 33.7217 133.285 38.0423 130.93 42.0334C128.614 46.0245 126.538 48.0201 124.701 48.0201C123.504 48.0201 122.645 47.2064 122.126 45.5789C121.607 43.9515 121.348 42.2465 121.348 40.464C121.348 36.5891 122.027 33.0824 123.384 29.9437Z" fill="#FF881B"/>
  <path d="M148.505 43.8632L149.091 35.5969C149.091 31.8848 148.544 28.364 147.449 25.0346C148.544 24.5753 149.893 24.3457 151.495 24.3457C154.621 24.3457 156.185 26.0488 156.185 29.4547C156.185 30.9855 155.971 33.1477 155.54 35.9414C155.11 38.7351 154.895 40.6676 154.895 41.7392C154.895 42.7724 154.915 43.5378 154.954 44.0353C154.993 44.4946 155.09 45.0495 155.247 45.7001C155.482 47.0012 156.244 47.6518 157.533 47.6518C158.863 47.6518 160.269 46.6376 161.755 44.6094C163.279 42.5428 164.491 40.2658 165.39 37.7783C166.327 35.2908 166.796 33.3199 166.796 31.8657C166.601 28.8424 166.269 26.5653 165.8 25.0346C167.05 24.5753 168.32 24.3457 169.61 24.3457C170.94 24.3457 172.034 24.7476 172.894 25.5513C173.793 26.3549 174.242 27.4265 174.242 28.7659C174.242 49.661 170.333 62.1942 162.516 66.3656C160.758 67.2841 158.765 67.7433 156.537 67.7433C154.309 67.7433 152.354 67.1693 150.674 66.0212C149.033 64.8731 148.212 63.2658 148.212 61.1992C148.212 59.8215 148.739 58.6543 149.795 57.6976C150.85 56.7791 152.101 56.3199 153.547 56.3199C153.86 56.3199 154.251 56.3581 154.719 56.4347C154.602 56.9322 154.543 57.3722 154.543 57.7549C154.543 61.1227 155.735 62.8066 158.12 62.8066C159.566 62.8066 160.876 62.0412 162.048 60.5104C163.221 58.9796 164.158 57.1043 164.862 54.8847C166.229 50.3689 166.914 46.2741 166.914 42.6003C165.741 45.7001 164.139 48.2068 162.106 50.1202C160.113 51.9954 157.944 52.933 155.599 52.933C150.87 52.933 148.505 49.9097 148.505 43.8632Z" fill="url(#paint14_linear_7422:14879)"/>
  <path fill-rule="evenodd" clip-rule="evenodd" d="M146.796 43.7697L147.385 35.4007C147.378 31.8457 146.856 28.4933 145.826 25.3345L145.305 23.7351L146.869 23.0732C148.266 22.4821 149.888 22.2266 151.668 22.2266C153.582 22.2266 155.344 22.7607 156.591 24.1314C157.806 25.4648 158.249 27.2816 158.249 29.2448C158.249 30.9334 158.016 33.2303 157.58 36.0876C157.147 38.9259 156.953 40.7546 156.953 41.6831C156.953 42.716 156.973 43.4304 157.006 43.8606C157.035 44.2038 157.113 44.6686 157.256 45.271L157.268 45.3217L157.278 45.373C157.327 45.6461 157.393 45.7537 157.415 45.7826C157.447 45.7966 157.537 45.8247 157.733 45.8247C158.088 45.8247 159.012 45.499 160.454 43.5142L160.457 43.509C161.88 41.564 163.016 39.4159 163.862 37.0571L163.865 37.0453L163.87 37.0335C164.774 34.6182 165.155 32.8843 165.167 31.7402C164.973 28.7511 164.651 26.6344 164.245 25.2994L163.744 23.6472L165.379 23.0415C166.838 22.5016 168.336 22.2266 169.863 22.2266C171.61 22.2266 173.185 22.7722 174.436 23.9435C175.767 25.1505 176.384 26.7506 176.384 28.5472C176.384 39.2135 175.397 47.8797 173.359 54.4716C171.324 61.0498 168.162 65.8017 163.633 68.2383L163.626 68.2423L163.618 68.2462C161.55 69.3349 159.24 69.8583 156.732 69.8583C154.147 69.8583 151.804 69.1801 149.774 67.7826L149.766 67.7769L149.757 67.7709C147.592 66.2436 146.502 64.0428 146.502 61.387C146.502 59.4653 147.258 57.7968 148.691 56.4875L148.705 56.4748L148.719 56.4624C150.046 55.2976 151.631 54.6773 153.394 54.6078C151.616 54.2038 150.098 53.3076 148.962 51.8433C147.416 49.8503 146.796 47.0785 146.796 43.8337V43.7697ZM155.937 54.8601L157.177 55.0641L156.729 56.9764C156.634 57.3862 156.601 57.688 156.601 57.8983C156.601 59.447 156.883 60.2808 157.165 60.6833C157.362 60.9631 157.639 61.168 158.323 61.168C158.994 61.168 159.814 60.8426 160.773 59.5811C161.796 58.2344 162.65 56.5388 163.305 54.4562C163.676 53.2214 163.994 52.0237 164.26 50.8627C164.052 51.0801 163.84 51.2918 163.623 51.4979L163.622 51.4985C161.376 53.6282 158.802 54.821 155.937 54.8601ZM164.976 46.9512C165.819 45.6473 166.545 44.1821 167.155 42.5555C167.155 44.156 167.027 45.8353 166.773 47.5935C166.436 49.922 165.877 52.3888 165.094 54.9939C164.387 57.2414 163.446 59.1401 162.268 60.69C161.09 62.24 159.775 63.015 158.323 63.015C155.928 63.015 154.73 61.31 154.73 57.9001C154.73 57.771 154.737 57.6353 154.75 57.4934C154.777 57.2092 154.829 56.8991 154.907 56.5633C154.437 56.4858 154.044 56.447 153.729 56.447C153.485 56.447 153.246 56.4602 153.013 56.4866C151.86 56.6168 150.843 57.0686 149.962 57.842C148.901 58.8107 148.371 59.9926 148.371 61.3875C148.371 63.4799 149.196 65.1074 150.845 66.2699C152.532 67.4324 154.495 68.0135 156.732 68.0135C158.97 68.0135 160.972 67.5486 162.738 66.6186C170.589 62.395 174.515 49.7047 174.515 28.5478C174.515 27.1916 174.064 26.1066 173.161 25.2929C172.298 24.4792 171.198 24.0723 169.863 24.0723C169.181 24.0723 168.505 24.1367 167.835 24.2655C167.728 24.2859 167.621 24.308 167.516 24.3316C167.02 24.4422 166.526 24.5883 166.036 24.7698C166.507 26.3198 166.84 28.6253 167.037 31.6865C167.037 33.1589 166.566 35.1545 165.624 37.6732C164.721 40.1919 163.504 42.4974 161.973 44.5899C160.481 46.6436 159.069 47.6704 157.733 47.6704C156.439 47.6704 155.673 47.0117 155.438 45.6942C155.28 45.0354 155.182 44.4736 155.143 44.0086C155.103 43.5048 155.084 42.7299 155.084 41.6837C155.084 40.5987 155.3 38.6419 155.731 35.8132C156.164 32.9846 156.379 30.7952 156.379 29.2453C156.379 25.7967 154.809 24.0723 151.669 24.0723C150.846 24.0723 150.091 24.133 149.402 24.2544C149.24 24.2828 149.082 24.3146 148.928 24.3498C148.453 24.4581 148.012 24.5981 147.605 24.7698C148.705 28.1409 149.254 31.7058 149.254 35.4645L148.666 43.8343C148.666 49.9565 151.041 53.0177 155.791 53.0177C158.146 53.0177 160.325 52.0684 162.327 50.1697C163.31 49.2363 164.193 48.1635 164.976 46.9512Z" fill="#FF881B"/>
  <path d="M61.1969 75.0646L61.1001 75.5532L61.5883 75.6518C62.0263 75.7404 62.4329 75.7873 62.8048 75.7873C64.1533 75.7873 65.295 75.3005 66.193 74.3306L66.1931 74.3306L66.1984 74.3247C67.0848 73.3362 67.5263 72.1423 67.5263 70.7707C67.5263 69.8298 67.3153 68.985 66.8752 68.2545C66.4363 67.5258 65.7865 66.9391 64.9515 66.4862C63.3457 65.5729 61.4512 65.127 59.2869 65.127C56.335 65.127 53.6762 66.0274 51.3268 67.8224L51.3268 67.8224L51.3244 67.8242C48.9781 69.6389 47.7779 71.9547 47.7779 74.7436C47.7779 76.5232 48.3097 78.0402 49.3945 79.2581L49.3944 79.2582L49.4034 79.2678C50.477 80.4113 51.7681 81.2751 53.2702 81.8589L53.2702 81.8589C54.7102 82.4185 56.1503 82.9503 57.5905 83.4539C58.9776 83.9391 60.136 84.5806 61.0756 85.3718L61.0756 85.3719L61.0808 85.3761C61.9868 86.1184 62.429 87.0502 62.429 88.2094C62.429 89.3574 62.0291 90.246 61.2378 90.9245C60.4383 91.61 59.363 91.975 57.9625 91.975C56.5776 91.975 55.5463 91.5777 54.8057 90.8326C54.0864 90.0542 53.703 88.9893 53.703 87.5821C53.703 86.9665 53.8048 86.2578 54.0176 85.4515L54.1183 85.0694L53.77 84.8831C53.1895 84.5725 52.3564 84.4475 51.3406 84.4475C50.2139 84.4475 49.2416 84.9272 48.442 85.8285L48.4413 85.8292C47.6606 86.7127 47.2812 87.811 47.2812 89.0877C47.2812 91.5217 48.2174 93.4599 50.0918 94.843L50.0917 94.8431L50.0992 94.8484C51.9624 96.1717 54.206 96.8229 56.8037 96.8229C60.0273 96.8229 62.8055 95.8678 65.1102 93.9472C67.4613 92.0113 68.6438 89.4856 68.6438 86.4112C68.6438 84.7983 68.2657 83.3775 67.4898 82.1702C66.7322 80.964 65.7748 80.0499 64.6146 79.447C63.5479 78.8518 62.3859 78.3005 61.1297 77.7928L61.1297 77.7928C59.8784 77.2871 58.707 76.8642 57.6162 76.525C56.6195 76.2068 55.7972 75.7751 55.1377 75.2381C54.5185 74.7071 54.2411 74.1161 54.2411 73.4472C54.2411 72.304 54.5734 71.3396 55.23 70.529C55.9513 70.1114 56.8412 69.8907 57.9212 69.8907C59.1507 69.8907 59.9819 70.2069 60.511 70.7528C61.0429 71.3016 61.3529 72.1683 61.3529 73.4472C61.3529 74.0011 61.3008 74.5401 61.1969 75.0646Z" fill="#FFF400" stroke="#4E049D"/>
  <path d="M91.417 79.6994L91.4176 79.6876V79.6757C91.4176 78.1401 91.0433 76.8959 90.2066 76.0378C89.3677 75.1774 88.1474 74.7906 86.6419 74.7906C84.5932 74.7906 82.5759 75.7017 80.5976 77.4316C79.2175 78.6368 78.0673 79.9384 77.1509 81.3368C77.2116 79.7756 77.3377 77.8706 77.5301 75.6195C77.84 72.323 77.9978 70.1207 77.9978 69.0376C77.9978 67.8762 77.6373 66.9082 76.8703 66.2C76.1477 65.4795 75.2286 65.127 74.1534 65.127C73.1361 65.127 72.1475 65.2994 71.1901 65.6437L70.7924 65.7868L70.8673 66.2028C71.5375 69.9254 71.8753 74.6573 71.8753 80.4066C71.8753 82.1131 71.7222 84.3937 71.4126 87.2552C71.1027 90.0931 70.944 92.0282 70.944 93.0342C70.944 94.1353 71.2403 95.0507 71.9176 95.6835C72.5885 96.3103 73.5482 96.5795 74.7037 96.5795C75.8002 96.5795 76.8197 96.409 77.7567 96.0605L78.1395 95.9182L78.0764 95.5147C77.579 92.3342 77.3021 90.3593 77.2387 89.5616C77.489 87.9763 78.4243 85.9581 80.1118 83.4905L80.1132 83.4884C80.9593 82.2379 81.7496 81.3273 82.4803 80.7338C83.2118 80.1396 83.8478 79.8915 84.3982 79.8915C84.9765 79.8915 85.3204 80.0435 85.5265 80.2623C85.738 80.4866 85.8879 80.869 85.8879 81.5029C85.8879 82.0293 85.7251 83.5185 85.3844 86.0236C85.0437 88.5289 84.8718 90.7179 84.8718 92.5875C84.8718 93.9082 85.1974 94.9907 85.9366 95.7403C86.677 96.4911 87.7484 96.8229 89.0549 96.8229C90.0193 96.8229 90.9671 96.6494 91.8957 96.305L92.3502 96.1364L92.1958 95.677C91.3947 93.2917 90.9956 90.9402 90.9942 88.6202L91.417 79.6994Z" fill="#FFF400" stroke="#4E049D"/>
  <mask id="path-33-outside-1_7422:14879" maskUnits="userSpaceOnUse" x="93.9336" y="74.1543" width="21" height="24" fill="black">
    <rect fill="white" x="93.9336" y="74.1543" width="21" height="24"/>
    <path fill-rule="evenodd" clip-rule="evenodd" d="M96.9583 93.7669C98.3072 95.471 100.41 96.324 103.265 96.324C106.119 96.324 108.481 95.2454 110.349 93.0883C112.219 90.9047 113.153 88.2553 113.153 85.1398C113.153 78.4827 110.272 75.1543 104.51 75.1543C101.708 75.1543 99.4103 76.2859 97.6198 78.5493C95.829 80.8127 94.9336 83.4888 94.9336 86.5777C94.9336 89.6399 95.6083 92.0364 96.9583 93.7669ZM99.7609 84.1783C99.7609 82.6339 99.9942 81.0895 100.462 79.545C101.577 78.8793 102.889 78.5465 104.393 78.5465C107.015 78.5465 108.326 81.3824 108.326 87.0541C108.326 89.0511 108.04 90.529 107.469 91.4876C106.924 92.4462 105.769 92.9255 104.004 92.9255C102.266 92.9255 101.097 92.0601 100.501 90.3293C100.215 89.4773 100.02 88.6251 99.9165 87.7731C99.8128 86.9209 99.7609 85.7227 99.7609 84.1783Z"/>
  </mask>
  <path fill-rule="evenodd" clip-rule="evenodd" d="M96.9583 93.7669C98.3072 95.471 100.41 96.324 103.265 96.324C106.119 96.324 108.481 95.2454 110.349 93.0883C112.219 90.9047 113.153 88.2553 113.153 85.1398C113.153 78.4827 110.272 75.1543 104.51 75.1543C101.708 75.1543 99.4103 76.2859 97.6198 78.5493C95.829 80.8127 94.9336 83.4888 94.9336 86.5777C94.9336 89.6399 95.6083 92.0364 96.9583 93.7669ZM99.7609 84.1783C99.7609 82.6339 99.9942 81.0895 100.462 79.545C101.577 78.8793 102.889 78.5465 104.393 78.5465C107.015 78.5465 108.326 81.3824 108.326 87.0541C108.326 89.0511 108.04 90.529 107.469 91.4876C106.924 92.4462 105.769 92.9255 104.004 92.9255C102.266 92.9255 101.097 92.0601 100.501 90.3293C100.215 89.4773 100.02 88.6251 99.9165 87.7731C99.8128 86.9209 99.7609 85.7227 99.7609 84.1783Z" fill="#FFF400"/>
  <path d="M96.9583 93.7669L96.1698 94.382L96.1742 94.3875L96.9583 93.7669ZM110.349 93.0883L111.105 93.743L111.109 93.7386L110.349 93.0883ZM97.6198 78.5493L98.404 79.1698L98.404 79.1697L97.6198 78.5493ZM100.462 79.545L99.9494 78.6863L99.6168 78.8847L99.5047 79.2553L100.462 79.545ZM107.469 91.4876L106.61 90.9757L106.605 90.9844L106.6 90.9932L107.469 91.4876ZM100.501 90.3293L99.5531 90.6476L99.5556 90.655L100.501 90.3293ZM99.9165 87.7731L98.9238 87.8939L98.9238 87.8939L99.9165 87.7731ZM103.265 95.324C100.612 95.324 98.8456 94.54 97.7423 93.1462L96.1742 94.3875C97.7688 96.402 100.207 97.324 103.265 97.324V95.324ZM109.593 92.4336C107.915 94.3713 105.829 95.324 103.265 95.324V97.324C106.409 97.324 109.047 96.1195 111.105 93.743L109.593 92.4336ZM112.153 85.1398C112.153 88.0385 111.29 90.4514 109.59 92.4379L111.109 93.7386C113.147 91.358 114.153 88.4721 114.153 85.1398H112.153ZM104.51 76.1543C107.196 76.1543 109.04 76.9234 110.236 78.3051C111.456 79.7144 112.153 81.9329 112.153 85.1398H114.153C114.153 81.6897 113.409 78.9154 111.748 76.9962C110.063 75.0494 107.586 74.1543 104.51 74.1543V76.1543ZM98.404 79.1697C100.011 77.1379 102.024 76.1543 104.51 76.1543V74.1543C101.392 74.1543 98.8092 75.4339 96.8355 77.9289L98.404 79.1697ZM95.9336 86.5777C95.9336 83.6971 96.7631 81.2438 98.404 79.1698L96.8355 77.9288C94.8948 80.3817 93.9336 83.2805 93.9336 86.5777H95.9336ZM97.7467 93.1518C96.579 91.6549 95.9336 89.5036 95.9336 86.5777H93.9336C93.9336 89.7761 94.6377 92.4179 96.1698 94.382L97.7467 93.1518ZM99.5047 79.2553C99.0099 80.8896 98.7609 82.5316 98.7609 84.1783H100.761C100.761 82.7362 100.979 81.2893 101.419 79.8348L99.5047 79.2553ZM104.393 77.5465C102.737 77.5465 101.243 77.9143 99.9494 78.6863L100.974 80.4038C101.912 79.8444 103.04 79.5465 104.393 79.5465V77.5465ZM109.326 87.0541C109.326 84.1727 108.998 81.8707 108.25 80.2539C107.871 79.4328 107.364 78.7472 106.699 78.2671C106.023 77.7797 105.241 77.5465 104.393 77.5465V79.5465C104.857 79.5465 105.222 79.6678 105.529 79.8893C105.846 80.1182 106.159 80.4961 106.435 81.093C106.998 82.312 107.326 84.2638 107.326 87.0541H109.326ZM108.328 91.9995C109.039 90.8067 109.326 89.1084 109.326 87.0541H107.326C107.326 88.9938 107.042 90.2513 106.61 90.9757L108.328 91.9995ZM104.004 93.9255C105.9 93.9255 107.526 93.4111 108.338 91.982L106.6 90.9932C106.322 91.4814 105.638 91.9255 104.004 91.9255V93.9255ZM99.5556 90.655C99.9025 91.6618 100.445 92.4992 101.229 93.0799C102.017 93.6638 102.964 93.9255 104.004 93.9255V91.9255C103.306 91.9255 102.8 91.7545 102.42 91.473C102.036 91.1884 101.696 90.7276 101.447 90.0036L99.5556 90.655ZM98.9238 87.8939C99.036 88.8161 99.2465 89.7344 99.5531 90.6476L101.449 90.011C101.184 89.2201 101.004 88.4341 100.909 87.6522L98.9238 87.8939ZM98.7609 84.1783C98.7609 85.7367 98.8128 86.982 98.9238 87.8939L100.909 87.6523C100.813 86.8599 100.761 85.7088 100.761 84.1783H98.7609Z" fill="#4E049D" mask="url(#path-33-outside-1_7422:14879)"/>
  <mask id="path-35-outside-2_7422:14879" maskUnits="userSpaceOnUse" x="114.371" y="74.1543" width="24" height="34" fill="black">
    <rect fill="white" x="114.371" y="74.1543" width="24" height="34"/>
    <path fill-rule="evenodd" clip-rule="evenodd" d="M131.489 75.1543C127.937 75.1543 124.7 78.0612 121.782 83.8751C122.14 81.7888 122.319 80.1476 122.319 78.9514C122.319 77.7274 122.044 76.8372 121.493 76.2809C120.969 75.6967 120.212 75.4046 119.221 75.4046C118.258 75.4046 117.335 75.5715 116.454 75.9053C117.06 79.0487 117.362 83.5135 117.362 89.2996C117.362 91.0521 117.197 93.4723 116.866 96.5596C116.536 99.6478 116.371 101.831 116.371 103.112C116.371 104.391 116.674 105.336 117.28 105.949C117.886 106.589 118.657 106.909 119.593 106.909C120.529 106.909 121.438 106.741 122.319 106.408C121.905 103.236 121.672 99.7455 121.617 95.9339C123.021 96.4906 124.577 96.7685 126.284 96.7685C129.285 96.7685 131.778 95.3782 133.76 92.596C135.742 89.8142 136.734 86.7265 136.734 83.3327C136.734 80.9681 136.321 79.021 135.495 77.491C134.696 75.9332 133.361 75.1543 131.489 75.1543ZM125.704 93.0532C124.217 93.0532 122.909 92.8445 121.781 92.4273C122.331 89.117 123.474 86.0292 125.208 83.1639C126.971 80.2987 128.555 78.8661 129.958 78.8661C131.088 78.8661 131.652 80.5073 131.652 83.7898C131.652 87.0445 130.978 89.8402 129.628 92.1769C128.5 92.7611 127.192 93.0532 125.704 93.0532Z"/>
  </mask>
  <path fill-rule="evenodd" clip-rule="evenodd" d="M131.489 75.1543C127.937 75.1543 124.7 78.0612 121.782 83.8751C122.14 81.7888 122.319 80.1476 122.319 78.9514C122.319 77.7274 122.044 76.8372 121.493 76.2809C120.969 75.6967 120.212 75.4046 119.221 75.4046C118.258 75.4046 117.335 75.5715 116.454 75.9053C117.06 79.0487 117.362 83.5135 117.362 89.2996C117.362 91.0521 117.197 93.4723 116.866 96.5596C116.536 99.6478 116.371 101.831 116.371 103.112C116.371 104.391 116.674 105.336 117.28 105.949C117.886 106.589 118.657 106.909 119.593 106.909C120.529 106.909 121.438 106.741 122.319 106.408C121.905 103.236 121.672 99.7455 121.617 95.9339C123.021 96.4906 124.577 96.7685 126.284 96.7685C129.285 96.7685 131.778 95.3782 133.76 92.596C135.742 89.8142 136.734 86.7265 136.734 83.3327C136.734 80.9681 136.321 79.021 135.495 77.491C134.696 75.9332 133.361 75.1543 131.489 75.1543ZM125.704 93.0532C124.217 93.0532 122.909 92.8445 121.781 92.4273C122.331 89.117 123.474 86.0292 125.208 83.1639C126.971 80.2987 128.555 78.8661 129.958 78.8661C131.088 78.8661 131.652 80.5073 131.652 83.7898C131.652 87.0445 130.978 89.8402 129.628 92.1769C128.5 92.7611 127.192 93.0532 125.704 93.0532Z" fill="#FFF400"/>
  <path d="M121.782 83.8751L120.796 83.7062L122.676 84.3237L121.782 83.8751ZM121.493 76.2809L120.748 76.9483L120.765 76.9669L120.782 76.9846L121.493 76.2809ZM116.454 75.9053L116.099 74.9702L115.312 75.2683L115.472 76.0946L116.454 75.9053ZM116.866 96.5596L115.872 96.453L115.872 96.4533L116.866 96.5596ZM117.28 105.949L118.006 105.261L117.998 105.253L117.99 105.245L117.28 105.949ZM122.319 106.408L122.673 107.343L123.413 107.063L123.31 106.278L122.319 106.408ZM121.617 95.9339L121.986 95.0044L120.596 94.4531L120.617 95.9484L121.617 95.9339ZM133.76 92.596L132.946 92.0156L132.946 92.0157L133.76 92.596ZM135.495 77.491L134.605 77.9472L134.61 77.9567L134.615 77.9661L135.495 77.491ZM121.781 92.4273L120.794 92.2633L120.659 93.0786L121.434 93.3652L121.781 92.4273ZM125.208 83.1639L124.357 82.64L124.353 82.646L125.208 83.1639ZM129.628 92.1769L130.088 93.065L130.348 92.9305L130.494 92.677L129.628 92.1769ZM122.676 84.3237C125.568 78.562 128.553 76.1543 131.489 76.1543V74.1543C127.32 74.1543 123.833 77.5603 120.888 83.4265L122.676 84.3237ZM121.319 78.9514C121.319 80.0636 121.151 81.6399 120.796 83.7062L122.768 84.044C123.129 81.9377 123.319 80.2315 123.319 78.9514H121.319ZM120.782 76.9846C121.066 77.2714 121.319 77.8465 121.319 78.9514H123.319C123.319 77.6083 123.021 76.403 122.203 75.5772L120.782 76.9846ZM119.221 76.4046C120.008 76.4046 120.462 76.6288 120.748 76.9483L122.237 75.6135C121.477 74.7646 120.417 74.4046 119.221 74.4046V76.4046ZM116.808 76.8404C117.573 76.5505 118.376 76.4046 119.221 76.4046V74.4046C118.139 74.4046 117.096 74.5925 116.099 74.9702L116.808 76.8404ZM118.362 89.2996C118.362 83.4921 118.06 78.9528 117.436 75.716L115.472 76.0946C116.06 79.1447 116.362 83.5349 116.362 89.2996H118.362ZM117.86 96.6662C118.193 93.5658 118.362 91.1047 118.362 89.2996H116.362C116.362 90.9995 116.202 93.3788 115.872 96.453L117.86 96.6662ZM117.371 103.112C117.371 101.89 117.53 99.7543 117.861 96.6659L115.872 96.4533C115.542 99.5412 115.371 101.772 115.371 103.112H117.371ZM117.99 105.245C117.643 104.894 117.371 104.254 117.371 103.112H115.371C115.371 104.527 115.704 105.778 116.569 106.652L117.99 105.245ZM119.593 105.909C118.912 105.909 118.41 105.688 118.006 105.261L116.554 106.636C117.361 107.489 118.401 107.909 119.593 107.909V105.909ZM121.965 105.472C121.196 105.763 120.407 105.909 119.593 105.909V107.909C120.652 107.909 121.68 107.719 122.673 107.343L121.965 105.472ZM120.617 95.9484C120.673 99.7911 120.908 103.321 121.327 106.537L123.31 106.278C122.903 103.151 122.671 99.6999 122.617 95.9195L120.617 95.9484ZM126.284 95.7685C124.687 95.7685 123.258 95.5087 121.986 95.0044L121.248 96.8635C122.784 97.4725 124.468 97.7685 126.284 97.7685V95.7685ZM132.946 92.0157C131.121 94.5763 128.914 95.7685 126.284 95.7685V97.7685C129.657 97.7685 132.434 96.1801 134.575 93.1762L132.946 92.0157ZM135.734 83.3327C135.734 86.517 134.808 89.4022 132.946 92.0156L134.575 93.1763C136.677 90.2263 137.734 86.936 137.734 83.3327H135.734ZM134.615 77.9661C135.339 79.3069 135.734 81.0768 135.734 83.3327H137.734C137.734 80.8594 137.303 78.735 136.375 77.0159L134.615 77.9661ZM131.489 76.1543C132.285 76.1543 132.905 76.3191 133.391 76.6023C133.872 76.8832 134.281 77.3151 134.605 77.9472L136.385 77.0348C135.91 76.1091 135.252 75.3726 134.398 74.8747C133.548 74.3789 132.564 74.1543 131.489 74.1543V76.1543ZM121.434 93.3652C122.696 93.8319 124.126 94.0532 125.704 94.0532V92.0532C124.309 92.0532 123.122 91.8572 122.127 91.4893L121.434 93.3652ZM124.353 82.646C122.552 85.62 121.365 88.828 120.794 92.2633L122.767 92.5912C123.296 89.406 124.395 86.4384 126.064 83.6818L124.353 82.646ZM129.958 77.8661C128.907 77.8661 127.93 78.4003 127.047 79.199C126.157 80.0045 125.262 81.1673 124.357 82.64L126.06 83.6878C126.917 82.2953 127.696 81.3092 128.389 80.6821C129.089 80.0482 129.606 79.8661 129.958 79.8661V77.8661ZM132.652 83.7898C132.652 82.1182 132.512 80.7527 132.174 79.7717C131.841 78.8029 131.169 77.8661 129.958 77.8661V79.8661C129.969 79.8661 129.969 79.8588 130.004 79.892C130.062 79.9483 130.171 80.096 130.283 80.4223C130.51 81.0826 130.652 82.1789 130.652 83.7898H132.652ZM130.494 92.677C131.948 90.1597 132.652 87.1838 132.652 83.7898H130.652C130.652 86.9052 130.008 89.5207 128.762 91.6767L130.494 92.677ZM125.704 94.0532C127.324 94.0532 128.795 93.7343 130.088 93.065L129.169 91.2888C128.204 91.7879 127.059 92.0532 125.704 92.0532V94.0532Z" fill="#4E049D" mask="url(#path-35-outside-2_7422:14879)"/>
  <defs>
    <linearGradient id="paint0_linear_7422:14879" x1="8.66754" y1="10.4842" x2="8.66754" y2="53.806" gradientUnits="userSpaceOnUse">
      <stop stop-color="#BA87FF"/>
      <stop offset="1" stop-color="#130027"/>
    </linearGradient>
    <linearGradient id="paint1_linear_7422:14879" x1="44.5047" y1="22.1697" x2="44.5047" y2="56.1591" gradientUnits="userSpaceOnUse">
      <stop stop-color="#BA87FF"/>
      <stop offset="0.993728" stop-color="#130027"/>
    </linearGradient>
    <linearGradient id="paint2_linear_7422:14879" x1="76.8188" y1="22.1697" x2="76.8188" y2="56.1591" gradientUnits="userSpaceOnUse">
      <stop stop-color="#BA87FF"/>
      <stop offset="0.993728" stop-color="#130027"/>
    </linearGradient>
    <linearGradient id="paint3_linear_7422:14879" x1="110.95" y1="9.58735" x2="110.95" y2="53.9214" gradientUnits="userSpaceOnUse">
      <stop stop-color="#BA87FF"/>
      <stop offset="0.993728" stop-color="#130027"/>
    </linearGradient>
    <linearGradient id="paint4_linear_7422:14879" x1="142.941" y1="24.4067" x2="142.941" y2="68.7408" gradientUnits="userSpaceOnUse">
      <stop stop-color="#BA87FF"/>
      <stop offset="0.993728" stop-color="#130027"/>
    </linearGradient>
    <linearGradient id="paint5_linear_7422:14879" x1="16.8774" y1="13.0245" x2="16.8774" y2="35.8922" gradientUnits="userSpaceOnUse">
      <stop stop-color="#DCF4FF"/>
      <stop offset="0.974494" stop-color="#7F00FF"/>
    </linearGradient>
    <linearGradient id="paint6_linear_7422:14879" x1="52.1513" y1="23.1956" x2="52.1513" y2="41.0324" gradientUnits="userSpaceOnUse">
      <stop stop-color="#DCF4FF"/>
      <stop offset="0.974494" stop-color="#7F00FF"/>
    </linearGradient>
    <linearGradient id="paint7_linear_7422:14879" x1="84.8835" y1="23.1956" x2="84.8835" y2="41.0324" gradientUnits="userSpaceOnUse">
      <stop stop-color="#DCF4FF"/>
      <stop offset="0.974494" stop-color="#7F00FF"/>
    </linearGradient>
    <linearGradient id="paint8_linear_7422:14879" x1="118.597" y1="11.0398" x2="118.597" y2="34.3649" gradientUnits="userSpaceOnUse">
      <stop stop-color="#DCF4FF"/>
      <stop offset="0.974494" stop-color="#7F00FF"/>
    </linearGradient>
    <linearGradient id="paint9_linear_7422:14879" x1="151.527" y1="25.8572" x2="151.527" y2="49.1822" gradientUnits="userSpaceOnUse">
      <stop stop-color="#DCF4FF"/>
      <stop offset="0.974494" stop-color="#7F00FF"/>
    </linearGradient>
    <linearGradient id="paint10_linear_7422:14879" x1="24.8156" y1="13.5865" x2="5.5871" y2="43.4177" gradientUnits="userSpaceOnUse">
      <stop offset="0.369385" stop-color="white"/>
      <stop offset="0.775659" stop-color="#FFDD28"/>
      <stop offset="0.978796" stop-color="#FFD600"/>
    </linearGradient>
    <linearGradient id="paint11_linear_7422:14879" x1="58.8504" y1="26.543" x2="49.8081" y2="51.7111" gradientUnits="userSpaceOnUse">
      <stop offset="0.369385" stop-color="white"/>
      <stop offset="0.775659" stop-color="#FFDD28"/>
      <stop offset="0.978796" stop-color="#FFD600"/>
    </linearGradient>
    <linearGradient id="paint12_linear_7422:14879" x1="92.733" y1="26.4134" x2="83.1574" y2="51.2482" gradientUnits="userSpaceOnUse">
      <stop offset="0.369385" stop-color="white"/>
      <stop offset="0.775659" stop-color="#FFDD28"/>
      <stop offset="0.978796" stop-color="#FFD600"/>
    </linearGradient>
    <linearGradient id="paint13_linear_7422:14879" x1="126.455" y1="8.38787" x2="101.646" y2="31.1321" gradientUnits="userSpaceOnUse">
      <stop offset="0.369385" stop-color="white"/>
      <stop offset="0.775659" stop-color="#FFDD28"/>
      <stop offset="0.978796" stop-color="#FFD600"/>
    </linearGradient>
    <linearGradient id="paint14_linear_7422:14879" x1="160.003" y1="21.9198" x2="134.352" y2="41.0934" gradientUnits="userSpaceOnUse">
      <stop offset="0.369385" stop-color="white"/>
      <stop offset="0.775659" stop-color="#FFDD28"/>
      <stop offset="0.978796" stop-color="#FFD600"/>
    </linearGradient>
  </defs>
</svg>
