<svg width="184" height="108" viewBox="0 0 184 108" fill="none" xmlns="http://www.w3.org/2000/svg">
  <path d="M29.508 11.6445C32.9066 11.6445 35.8753 12.6251 38.4144 14.5863C40.9535 16.5475 42.223 19.0856 42.223 22.2004C42.223 23.854 41.7543 25.2192 40.8168 26.296C39.8793 27.3727 38.7269 27.9111 37.3598 27.9111C35.9925 27.9111 34.8988 27.738 34.0784 27.3919C34.1957 26.7766 34.2542 26.1229 34.2542 25.4306C34.2151 23.008 33.6097 21.0467 32.4378 19.547C31.2659 18.0089 29.5471 17.2397 27.2815 17.2397C25.0548 17.2397 22.9846 17.9511 21.0705 19.374C19.9377 20.9891 19.0588 23.1041 18.4337 25.7191C17.8087 28.334 17.4962 30.9106 17.4962 33.4486C17.4962 37.6787 18.3165 41.2358 19.9572 44.1199C21.6368 46.9656 24.2346 48.3884 27.7502 48.3884C30.9925 48.3884 33.18 47.1771 34.3128 44.7544C35.3675 42.6394 35.8948 39.8321 35.8948 36.3327C37.8871 36.3327 39.5472 36.698 40.8754 37.4287C42.2036 38.1209 42.8676 39.2746 42.8676 40.8897C42.8676 44.6583 41.1879 47.7924 37.8285 50.292C34.469 52.7531 30.6799 53.9836 26.4611 53.9836C20.9533 53.9836 16.7736 52.1955 13.9219 48.6192C11.0703 45.0044 9.64453 40.1206 9.64453 33.9677C9.64453 27.8149 11.4219 22.5657 14.9767 18.2203C18.5704 13.8364 23.4142 11.6445 29.508 11.6445Z" fill="#7908F4"/>
  <path fill-rule="evenodd" clip-rule="evenodd" d="M33.3769 20.145L33.4156 20.0957C33.6012 20.4924 33.7597 20.9117 33.8908 21.3535C34.1861 22.348 34.3434 23.4567 34.3628 24.6795C34.3628 25.3098 34.3163 25.909 34.2235 26.4774C34.2114 26.5518 34.1984 26.6256 34.1846 26.699C34.6942 26.9174 35.3077 27.0688 36.0253 27.1533C36.3275 27.1889 36.6481 27.2127 36.9872 27.2246C37.1567 27.2305 37.3308 27.2334 37.5097 27.2334C38.2615 27.2334 38.9493 27.0702 39.5729 26.7436C40.0983 26.4685 40.5782 26.0774 41.0126 25.5704C41.2511 25.2922 41.4596 24.9952 41.6382 24.6795C41.66 24.6409 41.6814 24.6022 41.7023 24.563C42.1925 23.6464 42.4376 22.5765 42.4376 21.3535C42.4376 18.2997 41.2713 15.7842 38.9387 13.8074C38.9133 13.7858 38.8878 13.7643 38.8621 13.743C38.7693 13.6656 38.6747 13.5891 38.5783 13.5135C36.0055 11.4942 32.9972 10.4844 29.5535 10.4844C28.7816 10.4844 28.0296 10.5197 27.2973 10.5902C23.6569 10.9408 20.5057 12.163 17.8435 14.2567C17.4013 14.6044 16.9726 14.9763 16.5575 15.3722C15.9526 15.9488 15.3764 16.5766 14.8288 17.2553C13.3321 19.1145 12.1464 21.1343 11.2716 23.3147C10.1005 26.2337 9.48668 29.4405 9.43009 32.9353C9.42722 33.1127 9.42578 33.2909 9.42578 33.4698C9.42578 39.3313 10.6625 44.0742 13.1359 47.6987C13.1591 47.7326 13.1823 47.7664 13.2057 47.8002C13.3842 48.0578 13.569 48.3097 13.7601 48.5559C16.6496 52.2382 20.885 54.0795 26.4661 54.0795C26.9061 54.0795 27.3415 54.066 27.7723 54.0392C31.5267 53.8052 34.9309 52.5516 37.9846 50.2783C39.0555 49.4687 39.9579 48.5943 40.6919 47.6553C40.7287 47.6083 40.7651 47.5611 40.801 47.5137C42.3274 45.5012 43.0907 43.1956 43.0907 40.5971C43.0907 38.9341 42.4178 37.7462 41.0721 37.0334C40.6824 36.8157 40.2645 36.6294 39.8185 36.4746C39.1183 36.2317 38.3487 36.0665 37.5097 35.979C37.0369 35.9296 36.5421 35.905 36.0253 35.905C36.0253 36.1449 36.0229 36.3816 36.0181 36.6152C35.9888 38.064 35.8682 39.3913 35.6566 40.5971C35.4534 41.7548 35.1661 42.8005 34.7948 43.7342C34.6788 44.0258 34.5546 44.3066 34.4221 44.5765C34.3359 44.7638 34.2437 44.9443 34.1453 45.1176C34.1367 45.1327 34.1282 45.1477 34.1195 45.1628C32.9051 47.2664 30.7894 48.3183 27.7723 48.3183C27.322 48.3183 26.8866 48.2949 26.4661 48.2481C23.5593 47.9245 21.3625 46.4829 19.8755 43.9231C19.8602 43.8957 19.8449 43.8682 19.8297 43.8407C19.8232 43.8288 19.8167 43.817 19.8102 43.8052C18.2589 40.9797 17.4508 37.5345 17.3861 33.4698C17.3833 33.2928 17.3819 33.1146 17.3819 32.9353C17.3819 30.322 17.6985 27.669 18.3318 24.9765C18.6718 23.5314 19.0858 22.2346 19.574 21.086C19.5748 21.084 19.5757 21.082 19.5765 21.08C19.9972 20.091 20.473 19.2121 21.0037 18.4432C22.9433 16.9781 25.0411 16.2456 27.2973 16.2456C28.1206 16.2456 28.8728 16.3475 29.5535 16.5512C30.7711 16.9155 31.7606 17.6056 32.5222 18.6213C32.8663 19.0688 33.1622 19.5562 33.4099 20.0834C33.4118 20.0875 33.4137 20.0916 33.4156 20.0957L33.3769 20.145ZM48.6902 31.0604C49.4805 31.8498 50.1912 32.7642 50.7842 33.8109C52.0814 36.1009 52.5138 38.4896 52.5138 40.597C52.5138 47.7573 49.155 53.6491 43.6658 57.7992L43.6378 57.8204L43.6098 57.8413C38.5664 61.5958 32.7505 63.5071 26.4647 63.5071C18.6126 63.5071 11.3735 60.7848 6.34536 54.3769L6.33025 54.3577L6.31527 54.3383C1.7622 48.4735 0 41.1822 0 33.4697C0 25.2185 2.39594 17.6664 7.48725 11.3421L7.49032 11.3383L7.49338 11.3344C13.0534 4.44244 20.7409 1.05664 29.5521 1.05664C34.9851 1.05664 40.07 2.702 44.3946 6.0963C49.1912 9.86107 51.8607 15.1839 51.8607 21.3533C51.8607 24.6679 50.9567 28.1041 48.6902 31.0604Z" fill="url(#paint0_linear_7422:8693)"/>
  <path fill-rule="evenodd" clip-rule="evenodd" d="M73.4205 39.4054C73.4205 34.8228 73.9531 30.2599 75.0182 25.7167C70.2843 24.097 65.6687 23.2871 61.1715 23.2871C56.7136 23.2871 53.0844 25.2031 50.2835 29.0352C47.4825 32.8278 46.082 37.2523 46.082 42.3091C46.082 45.6276 46.9105 48.4127 48.5674 50.6646C50.2242 52.8769 52.5518 53.983 55.55 53.983C56.8123 53.983 58.0352 53.6275 59.2187 52.9164C61.8224 51.3362 64.5247 47.5436 67.3256 41.5388C66.8128 44.4622 66.5563 46.7732 66.5563 48.472C66.5563 50.1312 66.8522 51.4152 67.4439 52.3238C68.0356 53.1929 69.0811 53.6275 70.5801 53.6275C72.0793 53.6275 73.5388 53.3905 74.959 52.9164C73.9333 48.4522 73.4205 43.9486 73.4205 39.4054ZM61.9399 28.325C63.3995 28.325 65.1748 28.6409 67.2655 29.273C66.0032 34.0928 64.2871 38.5372 62.1174 42.6063C59.9477 46.6754 58.1725 48.71 56.7917 48.71C55.6082 48.71 54.7206 47.7816 54.1289 45.9248C53.5766 44.068 53.3005 42.231 53.3005 40.4138C53.3005 36.9767 53.9711 33.599 55.3123 30.2804C56.772 28.9768 58.9812 28.325 61.9399 28.325Z" fill="#7908F4"/>
  <path fill-rule="evenodd" clip-rule="evenodd" d="M85.7362 20.4152L83.796 28.5739C82.8952 32.3618 82.4502 36.14 82.4502 39.9221C82.4502 43.6863 82.8804 47.4198 83.7464 51.1355L85.6556 59.3276L77.5781 61.9858C75.2044 62.7669 72.7478 63.1599 70.2466 63.1599C68.2537 63.1599 65.6595 62.7782 63.2604 61.4129C60.8766 62.7288 58.1718 63.5095 55.2526 63.5095C49.6052 63.5095 44.3819 61.2728 40.7908 56.5456L40.767 56.5143L40.7435 56.4827C37.6948 52.398 36.4375 47.6371 36.4375 42.7778C36.4375 35.9831 38.3859 29.6762 42.4516 24.2406C46.8781 18.2808 53.2176 14.8193 60.8606 14.8193C66.4866 14.8193 72.1144 15.8204 77.7035 17.7056L85.7362 20.4152ZM72.0334 53.7919C72.9066 53.6797 73.7659 53.4845 74.6111 53.2063C74.3035 51.8865 74.0421 50.5631 73.827 49.2363C73.8053 49.1027 73.7841 48.9691 73.7634 48.8354C73.7402 48.6857 73.7176 48.5358 73.6955 48.386C73.687 48.3275 73.6785 48.269 73.67 48.2106C73.558 47.4326 73.4619 46.6533 73.3815 45.873C73.3488 45.5554 73.3188 45.2377 73.2914 44.9197C73.2386 44.3093 73.1956 43.6981 73.1623 43.0861C73.1546 42.9432 73.1473 42.8002 73.1405 42.6572C73.115 42.114 73.0971 41.5702 73.0868 41.0258C73.0798 40.6571 73.0763 40.288 73.0763 39.9186C73.0763 37.1705 73.2738 34.4297 73.6688 31.6961C73.9217 29.9465 74.2555 28.1998 74.6702 26.4561C72.5932 25.7555 70.539 25.2089 68.5076 24.8164C67.5464 24.6307 66.5903 24.4795 65.6392 24.3628C65.6081 24.359 65.5769 24.3552 65.5458 24.3514C64.2287 24.1928 62.9216 24.1005 61.6242 24.0744C61.368 24.0692 61.1122 24.0667 60.8568 24.0667C57.3748 24.0667 54.3995 25.2219 51.9308 27.5324C51.4176 28.0127 50.9263 28.5429 50.4569 29.1231C50.3005 29.3164 50.1465 29.5153 49.9949 29.7197C47.5557 32.9759 46.1811 36.7057 45.8713 40.9094C45.8262 41.521 45.8037 42.1426 45.8037 42.7743C45.8037 44.8614 46.1417 46.734 46.8176 48.3921C46.8354 48.4357 46.8534 48.4791 46.8717 48.5225C47.2445 49.4075 47.7149 50.2306 48.283 50.9917C49.9359 53.1675 52.2578 54.2554 55.2487 54.2554C55.6663 54.2554 56.0796 54.217 56.4884 54.14C56.8359 54.0747 57.1803 53.9816 57.5216 53.8608C57.9898 53.6949 58.4522 53.4767 58.9087 53.2063C60.3002 52.3738 61.7198 50.9168 63.1678 48.8354C63.4841 48.3806 63.8018 47.896 64.1209 47.3816C64.5741 46.651 65.0299 45.8604 65.4885 45.0096C65.9878 44.0832 66.4903 43.0856 66.9961 42.0167C66.7665 43.3065 66.5885 44.4752 66.4619 45.5227C66.3064 46.81 66.2287 47.9142 66.2287 48.8354C66.2287 50.3166 66.4718 51.4937 66.9582 52.3667C67.0076 52.4554 67.0596 52.541 67.1141 52.6236C67.7044 53.4783 68.7473 53.9057 70.2427 53.9057C70.5041 53.9057 70.7642 53.8986 71.0231 53.8843C71.3619 53.8657 71.6987 53.8349 72.0334 53.7919ZM63.4982 39.6549C63.5702 39.4965 63.6417 39.3374 63.7125 39.1779C63.7806 39.0248 63.8479 38.8711 63.9148 38.717C64.4927 37.3835 65.0264 36.014 65.5158 34.6084C65.6166 34.3185 65.7156 34.0271 65.8127 33.7342C66.2216 32.501 66.5972 31.2406 66.9392 29.9529C66.1977 29.7319 65.4959 29.5502 64.8338 29.4077C64.7396 29.3875 64.6462 29.368 64.5536 29.3493C63.4669 29.13 62.4911 29.0205 61.6264 29.0205C61.3648 29.0205 61.1089 29.0255 60.859 29.0356C59.4948 29.0906 58.3057 29.2958 57.2917 29.651C56.3962 29.9648 55.6372 30.3957 55.0149 30.9437C54.7566 31.5736 54.5233 32.2056 54.3149 32.8399C54.312 32.8487 54.3092 32.8574 54.3062 32.8662C53.5802 35.0834 53.1586 37.3272 53.0415 39.5975C53.0237 39.9438 53.0129 40.2907 53.0092 40.6382C53.0083 40.7286 53.0078 40.819 53.0078 40.9095C53.0078 41.5288 53.0409 42.1505 53.107 42.7744C53.2318 43.9512 53.4742 45.1361 53.8342 46.3295C53.8836 46.4823 53.9351 46.6288 53.9887 46.7688C53.9961 46.7881 54.0036 46.8075 54.011 46.8266C54.3454 47.681 54.7588 48.2912 55.251 48.6572C55.5869 48.9069 55.9595 49.0429 56.3688 49.0653C56.3775 49.0658 56.3863 49.0662 56.395 49.0665C56.4267 49.0679 56.4585 49.0686 56.4907 49.0686C56.6113 49.0686 56.7349 49.0533 56.8615 49.0225C57.0199 48.9842 57.183 48.9219 57.3508 48.8355C58.4337 48.2783 59.713 46.722 61.189 44.1666C61.2249 44.1044 61.261 44.0415 61.2972 43.978C61.4635 43.6865 61.6322 43.3824 61.8035 43.0658C61.912 42.8653 62.0193 42.6638 62.1256 42.4613C62.2289 42.2643 62.3312 42.0664 62.4324 41.8677C62.5324 41.6715 62.6312 41.4743 62.7291 41.2764C62.8934 40.9437 63.0549 40.6087 63.2132 40.2713C63.3093 40.0667 63.4043 39.8613 63.4982 39.6549Z" fill="url(#paint1_linear_7422:8693)"/>
  <path d="M107.201 29.688L106.621 42.7249C106.621 46.3199 107.162 49.8359 108.243 53.273C107.162 53.747 105.926 53.984 104.536 53.984C101.253 53.984 99.6115 52.1075 99.6115 48.3545C99.6115 46.6557 99.8243 43.8113 100.249 39.8212C100.673 35.7917 100.886 33.2632 100.886 32.2361C100.886 30.2609 100.018 29.2732 98.2793 29.2732C97.0046 29.2732 95.5571 30.2213 93.9346 32.1176C92.3512 33.9744 90.9801 36.0681 89.8216 38.399C88.7016 40.6904 88.045 42.5866 87.8519 44.0878C88.0064 47.1693 88.3926 50.1124 89.0105 52.9173C87.7747 53.3915 86.4809 53.6285 85.1292 53.6285C83.8161 53.6285 82.7347 53.3124 81.8851 52.6803C81.074 52.0087 80.6686 51.1001 80.6686 49.9544C80.6686 48.7693 80.8423 46.6755 81.1899 43.673C81.5375 40.6311 81.7113 37.6286 81.7113 34.6657C81.7113 31.6633 81.2672 28.2262 80.3789 24.3548C81.6147 23.8806 82.9279 23.6436 84.3181 23.6436C85.7084 23.6436 86.8285 24.0584 87.6781 24.888C88.5664 25.7177 89.0105 26.7448 89.0105 27.9695C89.0105 29.1942 88.856 31.1497 88.5471 33.8361C90.0146 31.0312 91.9264 28.5819 94.2822 26.488C96.6376 24.3548 98.9937 23.2881 101.35 23.2881C105.25 23.2881 107.201 25.4214 107.201 29.688Z" fill="#7908F4"/>
  <path fill-rule="evenodd" clip-rule="evenodd" d="M115.769 30.5744L115.186 43.3794C115.206 45.8809 115.599 48.3191 116.375 50.7254L118.96 58.744L111.204 62.0622C108.771 63.1032 106.249 63.5095 103.817 63.5095C101.018 63.5095 97.6799 62.827 94.8402 60.5932L91.4255 61.8715C89.1143 62.7367 86.7063 63.1599 84.2602 63.1599C81.4735 63.1599 78.3389 62.4897 75.5406 60.4581L75.3468 60.3173L75.1605 60.1668C71.9934 57.6074 70.4983 53.9794 70.4983 50.2958C70.4983 48.5192 70.7403 45.9631 71.0872 43.0373C71.3967 40.3926 71.5492 37.8008 71.5492 35.2597C71.5492 33.2052 71.233 30.5565 70.4516 27.2328L68.5898 19.3135L76.2194 16.4574C78.56 15.5812 80.9906 15.169 83.443 15.169C86.0528 15.169 88.8234 15.8057 91.2941 17.4189C94.013 15.8439 97.1303 14.8193 100.607 14.8193C104.165 14.8193 108.494 15.7985 111.797 19.325C114.991 22.7348 115.769 26.9888 115.769 30.3643V30.5744ZM82.1776 24.4817C81.2382 24.5808 80.3364 24.792 79.4721 25.1156C79.7612 26.3452 80.0036 27.5302 80.1993 28.6707C80.209 28.7272 80.2185 28.7837 80.228 28.8399C80.328 29.4342 80.4152 30.0162 80.4896 30.586C80.5564 31.0977 80.6129 31.5995 80.6592 32.0916C80.6676 32.1809 80.6756 32.2698 80.6833 32.3584C80.6895 32.4299 80.6955 32.5013 80.7013 32.5724C80.7303 32.929 80.7537 33.2802 80.7716 33.6262C80.7795 33.7778 80.7862 33.9283 80.7919 34.0778C80.7984 34.2465 80.8034 34.4139 80.8072 34.5801C80.8086 34.646 80.8099 34.7117 80.8109 34.7772C80.8113 34.8004 80.8117 34.8237 80.812 34.8469C80.8138 34.9843 80.8148 35.1207 80.8148 35.2563C80.8148 38.0185 80.6575 40.8158 80.3427 43.6479C80.3254 43.8034 80.3076 43.959 80.2894 44.1147C80.2587 44.3736 80.2293 44.6257 80.2013 44.8709C79.9098 47.4218 79.764 49.229 79.764 50.2923C79.764 51.4191 80.1727 52.3127 80.9899 52.9732C81.8462 53.5948 82.936 53.9057 84.2592 53.9057C84.5922 53.9057 84.9217 53.8918 85.2477 53.8639C86.2553 53.7778 87.2297 53.5586 88.1706 53.2063C87.9551 52.2513 87.7675 51.28 87.6079 50.2923C87.3832 48.9022 87.2141 47.4798 87.1003 46.0251C87.0714 45.6558 87.0461 45.2844 87.0244 44.911C87.0242 44.9075 87.0239 44.904 87.0237 44.9005C87.0164 44.7748 87.0096 44.6489 87.0031 44.5227C87.1977 43.0463 87.8593 41.1813 88.988 38.9279C89.3281 38.2601 89.6864 37.6121 90.0628 36.984C90.063 36.9837 90.0632 36.9834 90.0633 36.9831C90.2438 36.6821 90.4285 36.3855 90.6172 36.0935C90.6327 36.0696 90.6482 36.0458 90.6636 36.0218C90.8925 35.6702 91.1273 35.3252 91.3682 34.9868C91.3936 34.951 91.4192 34.9154 91.4448 34.8798C91.9475 34.1802 92.4765 33.5093 93.0317 32.8668C93.0654 32.8278 93.0992 32.789 93.133 32.7503C94.2141 31.5169 95.2183 30.6913 96.1461 30.2736C96.1583 30.2682 96.1705 30.2629 96.1827 30.2576C96.5478 30.0968 96.9017 29.9997 97.2434 29.9661C97.2987 29.9608 97.3521 29.957 97.4064 29.9549C97.4419 29.9536 97.4766 29.9528 97.5112 29.9528C97.6489 29.9528 97.7818 29.9588 97.9082 29.9709C98.3857 30.016 98.7855 30.146 99.1094 30.3608C99.7957 30.8157 100.138 31.651 100.138 32.8668C100.138 32.9625 100.137 33.0714 100.133 33.1935C100.128 33.354 100.12 33.5375 100.107 33.7439C100.05 34.761 99.9118 36.334 99.6927 38.4631C99.6927 38.4684 99.6918 38.4737 99.6918 38.479C99.6796 38.5944 99.6674 38.7113 99.6553 38.8298C99.6337 39.0356 99.6113 39.2462 99.5888 39.4617C99.5588 39.7418 99.5289 40.03 99.4961 40.3266C99.3969 41.2381 99.3089 42.089 99.233 42.8789C99.2227 42.9811 99.2134 43.0821 99.204 43.1823C98.9709 45.6409 98.8538 47.4864 98.8538 48.7188C98.8538 52.4099 100.508 54.2554 103.816 54.2554C104.643 54.2554 105.415 54.1742 106.133 54.012C106.633 53.8992 107.106 53.7472 107.553 53.5561C107.039 51.9609 106.645 50.3485 106.374 48.7188C106.215 47.7632 106.098 46.8016 106.022 45.8341C105.953 44.9551 105.918 44.0711 105.918 43.1823L106.502 30.3608C106.502 26.1647 104.537 24.0667 100.606 24.0667C99.5738 24.0667 98.543 24.2646 97.5112 24.6605C97.3109 24.7375 97.1105 24.8219 96.9101 24.9139C95.7679 25.4377 94.6256 26.2043 93.4832 27.2137C92.9441 27.6813 92.428 28.167 91.9351 28.6707C91.4003 29.2172 90.8927 29.7848 90.4122 30.3736C90.411 30.375 90.4099 30.3764 90.4087 30.3778C90.225 30.6031 90.0453 30.8315 89.8695 31.0629C89.0641 32.1236 88.3422 33.2494 87.7036 34.4404C88.015 31.7984 88.1706 29.8752 88.1706 28.6707C88.1706 28.5873 88.1685 28.5049 88.1643 28.4233C88.164 28.4187 88.1637 28.414 88.1635 28.4094C88.1063 27.3829 87.7081 26.5044 86.9689 25.7739C86.9233 25.7287 86.8763 25.6842 86.8279 25.6401C85.9717 24.8243 84.8431 24.4163 83.4419 24.4163C83.4016 24.4163 83.3614 24.4165 83.3212 24.4169C82.934 24.4206 82.5528 24.4422 82.1776 24.4817Z" fill="url(#paint2_linear_7422:8693)"/>
  <path fill-rule="evenodd" clip-rule="evenodd" d="M136.595 9.52734C135.248 9.52734 133.942 9.75698 132.673 10.2162C133.466 14.6172 133.902 19.2861 133.981 24.2229C132.04 23.534 129.742 23.1896 127.088 23.1896C124.435 23.1896 121.919 24.1272 119.543 26.0024C117.206 27.8394 115.443 30.1547 114.255 32.9484C113.106 35.7037 112.531 38.6505 112.531 41.7887C112.531 44.9267 113.324 47.5673 114.908 49.7104C116.532 51.8535 118.85 52.925 121.86 52.925C123.206 52.925 124.474 52.5998 125.663 51.9492C126.89 51.2604 128.139 50.0931 129.406 48.4475C130.713 46.8019 132.198 44.2762 133.862 40.8701C133.347 43.9317 133.09 46.0556 133.09 47.242C133.09 50.8011 134.397 52.5806 137.011 52.5806C138.555 52.5806 140.041 52.351 141.467 51.8918C140.516 46.6871 140.041 41.7887 140.041 37.1963C140.041 32.5657 140.239 27.8776 140.636 23.1322C141.031 18.3485 141.229 15.3252 141.229 14.0623C141.229 12.7612 140.794 11.6896 139.922 10.8476C139.051 9.96744 137.942 9.52734 136.595 9.52734ZM127.686 28.0701C129.943 28.0701 132.043 28.4145 133.984 29.1034C133.231 33.6957 131.686 37.9627 129.349 41.9045C127.051 45.8463 124.992 47.8171 123.17 47.8171C121.982 47.8171 121.13 47.0135 120.615 45.4062C120.1 43.7989 119.843 42.115 119.843 40.3546C119.843 36.5276 120.517 33.0643 121.863 29.9644C123.487 28.7015 125.428 28.0701 127.686 28.0701Z" fill="#7908F4"/>
  <path fill-rule="evenodd" clip-rule="evenodd" d="M121.914 4.04102L129.267 1.30788C131.599 0.441277 134.039 0 136.535 0C140.244 0 143.867 1.34119 146.652 4.18564C149.425 6.97534 150.666 10.5191 150.666 14.0647C150.666 15.823 150.427 19.3577 150.039 24.1613L150.038 24.1673C149.66 28.814 149.472 33.3937 149.472 37.9073C149.472 42.0187 149.887 46.5169 150.761 51.4209L152.182 59.3998L144.426 61.9619C142 62.7632 139.494 63.1537 136.952 63.1537C134.654 63.1537 132.251 62.6079 130.107 61.3466C127.539 62.7636 124.7 63.5088 121.73 63.5088C116.018 63.5088 110.704 61.2314 107.101 56.3523L107.067 56.3079L107.036 56.2631C104.089 52.1751 102.883 47.4475 102.883 42.6403C102.883 38.2725 103.668 34.0378 105.3 30.0208L105.313 29.9901L105.325 29.9597C107.095 25.6905 109.798 22.0104 113.416 19.0914C116.385 16.6896 119.834 14.9821 123.672 14.3501C123.549 13.4553 123.411 12.5753 123.259 11.7099L121.914 4.04102ZM137.903 53.7343C139.116 53.6567 140.291 53.4302 141.428 53.0544C141.176 51.6402 140.957 50.2479 140.772 48.8775C140.745 48.6719 140.717 48.4669 140.691 48.2623C140.575 47.3645 140.475 46.4762 140.387 45.5975C140.36 45.3123 140.333 45.0281 140.307 44.7449C140.247 44.0643 140.195 43.3894 140.153 42.7204C140.143 42.5714 140.134 42.4226 140.125 42.2741C140.122 42.2196 140.119 42.1654 140.116 42.111C140.035 40.6837 139.995 39.2829 139.995 37.9088C139.995 37.5265 139.997 37.1438 139.999 36.7607C140.013 34.7004 140.063 32.629 140.151 30.5468C140.236 28.5204 140.357 26.4837 140.512 24.4365C140.538 24.0959 140.565 23.7551 140.592 23.4139C140.631 22.9379 140.667 22.4786 140.701 22.0364C141.027 17.8989 141.189 15.2421 141.189 14.0662C141.189 12.7252 140.751 11.6208 139.875 10.7531C139.037 9.88321 137.977 9.43041 136.699 9.39463C136.643 9.3931 136.589 9.39233 136.533 9.39233C135.179 9.39233 133.867 9.62902 132.593 10.1023C132.821 11.4009 133.02 12.7223 133.188 14.0662C133.213 14.26 133.237 14.4543 133.26 14.6491C133.345 15.3621 133.422 16.0813 133.49 16.8069C133.497 16.8907 133.506 16.9747 133.514 17.0588C133.534 17.2811 133.553 17.504 133.572 17.7273C133.629 18.3978 133.678 19.0737 133.72 19.7548C133.786 20.7833 133.834 21.8238 133.867 22.8764C133.867 22.8779 133.867 22.8793 133.867 22.8807C133.884 23.4298 133.898 23.9823 133.906 24.538C133.029 24.2188 132.08 23.9712 131.058 23.7956C129.979 23.61 128.819 23.5046 127.579 23.4792C127.382 23.4751 127.183 23.4731 126.982 23.4731C126.11 23.4731 125.255 23.5761 124.414 23.7823C122.679 24.2074 121.009 25.0706 119.4 26.372C119.201 26.533 119.005 26.6975 118.815 26.8656C118.216 27.3911 117.659 27.9513 117.143 28.5464C115.881 30 114.863 31.6615 114.088 33.5307C113.112 35.9336 112.548 38.4776 112.397 41.1627C112.371 41.6511 112.356 42.1441 112.356 42.6419C112.356 44.8383 112.724 46.7983 113.458 48.5217C113.805 49.336 114.234 50.0975 114.744 50.8063C116.376 53.015 118.704 54.1194 121.729 54.1194C122.175 54.1194 122.612 54.0829 123.042 54.0099C123.459 53.939 123.867 53.8337 124.268 53.694C124.704 53.5416 125.131 53.3481 125.549 53.1136C126.783 52.4036 128.037 51.2007 129.31 49.5047C129.597 49.1339 129.893 48.7197 130.196 48.2623C130.46 47.8671 130.729 47.4395 131.004 46.9796C131.444 46.2462 131.9 45.4304 132.372 44.5323C132.375 44.5245 132.38 44.5168 132.384 44.509C132.837 43.6468 133.304 42.7088 133.787 41.6952C133.58 42.9562 133.415 44.0628 133.291 45.0151C133.289 45.0272 133.288 45.0392 133.286 45.0513C133.103 46.4641 133.011 47.5344 133.011 48.2623C133.011 50.147 133.358 51.5475 134.051 52.4639C134.707 53.3309 135.673 53.7644 136.951 53.7644C137.104 53.7644 137.256 53.7621 137.408 53.7575C137.574 53.7525 137.739 53.7447 137.903 53.7343ZM130.556 40.2981C130.571 40.2666 130.586 40.2351 130.601 40.2035C130.722 39.9537 130.838 39.7026 130.953 39.4505C131.185 38.9408 131.404 38.4265 131.613 37.9073C132.102 36.6885 132.527 35.443 132.89 34.1708C133.317 32.6726 133.656 31.1375 133.907 29.5653C133.361 29.3668 132.803 29.196 132.233 29.0529C131.747 28.9311 131.253 28.8294 130.748 28.7479C129.729 28.5829 128.673 28.5005 127.579 28.5005C127.441 28.5005 127.303 28.5029 127.167 28.5077C127.105 28.51 127.043 28.5126 126.982 28.5159C126.063 28.5639 125.2 28.7242 124.391 28.9967C123.676 29.2374 123.005 29.5657 122.376 29.9816C122.374 29.9832 122.372 29.9848 122.369 29.9864C122.15 30.1313 121.937 30.2867 121.729 30.4528C121.001 32.1738 120.467 34.0034 120.131 35.9417C120.128 35.957 120.127 35.9722 120.124 35.9874C119.894 37.3255 119.757 38.7152 119.714 40.1568C119.712 40.2228 119.71 40.2889 119.709 40.3552C119.702 40.6222 119.7 40.8909 119.7 41.1613C119.7 41.6603 119.719 42.1533 119.758 42.6404C119.861 43.9242 120.101 45.1666 120.475 46.3675C120.5 46.4444 120.524 46.5195 120.55 46.5927C120.559 46.6203 120.569 46.6477 120.578 46.6749C120.87 47.482 121.254 48.0649 121.729 48.4233C122.108 48.7093 122.546 48.8524 123.043 48.8524C123.046 48.8524 123.05 48.8524 123.054 48.8524C123.073 48.8523 123.093 48.8519 123.113 48.8514C123.255 48.8474 123.398 48.8313 123.542 48.8032C123.957 48.7221 124.384 48.5414 124.823 48.2608C125.249 47.9883 125.686 47.6217 126.135 47.161C126.148 47.147 126.162 47.133 126.175 47.1188C126.947 46.317 127.752 45.2369 128.589 43.8788C128.788 43.5557 128.989 43.2168 129.192 42.8622C129.211 42.8279 129.231 42.7933 129.25 42.7587C129.268 42.7286 129.285 42.6986 129.303 42.6685C129.599 42.1537 129.881 41.6336 130.151 41.1081C130.29 40.8395 130.424 40.5695 130.556 40.2981Z" fill="url(#paint3_linear_7422:8693)"/>
  <path d="M147.88 43.8632L148.466 35.5969C148.466 31.8848 147.919 28.364 146.824 25.0346C147.919 24.5753 149.268 24.3457 150.87 24.3457C153.996 24.3457 155.56 26.0488 155.56 29.4547C155.56 30.9855 155.346 33.1477 154.915 35.9414C154.485 38.7351 154.27 40.6676 154.27 41.7392C154.27 42.7724 154.29 43.5378 154.329 44.0353C154.368 44.4946 154.465 45.0495 154.622 45.7001C154.857 47.0012 155.619 47.6518 156.908 47.6518C158.238 47.6518 159.644 46.6376 161.13 44.6094C162.654 42.5428 163.866 40.2658 164.765 37.7783C165.702 35.2908 166.171 33.3199 166.171 31.8657C165.976 28.8424 165.644 26.5653 165.175 25.0346C166.425 24.5753 167.695 24.3457 168.985 24.3457C170.315 24.3457 171.409 24.7476 172.269 25.5513C173.168 26.3549 173.617 27.4265 173.617 28.7659C173.617 49.661 169.708 62.1942 161.891 66.3656C160.133 67.2841 158.14 67.7433 155.912 67.7433C153.684 67.7433 151.729 67.1693 150.049 66.0212C148.408 64.8731 147.587 63.2658 147.587 61.1992C147.587 59.8215 148.114 58.6543 149.17 57.6976C150.225 56.7791 151.476 56.3199 152.922 56.3199C153.235 56.3199 153.626 56.3581 154.094 56.4347C153.977 56.9322 153.918 57.3722 153.918 57.7549C153.918 61.1227 155.11 62.8066 157.495 62.8066C158.941 62.8066 160.251 62.0412 161.423 60.5104C162.596 58.9796 163.533 57.1043 164.237 54.8847C165.604 50.3689 166.289 46.2741 166.289 42.6003C165.116 45.7001 163.514 48.2068 161.481 50.1202C159.488 51.9954 157.319 52.933 154.974 52.933C150.245 52.933 147.88 49.9097 147.88 43.8632Z" fill="#7908F4"/>
  <path fill-rule="evenodd" clip-rule="evenodd" d="M138.284 43.9999L138.877 35.5024C138.849 32.7119 138.432 30.1581 137.668 27.7972L135.035 19.6571L142.934 16.2886C145.55 15.1732 148.269 14.8193 150.755 14.8193C153.301 14.8193 156.332 15.3874 159.02 17.22L161.948 16.1272C164.238 15.2728 166.646 14.8193 169.127 14.8193C172.56 14.8193 176.07 15.9418 178.898 18.5883C181.965 21.4175 183.262 25.1388 183.262 28.7658C183.262 39.9804 182.245 49.6336 179.878 57.3476C177.531 64.9923 173.461 71.9607 166.449 75.7633L166.412 75.7836L166.374 75.8035C163.069 77.5575 159.491 78.3282 155.867 78.3282C151.854 78.3282 147.949 77.2435 144.522 74.8642L144.479 74.8344L144.436 74.8041C140.159 71.7641 137.987 67.1899 137.987 62.1927C137.987 59.3033 138.821 56.6227 140.346 54.3401C138.729 51.0621 138.284 47.4789 138.284 44.3256V43.9999ZM166.756 24.4729C166.256 24.5856 165.757 24.7343 165.262 24.919C165.558 25.9022 165.801 27.184 165.989 28.7646C166.102 29.7045 166.195 30.7501 166.269 31.9012C166.271 31.9205 166.272 31.9399 166.273 31.9593C166.273 32.0363 166.272 32.1147 166.269 32.1945C166.266 32.2995 166.26 32.407 166.253 32.5169C166.153 33.9489 165.684 35.7944 164.846 38.053C164.56 38.8568 164.244 39.6392 163.895 40.4002C163.853 40.4936 163.809 40.5866 163.766 40.6793C163.738 40.7384 163.71 40.7973 163.682 40.8561C163.523 41.1886 163.357 41.5169 163.185 41.841C163.134 41.9395 163.08 42.0376 163.028 42.1353C162.998 42.1884 162.97 42.2414 162.94 42.2943C162.805 42.5395 162.665 42.7824 162.522 43.0228C162.355 43.3052 162.182 43.5842 162.004 43.8599C161.993 43.8772 161.982 43.8946 161.97 43.9118C161.822 44.1397 161.672 44.3654 161.517 44.5886C161.41 44.7447 161.3 44.8997 161.188 45.0535C161.179 45.0668 161.169 45.0801 161.16 45.0934C160.265 46.3346 159.398 47.2074 158.56 47.7117C158.559 47.7119 158.559 47.7122 158.558 47.7125C157.985 48.0568 157.426 48.2291 156.878 48.2291C156.869 48.2291 156.859 48.2291 156.85 48.229C156.706 48.2278 156.568 48.2185 156.438 48.201C156.248 48.1756 156.072 48.1331 155.911 48.0734C155.484 47.9156 155.152 47.6379 154.917 47.2404C154.75 46.9593 154.631 46.6184 154.56 46.2176C154.43 45.6726 154.341 45.1929 154.291 44.7782C154.28 44.6826 154.27 44.5905 154.263 44.5018C154.258 44.4459 154.254 44.3868 154.25 44.3243C154.219 43.8138 154.203 43.0842 154.203 42.1353C154.203 41.6601 154.244 41.0207 154.324 40.2168C154.326 40.2058 154.327 40.1947 154.327 40.1836C154.355 39.9096 154.388 39.6166 154.425 39.3048C154.476 38.8673 154.537 38.3927 154.608 37.8808C154.677 37.3754 154.756 36.8337 154.842 36.2558C154.847 36.224 154.852 36.1919 154.857 36.1599C154.875 36.0404 154.893 35.9221 154.91 35.8049C155.311 33.0969 155.511 30.9867 155.511 29.4745C155.511 25.9641 153.925 24.209 150.755 24.209C149.729 24.209 148.807 24.3031 147.987 24.4914C147.507 24.6016 147.061 24.7441 146.651 24.919C147.131 26.4007 147.507 27.9192 147.779 29.4745C147.959 30.5019 148.094 31.5452 148.184 32.6046C148.255 33.4523 148.298 34.3102 148.311 35.1785C148.315 35.3867 148.316 35.5955 148.316 35.8049L147.722 44.3243C147.722 44.5544 147.725 44.7801 147.732 45.0016C147.733 45.0155 147.733 45.0293 147.733 45.0432C147.759 45.8825 147.833 46.6607 147.954 47.3775C147.975 47.503 147.997 47.6267 148.022 47.7484C148.071 47.9994 148.127 48.2425 148.188 48.4776C148.907 51.2115 150.456 52.8662 152.835 53.4418C153.388 53.5756 153.987 53.6511 154.63 53.6683C154.724 53.6707 154.82 53.6721 154.917 53.6721C154.956 53.6721 154.995 53.6718 155.034 53.6712C155.631 53.6632 156.216 53.5941 156.79 53.4639C156.819 53.4572 156.849 53.4503 156.878 53.4433C156.912 53.4354 156.945 53.4273 156.977 53.419C158.579 53.0167 160.092 52.1348 161.516 50.773C161.809 50.4925 162.094 50.1996 162.37 49.8943C162.561 49.6815 162.749 49.4627 162.933 49.2378C163.415 48.6476 163.867 48.016 164.289 47.3429C164.292 47.3391 164.294 47.3353 164.297 47.3316C165.103 46.0462 165.801 44.6099 166.392 43.0228C166.392 44.7614 166.246 46.5916 165.953 48.5132C165.952 48.5207 165.95 48.5282 165.949 48.5357C165.677 50.3196 165.279 52.1823 164.755 54.1238C164.754 54.1245 164.754 54.1251 164.754 54.1258C164.671 54.4323 164.585 54.7406 164.496 55.0509C164.435 55.2609 164.374 55.4718 164.311 55.6836C164.11 56.3261 163.892 56.9407 163.653 57.5272C163.509 57.882 163.359 58.2265 163.201 58.5608C163.188 58.5878 163.176 58.6149 163.162 58.6417C163.055 58.8669 162.945 59.0873 162.83 59.303C162.415 60.092 161.957 60.8181 161.457 61.4815C161.323 61.6595 161.186 61.8276 161.049 61.9854C160.595 62.506 160.122 62.9175 159.629 63.2198C159.617 63.2275 159.604 63.2351 159.592 63.2427C158.921 63.6463 158.215 63.848 157.473 63.848C157.149 63.848 156.848 63.817 156.567 63.7547C156.317 63.6992 156.084 63.6188 155.867 63.5136C155.623 63.3945 155.401 63.2436 155.201 63.0607C155.101 62.9691 155.005 62.8694 154.917 62.7617C154.776 62.5916 154.649 62.4015 154.535 62.1914C154.387 61.9145 154.262 61.6028 154.161 61.2564C154.151 61.2233 154.142 61.1899 154.132 61.1561C153.941 60.4549 153.846 59.6168 153.846 58.6417C153.846 58.5103 153.853 58.3722 153.866 58.2276C153.892 57.9422 153.944 57.6312 154.021 57.2946C154.022 57.2901 154.023 57.2856 154.024 57.281C153.965 57.271 153.906 57.2617 153.849 57.2531C153.45 57.1928 153.113 57.1626 152.835 57.1626C151.369 57.1626 150.1 57.636 149.03 58.5825C149.009 58.6021 148.988 58.6219 148.967 58.6417C148.124 59.4409 147.627 60.3802 147.475 61.4595C147.442 61.6967 147.425 61.9408 147.425 62.1914C147.425 64.3214 148.257 65.9779 149.922 67.1612C151.626 68.3444 153.608 68.936 155.867 68.936C156.417 68.936 156.952 68.908 157.473 68.8522C159.096 68.678 160.582 68.2327 161.932 67.5161C163.276 66.7877 164.505 65.8119 165.62 64.5888C167.297 62.7516 168.716 60.3561 169.877 57.4026C169.887 57.3799 169.895 57.3572 169.905 57.3344C170.28 56.3732 170.629 55.3531 170.951 54.2743C171.731 51.6584 172.353 48.6969 172.815 45.3899C172.923 44.6196 173.022 43.8305 173.113 43.0228C173.122 42.939 173.131 42.855 173.14 42.7709C173.149 42.6966 173.156 42.6221 173.164 42.5474C173.214 42.0908 173.259 41.6284 173.302 41.1601C173.306 41.1183 173.31 41.0765 173.314 41.0346C173.571 38.2209 173.731 35.1958 173.793 31.9593C173.797 31.8017 173.8 31.6437 173.802 31.4851C173.817 30.5941 173.824 29.6872 173.824 28.7646C173.824 27.384 173.368 26.2797 172.456 25.4514C171.585 24.6231 170.475 24.209 169.127 24.209C168.329 24.209 167.539 24.2969 166.756 24.4729Z" fill="url(#paint4_linear_7422:8693)"/>
  <path d="M29.508 11.6445C32.9066 11.6445 35.8753 12.6251 38.4144 14.5863C40.9535 16.5475 42.223 19.0856 42.223 22.2004C42.223 23.854 41.7543 25.2192 40.8168 26.296C39.8793 27.3727 38.7269 27.9111 37.3598 27.9111C35.9925 27.9111 34.8988 27.738 34.0784 27.3919C34.1957 26.7766 34.2542 26.1229 34.2542 25.4306C34.2151 23.008 33.6097 21.0467 32.4378 19.547C31.2659 18.0089 29.5471 17.2397 27.2815 17.2397C25.0548 17.2397 22.9846 17.9511 21.0705 19.374C19.9377 20.9891 19.0588 23.1041 18.4337 25.7191C17.8087 28.334 17.4962 30.9106 17.4962 33.4486C17.4962 37.6787 18.3165 41.2358 19.9572 44.1199C21.6368 46.9656 24.2346 48.3884 27.7502 48.3884C30.9925 48.3884 33.18 47.1771 34.3128 44.7544C35.3675 42.6394 35.8948 39.8321 35.8948 36.3327C37.8871 36.3327 39.5472 36.698 40.8754 37.4287C42.2036 38.1209 42.8676 39.2746 42.8676 40.8897C42.8676 44.6583 41.1879 47.7924 37.8285 50.292C34.469 52.7531 30.6799 53.9836 26.4611 53.9836C20.9533 53.9836 16.7736 52.1955 13.9219 48.6192C11.0703 45.0044 9.64453 40.1206 9.64453 33.9677C9.64453 27.8149 11.4219 22.5657 14.9767 18.2203C18.5704 13.8364 23.4142 11.6445 29.508 11.6445Z" fill="#7908F4"/>
  <path fill-rule="evenodd" clip-rule="evenodd" d="M28.3135 30.4089L29.0775 26.4032C29.1296 26.1302 29.1645 25.7986 29.1666 25.3989C29.1338 23.7653 28.7371 22.9466 28.4026 22.5191L28.3834 22.4945L28.3645 22.4697C28.274 22.351 28.221 22.3234 28.1699 22.3005C28.0939 22.2666 27.8409 22.1738 27.2885 22.1738C26.4713 22.1738 25.6685 22.3619 24.8213 22.8448C24.3005 23.7818 23.7941 25.0728 23.3769 26.8158C22.8309 29.0969 22.5664 31.3077 22.5664 33.4563C22.5664 37.073 23.2646 39.7442 24.3745 41.7104C25.0862 42.8982 25.9506 43.4573 27.7626 43.4573C28.7662 43.4573 29.2067 43.2691 29.3445 43.193C29.4237 43.1492 29.5447 43.078 29.6998 42.7465L29.7268 42.6889L29.7553 42.632C30.346 41.449 30.8257 39.4715 30.8257 36.3687V31.4673L28.3135 30.4089ZM41.4662 32.1172C42.7747 31.5327 43.9348 30.6571 44.9063 29.5428C46.7883 27.3843 47.5736 24.7689 47.5736 22.098C47.5736 17.3547 45.5307 13.3305 41.7426 10.4086C38.2137 7.68659 34.072 6.35352 29.5436 6.35352C21.9346 6.35352 15.5112 9.17578 10.8242 14.8853L10.8209 14.8894C6.40894 20.2753 4.28516 26.7339 4.28516 33.9805C4.28516 40.9363 5.90115 47.0883 9.69773 51.8943L9.7059 51.9047L9.71417 51.9151C13.7715 56.9966 19.6467 59.2775 26.4626 59.2775C31.8322 59.2775 36.7485 57.6874 41.0452 54.544L41.0607 54.5327L41.076 54.5212C45.6174 51.1469 48.2253 46.5447 48.2253 40.9701C48.2253 39.4665 47.9124 37.8635 47.0493 36.3662C46.1833 34.8637 44.9298 33.7585 43.513 33.0098C42.8523 32.6506 42.1679 32.3554 41.4662 32.1172ZM36.0004 36.366C36.0004 39.8997 35.4671 42.7344 34.4006 44.8701C33.2551 47.3166 31.043 48.5397 27.7646 48.5397C24.2095 48.5397 21.5828 47.103 19.8843 44.2294C18.2253 41.3171 17.3957 37.7251 17.3957 33.4537C17.3957 30.8907 17.7118 28.289 18.3438 25.6485C18.9758 23.0079 19.8645 20.8721 21.01 19.2412C22.9455 17.8045 25.0391 17.086 27.2905 17.086C29.5815 17.086 31.3196 17.8627 32.5046 19.416C33.6896 20.9304 34.3018 22.9108 34.3413 25.3572C34.3413 26.0562 34.2821 26.7163 34.1636 27.3376C34.886 27.6421 35.8183 27.8138 36.9603 27.8532C37.1294 27.859 37.3032 27.8619 37.4816 27.8619C38.1674 27.8619 38.7999 27.728 39.3789 27.4604C39.9669 27.1886 40.4997 26.7788 40.9774 26.2309C41.9253 25.1436 42.3994 23.7651 42.3994 22.0954C42.3994 18.9499 41.1156 16.3871 38.5481 14.4066C35.9806 12.4262 32.9786 11.436 29.5421 11.436C23.3801 11.436 18.482 13.6494 14.848 18.0762C11.2535 22.4643 9.45624 27.7648 9.45624 33.9779C9.45624 40.1909 10.898 45.1225 13.7815 48.7728C16.665 52.3841 20.8915 54.1898 26.4611 54.1898C30.7271 54.1898 34.5586 52.9472 37.9555 50.4619C41.3526 47.9379 43.0511 44.7731 43.0511 40.9676C43.0511 39.3854 42.4191 38.2418 41.1553 37.5367C41.1164 37.5149 41.0767 37.4937 41.0365 37.4727C39.6936 36.7349 38.0148 36.366 36.0004 36.366Z" fill="url(#paint5_linear_7422:8693)"/>
  <path fill-rule="evenodd" clip-rule="evenodd" d="M73.4205 39.4054C73.4205 34.8228 73.9531 30.2599 75.0182 25.7167C70.2843 24.097 65.6687 23.2871 61.1715 23.2871C56.7136 23.2871 53.0844 25.2031 50.2835 29.0352C47.4825 32.8278 46.082 37.2523 46.082 42.3091C46.082 45.6276 46.9105 48.4127 48.5674 50.6646C50.2242 52.8769 52.5518 53.983 55.55 53.983C56.8123 53.983 58.0352 53.6275 59.2187 52.9164C61.8224 51.3362 64.5247 47.5436 67.3256 41.5388C66.8128 44.4622 66.5563 46.7732 66.5563 48.472C66.5563 50.1312 66.8522 51.4152 67.4439 52.3238C68.0356 53.1929 69.0811 53.6275 70.5801 53.6275C72.0793 53.6275 73.5388 53.3905 74.959 52.9164C73.9333 48.4522 73.4205 43.9486 73.4205 39.4054ZM61.9399 28.325C63.3995 28.325 65.1748 28.6409 67.2655 29.273C66.0032 34.0928 64.2871 38.5372 62.1174 42.6063C59.9477 46.6754 58.1725 48.71 56.7917 48.71C55.6082 48.71 54.7206 47.7816 54.1289 45.9248C53.5766 44.068 53.3005 42.231 53.3005 40.4138C53.3005 36.9767 53.9711 33.599 55.3123 30.2804C56.772 28.9768 58.9812 28.325 61.9399 28.325Z" fill="#7908F4"/>
  <path fill-rule="evenodd" clip-rule="evenodd" d="M80.3799 22.2395L79.3247 26.8286C78.3621 31.0155 77.8837 35.2059 77.8837 39.4074C77.8837 43.581 78.3453 47.7194 79.2716 51.8301L80.3098 56.4379L75.917 57.9331C73.9959 58.587 72.012 58.9154 69.9865 58.9154C67.8237 58.9154 65.1478 58.3091 63.2518 56.0855C62.6601 56.6013 62.0502 57.0571 61.4209 57.4467L61.4112 57.4527L61.4014 57.4586C59.5184 58.6123 57.4148 59.2729 55.161 59.2729C50.759 59.2729 46.8855 57.5141 44.1971 53.8539L44.1841 53.8362L44.1713 53.8186C41.7781 50.5018 40.7266 46.5632 40.7266 42.3279C40.7266 36.2174 42.4077 30.6671 45.862 25.8932C49.5122 20.8067 54.5707 17.9922 60.7059 17.9922C65.7617 17.9922 70.8709 18.9219 76.0115 20.7154L80.3799 22.2395ZM65.2768 23.4803C68.2555 23.8461 71.2849 24.5663 74.3651 25.641C73.3146 30.2105 72.7892 34.7998 72.7892 39.4092C72.7892 43.9787 73.2951 48.5084 74.3068 52.9985C73.4711 53.283 72.6215 53.4826 71.7581 53.5974C71.1742 53.6749 70.584 53.7137 69.9876 53.7137C69.721 53.7137 69.469 53.6996 69.2315 53.6711C68.1516 53.5419 67.3725 53.119 66.894 52.4024C66.8391 52.3164 66.7867 52.2269 66.7369 52.1341C66.258 51.2419 66.0185 50.04 66.0185 48.5283C66.0185 47.5003 66.1101 46.2495 66.2932 44.7757C66.4144 43.7999 66.5758 42.7262 66.7773 41.5548C66.2772 42.648 65.7804 43.6682 65.2867 44.6156C64.5141 46.0984 63.7492 47.4026 62.9921 48.5283C62.3552 49.4753 61.7238 50.2959 61.098 50.99C60.3171 51.8563 59.5447 52.5258 58.7809 52.9985C58.0006 53.4765 57.2029 53.7948 56.3878 53.9534C56.359 53.959 56.3301 53.9644 56.3011 53.9697C55.9251 54.0374 55.5454 54.0713 55.1621 54.0713C52.2048 54.0713 49.909 52.9587 48.2747 50.7336C46.6404 48.4687 45.8233 45.6673 45.8233 42.3296C45.8233 37.2832 47.1832 32.8627 49.9031 29.0679C49.9244 29.0382 49.9458 29.0084 49.9674 28.9787C50.1172 28.7696 50.2694 28.5663 50.4242 28.3685C50.8883 27.7752 51.3741 27.2329 51.8816 26.7416C54.3224 24.3787 57.2643 23.1973 60.707 23.1973C60.9596 23.1973 61.2125 23.1999 61.4658 23.2052C62.7268 23.2315 63.9971 23.3232 65.2768 23.4803ZM54.4296 31.5844C53.4398 34.4854 52.9449 37.4309 52.9449 40.421C52.9449 42.2488 53.2173 44.0965 53.7621 45.964C54.2544 47.5394 54.9544 48.4502 55.8621 48.6967C55.9931 48.7323 56.1284 48.7541 56.2681 48.7619C56.2767 48.7624 56.2853 48.7629 56.294 48.7633C56.3253 48.7646 56.3568 48.7653 56.3886 48.7653C57.6921 48.7653 59.3519 46.8909 61.3683 43.142C61.4587 42.9738 61.5498 42.802 61.6417 42.6263C61.9564 42.0244 62.2615 41.4144 62.5568 40.7962C62.7193 40.4561 62.8789 40.1134 63.0356 39.7683C63.0535 39.7289 63.0714 39.6895 63.0892 39.6501C63.8811 37.8952 64.5976 36.0766 65.2385 34.1944C65.2632 34.122 65.2877 34.0494 65.3122 33.9768C65.832 32.4325 66.3011 30.8454 66.7197 29.2158C65.9864 28.9897 65.2925 28.8038 64.6379 28.6581C64.581 28.6455 64.5243 28.6331 64.4679 28.621C63.4455 28.4021 62.5212 28.2833 61.6949 28.2647C61.618 28.2629 61.5419 28.2621 61.4666 28.2621C61.2079 28.2621 60.9549 28.2672 60.7078 28.2776C58.1677 28.3835 56.2415 29.034 54.9294 30.229C54.7507 30.6797 54.5841 31.1315 54.4296 31.5844ZM59.0952 33.7419C58.6295 35.2004 58.321 36.6586 58.1641 38.121C58.8508 36.6526 59.4809 35.1282 60.0535 33.5469C59.6552 33.5979 59.3409 33.6679 59.0952 33.7419Z" fill="url(#paint6_linear_7422:8693)"/>
  <path d="M107.201 29.688L106.621 42.7249C106.621 46.3199 107.162 49.8359 108.243 53.273C107.162 53.747 105.926 53.984 104.536 53.984C101.253 53.984 99.6115 52.1075 99.6115 48.3545C99.6115 46.6557 99.8243 43.8113 100.249 39.8212C100.673 35.7917 100.886 33.2632 100.886 32.2361C100.886 30.2609 100.018 29.2732 98.2793 29.2732C97.0046 29.2732 95.5571 30.2213 93.9346 32.1176C92.3512 33.9744 90.9801 36.0681 89.8216 38.399C88.7016 40.6904 88.045 42.5866 87.8519 44.0878C88.0064 47.1693 88.3926 50.1124 89.0105 52.9173C87.7747 53.3915 86.4809 53.6285 85.1292 53.6285C83.8161 53.6285 82.7347 53.3124 81.8851 52.6803C81.074 52.0087 80.6686 51.1001 80.6686 49.9544C80.6686 48.7693 80.8423 46.6755 81.1899 43.673C81.5375 40.6311 81.7113 37.6286 81.7113 34.6657C81.7113 31.6633 81.2672 28.2262 80.3789 24.3548C81.6147 23.8806 82.9279 23.6436 84.3181 23.6436C85.7084 23.6436 86.8285 24.0584 87.6781 24.888C88.5664 25.7177 89.0105 26.7448 89.0105 27.9695C89.0105 29.1942 88.856 31.1497 88.5471 33.8361C90.0146 31.0312 91.9264 28.5819 94.2822 26.488C96.6376 24.3548 98.9937 23.2881 101.35 23.2881C105.25 23.2881 107.201 25.4214 107.201 29.688Z" fill="#7908F4"/>
  <path fill-rule="evenodd" clip-rule="evenodd" d="M112.364 29.7508L111.76 42.8586C111.771 45.8914 112.249 48.8524 113.199 51.7603L114.672 56.2706L110.252 58.1371C108.357 58.9372 106.34 59.2729 104.301 59.2729C101.612 59.2729 98.6722 58.5061 96.5089 56.1236C94.4458 53.8514 93.8784 50.963 93.8784 48.4074C93.8784 46.3891 94.1306 43.2803 94.5745 39.264C94.5823 39.1926 94.5901 39.1218 94.5977 39.0516C94.2681 39.5931 93.9527 40.1547 93.6518 40.7371C92.7695 42.478 92.352 43.6727 92.186 44.4109C92.3504 47.0285 92.7049 49.5074 93.2413 51.8529L94.2531 56.2766L89.944 57.8689C88.0463 58.5701 86.0662 58.9154 84.037 58.9154C81.832 58.9154 79.5376 58.3954 77.5437 56.9665L77.4332 56.8874L77.3271 56.8027C75.1412 55.0591 74.0988 52.6071 74.0988 50.0167C74.0988 48.4808 74.3183 46.0952 74.6794 43.0907C75.0189 40.2262 75.1875 37.4096 75.1875 34.6393C75.1875 32.1247 74.7987 29.0793 73.936 25.4574L72.875 21.0029L77.2228 19.3964C79.1373 18.6889 81.1394 18.3498 83.1903 18.3498C85.716 18.3498 88.2624 19.1054 90.3018 21.0008C90.5614 21.2371 90.8056 21.4835 91.0338 21.7394C93.9219 19.472 97.2549 17.9922 100.974 17.9922C103.918 17.9922 107.072 18.7843 109.413 21.2508C111.692 23.6515 112.364 26.7684 112.364 29.6326V29.7508ZM87.2045 25.3362C87.7953 26.0662 88.0907 26.9228 88.0907 27.9059C88.0907 28.4961 88.0536 29.255 87.9796 30.1827C87.8991 31.1912 87.7748 32.3992 87.6068 33.8065C88.4127 32.3227 89.347 30.9377 90.4096 29.6518C90.4107 29.6504 90.412 29.6489 90.4132 29.6475C90.911 29.0452 91.437 28.4647 91.9911 27.9059C92.4094 27.484 92.8437 27.0745 93.2941 26.6774C93.3936 26.5896 93.494 26.5024 93.5951 26.4158C94.8025 25.3628 96.0093 24.5682 97.217 24.0319C98.4694 23.4755 99.7218 23.1973 100.975 23.1973C105.048 23.1973 107.084 25.343 107.084 29.6343L106.479 42.7469C106.479 46.3627 107.044 49.8992 108.173 53.3561C107.709 53.5517 107.22 53.7071 106.702 53.8225C105.958 53.9884 105.158 54.0713 104.302 54.0713C103.77 54.0713 103.279 54.0259 102.829 53.9349C100.383 53.4398 99.1601 51.5979 99.1601 48.4091C99.1601 46.7005 99.3822 43.8396 99.8256 39.8264C100.269 35.7734 100.491 33.2304 100.491 32.1973C100.491 30.4839 99.8159 29.5093 98.4665 29.2736C98.2511 29.2359 98.0183 29.2172 97.769 29.2172C97.3295 29.2172 96.8707 29.321 96.3915 29.5288C96.3798 29.5342 96.3672 29.5397 96.3546 29.5452C95.3933 29.9723 94.3524 30.8166 93.2322 32.0781C93.1858 32.1304 93.1397 32.1829 93.0936 32.2357C92.5306 32.881 91.9938 33.5544 91.4831 34.2559C91.2055 34.637 90.9358 35.0263 90.6737 35.4239C90.6107 35.5195 90.5482 35.6156 90.486 35.7121C89.9348 36.5691 89.4186 37.4637 88.9376 38.3959C87.7681 40.7005 87.0826 42.6078 86.8809 44.1177C87.0422 47.217 87.4455 50.1773 88.0907 52.9985C87.1158 53.3588 86.1062 53.5829 85.0622 53.671C84.7244 53.6995 84.383 53.7137 84.038 53.7137C83.6092 53.7137 83.2041 53.6826 82.8226 53.6204C81.9843 53.4838 81.2603 53.197 80.6506 52.7601C79.8038 52.0846 79.3804 51.1707 79.3804 50.0184C79.3804 48.8263 79.5618 46.7203 79.9247 43.7005C80.2877 40.6409 80.4691 37.6211 80.4691 34.641C80.4691 31.6211 80.0054 28.1642 79.0779 24.2701C79.9735 23.9392 80.9079 23.7231 81.8812 23.6219C82.3103 23.5772 82.7469 23.5549 83.1912 23.5549C83.601 23.5549 83.9883 23.5881 84.3532 23.6547C85.2806 23.8237 86.0627 24.2077 86.6995 24.8066C86.8867 24.975 87.055 25.1515 87.2045 25.3362Z" fill="url(#paint7_linear_7422:8693)"/>
  <path fill-rule="evenodd" clip-rule="evenodd" d="M136.595 9.52734C135.248 9.52734 133.942 9.75698 132.673 10.2162C133.466 14.6172 133.902 19.2861 133.981 24.2229C132.04 23.534 129.742 23.1896 127.088 23.1896C124.435 23.1896 121.919 24.1272 119.543 26.0024C117.205 27.8394 115.443 30.1547 114.255 32.9484C113.106 35.7037 112.531 38.6505 112.531 41.7887C112.531 44.9267 113.324 47.5673 114.908 49.7104C116.532 51.8535 118.85 52.925 121.86 52.925C123.206 52.925 124.474 52.5998 125.663 51.9492C126.89 51.2604 128.139 50.0931 129.406 48.4475C130.713 46.8019 132.198 44.2762 133.862 40.8701C133.347 43.9317 133.09 46.0556 133.09 47.242C133.09 50.8011 134.397 52.5806 137.011 52.5806C138.555 52.5806 140.041 52.351 141.467 51.8918C140.516 46.6871 140.041 41.7887 140.041 37.1963C140.041 32.5657 140.239 27.8776 140.636 23.1322C141.031 18.3485 141.229 15.3252 141.229 14.0623C141.229 12.7612 140.794 11.6896 139.922 10.8476C139.051 9.96744 137.942 9.52734 136.595 9.52734ZM127.686 28.0701C129.943 28.0701 132.043 28.4145 133.984 29.1034C133.231 33.6957 131.686 37.9627 129.349 41.9045C127.051 45.8463 124.992 47.8171 123.17 47.8171C121.982 47.8171 121.13 47.0135 120.615 45.4062C120.1 43.7989 119.843 42.115 119.843 40.3546C119.843 36.5276 120.517 33.0643 121.863 29.9644C123.487 28.7015 125.428 28.0701 127.686 28.0701Z" fill="#7908F4"/>
  <path fill-rule="evenodd" clip-rule="evenodd" d="M126.481 6.72778L130.471 5.25389C132.301 4.57773 134.208 4.23535 136.163 4.23535C138.776 4.23535 141.236 5.15853 143.136 7.09274C145.03 8.98001 145.897 11.3791 145.897 13.8822C145.897 15.4047 145.679 18.6856 145.291 23.4513V23.4546C144.91 28.1182 144.719 32.7198 144.719 37.2595C144.719 41.5649 145.156 46.2182 146.055 51.2295L146.825 55.5322L142.617 56.9138C140.665 57.5548 138.643 57.8698 136.574 57.8698C134.172 57.8698 131.759 57.038 130.007 55.0627C129.347 55.623 128.648 56.124 127.908 56.547L127.885 56.5604L127.862 56.5735C125.922 57.656 123.795 58.2179 121.558 58.2179C117.117 58.2179 113.2 56.5025 110.52 52.8968L110.503 52.8728L110.485 52.8487C108.18 49.6697 107.172 45.9195 107.172 41.9001C107.172 38.1178 107.854 34.494 109.251 31.0748L109.259 31.0583L109.266 31.0419C110.756 27.4694 113.008 24.4321 116.014 22.0226C119.136 19.5122 122.745 18.0412 126.74 18.0412C127.209 18.0412 127.673 18.0506 128.133 18.07C127.927 15.577 127.619 13.1752 127.211 10.8634L126.481 6.72778ZM133.343 18.7906C133.457 20.419 133.531 22.0787 133.564 23.7697C133.567 23.8969 133.569 24.0243 133.57 24.1518C132.066 23.6073 130.345 23.2758 128.407 23.1571C128.055 23.1356 127.695 23.121 127.329 23.1136C127.134 23.1097 126.938 23.1076 126.739 23.1076C124.109 23.1076 121.616 24.0552 119.261 25.9501C119.064 26.1079 118.871 26.2692 118.683 26.4339C118.092 26.9491 117.543 27.4985 117.034 28.082C116.863 28.2774 116.696 28.4768 116.535 28.6799C115.518 29.9579 114.679 31.3876 114.02 32.969C112.881 35.7534 112.312 38.7312 112.312 41.9023C112.312 45.0734 113.097 47.7418 114.668 49.9074C116.277 52.073 118.574 53.1559 121.557 53.1559C121.98 53.1559 122.394 53.1229 122.801 53.0572C122.818 53.0543 122.835 53.0514 122.853 53.0485C123.713 52.9031 124.537 52.6103 125.327 52.1697C126.131 51.7095 126.944 51.038 127.766 50.1552C128.187 49.7027 128.61 49.1947 129.036 48.6313C129.32 48.2677 129.611 47.8616 129.912 47.413C130.584 46.4076 131.299 45.1885 132.057 43.7558C132.061 43.7483 132.065 43.7407 132.069 43.7331C132.516 42.8876 132.977 41.968 133.453 40.9741C133.249 42.2105 133.086 43.2955 132.963 44.2293C132.962 44.2411 132.96 44.253 132.958 44.2648C132.894 44.7565 132.841 45.2058 132.801 45.6129C132.725 46.3527 132.687 46.9527 132.687 47.413C132.687 49.053 132.957 50.319 133.496 51.2112C134.028 52.0942 134.826 52.611 135.887 52.7614C136.105 52.7923 136.334 52.8078 136.574 52.8078C136.725 52.8078 136.875 52.8055 137.025 52.8011C138.395 52.7598 139.717 52.53 140.991 52.1117C140.048 46.8523 139.577 41.9023 139.577 37.2617C139.577 32.5823 139.773 27.845 140.166 23.0497C140.559 18.2156 140.756 15.1605 140.756 13.8844C140.756 12.5695 140.323 11.4868 139.46 10.6359C138.878 10.0372 138.19 9.63992 137.395 9.44428C137.058 9.36121 136.701 9.31447 136.325 9.30401C136.271 9.30251 136.217 9.30176 136.162 9.30176C134.827 9.30176 133.532 9.53378 132.276 9.99781C132.773 12.8198 133.129 15.7506 133.343 18.7906ZM133.497 29.5202C133.523 29.3746 133.546 29.2286 133.57 29.0823C133.032 28.8875 132.482 28.72 131.919 28.5797C130.47 28.2187 128.939 28.0381 127.328 28.0381C127.129 28.0381 126.933 28.0431 126.739 28.0532C125.032 28.1419 123.518 28.6209 122.195 29.4903C122.193 29.4919 122.191 29.4935 122.189 29.495C121.972 29.6371 121.763 29.7896 121.557 29.9524C121.376 30.378 121.206 30.8103 121.05 31.2495C120.053 34.0425 119.555 37.11 119.555 40.4519C119.555 42.2307 119.81 43.9323 120.321 45.5565C120.762 46.9608 121.452 47.758 122.393 47.9482C122.54 47.978 122.693 47.9929 122.853 47.9929C122.856 47.9929 122.86 47.9929 122.864 47.9928C122.884 47.9927 122.903 47.9925 122.922 47.9919C123.854 47.9655 124.847 47.413 125.903 46.3345C125.916 46.3208 125.93 46.3069 125.944 46.2931C126.549 45.667 127.176 44.8679 127.823 43.8959C128.201 43.3288 128.585 42.7028 128.977 42.018C129.287 41.4845 129.583 40.945 129.866 40.3997C130.018 40.1058 130.165 39.8102 130.31 39.5128C130.343 39.4432 130.377 39.3737 130.41 39.3039C131.875 36.2253 132.904 32.9641 133.497 29.5202ZM125.76 33.3463C125.186 35.0839 124.834 37.0042 124.731 39.1306C125.814 37.2118 126.689 35.2038 127.358 33.1007C127.349 33.1007 127.341 33.1007 127.332 33.1007C126.704 33.1007 126.193 33.1888 125.76 33.3463Z" fill="url(#paint8_linear_7422:8693)"/>
  <path d="M147.88 43.8631L148.466 35.5969C148.466 31.8848 147.919 28.364 146.824 25.0346C147.919 24.5753 149.268 24.3457 150.87 24.3457C153.996 24.3457 155.56 26.0487 155.56 29.4547C155.56 30.9855 155.346 33.1476 154.915 35.9414C154.485 38.7351 154.27 40.6676 154.27 41.7391C154.27 42.7724 154.29 43.5378 154.329 44.0353C154.368 44.4945 154.465 45.0495 154.622 45.7001C154.857 47.0012 155.619 47.6518 156.908 47.6518C158.238 47.6518 159.644 46.6376 161.13 44.6093C162.654 42.5428 163.866 40.2658 164.765 37.7783C165.702 35.2908 166.171 33.3199 166.171 31.8657C165.976 28.8424 165.644 26.5653 165.175 25.0346C166.425 24.5753 167.695 24.3457 168.985 24.3457C170.315 24.3457 171.409 24.7476 172.269 25.5512C173.168 26.3549 173.617 27.4264 173.617 28.7659C173.617 49.661 169.708 62.1942 161.891 66.3656C160.133 67.284 158.14 67.7433 155.912 67.7433C153.684 67.7433 151.729 67.1692 150.049 66.0212C148.408 64.8731 147.587 63.2658 147.587 61.1992C147.587 59.8215 148.114 58.6543 149.17 57.6975C150.225 56.7791 151.476 56.3198 152.922 56.3198C153.235 56.3198 153.625 56.3581 154.094 56.4346C153.977 56.9321 153.918 57.3722 153.918 57.7549C153.918 61.1227 155.11 62.8065 157.495 62.8065C158.941 62.8065 160.25 62.0411 161.423 60.5104C162.596 58.9796 163.533 57.1043 164.237 54.8847C165.604 50.3689 166.289 46.2741 166.289 42.6003C165.116 45.7001 163.514 48.2068 161.481 50.1202C159.488 51.9954 157.319 52.933 154.974 52.933C150.245 52.933 147.88 49.9097 147.88 43.8631Z" fill="#7908F4"/>
  <path fill-rule="evenodd" clip-rule="evenodd" d="M142.653 43.664L143.245 35.3169C143.228 32.1243 142.751 29.1485 141.837 26.3645L140.395 21.9748L144.72 20.1583C146.65 19.3479 148.751 19.0527 150.84 19.0527C153.366 19.0527 156.166 19.7659 158.236 22.0222C158.857 22.6996 159.336 23.4339 159.7 24.1962L158.946 21.7336L163.469 20.0712C165.291 19.4017 167.188 19.0527 169.131 19.0527C171.615 19.0527 174.035 19.8403 175.973 21.6334C178.063 23.5246 178.976 26.0195 178.976 28.5835C178.976 39.3821 177.976 48.3879 175.791 55.3974C173.619 62.3696 170.058 68.0265 164.443 71.0255L164.422 71.0364L164.401 71.0472C161.792 72.4107 158.928 73.0352 155.932 73.0352C152.721 73.0352 149.695 72.1892 147.054 70.3841L147.031 70.368L147.008 70.3516C143.919 68.1901 142.358 64.9926 142.358 61.3581C142.358 58.5201 143.517 56.0048 145.612 54.1037L145.651 54.0687L145.69 54.0345C145.693 54.0323 145.696 54.0301 145.698 54.0279C145.634 53.9507 145.571 53.8723 145.509 53.7927C143.323 50.9961 142.653 47.3985 142.653 43.8396V43.664ZM150.492 51.6193C151.17 52.1715 151.976 52.5589 152.911 52.7816C153.462 52.9128 154.057 52.9868 154.697 53.0036C154.791 53.0061 154.887 53.0073 154.983 53.0073C155.719 53.0073 156.439 52.9157 157.14 52.7322C157.668 52.5944 158.187 52.4047 158.695 52.1632C159.128 51.9575 159.555 51.7142 159.973 51.4333C160.512 51.0726 161.038 50.6498 161.553 50.165C162.583 49.1948 163.503 48.0737 164.315 46.8017C164.317 46.798 164.319 46.7943 164.321 46.7906C165.124 45.5303 165.819 44.1221 166.407 42.5659C166.407 43.8107 166.329 45.1034 166.174 46.4439C165.919 48.6498 165.453 50.9852 164.777 53.4502C164.777 53.4509 164.776 53.4516 164.776 53.4523C164.693 53.7572 164.606 54.0642 164.516 54.3732C164.457 54.5745 164.397 54.7767 164.336 54.9797C163.644 57.163 162.728 59.0165 161.588 60.5403C161.557 60.582 161.526 60.6233 161.494 60.6644C160.92 61.4143 160.314 61.9823 159.675 62.3687C159.662 62.3763 159.65 62.3839 159.637 62.3913C158.97 62.7869 158.266 62.9847 157.528 62.9847C157.196 62.9847 156.888 62.9525 156.602 62.8879C154.844 62.4909 153.949 60.8734 153.917 58.0352C153.917 57.9838 153.917 57.9322 153.917 57.88C153.917 57.7511 153.923 57.6159 153.936 57.4741C153.963 57.1904 154.015 56.881 154.095 56.5458C153.621 56.4685 153.226 56.4298 152.911 56.4298C151.842 56.4298 150.879 56.6782 150.022 57.1751C149.708 57.3573 149.408 57.573 149.122 57.822C149.101 57.8413 149.08 57.8606 149.059 57.88C148.95 57.9811 148.849 58.0845 148.752 58.19C147.933 59.0835 147.524 60.1403 147.524 61.3605C147.524 63.4488 148.352 65.073 150.01 66.2332C151.707 67.3933 153.68 67.9734 155.93 67.9734C156.048 67.9734 156.166 67.9721 156.283 67.9696C156.707 67.9603 157.121 67.9341 157.528 67.8912C159.144 67.7204 160.624 67.2838 161.968 66.5812C163.265 65.8887 164.454 64.968 165.538 63.8192C171.05 57.9761 173.806 46.2317 173.806 28.586C173.806 27.2325 173.353 26.1497 172.445 25.3375C171.89 24.8174 171.236 24.4638 170.485 24.2768C170.065 24.1719 169.613 24.1194 169.13 24.1194C168.336 24.1194 167.549 24.2056 166.77 24.3782C166.271 24.4886 165.776 24.6343 165.282 24.8154C165.756 26.3623 166.092 28.6634 166.289 31.7184C166.289 33.188 165.816 35.1796 164.868 37.6932C164.438 38.8846 163.937 40.0281 163.365 41.1238C163.315 41.2187 163.266 41.3131 163.214 41.4072C163.004 41.7997 162.784 42.1859 162.555 42.5659C162.133 43.2636 161.681 43.9404 161.198 44.5962C161.185 44.6148 161.17 44.6333 161.157 44.6517C160.281 45.8393 159.432 46.6764 158.61 47.1633C158.61 47.1635 158.609 47.1638 158.609 47.1641C158.039 47.5018 157.48 47.6706 156.936 47.6706C156.745 47.6706 156.564 47.6563 156.395 47.6279C155.418 47.4627 154.829 46.8196 154.628 45.6983C154.47 45.0409 154.371 44.4802 154.331 44.0161C154.291 43.5134 154.272 42.74 154.272 41.6958C154.272 40.613 154.489 38.66 154.924 35.837C155.358 33.0139 155.574 30.8289 155.574 29.2821C155.574 26.2787 154.372 24.5857 151.968 24.2031C151.617 24.1473 151.241 24.1194 150.839 24.1194C149.818 24.1194 148.9 24.2117 148.084 24.3962C147.605 24.5043 147.163 24.6441 146.755 24.8154C147.86 28.1799 148.412 31.7377 148.412 35.4889L147.82 43.8421C147.82 47.5745 148.71 50.1668 150.492 51.6193ZM160.205 35.4388C160.882 33.5541 161.093 32.4097 161.119 31.837C161 30.0611 160.836 28.7 160.659 27.6953C160.719 28.234 160.743 28.7658 160.743 29.281C160.743 30.9486 160.547 33.0294 160.205 35.4388Z" fill="url(#paint9_linear_7422:8693)"/>
  <path d="M29.5081 11.6445C32.9065 11.6445 35.8753 12.6251 38.4144 14.5863C40.9535 16.5476 42.223 19.0855 42.223 22.2004C42.223 23.854 41.7542 25.2191 40.8168 26.2959C39.8792 27.3726 38.7269 27.911 37.3597 27.911C35.9925 27.911 34.8987 27.738 34.0784 27.3919C34.1956 26.7766 34.2541 26.1229 34.2541 25.4307C34.2151 23.008 33.6096 21.0468 32.4378 19.5471C31.2659 18.0088 29.5471 17.2397 27.2814 17.2397C25.0549 17.2397 22.9845 17.9511 21.0704 19.374C19.9376 20.9891 19.0587 23.1041 18.4337 25.7191C17.8087 28.334 17.4962 30.9105 17.4962 33.4486C17.4962 37.6786 18.3165 41.2357 19.9572 44.1198C21.6369 46.9656 24.2345 48.3884 27.7501 48.3884C30.9924 48.3884 33.18 47.177 34.3128 44.7543C35.3675 42.6393 35.8948 39.8322 35.8948 36.3327C37.887 36.3327 39.5472 36.6981 40.8753 37.4287C42.2035 38.1208 42.8676 39.2745 42.8676 40.8896C42.8676 44.6582 41.1879 47.7923 37.8284 50.2919C34.469 52.753 30.6799 53.9836 26.4612 53.9836C20.9533 53.9836 16.7735 52.1955 13.9219 48.6191C11.0704 45.0043 9.64453 40.1205 9.64453 33.9677C9.64453 27.8149 11.4219 22.5658 14.9766 18.2203C18.5704 13.8364 23.4143 11.6445 29.5081 11.6445Z" fill="url(#paint10_linear_7422:8693)"/>
  <path fill-rule="evenodd" clip-rule="evenodd" d="M32.0659 28.4431L32.3449 26.9827C32.4395 26.4876 32.4902 25.9457 32.491 25.3533C32.4538 23.1945 31.9167 21.6332 31.0384 20.5124L31.0314 20.5034L31.0245 20.4944C30.2515 19.4827 29.114 18.9 27.3 18.9C25.5732 18.9 23.9453 19.4134 22.3785 20.5088C21.4764 21.8737 20.7192 23.7016 20.155 26.0554C19.5519 28.5718 19.2533 31.0378 19.2533 33.4564C19.2533 37.5017 20.0389 40.7671 21.5038 43.3414C22.8503 45.6077 24.8421 46.7278 27.7759 46.7278C29.1899 46.7278 30.2278 46.4642 30.9848 46.0462C31.7204 45.64 32.3009 45.0287 32.7236 44.1274L32.7334 44.1064L32.7438 44.0856C33.641 42.2917 34.1568 39.7621 34.1568 36.3763V34.5224H36.0455C38.286 34.5224 40.3053 34.9299 42.0056 35.8576C42.9514 36.353 43.7315 37.0533 44.2626 37.9735C44.7923 38.891 45.0138 39.9214 45.0138 40.9898C45.0138 45.4503 42.9764 49.1474 39.1476 51.988L39.142 51.9921L39.1363 51.9963C35.3968 54.728 31.1536 56.1005 26.4671 56.1005C20.4196 56.1005 15.5739 54.1169 12.2499 49.9601L12.2469 49.9563L12.2439 49.9526C9.01519 45.8714 7.50391 40.482 7.50391 33.9819C7.50391 27.3759 9.42775 21.6392 13.3355 16.8761L13.3367 16.8746C17.3701 11.9685 22.8451 9.52734 29.5608 9.52734C33.41 9.52734 36.8404 10.6452 39.7696 12.9011C42.7933 15.2299 44.3595 18.3323 44.3595 22.0684C44.3595 24.1075 43.7698 25.9407 42.4769 27.4213C41.1882 28.8972 39.5052 29.7039 37.5328 29.7039C36.0112 29.7039 34.6164 29.5161 33.4572 29.0284L32.0659 28.4431ZM41.1 37.4871C40.1955 36.9909 39.1394 36.6612 37.9316 36.4978C37.3387 36.4176 36.7092 36.3776 36.0431 36.3776C36.0431 39.9205 35.5078 42.7625 34.4369 44.9038C33.2867 47.3566 31.0656 48.583 27.7736 48.583C24.204 48.583 21.5665 47.1425 19.8611 44.2614C18.1953 41.3414 17.3623 37.7402 17.3623 33.4576C17.3623 30.888 17.6796 28.2794 18.3142 25.632C18.9488 22.9846 19.8412 20.8433 20.9914 19.2081C22.9348 17.7675 25.037 17.0473 27.2977 17.0473C29.598 17.0473 31.3432 17.826 32.5331 19.3833C33.7229 20.9017 34.3377 22.8872 34.3773 25.3401C34.3773 26.0408 34.3179 26.7027 34.1989 27.3256C35.0317 27.676 36.1423 27.8512 37.5305 27.8512C38.9186 27.8512 40.0887 27.3061 41.0406 26.216C41.9924 25.1259 42.4684 23.7437 42.4684 22.0696C42.4684 18.916 41.1794 16.3465 38.6014 14.3609C36.0234 12.3753 33.009 11.3826 29.5584 11.3826C23.3712 11.3826 18.4531 13.6017 14.8041 18.0401C11.1949 22.4396 9.39024 27.7539 9.39024 33.9831C9.39024 40.2124 10.8379 45.1569 13.7332 48.8166C16.6286 52.4374 20.8724 54.2478 26.4648 54.2478C30.7482 54.2478 34.5955 53.0019 38.0064 50.5102C41.4174 47.9795 43.1229 44.8065 43.1229 40.9911C43.1229 39.3559 42.4486 38.1879 41.1 37.4871Z" fill="#FF881B"/>
  <path fill-rule="evenodd" clip-rule="evenodd" d="M73.4206 39.4054C73.4206 34.8228 73.9532 30.2599 75.0182 25.7167C70.2843 24.097 65.6687 23.2871 61.1714 23.2871C56.7137 23.2871 53.0843 25.2031 50.2834 29.0352C47.4825 32.8277 46.082 37.2524 46.082 42.3091C46.082 45.6276 46.9104 48.4127 48.5673 50.6645C50.2242 52.8768 52.5517 53.983 55.5499 53.983C56.8123 53.983 58.0353 53.6274 59.2187 52.9164C61.8224 51.3361 64.5247 47.5436 67.3256 41.5387C66.8127 44.4622 66.5563 46.7733 66.5563 48.4719C66.5563 50.1312 66.8522 51.4152 67.4439 52.3237C68.0357 53.1929 69.0811 53.6274 70.5802 53.6274C72.0792 53.6274 73.5389 53.3904 74.9591 52.9164C73.9334 48.4522 73.4206 43.9486 73.4206 39.4054ZM61.9399 28.325C63.3996 28.325 65.1748 28.641 67.2657 29.2731C66.0033 34.0928 64.2872 38.5372 62.1175 42.6063C59.9478 46.6753 58.1726 48.71 56.7918 48.71C55.6083 48.71 54.7206 47.7816 54.1289 45.9247C53.5766 44.068 53.3005 42.231 53.3005 40.4137C53.3005 36.9767 53.9711 33.599 55.3124 30.2805C56.772 28.9768 58.9812 28.325 61.9399 28.325Z" fill="url(#paint11_linear_7422:8693)"/>
  <path fill-rule="evenodd" clip-rule="evenodd" d="M76.0902 24.1991L75.699 25.83C74.6603 30.1598 74.1421 34.5031 74.1421 38.8629C74.1421 43.1879 74.6415 47.4757 75.6413 51.729L76.0264 53.3666L74.3976 53.8979C72.7763 54.4269 71.1065 54.6918 69.396 54.6918C67.5505 54.6918 65.7632 54.157 64.6806 52.6028L64.6697 52.5872L64.6591 52.5713C64.0222 51.6155 63.677 50.471 63.5363 49.2199C62.0526 51.2603 60.5293 52.7873 58.9483 53.725L58.9446 53.7272L58.9411 53.7293C57.4854 54.5841 55.9227 55.0413 54.279 55.0413C50.7279 55.0413 47.8019 53.7243 45.7447 51.0397L45.7399 51.0334L45.7351 51.027C43.7872 48.4398 42.8672 45.298 42.8672 41.717C42.8672 36.3825 44.3868 31.6422 47.4603 27.5734C50.6063 23.3688 54.805 21.1699 59.933 21.1699C64.6859 21.1699 69.5345 22.0069 74.4705 23.6574L76.0902 24.1991ZM48.9841 28.6682C46.1671 32.3962 44.7585 36.7454 44.7585 41.716C44.7585 44.9779 45.5917 47.7157 47.2581 49.9291C48.9246 52.1038 51.2655 53.191 54.281 53.191C55.5507 53.191 56.7806 52.8416 57.9709 52.1426C59.7833 51.0676 61.6431 48.9509 63.5505 45.7928C64.3992 44.3876 65.2572 42.7763 66.1246 40.9588C65.7422 43.0889 65.5016 44.8882 65.4027 46.3569C65.3682 46.8695 65.3509 47.3418 65.3509 47.7739C65.3509 49.4049 65.6485 50.6669 66.2436 51.5601C66.8388 52.4144 67.8902 52.8416 69.398 52.8416C70.9057 52.8416 72.3738 52.6086 73.8021 52.1426C72.7705 47.7545 72.2547 43.3275 72.2547 38.8618C72.2547 34.3572 72.7903 29.8721 73.8616 25.4063C69.1004 23.8142 64.4582 23.0181 59.935 23.0181C55.4515 23.0181 51.8012 24.9014 48.9841 28.6682ZM63.7324 30.2075C62.5407 29.9418 61.5362 29.8203 60.7061 29.8203C58.2397 29.8203 56.6293 30.3025 55.6159 31.0231C54.4721 33.9318 53.9062 36.8722 53.9062 39.8539C53.9062 41.4444 54.1523 43.0665 54.6554 44.7254C54.905 45.4849 55.1606 45.8717 55.3307 46.0455C55.4058 46.1223 55.4503 46.1479 55.4811 46.1561C55.5296 46.1318 55.8587 45.9949 56.4861 45.2921C57.2411 44.4465 58.1543 43.0879 59.218 41.1381C61.0522 37.7762 62.5584 34.1341 63.7324 30.2075ZM52.8528 45.2726C52.2973 43.4474 52.0195 41.6418 52.0195 39.8554C52.0195 36.477 52.6941 33.1568 54.0431 29.8949C55.5111 28.6134 57.733 27.9727 60.7088 27.9727C62.1769 27.9727 63.9624 28.2833 66.0653 28.9046C64.7955 33.6422 63.0696 38.0108 60.8874 42.0107C58.7051 46.0104 56.9196 48.0103 55.531 48.0103C54.3406 48.0103 53.4479 47.0978 52.8528 45.2726Z" fill="#FF881B"/>
  <path d="M107.201 29.6881L106.621 42.7249C106.621 46.3199 107.162 49.8359 108.243 53.2729C107.162 53.7469 105.926 53.984 104.536 53.984C101.253 53.984 99.6115 52.1074 99.6115 48.3544C99.6115 46.6557 99.8243 43.8113 100.249 39.8212C100.673 35.7916 100.886 33.2633 100.886 32.2362C100.886 30.2608 100.018 29.2732 98.2793 29.2732C97.0046 29.2732 95.5571 30.2213 93.9346 32.1177C92.3512 33.9744 90.9802 36.0682 89.8216 38.399C88.7016 40.6903 88.045 42.5866 87.852 44.0879C88.0064 47.1693 88.3926 50.1125 89.0105 52.9173C87.7747 53.3914 86.481 53.6284 85.1292 53.6284C83.8161 53.6284 82.7347 53.3124 81.8851 52.6803C81.0741 52.0087 80.6686 51.1001 80.6686 49.9544C80.6686 48.7692 80.8423 46.6754 81.19 43.673C81.5375 40.631 81.7113 37.6287 81.7113 34.6657C81.7113 31.6633 81.2672 28.2263 80.3789 24.3548C81.6147 23.8807 82.9279 23.6436 84.3182 23.6436C85.7085 23.6436 86.8285 24.0584 87.6781 24.8881C88.5664 25.7177 89.0105 26.7448 89.0105 27.9695C89.0105 29.1942 88.8561 31.1497 88.5471 33.8361C90.0146 31.0312 91.9264 28.5819 94.2822 26.488C96.6376 24.3548 98.9937 23.2881 101.35 23.2881C105.25 23.2881 107.201 25.4214 107.201 29.6881Z" fill="url(#paint12_linear_7422:8693)"/>
  <path fill-rule="evenodd" clip-rule="evenodd" d="M108.878 29.352L108.281 42.1662C108.286 45.4924 108.811 48.7437 109.859 51.9266L110.387 53.5295L108.803 54.1928C107.417 54.7736 105.885 55.0413 104.243 55.0413C102.205 55.0413 100.346 54.4752 99.0331 53.0417C97.7559 51.6473 97.2837 49.7404 97.2837 47.6584C97.2837 45.8786 97.5141 42.9943 97.951 39.071C98.3917 35.0747 98.5953 32.7025 98.5953 31.8147C98.5953 31.0837 98.4232 30.8806 98.4108 30.8674L98.4098 30.8669C98.405 30.8613 98.3878 30.8423 98.3219 30.8184C98.2425 30.7895 98.0819 30.7514 97.8056 30.7514C97.3726 30.7514 96.3707 31.1161 94.759 32.9155C93.2406 34.6171 91.9172 36.5445 90.7924 38.7052C89.7292 40.784 89.1618 42.3822 88.9755 43.5476C89.1353 46.4142 89.516 49.1433 90.1141 51.7371L90.4767 53.3092L88.9326 53.875C87.4434 54.4208 85.8866 54.6918 84.2744 54.6918C82.6244 54.6918 81.0941 54.3092 79.8234 53.4061L79.7838 53.378L79.7457 53.3479C78.4314 52.3082 77.7922 50.8684 77.7922 49.2312C77.7922 47.944 77.9848 45.7865 78.3417 42.8407C78.691 39.92 78.8652 37.0408 78.8652 34.203C78.8652 31.4312 78.435 28.199 77.5442 24.4901L77.1641 22.9071L78.7221 22.3361C80.2173 21.7882 81.7947 21.5194 83.4399 21.5194C85.2545 21.5194 86.901 22.047 88.1884 23.24C89.3194 24.2552 89.9794 25.5278 90.1281 26.9797C90.8517 26.2068 91.624 25.4716 92.4448 24.7742C95.0955 22.4834 97.9452 21.1699 100.965 21.1699C103.297 21.1699 105.385 21.7851 106.862 23.3288C108.317 24.8491 108.878 26.9577 108.878 29.31V29.352ZM93.6936 26.1635C92.3353 27.3167 91.1205 28.5796 90.0492 29.9523C89.2086 31.0295 88.4563 32.1741 87.7923 33.3864C87.9908 31.7372 88.1274 30.3682 88.202 29.2795C88.2468 28.6249 88.2692 28.0717 88.2692 27.6198C88.2692 26.4159 87.8122 25.4063 86.8982 24.5908C86.0239 23.7753 84.8715 23.3675 83.4409 23.3675C82.0103 23.3675 80.6593 23.6005 79.3875 24.0666C80.3015 27.8722 80.7586 31.2506 80.7586 34.2019C80.7586 37.1144 80.5797 40.0656 80.2221 43.0558C79.8645 46.007 79.6856 48.0652 79.6856 49.2302C79.6856 50.3563 80.1029 51.2495 80.9373 51.9095C81.8117 52.531 82.9243 52.8416 84.2755 52.8416C85.6663 52.8416 86.9976 52.6086 88.2692 52.1426C87.6334 49.3854 87.236 46.4924 87.077 43.4635C87.2757 41.9878 87.9513 40.1239 89.1037 37.8716C90.2959 35.5805 91.7066 33.5223 93.3359 31.6971C95.0048 29.8332 96.4951 28.9012 97.8067 28.9012C99.5944 28.9012 100.489 29.8721 100.489 31.8136C100.489 32.8233 100.27 35.3086 99.8333 39.2695C99.3965 43.1916 99.1775 45.9876 99.1775 47.6574C99.1775 51.3465 100.867 53.191 104.244 53.191C104.95 53.191 105.617 53.1343 106.245 53.0209C106.368 52.9988 106.49 52.9744 106.61 52.9478C107.12 52.8351 107.602 52.6832 108.059 52.4921C106.947 49.1137 106.39 45.6575 106.39 42.1238L106.986 29.3089C106.986 25.115 104.979 23.0181 100.966 23.0181C98.5418 23.0181 96.1175 24.0666 93.6936 26.1635Z" fill="#FF881B"/>
  <path fill-rule="evenodd" clip-rule="evenodd" d="M136.595 9.52734C135.248 9.52734 133.942 9.75697 132.673 10.2162C133.466 14.6172 133.902 19.2861 133.981 24.2229C132.04 23.534 129.742 23.1896 127.088 23.1896C124.435 23.1896 121.919 24.1272 119.543 26.0025C117.206 27.8394 115.443 30.1546 114.255 32.9484C113.106 35.7038 112.531 38.6505 112.531 41.7886C112.531 44.9268 113.324 47.5673 114.909 49.7104C116.532 51.8535 118.85 52.925 121.86 52.925C123.206 52.925 124.474 52.5998 125.663 51.9492C126.89 51.2604 128.139 50.0931 129.406 48.4475C130.713 46.802 132.199 44.2762 133.862 40.8701C133.347 43.9318 133.09 46.0557 133.09 47.242C133.09 50.8012 134.397 52.5806 137.011 52.5806C138.555 52.5806 140.041 52.351 141.467 51.8918C140.516 46.6872 140.041 41.7886 140.041 37.1963C140.041 32.5657 140.239 27.8777 140.636 23.1322C141.031 18.3485 141.229 15.3252 141.229 14.0623C141.229 12.7611 140.794 11.6895 139.923 10.8476C139.051 9.96742 137.942 9.52734 136.595 9.52734ZM127.686 28.0701C129.943 28.0701 132.043 28.4145 133.984 29.1034C133.231 33.6957 131.686 37.9628 129.35 41.9045C127.052 45.8462 124.992 47.8171 123.17 47.8171C121.982 47.8171 121.13 47.0134 120.615 45.4061C120.1 43.7988 119.843 42.1149 119.843 40.3545C119.843 36.5276 120.517 33.0642 121.863 29.9644C123.487 28.7015 125.428 28.0701 127.686 28.0701Z" fill="url(#paint13_linear_7422:8693)"/>
  <path fill-rule="evenodd" clip-rule="evenodd" d="M131.516 8.76215L132.992 8.22513C134.482 7.68286 136.026 7.41016 137.612 7.41016C139.442 7.41016 141.063 8.03 142.325 9.30198C143.584 10.5321 144.185 12.0971 144.185 13.847C144.185 15.2155 143.977 18.359 143.579 23.1777V23.1789C143.184 27.9358 142.987 32.6331 142.987 37.2708C142.987 41.7986 143.454 46.6502 144.395 51.8297L144.68 53.3974L143.124 53.9009C141.488 54.4303 139.787 54.693 138.031 54.693C136.209 54.693 134.592 54.0348 133.516 52.5644C132.838 51.6363 132.461 50.4973 132.291 49.2402C132.153 49.4263 132.018 49.6046 131.882 49.7754C130.523 51.5467 129.087 52.9368 127.548 53.8042L127.539 53.8091L127.53 53.8138C126.051 54.6275 124.451 55.0417 122.76 55.0417C119.187 55.0417 116.252 53.7264 114.219 51.0317L114.212 51.023L114.207 51.0142C112.338 48.475 111.457 45.4071 111.457 41.9207C111.457 38.5206 112.077 35.3016 113.331 32.2803L113.334 32.2743L113.337 32.2683C114.649 29.1665 116.614 26.5679 119.224 24.5064C121.903 22.3836 124.851 21.2435 128.03 21.2435C129.806 21.2435 131.468 21.388 133.006 21.6896C132.841 17.6895 132.434 13.883 131.786 10.269L131.516 8.76215ZM134.925 22.1674C134.948 22.8181 134.964 23.4734 134.975 24.1335C134.372 23.9185 133.735 23.7366 133.063 23.5878C131.556 23.2541 129.879 23.0873 128.028 23.0873C125.353 23.0873 122.818 24.0367 120.422 25.9354C118.067 27.7953 116.291 30.1396 115.093 32.9683C113.935 35.7582 113.355 38.7419 113.355 41.9193C113.355 45.0967 114.155 47.7703 115.752 49.9403C117.388 52.1103 119.724 53.1952 122.758 53.1952C124.115 53.1952 125.392 52.8659 126.591 52.2071C127.828 51.5097 129.086 50.3278 130.364 48.6616C130.959 47.9083 131.592 46.9728 132.26 45.8551C133.071 44.5007 133.936 42.8788 134.855 40.9893C134.46 43.348 134.215 45.157 134.121 46.4165C134.091 46.8123 134.077 47.1538 134.077 47.441C134.077 51.0447 135.394 52.8465 138.029 52.8465C139.586 52.8465 141.083 52.614 142.521 52.149C141.562 46.8792 141.083 41.9193 141.083 37.2694C141.083 32.5808 141.283 27.8341 141.682 23.0292C142.081 18.1855 142.281 15.1244 142.281 13.8456C142.281 12.5282 141.842 11.4432 140.964 10.5907C140.085 9.69949 138.967 9.25391 137.61 9.25391C136.252 9.25391 134.935 9.4864 133.657 9.95136C134.35 13.8191 134.773 17.8911 134.925 22.1674ZM128.653 41.1247L128.657 41.1188C130.629 37.7777 132.013 34.1924 132.81 30.3543C131.504 30.0359 130.114 29.8734 128.63 29.8734C126.929 29.8734 125.518 30.297 124.324 31.1118C123.202 33.8828 122.625 36.9931 122.625 40.4666C122.625 42.0727 122.859 43.5932 123.319 45.0359C123.525 45.6824 123.742 45.9767 123.864 46.0924C123.918 46.1427 123.95 46.1568 123.961 46.1615C123.973 46.1661 124.005 46.1775 124.078 46.1775C124.269 46.1775 124.79 46.0654 125.675 45.215C126.535 44.388 127.532 43.0566 128.65 41.1305L128.653 41.1247ZM122.759 29.9437C124.395 28.665 126.352 28.0256 128.628 28.0256C130.903 28.0256 133.019 28.3744 134.975 29.0719C134.217 33.7217 132.66 38.0423 130.305 42.0334C127.989 46.0245 125.913 48.0201 124.076 48.0201C122.879 48.0201 122.02 47.2064 121.501 45.5789C120.982 43.9515 120.723 42.2465 120.723 40.464C120.723 36.5891 121.402 33.0824 122.759 29.9437Z" fill="#FF881B"/>
  <path d="M147.88 43.8632L148.466 35.5969C148.466 31.8848 147.919 28.364 146.824 25.0346C147.919 24.5753 149.268 24.3457 150.87 24.3457C153.996 24.3457 155.56 26.0488 155.56 29.4547C155.56 30.9855 155.346 33.1477 154.915 35.9414C154.485 38.7351 154.27 40.6676 154.27 41.7392C154.27 42.7724 154.29 43.5378 154.329 44.0353C154.368 44.4946 154.465 45.0495 154.622 45.7001C154.857 47.0012 155.619 47.6518 156.908 47.6518C158.238 47.6518 159.644 46.6376 161.13 44.6094C162.654 42.5428 163.866 40.2658 164.765 37.7783C165.702 35.2908 166.171 33.3199 166.171 31.8657C165.976 28.8424 165.644 26.5653 165.175 25.0346C166.425 24.5753 167.695 24.3457 168.985 24.3457C170.315 24.3457 171.409 24.7476 172.269 25.5513C173.168 26.3549 173.617 27.4265 173.617 28.7659C173.617 49.661 169.708 62.1942 161.891 66.3656C160.133 67.2841 158.14 67.7433 155.912 67.7433C153.684 67.7433 151.729 67.1693 150.049 66.0212C148.408 64.8731 147.587 63.2658 147.587 61.1992C147.587 59.8215 148.114 58.6543 149.17 57.6976C150.225 56.7791 151.476 56.3199 152.922 56.3199C153.235 56.3199 153.626 56.3581 154.094 56.4347C153.977 56.9322 153.918 57.3722 153.918 57.7549C153.918 61.1227 155.11 62.8066 157.495 62.8066C158.941 62.8066 160.251 62.0412 161.423 60.5104C162.596 58.9796 163.533 57.1043 164.237 54.8847C165.604 50.3689 166.289 46.2741 166.289 42.6003C165.116 45.7001 163.514 48.2068 161.481 50.1202C159.488 51.9954 157.319 52.933 154.974 52.933C150.245 52.933 147.88 49.9097 147.88 43.8632Z" fill="url(#paint14_linear_7422:8693)"/>
  <path fill-rule="evenodd" clip-rule="evenodd" d="M146.171 43.7697L146.76 35.4007C146.753 31.8457 146.231 28.4933 145.201 25.3345L144.68 23.7351L146.244 23.0732C147.641 22.4821 149.263 22.2266 151.043 22.2266C152.957 22.2266 154.719 22.7607 155.966 24.1314C157.181 25.4648 157.624 27.2816 157.624 29.2448C157.624 30.9334 157.391 33.2303 156.955 36.0876C156.522 38.9259 156.328 40.7546 156.328 41.6831C156.328 42.716 156.348 43.4304 156.381 43.8606C156.41 44.2038 156.488 44.6686 156.631 45.271L156.643 45.3217L156.653 45.373C156.702 45.6461 156.768 45.7537 156.79 45.7826C156.822 45.7966 156.912 45.8247 157.108 45.8247C157.463 45.8247 158.387 45.499 159.829 43.5142L159.832 43.509C161.255 41.564 162.391 39.4159 163.237 37.0571L163.24 37.0453L163.245 37.0335C164.149 34.6182 164.53 32.8843 164.542 31.7402C164.348 28.7511 164.026 26.6344 163.62 25.2994L163.119 23.6472L164.754 23.0415C166.213 22.5016 167.711 22.2266 169.238 22.2266C170.985 22.2266 172.56 22.7722 173.811 23.9435C175.142 25.1505 175.759 26.7506 175.759 28.5472C175.759 39.2135 174.772 47.8797 172.734 54.4716C170.699 61.0498 167.537 65.8017 163.008 68.2383L163.001 68.2423L162.993 68.2462C160.925 69.3349 158.615 69.8583 156.107 69.8583C153.522 69.8583 151.179 69.1801 149.149 67.7826L149.141 67.7769L149.132 67.7709C146.967 66.2436 145.877 64.0428 145.877 61.387C145.877 59.4653 146.633 57.7968 148.066 56.4875L148.08 56.4748L148.094 56.4624C149.421 55.2976 151.006 54.6773 152.769 54.6078C150.991 54.2038 149.473 53.3076 148.337 51.8433C146.791 49.8503 146.171 47.0785 146.171 43.8337V43.7697ZM155.312 54.8601L156.552 55.0641L156.104 56.9764C156.009 57.3862 155.976 57.688 155.976 57.8983C155.976 59.447 156.258 60.2808 156.54 60.6833C156.737 60.9631 157.014 61.168 157.698 61.168C158.369 61.168 159.189 60.8426 160.148 59.5811C161.171 58.2344 162.025 56.5388 162.68 54.4562C163.051 53.2214 163.369 52.0237 163.635 50.8627C163.427 51.0801 163.215 51.2918 162.998 51.4979L162.997 51.4985C160.751 53.6282 158.177 54.821 155.312 54.8601ZM164.351 46.9512C165.194 45.6473 165.92 44.1821 166.53 42.5555C166.53 44.156 166.402 45.8353 166.148 47.5935C165.811 49.922 165.252 52.3888 164.469 54.9939C163.762 57.2414 162.821 59.1401 161.643 60.69C160.465 62.24 159.15 63.015 157.698 63.015C155.303 63.015 154.105 61.31 154.105 57.9001C154.105 57.771 154.112 57.6353 154.125 57.4934C154.152 57.2092 154.204 56.8991 154.282 56.5633C153.812 56.4858 153.419 56.447 153.104 56.447C152.86 56.447 152.621 56.4602 152.388 56.4866C151.235 56.6168 150.218 57.0686 149.337 57.842C148.276 58.8107 147.746 59.9926 147.746 61.3875C147.746 63.4799 148.571 65.1074 150.22 66.2699C151.907 67.4324 153.87 68.0135 156.107 68.0135C158.345 68.0135 160.347 67.5486 162.113 66.6186C169.964 62.395 173.89 49.7047 173.89 28.5478C173.89 27.1916 173.439 26.1066 172.536 25.2929C171.673 24.4792 170.573 24.0723 169.238 24.0723C168.556 24.0723 167.88 24.1367 167.21 24.2655C167.103 24.2859 166.996 24.308 166.891 24.3316C166.395 24.4422 165.901 24.5883 165.411 24.7698C165.882 26.3198 166.215 28.6253 166.412 31.6865C166.412 33.1589 165.941 35.1545 164.999 37.6732C164.096 40.1919 162.879 42.4974 161.348 44.5899C159.856 46.6436 158.444 47.6704 157.108 47.6704C155.814 47.6704 155.048 47.0117 154.813 45.6942C154.655 45.0354 154.557 44.4736 154.518 44.0086C154.478 43.5048 154.459 42.7299 154.459 41.6837C154.459 40.5987 154.675 38.6419 155.106 35.8132C155.539 32.9846 155.754 30.7952 155.754 29.2453C155.754 25.7967 154.184 24.0723 151.044 24.0723C150.221 24.0723 149.466 24.133 148.777 24.2544C148.615 24.2828 148.457 24.3146 148.303 24.3498C147.828 24.4581 147.387 24.5981 146.98 24.7698C148.08 28.1409 148.629 31.7058 148.629 35.4645L148.041 43.8343C148.041 49.9565 150.416 53.0177 155.166 53.0177C157.521 53.0177 159.7 52.0684 161.702 50.1697C162.685 49.2363 163.568 48.1635 164.351 46.9512Z" fill="#FF881B"/>
  <path d="M60.5719 75.0646L60.4751 75.5532L60.9633 75.6518C61.4013 75.7404 61.8079 75.7873 62.1798 75.7873C63.5283 75.7873 64.67 75.3005 65.568 74.3306L65.5681 74.3306L65.5734 74.3247C66.4598 73.3362 66.9013 72.1423 66.9013 70.7707C66.9013 69.8298 66.6903 68.985 66.2502 68.2545C65.8113 67.5258 65.1615 66.9391 64.3265 66.4862C62.7207 65.5729 60.8262 65.127 58.6619 65.127C55.71 65.127 53.0512 66.0274 50.7018 67.8224L50.7018 67.8224L50.6994 67.8242C48.3531 69.6389 47.1529 71.9547 47.1529 74.7436C47.1529 76.5232 47.6847 78.0402 48.7695 79.2581L48.7694 79.2582L48.7784 79.2678C49.852 80.4113 51.1431 81.2751 52.6452 81.8589L52.6452 81.8589C54.0852 82.4185 55.5253 82.9503 56.9655 83.4539C58.3526 83.9391 59.511 84.5806 60.4506 85.3718L60.4506 85.3719L60.4558 85.3761C61.3618 86.1184 61.804 87.0502 61.804 88.2094C61.804 89.3574 61.4041 90.246 60.6128 90.9245C59.8133 91.61 58.738 91.975 57.3375 91.975C55.9526 91.975 54.9213 91.5777 54.1807 90.8326C53.4614 90.0542 53.078 88.9893 53.078 87.5821C53.078 86.9665 53.1798 86.2578 53.3926 85.4515L53.4933 85.0694L53.145 84.8831C52.5645 84.5725 51.7314 84.4475 50.7156 84.4475C49.5889 84.4475 48.6166 84.9272 47.817 85.8285L47.8163 85.8292C47.0356 86.7127 46.6562 87.811 46.6562 89.0877C46.6562 91.5217 47.5924 93.4599 49.4668 94.843L49.4667 94.8431L49.4742 94.8484C51.3374 96.1717 53.581 96.8229 56.1787 96.8229C59.4023 96.8229 62.1805 95.8678 64.4852 93.9472C66.8363 92.0113 68.0188 89.4856 68.0188 86.4112C68.0188 84.7983 67.6407 83.3775 66.8648 82.1702C66.1072 80.964 65.1498 80.0499 63.9896 79.447C62.9229 78.8518 61.7609 78.3005 60.5047 77.7928L60.5047 77.7928C59.2534 77.2871 58.082 76.8642 56.9912 76.525C55.9945 76.2068 55.1722 75.7751 54.5127 75.2381C53.8935 74.7071 53.6161 74.1161 53.6161 73.4472C53.6161 72.304 53.9484 71.3396 54.605 70.529C55.3263 70.1114 56.2162 69.8907 57.2962 69.8907C58.5257 69.8907 59.3569 70.2069 59.886 70.7528C60.4179 71.3016 60.7279 72.1683 60.7279 73.4472C60.7279 74.0011 60.6758 74.5401 60.5719 75.0646Z" fill="#FFF400" stroke="#4E049D"/>
  <path d="M90.792 79.6994L90.7926 79.6876V79.6757C90.7926 78.1401 90.4183 76.8959 89.5816 76.0378C88.7427 75.1774 87.5224 74.7906 86.0169 74.7906C83.9682 74.7906 81.9509 75.7017 79.9726 77.4316C78.5925 78.6368 77.4423 79.9384 76.5259 81.3368C76.5866 79.7756 76.7127 77.8706 76.9051 75.6195C77.215 72.323 77.3728 70.1207 77.3728 69.0376C77.3728 67.8762 77.0123 66.9082 76.2453 66.2C75.5227 65.4795 74.6036 65.127 73.5284 65.127C72.5111 65.127 71.5225 65.2994 70.5651 65.6437L70.1674 65.7868L70.2423 66.2028C70.9125 69.9254 71.2503 74.6573 71.2503 80.4066C71.2503 82.1131 71.0972 84.3937 70.7876 87.2552C70.4777 90.0931 70.319 92.0282 70.319 93.0342C70.319 94.1353 70.6153 95.0507 71.2926 95.6835C71.9635 96.3103 72.9232 96.5795 74.0787 96.5795C75.1752 96.5795 76.1947 96.409 77.1317 96.0605L77.5145 95.9182L77.4514 95.5147C76.954 92.3342 76.6771 90.3593 76.6137 89.5616C76.864 87.9763 77.7993 85.9581 79.4868 83.4905L79.4882 83.4884C80.3343 82.2379 81.1246 81.3273 81.8553 80.7338C82.5868 80.1396 83.2228 79.8915 83.7732 79.8915C84.3515 79.8915 84.6954 80.0435 84.9015 80.2623C85.113 80.4866 85.2629 80.869 85.2629 81.5029C85.2629 82.0293 85.1001 83.5185 84.7594 86.0236C84.4187 88.5289 84.2468 90.7179 84.2468 92.5875C84.2468 93.9082 84.5724 94.9907 85.3116 95.7403C86.052 96.4911 87.1234 96.8229 88.4299 96.8229C89.3943 96.8229 90.3421 96.6494 91.2707 96.305L91.7252 96.1364L91.5708 95.677C90.7697 93.2917 90.3706 90.9402 90.3692 88.6202L90.792 79.6994Z" fill="#FFF400" stroke="#4E049D"/>
  <mask id="path-33-outside-1_7422:8693" maskUnits="userSpaceOnUse" x="93.3086" y="74.1543" width="21" height="24" fill="black">
    <rect fill="white" x="93.3086" y="74.1543" width="21" height="24"/>
    <path fill-rule="evenodd" clip-rule="evenodd" d="M96.3333 93.7669C97.6822 95.471 99.7847 96.324 102.64 96.324C105.494 96.324 107.856 95.2454 109.724 93.0883C111.594 90.9047 112.528 88.2553 112.528 85.1398C112.528 78.4827 109.647 75.1543 103.885 75.1543C101.083 75.1543 98.7853 76.2859 96.9948 78.5493C95.204 80.8127 94.3086 83.4888 94.3086 86.5777C94.3086 89.6399 94.9833 92.0364 96.3333 93.7669ZM99.1359 84.1783C99.1359 82.6339 99.3692 81.0895 99.8368 79.545C100.952 78.8793 102.264 78.5465 103.768 78.5465C106.39 78.5465 107.701 81.3824 107.701 87.0541C107.701 89.0511 107.415 90.529 106.844 91.4876C106.299 92.4462 105.144 92.9255 103.379 92.9255C101.641 92.9255 100.472 92.0601 99.8761 90.3293C99.59 89.4773 99.3952 88.6251 99.2915 87.7731C99.1878 86.9209 99.1359 85.7227 99.1359 84.1783Z"/>
  </mask>
  <path fill-rule="evenodd" clip-rule="evenodd" d="M96.3333 93.7669C97.6822 95.471 99.7847 96.324 102.64 96.324C105.494 96.324 107.856 95.2454 109.724 93.0883C111.594 90.9047 112.528 88.2553 112.528 85.1398C112.528 78.4827 109.647 75.1543 103.885 75.1543C101.083 75.1543 98.7853 76.2859 96.9948 78.5493C95.204 80.8127 94.3086 83.4888 94.3086 86.5777C94.3086 89.6399 94.9833 92.0364 96.3333 93.7669ZM99.1359 84.1783C99.1359 82.6339 99.3692 81.0895 99.8368 79.545C100.952 78.8793 102.264 78.5465 103.768 78.5465C106.39 78.5465 107.701 81.3824 107.701 87.0541C107.701 89.0511 107.415 90.529 106.844 91.4876C106.299 92.4462 105.144 92.9255 103.379 92.9255C101.641 92.9255 100.472 92.0601 99.8761 90.3293C99.59 89.4773 99.3952 88.6251 99.2915 87.7731C99.1878 86.9209 99.1359 85.7227 99.1359 84.1783Z" fill="#FFF400"/>
  <path d="M96.3333 93.7669L95.5448 94.382L95.5492 94.3875L96.3333 93.7669ZM109.724 93.0883L110.48 93.743L110.484 93.7386L109.724 93.0883ZM96.9948 78.5493L97.779 79.1698L97.779 79.1697L96.9948 78.5493ZM99.8368 79.545L99.3244 78.6863L98.9918 78.8847L98.8797 79.2553L99.8368 79.545ZM106.844 91.4876L105.985 90.9757L105.98 90.9844L105.975 90.9932L106.844 91.4876ZM99.8761 90.3293L98.9281 90.6476L98.9306 90.655L99.8761 90.3293ZM99.2915 87.7731L98.2988 87.8939L98.2988 87.8939L99.2915 87.7731ZM102.64 95.324C99.987 95.324 98.2206 94.54 97.1173 93.1462L95.5492 94.3875C97.1438 96.402 99.5824 97.324 102.64 97.324V95.324ZM108.968 92.4336C107.29 94.3713 105.204 95.324 102.64 95.324V97.324C105.784 97.324 108.422 96.1195 110.48 93.743L108.968 92.4336ZM111.528 85.1398C111.528 88.0385 110.665 90.4514 108.965 92.4379L110.484 93.7386C112.522 91.358 113.528 88.4721 113.528 85.1398H111.528ZM103.885 76.1543C106.571 76.1543 108.415 76.9234 109.611 78.3051C110.831 79.7144 111.528 81.9329 111.528 85.1398H113.528C113.528 81.6897 112.784 78.9154 111.123 76.9962C109.438 75.0494 106.961 74.1543 103.885 74.1543V76.1543ZM97.779 79.1697C99.3864 77.1379 101.399 76.1543 103.885 76.1543V74.1543C100.767 74.1543 98.1842 75.4339 96.2105 77.9289L97.779 79.1697ZM95.3086 86.5777C95.3086 83.6971 96.1381 81.2438 97.779 79.1698L96.2105 77.9288C94.2698 80.3817 93.3086 83.2805 93.3086 86.5777H95.3086ZM97.1217 93.1518C95.954 91.6549 95.3086 89.5036 95.3086 86.5777H93.3086C93.3086 89.7761 94.0127 92.4179 95.5448 94.382L97.1217 93.1518ZM98.8797 79.2553C98.3849 80.8896 98.1359 82.5316 98.1359 84.1783H100.136C100.136 82.7362 100.354 81.2893 100.794 79.8348L98.8797 79.2553ZM103.768 77.5465C102.112 77.5465 100.618 77.9143 99.3244 78.6863L100.349 80.4038C101.287 79.8444 102.415 79.5465 103.768 79.5465V77.5465ZM108.701 87.0541C108.701 84.1727 108.373 81.8707 107.625 80.2539C107.246 79.4328 106.739 78.7472 106.074 78.2671C105.398 77.7797 104.616 77.5465 103.768 77.5465V79.5465C104.232 79.5465 104.597 79.6678 104.904 79.8893C105.221 80.1182 105.534 80.4961 105.81 81.093C106.373 82.312 106.701 84.2638 106.701 87.0541H108.701ZM107.703 91.9995C108.414 90.8067 108.701 89.1084 108.701 87.0541H106.701C106.701 88.9938 106.417 90.2513 105.985 90.9757L107.703 91.9995ZM103.379 93.9255C105.275 93.9255 106.901 93.4111 107.713 91.982L105.975 90.9932C105.697 91.4814 105.013 91.9255 103.379 91.9255V93.9255ZM98.9306 90.655C99.2775 91.6618 99.8202 92.4992 100.604 93.0799C101.392 93.6638 102.339 93.9255 103.379 93.9255V91.9255C102.681 91.9255 102.175 91.7545 101.795 91.473C101.411 91.1884 101.071 90.7276 100.822 90.0036L98.9306 90.655ZM98.2988 87.8939C98.411 88.8161 98.6215 89.7344 98.9281 90.6476L100.824 90.011C100.559 89.2201 100.379 88.4341 100.284 87.6522L98.2988 87.8939ZM98.1359 84.1783C98.1359 85.7367 98.1878 86.982 98.2988 87.8939L100.284 87.6523C100.188 86.8599 100.136 85.7088 100.136 84.1783H98.1359Z" fill="#4E049D" mask="url(#path-33-outside-1_7422:8693)"/>
  <mask id="path-35-outside-2_7422:8693" maskUnits="userSpaceOnUse" x="113.746" y="74.1543" width="24" height="34" fill="black">
    <rect fill="white" x="113.746" y="74.1543" width="24" height="34"/>
    <path fill-rule="evenodd" clip-rule="evenodd" d="M130.864 75.1543C127.312 75.1543 124.075 78.0612 121.157 83.8751C121.515 81.7888 121.694 80.1476 121.694 78.9514C121.694 77.7274 121.419 76.8372 120.868 76.2809C120.344 75.6967 119.587 75.4046 118.596 75.4046C117.633 75.4046 116.71 75.5715 115.829 75.9053C116.435 79.0487 116.737 83.5135 116.737 89.2996C116.737 91.0521 116.572 93.4723 116.241 96.5596C115.911 99.6478 115.746 101.831 115.746 103.112C115.746 104.391 116.049 105.336 116.655 105.949C117.261 106.589 118.032 106.909 118.968 106.909C119.904 106.909 120.813 106.741 121.694 106.408C121.28 103.236 121.047 99.7455 120.992 95.9339C122.396 96.4906 123.952 96.7685 125.659 96.7685C128.66 96.7685 131.153 95.3782 133.135 92.596C135.117 89.8142 136.109 86.7265 136.109 83.3327C136.109 80.9681 135.696 79.021 134.87 77.491C134.071 75.9332 132.736 75.1543 130.864 75.1543ZM125.079 93.0532C123.592 93.0532 122.284 92.8445 121.156 92.4273C121.706 89.117 122.849 86.0292 124.583 83.1639C126.346 80.2987 127.93 78.8661 129.333 78.8661C130.463 78.8661 131.027 80.5073 131.027 83.7898C131.027 87.0445 130.353 89.8402 129.003 92.1769C127.875 92.7611 126.567 93.0532 125.079 93.0532Z"/>
  </mask>
  <path fill-rule="evenodd" clip-rule="evenodd" d="M130.864 75.1543C127.312 75.1543 124.075 78.0612 121.157 83.8751C121.515 81.7888 121.694 80.1476 121.694 78.9514C121.694 77.7274 121.419 76.8372 120.868 76.2809C120.344 75.6967 119.587 75.4046 118.596 75.4046C117.633 75.4046 116.71 75.5715 115.829 75.9053C116.435 79.0487 116.737 83.5135 116.737 89.2996C116.737 91.0521 116.572 93.4723 116.241 96.5596C115.911 99.6478 115.746 101.831 115.746 103.112C115.746 104.391 116.049 105.336 116.655 105.949C117.261 106.589 118.032 106.909 118.968 106.909C119.904 106.909 120.813 106.741 121.694 106.408C121.28 103.236 121.047 99.7455 120.992 95.9339C122.396 96.4906 123.952 96.7685 125.659 96.7685C128.66 96.7685 131.153 95.3782 133.135 92.596C135.117 89.8142 136.109 86.7265 136.109 83.3327C136.109 80.9681 135.696 79.021 134.87 77.491C134.071 75.9332 132.736 75.1543 130.864 75.1543ZM125.079 93.0532C123.592 93.0532 122.284 92.8445 121.156 92.4273C121.706 89.117 122.849 86.0292 124.583 83.1639C126.346 80.2987 127.93 78.8661 129.333 78.8661C130.463 78.8661 131.027 80.5073 131.027 83.7898C131.027 87.0445 130.353 89.8402 129.003 92.1769C127.875 92.7611 126.567 93.0532 125.079 93.0532Z" fill="#FFF400"/>
  <path d="M121.157 83.8751L120.171 83.7062L122.051 84.3237L121.157 83.8751ZM120.868 76.2809L120.123 76.9483L120.14 76.9669L120.157 76.9846L120.868 76.2809ZM115.829 75.9053L115.474 74.9702L114.687 75.2683L114.847 76.0946L115.829 75.9053ZM116.241 96.5596L115.247 96.453L115.247 96.4533L116.241 96.5596ZM116.655 105.949L117.381 105.261L117.373 105.253L117.365 105.245L116.655 105.949ZM121.694 106.408L122.048 107.343L122.788 107.063L122.685 106.278L121.694 106.408ZM120.992 95.9339L121.361 95.0044L119.971 94.4531L119.992 95.9484L120.992 95.9339ZM133.135 92.596L132.321 92.0156L132.321 92.0157L133.135 92.596ZM134.87 77.491L133.98 77.9472L133.985 77.9567L133.99 77.9661L134.87 77.491ZM121.156 92.4273L120.169 92.2633L120.034 93.0786L120.809 93.3652L121.156 92.4273ZM124.583 83.1639L123.732 82.64L123.728 82.646L124.583 83.1639ZM129.003 92.1769L129.463 93.065L129.723 92.9305L129.869 92.677L129.003 92.1769ZM122.051 84.3237C124.943 78.562 127.928 76.1543 130.864 76.1543V74.1543C126.695 74.1543 123.208 77.5603 120.263 83.4265L122.051 84.3237ZM120.694 78.9514C120.694 80.0636 120.526 81.6399 120.171 83.7062L122.143 84.044C122.504 81.9377 122.694 80.2315 122.694 78.9514H120.694ZM120.157 76.9846C120.441 77.2714 120.694 77.8465 120.694 78.9514H122.694C122.694 77.6083 122.396 76.403 121.578 75.5772L120.157 76.9846ZM118.596 76.4046C119.383 76.4046 119.837 76.6288 120.123 76.9483L121.612 75.6135C120.852 74.7646 119.792 74.4046 118.596 74.4046V76.4046ZM116.183 76.8404C116.948 76.5505 117.751 76.4046 118.596 76.4046V74.4046C117.514 74.4046 116.471 74.5925 115.474 74.9702L116.183 76.8404ZM117.737 89.2996C117.737 83.4921 117.435 78.9528 116.811 75.716L114.847 76.0946C115.435 79.1447 115.737 83.5349 115.737 89.2996H117.737ZM117.235 96.6662C117.568 93.5658 117.737 91.1047 117.737 89.2996H115.737C115.737 90.9995 115.577 93.3788 115.247 96.453L117.235 96.6662ZM116.746 103.112C116.746 101.89 116.905 99.7543 117.236 96.6659L115.247 96.4533C114.917 99.5412 114.746 101.772 114.746 103.112H116.746ZM117.365 105.245C117.018 104.894 116.746 104.254 116.746 103.112H114.746C114.746 104.527 115.079 105.778 115.944 106.652L117.365 105.245ZM118.968 105.909C118.287 105.909 117.785 105.688 117.381 105.261L115.929 106.636C116.736 107.489 117.776 107.909 118.968 107.909V105.909ZM121.34 105.472C120.571 105.763 119.782 105.909 118.968 105.909V107.909C120.027 107.909 121.055 107.719 122.048 107.343L121.34 105.472ZM119.992 95.9484C120.048 99.7911 120.283 103.321 120.702 106.537L122.685 106.278C122.278 103.151 122.046 99.6999 121.992 95.9195L119.992 95.9484ZM125.659 95.7685C124.062 95.7685 122.633 95.5087 121.361 95.0044L120.623 96.8635C122.159 97.4725 123.843 97.7685 125.659 97.7685V95.7685ZM132.321 92.0157C130.496 94.5763 128.289 95.7685 125.659 95.7685V97.7685C129.032 97.7685 131.809 96.1801 133.95 93.1762L132.321 92.0157ZM135.109 83.3327C135.109 86.517 134.183 89.4022 132.321 92.0156L133.95 93.1763C136.052 90.2263 137.109 86.936 137.109 83.3327H135.109ZM133.99 77.9661C134.714 79.3069 135.109 81.0768 135.109 83.3327H137.109C137.109 80.8594 136.678 78.735 135.75 77.0159L133.99 77.9661ZM130.864 76.1543C131.66 76.1543 132.28 76.3191 132.766 76.6023C133.247 76.8832 133.656 77.3151 133.98 77.9472L135.76 77.0348C135.285 76.1091 134.627 75.3726 133.773 74.8747C132.923 74.3789 131.939 74.1543 130.864 74.1543V76.1543ZM120.809 93.3652C122.071 93.8319 123.501 94.0532 125.079 94.0532V92.0532C123.684 92.0532 122.497 91.8572 121.502 91.4893L120.809 93.3652ZM123.728 82.646C121.927 85.62 120.74 88.828 120.169 92.2633L122.142 92.5912C122.671 89.406 123.77 86.4384 125.439 83.6818L123.728 82.646ZM129.333 77.8661C128.282 77.8661 127.305 78.4003 126.422 79.199C125.532 80.0045 124.637 81.1673 123.732 82.64L125.435 83.6878C126.292 82.2953 127.071 81.3092 127.764 80.6821C128.464 80.0482 128.981 79.8661 129.333 79.8661V77.8661ZM132.027 83.7898C132.027 82.1182 131.887 80.7527 131.549 79.7717C131.216 78.8029 130.544 77.8661 129.333 77.8661V79.8661C129.344 79.8661 129.344 79.8588 129.379 79.892C129.437 79.9483 129.546 80.096 129.658 80.4223C129.885 81.0826 130.027 82.1789 130.027 83.7898H132.027ZM129.869 92.677C131.323 90.1597 132.027 87.1838 132.027 83.7898H130.027C130.027 86.9052 129.383 89.5207 128.137 91.6767L129.869 92.677ZM125.079 94.0532C126.699 94.0532 128.17 93.7343 129.463 93.065L128.544 91.2888C127.579 91.7879 126.434 92.0532 125.079 92.0532V94.0532Z" fill="#4E049D" mask="url(#path-35-outside-2_7422:8693)"/>
  <defs>
    <linearGradient id="paint0_linear_7422:8693" x1="8.04254" y1="10.4842" x2="8.04254" y2="53.806" gradientUnits="userSpaceOnUse">
      <stop stop-color="#BA87FF"/>
      <stop offset="1" stop-color="#130027"/>
    </linearGradient>
    <linearGradient id="paint1_linear_7422:8693" x1="43.8797" y1="22.1697" x2="43.8797" y2="56.1591" gradientUnits="userSpaceOnUse">
      <stop stop-color="#BA87FF"/>
      <stop offset="0.993728" stop-color="#130027"/>
    </linearGradient>
    <linearGradient id="paint2_linear_7422:8693" x1="76.1938" y1="22.1697" x2="76.1938" y2="56.1591" gradientUnits="userSpaceOnUse">
      <stop stop-color="#BA87FF"/>
      <stop offset="0.993728" stop-color="#130027"/>
    </linearGradient>
    <linearGradient id="paint3_linear_7422:8693" x1="110.325" y1="9.58735" x2="110.325" y2="53.9214" gradientUnits="userSpaceOnUse">
      <stop stop-color="#BA87FF"/>
      <stop offset="0.993728" stop-color="#130027"/>
    </linearGradient>
    <linearGradient id="paint4_linear_7422:8693" x1="142.316" y1="24.4067" x2="142.316" y2="68.7408" gradientUnits="userSpaceOnUse">
      <stop stop-color="#BA87FF"/>
      <stop offset="0.993728" stop-color="#130027"/>
    </linearGradient>
    <linearGradient id="paint5_linear_7422:8693" x1="16.2524" y1="13.0245" x2="16.2524" y2="35.8922" gradientUnits="userSpaceOnUse">
      <stop stop-color="#DCF4FF"/>
      <stop offset="0.974494" stop-color="#7F00FF"/>
    </linearGradient>
    <linearGradient id="paint6_linear_7422:8693" x1="51.5263" y1="23.1956" x2="51.5263" y2="41.0324" gradientUnits="userSpaceOnUse">
      <stop stop-color="#DCF4FF"/>
      <stop offset="0.974494" stop-color="#7F00FF"/>
    </linearGradient>
    <linearGradient id="paint7_linear_7422:8693" x1="84.2585" y1="23.1956" x2="84.2585" y2="41.0324" gradientUnits="userSpaceOnUse">
      <stop stop-color="#DCF4FF"/>
      <stop offset="0.974494" stop-color="#7F00FF"/>
    </linearGradient>
    <linearGradient id="paint8_linear_7422:8693" x1="117.972" y1="11.0398" x2="117.972" y2="34.3649" gradientUnits="userSpaceOnUse">
      <stop stop-color="#DCF4FF"/>
      <stop offset="0.974494" stop-color="#7F00FF"/>
    </linearGradient>
    <linearGradient id="paint9_linear_7422:8693" x1="150.902" y1="25.8572" x2="150.902" y2="49.1822" gradientUnits="userSpaceOnUse">
      <stop stop-color="#DCF4FF"/>
      <stop offset="0.974494" stop-color="#7F00FF"/>
    </linearGradient>
    <linearGradient id="paint10_linear_7422:8693" x1="24.1906" y1="13.5865" x2="4.9621" y2="43.4177" gradientUnits="userSpaceOnUse">
      <stop offset="0.369385" stop-color="white"/>
      <stop offset="0.775659" stop-color="#FFDD28"/>
      <stop offset="0.978796" stop-color="#FFD600"/>
    </linearGradient>
    <linearGradient id="paint11_linear_7422:8693" x1="58.2254" y1="26.543" x2="49.1831" y2="51.7111" gradientUnits="userSpaceOnUse">
      <stop offset="0.369385" stop-color="white"/>
      <stop offset="0.775659" stop-color="#FFDD28"/>
      <stop offset="0.978796" stop-color="#FFD600"/>
    </linearGradient>
    <linearGradient id="paint12_linear_7422:8693" x1="92.108" y1="26.4134" x2="82.5324" y2="51.2482" gradientUnits="userSpaceOnUse">
      <stop offset="0.369385" stop-color="white"/>
      <stop offset="0.775659" stop-color="#FFDD28"/>
      <stop offset="0.978796" stop-color="#FFD600"/>
    </linearGradient>
    <linearGradient id="paint13_linear_7422:8693" x1="125.83" y1="8.38787" x2="101.021" y2="31.1321" gradientUnits="userSpaceOnUse">
      <stop offset="0.369385" stop-color="white"/>
      <stop offset="0.775659" stop-color="#FFDD28"/>
      <stop offset="0.978796" stop-color="#FFD600"/>
    </linearGradient>
    <linearGradient id="paint14_linear_7422:8693" x1="159.378" y1="21.9198" x2="133.727" y2="41.0934" gradientUnits="userSpaceOnUse">
      <stop offset="0.369385" stop-color="white"/>
      <stop offset="0.775659" stop-color="#FFDD28"/>
      <stop offset="0.978796" stop-color="#FFD600"/>
    </linearGradient>
  </defs>
</svg>
