<svg width="88" height="18" viewBox="0 0 88 18" fill="none" xmlns="http://www.w3.org/2000/svg">
  <path d="M15.1703 5.43519C14.9776 5.3275 14.7605 5.27095 14.5397 5.27095C14.319 5.27095 14.1019 5.3275 13.9092 5.43519L11.016 7.11327L9.05024 8.20767L6.15724 9.88577C5.96452 9.99335 5.74745 10.0499 5.52672 10.0499C5.30599 10.0499 5.08892 9.99335 4.89619 9.88577L2.59646 8.5725C2.40935 8.46517 2.25306 8.31143 2.14269 8.12614C2.03232 7.94083 1.97159 7.73018 1.96635 7.51456V4.92448C1.96377 4.70721 2.02124 4.49345 2.13242 4.30678C2.2436 4.1201 2.40419 3.96776 2.59646 3.86655L4.85905 2.58976C5.05178 2.48214 5.26884 2.42566 5.48958 2.42566C5.7103 2.42566 5.92737 2.48214 6.1201 2.58976L8.38265 3.86655C8.56981 3.97385 8.72606 4.12758 8.83647 4.3129C8.9468 4.49821 9.00756 4.70884 9.01276 4.92448V6.60256L10.9785 5.47168V3.7936C10.9811 3.57633 10.9237 3.36257 10.8125 3.1759C10.7013 2.98922 10.5407 2.83688 10.3484 2.73567L6.15724 0.328163C5.96452 0.220555 5.74745 0.164062 5.52672 0.164062C5.30599 0.164062 5.08892 0.220555 4.89619 0.328163L0.630193 2.73584C0.437946 2.83703 0.277377 2.98935 0.166192 3.17599C0.0550072 3.36264 -0.00247502 3.57636 8.38033e-05 3.7936V8.64543C-0.00250571 8.86269 0.054962 9.07645 0.166149 9.26313C0.277335 9.4498 0.43792 9.60215 0.630193 9.70332L4.8957 12.111C5.08842 12.2186 5.30548 12.2751 5.52622 12.2751C5.74695 12.2751 5.96401 12.2186 6.15674 12.111L9.04975 10.4694L11.0155 9.33857L13.9087 7.69695C14.1014 7.58926 14.3185 7.53271 14.5393 7.53271C14.76 7.53271 14.9771 7.58926 15.1698 7.69695L17.4324 8.97375C17.6195 9.08108 17.7757 9.23481 17.8861 9.42011C17.9965 9.6054 18.0572 9.81608 18.0625 10.0316V12.6218C18.0651 12.839 18.0076 13.0528 17.8964 13.2395C17.7852 13.4261 17.6247 13.5785 17.4324 13.6797L15.1698 14.9929C14.977 15.1006 14.76 15.1571 14.5393 15.1571C14.3185 15.1571 14.1015 15.1006 13.9087 14.9929L11.6461 13.7162C11.459 13.6088 11.3028 13.4551 11.1924 13.2698C11.0821 13.0845 11.0213 12.8738 11.016 12.6583V10.98L9.05024 12.1108V13.7889C9.04764 14.0062 9.10516 14.22 9.2163 14.4066C9.32753 14.5933 9.48808 14.7457 9.68035 14.8469L13.9459 17.2546C14.1386 17.3622 14.3557 17.4186 14.5764 17.4186C14.7972 17.4186 15.0142 17.3622 15.2069 17.2546L19.4724 14.8469C19.6596 14.7396 19.8158 14.5858 19.9261 14.4005C20.0366 14.2152 20.0973 14.0046 20.1025 13.7889V8.93724C20.1051 8.71998 20.0477 8.50622 19.9364 8.31954C19.8253 8.13287 19.6647 7.98056 19.4724 7.87936L15.1703 5.43519Z" fill="#8247E5"/>
  <path d="M29.8671 4.91701C30.5396 4.90672 31.2007 5.09142 31.7706 5.44879C32.3472 5.82227 32.8067 6.35109 33.0959 6.97431C33.4354 7.7105 33.6014 8.51472 33.5815 9.32509C33.5997 10.1327 33.4337 10.9338 33.0959 11.6676C32.8083 12.294 32.3487 12.8259 31.7706 13.2012C31.2007 13.5585 30.5396 13.7432 29.8671 13.7329C29.2708 13.7492 28.6823 13.5938 28.1718 13.2852C27.7082 12.9979 27.347 12.5719 27.1392 12.0676V17.7236H24.5039V5.02529H27.1392V6.58182C27.3471 6.07771 27.7084 5.65186 28.172 5.36471C28.6825 5.05617 29.2708 4.90077 29.8671 4.91701ZM29.0195 7.22901C28.7652 7.2207 28.5122 7.26656 28.277 7.36353C28.0419 7.4605 27.8301 7.60637 27.6556 7.79147C27.3011 8.16644 27.1238 8.67762 27.1238 9.32493C27.0958 9.88333 27.2865 10.4306 27.6556 10.8505C27.8289 11.0377 28.0403 11.1855 28.2756 11.2839C28.5108 11.3824 28.7645 11.4291 29.0195 11.4211C29.2733 11.4315 29.5264 11.3874 29.7616 11.2917C29.9969 11.196 30.2089 11.0509 30.3833 10.8663C30.7277 10.4963 30.8998 9.98263 30.8998 9.32509C30.8998 8.66756 30.7277 8.15387 30.3835 7.78401C30.2091 7.59929 29.9971 7.45414 29.7617 7.3584C29.5265 7.26266 29.2733 7.21854 29.0195 7.22901ZM38.9755 4.91701C39.7704 4.90349 40.5563 5.08613 41.2638 5.44879C41.9296 5.79635 42.4808 6.32886 42.8512 6.98227C43.2486 7.69788 43.448 8.50645 43.429 9.32477C43.4483 10.1432 43.2492 10.9518 42.852 11.6676C42.4816 12.321 41.9305 12.8535 41.2647 13.2012C40.5571 13.5638 39.7712 13.7464 38.9763 13.7329C38.1789 13.7458 37.3905 13.5633 36.6799 13.2012C36.0108 12.8553 35.4566 12.3226 35.0848 11.6676C34.6871 10.9521 34.4873 10.1435 34.5061 9.32509C34.4871 8.50677 34.6865 7.69821 35.0839 6.9826C35.4558 6.32765 36.01 5.79489 36.6791 5.44912C37.3896 5.08683 38.178 4.90414 38.9755 4.91701ZM38.9755 7.198C38.7368 7.19361 38.5 7.24014 38.2807 7.33449C38.0615 7.42885 37.8649 7.56887 37.704 7.7452C37.3598 8.11 37.1876 8.63657 37.1876 9.32493C37.1876 10.0133 37.3598 10.5373 37.704 10.8969C37.8661 11.0713 38.0631 11.2093 38.2822 11.3023C38.5013 11.3953 38.7376 11.441 38.9755 11.4363C39.2124 11.4414 39.4477 11.3959 39.6656 11.303C39.8835 11.2099 40.0791 11.0715 40.2392 10.8969C40.5782 10.5373 40.7478 10.0133 40.7478 9.32493C40.7478 8.63657 40.5782 8.11 40.2392 7.7452C40.0801 7.56869 39.885 7.42848 39.6669 7.33413C39.4489 7.23976 39.213 7.19312 38.9755 7.198ZM47.4365 0V13.625H44.801V0.000331454L47.4365 0ZM51.2432 5.02429L53.3083 10.296L55.2348 5.02512H58.1476L52.7845 17.7245H49.887L51.9057 13.3013L48.2996 5.02529L51.2432 5.02429ZM62.2934 4.91701C62.8897 4.90073 63.4782 5.05613 63.9887 5.36471C64.454 5.65418 64.8197 6.07906 65.0367 6.58232V5.02578H67.6566V13.5787C67.6682 14.3262 67.5101 15.0666 67.1941 15.7441C66.8861 16.386 66.3921 16.9204 65.7762 17.2776C65.1391 17.6578 64.348 17.8478 63.4029 17.8478C62.1083 17.8478 61.0731 17.5422 60.2974 16.9309C59.5211 16.3188 59.0195 15.4236 58.9027 14.4419H61.5072C61.58 14.7776 61.782 15.071 62.0696 15.2588C62.4148 15.4681 62.8145 15.5701 63.2178 15.5516C63.7017 15.5737 64.1749 15.4049 64.5356 15.0815C64.8695 14.7681 65.0365 14.2672 65.0365 13.5789V12.0684C64.8195 12.5717 64.4539 12.9966 63.9885 13.286C63.478 13.5946 62.8895 13.75 62.2931 13.7338C61.6207 13.744 60.9596 13.5593 60.3898 13.202C59.8116 12.8267 59.352 12.2949 59.0644 11.6684C58.7266 10.9346 58.5606 10.1335 58.5788 9.32599C58.559 8.51569 58.725 7.71167 59.0644 6.97564C59.3536 6.35242 59.813 5.8236 60.3898 5.45012C60.9595 5.09225 61.6206 4.90709 62.2934 4.91701ZM63.141 7.22885C62.8872 7.21837 62.6341 7.26248 62.3989 7.3582C62.1636 7.45391 61.9516 7.599 61.7772 7.78367C61.4329 8.15355 61.2608 8.66724 61.2608 9.32477C61.2608 9.9823 61.4329 10.496 61.7772 10.8659C61.9516 11.0506 62.1636 11.1956 62.3989 11.2914C62.6341 11.3871 62.8872 11.4312 63.141 11.4208C63.3959 11.4288 63.6496 11.3821 63.8848 11.2837C64.1202 11.1853 64.3316 11.0376 64.5049 10.8505C64.8739 10.4306 65.0647 9.88333 65.0367 9.32493C65.0367 8.6777 64.8594 8.16653 64.5049 7.79147C64.3304 7.60637 64.1186 7.4605 63.8835 7.36353C63.6483 7.26656 63.3952 7.22054 63.141 7.22885ZM73.4977 4.91701C74.2926 4.90349 75.0785 5.08613 75.7859 5.44879C76.4518 5.79635 77.003 6.32886 77.3733 6.98227C77.7707 7.69788 77.9702 8.50645 77.9512 9.32477C77.9704 10.1432 77.771 10.9519 77.3737 11.6676C77.0033 12.321 76.4521 12.8535 75.7863 13.2012C75.0788 13.5638 74.2929 13.7464 73.498 13.7329C72.7006 13.7458 71.9122 13.5633 71.2016 13.2012C70.5325 12.8553 69.9783 12.3226 69.6065 11.6676C69.209 10.952 69.0095 10.1434 69.0285 9.32509C69.0095 8.50677 69.209 7.69821 69.6065 6.9826C69.9783 6.32765 70.5325 5.79489 71.2016 5.44912C71.912 5.08689 72.7004 4.90419 73.4977 4.91701ZM73.4977 7.198C73.259 7.19361 73.0222 7.24015 72.8029 7.33451C72.5837 7.42887 72.3871 7.56887 72.2262 7.7452C71.882 8.11 71.7098 8.63657 71.7098 9.32493C71.7098 10.0133 71.882 10.5373 72.2262 10.8969C72.3882 11.0713 72.5853 11.2093 72.8044 11.3023C73.0234 11.3953 73.2598 11.441 73.4977 11.4363C73.7346 11.4414 73.9698 11.3959 74.1878 11.303C74.4057 11.2099 74.6012 11.0715 74.7614 10.8969C75.1004 10.5373 75.27 10.0133 75.27 9.32493C75.27 8.63657 75.1004 8.11 74.7614 7.7452C74.6023 7.56869 74.4071 7.42848 74.1891 7.33413C73.9711 7.23976 73.7352 7.19312 73.4977 7.198ZM84.7792 4.93276C85.7657 4.93276 86.5493 5.26152 87.1294 5.91905C87.7102 6.57657 87.9999 7.48067 87.9999 8.6313V13.625H85.3649V8.93974C85.3649 8.36496 85.2132 7.91539 84.9098 7.59116C84.7548 7.42868 84.5658 7.30131 84.3573 7.21758C84.1488 7.13385 83.9241 7.09568 83.6994 7.10564C83.4633 7.09423 83.228 7.13375 83.0082 7.2215C82.7891 7.30925 82.5912 7.44318 82.4281 7.61421C82.115 7.95336 81.9584 8.43611 81.9584 9.06249V13.625H79.3234V5.02529H81.9584V6.59725C82.1977 6.09162 82.5814 5.668 83.0609 5.37964C83.5801 5.07317 84.1756 4.91836 84.7792 4.93276Z" fill="#140035"/>
</svg>
