<svg width="19" height="18" viewBox="0 0 19 18" fill="none" xmlns="http://www.w3.org/2000/svg">
  <path d="M3.9466 1.1748L18.333 11.1291L14.7751 16.459L0.388672 6.42627L3.9466 1.1748Z" fill="url(#paint0_linear)"/>
  <path d="M18.4055 10.7811C17.1511 12.5568 12.9177 11.862 8.91956 9.08257C4.84301 6.38035 2.64793 2.75168 3.82387 0.975946C5.0782 -0.799784 9.31157 -0.104933 13.3097 2.67447C17.3863 5.29947 19.5814 9.00533 18.4055 10.7811Z" fill="url(#paint1_linear)"/>
  <path d="M14.8962 16.2388C13.6378 18.0618 9.39089 17.3484 5.37988 14.4952C1.36889 11.6418 -0.911864 7.99588 0.346487 6.09369C1.60484 4.27074 5.85176 4.98407 9.86275 7.83742C13.8738 10.6907 16.0758 14.4159 14.8962 16.2388Z" fill="url(#paint2_linear)"/>
  <path d="M18.4246 10.9372L14.8132 16.2708C13.557 18.0748 9.31749 17.2905 5.3135 14.5452C4.52841 13.9962 3.82182 13.4471 3.11523 12.8197C3.6648 12.7412 4.37139 12.4275 5.07797 11.6431C6.33412 10.3097 6.96221 9.99598 7.51177 10.0744C8.06133 10.0744 8.68944 10.6234 9.71002 11.9568C10.7307 13.2902 12.1438 13.6824 13.0075 12.9765C13.0859 12.8981 13.1645 12.8981 13.243 12.8197C13.9496 12.2706 14.1851 12.0352 15.5198 9.52535C15.8338 8.89783 16.933 7.87817 18.4246 8.34879C18.8171 9.36846 18.8171 10.2312 18.4246 10.9372Z" fill="#0E0F23"/>
  <path fill-rule="evenodd" clip-rule="evenodd" d="M18.0784 10.551C16.9787 12.135 13.13 11.343 9.43844 8.72937C5.66827 6.11581 3.46901 2.78943 4.56864 1.20543C5.66827 -0.378562 9.51698 0.413435 13.2086 3.02703C16.9002 5.64061 19.0995 8.96703 18.0784 10.551ZM14.6224 8.17499C14.0726 8.96703 12.1875 8.57098 10.3024 7.30382C8.49588 6.03661 7.39624 4.37342 7.94606 3.58142C8.49588 2.78943 10.381 3.18542 12.266 4.45262C14.0726 5.71981 15.1722 7.38302 14.6224 8.17499Z" fill="white"/>
  <path d="M3.60871 2.84643C3.60871 2.7741 3.53075 2.70177 3.45279 2.7741C3.37483 2.84643 3.29688 2.84643 3.29688 2.91876C3.37484 3.13575 3.45279 3.28041 3.45279 3.42507C3.45279 3.4974 3.53075 3.56972 3.60871 3.4974C3.68667 3.4974 3.76463 3.42507 3.68667 3.35274C3.68667 3.20808 3.68667 3.06342 3.60871 2.84643Z" fill="white"/>
  <path d="M4.12401 4.03001C4.12401 3.95147 4.04882 3.87295 3.97363 3.95147C3.89844 4.03001 3.89844 4.03001 3.89844 4.10853C4.72554 6.07174 6.45494 8.19203 8.71067 9.76256C8.78583 9.84111 8.86106 9.76256 8.93622 9.76256C9.01144 9.68401 8.93622 9.60553 8.93622 9.52699C6.6053 7.95639 4.95111 5.91468 4.12401 4.03001Z" fill="white"/>
  <path d="M13.4417 11.9141C13.3517 11.9141 13.2617 11.9141 13.2617 11.9925C13.2617 12.0708 13.2617 12.1492 13.3517 12.1492C13.6218 12.2276 13.9819 12.306 14.2519 12.3844C14.342 12.3844 14.432 12.3844 14.432 12.306C14.432 12.2276 14.432 12.1492 14.342 12.1492C14.0719 12.0708 13.7118 11.9925 13.4417 11.9141Z" fill="white"/>
  <path d="M14.5988 11.9375C14.5152 11.9375 14.4316 12.0159 14.4316 12.0943C14.4316 12.1727 14.5152 12.251 14.5988 12.251C15.2675 12.3294 16.0199 12.4078 16.605 12.3294C16.6886 12.3294 16.7722 12.251 16.7722 12.1727C16.7722 12.0943 16.6886 12.0159 16.605 12.0159C15.9363 12.0943 15.2675 12.0159 14.5988 11.9375Z" fill="white"/>
  <defs>
    <linearGradient id="paint0_linear" x1="6.76526" y1="2.24592" x2="8.8948" y2="9.65626" gradientUnits="userSpaceOnUse">
      <stop stop-color="#03B8FF"/>
      <stop offset="1" stop-color="#FA52A0"/>
    </linearGradient>
    <linearGradient id="paint1_linear" x1="9.06213" y1="1.71018" x2="10.8828" y2="7.86706" gradientUnits="userSpaceOnUse">
      <stop stop-color="#03B8FF"/>
      <stop offset="1" stop-color="#FA52A0"/>
    </linearGradient>
    <linearGradient id="paint2_linear" x1="4.37006" y1="4.12882" x2="6.30102" y2="10.811" gradientUnits="userSpaceOnUse">
      <stop stop-color="#03B8FF"/>
      <stop offset="1" stop-color="#FA52A0"/>
    </linearGradient>
  </defs>
</svg>
