<svg width="69" height="23" viewBox="0 0 69 23" fill="none" xmlns="http://www.w3.org/2000/svg">
<path fill-rule="evenodd" clip-rule="evenodd" d="M0.000976562 4.60399H8.34751V0.000488281H0.000976562V4.60399Z" fill="#48A9A6"/>
<path fill-rule="evenodd" clip-rule="evenodd" d="M12.5059 4.6035H20.8524V0H12.5059V4.6035Z" fill="#48A9A6"/>
<path fill-rule="evenodd" clip-rule="evenodd" d="M20.8524 13.793H16.6791V18.3965H12.5059V22.9999H20.8524V13.793Z" fill="#48A9A6"/>
<path fill-rule="evenodd" clip-rule="evenodd" d="M8.34653 22.9999V18.3965H4.17327V13.793H0V22.9999H8.34653Z" fill="#48A9A6"/>
<path d="M32.262 10.305L34.4654 6.4972H37.3534L33.813 12.1983L37.471 18.0705H34.6045L32.2941 14.1129L29.9944 18.0705H27.1064L30.7645 12.1983L27.2348 6.4972H30.1014L32.262 10.305Z" fill="black"/>
<path d="M39.375 18.0705V2.49683H43.9743C45.3506 2.49683 46.5699 2.80346 47.6324 3.4167C48.702 4.02995 49.5292 4.89991 50.1139 6.02657C50.6987 7.15324 50.991 8.44391 50.991 9.89859V10.6794C50.991 12.1555 50.6951 13.4533 50.1032 14.5728C49.5185 15.6924 48.6806 16.5552 47.5896 17.1613C46.5058 17.7674 45.2614 18.0705 43.8567 18.0705H39.375ZM42.0811 4.67885V15.9098H43.846C45.265 15.9098 46.3524 15.4677 47.1083 14.5835C47.8713 13.6922 48.2599 12.4158 48.2742 10.7543V9.88789C48.2742 8.1979 47.907 6.90723 47.1725 6.01588C46.438 5.12453 45.372 4.67885 43.9743 4.67885H42.0811Z" fill="black"/>
<path d="M60.3502 18.0705C60.2361 17.8494 60.1363 17.4893 60.0507 16.9902C59.2235 17.853 58.2109 18.2844 57.013 18.2844C55.8506 18.2844 54.9023 17.9528 54.1678 17.2897C53.4333 16.6265 53.0661 15.8064 53.0661 14.8295C53.0661 13.5959 53.5224 12.6511 54.4352 11.995C55.3551 11.3319 56.6671 11.0003 58.3714 11.0003H59.9651V10.2409C59.9651 9.64188 59.7975 9.16412 59.4624 8.80758C59.1272 8.44391 58.6174 8.26207 57.9328 8.26207C57.341 8.26207 56.8561 8.41182 56.4782 8.71131C56.1002 9.00368 55.9113 9.37804 55.9113 9.83441H53.3121C53.3121 9.19977 53.5224 8.60792 53.9432 8.05885C54.3639 7.50265 54.9343 7.06767 55.6546 6.75391C56.3819 6.44016 57.1912 6.28328 58.0826 6.28328C59.4374 6.28328 60.5177 6.62556 61.3235 7.31011C62.1293 7.98754 62.5429 8.94306 62.5643 10.1767V15.3964C62.5643 16.4375 62.7105 17.2683 63.0028 17.8886V18.0705H60.3502ZM57.4943 16.1986C58.0077 16.1986 58.489 16.0739 58.9383 15.8243C59.3946 15.5747 59.7369 15.2396 59.9651 14.8188V12.6368H58.5639C57.6013 12.6368 56.8775 12.8044 56.3926 13.1395C55.9077 13.4747 55.6652 13.9489 55.6652 14.5621C55.6652 15.0613 55.8293 15.4606 56.1573 15.7601C56.4924 16.0525 56.9381 16.1986 57.4943 16.1986Z" fill="black"/>
<path d="M68.0514 18.0705H65.4523V6.4972H68.0514V18.0705ZM65.2918 3.49158C65.2918 3.09225 65.4166 2.76067 65.6662 2.49683C65.9229 2.23299 66.2866 2.10107 66.7572 2.10107C67.2278 2.10107 67.5915 2.23299 67.8482 2.49683C68.1049 2.76067 68.2333 3.09225 68.2333 3.49158C68.2333 3.88377 68.1049 4.21179 67.8482 4.47563C67.5915 4.73233 67.2278 4.86069 66.7572 4.86069C66.2866 4.86069 65.9229 4.73233 65.6662 4.47563C65.4166 4.21179 65.2918 3.88377 65.2918 3.49158Z" fill="black"/>
</svg>
